<?xml version="1.0" encoding="UTF-8"?><svg id="a" xmlns="http://www.w3.org/2000/svg" xmlns:xlink="http://www.w3.org/1999/xlink" viewBox="0 0 1920 1080"><defs><style>.ai{fill:#9c1c49;}.aj{fill:url(#t);}.ak{fill:url(#r);}.al{fill:url(#y);}.am{fill:url(#l);}.an{fill:url(#af);}.ao{fill:url(#u);}.ap{fill:url(#ah);}.aq{fill:url(#v);}.ar{fill:url(#a`);}.as{opacity:.1;}.as,.at{fill:#fff;}.au{fill:url(#m);}.av{fill:url(#f);}.aw{fill:url(#ae);}.ax{fill:#e06c91;}.ay{fill:url(#p);}.b`{fill:#570934;}.ba{fill:#db6385;}.bb{fill:url(#g);}.bc{fill:url(#ad);}.bd{fill:url(#ab);}.be{fill:url(#b);}.bf{clip-path:url(#c);}.bg{fill:#bd366a;}.bh{fill:url(#i);}.bi{fill:#b7437c;}.bj{fill:#bb2c60;}.bk{fill:url(#h);}.bl{fill:#f69078;}.bm{fill:url(#d);}.bn{fill:url(#e);}.bo{fill:none;}.bp{fill:url(#x);}.bq{fill:url(#aa);}.br{fill:url(#s);}.bs{fill:url(#n);}.bt{fill:url(#ac);}.bu{fill:url(#w);}.bv{fill:#6e113f;}.bw{fill:url(#j);}.bx{fill:url(#o);}.by{fill:url(#q);}.c`{fill:url(#ag);}.ca{fill:#f3797a;}.cb{fill:url(#k);}.at{opacity:.05;}.cc{fill:#c44882;}</style><linearGradient id="b" x1="939.29" y1="1362.55" x2="980.16" y2="-241.66" gradientTransform="matrix(1, 0, 0, 1, 0, 0)" gradientUnits="userSpaceOnUse"><stop offset="0" stop-color="#ffef96"/><stop offset=".26" stop-color="#f8a792"/><stop offset=".41" stop-color="#ee8392"/><stop offset=".54" stop-color="#e76892"/><stop offset=".61" stop-color="#e55f93"/><stop offset=".69" stop-color="#da6197"/><stop offset=".83" stop-color="#bd68a2"/><stop offset="1" stop-color="#9174b4"/></linearGradient><clipPath id="c"><rect class="bo" x="3.82" y="-159.13" width="1915.95" height="1244.04"/></clipPath><linearGradient id="d" x1="1389.28" y1="1072.66" x2="1396.96" y2="255.22" gradientTransform="matrix(1, 0, 0, 1, 0, 0)" gradientUnits="userSpaceOnUse"><stop offset=".03" stop-color="#bb2c60"/><stop offset=".3" stop-color="#c9385d"/><stop offset=".8" stop-color="#ed5857"/><stop offset=".84" stop-color="#f15b57"/></linearGradient><linearGradient id="e" x1="1585.88" y1="1039.62" x2="1585.88" y2="-62.63" gradientTransform="matrix(1, 0, 0, 1, 0, 0)" gradientUnits="userSpaceOnUse"><stop offset=".03" stop-color="#bb2c60"/><stop offset=".39" stop-color="#c63a6d"/><stop offset=".84" stop-color="#db5285"/></linearGradient><linearGradient id="f" x1="-179.39" y1="1079.76" x2="-162.88" y2="380.93" gradientTransform="translate(1455.72) rotate(-180) scale(1 -1)" xlink:href="#d"/><linearGradient id="g" x1="-224.42" y1="1129.32" x2="-206.07" y2="352.38" gradientTransform="translate(1455.72) rotate(-180) scale(1 -1)" xlink:href="#d"/><linearGradient id="h" x1="-275.45" y1="1135.71" x2="-254.41" y2="245.38" gradientTransform="translate(1455.72) rotate(-180) scale(1 -1)" xlink:href="#d"/><linearGradient id="i" x1="-303.29" y1="1074.97" x2="-300.98" y2="424.65" gradientTransform="translate(1455.72) rotate(-180) scale(1 -1)" gradientUnits="userSpaceOnUse"><stop offset="0" stop-color="#9c1c49"/><stop offset=".43" stop-color="#a62150"/><stop offset="1" stop-color="#bb2c60"/></linearGradient><linearGradient id="j" x1="-297.35" y1="752.65" x2="-291.39" y2="337.12" xlink:href="#i"/><linearGradient id="k" x1="-301.37" y1="1075.15" x2="-298.93" y2="386.94" xlink:href="#i"/><linearGradient id="l" x1="1469.05" y1="1006.24" x2="1470.91" y2="669.82" gradientTransform="matrix(1, 0, 0, 1, 0, 0)" xlink:href="#i"/><linearGradient id="m" x1="1565.06" y1="1002.46" x2="1566.92" y2="665.93" gradientTransform="matrix(1, 0, 0, 1, 0, 0)" xlink:href="#i"/><linearGradient id="n" x1="1525.79" y1="1133.71" x2="1529.63" y2="689.26" gradientTransform="matrix(1, 0, 0, 1, 0, 0)" xlink:href="#i"/><linearGradient id="o" x1="1400.57" y1="1133.64" x2="1404.39" y2="689.71" xlink:href="#d"/><linearGradient id="p" x1="160.93" y1="1070.32" x2="164.42" y2="87.87" gradientTransform="matrix(1, 0, 0, 1, 0, 0)" xlink:href="#i"/><linearGradient id="q" x1="284.64" y1="1061.71" x2="307.63" y2="88.51" xlink:href="#d"/><linearGradient id="r" x1="706.16" y1="1071.67" x2="729.15" y2="98.47" xlink:href="#d"/><linearGradient id="s" x1="655.93" y1="1070.48" x2="678.92" y2="97.28" xlink:href="#d"/><linearGradient id="t" x1="611.36" y1="1069.43" x2="634.35" y2="96.23" xlink:href="#d"/><linearGradient id="u" x1="484.87" y1="1149.4" x2="510.41" y2="416.26" gradientTransform="matrix(1, 0, 0, 1, 0, 0)" xlink:href="#i"/><linearGradient id="v" x1="927.47" y1="1076.9" x2="950.46" y2="103.69" xlink:href="#d"/><linearGradient id="w" x1="895.67" y1="1076.15" x2="918.66" y2="102.94" xlink:href="#d"/><linearGradient id="x" x1="818.57" y1="1072.57" x2="821.66" y2="206.29" gradientTransform="matrix(1, 0, 0, 1, 0, 0)" xlink:href="#i"/><linearGradient id="y" x1="784.23" y1="237.34" x2="784.71" y2="103.67" gradientTransform="matrix(1, 0, 0, 1, 0, 0)" xlink:href="#i"/><linearGradient id="a`" x1="862.32" y1="295.34" x2="862.8" y2="161.67" gradientTransform="matrix(1, 0, 0, 1, 0, 0)" xlink:href="#i"/><linearGradient id="aa" x1="820.56" y1="1033.65" x2="823.64" y2="167.37" gradientTransform="matrix(1, 0, 0, 1, 0, 0)" xlink:href="#i"/><linearGradient id="ab" x1="975.48" y1="1008" x2="977.34" y2="671.25" gradientTransform="matrix(1, 0, 0, 1, 0, 0)" xlink:href="#i"/><linearGradient id="ac" x1="1067.98" y1="1009.11" x2="1069.84" y2="672.7" gradientTransform="matrix(1, 0, 0, 1, 0, 0)" xlink:href="#i"/><linearGradient id="ad" x1="976.01" y1="972.5" x2="977.87" y2="636.08" gradientTransform="matrix(1, 0, 0, 1, 0, 0)" xlink:href="#i"/><linearGradient id="ae" x1="1124.18" y1="1007.84" x2="1126.04" y2="671.42" gradientTransform="matrix(1, 0, 0, 1, 0, 0)" xlink:href="#i"/><linearGradient id="af" x1="1027.5" y1="1086.67" x2="1013.75" y2="696.28" gradientTransform="matrix(1, 0, 0, 1, 0, 0)" xlink:href="#i"/><linearGradient id="ag" x1="850.06" y1="1075.07" x2="873.05" y2="101.86" xlink:href="#d"/><linearGradient id="ah" x1="1181.67" y1="1082.9" x2="1204.66" y2="109.7" xlink:href="#d"/></defs><g><rect class="be" x="3.82" y="-159.12" width="1915.95" height="1277.23"/><g><g class="bf"><path class="as" d="M1919.62,907.12V440.76c-15.87-11.1-33.9-19.42-53.36-24.2-.28-85.87-71.24-155.4-158.75-155.4-75.37,0-138.43,51.59-154.66,120.76-21.15-10.25-44.95-16.03-70.13-16.03-51.88,0-97.94,24.44-126.91,62.23-17.09-68-79.59-118.43-154.11-118.43-87.68,0-158.76,69.8-158.76,155.9,0,8.09,.63,16.03,1.84,23.78-22.46-11.96-48.2-18.75-75.54-18.75-9.92,0-19.61,.94-29.03,2.65-28.5-41.65-76.92-69.06-131.86-69.06-4.8,0-9.54,.25-14.23,.66-22.11-59.97-80.61-102.83-149.31-102.83-25.19,0-48.99,5.78-70.14,16.03-16.23-69.17-79.29-120.77-154.66-120.77-58.22,0-109.09,30.79-136.72,76.67-53.83,.43-101.26,27.16-129.64,67.75-14.36-4.19-29.56-6.48-45.3-6.48-40.1,0-76.69,14.63-104.64,38.7v236.06h-.02v474.84H1919.62v-177.72h0Z"/><path class="as" d="M2008.18,1038.25v-466.36c-15.87-11.1-33.9-19.42-53.36-24.2-.28-85.87-71.24-155.4-158.75-155.4-75.37,0-138.43,51.59-154.66,120.76-21.15-10.25-44.95-16.03-70.13-16.03-51.88,0-97.94,24.44-126.91,62.23-17.09-68-79.59-118.43-154.11-118.43-87.68,0-158.76,69.8-158.76,155.9,0,8.09,.63,16.03,1.84,23.78-22.46-11.96-48.2-18.75-75.54-18.75-9.92,0-19.61,.94-29.03,2.65-28.5-41.65-76.92-69.06-131.86-69.06-4.8,0-9.54,.25-14.23,.66-22.11-59.97-80.61-102.83-149.31-102.83-25.19,0-48.99,5.78-70.14,16.03-16.23-69.17-79.29-120.77-154.66-120.77-58.22,0-109.09,30.79-136.72,76.67-53.83,.43-101.26,27.16-129.64,67.75-14.36-4.19-29.56-6.48-45.3-6.48-40.1,0-76.69,14.63-104.64,38.7v236.06h-.02v474.84H2008.18v-177.72h0Z"/><path class="as" d="M1747.61,1112.33v-466.36c-15.87-11.1-33.9-19.42-53.36-24.2-.28-85.87-71.24-155.4-158.75-155.4-75.37,0-138.43,51.59-154.66,120.76-21.15-10.25-44.95-16.03-70.13-16.03-51.88,0-97.94,24.44-126.91,62.23-17.09-68-79.59-118.43-154.11-118.43-87.68,0-158.76,69.8-158.76,155.9,0,8.09,.63,16.03,1.84,23.78-22.46-11.96-48.2-18.75-75.54-18.75-9.92,0-19.61,.94-29.03,2.65-28.5-41.65-76.92-69.06-131.86-69.06-4.8,0-9.54,.25-14.23,.66-22.11-59.97-80.61-102.83-149.31-102.83-25.19,0-48.99,5.78-70.14,16.03-16.23-69.17-79.29-120.77-154.66-120.77-58.22,0-109.09,30.79-136.72,76.67-53.83,.43-101.26,27.16-129.64,67.75-14.36-4.19-29.56-6.48-45.3-6.48-40.1,0-76.69,14.63-104.64,38.7v236.06h-.02v474.84H1747.62v-177.72h0Z"/></g><g><path class="at" d="M831.09,116.83S437.68,74.28,228.2-158.49l-224.38-.63S302.28,114.33,831.09,116.83Z"/><path class="at" d="M1090.8,120.17s393.95-45.89,603.43-278.66l225.53-.63S1619.6,117.67,1090.8,120.17Z"/><path class="at" d="M780.33,71.77S411.51,3.88,375.74-158.81h63.23s-18.84,101.68,341.36,230.58Z"/><path class="at" d="M1152.66,71.77S1522.44,3.67,1558.2-159.02l-64.61,.21s19.27,101.68-340.93,230.58Z"/></g></g></g><g><g><g><g><rect class="cc" x="275.85" y="286.62" width="235.02" height="799.13"/><rect class="cc" x="574.72" y="363.25" width="103.67" height="720.8"/><g><rect class="cc" x="991.12" y="367.56" width="103.67" height="717.66"/><rect class="cc" x="1011.52" y="302.71" width="58.76" height="640.08"/><rect class="cc" x="1033.23" y="184.45" width="20.44" height="640.08"/></g><g><rect class="cc" x="1227.38" y="377.31" width="259.34" height="693.11"/><polygon class="cc" points="1432.93 1084.05 1146.95 1084.05 1148.19 622.54 1432.93 510.14 1432.93 1084.05"/></g></g><g><rect class="bi" x="1218.48" y="678.3" width="103.67" height="407.45"/><rect class="bi" x="641.14" y="540.36" width="103.67" height="541.98"/><rect class="bi" x="283.5" y="402.42" width="103.67" height="674.82"/></g></g><g><g><g><g><polygon class="bm" points="1510.01 1084.9 1274.98 1084.9 1276.13 253.78 1510.01 163.78 1510.01 1084.9"/><polygon class="bn" points="1663.15 1083.19 1508.6 1083.19 1508.6 162.95 1662.3 237.88 1663.15 1083.19"/></g><g><polygon class="bl" points="1318.13 312.73 1303.32 317.58 1303.32 283.61 1318.34 278.67 1318.13 312.73"/><g><polygon class="bl" points="1371.18 390.05 1356.37 394.9 1356.37 360.93 1371.4 355.99 1371.18 390.05"/><polygon class="bl" points="1476.77 354.29 1461.96 359.14 1461.96 325.17 1476.99 320.23 1476.77 354.29"/></g><g><polygon class="bl" points="1318.34 502.18 1303.53 507.03 1303.53 473.06 1318.56 468.12 1318.34 502.18"/><polygon class="bl" points="1476.73 448.54 1461.91 453.39 1461.91 419.42 1476.94 414.48 1476.73 448.54"/></g><g><polygon class="ca" points="1371.56 579.03 1356.75 583.88 1356.75 549.91 1371.78 544.97 1371.56 579.03"/><polygon class="ca" points="1424.36 561.15 1409.55 566 1409.55 532.03 1424.57 527.09 1424.36 561.15"/></g><g><polygon class="ca" points="1371.25 673.65 1356.43 678.5 1356.43 644.53 1371.46 639.59 1371.25 673.65"/><polygon class="ca" points="1476.84 637.89 1462.02 642.74 1462.02 608.77 1477.05 603.83 1476.84 637.89"/></g><polygon class="ax" points="1423.99 750.6 1409.17 755.45 1409.17 721.49 1424.2 716.54 1423.99 750.6"/><g><polygon class="ax" points="1318.37 881.09 1303.56 885.95 1303.56 851.98 1318.58 847.04 1318.37 881.09"/><polygon class="ax" points="1371.17 863.21 1356.35 868.06 1356.35 834.1 1371.38 829.15 1371.17 863.21"/></g><polygon class="ax" points="1476.86 922.88 1462.02 927.63 1462.25 893.66 1477.31 888.82 1476.86 922.88"/><g><polygon class="ax" points="1316.8 1069.6 1301.8 1073.83 1303.21 1039.89 1318.43 1035.58 1316.8 1069.6"/><polygon class="ax" points="1477.28 1022.6 1462.28 1026.83 1463.69 992.89 1478.91 988.57 1477.28 1022.6"/></g></g></g><g><g><g><g><polygon class="av" points="1586.51 1085.11 1670.4 1085.11 1670.4 511.62 1587.49 541.68 1586.51 1085.11"/><polygon class="bb" points="1642.43 1085.11 1700.7 1085.11 1700.7 447.52 1642.33 475.67 1642.43 1085.11"/><polygon class="bk" points="1693.52 1085.11 1751.79 1085.11 1749.16 354.53 1689.55 397.18 1693.52 1085.11"/></g><g><polygon class="bh" points="1670.4 1084.26 1845.25 1084.26 1845.25 403.65 1670.34 484.74 1670.4 1084.26"/><polygon class="bw" points="1777.23 471.34 1719.5 518.17 1719.5 378.3 1777.23 331.47 1777.23 471.34"/><polygon class="cb" points="1701.48 1085.11 1810.2 1085.11 1810.2 364.85 1700.64 430.32 1701.48 1085.11"/></g></g><g><rect class="ba" x="1813.86" y="461.23" width="15.15" height="33.97" transform="translate(3642.87 956.43) rotate(-180)"/><g><rect class="ba" x="1773.84" y="557.87" width="15.15" height="33.97" transform="translate(3562.83 1149.7) rotate(-180)"/><rect class="ba" x="1693.81" y="557.67" width="15.15" height="33.97" transform="translate(3402.77 1149.31) rotate(-180)"/></g><g><rect class="ba" x="1813.86" y="654.7" width="15.15" height="33.97" transform="translate(3642.87 1343.37) rotate(-180)"/><rect class="ba" x="1733.82" y="654.5" width="15.15" height="33.97" transform="translate(3482.8 1342.98) rotate(-180)"/></g><g><rect class="ba" x="1733.82" y="751.24" width="15.15" height="33.97" transform="translate(3482.8 1536.45) rotate(-180)"/><rect class="ba" x="1693.81" y="751.14" width="15.15" height="33.97" transform="translate(3402.77 1536.25) rotate(-180)"/></g><rect class="ba" x="1813.86" y="848.17" width="15.15" height="33.97" transform="translate(3642.87 1730.31) rotate(-180)"/><rect class="ba" x="1693.81" y="932.48" width="15.15" height="33.97" transform="translate(3402.77 1898.93) rotate(-180)"/><g><rect class="ba" x="1774.36" y="1024.06" width="15.15" height="33.97" transform="translate(3563.88 2082.09) rotate(-180)"/><rect class="ba" x="1734.35" y="1023.96" width="15.15" height="33.97" transform="translate(3483.85 2081.9) rotate(-180)"/></g></g></g><g><rect class="am" x="1464.74" y="639.46" width="10.43" height="404.46"/><rect class="au" x="1548.19" y="635.63" width="35.55" height="404.46"/><g><g><rect class="bs" x="1438.13" y="676.93" width="179.67" height="408.72"/><polygon class="bx" points="1438.13 676.93 1366.82 738.66 1364.26 1086.07 1438.13 1085.64 1438.13 676.93"/></g><g><g><rect class="ba" x="1465.7" y="711.75" width="15.15" height="33.97"/><rect class="ba" x="1505.72" y="711.65" width="15.15" height="33.97"/></g><rect class="ba" x="1584.47" y="804.7" width="15.15" height="33.97"/><g><rect class="ba" x="1463.14" y="898.23" width="15.15" height="33.97"/><rect class="ba" x="1583.2" y="897.93" width="15.15" height="33.97"/></g><rect class="ba" x="1541.9" y="991.27" width="15.15" height="33.97"/></g></g></g></g></g><g><g><g><rect class="ay" x="75.28" y="56.92" width="174.85" height="1027.59"/><polygon class="by" points="342.43 1084.52 250.06 1084.52 250.06 56.93 341.92 100.44 342.43 1084.52"/></g><g><g><rect class="ba" x="95.01" y="100.6" width="15.15" height="33.97"/><rect class="ba" x="95.01" y="185.97" width="15.15" height="33.97"/><rect class="ba" x="215.06" y="185.68" width="15.15" height="33.97"/><rect class="ba" x="175.05" y="271.15" width="15.15" height="33.97"/><rect class="ba" x="95.01" y="356.72" width="15.15" height="33.97"/><rect class="ba" x="135.03" y="356.62" width="15.15" height="33.97"/><rect class="ba" x="175.05" y="441.89" width="15.15" height="33.97"/><rect class="ba" x="215.06" y="441.8" width="15.15" height="33.97"/><rect class="ba" x="95.01" y="527.46" width="15.15" height="33.97"/><rect class="ba" x="215.06" y="527.17" width="15.15" height="33.97"/><rect class="ba" x="135.03" y="612.74" width="15.15" height="33.97"/><rect class="ba" x="95.01" y="698.2" width="15.15" height="33.97"/><rect class="ba" x="215.06" y="783.29" width="15.15" height="33.97"/><rect class="ba" x="95.01" y="868.95" width="15.15" height="33.97"/><rect class="ba" x="95.01" y="954.32" width="15.15" height="33.97"/><rect class="ba" x="215.06" y="954.03" width="15.15" height="33.97"/></g><g><rect class="bj" x="78.01" y="241.86" width="163.18" height="2.33"/><rect class="bg" x="82.68" y="158.72" width="163.18" height="2.33"/><rect class="bj" x="81.12" y="326.55" width="163.18" height="2.33"/><rect class="bj" x="84.23" y="411.24" width="163.18" height="2.33"/><rect class="bj" x="87.34" y="495.93" width="163.18" height="2.33"/><rect class="bj" x="80.54" y="580.04" width="163.18" height="2.33"/><rect class="bj" x="81.32" y="665.32" width="163.18" height="2.33"/><rect class="bj" x="82.68" y="749.42" width="163.18" height="2.33"/><rect class="bj" x="83.45" y="835.28" width="163.18" height="2.33"/><rect class="bj" x="83.06" y="919.2" width="163.18" height="2.33"/><rect class="bj" x="80.64" y="1003.79" width="163.18" height="2.33"/></g></g></g><g><g><rect class="ai" x="434.3" y="479.85" width="9.01" height="168.84"/><g><g><polygon class="ak" points="739.96 1086.48 681.36 1086.48 681.36 675.96 739.59 699.15 739.96 1086.48"/><polygon class="br" points="694.08 734.15 636.54 734.15 636.54 612.61 693.8 638.51 694.08 734.15"/><polygon class="aj" points="661.48 634.16 583.7 634.16 583.7 554.48 660.7 589.17 661.48 634.16"/></g><polygon class="ao" points="636.56 675.34 636.56 612.03 583.07 612.03 583.07 553.9 405.07 553.9 405.07 612.03 351.74 612.03 351.74 675.34 307 675.34 307 1086.44 681.45 1086.44 681.45 675.34 636.56 675.34"/></g></g><g><g><rect class="ba" x="427.19" y="568.62" width="15.15" height="33.97"/><rect class="ba" x="467.21" y="568.52" width="15.15" height="33.97"/><rect class="ba" x="507.23" y="568.42" width="15.15" height="33.97"/><rect class="ba" x="547.24" y="568.33" width="15.15" height="33.97"/></g><g><g><g><rect class="ba" x="343.21" y="711.66" width="15.15" height="33.97"/><rect class="ba" x="463.26" y="711.36" width="15.15" height="33.97"/></g><rect class="ba" x="543.16" y="711.12" width="15.15" height="33.97"/></g><g><g><rect class="ba" x="342.44" y="810.33" width="15.15" height="33.97"/><rect class="ba" x="382.45" y="810.24" width="15.15" height="33.97"/></g><g><rect class="ba" x="502.36" y="809.9" width="15.15" height="33.97"/><rect class="ba" x="622.41" y="809.61" width="15.15" height="33.97"/></g></g><g><rect class="ba" x="421.69" y="908.82" width="15.15" height="33.97"/><g><rect class="ba" x="581.62" y="908.38" width="15.15" height="33.97"/><rect class="ba" x="621.64" y="908.28" width="15.15" height="33.97"/></g></g><g><g><rect class="ba" x="340.88" y="1007.69" width="15.15" height="33.97"/><rect class="ba" x="460.93" y="1007.4" width="15.15" height="33.97"/></g><rect class="ba" x="540.82" y="1007.16" width="15.15" height="33.97"/></g></g></g></g><g><g><g><polygon class="aq" points="965.85 1085.04 907.57 1085.04 907.57 286.39 965.17 328.25 965.85 1085.04"/><polygon class="bu" points="935.54 1020.94 877.27 1020.94 877.27 222.29 935.64 257.54 935.54 1020.94"/></g><g><polygon class="bp" points="907.57 1085.04 732.72 1085.04 732.72 178.42 907.63 286.44 907.57 1085.04"/><g><rect class="al" x="780.98" y="99.43" width="6.99" height="139.87"/><rect class="ar" x="859.07" y="157.43" width="6.99" height="139.87"/></g><polygon class="bq" points="876.48 1046.24 767.77 1046.24 767.77 139.62 877.33 222.03 876.48 1046.24"/></g></g><g><g><rect class="ba" x="748.96" y="236" width="15.15" height="33.97"/><g><rect class="ba" x="788.98" y="332.63" width="15.15" height="33.97"/><rect class="ba" x="869.01" y="332.44" width="15.15" height="33.97"/></g><g><rect class="ba" x="748.96" y="429.47" width="15.15" height="33.97"/><rect class="ba" x="828.99" y="429.27" width="15.15" height="33.97"/></g><g><rect class="ba" x="828.99" y="526.01" width="15.15" height="33.97"/><rect class="ba" x="869.01" y="525.91" width="15.15" height="33.97"/></g><rect class="ba" x="748.96" y="622.94" width="15.15" height="33.97"/><rect class="ba" x="869.01" y="719.38" width="15.15" height="33.97"/><g><rect class="ba" x="788.98" y="816.31" width="15.15" height="33.97"/><rect class="ba" x="828.99" y="816.21" width="15.15" height="33.97"/></g><g><rect class="ba" x="748.96" y="913.14" width="15.15" height="33.97"/><rect class="ba" x="869.01" y="912.85" width="15.15" height="33.97"/></g><g><rect class="ba" x="788.98" y="1009.78" width="15.15" height="33.97"/><rect class="ba" x="869.01" y="1009.59" width="15.15" height="33.97"/></g></g><g><rect class="bj" x="740.01" y="400.36" width="163.18" height="2.33"/><rect class="bj" x="739.23" y="499.04" width="163.18" height="2.33"/><rect class="bj" x="738.46" y="597.72" width="163.18" height="2.33"/><rect class="bj" x="737.68" y="696.4" width="163.18" height="2.33"/><rect class="bj" x="736.9" y="795.07" width="163.18" height="2.33"/><rect class="bj" x="736.13" y="893.75" width="163.18" height="2.33"/><rect class="bj" x="735.35" y="992.43" width="163.18" height="2.33"/></g></g></g></g><g><g><rect class="bd" x="934.67" y="641.06" width="83.45" height="404.46"/><rect class="bt" x="1063.67" y="642.34" width="10.43" height="404.46"/><rect class="bc" x="971.71" y="605.72" width="10.43" height="404.46"/><rect class="aw" x="1119.87" y="641.06" width="10.43" height="404.46"/></g><g><rect class="an" x="880.97" y="703.65" width="279.52" height="381.46"/><polygon class="c`" points="880.87 1084.99 825.24 1084.99 825.89 784 880.87 703.65 880.87 1084.99"/><polygon class="ap" points="1211.77 1085.04 1160.48 1085.04 1160.48 703.7 1211.84 784 1211.77 1085.04"/></g><g><g><g><rect class="ba" x="913.26" y="751.33" width="15.15" height="33.97"/><rect class="ba" x="1033.31" y="751.04" width="15.15" height="33.97"/></g><g><g><rect class="ba" x="912.62" y="842.01" width="15.15" height="33.97"/><rect class="ba" x="952.64" y="841.91" width="15.15" height="33.97"/></g><rect class="ba" x="1112.57" y="841.48" width="15.15" height="33.97"/></g><g><rect class="ba" x="992.02" y="932.5" width="15.15" height="33.97"/><rect class="ba" x="1111.93" y="932.16" width="15.15" height="33.97"/></g><g><rect class="ba" x="911.35" y="1023.38" width="15.15" height="33.97"/><rect class="ba" x="1031.4" y="1023.09" width="15.15" height="33.97"/></g></g><g><rect class="bj" x="904.01" y="701.94" width="2.76" height="383.17"/><rect class="bj" x="941.8" y="701.94" width="2.76" height="383.17"/><rect class="bj" x="979.54" y="701.94" width="2.76" height="383.17"/><rect class="bj" x="1017.46" y="701.83" width="2.76" height="383.17"/><rect class="bj" x="1055.11" y="701.94" width="2.76" height="383.17"/><rect class="bj" x="1092.95" y="701.91" width="2.76" height="383.17"/><rect class="bj" x="1130.74" y="701.95" width="2.76" height="383.17"/></g></g></g></g></g><g><g><g><g><ellipse class="bv" cx="418.88" cy="1024.44" rx="34.29" ry="35.85"/><rect class="b`" x="414.95" y="1035.08" width="9.01" height="55.25"/></g><g><ellipse class="bv" cx="1152.42" cy="1024.71" rx="34.29" ry="35.85"/><rect class="b`" x="1148.49" y="1035.35" width="9.01" height="55.25"/></g></g><g><g><polygon class="bv" points="291.12 988.68 262.2 1062.07 320.05 1062.61 291.12 988.68"/><rect class="b`" x="286.45" y="1040.92" width="9.33" height="57.17"/></g><g><polygon class="bv" points="817.36 988.81 788.43 1062.2 846.29 1062.74 817.36 988.81"/><rect class="b`" x="812.68" y="1041.05" width="9.33" height="57.17"/></g><g><polygon class="bv" points="1254.2 987.53 1225.27 1060.92 1283.12 1061.46 1254.2 987.53"/><rect class="b`" x="1249.52" y="1039.77" width="9.33" height="57.17"/></g><g><polygon class="bv" points="1691.03 986.25 1662.11 1059.65 1719.96 1060.19 1691.03 986.25"/><rect class="b`" x="1686.36" y="1038.49" width="9.33" height="57.17"/></g></g></g><g><g><g><polygon class="bv" points="659.62 1060.63 600.87 1060.63 600.87 1040.83 642.17 1041.05 659.62 1060.63"/><rect class="bv" x="576.81" y="1055.2" width="96.22" height="19.8"/></g><ellipse class="bv" cx="595.86" cy="1075.96" rx="9.26" ry="8.2"/><ellipse class="bv" cx="654.19" cy="1076.06" rx="9.26" ry="8.2"/></g><g><g><polygon class="bv" points="1509.45 1061.69 1450.69 1061.69 1450.69 1041.9 1491.99 1042.11 1509.45 1061.69"/><rect class="bv" x="1426.64" y="1056.27" width="96.22" height="19.8"/></g><ellipse class="bv" cx="1445.69" cy="1077.02" rx="9.26" ry="8.2"/><ellipse class="bv" cx="1504.02" cy="1077.13" rx="9.26" ry="8.2"/></g></g></g></g></svg>