<?xml version="1.0" encoding="UTF-8"?><svg id="a" xmlns="http://www.w3.org/2000/svg" xmlns:xlink="http://www.w3.org/1999/xlink" viewBox="0 0 305.38 202.67"><defs><style>.ai{fill:#9c1c49;}.aj{fill:url(#t);}.ak{fill:url(#r);}.al{fill:url(#y);}.am{fill:url(#l);}.an{fill:url(#af);}.ao{fill:url(#u);}.ap{fill:url(#ah);}.aq{fill:url(#v);}.ar{fill:url(#a`);}.as{opacity:.1;}.as,.at{fill:#fff;}.au{fill:url(#m);}.av{fill:url(#f);}.aw{fill:url(#ae);}.ax{fill:#e06c91;}.ay{fill:url(#p);}.b`{fill:#570934;}.ba{fill:#db6385;}.bb{fill:url(#g);}.bc{fill:url(#ad);}.bd{fill:url(#ab);}.be{fill:url(#b);}.bf{clip-path:url(#c);}.bg{fill:#bd366a;}.bh{fill:url(#i);}.bi{fill:#b7437c;}.bj{fill:#bb2c60;}.bk{fill:url(#h);}.bl{fill:#f69078;}.bm{fill:url(#d);}.bn{fill:url(#e);}.bo{fill:none;}.bp{fill:url(#x);}.bq{fill:url(#aa);}.br{fill:url(#s);}.bs{fill:url(#n);}.bt{fill:url(#ac);}.bu{fill:url(#w);}.bv{fill:#6e113f;}.bw{fill:url(#j);}.bx{fill:url(#o);}.by{fill:url(#q);}.c`{fill:url(#ag);}.ca{fill:#f3797a;}.cb{fill:url(#k);}.at{opacity:.05;}.cc{fill:#c44882;}</style><linearGradient id="b" x1="148.44" y1="241.46" x2="154.92" y2="-13.1" gradientTransform="matrix(1, 0, 0, 1, 0, 0)" gradientUnits="userSpaceOnUse"><stop offset="0" stop-color="#ffef96"/><stop offset=".26" stop-color="#f8a792"/><stop offset=".41" stop-color="#ee8392"/><stop offset=".54" stop-color="#e76892"/><stop offset=".61" stop-color="#e55f93"/><stop offset=".69" stop-color="#da6197"/><stop offset=".83" stop-color="#bd68a2"/><stop offset="1" stop-color="#9174b4"/></linearGradient><clipPath id="c"><rect class="bo" width="304.02" height="197.4"/></clipPath><linearGradient id="d" x1="219.84" y1="195.46" x2="221.06" y2="65.75" gradientTransform="matrix(1, 0, 0, 1, 0, 0)" gradientUnits="userSpaceOnUse"><stop offset=".03" stop-color="#bb2c60"/><stop offset=".3" stop-color="#c9385d"/><stop offset=".8" stop-color="#ed5857"/><stop offset=".84" stop-color="#f15b57"/></linearGradient><linearGradient id="e" x1="251.04" y1="190.21" x2="251.04" y2="15.31" gradientTransform="matrix(1, 0, 0, 1, 0, 0)" gradientUnits="userSpaceOnUse"><stop offset=".03" stop-color="#bb2c60"/><stop offset=".39" stop-color="#c63a6d"/><stop offset=".84" stop-color="#db5285"/></linearGradient><linearGradient id="f" x1="1200.48" y1="196.58" x2="1203.1" y2="85.7" gradientTransform="translate(1459.32) rotate(-180) scale(1 -1)" xlink:href="#d"/><linearGradient id="g" x1="1193.33" y1="204.45" x2="1196.24" y2="81.17" gradientTransform="translate(1459.32) rotate(-180) scale(1 -1)" xlink:href="#d"/><linearGradient id="h" x1="1185.23" y1="205.46" x2="1188.57" y2="64.19" gradientTransform="translate(1459.32) rotate(-180) scale(1 -1)" xlink:href="#d"/><linearGradient id="i" x1="1180.82" y1="195.82" x2="1181.18" y2="92.63" gradientTransform="translate(1459.32) rotate(-180) scale(1 -1)" gradientUnits="userSpaceOnUse"><stop offset="0" stop-color="#9c1c49"/><stop offset=".43" stop-color="#a62150"/><stop offset="1" stop-color="#bb2c60"/></linearGradient><linearGradient id="j" x1="1181.76" y1="144.68" x2="1182.7" y2="78.74" xlink:href="#i"/><linearGradient id="k" x1="1181.12" y1="195.85" x2="1181.51" y2="86.65" xlink:href="#i"/><linearGradient id="l" x1="232.5" y1="184.92" x2="232.79" y2="131.54" gradientTransform="matrix(1, 0, 0, 1, 0, 0)" xlink:href="#i"/><linearGradient id="m" x1="247.73" y1="184.32" x2="248.03" y2="130.92" gradientTransform="matrix(1, 0, 0, 1, 0, 0)" xlink:href="#i"/><linearGradient id="n" x1="241.5" y1="205.14" x2="242.11" y2="134.62" gradientTransform="matrix(1, 0, 0, 1, 0, 0)" xlink:href="#i"/><linearGradient id="o" x1="221.63" y1="205.13" x2="222.24" y2="134.69" xlink:href="#d"/><linearGradient id="p" x1="24.93" y1="195.09" x2="25.48" y2="39.19" gradientTransform="matrix(1, 0, 0, 1, 0, 0)" xlink:href="#i"/><linearGradient id="q" x1="44.56" y1="193.72" x2="48.21" y2="39.29" xlink:href="#d"/><linearGradient id="r" x1="111.45" y1="195.3" x2="115.09" y2="40.87" xlink:href="#d"/><linearGradient id="s" x1="103.48" y1="195.11" x2="107.12" y2="40.69" xlink:href="#d"/><linearGradient id="t" x1="96.4" y1="194.94" x2="100.05" y2="40.52" xlink:href="#d"/><linearGradient id="u" x1="76.33" y1="207.63" x2="80.39" y2="91.3" gradientTransform="matrix(1, 0, 0, 1, 0, 0)" xlink:href="#i"/><linearGradient id="v" x1="146.56" y1="196.13" x2="150.21" y2="41.7" xlink:href="#d"/><linearGradient id="w" x1="141.52" y1="196.01" x2="145.16" y2="41.58" xlink:href="#d"/><linearGradient id="x" x1="129.28" y1="195.44" x2="129.77" y2="57.98" gradientTransform="matrix(1, 0, 0, 1, 0, 0)" xlink:href="#i"/><linearGradient id="y" x1="123.83" y1="62.91" x2="123.91" y2="41.7" gradientTransform="matrix(1, 0, 0, 1, 0, 0)" xlink:href="#i"/><linearGradient id="a`" x1="136.22" y1="72.11" x2="136.3" y2="50.9" gradientTransform="matrix(1, 0, 0, 1, 0, 0)" xlink:href="#i"/><linearGradient id="aa" x1="129.6" y1="189.27" x2="130.09" y2="51.81" gradientTransform="matrix(1, 0, 0, 1, 0, 0)" xlink:href="#i"/><linearGradient id="ab" x1="154.18" y1="185.2" x2="154.48" y2="131.76" gradientTransform="matrix(1, 0, 0, 1, 0, 0)" xlink:href="#i"/><linearGradient id="ac" x1="168.86" y1="185.37" x2="169.15" y2="131.99" gradientTransform="matrix(1, 0, 0, 1, 0, 0)" xlink:href="#i"/><linearGradient id="ad" x1="154.27" y1="179.56" x2="154.56" y2="126.18" gradientTransform="matrix(1, 0, 0, 1, 0, 0)" xlink:href="#i"/><linearGradient id="ae" x1="177.78" y1="185.17" x2="178.07" y2="131.79" gradientTransform="matrix(1, 0, 0, 1, 0, 0)" xlink:href="#i"/><linearGradient id="af" x1="162.43" y1="197.68" x2="160.25" y2="135.73" gradientTransform="matrix(1, 0, 0, 1, 0, 0)" xlink:href="#i"/><linearGradient id="ag" x1="134.28" y1="195.84" x2="137.93" y2="41.41" xlink:href="#d"/><linearGradient id="ah" x1="186.9" y1="197.08" x2="190.55" y2="42.66" xlink:href="#d"/></defs><g><rect class="be" y="0" width="304.02" height="202.67"/><g><g class="bf"><path class="as" d="M303.99,169.19V95.19c-2.52-1.76-5.38-3.08-8.47-3.84-.04-13.63-11.3-24.66-25.19-24.66-11.96,0-21.97,8.19-24.54,19.16-3.36-1.63-7.13-2.54-11.13-2.54-8.23,0-15.54,3.88-20.14,9.87-2.71-10.79-12.63-18.79-24.45-18.79-13.91,0-25.19,11.08-25.19,24.74,0,1.28,.1,2.54,.29,3.77-3.56-1.9-7.65-2.98-11.99-2.98-1.57,0-3.11,.15-4.61,.42-4.52-6.61-12.21-10.96-20.92-10.96-.76,0-1.51,.04-2.26,.1-3.51-9.52-12.79-16.32-23.69-16.32-4,0-7.77,.92-11.13,2.54-2.58-10.98-12.58-19.16-24.54-19.16-9.24,0-17.31,4.89-21.69,12.17-8.54,.07-16.07,4.31-20.57,10.75-2.28-.67-4.69-1.03-7.19-1.03-6.36,0-12.17,2.32-16.6,6.14v37.46h0v75.35H303.99v-28.2h0Z"/><path class="as" d="M318.05,190V116c-2.52-1.76-5.38-3.08-8.47-3.84-.04-13.63-11.3-24.66-25.19-24.66-11.96,0-21.97,8.19-24.54,19.16-3.36-1.63-7.13-2.54-11.13-2.54-8.23,0-15.54,3.88-20.14,9.87-2.71-10.79-12.63-18.79-24.45-18.79-13.91,0-25.19,11.08-25.19,24.74,0,1.28,.1,2.54,.29,3.77-3.56-1.9-7.65-2.98-11.99-2.98-1.57,0-3.11,.15-4.61,.42-4.52-6.61-12.21-10.96-20.92-10.96-.76,0-1.51,.04-2.26,.1-3.51-9.52-12.79-16.32-23.69-16.32-4,0-7.77,.92-11.13,2.54-2.58-10.98-12.58-19.16-24.54-19.16-9.24,0-17.31,4.89-21.69,12.17-8.54,.07-16.07,4.31-20.57,10.75-2.28-.67-4.69-1.03-7.19-1.03-6.36,0-12.17,2.32-16.6,6.14v37.46h0v75.35H318.05v-28.2h0Z"/><path class="as" d="M276.7,201.75V127.75c-2.52-1.76-5.38-3.08-8.47-3.84-.04-13.63-11.3-24.66-25.19-24.66-11.96,0-21.97,8.19-24.54,19.16-3.36-1.63-7.13-2.54-11.13-2.54-8.23,0-15.54,3.88-20.14,9.87-2.71-10.79-12.63-18.79-24.45-18.79-13.91,0-25.19,11.08-25.19,24.74,0,1.28,.1,2.54,.29,3.77-3.56-1.9-7.65-2.98-11.99-2.98-1.57,0-3.11,.15-4.61,.42-4.52-6.61-12.21-10.96-20.92-10.96-.76,0-1.51,.04-2.26,.1-3.51-9.52-12.79-16.32-23.69-16.32-4,0-7.77,.92-11.13,2.54-2.58-10.98-12.58-19.16-24.54-19.16-9.24,0-17.31,4.89-21.69,12.17-8.54,.07-16.07,4.31-20.57,10.75-2.28-.67-4.69-1.03-7.19-1.03-6.36,0-12.17,2.32-16.6,6.14v37.46h0v75.35H276.7v-28.2h0Z"/></g><g><path class="at" d="M131.27,43.79S68.84,37.04,35.6,.1L0,0S47.36,43.39,131.27,43.79Z"/><path class="at" d="M172.48,44.32S234.99,37.04,268.23,.1L304.02,0s-47.63,43.92-131.54,44.32Z"/><path class="at" d="M123.21,36.64S64.69,25.87,59.02,.05h10.03s-2.99,16.13,54.17,36.59Z"/><path class="at" d="M182.29,36.64S240.97,25.83,246.65,.02l-10.25,.03s3.06,16.13-54.1,36.59Z"/></g></g></g><g><g><g><g><rect class="cc" x="43.16" y="70.73" width="37.29" height="126.8"/><rect class="cc" x="90.59" y="82.89" width="16.45" height="114.37"/><g><rect class="cc" x="156.66" y="83.57" width="16.45" height="113.88"/><rect class="cc" x="159.9" y="73.28" width="9.32" height="101.57"/><rect class="cc" x="163.34" y="54.52" width="3.24" height="101.57"/></g><g><rect class="cc" x="194.15" y="85.12" width="41.15" height="109.98"/><polygon class="cc" points="226.77 197.26 181.39 197.26 181.59 124.03 226.77 106.2 226.77 197.26"/></g></g><g><rect class="bi" x="192.74" y="132.88" width="16.45" height="64.65"/><rect class="bi" x="101.13" y="110.99" width="16.45" height="86"/><rect class="bi" x="44.38" y="89.1" width="16.45" height="107.08"/></g></g><g><g><g><g><polygon class="bm" points="239 197.4 201.71 197.4 201.89 65.52 239 51.24 239 197.4"/><polygon class="bn" points="263.3 197.13 238.77 197.13 238.77 51.11 263.16 63 263.3 197.13"/></g><g><polygon class="bl" points="208.55 74.87 206.2 75.64 206.2 70.25 208.59 69.47 208.55 74.87"/><g><polygon class="bl" points="216.97 87.14 214.62 87.91 214.62 82.52 217 81.74 216.97 87.14"/><polygon class="bl" points="233.72 81.47 231.37 82.24 231.37 76.85 233.76 76.06 233.72 81.47"/></g><g><polygon class="bl" points="208.59 104.93 206.23 105.7 206.23 100.31 208.62 99.53 208.59 104.93"/><polygon class="bl" points="233.72 96.42 231.37 97.19 231.37 91.8 233.75 91.02 233.72 96.42"/></g><g><polygon class="ca" points="217.03 117.13 214.68 117.9 214.68 112.51 217.06 111.72 217.03 117.13"/><polygon class="ca" points="225.41 114.29 223.06 115.06 223.06 109.67 225.44 108.89 225.41 114.29"/></g><g><polygon class="ca" points="216.98 132.14 214.63 132.91 214.63 127.52 217.01 126.74 216.98 132.14"/><polygon class="ca" points="233.73 126.47 231.38 127.24 231.38 121.85 233.77 121.06 233.73 126.47"/></g><polygon class="ax" points="225.35 144.35 223 145.12 223 139.73 225.38 138.95 225.35 144.35"/><g><polygon class="ax" points="208.59 165.06 206.24 165.83 206.24 160.44 208.62 159.66 208.59 165.06"/><polygon class="ax" points="216.97 162.22 214.62 162.99 214.62 157.6 217 156.82 216.97 162.22"/></g><polygon class="ax" points="233.74 171.69 231.38 172.44 231.42 167.05 233.81 166.29 233.74 171.69"/><g><polygon class="ax" points="208.34 194.97 205.96 195.64 206.18 190.26 208.6 189.57 208.34 194.97"/><polygon class="ax" points="233.81 187.51 231.42 188.18 231.65 182.8 234.06 182.11 233.81 187.51"/></g></g></g><g><g><g><g><polygon class="av" points="251.14 197.43 264.45 197.43 264.45 106.43 251.29 111.2 251.14 197.43"/><polygon class="bb" points="260.01 197.43 269.26 197.43 269.26 96.26 259.99 100.73 260.01 197.43"/><polygon class="bk" points="268.12 197.43 277.36 197.43 276.95 81.51 267.49 88.27 268.12 197.43"/></g><g><polygon class="bh" points="264.45 197.3 292.19 197.3 292.19 89.3 264.44 102.17 264.45 197.3"/><polygon class="bw" points="281.4 100.04 272.24 107.47 272.24 85.28 281.4 77.85 281.4 100.04"/><polygon class="cb" points="269.38 197.43 286.63 197.43 286.63 83.14 269.25 93.53 269.38 197.43"/></g></g><g><rect class="ba" x="287.21" y="98.44" width="2.4" height="5.39" transform="translate(576.83 202.26) rotate(-180)"/><g><rect class="ba" x="280.86" y="113.77" width="2.4" height="5.39" transform="translate(564.13 232.93) rotate(-180)"/><rect class="ba" x="268.16" y="113.74" width="2.4" height="5.39" transform="translate(538.73 232.87) rotate(-180)"/></g><g><rect class="ba" x="287.21" y="129.14" width="2.4" height="5.39" transform="translate(576.83 263.66) rotate(-180)"/><rect class="ba" x="274.51" y="129.11" width="2.4" height="5.39" transform="translate(551.43 263.6) rotate(-180)"/></g><g><rect class="ba" x="274.51" y="144.45" width="2.4" height="5.39" transform="translate(551.43 294.3) rotate(-180)"/><rect class="ba" x="268.16" y="144.44" width="2.4" height="5.39" transform="translate(538.73 294.27) rotate(-180)"/></g><rect class="ba" x="287.21" y="159.84" width="2.4" height="5.39" transform="translate(576.83 325.06) rotate(-180)"/><rect class="ba" x="268.16" y="173.21" width="2.4" height="5.39" transform="translate(538.73 351.82) rotate(-180)"/><g><rect class="ba" x="280.95" y="187.75" width="2.4" height="5.39" transform="translate(564.29 380.88) rotate(-180)"/><rect class="ba" x="274.6" y="187.73" width="2.4" height="5.39" transform="translate(551.6 380.85) rotate(-180)"/></g></g></g><g><rect class="am" x="231.82" y="126.72" width="1.66" height="64.18"/><rect class="au" x="245.06" y="126.11" width="5.64" height="64.18"/><g><g><rect class="bs" x="227.59" y="132.66" width="28.51" height="64.85"/><polygon class="bx" points="227.59 132.66 216.28 142.46 215.87 197.58 227.59 197.52 227.59 132.66"/></g><g><g><rect class="ba" x="231.97" y="138.19" width="2.4" height="5.39"/><rect class="ba" x="238.32" y="138.17" width="2.4" height="5.39"/></g><rect class="ba" x="250.81" y="152.94" width="2.4" height="5.39"/><g><rect class="ba" x="231.56" y="167.78" width="2.4" height="5.39"/><rect class="ba" x="250.61" y="167.73" width="2.4" height="5.39"/></g><rect class="ba" x="244.06" y="182.54" width="2.4" height="5.39"/></g></g></g></g></g><g><g><g><rect class="ay" x="11.34" y="34.28" width="27.74" height="163.06"/><polygon class="by" points="53.73 197.34 39.07 197.34 39.07 34.28 53.65 41.19 53.73 197.34"/></g><g><g><rect class="ba" x="14.47" y="41.21" width="2.4" height="5.39"/><rect class="ba" x="14.47" y="54.76" width="2.4" height="5.39"/><rect class="ba" x="33.52" y="54.71" width="2.4" height="5.39"/><rect class="ba" x="27.17" y="68.28" width="2.4" height="5.39"/><rect class="ba" x="14.47" y="81.85" width="2.4" height="5.39"/><rect class="ba" x="20.82" y="81.84" width="2.4" height="5.39"/><rect class="ba" x="27.17" y="95.37" width="2.4" height="5.39"/><rect class="ba" x="33.52" y="95.35" width="2.4" height="5.39"/><rect class="ba" x="14.47" y="108.95" width="2.4" height="5.39"/><rect class="ba" x="33.52" y="108.9" width="2.4" height="5.39"/><rect class="ba" x="20.82" y="122.48" width="2.4" height="5.39"/><rect class="ba" x="14.47" y="136.04" width="2.4" height="5.39"/><rect class="ba" x="33.52" y="149.54" width="2.4" height="5.39"/><rect class="ba" x="14.47" y="163.13" width="2.4" height="5.39"/><rect class="ba" x="14.47" y="176.68" width="2.4" height="5.39"/><rect class="ba" x="33.52" y="176.63" width="2.4" height="5.39"/></g><g><rect class="bj" x="11.77" y="63.63" width="25.89" height=".37"/><rect class="bg" x="12.51" y="50.44" width="25.89" height=".37"/><rect class="bj" x="12.27" y="77.07" width="25.89" height=".37"/><rect class="bj" x="12.76" y="90.5" width="25.89" height=".37"/><rect class="bj" x="13.25" y="103.94" width="25.89" height=".37"/><rect class="bj" x="12.17" y="117.29" width="25.89" height=".37"/><rect class="bj" x="12.3" y="130.82" width="25.89" height=".37"/><rect class="bj" x="12.51" y="144.17" width="25.89" height=".37"/><rect class="bj" x="12.64" y="157.79" width="25.89" height=".37"/><rect class="bj" x="12.57" y="171.11" width="25.89" height=".37"/><rect class="bj" x="12.19" y="184.53" width="25.89" height=".37"/></g></g></g><g><g><rect class="ai" x="68.31" y="101.39" width="1.43" height="26.79"/><g><g><polygon class="ak" points="116.81 197.65 107.51 197.65 107.51 132.51 116.75 136.19 116.81 197.65"/><polygon class="br" points="109.53 141.74 100.4 141.74 100.4 122.46 109.49 126.57 109.53 141.74"/><polygon class="aj" points="104.36 125.88 92.01 125.88 92.01 113.23 104.23 118.74 104.36 125.88"/></g><polygon class="ao" points="100.4 132.41 100.4 122.36 91.91 122.36 91.91 113.14 63.67 113.14 63.67 122.36 55.21 122.36 55.21 132.41 48.11 132.41 48.11 197.64 107.52 197.64 107.52 132.41 100.4 132.41"/></g></g><g><g><rect class="ba" x="67.18" y="115.48" width="2.4" height="5.39"/><rect class="ba" x="73.53" y="115.46" width="2.4" height="5.39"/><rect class="ba" x="79.88" y="115.45" width="2.4" height="5.39"/><rect class="ba" x="86.23" y="115.43" width="2.4" height="5.39"/></g><g><g><g><rect class="ba" x="53.85" y="138.17" width="2.4" height="5.39"/><rect class="ba" x="72.9" y="138.13" width="2.4" height="5.39"/></g><rect class="ba" x="85.58" y="138.09" width="2.4" height="5.39"/></g><g><g><rect class="ba" x="53.73" y="153.83" width="2.4" height="5.39"/><rect class="ba" x="60.08" y="153.82" width="2.4" height="5.39"/></g><g><rect class="ba" x="79.11" y="153.76" width="2.4" height="5.39"/><rect class="ba" x="98.16" y="153.72" width="2.4" height="5.39"/></g></g><g><rect class="ba" x="66.31" y="169.46" width="2.4" height="5.39"/><g><rect class="ba" x="91.68" y="169.39" width="2.4" height="5.39"/><rect class="ba" x="98.03" y="169.37" width="2.4" height="5.39"/></g></g><g><g><rect class="ba" x="53.48" y="185.15" width="2.4" height="5.39"/><rect class="ba" x="72.53" y="185.1" width="2.4" height="5.39"/></g><rect class="ba" x="85.21" y="185.06" width="2.4" height="5.39"/></g></g></g></g><g><g><g><polygon class="aq" points="152.65 197.42 143.4 197.42 143.4 70.69 152.54 77.34 152.65 197.42"/><polygon class="bu" points="147.84 187.25 138.6 187.25 138.6 60.52 147.86 66.12 147.84 187.25"/></g><g><polygon class="bp" points="143.4 197.42 115.66 197.42 115.66 53.56 143.41 70.7 143.4 197.42"/><g><rect class="al" x="123.32" y="41.03" width="1.11" height="22.19"/><rect class="ar" x="135.71" y="50.23" width="1.11" height="22.19"/></g><polygon class="bq" points="138.47 191.26 121.22 191.26 121.22 47.4 138.61 60.48 138.47 191.26"/></g></g><g><g><rect class="ba" x="118.24" y="62.7" width="2.4" height="5.39"/><g><rect class="ba" x="124.59" y="78.03" width="2.4" height="5.39"/><rect class="ba" x="137.29" y="78" width="2.4" height="5.39"/></g><g><rect class="ba" x="118.24" y="93.4" width="2.4" height="5.39"/><rect class="ba" x="130.94" y="93.37" width="2.4" height="5.39"/></g><g><rect class="ba" x="130.94" y="108.72" width="2.4" height="5.39"/><rect class="ba" x="137.29" y="108.7" width="2.4" height="5.39"/></g><rect class="ba" x="118.24" y="124.1" width="2.4" height="5.39"/><rect class="ba" x="137.29" y="139.4" width="2.4" height="5.39"/><g><rect class="ba" x="124.59" y="154.78" width="2.4" height="5.39"/><rect class="ba" x="130.94" y="154.76" width="2.4" height="5.39"/></g><g><rect class="ba" x="118.24" y="170.15" width="2.4" height="5.39"/><rect class="ba" x="137.29" y="170.1" width="2.4" height="5.39"/></g><g><rect class="ba" x="124.59" y="185.48" width="2.4" height="5.39"/><rect class="ba" x="137.29" y="185.45" width="2.4" height="5.39"/></g></g><g><rect class="bj" x="116.82" y="88.78" width="25.89" height=".37"/><rect class="bj" x="116.69" y="104.44" width="25.89" height=".37"/><rect class="bj" x="116.57" y="120.09" width="25.89" height=".37"/><rect class="bj" x="116.45" y="135.75" width="25.89" height=".37"/><rect class="bj" x="116.32" y="151.41" width="25.89" height=".37"/><rect class="bj" x="116.2" y="167.07" width="25.89" height=".37"/><rect class="bj" x="116.08" y="182.73" width="25.89" height=".37"/></g></g></g></g><g><g><rect class="bd" x="147.7" y="126.97" width="13.24" height="64.18"/><rect class="bt" x="168.17" y="127.17" width="1.66" height="64.18"/><rect class="bc" x="153.58" y="121.36" width="1.66" height="64.18"/><rect class="aw" x="177.09" y="126.97" width="1.66" height="64.18"/></g><g><rect class="an" x="139.18" y="136.9" width="44.35" height="60.53"/><polygon class="c`" points="139.17 197.41 130.34 197.41 130.44 149.65 139.17 136.9 139.17 197.41"/><polygon class="ap" points="191.67 197.42 183.54 197.42 183.54 136.91 191.69 149.65 191.67 197.42"/></g><g><g><g><rect class="ba" x="144.31" y="144.47" width="2.4" height="5.39"/><rect class="ba" x="163.36" y="144.42" width="2.4" height="5.39"/></g><g><g><rect class="ba" x="144.21" y="158.86" width="2.4" height="5.39"/><rect class="ba" x="150.56" y="158.84" width="2.4" height="5.39"/></g><rect class="ba" x="175.93" y="158.77" width="2.4" height="5.39"/></g><g><rect class="ba" x="156.81" y="173.22" width="2.4" height="5.39"/><rect class="ba" x="175.83" y="173.16" width="2.4" height="5.39"/></g><g><rect class="ba" x="144" y="187.64" width="2.4" height="5.39"/><rect class="ba" x="163.05" y="187.59" width="2.4" height="5.39"/></g></g><g><rect class="bj" x="142.84" y="136.63" width=".44" height="60.8"/><rect class="bj" x="148.84" y="136.63" width=".44" height="60.8"/><rect class="bj" x="154.82" y="136.63" width=".44" height="60.8"/><rect class="bj" x="160.84" y="136.62" width=".44" height="60.8"/><rect class="bj" x="166.82" y="136.63" width=".44" height="60.8"/><rect class="bj" x="172.82" y="136.63" width=".44" height="60.8"/><rect class="bj" x="178.82" y="136.63" width=".44" height="60.8"/></g></g></g></g></g><g><g><g><g><g><ellipse class="bv" cx="65.86" cy="187.81" rx="5.44" ry="5.69"/><rect class="b`" x="65.24" y="189.49" width="1.43" height="8.77"/></g><g><ellipse class="bv" cx="182.26" cy="187.85" rx="5.44" ry="5.69"/><rect class="b`" x="181.63" y="189.54" width="1.43" height="8.77"/></g></g><g><g><polygon class="bv" points="45.59 182.13 41 193.78 50.18 193.86 45.59 182.13"/><rect class="b`" x="44.85" y="190.42" width="1.48" height="9.07"/></g><g><polygon class="bv" points="129.09 182.15 124.5 193.8 133.68 193.88 129.09 182.15"/><rect class="b`" x="128.35" y="190.44" width="1.48" height="9.07"/></g><g><polygon class="bv" points="198.41 181.95 193.82 193.59 203 193.68 198.41 181.95"/><rect class="b`" x="197.66" y="190.24" width="1.48" height="9.07"/></g><g><polygon class="bv" points="267.72 181.75 263.13 193.39 272.31 193.48 267.72 181.75"/><rect class="b`" x="266.98" y="190.03" width="1.48" height="9.07"/></g></g></g><g><g><g><polygon class="bv" points="104.06 193.55 94.74 193.55 94.74 190.41 101.29 190.44 104.06 193.55"/><rect class="bv" x="90.92" y="192.69" width="15.27" height="3.14"/></g><ellipse class="bv" cx="93.94" cy="195.98" rx="1.47" ry="1.3"/><ellipse class="bv" cx="103.2" cy="196" rx="1.47" ry="1.3"/></g><g><g><polygon class="bv" points="238.91 193.72 229.59 193.72 229.59 190.58 236.14 190.61 238.91 193.72"/><rect class="bv" x="225.77" y="192.86" width="15.27" height="3.14"/></g><ellipse class="bv" cx="228.79" cy="196.15" rx="1.47" ry="1.3"/><ellipse class="bv" cx="238.05" cy="196.17" rx="1.47" ry="1.3"/></g></g></g><rect class="bv" x="0" y="197.3" width="305.38" height="5.36"/></g></g></svg>