<?xml version="1.0" encoding="UTF-8"?><svg id="a" xmlns="http://www.w3.org/2000/svg" viewBox="0 0 196.73 65.55"><defs><style>.b{font-family:JungleFever, JungleFever;font-size:26.98px;}.b,.c{fill:#9b3979;}.d{fill:#ef6e66;}</style></defs><path class="c" d="M21.35,12.93H176c4.79,0,8.68,3.89,8.68,8.68v22.7c0,4.98-4.04,9.02-9.02,9.02H21.35c-4.79,0-8.68-3.89-8.68-8.68V21.61c0-4.79,3.89-8.68,8.68-8.68Z"/><g><path class="d" d="M24.13,15.91H164.37c4.79,0,8.68,3.89,8.68,8.68v16.74c0,4.98-4.04,9.02-9.02,9.02H24.13c-4.79,0-8.68-3.89-8.68-8.68V24.59c0-4.79,3.89-8.68,8.68-8.68Z"/><text class="b" transform="translate(35.02 42.26) scale(1.09 1)"><tspan x="0" y="0">LOG IN!</tspan></text></g></svg>