<?xml version="1.0" encoding="UTF-8"?><svg id="a" xmlns="http://www.w3.org/2000/svg" xmlns:xlink="http://www.w3.org/1999/xlink" viewBox="0 0 64.21 44.66"><defs><style>.c{fill:#ff8d51;}.d{fill:#fff;opacity:.1;}.e{fill:#8c2175;opacity:.58;}.f{clip-path:url(#b);}.g{fill:none;}</style><clipPath id="b"><rect x="-183.96" y="-450.22" width="616.27" height="400.17" style="fill:none;"/></clipPath></defs><g style="clip-path:url(#b);"><path d="M376.94-41.23V-191.24c-5.1-3.57-10.9-6.25-17.16-7.78-.09-27.62-22.91-49.99-51.06-49.99-24.24,0-44.53,16.6-49.75,38.85-6.8-3.3-14.46-5.15-22.56-5.15-16.69,0-31.5,7.86-40.82,20.02-5.5-21.87-25.6-38.1-49.57-38.1-28.2,0-51.07,22.45-51.07,50.15,0,2.6,.2,5.16,.59,7.65-7.23-3.85-15.5-6.03-24.3-6.03-3.19,0-6.31,.3-9.34,.85-9.17-13.4-24.74-22.22-42.41-22.22-1.54,0-3.07,.08-4.58,.21-7.11-19.29-25.93-33.08-48.03-33.08-8.1,0-15.76,1.86-22.56,5.16-5.22-22.25-25.5-38.85-49.75-38.85-18.73,0-35.09,9.9-43.98,24.66-17.31,.14-32.57,8.74-41.7,21.79-4.62-1.35-9.51-2.08-14.57-2.08-12.9,0-24.67,4.7-33.66,12.45v75.93h0V15.94H376.94V-41.23h0Z" style="fill:#fff; opacity:.1;"/></g><g><path d="M18.77,2.1c-1.14,1.17-3.68,3.73-5.65,5.7C6.96,13.95,3.87,18.15,1.8,23.18,1.13,24.81-.1,28.88,.03,29.03c.04,.04,.88,.42,1.86,.83,1.73,.76,2.38,1.14,1.95,1.14-.22,0-.05,.98,.27,1.65,.32,.62,1.1,1.04,5.07,2.71,6.18,2.57,11.81,5.09,17.36,7.76,2.87,1.36,4.03,1.72,4.75,1.48,1.03-.4,.78-1.57-.67-2.95-.74-.7-.81-.85-.63-1.19,.11-.23,.13-.47,.04-.55-.61-.7-1.26-1.41-1.96-2.13-.97-1-1.93-1.92-2.86-2.75l-1.01-.87c-.02-.26-.03-.52-.05-.78,.33-1,.74-1.31,2.44-1.78,3.03-.87,5.26-1.06,12.24-1.06,7.37,0,9.48,.17,17.25,1.38,2.49,.38,5.11,.7,5.83,.7,1.23,0,1.37-.04,1.75-.51,.23-.28,.47-.83,.54-1.25,.14-.98-.76-12.57-1.08-13.8-.31-1.1-.99-1.82-2.06-2.16-.67-.21-.7-.26-.81-1.19-.05-.53-.11-1.23-.11-1.55v-.59l-2.02-.51c-3.09-.76-6.27-1.36-9.64-1.84-2.65-.38-3.85-.44-9.1-.45-6.45,0-7.53,.09-12.98,1.06-1.73,.3-3.18,.51-3.23,.45-.05-.06,0-.09,.13-.09,.34,0,1.34-2.4,1.43-3.44,.14-1.65-.85-2.16-2.28-1.15-.85,.61-2.37,2.08-2.69,2.63-.32,.53,.45-1.34,1.75-4.16,.6-1.32,1.07-2.52,1.03-2.65-.05-.11-.43-.47-.88-.81l-.79-.59-2.06,2.1Z" style="fill:#8c2175; opacity:.58;"/><path d="M16.04,6.14c-.97,.96-3.15,3.04-4.84,4.65C5.94,15.81,3.3,19.24,1.52,23.35,.95,24.68-.1,28,0,28.12c.03,.03,.76,.34,1.59,.68,1.48,.62,2.04,.93,1.67,.93-.19,0-.05,.8,.23,1.34,.28,.51,.94,.85,4.34,2.21,5.28,2.1,10.1,4.16,14.84,6.33,2.46,1.11,3.44,1.41,4.06,1.2,.88-.32,.66-1.28-.57-2.41-.63-.57-.7-.7-.54-.97,.09-.19,.11-.39,.03-.45-.06-.06-.93-.79-1.9-1.62-.97-.83-2.13-1.85-2.56-2.27l-.8-.77,.23-.66c.28-.82,.63-1.07,2.09-1.45,2.6-.71,4.5-.87,10.47-.87,3.81,0,3.51,.02,4.4,.07,1.4,.09,2.4,.1,2.64,.1,.83,.02,2.98,.11,8.79,.46,1.42,.29,3.07,.43,4.88,.26,.27-.03,.53-.06,.78-.09,.1-.18,.13-.35,.15-.53,.08-.62,.12-.93,.03-1.51-.21-1.43-.14-7.26-.9-9.76-.14-.47-.33-.79-.6-1.07-.3-.31-.69-.54-1.16-.69-.57-.17-.6-.22-.7-.97-.05-.43-.09-1-.09-1.27v-.48l-1.73-.42c-2.64-.62-5.36-1.11-8.25-1.5-2.27-.31-3.29-.36-7.79-.37-5.51,0-6.44,.08-11.11,.87-1.48,.25-2.72,.42-2.77,.37-.05-.05,0-.08,.11-.08,.29,0,1.14-1.96,1.22-2.81,.12-1.34-.73-1.76-1.95-.94-.73,.49-2.02,1.7-2.3,2.15-.28,.43,.39-1.1,1.5-3.4,.51-1.08,.91-2.05,.88-2.16-.05-.09-.37-.39-.76-.66l-.68-.48-1.76,1.71Z" style="fill:#ff8d51;"/></g></svg>