<?xml version="1.0" encoding="UTF-8"?><svg id="a" xmlns="http://www.w3.org/2000/svg" viewBox="0 0 180.38 216.31"><path d="M39.96,156.8c-3.66,.09-6.65,2.53-7.2,5.54-.78,4.19,3.31,8.59,7.2,8.03,2.42-.35,4.53-2.57,5.26-5.54" style="fill:none; stroke:#ff995a; stroke-miterlimit:10; stroke-width:2px;"/><path d="M4.22,118.84c1.78,6.15,4.95,14.5,10.8,23.27,4.19,6.29,8.65,11.12,12.47,14.68,2.24,2.86,4.98,5.98,8.31,9.14,4.66,4.42,9.24,7.76,13.2,10.25-9.76-19.76-19.52-39.52-29.27-59.29l-15.51,1.94Z" style="fill:#ba7fa2; stroke:#000; stroke-miterlimit:10;"/><path d="M162.96,122.44c-3.04,6.71-7.15,14.31-12.74,22.16-11.6,16.28-24.79,26.95-34.63,33.56,11.27-21.44,22.53-42.87,33.8-64.31l13.58,8.59Z" style="fill:#ba7fa2; stroke:#000; stroke-miterlimit:10;"/><polygon points="131.66 148.76 122.79 164.83 39.96 163.61 35.25 150.7 131.66 148.76" style="fill:#2c252e; stroke:#242424; stroke-miterlimit:10;"/><path d="M122.79,164.83l-18.56,34.35c2.5,.02,6.27,.36,10.53,1.94,3.54,1.31,6.22,3.05,8.03,4.43,.08,.85,.08,2.02-.28,3.32-.89,3.24-3.34,5-4.16,5.54-10.3-.55-20.59-1.11-30.89-1.66l9.56-35.18-30.75,1.11,7.48,35.74-36.29,1.39c-.94-.77-2.75-2.46-3.88-5.26-.93-2.32-.98-4.37-.93-5.54,2.87-1.44,6.52-2.97,10.9-4.16,4.61-1.25,8.73-1.76,12.05-1.94-5.22-11.77-10.43-23.53-15.65-35.3H124.18l-1.39,1.22Z" style="stroke:#000; stroke-miterlimit:10;"/><path d="M131.66,55.4h30.2l-4.43,3.6,16.9,59.84-29.64,4.99c-1.01,3.62-2.55,8.01-4.99,12.74-2.62,5.1-5.52,9.15-8.03,12.19-3.67,1.05-8.36,2.02-13.85,2.27-3.63,.17-6.89-.01-9.7-.33-2.61,.4-5.49,.7-8.59,.83-5.67,.23-10.72-.18-14.96-.83-2.98,.8-7.17,1.57-12.19,1.39-3.62-.13-6.71-.73-9.14-1.39-2.99,.64-6.43,1.17-10.25,1.39-7.03,.4-13.08-.39-17.73-1.39-2.11-2.04-4.5-4.77-6.65-8.31-4.78-7.86-5.85-15.53-6.09-19.95-7.3-.74-14.59-1.48-21.89-2.22L13.91,62.74l-3.88-4.29,29.92-1.11c6.31,3.97,24.44,14.22,49.31,12.74,21.14-1.25,36.08-10.32,42.39-14.68Z" style="fill:#4e415f; stroke:#231f20; stroke-miterlimit:10;"/><path d="M60.73,57.34c-.61-.21-3.02-3.35-4.71-6.93-1.45-3.07-.76-5.9-.55-6.65-.35,.14-2.01,.77-3.88,0-1.53-.63-2.27-1.81-2.49-2.2-.05-.24-.43-2.2,.83-3.62,1.27-1.43,3.69-1.72,5.68-.48l-1.21-9.83,59.25-2.98,1.94,13.58c.68-.26,2.63-.91,4.99-.28,1.87,.5,1.68,1.96,2.22,2.49-.44,.95-.63,3.57-4.08,4.93-1.18,.46-2.27,.61-3.13,.64-.04,1.29-.24,2.91-.83,4.67-1.5,4.5-4.58,7.17-6.09,8.31-7.06,6.09-14.13,12.19-21.19,18.28l-26.73-19.95Z" style="fill:#ba7fa2; stroke:#000; stroke-miterlimit:10;"/><path d="M55.47,32.13l-13.02-11.36c3.75-2.47,8.19-5.06,13.3-7.48,6.16-2.92,11.91-4.95,16.9-6.37-.74-2.03-1.48-4.06-2.22-6.09,.79-.11,2.93-.31,5.26,.83,2.31,1.13,3.47,2.91,3.88,3.6L88.16,.82V4.98c5.55,.44,11.88,1.27,18.78,2.78,6.48,1.42,12.25,3.18,17.24,4.98-3.23,4.99-6.46,9.97-9.7,14.96l-59.01,4.43Z" style="fill:#4e415f; stroke:#231f20; stroke-miterlimit:10;"/><path d="M55.47,32.13c26.82,1.43,46.8,1.69,54.02,1.39,3.41-.15,6.81-.35,6.81-.35,5.33-.32,9.88-.7,13.41-1.04-1.45-1.09-3.87-2.63-7.2-3.6-3.35-.98-6.23-.97-8.03-.83"/><polygon points="55.61 37.46 80.06 36.84 79.68 43.76 59.14 44.03 55.61 37.46" style="stroke:#231f20; stroke-miterlimit:10;"/><polygon points="92.59 37.11 118.36 37.11 113.97 43.76 92.59 43.76 92.59 37.11" style="stroke:#231f20; stroke-miterlimit:10;"/><polygon points="83.31 65.09 89.82 65.09 95.64 70.08 92.59 76.18 105.48 102.5 88.71 118.84 70.15 105.27 81.23 75.9 77.36 71.47 83.31 65.09" style="stroke:#231f20; stroke-miterlimit:10;"/><polygon points="75.69 11.9 90.38 10.52 90.38 24.92 85.94 27.63 80.06 24.09 75.69 11.9" style="fill:#ff995a; stroke:#231f20; stroke-miterlimit:10;"/><path d="M83.31,65.09c-1.8-.55-22.58-7.76-22.58-7.76h-20.78c4.17,3.04,10.19,6.78,18.01,9.7,7.57,2.83,14.35,3.97,19.39,4.43" style="fill:#4e415f; stroke:#231f20; stroke-miterlimit:10;"/><path d="M89.82,65.09c.83-1.39,23.55-9.7,23.55-9.7h18.28c-3.91,2.96-9.36,6.49-16.35,9.42-7.64,3.2-14.54,4.61-19.67,5.26" style="fill:#4e415f; stroke:#231f20; stroke-miterlimit:10;"/><path d="M131.66,99.17c3.16-.53,5.75-2.79,6.65-5.82,1.31-4.44-1.8-7.88-1.94-8.03l4.71-4.16h-9.42c.31-2.11-1.33-3.88-3.05-3.88s-3.36,1.76-3.05,3.88l-9.97,.55,4.43,4.16c-.29,.36-2.58,3.33-1.66,7.2,1.09,4.57,5.61,6.03,5.82,6.09l4.16,4.71,3.32-4.71Z" style="fill:#ff995a; stroke:#231f20; stroke-miterlimit:10;"/><polygon points="163.79 82.55 159.64 82.55 161.72 98.34 168.5 96.68 163.79 82.55" style="fill:#ff995a; stroke:#231f20; stroke-miterlimit:10;"/><path d="M87.81,37.11c.47,.42,2.35,2.17,2.56,4.99,.11,1.48-.27,2.66-.55,3.32-.47,.24-1.6,.73-3.05,.55-2.25-.27-3.51-1.91-3.74-2.22" style="fill:none; stroke:#000; stroke-miterlimit:10;"/><polygon points="29.98 90.44 61.63 90.44 60.18 108.59 47.71 113.85 34.41 110.25 29.98 90.44" style="fill:none; stroke:#000; stroke-miterlimit:10;"/><path d="M47.16,98.34l-16.84-6.37,16.84,6.37Z" style="fill:none; stroke:#000; stroke-miterlimit:10;"/><path d="M61.63,90.44l-14.48,7.9,14.48-7.9Z" style="fill:#4e415f; stroke:#000; stroke-miterlimit:10;"/><path d="M87.81,122.44c.28,3.94,.29,8.85-.48,14.41-.65,4.62-1.69,8.62-2.77,11.91" style="fill:none; stroke:#000; stroke-miterlimit:10;"/><circle cx="39.04" cy="172.28" r="1.86" style="fill:none; stroke:#ff995a; stroke-miterlimit:10; stroke-width:2px;"/><circle cx="36.7" cy="176.15" r="2.01" style="fill:none; stroke:#ff995a; stroke-miterlimit:10; stroke-width:2px;"/><circle cx="34.61" cy="179.26" r="1.97" style="fill:none; stroke:#ff995a; stroke-miterlimit:10; stroke-width:2px;"/><circle cx="36.7" cy="182.21" r="2.01" style="fill:none; stroke:#ff995a; stroke-miterlimit:10; stroke-width:2px;"/><circle cx="39.04" cy="185.41" r="1.86" style="fill:none; stroke:#ff995a; stroke-miterlimit:10; stroke-width:2px;"/><circle cx="40.84" cy="189.07" r="1.8" style="fill:none; stroke:#ff995a; stroke-miterlimit:10; stroke-width:2px;"/><ellipse cx="37.66" cy="196.3" rx="7.24" ry="5.51" transform="translate(-161.25 176.59) rotate(-73.48)" style="fill:none; stroke:#ff995a; stroke-miterlimit:10; stroke-width:2px;"/><path d="M70.38,53.18c-.39-.71,3.85-5.11,9.42-5.54,.99-.08,5.25-.41,6.37,1.94,.59,1.24,.27,3.16-.83,3.88-1.55,1.02-3.37-1.22-7.2-1.66-4.53-.53-7.44,1.95-7.76,1.39Z" style="stroke:#000; stroke-miterlimit:10;"/><path d="M100.78,51.94c.4-.69-2.08-3.73-5.54-4.43-2.27-.46-5.87-.11-6.93,2.22-.68,1.49-.25,3.69,.83,4.16,1.26,.54,2.29-1.75,5.26-2.49,3.42-.85,6,1.2,6.37,.55Z" style="stroke:#000; stroke-miterlimit:10;"/><polyline points="26.61 159.84 28.32 152.19 20.29 152.19 21.67 146.01 12.53 143.22 15.02 136.85 6.16 132.69 10.31 127.15" style="fill:none; stroke:#000; stroke-miterlimit:10;"/><polyline points="143.04 156.24 145.06 149.1 151.86 147.04 149.29 142.73 156.64 139.75 156.64 132.72 161.6 130.75" style="fill:none; stroke:#000; stroke-miterlimit:10;"/></svg>