<?xml version="1.0" encoding="UTF-8"?><svg id="a" xmlns="http://www.w3.org/2000/svg" viewBox="0 0 51.85 19.57"><path d="M10.96,19.57c-3.13-.51-5.74-1.68-7.83-3.51-2.09-1.84-3.13-3.94-3.13-6.32S.98,5.37,2.94,3.58C4.9,1.79,7.35,.59,10.31,0l3.25,5.4c-1.43,.3-2.61,.83-3.53,1.59s-1.38,1.62-1.38,2.58,.47,1.82,1.4,2.58,2.12,1.29,3.55,1.59l-2.65,5.82Z" style="fill:#6b0063;"/><path d="M31.47,16.64c-1.84,1.69-4.27,2.53-7.32,2.53s-5.49-.84-7.33-2.53c-1.84-1.69-2.77-3.95-2.77-6.78s.92-5.07,2.77-6.75c1.84-1.69,4.29-2.53,7.33-2.53s5.48,.84,7.32,2.53c1.84,1.69,2.75,3.94,2.75,6.75s-.92,5.09-2.75,6.78Zm-5.21-9.07c-.59-.59-1.29-.88-2.11-.88s-1.53,.29-2.11,.88-.88,1.29-.88,2.11,.29,1.53,.88,2.11c.59,.59,1.29,.88,2.11,.88s1.53-.29,2.11-.88c.59-.59,.88-1.29,.88-2.11s-.29-1.53-.88-2.11Z" style="fill:#6b0063;"/><path d="M51.74,6.31c.08,.38,.12,.77,.12,1.17,0,.25-.01,.49-.04,.73-.03,.25-.07,.49-.12,.73-.19,.87-.5,1.73-.92,2.56-.42,.83-.87,1.53-1.34,2.11-.02,0-.03,0-.04,.03,0,.02-.02,.04-.04,.05-.3,.33-.66,.61-1.09,.83-.43,.22-.93,.35-1.51,.38-.86,.07-1.67,.09-2.43,.07-.76-.03-1.49-.07-2.19-.14,.04,.73,.07,1.46,.11,2.19,.03,.73,.09,1.45,.16,2.16h-7.74c.26-3.08,.4-6.16,.41-9.26,0-3.09-.13-6.21-.41-9.34h7.74c1.26,.02,2.31,.07,3.15,.16,.84,.09,1.48,.28,1.92,.58,.86,.59,1.62,1.22,2.28,1.86,.66,.65,1.19,1.34,1.57,2.07,.19,.33,.33,.69,.41,1.06Zm-6.03,1.17c.03-.12,.04-.24,.04-.37,0-.21-.05-.41-.14-.59s-.22-.34-.38-.46c-.47-.45-.96-.83-1.47-1.14-.51-.31-1.03-.57-1.57-.8-.05,1.12-.09,2.24-.12,3.37-.03,1.13-.03,2.25-.01,3.37,.77-.23,1.45-.59,2.03-1.09s1.07-1.13,1.46-1.9c.09-.14,.14-.27,.17-.39Z" style="fill:#6b0063;"/></svg>