<?xml version="1.0" encoding="UTF-8"?><svg id="a" xmlns="http://www.w3.org/2000/svg" xmlns:xlink="http://www.w3.org/1999/xlink" viewBox="0 0 58.63 57.32"><defs><style>.c{fill:#3c2139;}.d{fill:#ff8d51;}.e{fill:#fff;opacity:.1;}.f{fill:#8c2175;opacity:.58;}.g{fill:#902475;}.h{clip-path:url(#b);}.i{fill:#782c71;}.j{fill:none;}.k{fill:#a2529b;}</style><clipPath id="b"><rect class="j" x="-267.86" y="-463.04" width="616.27" height="400.17"/></clipPath></defs><g class="h"><path class="e" d="M293.04-54.05V-204.06c-5.1-3.57-10.9-6.25-17.16-7.78-.09-27.62-22.91-49.99-51.06-49.99-24.24,0-44.53,16.6-49.75,38.85-6.8-3.3-14.46-5.15-22.56-5.15-16.69,0-31.5,7.86-40.82,20.02-5.5-21.87-25.6-38.1-49.57-38.1-28.2,0-51.07,22.45-51.07,50.15,0,2.6,.2,5.16,.59,7.65-7.23-3.85-15.5-6.03-24.3-6.03-3.19,0-6.31,.3-9.34,.85-9.17-13.4-24.74-22.22-42.41-22.22-1.54,0-3.07,.08-4.58,.21-7.11-19.29-25.93-33.08-48.03-33.08-8.1,0-15.76,1.86-22.56,5.16-5.22-22.25-25.5-38.85-49.75-38.85-18.73,0-35.09,9.9-43.98,24.66-17.31,.14-32.57,8.74-41.7,21.79-4.62-1.35-9.51-2.08-14.57-2.08-12.9,0-24.67,4.7-33.66,12.45v75.93h0V3.12H293.04V-54.05h0Z"/></g><g><circle class="f" cx="30.35" cy="31.3" r="24.05"/><circle class="d" cx="28.35" cy="31.3" r="20.95"/><path class="g" d="M26.32,20.66s-.06,.1-.1,.14l-1.82,2.3c-.46,.57-1.29,.67-1.87,.21-.57-.46-.67-1.29-.21-1.87l1.82-2.3c.46-.57,1.29-.67,1.87-.22h0c.28,.22,.45,.54,.49,.89,.03,.3-.03,.59-.18,.84Zm-3.59,1.23c-.19,.31-.12,.72,.17,.95,.32,.25,.78,.2,1.03-.12l1.82-2.3c.25-.32,.2-.78-.12-1.03h0c-.32-.25-.78-.2-1.03,.12l-1.82,2.3s-.04,.05-.05,.08Zm3.09-2.73h0Z"/><path class="i" d="M21.75,24.38s.69-2,1.2-2.02c.51-.02,.6,.07,.51,.5-.09,.43-.32,1.83-.32,1.83l-1.38-.31Z"/><path class="i" d="M17.3,27.36s-3.2,1.28-4.87,3.9c-1.68,2.62-1.11,5.52,.12,7.26,1.24,1.74,4.23,2.73,4.23,2.73l.99-1.95s-2.45-.66-3.58-2.21c-1.14-1.55-.68-4.62,1.51-6.28,2.19-1.66,4.06-2.54,8.94,.15-.5-2.32-3.27-3.24-3.27-3.24l-4.07-.35Z"/><path class="g" d="M17.76,23.96l-1.86,4.58s4.68-.22,6.79,1.49c2.11,1.71,3.63,6.23,1.66,7.97-1.97,1.74-4.16,2.34-5.21,1.64-1.04-.7-2.25-1.55-3.24-.1-.99,1.45-.38,2.49,1.78,2.58,2.16,.09,5.97,.78,8.52-2.77,2.55-3.55,1.07-7.38,.61-8.66-.47-1.28-.26-4.06-.26-4.06,0,0-2.34-4.16-8.79-2.67h0Z"/><path class="c" d="M19.86,25.96c.08-.26-.21-.74-.67-.59-.58,.19-.25,.81-.25,.81l-.63,1.01,1.1,.26v-1.14s.34-.02,.44-.36h0Z"/><path class="k" d="M25.63,26.18s-2.89-3.2-7.47-1.93c-.75,1.93-1.61,3.82-1.61,3.82l.88,.1,1.44-3.42s2.4-.98,6.77,1.43h0Z"/><path class="k" d="M15.39,28.7s-3.39,2.2-3.64,5.65c-.24,1.74,.66,3.43,1.19,4.11-.88-2.71-.87-4.06-.32-5.49,.55-1.42,2.45-3.57,3.75-4.14-.84,.14-.98-.13-.98-.13Z"/><path class="c" d="M17.3,39.6c-.54-.11-1.15,.62-1,1.06,.15,.44,.86,.54,1.24,.21,.39-.34,.43-1.23-.24-1.26h0Z"/><path class="g" d="M30.14,21.34c-.14,.22-.33,.4-.58,.52-.32,.15-.68,.17-1.02,.04l-2.75-1c-.69-.25-1.04-1.02-.79-1.7,.25-.69,1.02-1.04,1.7-.79l2.75,1c.33,.12,.6,.37,.75,.69,.15,.32,.17,.68,.04,1.02-.03,.08-.07,.16-.11,.23Zm-4.52-2.07s-.04,.08-.06,.13c-.14,.38,.06,.8,.44,.94l2.75,1c.18,.07,.38,.06,.56-.02,.18-.08,.31-.23,.38-.41h0c.07-.18,.06-.38-.02-.56-.08-.18-.23-.31-.41-.38l-2.75-1c-.33-.12-.7,.02-.88,.31Z"/><path class="g" d="M33.85,21.32h0c-.18,.31-.48,.52-.82,.6l-2.85,.7c-.71,.17-1.43-.26-1.61-.97-.17-.71,.26-1.43,.97-1.61l2.85-.7c.34-.08,.7-.03,1.01,.15,.3,.18,.52,.48,.6,.82,.08,.34,.03,.7-.15,1Zm-4.61-.37c-.1,.16-.13,.36-.09,.55,.1,.39,.49,.63,.89,.54l2.85-.7c.19-.05,.35-.16,.45-.33h0c.1-.17,.13-.37,.08-.56-.05-.19-.16-.35-.33-.45-.17-.1-.36-.13-.56-.09l-2.85,.7c-.2,.05-.36,.17-.45,.33Z"/><path class="i" d="M32.93,23.17s-.86-1.94-.5-2.29c.36-.36,.49-.36,.71,.02,.22,.37,1.01,1.56,1.01,1.56l-1.22,.72Z"/><path class="i" d="M31.7,28.38s-1.47,3.11-.92,6.17c.55,3.06,2.94,4.8,5.03,5.24,2.09,.43,4.95-.88,4.95-.88l-.6-2.1s-2.24,1.18-4.13,.82c-1.89-.36-3.64-2.92-3.17-5.63,.47-2.71,1.25-4.62,6.66-5.97-1.94-1.36-4.6-.15-4.6-.15l-3.22,2.51Z"/><path class="g" d="M29.72,25.57l1.75,4.63s3.28-3.34,5.99-3.52c2.71-.18,6.9,2.1,6.64,4.72-.26,2.61-1.46,4.55-2.7,4.74-1.24,.19-2.71,.4-2.44,2.13,.26,1.73,1.41,2.08,3.06,.68,1.65-1.4,4.91-3.49,4.36-7.82-.55-4.33-4.23-6.14-5.44-6.76-1.21-.62-2.95-2.8-2.95-2.8,0,0-4.55-1.46-8.26,4.01h0Z"/><path class="c" d="M32.62,25.61c-.12-.25-.66-.4-.89,.02-.29,.53,.37,.76,.37,.76l.23,1.17,.99-.56-.76-.84s.22-.23,.07-.55h0Z"/><path class="k" d="M37,21.85s-4.29-.38-6.79,3.67c.76,1.93,1.42,3.9,1.42,3.9l.71-.53-1.28-3.49s1.09-2.34,5.94-3.56Z"/><path class="k" d="M31.2,30.65s-.99,3.92,1.17,6.62c1,1.44,2.82,2.07,3.67,2.2-2.49-1.39-3.4-2.39-3.97-3.81-.57-1.41-.64-4.28-.06-5.59-.52,.67-.81,.57-.81,.57h0Z"/><path class="c" d="M40.02,37.35c-.46,.29-.43,1.23-.02,1.46,.41,.22,1-.18,1.05-.69,.05-.51-.52-1.2-1.04-.76Z"/></g></svg>