<?xml version="1.0" encoding="UTF-8"?><svg id="a" xmlns="http://www.w3.org/2000/svg" viewBox="0 0 100.71 219.61"><g><path d="M9.74,115.6c-.07,.91-.12,2.26,.07,3.86,.3,2.58,.57,4.94,2.25,6.57,2.03,1.97,4.97,1.79,5.9,1.69l-.66-14.71" style="fill:#fee6e1; stroke:#000; stroke-miterlimit:10;"/><path d="M14.85,117.9c-.53,2.62,.26,4.88,1.72,5.56,.3,.14,.87,.32,1.74,.14" style="fill:none; stroke:#231f20; stroke-miterlimit:10;"/></g><g><path d="M72.1,115.6c.07,.91,.12,2.26-.07,3.86-.3,2.58-.57,4.94-2.25,6.57-2.03,1.97-4.97,1.79-5.9,1.69l.66-14.71" style="fill:#fee6e1; stroke:#000; stroke-miterlimit:10;"/><path d="M66.98,117.9c.53,2.62-.26,4.88-1.72,5.56-.3,.14-.87,.32-1.74,.14" style="fill:none; stroke:#231f20; stroke-miterlimit:10;"/></g><path d="M36.88,209.91c.35-11.26,.36-23.24-.12-35.88-.43-11.48-1.22-22.39-2.25-32.68,1.84-10.57,3.13-21.84,3.61-33.75,.07-1.69,.12-3.36,.15-5.01,.86,.62,2.09,1.38,3.7,1.94,1.16,.41,2.22,.61,3.08,.71,.13,5.25,.58,11.14,1.54,17.52,.8,5.27,1.83,10.1,2.96,14.45-1.11,12.12-2.03,24.69-2.72,37.67-.61,11.64-1,22.96-1.19,33.95,.07,1.09,.42,1.84,.7,2.28,1.22,1.94,3.93,2.84,6.88,2.34,2.36,.27,5.56,.3,9.12-.69,.99-.28,1.9-.6,2.72-.95,3-1.5,6-3,9-4.5,.43-2.84,.79-5.76,1.07-8.76,1.9-20.62-.62-39.15-4.62-54.59-4.42-17.64-8.84-35.29-13.26-52.93-1,.94-3.58,3.12-7.46,3.55-1.67,.19-3.1,0-4.14-.24-3.53-.48-6.28-1.42-8.2-2.22-5.43-2.29-8.99-5.59-8.85-6.07h0s.09,7.94-3.32,16.58c-1.01,2.55-2.13,6.87-5.33,9.71-.41,.36-.35,1.95-1.54,3.08-.5,.48-1.02,.77-1.42,.95,.7,2.14,1.5,5.54,1.14,9.68-.19,2.16-.99,3.88-1.14,5.48-.1,1.05-.2,2.41-.83,3.79-1,2.18-2.07,3.7-2.84,5.09-2.19,6.56-4.23,14.65-5.21,24.04-.5,4.77-.65,9.21-.59,13.26-1.18,4.76-2.23,11.02-2.13,18.36,.06,4.86,.61,9.17,1.31,12.79,.66-.11,1.67-.18,2.76,.18,1.46,.49,1.73,1.3,3.43,2.17,.51,.26,1.44,.51,3.31,1.02,1.49,.4,2.64,.71,4.2,.95,1.08,.17,1.99,.25,2.64,.29,1.11,.15,2.39,.22,3.79,.12,4.67-.33,8.16-2.34,10.06-3.67Z" style="fill:#ea7635; stroke:#000; stroke-miterlimit:10;"/><path d="M57.41,91.37c1.53,4.37,2.13,7.97,2.38,10.55,.36,3.65,.23,7.26,2.49,8.64,.8,.49,1.99,.77,2.37,1.84,.28,.8-.03,1.64-.36,2.25l10.66,2.01c-.19-.65-.37-1.65-.06-2.72,.8-2.74,3.9-2.79,5.77-5.45,1.31-1.86,1.22-3.88,1.07-7.37-.05-1.1-.3-4.91-2.45-9.25-1.61-3.24-3.65-5.53-5.21-7,.46-.57,1.08-1.43,1.63-2.58,.74-1.54,1.1-3.07,1.28-5.08,.45-4.75-.28-9.93-.54-11.65-1.03-2.86-2.72-6.58-5.54-10.45-1.98-2.73-4.04-4.86-5.83-6.48,.18-.31,.42-.75,.7-1.29,0,0,.33-.65,.76-1.68,0,0,.79-1.9,1.35-3.94,2.95-10.77-1.12-21.97-1.12-21.97-1.9-5.22-5.92-16.3-15.69-18.76-5.94-1.49-11.47,.83-12.79,1.42-4.08,1.84-6.44,4.52-8.05,6.39-11.42,13.26-8.01,31.65-7.78,32.73,.52,2.35,1.3,4.85,1.3,4.85h0c.21,.68,.39,1.22,.5,1.56-2.8,1.57-7.29,4.57-11.16,9.81-1.42,1.93-4.88,6.94-6.16,13.97-.47,2.59-.42,4.93-.41,6.22,.01,3.69,.48,6.77,.95,9-.36,.6-.83,1.47-1.3,2.55-.86,1.97-2.44,6.34-1.89,11.66,.11,1.04,.5,4.88,2.07,8.11,.22,.44,.72,1.42,1.01,2.84,.32,1.6,.21,2.98,.06,3.91,3.63,.43,7.26,.87,10.89,1.3,.07-1.04,.32-2.51,1.24-3.91,.95-1.45,2.15-2.12,2.74-2.51,3.95-2.63,4.85-9.23,5.73-15.66,.21-1.53,.44-3.71,.48-6.35,2.01,1.88,6.17,5.23,12.31,6.47,2.36,.48,6.28,1.22,10.78-.41,2.74-1,4.69-2.5,5.85-3.56Z" style="fill:#ff8d51; stroke:#000; stroke-miterlimit:10;"/><path d="M6.21,209.97c-.65,.23-2.16,.8-3.49,2.01-1.19,1.08-1.74,2.04-2.19,2.96-.04,.28-.08,.8,.17,1.36,.17,.38,.44,.71,.88,1.02,1.99,1.43,4.63,1.7,4.63,1.7,1.12,.12,3.27,.19,7.1-.41,2.17-.34,4.17-.61,5.68-1.36,1.07-.54,1.78-1.61,2.9-2.01,1.44-.21,2.99,.07,3.48,0,3.26-.34,5.96-2.18,7.47-3.1-.72-.67-10.84-8.98-21.01-5.54-1.52,.51-3.09,2.15-5.62,3.37Z" style="fill:#a74d47; stroke:#000; stroke-miterlimit:10;"/><path d="M74.92,208.02c1.32-.11,4.1-.17,7.19,1.21,2.74,1.22,4.46,3,5.33,4.06,.1,.12,.16,.27,.19,.42,.08,.56,.1,1.44-.37,2.27-.71,1.25-2.09,1.59-3.4,1.92-.93,.23-2.44,.46-4.57,.05-.13-.02-.4-.04-.66-.01-1.06,.12-2.36,.63-4.1,.58-1.69-.04-3.08-.37-4.07-.69-.02,0-.03-.01-.04-.02-.06-.02-.1-.04-.11-.05-1.08-.59-2.21-1.07-3.3-1.65-1.44-.76-3.13-1.04-4.38-1.24-4.18-.68-4.86,.85-8.35,.24-2.59-.45-4.7-2.32-5.82-3.65-.45-.54-.1-1.36,.6-1.42l24.99-2.03s.05,0,.07,0h.79Z" style="fill:#a74d47; stroke:#000; stroke-miterlimit:10;"/><path d="M63.03,35.03c-.22,2.04-.41,5.29-.93,6.51-2.6,6.18-7.12,9.66-9.24,9.95-.31,.04-1.23,.82-2.19,1.39-.23,.14-.44,.29-.63,.45-.9,.74-1.41,1.63-1.44,1.69-.27,.48-.39,.85-.87,1.49-.54,.71-.86,.87-.97,.92-.74,.33-1.55,.06-1.72,0-1.15-.38-1.45-1.45-2.37-2.51-.57-.67-1.54-1.51-3.26-2.14-.09-.03-.17-.08-.27-.11-1.49-.62-3.55-1.68-5.47-3.51-3.43-3.26-4.7-7.34-5.11-11.17-.11-1.03-.16-2.04-.17-3.01,0-.12,0-.23,0-.35,0-.35,0-.7,.01-1.04v-.02c0-.16,0-.31,.01-.47,0-.1,0-.19,0-.29,.02-.74,.06-1.44,.09-2.09,.17-3.33,.47-7.87,3.67-12.53,1.4-2.03,2.94-3.49,4.08-4.43,.58-.42,1.25-.83,2.02-1.2,3.87-1.89,7.81-1.54,9.82-1.21,1.64,.52,3.74,1.36,5.93,2.74,1.45,.92,2.62,1.88,3.55,2.73,1.39,1.54,3.43,4.22,4.62,7.99,.78,2.47,.95,4.65,.95,6.28v.06c.05,1.41,0,2.7-.14,3.88Z" style="fill:#610000; stroke:#000; stroke-miterlimit:10;"/><path d="M7.27,111.8c1.4,.46,3.03,.89,4.86,1.2,2.84,.48,5.36,.53,7.4,.42-.33,.53-.73,1.29-.98,2.26-.16,.62-.23,1.18-.25,1.64-2.3-.27-4.6-.55-6.9-.82l-4-.48c.1-.61,.17-1.36,.14-2.23-.03-.77-.14-1.43-.27-1.98Z" style="fill:#ff9b77; stroke:#000; stroke-miterlimit:10;"/><path d="M63.64,114.77c.14-.31,.39-.97,.33-1.84-.07-.9-.44-1.54-.62-1.82,1.52,.62,3.52,1.28,5.92,1.67,2.33,.38,4.37,.41,5.98,.32-.18,.3-.59,1.07-.52,2.11,.04,.64,.25,1.13,.4,1.42-1.86-.03-4.02-.2-6.39-.62-1.9-.34-3.6-.78-5.09-1.24Z" style="fill:#ff9b77; stroke:#000; stroke-miterlimit:10;"/><path d="M45.98,41.98c2.07,1,2.57,1.34,2.53,1.42-.12,.29-6.63-1.93-7.89-.68-.35,.35-.46,.73-.46,.73-.14,.47,.02,.79,.13,1.55,.04,.28,.08,.69,.08,1.19-2.43-2.08-3.11-3.91-3.23-5.28-.12-1.4,.3-2.78-.07-2.93-.36-.14-.8,1.29-2.37,2.25-1.08,.67-2.4,.93-2.62,.59-.15-.23,.38-.56,.49-1.24,.17-1.03-.77-1.93-1.11-2.35-.73-.91-1.18-2.76,.28-6.92,6.3-2.79,12.59-5.58,18.89-8.37l6.33,8.11c.29,.68,2.51,6,2.65,8.91,.02,.45,0,1.14-.31,1.86-.57,1.31-1.83,2.08-2.04,1.91-.16-.13,.41-.73,.22-1.6-.12-.55-.48-.89-.58-.98-.57-.51-1.52-.73-1.82-.4-.17,.19-.01,.44,.18,1.47,0,0,.15,.81,.22,1.78,.05,.59,.15,1.92-.13,2-.1,.03-.39-.07-1.2-1.82-.09,.26-.25,.63-.53,1.02-.71,.99-1.81,1.56-2,1.38-.16-.16,.47-.73,.27-1.47,0,0-.08-.29-.36-.58-.57-.59-2.67-1.19-5.55-1.55Z" style="fill:#55433b; stroke:#000; stroke-miterlimit:10;"/><path d="M45.67,58.67c.46,5.24,.62,11.55,0,18.65-.62,7.09-1.86,13.26-3.22,18.34" style="fill:none; stroke:#000; stroke-miterlimit:10;"/><path d="M44.3,60.1l1.58-2.52c.44,.39,1.4,1.37,1.62,2.87,.09,.58,.23,1.55-.4,2.32-.38,.45-1.08,.9-1.68,.74-.85-.22-2.05-1.59-1.11-3.41Z" style="fill:#bca79d; stroke:#000; stroke-miterlimit:10;"/><path d="M50.05,52.97c-.9,.81-1.41,1.77-1.44,1.83-.27,.51-.39,.92-.87,1.61-.54,.77-.86,.95-.97,.99-.74,.36-1.55,.06-1.72,0-1.15-.41-1.45-1.57-2.37-2.72-.57-.72-1.54-1.63-3.26-2.31-.09-.03-.17-.08-.27-.12-.07-.18-.13-.35-.2-.54,.5-.2,1.33-.62,1.96-1.47,.77-1.04,.82-2.16,.88-3.55,.03-.88,0-2.17-.38-3.71,1.25-.82,2.5-1.64,3.75-2.46,1.1,.83,2.2,1.67,3.29,2.5-.1,.62-.82,5.15-.17,7.69,.26,1.03,.7,1.5,.92,1.71,.27,.26,.56,.44,.85,.56Z" style="fill:#fee6e1; stroke:#000; stroke-miterlimit:10;"/><path d="M33.95,35.22c2.14-6.29,4.28-12.58,6.42-18.86l10.07,1.29c2,5.62,4.01,11.23,6.01,16.85-.13,2.07-.4,3.78-.65,5.03-.5,2.52-.94,3.39-1.19,3.83-.66,1.17-1.41,1.87-2.22,2.64-1.9,1.78-2.48,1.44-4.5,3.14-.26,.22-.84,.71-1.73,.98-.05,.01-.67,.19-1.36,.18-1.43-.03-2.6-.87-4.97-2.66-1.64-1.24-2.46-1.86-2.52-1.91-1.31-1.45-1.73-3.09-2.52-6.31-.24-.99-.56-2.42-.83-4.18Z" style="fill:#fee6e1; stroke:#000; stroke-miterlimit:10;"/><ellipse cx="37.97" cy="35.69" rx="5.01" ry="2.77" style="stroke:#231f20; stroke-miterlimit:10;"/><ellipse cx="52.86" cy="35.54" rx="4.97" ry="2.74" style="stroke:#231f20; stroke-miterlimit:10;"/><path d="M63.17,31.08c0-1.63-.17-3.81-.95-6.28-1.19-3.78-3.23-6.45-4.62-7.99-.93-.86-2.09-1.82-3.55-2.73-2.19-1.38-4.29-2.22-5.93-2.74-2.02-.33-5.95-.67-9.82,1.21-.77,.37-1.43,.78-2.02,1.2-1.15,.95-2.69,2.4-4.08,4.43-3.2,4.65-3.5,9.2-3.67,12.53-.03,.65-.07,1.36-.09,2.09,1.1-.64,2.19-1.28,3.29-1.92,.54-.09,1.43-.3,2.31-.89,.76-.51,1.39-1.21,3.37-5.51,.89-1.92,1.33-2.88,1.69-3.91,.99-2.85,.73-3.52,1.33-4.53,.74-1.24,2.55-2.59,7.46-2.66,1.5,1,3.33,2.59,4,4.97,.85,3.05-.85,5.08,.36,6.39,1.43,1.56,4.26-.86,7.9,.98,.46,.23,2.48,1.25,3.02,3.25,.29,1.09,0,2.15,0,2.1Z" style="fill:#610000; stroke:#000; stroke-miterlimit:10;"/><path d="M63.17,31.08v.06c-.03,.71-.08,1.38-.14,2.03-.89-1.59-2.74-4.72-3.35-4.55-.45,.13-.51,2.16,.18,3.91,.53,1.33,1.34,2.09,1.18,2.25-.29,.31-3.2-2.33-3.61-1.95-.45,.42,2.59,3.97,2.01,4.56-.3,.31-1.5-.22-2.31-.88-1-.81-1.23-1.7-1.51-1.64-.56,.13,.07,3.78-.45,3.91-.56,.15-1.11-4.22-4.53-6.66-.92-.65-1.34-.7-2.48-1.59-1.62-1.26-2.58-2.71-3.14-3.74-1.6,1.47-2.33,2.8-2.7,3.79-.16,.44-.42,1.25-1.18,1.89-.71,.6-1.67,.88-1.84,.65-.24-.32,1.15-1.62,1.01-1.77-.13-.13-1.11,.68-2.72,1.68-1.22,.75-2.4,1.35-2.49,1.22-.06-.09,.48-.4,.95-1.22,.25-.44,.19-.51,.56-1.25,.35-.69,.54-.91,.47-.99-.14-.16-.98,.38-1.36,.64-.19,.14-.64,.46-.95,.81-.96,1.1-.23,2.23-.92,3.55-.72,1.39-2.45,1.88-2.53,1.77-.07-.09,.99-.58,1.49-1.71,.79-1.75-.24-3.99-.67-3.97-.49,.02-.06,2.53-1.57,3.79-.56,.47-1.26,.66-2,.7-.1-.95-.15-1.89-.16-2.8v-.02c0-.15,0-.29,0-.44,0,0,.01-.02,.02-.03,.03-.05,.06-.1,.1-.15l-.09-.15c.02-.74,.06-1.44,.09-2.09,.17-3.33,.47-7.87,3.67-12.53,1.4-2.03,2.94-3.49,4.08-4.43,.58-.42,1.25-.83,2.02-1.2,3.87-1.89,7.81-1.54,9.82-1.21,1.64,.52,3.74,1.36,5.93,2.74,1.45,.92,2.62,1.88,3.55,2.73,1.39,1.54,3.43,4.22,4.62,7.99,.78,2.47,.95,4.65,.95,6.28Z" style="fill:#55433b; stroke:#000; stroke-miterlimit:10;"/><path d="M59.88,65.48c.19,2.22,.17,4.18,.09,5.77-.08,1.45-.2,3.56-.8,6.22-.66,2.91-.9,2.48-1.07,4-.29,2.6,.47,3.44,.27,5.95-.08,1-.33,2.46-1.12,4.2" style="fill:none; stroke:#000; stroke-miterlimit:10;"/><path d="M28.49,89c-.59-1.89-.74-3.48-.76-4.58-.03-1.18,.09-2.14,.31-4,.26-2.13,.55-3.71,.58-3.86,.36-2,.64-5.68,.36-13.01" style="fill:none; stroke:#000; stroke-miterlimit:10;"/><path d="M45.95,32.92c-.1,.71-.19,1.87,.01,3.26,.31,2.14,1.12,3.38,.55,4.02-.21,.24-.68,.48-1.91,.21" style="fill:none; stroke:#000; stroke-miterlimit:10; stroke-width:.75px;"/><g><path d="M41.97,44.24c.24,.37,.95,1.35,2.07,1.79,1.96,.76,3.3-.89,3.38-.99" style="fill:none; stroke:#000; stroke-miterlimit:10; stroke-width:.75px;"/><path d="M42.65,43.49c-.03,.14-.16,.67-.62,1.05-.38,.31-.77,.35-.92,.35" style="fill:none; stroke:#000; stroke-miterlimit:10; stroke-width:.75px;"/></g></svg>