<?xml version="1.0" encoding="UTF-8"?><svg id="a" xmlns="http://www.w3.org/2000/svg" viewBox="0 0 81.56 14.38"><path d="M13.46,4.76c.25,.72,.39,1.46,.43,2.2v.32c0,1.37-.37,2.65-1.09,3.85-.73,1.2-1.82,2.07-3.28,2.62-.6,.23-1.23,.34-1.9,.36s-1.38,.01-2.14,0H0c.09-2.36,.14-4.71,.14-7.06S.09,2.35,0,0H5.73c1.46,.01,2.75,.24,3.89,.67,1.13,.43,2.06,1.12,2.78,2.08,.46,.62,.82,1.3,1.06,2.02Zm-6.17,.73c-.54-.33-1.1-.52-1.68-.56-.01,.77-.02,1.54-.02,2.32s0,1.56,.02,2.34c.7-.07,1.31-.29,1.83-.69,.52-.39,.94-.93,1.27-1.62-.41-.86-.89-1.46-1.42-1.79Z" style="fill:#6b0063;"/><path d="M22.39,3.53c-.83-.02-1.66,0-2.5,.07-.01,.27-.02,.54-.02,.82v.84c.82,.05,1.64,.07,2.46,.05,.82-.02,1.63-.1,2.44-.23l-.83,3.76h-4.08c0,.13,0,.27,.01,.41,0,.14,0,.28,0,.43,0,.13,0,.27,0,.41,0,.14,0,.28,0,.43,.82,.05,1.64,.07,2.46,.05,.82-.02,1.63-.1,2.44-.23l-.84,3.78H14.12c.05-1.18,.09-2.36,.11-3.53,.02-1.17,.03-2.35,.03-3.53s-.01-2.34-.04-3.52c-.03-1.18-.06-2.35-.1-3.52h9.89l.84,3.76c-.81-.13-1.63-.21-2.46-.23Z" style="fill:#6b0063;"/><path d="M37.66,14.1l-.92-2.25h-4.69l-.82,2.25h-5.27L31.53,0h5.13l6.66,14.1h-5.67Zm-3.42-8.28l-.82,2.23h1.75l-.93-2.23Z" style="fill:#6b0063;"/><path d="M53.57,14.1h-10.05c.09-1.18,.16-2.36,.2-3.53s.06-2.35,.06-3.53-.02-2.34-.07-3.52c-.05-1.18-.11-2.35-.19-3.52h6.01c-.07,1.78-.12,3.24-.15,4.38-.03,1.14-.04,2.23-.03,3.26,0,.24,0,.48,0,.74s0,.5,0,.76c.85,.01,1.64,0,2.39-.07,.74-.06,1.48-.16,2.21-.29,.09-.01,.19-.03,.29-.05s.2-.04,.29-.05l-.97,5.43Z" style="fill:#6b0063;"/><path d="M63.99,3.53c-.83-.02-1.66,0-2.5,.07-.01,.27-.02,.54-.02,.82v.84c.82,.05,1.64,.07,2.46,.05,.82-.02,1.63-.1,2.44-.23l-.83,3.76h-4.08c0,.13,0,.27,.01,.41,0,.14,0,.28,0,.43,0,.13,0,.27,0,.41,0,.14,0,.28,0,.43,.82,.05,1.64,.07,2.46,.05,.82-.02,1.63-.1,2.44-.23l-.84,3.78h-9.83c.05-1.18,.09-2.36,.11-3.53,.02-1.17,.03-2.35,.03-3.53s-.01-2.34-.04-3.52c-.03-1.18-.06-2.35-.1-3.52h9.89l.84,3.76c-.81-.13-1.63-.21-2.46-.23Z" style="fill:#6b0063;"/><path d="M76.61,14.38c-.48-.52-.93-1.06-1.36-1.63-.43-.57-.85-1.14-1.26-1.71-.12-.16-.23-.31-.34-.47-.11-.15-.21-.31-.32-.47-.08-.11-.16-.22-.24-.33-.08-.11-.16-.22-.24-.33,0,.28,0,.59-.03,.94-.02,.35-.04,.71-.05,1.06-.01,.12-.02,.24-.03,.35,0,.11,0,.23,0,.35-.03,.41-.05,.79-.07,1.13-.02,.34-.04,.62-.05,.82h-5.15c.07-.74,.12-1.52,.15-2.33,.03-.81,.05-1.64,.05-2.49,0-.38,0-.77,0-1.16,0-.39-.02-.78-.03-1.16-.04-1.22-.1-2.42-.17-3.61-.07-1.19-.16-2.3-.25-3.35h5.83c.27,0,.54,0,.82,0,.28,0,.56,.02,.85,.03,.74,.03,1.44,.07,2.09,.14,.65,.07,1.09,.17,1.31,.32,.62,.41,1.17,.84,1.64,1.27,.47,.44,.85,.91,1.14,1.41,.07,.12,.12,.24,.17,.35,.05,.11,.08,.22,.11,.33,.03,.11,.05,.22,.06,.33,.01,.11,.02,.23,.02,.35,0,.65-.19,1.27-.56,1.87-.37,.6-.78,1.15-1.23,1.65-.13,.15-.28,.28-.45,.39s-.35,.21-.55,.29c.16,.4,.36,.86,.61,1.39,.25,.53,.55,1.07,.91,1.61,.23,.33,.47,.66,.74,.98,.26,.33,.55,.64,.86,.95l-4.95,.72Zm-1.21-8.95c.03-.07,.04-.13,.04-.18s0-.1-.03-.14c-.02-.04-.05-.08-.09-.12-.03-.04-.06-.08-.11-.12-.05-.04-.1-.09-.15-.14-.28-.25-.57-.45-.88-.6-.31-.15-.61-.29-.92-.42-.07-.03-.13-.05-.2-.08-.07-.03-.13-.05-.2-.08-.01,.38-.03,.75-.05,1.08-.02,.34-.03,.67-.03,.98-.01,.33-.02,.67-.02,1v1.08c.54-.15,1.03-.39,1.45-.74,.42-.34,.78-.78,1.05-1.29,.05-.11,.09-.19,.12-.26Z" style="fill:#6b0063;"/></svg>