<?xml version="1.0" encoding="UTF-8"?><svg id="a" xmlns="http://www.w3.org/2000/svg" viewBox="0 0 120.46 28.87"><g><path d="M22.64,12.31c.17,.5,.27,1,.3,1.52v.22c0,.94-.25,1.83-.75,2.66-.5,.83-1.26,1.43-2.26,1.8-.41,.16-.85,.24-1.31,.25-.46,0-.95,0-1.48,0h-3.77c.06-1.63,.1-3.25,.1-4.87s-.03-3.24-.1-4.86h3.95c1.01,0,1.9,.16,2.68,.46s1.42,.78,1.92,1.43c.32,.43,.56,.89,.73,1.39Zm-4.25,.5c-.37-.23-.76-.36-1.16-.38,0,.53-.01,1.06-.01,1.6s0,1.07,.01,1.61c.49-.05,.91-.2,1.26-.47,.36-.27,.65-.64,.88-1.12-.28-.59-.61-1.01-.98-1.23Z" style="fill:#6b0063;"/><path d="M28.8,11.46c-.57-.01-1.15,0-1.72,.05,0,.18-.01,.37-.01,.56v.58c.57,.04,1.13,.05,1.7,.03,.56-.01,1.12-.07,1.68-.16l-.58,2.59h-2.81c0,.09,0,.19,0,.28s0,.19,0,.29c0,.09,0,.19,0,.28,0,.1,0,.19,0,.3,.57,.04,1.13,.05,1.7,.03,.56-.01,1.12-.07,1.68-.16l-.58,2.61h-6.78c.04-.81,.06-1.63,.08-2.44s.02-1.62,.02-2.44,0-1.61-.03-2.43c-.02-.81-.04-1.62-.07-2.43h6.82l.58,2.59c-.56-.09-1.12-.14-1.69-.16Z" style="fill:#6b0063;"/><path d="M38.13,18.75h-6.93c.06-.81,.11-1.63,.14-2.44s.04-1.62,.04-2.44-.02-1.61-.05-2.43-.08-1.62-.13-2.43h4.15c-.05,1.23-.08,2.23-.1,3.02-.02,.79-.03,1.54-.02,2.25,0,.16,0,.33,0,.51s0,.35,0,.52c.59,0,1.13,0,1.65-.05,.51-.04,1.02-.11,1.52-.2,.06,0,.13-.02,.2-.03,.07-.01,.13-.02,.2-.03l-.67,3.75Z" style="fill:#6b0063;"/><path d="M45.31,11.46c-.57-.01-1.15,0-1.72,.05,0,.18-.01,.37-.01,.56v.58c.57,.04,1.13,.05,1.7,.03,.56-.01,1.12-.07,1.68-.16l-.58,2.59h-2.81c0,.09,0,.19,0,.28s0,.19,0,.29c0,.09,0,.19,0,.28,0,.1,0,.19,0,.3,.57,.04,1.13,.05,1.7,.03,.56-.01,1.12-.07,1.68-.16l-.58,2.61h-6.78c.04-.81,.06-1.63,.08-2.44s.02-1.62,.02-2.44,0-1.61-.03-2.43c-.02-.81-.04-1.62-.07-2.43h6.82l.58,2.59c-.56-.09-1.12-.14-1.69-.16Z" style="fill:#6b0063;"/><path d="M55.75,12.37c-.16,0-.31,0-.47-.03-.16-.02-.32-.04-.49-.07h-.04c-.17-.02-.33-.04-.49-.05-.17-.02-.33-.03-.49-.03,0,.63-.01,1.28-.01,1.94s0,1.32,.03,1.99c0,.44,.02,.88,.03,1.32s.02,.88,.04,1.31h-3.91c.02-.44,.03-.88,.05-1.33s.02-.9,.02-1.36c.02-.65,.03-1.3,.03-1.94s0-1.28-.01-1.9h-.15c-.38,0-.75,.02-1.13,.04-.38,.02-.75,.08-1.11,.18l.27-3.42h8.56l-.71,3.35Z" style="fill:#6b0063;"/><path d="M63.18,11.46c-.57-.01-1.15,0-1.72,.05,0,.18-.01,.37-.01,.56v.58c.57,.04,1.13,.05,1.7,.03,.56-.01,1.12-.07,1.68-.16l-.58,2.59h-2.81c0,.09,0,.19,0,.28s0,.19,0,.29c0,.09,0,.19,0,.28,0,.1,0,.19,0,.3,.57,.04,1.13,.05,1.7,.03,.56-.01,1.12-.07,1.68-.16l-.58,2.61h-6.78c.04-.81,.06-1.63,.08-2.44s.02-1.62,.02-2.44,0-1.61-.03-2.43c-.02-.81-.04-1.62-.07-2.43h6.82l.58,2.59c-.56-.09-1.12-.14-1.69-.16Z" style="fill:#6b0063;"/><path d="M76.91,18.75c-.03-.22-.05-.44-.08-.67-.03-.22-.06-.45-.08-.68-.04,.06-.08,.11-.12,.17-.04,.05-.08,.11-.13,.16-.05,.07-.09,.14-.14,.21-.05,.07-.1,.13-.16,.2-.09,.13-.18,.25-.27,.36-.09,.11-.18,.22-.27,.32-.94,0-1.85-.08-2.72-.27-.87-.19-1.72-.47-2.53-.84,.17-.9,.3-1.75,.36-2.56s.1-1.58,.1-2.33c0-.68-.03-1.33-.08-1.96-.05-.63-.11-1.25-.19-1.86h3.98v.18c-.02,1.06-.05,2.11-.1,3.14-.05,1.03-.2,1.97-.45,2.83,.26,.24,.56,.43,.91,.58,.35,.15,.75,.22,1.2,.22,.07,0,.15,0,.23,0,.08,0,.16-.01,.25-.02-.05-.74-.09-1.5-.11-2.27-.02-.77-.02-1.55-.01-2.33,0-.38,.02-.77,.04-1.16,.02-.39,.04-.78,.06-1.16h3.92c-.03,.81-.05,1.61-.07,2.43-.02,.81-.03,1.62-.03,2.43s0,1.63,.02,2.44,.04,1.62,.08,2.44h-3.61Z" style="fill:#6b0063;"/><path d="M86.29,18.39c-.49,.32-1.03,.58-1.63,.79l-3.24-1.77c.62-.17,1.09-.41,1.41-.7,.32-.29,.47-.64,.46-1.03,0-.17-.03-.36-.08-.55-.05-.19-.15-.39-.27-.59-.07-.13-.16-.25-.25-.37-.1-.12-.19-.24-.28-.36h-.01c-.11-.14-.21-.27-.32-.41-.1-.14-.19-.28-.27-.43-.1-.19-.17-.38-.22-.56-.05-.18-.07-.35-.07-.53,0-.33,.08-.64,.23-.94s.35-.57,.59-.83c.26-.29,.59-.54,.97-.75,.38-.21,.82-.39,1.32-.56l2.74,1.66c-.28,.17-.54,.36-.75,.56s-.39,.43-.51,.67c-.02,.04-.03,.07-.05,.1s-.03,.07-.03,.1c-.02,.07-.03,.14-.04,.21,0,.07-.01,.14-.01,.2,0,.17,.03,.34,.1,.5,.06,.16,.16,.3,.27,.43,.35,.38,.64,.75,.87,1.11,.23,.37,.38,.73,.47,1.08,.02,.09,.03,.18,.04,.27,0,.09,.01,.18,.01,.27,0,.19-.03,.38-.08,.58-.05,.19-.13,.38-.23,.58-.26,.5-.64,.91-1.13,1.23Z" style="fill:#6b0063;"/><path d="M94.17,11.46c-.57-.01-1.15,0-1.72,.05,0,.18-.01,.37-.01,.56v.58c.57,.04,1.13,.05,1.7,.03,.56-.01,1.12-.07,1.68-.16l-.58,2.59h-2.81c0,.09,0,.19,0,.28s0,.19,0,.29c0,.09,0,.19,0,.28,0,.1,0,.19,0,.3,.57,.04,1.13,.05,1.7,.03,.56-.01,1.12-.07,1.68-.16l-.58,2.61h-6.78c.04-.81,.06-1.63,.08-2.44s.02-1.62,.02-2.44,0-1.61-.03-2.43c-.02-.81-.04-1.62-.07-2.43h6.82l.58,2.59c-.56-.09-1.12-.14-1.69-.16Z" style="fill:#6b0063;"/><path d="M102.88,18.94c-.33-.36-.64-.73-.94-1.13-.3-.39-.59-.79-.87-1.18-.08-.11-.16-.22-.23-.32-.07-.1-.15-.21-.22-.32-.05-.07-.11-.15-.17-.23-.05-.08-.11-.15-.16-.23,0,.19,0,.41-.02,.65-.01,.24-.03,.49-.03,.73,0,.08-.02,.16-.02,.24,0,.08,0,.16,0,.24-.02,.28-.04,.54-.05,.78s-.03,.43-.03,.56h-3.55c.05-.51,.08-1.05,.1-1.61,.02-.56,.03-1.13,.03-1.72,0-.27,0-.53,0-.8,0-.27-.01-.54-.02-.8-.03-.84-.07-1.67-.12-2.49-.05-.82-.11-1.59-.17-2.31h4.02c.18,0,.37,0,.56,0,.19,0,.39,.01,.59,.02,.51,.02,.99,.05,1.44,.1s.75,.12,.91,.22c.43,.28,.81,.58,1.13,.88,.33,.3,.59,.63,.79,.97,.05,.08,.08,.16,.12,.24s.06,.15,.08,.23,.03,.15,.04,.23c0,.08,.01,.16,.01,.24,0,.45-.13,.88-.38,1.29-.26,.41-.54,.79-.85,1.14-.09,.1-.2,.19-.31,.27s-.24,.14-.38,.2c.11,.27,.25,.59,.42,.96,.17,.37,.38,.74,.62,1.11,.16,.23,.32,.46,.51,.68,.18,.22,.38,.44,.59,.65l-3.42,.49Zm-.84-6.18s.03-.09,.03-.12,0-.07-.02-.1c-.01-.03-.03-.06-.06-.08-.02-.03-.04-.06-.08-.08s-.07-.06-.1-.1c-.19-.17-.39-.31-.6-.41-.21-.1-.42-.2-.63-.29-.05-.02-.09-.04-.14-.05l-.14-.06c0,.27-.02,.51-.03,.75s-.02,.46-.02,.68c0,.23-.01,.46-.01,.69v.75c.38-.1,.71-.27,1-.51,.29-.24,.54-.54,.73-.89,.04-.07,.06-.13,.08-.18Z" style="fill:#6b0063;"/></g><g style="opacity:.93;"><path d="M9.06,.38H111.4c4.79,0,8.68,3.89,8.68,8.68v10.41c0,4.98-4.04,9.02-9.02,9.02H9.06C4.26,28.49,.38,24.6,.38,19.81V9.06C.38,4.26,4.26,.38,9.06,.38Z" style="fill:none; stroke:#6b0063; stroke-miterlimit:10; stroke-width:.75px;"/></g></svg>