<?xml version="1.0" encoding="UTF-8"?><svg id="a" xmlns="http://www.w3.org/2000/svg" viewBox="0 0 279.8 38.84"><path d="M270.78,38.84H8.68c-4.79,0-8.68-3.89-8.68-8.68V8.68C0,3.89,3.89,0,8.68,0H271.12c4.79,0,8.68,3.89,8.68,8.68V29.82c0,4.98-4.04,9.02-9.02,9.02Z" style="fill:#8c2175;"/><g><path d="M16.4,23.34c-.41,0-.76-.02-1.07-.06s-.59-.13-.87-.27c-.11-.05-.22-.12-.33-.19-.11-.07-.22-.16-.33-.26-.14-.11-.29-.23-.44-.36-.15-.13-.3-.26-.45-.4-.58-.54-1.12-1.15-1.59-1.84-.48-.69-.71-1.41-.7-2.16,0-.23,.03-.46,.09-.69,.06-.23,.15-.46,.27-.69,.72-1.29,1.67-2.37,2.88-3.25s2.74-1.58,4.61-2.11l2.15,3.16c-.94,.36-1.84,.76-2.71,1.2-.87,.44-1.62,.99-2.26,1.66-.09,.09-.15,.18-.19,.26-.04,.09-.06,.18-.06,.26,0,.11,.03,.22,.09,.33,.06,.11,.13,.22,.22,.33,.44,.51,.85,.84,1.24,1.01,.39,.17,.73,.24,1.04,.21l.03-3.44,4.41,1.24c-.08,.48-.13,.96-.17,1.44-.03,.47-.05,.94-.05,1.4,0,.54,.02,1.08,.07,1.61s.11,1.07,.19,1.59h-6.08Z" style="fill:#ff8d51;"/><path d="M33.4,23.34l-.76-1.87h-3.9l-.68,1.87h-4.38l4.63-11.71h4.26l5.53,11.71h-4.71Zm-2.84-6.87l-.68,1.85h1.45l-.78-1.85Z" style="fill:#ff8d51;"/><path d="M49.75,23.34l-.84-4.05-2.64,4.05-2.61-4.2-1.07,4.2h-4.43l2.89-11.71h3.32l2.33,5.25c.48-.79,.96-1.63,1.41-2.5s.9-1.79,1.33-2.75h3.21c.17,2.03,.41,4.02,.74,5.97,.33,1.96,.77,3.87,1.3,5.74h-4.94Z" style="fill:#ff8d51;"/><path d="M61.85,14.56c-.69-.02-1.38,0-2.07,.06-.01,.22-.02,.45-.02,.68v.69c.68,.04,1.36,.06,2.04,.04,.68-.02,1.35-.08,2.02-.19l-.69,3.12h-3.39c0,.11,0,.22,0,.34,0,.12,0,.23,0,.36,0,.11,0,.22,0,.34,0,.12,0,.23,0,.35,.68,.04,1.36,.06,2.04,.04,.68-.02,1.35-.08,2.02-.19l-.69,3.14h-8.16c.04-.98,.07-1.96,.09-2.93,.02-.97,.03-1.95,.03-2.93s-.01-1.94-.03-2.92c-.02-.98-.05-1.96-.08-2.92h8.21l.69,3.12c-.67-.11-1.35-.17-2.04-.19Z" style="fill:#ff8d51;"/><path d="M77.74,23.59c-1.97-.32-3.62-1.06-4.93-2.21-1.32-1.16-1.97-2.48-1.97-3.98s.62-2.75,1.85-3.87c1.23-1.13,2.78-1.88,4.64-2.25l2.05,3.4c-.9,.19-1.64,.52-2.22,1s-.87,1.02-.87,1.63,.29,1.15,.88,1.63c.59,.48,1.33,.81,2.24,1l-1.67,3.67Z" style="fill:#ff8d51;"/><path d="M90.66,21.74c-1.16,1.06-2.69,1.59-4.61,1.59s-3.46-.53-4.62-1.59-1.74-2.49-1.74-4.27,.58-3.19,1.74-4.25c1.16-1.06,2.7-1.59,4.62-1.59s3.45,.53,4.61,1.59c1.16,1.06,1.74,2.48,1.74,4.25s-.58,3.21-1.74,4.27Zm-3.28-5.72c-.37-.37-.81-.55-1.33-.55s-.96,.18-1.33,.55c-.37,.37-.55,.81-.55,1.33s.18,.96,.55,1.33c.37,.37,.81,.55,1.33,.55s.96-.18,1.33-.55,.55-.81,.55-1.33-.18-.96-.55-1.33Z" style="fill:#ff8d51;"/><path d="M104.07,15.58c.2,.6,.32,1.21,.36,1.83v.26c0,1.13-.3,2.2-.91,3.2s-1.51,1.72-2.73,2.17c-.5,.19-1.02,.29-1.58,.3-.56,.01-1.15,.01-1.78,0h-4.54c.08-1.96,.12-3.92,.12-5.86s-.04-3.9-.12-5.85h4.76c1.21,.01,2.29,.2,3.23,.55,.94,.36,1.71,.93,2.3,1.73,.38,.52,.68,1.08,.88,1.68Zm-5.12,.6c-.45-.28-.91-.43-1.4-.46-.01,.64-.02,1.28-.02,1.92s0,1.29,.02,1.94c.58-.06,1.09-.25,1.52-.57,.43-.32,.78-.77,1.06-1.35-.34-.72-.74-1.21-1.18-1.49Z" style="fill:#ff8d51;"/><path d="M111.48,14.56c-.69-.02-1.38,0-2.07,.06-.01,.22-.02,.45-.02,.68v.69c.68,.04,1.36,.06,2.04,.04,.68-.02,1.35-.08,2.02-.19l-.69,3.12h-3.39c0,.11,0,.22,0,.34,0,.12,0,.23,0,.36,0,.11,0,.22,0,.34,0,.12,0,.23,0,.35,.68,.04,1.36,.06,2.04,.04,.68-.02,1.35-.08,2.02-.19l-.69,3.14h-8.16c.04-.98,.07-1.96,.09-2.93,.02-.97,.03-1.95,.03-2.93s-.01-1.94-.03-2.92c-.02-.98-.05-1.96-.08-2.92h8.21l.69,3.12c-.67-.11-1.35-.17-2.04-.19Z" style="fill:#ff8d51;"/></g></svg>