<?xml version="1.0" encoding="UTF-8"?><svg id="a" xmlns="http://www.w3.org/2000/svg" viewBox="0 0 133.79 44.9"><g><path d="M8.68,0H125.11c4.79,0,8.68,3.89,8.68,8.68v27.2c0,4.98-4.04,9.02-9.02,9.02H8.68c-4.79,0-8.68-3.89-8.68-8.68V8.68C0,3.89,3.89,0,8.68,0Z" style="fill:#8c2175;"/><path d="M11.88,3.31H111.57c4.79,0,8.68,3.89,8.68,8.68v20.57c0,4.98-4.04,9.02-9.02,9.02H11.88c-4.79,0-8.68-3.89-8.68-8.68V11.99C3.2,7.2,7.09,3.31,11.88,3.31Z" style="fill:#ff8d51;"/></g><g><path d="M38.53,10.96c-.01,.22-.02,.44-.02,.66-.06,2.56-.11,5.11-.14,7.64-.03,2.53,0,5.02,.11,7.48-.6,1.19-1.28,2.24-2.04,3.15s-1.67,1.65-2.71,2.23h-4.91c-.81-.02-1.62-.05-2.44-.08-.82-.03-1.64-.09-2.47-.17l-2.36-8.24c.91,.33,1.88,.57,2.9,.72,1.02,.15,2.11,.22,3.28,.2,.68-.04,1.21-.33,1.59-.86,.38-.53,.54-1.33,.48-2.4-.06-1.17-.15-2.33-.27-3.49-.12-1.16-.23-2.32-.33-3.49-.06-.68-.13-1.35-.19-2.01-.06-.67-.13-1.33-.19-1.98h9.72c0,.21,0,.41-.02,.63Z" style="fill:#8c2175;"/><path d="M61.57,29.16c-2.23,1.98-5.2,2.97-8.9,2.97s-6.67-.99-8.91-2.97c-2.24-1.98-3.36-4.63-3.36-7.94s1.12-5.94,3.36-7.91c2.24-1.98,5.21-2.97,8.91-2.97s6.66,.99,8.9,2.97c2.23,1.98,3.35,4.61,3.35,7.91s-1.12,5.97-3.35,7.94Zm-6.33-10.63c-.71-.69-1.57-1.03-2.57-1.03s-1.85,.34-2.57,1.03-1.07,1.51-1.07,2.47,.36,1.79,1.07,2.47c.71,.69,1.57,1.03,2.57,1.03s1.85-.34,2.57-1.03c.71-.69,1.07-1.51,1.07-2.47s-.36-1.79-1.07-2.47Z" style="fill:#8c2175;"/><path d="M65.68,32.12c.06-1.82,.12-3.64,.16-5.46,.04-1.81,.06-3.63,.06-5.46s-.02-3.62-.06-5.44c-.04-1.82-.1-3.64-.16-5.44h9.41c-.06,1.8-.12,3.62-.16,5.44-.04,1.82-.06,3.64-.06,5.44s.02,3.64,.05,5.46c.03,1.81,.09,3.63,.17,5.46h-9.41Z" style="fill:#8c2175;"/><path d="M94.48,32.12l-10.11-10.02v1.54c0,.51-.01,1.02-.03,1.54v1.94c-.02,.84-.03,1.67-.02,2.5,.01,.83,.04,1.66,.08,2.5h-8.64c.23-1.76,.41-3.54,.53-5.35,.12-1.8,.18-3.61,.18-5.41s-.06-3.65-.18-5.49c-.12-1.83-.29-3.68-.53-5.55h6.47l9.41,8.11c-.06-1.35-.13-2.7-.19-4.06-.06-1.35-.13-2.7-.19-4.06h9.44c-.32,3.59-.44,7.2-.35,10.83,.08,3.64,.2,7.29,.35,10.96h-6.22Z" style="fill:#8c2175;"/></g></svg>