<?xml version="1.0" encoding="UTF-8"?><svg id="a" xmlns="http://www.w3.org/2000/svg" viewBox="0 0 279.8 38.84"><path d="M270.78,38.84H8.68c-4.79,0-8.68-3.89-8.68-8.68V8.68C0,3.89,3.89,0,8.68,0H271.12c4.79,0,8.68,3.89,8.68,8.68V29.82c0,4.98-4.04,9.02-9.02,9.02Z" style="fill:#8c2175;"/><g><path d="M17.56,22.71c-.03-.24-.06-.48-.09-.73-.03-.25-.06-.49-.09-.74-.04,.06-.08,.12-.13,.18s-.09,.12-.14,.18c-.05,.08-.1,.16-.16,.23-.06,.07-.11,.15-.17,.22-.1,.14-.2,.27-.3,.4-.1,.13-.2,.24-.3,.35-1.03,0-2.02-.09-2.98-.3s-1.88-.52-2.77-.92c.19-.98,.32-1.91,.4-2.8,.08-.89,.11-1.73,.11-2.54,0-.74-.03-1.45-.08-2.14-.06-.68-.12-1.36-.2-2.03h4.35v.19c-.02,1.16-.06,2.3-.11,3.43-.05,1.12-.22,2.16-.49,3.1,.28,.26,.61,.47,1,.63,.38,.16,.82,.24,1.31,.24,.08,0,.17,0,.25,0,.09,0,.18-.01,.27-.02-.06-.81-.1-1.64-.12-2.48-.02-.84-.02-1.69-.01-2.54,0-.42,.03-.84,.04-1.27,.02-.42,.04-.85,.06-1.27h4.29c-.03,.88-.06,1.76-.08,2.65-.02,.89-.03,1.77-.03,2.65s0,1.78,.02,2.66c.01,.89,.04,1.77,.08,2.66h-3.95Z" style="fill:#ff8d51;"/><path d="M27.82,22.31c-.53,.34-1.13,.63-1.78,.86l-3.54-1.94c.68-.19,1.19-.44,1.54-.76,.34-.32,.51-.69,.5-1.12,0-.19-.03-.39-.09-.6-.06-.21-.16-.42-.3-.65-.08-.14-.17-.27-.28-.4-.11-.13-.21-.26-.31-.39v-.02c-.13-.14-.25-.29-.36-.44s-.21-.3-.3-.46c-.11-.21-.19-.41-.24-.61-.05-.2-.07-.39-.07-.58,0-.36,.08-.7,.25-1.03,.17-.33,.38-.63,.64-.91,.29-.32,.65-.59,1.07-.82s.9-.43,1.44-.61l3,1.81c-.31,.19-.58,.4-.83,.61-.24,.22-.42,.47-.55,.74-.02,.04-.04,.08-.05,.11-.01,.04-.03,.07-.04,.11-.02,.08-.04,.16-.04,.23,0,.07-.01,.15-.01,.22,0,.19,.03,.37,.1,.55,.07,.18,.17,.33,.3,.47,.38,.41,.7,.81,.95,1.21,.25,.4,.42,.79,.51,1.19,.02,.1,.04,.2,.04,.3s.02,.2,.02,.3c0,.21-.03,.42-.08,.63s-.14,.42-.25,.63c-.29,.55-.7,1-1.24,1.34Z" style="fill:#ff8d51;"/><path d="M36.43,14.74c-.62-.01-1.25,0-1.88,.05-.01,.2-.02,.4-.02,.61v.63c.62,.04,1.24,.05,1.85,.04,.62-.01,1.23-.07,1.84-.17l-.63,2.83h-3.08c0,.1,0,.2,0,.31,0,.1,0,.21,0,.32,0,.1,0,.2,0,.31s0,.21,0,.32c.62,.04,1.24,.05,1.85,.04,.61-.01,1.23-.07,1.84-.17l-.63,2.85h-7.41c.04-.89,.07-1.78,.08-2.66,.01-.88,.02-1.77,.02-2.66s-.01-1.76-.03-2.65c-.02-.89-.04-1.77-.08-2.65h7.46l.63,2.83c-.61-.1-1.23-.16-1.85-.17Z" style="fill:#ff8d51;"/><path d="M45.94,22.92c-.36-.39-.7-.8-1.03-1.23-.33-.43-.64-.86-.95-1.29-.09-.12-.17-.24-.25-.35-.08-.11-.16-.23-.24-.35-.06-.08-.12-.16-.18-.25-.06-.08-.12-.17-.18-.25,0,.21,0,.45-.02,.71-.02,.27-.03,.53-.04,.8,0,.09-.02,.18-.02,.26s0,.17,0,.26c-.02,.31-.04,.6-.05,.85-.02,.26-.03,.47-.04,.62h-3.88c.05-.56,.09-1.15,.11-1.75,.03-.61,.04-1.23,.04-1.88,0-.29,0-.58,0-.88s-.01-.59-.02-.88c-.03-.92-.07-1.83-.13-2.72-.05-.9-.12-1.74-.19-2.53h4.4c.2,0,.41,0,.62,0s.42,.01,.64,.02c.56,.02,1.08,.06,1.58,.1,.49,.05,.82,.13,.99,.24,.47,.31,.88,.63,1.24,.96,.35,.33,.64,.69,.86,1.06,.05,.09,.09,.18,.13,.26,.03,.09,.06,.17,.08,.25,.02,.08,.04,.16,.04,.25s.02,.17,.02,.26c0,.49-.14,.96-.42,1.41-.28,.45-.59,.87-.93,1.25-.1,.11-.21,.21-.34,.29-.13,.08-.26,.16-.41,.22,.12,.3,.27,.65,.46,1.05,.18,.4,.41,.81,.68,1.21,.17,.25,.35,.5,.55,.74s.42,.48,.64,.71l-3.73,.54Zm-.92-6.75s.03-.09,.03-.13,0-.08-.02-.1c-.01-.03-.04-.06-.07-.09-.02-.03-.05-.06-.08-.09-.04-.03-.07-.06-.11-.1-.21-.19-.43-.34-.66-.45-.23-.11-.46-.21-.69-.31-.05-.02-.1-.04-.15-.06-.05-.02-.1-.04-.15-.06,0,.29-.02,.56-.04,.82-.02,.25-.02,.5-.02,.74-.01,.25-.02,.5-.02,.76v.82c.41-.11,.78-.29,1.1-.56,.32-.26,.58-.58,.79-.98,.04-.08,.07-.14,.09-.19Z" style="fill:#ff8d51;"/><path d="M59.77,22.71l-4.75-4.89v.75c0,.25,0,.5-.01,.75v.95c0,.41-.01,.82,0,1.22,0,.41,.02,.81,.04,1.22h-4.07c.11-.86,.19-1.73,.25-2.61,.05-.88,.08-1.76,.08-2.64s-.03-1.78-.08-2.68c-.06-.89-.14-1.8-.25-2.71h3.04l4.42,3.96c-.03-.66-.06-1.32-.09-1.98-.03-.66-.06-1.32-.09-1.98h4.44c-.15,1.75-.21,3.51-.17,5.29,.04,1.78,.09,3.56,.17,5.35h-2.93Z" style="fill:#ff8d51;"/><path d="M72.33,22.71l-.69-1.69h-3.54l-.62,1.69h-3.97l4.2-10.63h3.87l5.02,10.63h-4.27Zm-2.58-6.24l-.62,1.68h1.32l-.71-1.68Z" style="fill:#ff8d51;"/><path d="M87.18,22.71l-.76-3.67-2.4,3.67-2.37-3.81-.98,3.81h-4.02l2.62-10.63h3.01l2.12,4.77c.44-.72,.87-1.48,1.28-2.27,.42-.79,.82-1.63,1.21-2.5h2.91c.15,1.84,.38,3.65,.68,5.42,.3,1.77,.69,3.51,1.18,5.21h-4.49Z" style="fill:#ff8d51;"/><path d="M98.16,14.74c-.62-.01-1.25,0-1.88,.05-.01,.2-.02,.4-.02,.61v.63c.62,.04,1.24,.05,1.85,.04,.62-.01,1.23-.07,1.84-.17l-.63,2.83h-3.08c0,.1,0,.2,0,.31,0,.1,0,.21,0,.32,0,.1,0,.2,0,.31s0,.21,0,.32c.62,.04,1.24,.05,1.85,.04,.61-.01,1.23-.07,1.84-.17l-.63,2.85h-7.41c.04-.89,.07-1.78,.08-2.66,.01-.88,.02-1.77,.02-2.66s-.01-1.76-.03-2.65c-.02-.89-.04-1.77-.08-2.65h7.46l.63,2.83c-.61-.1-1.23-.16-1.85-.17Z" style="fill:#ff8d51;"/></g></svg>