<?xml version="1.0" encoding="UTF-8"?><svg id="a" xmlns="http://www.w3.org/2000/svg" viewBox="0 0 279.8 38.84"><path d="M270.78,38.84H8.68c-4.79,0-8.68-3.89-8.68-8.68V8.68C0,3.89,3.89,0,8.68,0H271.12c4.79,0,8.68,3.89,8.68,8.68V29.82c0,4.98-4.04,9.02-9.02,9.02Z" style="fill:#8c2175;"/><g><path d="M18.36,15.79c.04,.21,.07,.44,.07,.67,0,.14,0,.28-.02,.42-.02,.14-.04,.28-.07,.42-.11,.5-.29,.99-.53,1.46-.24,.48-.5,.88-.76,1.21-.01,0-.02,0-.02,.02,0,.01-.01,.02-.02,.03-.17,.19-.38,.35-.62,.47-.25,.13-.53,.2-.86,.22-.49,.04-.95,.05-1.39,.04-.43-.01-.85-.04-1.25-.08,.02,.42,.04,.84,.06,1.25,.02,.42,.05,.83,.09,1.24h-4.42c.15-1.76,.23-3.52,.23-5.29s-.07-3.55-.23-5.34h4.42c.72,0,1.32,.04,1.8,.09,.48,.05,.84,.16,1.1,.33,.49,.34,.92,.69,1.3,1.06s.68,.77,.9,1.19c.11,.19,.19,.39,.23,.61Zm-3.45,.67c.01-.07,.02-.14,.02-.21,0-.12-.03-.23-.08-.34s-.13-.19-.22-.26c-.27-.26-.55-.48-.84-.65s-.59-.33-.9-.46c-.03,.64-.05,1.28-.07,1.93-.02,.65-.02,1.29,0,1.93,.44-.13,.83-.34,1.16-.62s.61-.65,.83-1.09c.05-.08,.08-.16,.1-.23Z" style="fill:#ff8d51;"/><path d="M28.28,23.14l-.69-1.69h-3.54l-.62,1.69h-3.97l4.2-10.63h3.87l5.02,10.63h-4.27Zm-2.58-6.24l-.62,1.68h1.32l-.71-1.68Z" style="fill:#ff8d51;"/><path d="M37.68,22.75c-.53,.34-1.13,.63-1.78,.86l-3.54-1.94c.68-.19,1.19-.44,1.54-.76,.34-.32,.51-.69,.5-1.12,0-.19-.03-.39-.09-.6-.06-.21-.16-.42-.3-.65-.08-.14-.17-.27-.28-.4-.11-.13-.21-.26-.31-.39v-.02c-.13-.14-.25-.29-.36-.44s-.21-.3-.3-.46c-.11-.21-.19-.41-.24-.61-.05-.2-.07-.39-.07-.58,0-.36,.08-.7,.25-1.03,.17-.33,.38-.63,.64-.91,.29-.32,.65-.59,1.07-.82s.9-.43,1.44-.61l3,1.81c-.31,.19-.58,.4-.83,.61-.24,.22-.42,.47-.55,.74-.02,.04-.04,.08-.05,.11-.01,.04-.03,.07-.04,.11-.02,.08-.04,.16-.04,.23,0,.07-.01,.15-.01,.22,0,.19,.03,.37,.1,.55,.07,.18,.17,.33,.3,.47,.38,.41,.7,.81,.95,1.21,.25,.4,.42,.79,.51,1.19,.02,.1,.04,.2,.04,.3s.02,.2,.02,.3c0,.21-.03,.42-.08,.63s-.14,.42-.25,.63c-.29,.55-.7,1-1.24,1.34Z" style="fill:#ff8d51;"/><path d="M45.26,22.75c-.53,.34-1.13,.63-1.78,.86l-3.54-1.94c.68-.19,1.19-.44,1.54-.76,.34-.32,.51-.69,.5-1.12,0-.19-.03-.39-.09-.6-.06-.21-.16-.42-.3-.65-.08-.14-.17-.27-.28-.4-.11-.13-.21-.26-.31-.39v-.02c-.13-.14-.25-.29-.36-.44s-.21-.3-.3-.46c-.11-.21-.19-.41-.24-.61-.05-.2-.07-.39-.07-.58,0-.36,.08-.7,.25-1.03,.17-.33,.38-.63,.64-.91,.29-.32,.65-.59,1.07-.82s.9-.43,1.44-.61l3,1.81c-.31,.19-.58,.4-.83,.61-.24,.22-.42,.47-.55,.74-.02,.04-.04,.08-.05,.11-.01,.04-.03,.07-.04,.11-.02,.08-.04,.16-.04,.23,0,.07-.01,.15-.01,.22,0,.19,.03,.37,.1,.55,.07,.18,.17,.33,.3,.47,.38,.41,.7,.81,.95,1.21,.25,.4,.42,.79,.51,1.19,.02,.1,.04,.2,.04,.3s.02,.2,.02,.3c0,.21-.03,.42-.08,.63s-.14,.42-.25,.63c-.29,.55-.7,1-1.24,1.34Z" style="fill:#ff8d51;"/><path d="M61.3,23.14h-2.8l-2.38-4.32-2.25,4.32h-3.17c-.46-1.58-.95-3.17-1.47-4.75-.52-1.59-1.09-3.19-1.71-4.8l4.25-1.08,1.29,4.74,3.06-4.74,2.85,4.27,1.38-4.27,3.93,.63-2.97,10Z" style="fill:#ff8d51;"/><path d="M76.03,21.7c-1.05,.96-2.44,1.45-4.18,1.45s-3.14-.48-4.19-1.45c-1.06-.97-1.58-2.26-1.58-3.88s.53-2.9,1.58-3.86c1.05-.96,2.45-1.45,4.19-1.45s3.13,.48,4.18,1.45c1.05,.97,1.58,2.25,1.58,3.86s-.53,2.91-1.58,3.88Zm-2.98-5.19c-.33-.33-.74-.5-1.21-.5s-.87,.17-1.21,.5c-.33,.34-.5,.74-.5,1.21s.17,.87,.5,1.21c.33,.34,.74,.5,1.21,.5s.87-.17,1.21-.5c.33-.33,.5-.74,.5-1.21s-.17-.87-.5-1.21Z" style="fill:#ff8d51;"/><path d="M84.73,23.35c-.36-.39-.7-.8-1.03-1.23-.33-.43-.64-.86-.95-1.29-.09-.12-.17-.24-.25-.35-.08-.11-.16-.23-.24-.35-.06-.08-.12-.16-.18-.25-.06-.08-.12-.17-.18-.25,0,.21,0,.45-.02,.71-.02,.27-.03,.53-.04,.8,0,.09-.02,.18-.02,.26s0,.17,0,.26c-.02,.31-.04,.6-.05,.85-.02,.26-.03,.47-.04,.62h-3.88c.05-.56,.09-1.15,.11-1.75,.03-.61,.04-1.23,.04-1.88,0-.29,0-.58,0-.88s-.01-.59-.02-.88c-.03-.92-.07-1.83-.13-2.72-.05-.9-.12-1.74-.19-2.53h4.4c.2,0,.41,0,.62,0s.42,.01,.64,.02c.56,.02,1.08,.06,1.58,.1,.49,.05,.82,.13,.99,.24,.47,.31,.88,.63,1.24,.96,.35,.33,.64,.69,.86,1.06,.05,.09,.09,.18,.13,.26,.03,.09,.06,.17,.08,.25,.02,.08,.04,.16,.04,.25s.02,.17,.02,.26c0,.49-.14,.96-.42,1.41-.28,.45-.59,.87-.93,1.25-.1,.11-.21,.21-.34,.29-.13,.08-.26,.16-.41,.22,.12,.3,.27,.65,.46,1.05,.18,.4,.41,.81,.68,1.21,.17,.25,.35,.5,.55,.74s.42,.48,.64,.71l-3.73,.54Zm-.92-6.75s.03-.09,.03-.13,0-.08-.02-.1c-.01-.03-.04-.06-.07-.09-.02-.03-.05-.06-.08-.09-.04-.03-.07-.06-.11-.1-.21-.19-.43-.34-.66-.45-.23-.11-.46-.21-.69-.31-.05-.02-.1-.04-.15-.06-.05-.02-.1-.04-.15-.06,0,.29-.02,.56-.04,.82-.02,.25-.02,.5-.02,.74-.01,.25-.02,.5-.02,.76v.82c.41-.11,.78-.29,1.1-.56,.32-.26,.58-.58,.79-.98,.04-.08,.07-.14,.09-.19Z" style="fill:#ff8d51;"/><path d="M100.13,16.1c.18,.54,.29,1.1,.32,1.66v.24c0,1.03-.28,2-.83,2.9-.55,.91-1.38,1.56-2.47,1.97-.45,.17-.93,.26-1.43,.27s-1.04,0-1.61,0h-4.12c.07-1.78,.1-3.56,.1-5.33s-.04-3.54-.1-5.31h4.32c1.1,0,2.08,.18,2.93,.5,.86,.32,1.55,.85,2.09,1.57,.35,.47,.62,.98,.8,1.52Zm-4.65,.55c-.41-.25-.83-.39-1.27-.42,0,.58-.01,1.16-.01,1.75s0,1.17,.01,1.76c.53-.05,.99-.22,1.38-.52,.39-.29,.71-.7,.96-1.22-.31-.65-.67-1.1-1.07-1.35Z" style="fill:#ff8d51;"/></g></svg>