<?xml version="1.0" encoding="UTF-8"?><svg id="a" xmlns="http://www.w3.org/2000/svg" viewBox="0 0 172.01 40.4"><path d="M8.68,0H163.33c4.79,0,8.68,3.89,8.68,8.68V31.38c0,4.98-4.04,9.02-9.02,9.02H8.68c-4.79,0-8.68-3.89-8.68-8.68V8.68C0,3.89,3.89,0,8.68,0Z" style="fill:#8c2175;"/><path d="M11.46,2.98H151.7c4.79,0,8.68,3.89,8.68,8.68V28.4c0,4.98-4.04,9.02-9.02,9.02H11.46c-4.79,0-8.68-3.89-8.68-8.68V11.66C2.78,6.87,6.67,2.98,11.46,2.98Z" style="fill:#ff8d51;"/><g><path d="M37.42,29.33h-14.88c.14-1.6,.24-3.2,.29-4.79s.09-3.19,.09-4.79-.03-3.17-.1-4.78c-.07-1.6-.16-3.19-.28-4.78h8.9c-.1,2.41-.17,4.39-.22,5.94-.05,1.55-.06,3.02-.04,4.42,0,.32,0,.66,.01,1,0,.34,.01,.68,.01,1.03,1.26,.02,2.44-.01,3.54-.09s2.19-.21,3.27-.39c.14-.02,.28-.04,.43-.07s.29-.05,.43-.07l-1.44,7.37Z" style="fill:#8c2175;"/><path d="M60.17,26.73c-2.06,1.74-4.8,2.6-8.22,2.6s-6.17-.87-8.24-2.6c-2.07-1.74-3.11-4.06-3.11-6.97s1.04-5.21,3.11-6.95c2.07-1.74,4.82-2.6,8.24-2.6s6.16,.87,8.22,2.6c2.06,1.74,3.09,4.05,3.09,6.95s-1.03,5.24-3.09,6.97Zm-5.85-9.34c-.66-.6-1.45-.9-2.37-.9s-1.71,.3-2.37,.9-.99,1.33-.99,2.17,.33,1.57,.99,2.17c.66,.6,1.45,.9,2.37,.9s1.71-.3,2.37-.9c.66-.6,.99-1.33,.99-2.17s-.33-1.57-.99-2.17Z" style="fill:#8c2175;"/><path d="M74.14,29.33c-.73,0-1.36-.03-1.9-.09-.54-.06-1.06-.21-1.55-.45-.2-.09-.39-.19-.59-.31-.2-.12-.39-.26-.59-.42-.25-.18-.52-.37-.78-.58-.27-.21-.54-.43-.81-.66-1.04-.88-1.99-1.88-2.84-3.01-.85-1.12-1.27-2.3-1.25-3.52,0-.38,.05-.76,.16-1.13,.11-.38,.27-.76,.49-1.13,1.28-2.1,2.99-3.87,5.13-5.3s4.88-2.58,8.22-3.44l3.83,5.15c-1.67,.59-3.28,1.25-4.83,1.96-1.55,.71-2.9,1.61-4.04,2.71-.16,.14-.27,.29-.34,.43-.07,.14-.1,.29-.1,.43,0,.18,.05,.36,.16,.54,.11,.18,.24,.36,.4,.54,.79,.83,1.52,1.38,2.21,1.65,.69,.27,1.31,.39,1.86,.35l.06-5.61,7.87,2.02c-.14,.79-.24,1.57-.29,2.35-.06,.77-.09,1.54-.09,2.29,0,.88,.04,1.76,.13,2.63,.09,.87,.2,1.74,.34,2.6h-10.84Z" style="fill:#8c2175;"/><path d="M97.54,29.33c.06-1.6,.11-3.2,.15-4.79,.04-1.59,.06-3.19,.06-4.79s-.02-3.17-.06-4.78c-.04-1.6-.09-3.19-.15-4.78h8.69c-.06,1.58-.11,3.18-.15,4.78-.04,1.6-.06,3.19-.06,4.78s.01,3.2,.04,4.79c.03,1.59,.08,3.19,.16,4.79h-8.69Z" style="fill:#8c2175;"/><path d="M124.15,29.33l-9.34-8.8v1.35c0,.45,0,.9-.03,1.35v1.7c-.02,.74-.02,1.47-.01,2.2,0,.73,.03,1.46,.07,2.2h-7.99c.22-1.55,.38-3.11,.49-4.69,.11-1.58,.16-3.17,.16-4.75s-.05-3.21-.16-4.82c-.11-1.61-.27-3.23-.49-4.87h5.98l8.69,7.12c-.06-1.19-.12-2.37-.18-3.56-.06-1.19-.12-2.37-.18-3.56h8.72c-.29,3.15-.4,6.32-.32,9.51s.19,6.4,.32,9.62h-5.75Z" style="fill:#8c2175;"/><path d="M136.44,29.92s-.25-.17-.75-.45c-.5-.28-1.06-.59-1.67-.93-.59-.34-1.13-.66-1.64-.94s-.76-.44-.78-.46l3.95-4.07,4.8,3.21-3.92,3.64Zm-2.95-7.26l-1.8-10.79,7.9-1.67,.06,10.31-6.16,2.16Z" style="fill:#8c2175;"/></g></svg>