<?xml version="1.0" encoding="UTF-8"?><svg id="a" xmlns="http://www.w3.org/2000/svg" viewBox="0 0 655.95 580.13"><g><path d="M157.05,46c-.75-.37-1.54-.71-2.38-1.02-6.82-2.49-13.4-1.27-17.54,0-2.56,7.83-5.11,15.66-7.67,23.49-4.54-5.39-9.07-10.78-13.61-16.17-2.02,.3-4.5,.86-7.21,1.89-3.37,1.28-6.02,2.88-7.94,4.24-.14,.2-.36,.54-.49,1.01-.83,2.98,3.27,5.83,6.11,10.05,1.23,1.83,2.77,4.73,3.57,9.02,.37,1.93,3.44,19.73-8.85,32.17-5.75,5.82-12.4,7.99-16,8.85-.56-.22-1.36-.56-2.28-1.03-2.04-1.04-3.91-2-5.49-3.77-1.82-2.04-1.72-3.44-3.47-4.22-.96-.43-1.9-.42-2.55-.34-.95,.08-2.34,.26-3.99,.65-3.07,.73-9.21,2.19-11.11,6.71-.37,.87-.51,1.69-.56,2.34,.13,.38,.32,.96,.59,1.65,2.69,6.93,7.11,11.24,8.94,12.99,6.62,6.33,9.93,9.5,18.83,16.95,6.72,5.63,11.54,10.41,21.17,19.99,8.07,8.02,13.59,14.07,21.01,22.23,24.13,26.54,37.72,44.55,40.26,48.75,.23,.38,1.17,1.97,2.72,3.91,1.74,2.18,3.45,3.81,4.77,4.94,1.88,0,5.71-.25,9.7-2.55,6.01-3.47,8.14-9.14,8.68-10.72-5.86-10.22-11.69-21.5-17.19-33.87-12.41-27.91-19.88-54.05-24.47-76.4-.49-.8-1.41-2.01-2.92-2.63-1.3-.54-2.03-.23-5.46,.22-4.94,.64-6.64,.42-7.95,1.93-.51,.59-.76,1.22-.9,1.64,1.47,4.62,2.87,9.68,4.09,15.15,1.59,7.16,2.6,13.85,3.23,19.91-5.69-5.15-11.81-10.39-18.38-15.66-9.66-7.74-19.09-14.57-28.09-20.6,2.63-.59,11.82-2.98,18.38-11.74,8.81-11.76,5.57-25.26,5.11-27.06,1.36,3.22,3.31,7.06,6.13,11.06,1.89,2.68,3.81,4.94,5.61,6.81,1.59,.5,3.75,.99,6.31,1.02,4.85,.06,8.58-1.53,10.55-2.55,.09-9.36,1.17-16.92,2.21-22.3,.85-4.4,2.05-8.84,4.43-17.7,2.18-8.11,3.27-12.16,3.74-12.94,.21-.34,1.03-1.61,1.06-3.33,.02-1.29-.4-2.34-.72-2.97Z" style="fill:#ed6d78;"/><path d="M199.44,52.38c-1.58-3.13-4.86-4.96-8.17-4.6-4.27,.47-6.26,4.34-6.38,4.6-1.09,2.46-2.59,6.43-3.32,11.49-1.19,8.27,.5,13.79,3.57,29.11,.81,4.02,2,10.19,3.32,17.87-1.48-.05-7.8-.12-13.28,4.6-4.42,3.81-5.74,8.53-6.13,10.21,4.61,6.35,8.7,11.78,12,16.09,5.38,7.02,12.29,15.79,20.53,25.66,1.66,1.98,3.04,3.61,3.98,4.73,1.01,.09,3.61,.18,6.25-1.38,4.1-2.44,4.88-6.89,4.99-7.56-2.03-5.53-4.19-13.08-5.11-22.21-.89-8.87-.33-16.48,.51-22.21,1.56-.68,3.92-1.5,6.89-1.79,3.12-.3,5.7,.11,7.4,.51,7.42,17.13,17.17,45.82,17.11,82.21-.04,23.35-4.1,42.93-8.33,57.3,21.06-19.71,26.82-38.03,28.75-48.36,4.61-24.7-3.33-54.11-9.96-78.64-.7-2.59-2.3-8.33-3.83-16.34-1.49-7.79-2.96-17.99-3.57-33.7-.95-24.44,.76-47.42,2.04-60.77-1.01-.94-4.12-3.58-8.94-4.09-5.84-.61-10.02,2.35-10.98,3.06-2.37,11.89-4.35,25.79-5.11,41.36-.84,17.37,.02,32.87,1.53,45.96-2.66,.94-6.42,1.93-10.98,2.04-2.63,.07-4.96-.17-6.89-.51-3.79-13.32-6.97-23.04-9.7-30.64-1.7-4.74-4.3-11.63-1.53-18.64,.96-2.43,2.3-4.21,3.32-5.36Z" style="fill:#ed6d78;"/><path d="M291.35,179.1c-.96-.88-2.39-2.27-3.92-4.16-8.27-10.19-8.64-21.43-10.03-28.86-1.46-7.79-5.42-18.72-16.9-31.21,.28-1.13,1.41-5.14,5.33-7.94,5.1-3.63,10.76-2.26,11.57-2.04-2.28-4.54-4.87-11-6.13-19.06-2.14-13.73,.69-24.94,2.72-30.98,.99-.58,3.03-1.59,5.79-1.7,3.34-.14,5.81,1.12,6.81,1.7-.43-1.83-.8-4.28-.68-7.15,.2-4.72,1.65-8.38,2.72-10.55,1.25-.66,3.94-1.85,7.49-1.7,4.93,.21,8.21,2.88,9.19,3.74,1,10.35,3.46,24.05,9.53,39.15,9.41,23.4,23.14,39.29,32.34,48.34,5.13,1.58,20.4,7.01,31.46,22.6,14.07,19.83,10.81,41.25,10.07,45.49-1.44,2.91-4.35,4.77-7.49,4.77-4.04,0-6.4-3.1-6.66-3.45,.28-3.18,.34-8.86-2.12-15.26-3.5-9.13-9.99-14.16-12.67-16.01,3.48,10.75,6.51,24.64,6.47,40.85-.13,47.88-27.01,81.75-37.11,93.28,2.62-4.12,38.92-63.42,10.55-119.15-11.24-22.09-28.32-35.11-39.15-41.87-.09,5.44,0,11.24,.34,17.36,.3,5.51,.78,10.74,1.36,15.66-.4,1.13-1.26,3.03-3.06,4.77-3.04,2.92-6.68,3.32-7.83,3.4Z" style="fill:#ed6d78;"/><path d="M304.29,120.21c-2.47,.11-4.92-2.07-5.11-5.11-1.49-3.61-2.03-6.84-.87-7.64,1.42-.97,5.12,1.86,7.13,4.09,1.74,1.94,2.66,3.93,3.16,5.26-.75,1.96-2.46,3.31-4.31,3.39Z" style="fill:#ed6d78;"/><path d="M385.82,213.49c.52,1.32,2.02,4.63,5.62,7.15,3.25,2.28,6.48,2.71,7.91,2.81,6.13-6.04,12.26-12.09,18.38-18.13-.1,1.49-.96,18.49,13.02,29.62,13.63,10.85,29.51,6.7,31.08,6.26,3.76-2.53,22.91-15.93,27.64-41.49,5.97-32.27-16.31-55.37-18.38-57.45-11.49-15.16-23.09-23.57-31.15-28.34-30.96-18.35-57.64-11.58-73.84-32.11-6.63-8.4-8.65-17.76-9.39-23.55-.82-8.25,3.46-16.18,10.72-19.91,6.86-3.53,15.25-2.73,21.45,2.04,5.62,9.02,11.23,18.04,16.85,27.06,1.75,.9,5.48,2.5,10.21,2.04,9.15-.89,14.01-8.68,14.61-9.66-1.42-1.99-3.4-5.29-4.4-9.74-1.41-6.29-.07-11.35,1.02-15.32,2.25-8.14,6.47-14.08,9.75-17.8-.47-1.34-2.51-6.56-8.22-9.78-5.51-3.11-10.82-2.31-12.26-2.04-2.14,1.92-5.15,5.09-7.66,9.7-2.65,4.86-3.66,9.34-4.09,12.26-3.61-3.29-10.42-8.62-20.43-11.74-8.02-2.51-15.01-2.64-19.51-2.36-2.62,.74-21.2,6.36-30.02,25.85-8.88,19.62-.66,37.41,.51,39.83,2.03,4.35,5.52,10.78,11.23,17.36,11.26,12.97,23.62,17.86,52.09,29.62,7.79,3.22,22.7,9.39,42.89,17.87,4.82,3.74,14.84,12.63,19.91,27.57,8.95,26.36-5.06,49.3-7.15,52.6-3.21-3.45-8.83-10.49-11.23-20.94-4.36-18.92,5.27-34.05,7.26-37.03-.36-1.2-1.59-4.77-5.21-7.4-4.41-3.2-9.16-2.69-10.21-2.55-5.12,8.28-11.35,17.28-18.89,26.55-10.33,12.7-20.75,22.98-30.13,31.15Z" style="fill:#ed6d78;"/><path d="M463.61,94c-.07-1.2,.02-2.91,1.02-4.43,1.17-1.77,2.91-2.24,4.43-3.06,2.61-1.42,3.82-3.5,6.13-7.49,4.68-8.07,5.41-20.43,5.45-21.11,.43-8.2,.37-20.67-2.38-36.43,1.34-1.31,3.81-3.39,7.49-4.77,3.21-1.2,6.04-1.39,7.83-1.36,8.51,11.4,17.02,22.81,25.53,34.21,3.32-5.84,8.23-13.17,15.32-20.6,6.54-6.85,13.04-11.82,18.38-15.32,.92-.15,6.71-.97,11.57,3.06,3.45,2.86,4.47,6.54,4.77,7.83-6.3,6.81-13.58,15.83-20.43,27.23-6.76,11.26-11.26,21.79-14.3,30.47-3.74,1.19-7.49,2.38-11.23,3.57l-32.69-34.72c-.09,2.35-.27,5.76-.67,9.87-.54,5.54-.83,8.53-1.7,11.91-.82,3.18-2.47,7.92-6.13,13.28,15.11,3.3,33.18,8.52,52.77,17.02,24.29,10.55,43.57,22.94,57.87,33.7-3.32,.39-8.27,.87-14.3,1.02-12.3,.31-20.12-.96-32-2.04-6.66-.61-16.14-1.3-27.74-1.53,2.81,5.2,5.59,10.47,8.34,15.83,15.39,29.94,28.29,59.36,39.15,87.83,.61-6.71,.79-14.51,0-23.15-1.69-18.38-7.12-33.13-11.91-43.23,1.34-6.01,3.84-8.42,5.79-9.53,6.01-3.42,12.49,2.3,32,7.15,7.14,1.78,10.71,2.66,15.66,2.72,6.95,.08,14.33-1.34,21.16-2.66,2.5-.48,4.58-.93,6.03-1.26,1.25,.3,2.93,.95,3.62,2.39,1.35,2.82-1.98,6.84-3.75,8.94-8.69,10.26-22.15,13.44-25.87,14.21-9.35,1.93-16.98,.99-20.6,.51-4.69-.62-8.57-1.65-11.4-2.55,3.8,9.6,7.74,22.32,9.7,37.62,2.74,21.43,.51,39.47-2.04,51.74-.11,.45-2.16,8.42-9.87,10.89-6.01,1.93-11.07-.88-11.92-1.36-11.07-38.12-27.85-81.6-53.79-126.64-7.5-13.03-15.22-25.22-22.98-36.6,1.9-2.15,5.08-5.12,9.7-6.64,7.48-2.45,13.69,.57,21.79,2.38,5.96,1.33,14.91,2.45,26.72,.66-3.63-1.54-9.06-3.69-15.83-5.77-7.09-2.18-9.89-2.51-17.36-4.43-5.97-1.53-15.65-3.97-25.96-8.26-9.32-3.88-16.56-8.08-21.36-11.14Z" style="fill:#ed6d78;"/></g><path d="M166.93,42.14c-.75-.37-1.54-.71-2.38-1.02-6.82-2.49-13.4-1.27-17.54,0-2.56,7.83-5.11,15.66-7.67,23.49-4.54-5.39-9.07-10.78-13.61-16.17-2.02,.3-4.5,.86-7.21,1.89-3.37,1.28-6.02,2.88-7.94,4.24-.14,.2-.36,.54-.49,1.01-.83,2.98,3.27,5.83,6.11,10.05,1.23,1.83,2.77,4.73,3.57,9.02,.37,1.93,3.44,19.73-8.85,32.17-5.75,5.82-12.4,7.99-16,8.85-.56-.22-1.36-.56-2.28-1.03-2.04-1.04-3.91-2-5.49-3.77-1.82-2.04-1.72-3.44-3.47-4.22-.96-.43-1.9-.42-2.55-.34-.95,.08-2.34,.26-3.99,.65-3.07,.73-9.21,2.19-11.11,6.71-.37,.87-.51,1.69-.56,2.34,.13,.38,.32,.96,.59,1.65,2.69,6.93,7.11,11.24,8.94,12.99,6.62,6.33,9.93,9.5,18.83,16.95,6.72,5.63,11.54,10.41,21.17,19.99,8.07,8.02,13.59,14.07,21.01,22.23,24.13,26.54,37.72,44.55,40.26,48.75,.23,.38,1.17,1.97,2.72,3.91,1.74,2.18,3.45,3.81,4.77,4.94,1.88,0,5.71-.25,9.7-2.55,6.01-3.47,8.14-9.14,8.68-10.72-5.86-10.22-11.69-21.5-17.19-33.87-12.41-27.91-19.88-54.05-24.47-76.4-.49-.8-1.41-2.01-2.92-2.63-1.3-.54-2.03-.23-5.46,.22-4.94,.64-6.64,.42-7.95,1.93-.51,.59-.76,1.22-.9,1.64,1.47,4.62,2.87,9.68,4.09,15.15,1.59,7.16,2.6,13.85,3.23,19.91-5.69-5.15-11.81-10.39-18.38-15.66-9.66-7.74-19.09-14.57-28.09-20.6,2.63-.59,11.82-2.98,18.38-11.74,8.81-11.76,5.57-25.26,5.11-27.06,1.36,3.22,3.31,7.06,6.13,11.06,1.89,2.68,3.81,4.94,5.61,6.81,1.59,.5,3.75,.99,6.31,1.02,4.85,.06,8.58-1.53,10.55-2.55,.09-9.36,1.17-16.92,2.21-22.3,.85-4.4,2.05-8.84,4.43-17.7,2.18-8.11,3.27-12.16,3.74-12.94,.21-.34,1.03-1.61,1.06-3.33,.02-1.29-.4-2.34-.72-2.97Z" style="fill:#ffc454; stroke:#231f20; stroke-miterlimit:10; stroke-width:2px;"/><path d="M209.31,48.52c-1.58-3.13-4.86-4.96-8.17-4.6-4.27,.47-6.26,4.34-6.38,4.6-1.09,2.46-2.59,6.43-3.32,11.49-1.19,8.27,.5,13.79,3.57,29.11,.81,4.02,2,10.19,3.32,17.87-1.48-.05-7.8-.12-13.28,4.6-4.42,3.81-5.74,8.53-6.13,10.21,4.61,6.35,8.7,11.78,12,16.09,5.38,7.02,12.29,15.79,20.53,25.66,1.66,1.98,3.04,3.61,3.98,4.73,1.01,.09,3.61,.18,6.25-1.38,4.1-2.44,4.88-6.89,4.99-7.56-2.03-5.53-4.19-13.08-5.11-22.21-.89-8.87-.33-16.48,.51-22.21,1.56-.68,3.92-1.5,6.89-1.79,3.12-.3,5.7,.11,7.4,.51,7.42,17.13,17.17,45.82,17.11,82.21-.04,23.35-4.1,42.93-8.33,57.3,21.06-19.71,26.82-38.03,28.75-48.36,4.61-24.7-3.33-54.11-9.96-78.64-.7-2.59-2.3-8.33-3.83-16.34-1.49-7.79-2.96-17.99-3.57-33.7-.95-24.44,.76-47.42,2.04-60.77-1.01-.94-4.12-3.58-8.94-4.09-5.84-.61-10.02,2.35-10.98,3.06-2.37,11.89-4.35,25.79-5.11,41.36-.84,17.37,.02,32.87,1.53,45.96-2.66,.94-6.42,1.93-10.98,2.04-2.63,.07-4.96-.17-6.89-.51-3.79-13.32-6.97-23.04-9.7-30.64-1.7-4.74-4.3-11.63-1.53-18.64,.96-2.43,2.3-4.21,3.32-5.36Z" style="fill:#ffc454; stroke:#231f20; stroke-miterlimit:10; stroke-width:2px;"/><path d="M301.23,175.25c-.96-.88-2.39-2.27-3.92-4.16-8.27-10.19-8.64-21.43-10.03-28.86-1.46-7.79-5.42-18.72-16.9-31.21,.28-1.13,1.41-5.14,5.33-7.94,5.1-3.63,10.76-2.26,11.57-2.04-2.28-4.54-4.87-11-6.13-19.06-2.14-13.73,.69-24.94,2.72-30.98,.99-.58,3.03-1.59,5.79-1.7,3.34-.14,5.81,1.12,6.81,1.7-.43-1.83-.8-4.28-.68-7.15,.2-4.72,1.65-8.38,2.72-10.55,1.25-.66,3.94-1.85,7.49-1.7,4.93,.21,8.21,2.88,9.19,3.74,1,10.35,3.46,24.05,9.53,39.15,9.41,23.4,23.14,39.29,32.34,48.34,5.13,1.58,20.4,7.01,31.46,22.6,14.07,19.83,10.81,41.25,10.07,45.49-1.44,2.91-4.35,4.77-7.49,4.77-4.04,0-6.4-3.1-6.66-3.45,.28-3.18,.34-8.86-2.12-15.26-3.5-9.13-9.99-14.16-12.67-16.01,3.48,10.75,6.51,24.64,6.47,40.85-.13,47.88-27.01,81.75-37.11,93.28,2.62-4.12,38.92-63.42,10.55-119.15-11.24-22.09-28.32-35.11-39.15-41.87-.09,5.44,0,11.24,.34,17.36,.3,5.51,.78,10.74,1.36,15.66-.4,1.13-1.26,3.03-3.06,4.77-3.04,2.92-6.68,3.32-7.83,3.4Z" style="fill:#ffc454; stroke:#231f20; stroke-miterlimit:10; stroke-width:2px;"/><path d="M314.16,116.35c-2.47,.11-4.92-2.07-5.11-5.11-1.49-3.61-2.03-6.84-.87-7.64,1.42-.97,5.12,1.86,7.13,4.09,1.74,1.94,2.66,3.93,3.16,5.26-.75,1.96-2.46,3.31-4.31,3.39Z" style="fill:#ed6d78; stroke:#231f20; stroke-miterlimit:10; stroke-width:2px;"/><path d="M395.7,209.63c.52,1.32,2.02,4.63,5.62,7.15,3.25,2.28,6.48,2.71,7.91,2.81,6.13-6.04,12.26-12.09,18.38-18.13-.1,1.49-.96,18.49,13.02,29.62,13.63,10.85,29.51,6.7,31.08,6.26,3.76-2.53,22.91-15.93,27.64-41.49,5.97-32.27-16.31-55.37-18.38-57.45-11.49-15.16-23.09-23.57-31.15-28.34-30.96-18.35-57.64-11.58-73.84-32.11-6.63-8.4-8.65-17.76-9.39-23.55-.82-8.25,3.46-16.18,10.72-19.91,6.86-3.53,15.25-2.73,21.45,2.04,5.62,9.02,11.23,18.04,16.85,27.06,1.75,.9,5.48,2.5,10.21,2.04,9.15-.89,14.01-8.68,14.61-9.66-1.42-1.99-3.4-5.29-4.4-9.74-1.41-6.29-.07-11.35,1.02-15.32,2.25-8.14,6.47-14.08,9.75-17.8-.47-1.34-2.51-6.56-8.22-9.78-5.51-3.11-10.82-2.31-12.26-2.04-2.14,1.92-5.15,5.09-7.66,9.7-2.65,4.86-3.66,9.34-4.09,12.26-3.61-3.29-10.42-8.62-20.43-11.74-8.02-2.51-15.01-2.64-19.51-2.36-2.62,.74-21.2,6.36-30.02,25.85-8.88,19.62-.66,37.41,.51,39.83,2.03,4.35,5.52,10.78,11.23,17.36,11.26,12.97,23.62,17.86,52.09,29.62,7.79,3.22,22.7,9.39,42.89,17.87,4.82,3.74,14.84,12.63,19.91,27.57,8.95,26.36-5.06,49.3-7.15,52.6-3.21-3.45-8.83-10.49-11.23-20.94-4.36-18.92,5.27-34.05,7.26-37.03-.36-1.2-1.59-4.77-5.21-7.4-4.41-3.2-9.16-2.69-10.21-2.55-5.12,8.28-11.35,17.28-18.89,26.55-10.33,12.7-20.75,22.98-30.13,31.15Z" style="fill:#ffc454; stroke:#231f20; stroke-miterlimit:10; stroke-width:2px;"/><path d="M473.48,90.14c-.07-1.2,.02-2.91,1.02-4.43,1.17-1.77,2.91-2.24,4.43-3.06,2.61-1.42,3.82-3.5,6.13-7.49,4.68-8.07,5.41-20.43,5.45-21.11,.43-8.2,.37-20.67-2.38-36.43,1.34-1.31,3.81-3.39,7.49-4.77,3.21-1.2,6.04-1.39,7.83-1.36,8.51,11.4,17.02,22.81,25.53,34.21,3.32-5.84,8.23-13.17,15.32-20.6,6.54-6.85,13.04-11.82,18.38-15.32,.92-.15,6.71-.97,11.57,3.06,3.45,2.86,4.47,6.54,4.77,7.83-6.3,6.81-13.58,15.83-20.43,27.23-6.76,11.26-11.26,21.79-14.3,30.47-3.74,1.19-7.49,2.38-11.23,3.57l-32.69-34.72c-.09,2.35-.27,5.76-.67,9.87-.54,5.54-.83,8.53-1.7,11.91-.82,3.18-2.47,7.92-6.13,13.28,15.11,3.3,33.18,8.52,52.77,17.02,24.29,10.55,43.57,22.94,57.87,33.7-3.32,.39-8.27,.87-14.3,1.02-12.3,.31-20.12-.96-32-2.04-6.66-.61-16.14-1.3-27.74-1.53,2.81,5.2,5.59,10.47,8.34,15.83,15.39,29.94,28.29,59.36,39.15,87.83,.61-6.71,.79-14.51,0-23.15-1.69-18.38-7.12-33.13-11.91-43.23,1.34-6.01,3.84-8.42,5.79-9.53,6.01-3.42,12.49,2.3,32,7.15,7.14,1.78,10.71,2.66,15.66,2.72,6.95,.08,14.33-1.34,21.16-2.66,2.5-.48,4.58-.93,6.03-1.26,1.25,.3,2.93,.95,3.62,2.39,1.35,2.82-1.98,6.84-3.75,8.94-8.69,10.26-22.15,13.44-25.87,14.21-9.35,1.93-16.98,.99-20.6,.51-4.69-.62-8.57-1.65-11.4-2.55,3.8,9.6,7.74,22.32,9.7,37.62,2.74,21.43,.51,39.47-2.04,51.74-.11,.45-2.16,8.42-9.87,10.89-6.01,1.93-11.07-.88-11.92-1.36-11.07-38.12-27.85-81.6-53.79-126.64-7.5-13.03-15.22-25.22-22.98-36.6,1.9-2.15,5.08-5.12,9.7-6.64,7.48-2.45,13.69,.57,21.79,2.38,5.96,1.33,14.91,2.45,26.72,.66-3.63-1.54-9.06-3.69-15.83-5.77-7.09-2.18-9.89-2.51-17.36-4.43-5.97-1.53-15.65-3.97-25.96-8.26-9.32-3.88-16.56-8.08-21.36-11.14Z" style="fill:#ffc454; stroke:#231f20; stroke-miterlimit:10; stroke-width:2px;"/><path d="M82.11,345.4c-2.26-1.85-4.56-3.81-6.89-5.87-2.1-1.86-4.12-3.71-6.04-5.53-1.88-5.06-3.75-11.36-4.94-18.73-.97-6-1.29-11.44-1.28-16.09,3.17,3.23,6.61,7.2,9.96,12,2.1,3.02,3.87,5.95,5.36,8.68,1.3,3.61,2.61,8.23,3.34,13.67,.6,4.49,.66,8.51,.49,11.86Z" style="fill:#005246; stroke:#231f20; stroke-miterlimit:10; stroke-width:2px;"/><path d="M73.26,421.23c-1.65-1.9-4.19-5.3-5.79-10.21-1.78-5.47-1.52-10.19-1.19-12.77-.04-2.04-.28-5.2-1.36-8.85-1.86-6.29-4.68-8.85-6.64-13.28-1.56-3.52-2.94-9.05-1.36-17.36,2.49,2.89,5.1,6.23,7.66,10.04,3.84,5.71,6.7,11.17,8.85,15.98,.79,2.36,1.65,5.96,1.19,10.23-.51,4.8-2.31,6.9-3.23,10.89-.77,3.34-1.01,8.38,1.87,15.32Z" style="fill:#005246; stroke:#231f20; stroke-miterlimit:10; stroke-width:2px;"/><path d="M75.68,438.3c-8.7-3.72-17.39-7.44-26.09-11.16-2.91-2.1-5.34-3.88-7.15-5.22-6.08-4.49-8.68-6.56-11.57-9.36-2.87-2.79-3.88-4.22-4.6-5.45-1.64-2.82-2.27-5.5-2.55-7.32,.76,.3,1.56,.63,2.38,1.02,1.4,.66,2.64,1.36,3.74,2.04-1.61-2.95-4.13-6.75-7.97-10.45-2.21-2.12-4.39-3.77-6.33-5.04-5.43-3.28-8.24-8.18-7.15-11.91,.23-.77,.74-1.91,2.04-3.06,.44,1.98,1.77,6.62,5.96,10.38,1.95,1.75,3.94,2.78,5.45,3.4,3.55,.96,7.85,1.78,12.77,2.04,2.28,.12,4.43,.1,6.4,0,.06-.96,.03-2.63-.79-4.43-1.67-3.67-5.27-4.89-5.96-5.11,4.59,1.54,10.62,4.15,16.85,8.68,3.63,2.64,6.55,5.36,8.85,7.83,2.07,2.28,4.15,4.93,6.09,7.99,8.43,13.27,9.66,26.98,9.61,35.12Z" style="fill:#005246; stroke:#231f20; stroke-miterlimit:10; stroke-width:2px;"/><path d="M594.12,539c.75,2.2,2.35,5.78,5.75,8.68,2.26,1.93,4.59,2.93,6.33,3.48,1.86-.04,4.31-.29,7.17-1.11,3.87-1.12,7.02-2.86,9.16-4.25-1.31-1.35-2.92-2.78-4.86-4.14-2.27-1.59-4.48-2.72-6.43-3.54-1.68-.32-3.6-.54-5.75-.58-4.36-.08-8.28,.63-11.37,1.47Z" style="fill:#005246; stroke:#231f20; stroke-miterlimit:10; stroke-width:2px;"/><path d="M77.85,439.87c-5.76-1.98-10.35-3.63-13.45-4.77-3.82-1.39-5.29-1.97-7.57-2.47-5.05-1.11-9.4-.83-12.26-.43-2.3,.13-5.63,.61-9.28,2.21-6.3,2.77-9.87,7.3-11.4,9.53,1.72-.82,4.58-1.9,8.26-2.04,2.34-.09,4.32,.23,5.79,.6,1.4,.46,2.82,.94,4.26,1.45,1.6,.56,3.16,1.13,4.68,1.7,2.57,1.44,4.29,3.11,5.45,4.51,7.67,9.35,3.09,22.98,2.55,24.51-.49,1.63-.95,3.39-1.36,5.28-.35,1.6-.63,3.14-.85,4.6-.36,1.48-.68,3.23-.85,5.19-.16,1.8-.16,3.43-.09,4.85,.88-2.37,2.15-5.16,4-8.09,1.13-1.79,2.29-3.35,3.4-4.68,.9-.73,1.84-1.55,2.81-2.47,.95-.9,1.79-1.79,2.55-2.64,1.41-1.87,3.16-4.69,4.34-8.43,.66-2.09,.99-4.01,1.15-5.62,2.62-7.6,5.25-15.21,7.87-22.81Z" style="fill:#005246; stroke:#231f20; stroke-miterlimit:10; stroke-width:2px;"/><path d="M47.39,443.7c-1.79-.02-3.99,.1-6.47,.6-3.14,.62-5.7,1.64-7.57,2.55-2.84,1.11-6.05,2.58-9.45,4.51-3.62,2.06-6.68,4.22-9.19,6.21-1.14,.91-2.31,1.9-3.49,2.98-3.17,2.91-5.75,5.86-7.83,8.6,2.63-1.31,5.4-2.83,8.26-4.6,1.55-.96,3.03-1.93,4.43-2.89,.63-.4,2.21-1.28,4.34-1.18,1.18,.05,2.12,.39,2.72,.67-1.96,2.38-3.91,4.77-5.87,7.15-1.82,2.17-3.74,4.8-5.53,7.91-.85,1.47-1.58,2.89-2.21,4.26-.24,.49-.59,1.09-1.11,1.7-.96,1.12-2.04,1.73-2.72,2.04,2.33-.77,4.65-1.53,6.98-2.3-.11,.92-.29,1.95-.6,3.06-.51,1.87-1.22,3.41-1.87,4.6-.43,.65-.85,1.3-1.28,1.96,1.48-.28,3.48-.85,5.62-2.04,3.72-2.09,5.82-4.96,6.81-6.55,.17-.28,1.92-3.02,5.2-3.22,2.26-.14,3.88,1,4.33,1.35-.36,.07-.98,.23-1.62,.68-.8,.56-1.2,1.27-1.36,1.62-.25,.76-.49,1.52-.74,2.28,2.43-.19,4.98-.47,7.64-.84,2.5-.35,4.89-.75,7.15-1.19,2.38-.56,5.77-1.66,9.36-3.91,2.76-1.74,4.81-3.64,6.24-5.19,4.73-10.78,9.45-21.56,14.18-32.34-4.86,1.49-11.35,2.74-18.89,2.21-1.93-.14-3.75-.37-5.45-.68Z" style="fill:#005246; stroke:#231f20; stroke-miterlimit:10; stroke-width:2px;"/><path d="M87.47,504.47c-3.32,2.55-6.64,5.11-9.96,7.66-1.57,.98-3.8,2.14-6.64,2.94-2.05,.57-3.89,.81-5.39,.89-.41,.07-1.64,.33-2.65,1.4-.78,.83-1.05,1.74-1.15,2.17,.93-.29,2.34-.59,4.06-.48,1.02,.07,1.89,.27,2.58,.48-1.48,.83-3.51,2.19-5.49,4.34-2.27,2.47-3.53,4.97-4.21,6.64-.44,1.66-.98,3.41-1.66,5.23-1.77,4.78-3.98,8.73-6.09,11.87,3.58-2.83,7.81-5.82,12.72-8.68,3.25-1.89,6.38-3.5,9.32-4.85,2.17-1.14,4.57-2.76,6.82-5.08,8.7-9.04,7.99-21.53,7.74-24.53Z" style="fill:#005246; stroke:#231f20; stroke-miterlimit:10; stroke-width:2px;"/><path d="M160.21,546.59c-.86,1.5-2.14,4.18-2.44,7.74-.2,2.38,.1,4.37,.43,5.78,.67,1.22,1.64,2.73,3.06,4.26,1.92,2.07,3.91,3.37,5.36,4.17,.23-1.48,.4-3.2,.43-5.11,.02-2.23-.16-4.21-.43-5.87-.42-1.26-.97-2.64-1.7-4.09-1.48-2.94-3.2-5.22-4.71-6.89Z" style="fill:#005246; stroke:#231f20; stroke-miterlimit:10; stroke-width:2px;"/><g><path d="M465.81,319.87c-1.31-1.74-3.4-4.36-6.25-7.31-3.82-3.96-5.1-4.46-6.24-6.95-1.41-3.08-.59-4.79-1.14-10.18-.41-3.97-1.28-7.14-1.94-9.18,2.17,.8,5.48,2.36,8.66,5.38,1.84,1.75,3.14,3.53,4.05,5,1.08,2.57,2.22,5.97,2.86,10.07,.84,5.37,.51,9.95,.01,13.18Z" style="fill:#013833; stroke:#231f20; stroke-miterlimit:10; stroke-width:2px;"/><path d="M474.65,282.37c-.37,.97-1.03,2.48-2.2,4.09-2.45,3.41-4.72,3.96-6.67,6.87-.79,1.17-1.75,3.07-2.08,5.99,.04,2.01,.17,4.18,.46,6.49,.5,4.14,1.36,7.79,2.29,10.88,2.21-1.59,5.33-4.22,8.13-8.23,2.37-3.39,3.7-6.63,4.47-9,.3-1.71,.5-4.09,.08-6.86-.76-5.01-3.13-8.52-4.48-10.23Z" style="fill:#005246; stroke:#231f20; stroke-miterlimit:10; stroke-width:2px;"/></g><path d="M409.42,316.43c-1.19,.93-2.27,1.47-3.02,1.78,0,0-1.29,.54-5.52,1.34h0c.03-1.45,.29-4.97,2.64-8.55,2.24-3.41,5.17-5.04,6.48-5.68,4.1-.99,8.2-1.98,12.3-2.97-1.04,2.45-3.05,6.24-6.8,9.74-2.16,2.02-4.32,3.4-6.08,4.33Z" style="fill:#005246; stroke:#231f20; stroke-miterlimit:10; stroke-width:2px;"/><path d="M187.05,545.06c-.61,.77-2.81,3.72-2.64,8,.14,3.71,1.97,6.22,2.64,7.06,1.91,1.98,4.65,4.38,8.34,6.47,6.34,3.6,12.35,4.52,15.91,4.77-2-2.44-4.03-5.04-6.04-7.83-1.04-1.43-2.03-2.85-2.98-4.26-.93-1.38-2-2.81-3.23-4.26-4.03-4.7-8.4-7.86-12-9.96Z" style="fill:#005246; stroke:#231f20; stroke-miterlimit:10; stroke-width:2px;"/><path d="M560.35,533.92c2.76,4.26,6.07,8.8,10.03,13.44,1.85,2.17,3.7,4.19,5.52,6.06,2.41,1.48,4.96,2.96,7.66,4.41,5.37,2.89,10.54,5.26,15.36,7.2-1.64-2.53-3.75-5.41-6.43-8.39-2.59-2.87-5.16-5.2-7.45-7.06-1.49-1.26-3.07-2.53-4.73-3.78-6.88-5.18-13.71-9.02-19.97-11.88Z" style="fill:#005246; stroke:#231f20; stroke-miterlimit:10; stroke-width:2px;"/><path d="M310.17,544.34c-.74,.64-3.42,3.16-4.02,7.4-.52,3.67,.83,6.48,1.34,7.42,1.53,2.29,3.8,5.14,7.05,7.86,5.6,4.68,11.35,6.65,14.81,7.53-1.53-2.75-3.06-5.68-4.55-8.78-.77-1.6-1.49-3.17-2.17-4.72-.66-1.52-1.46-3.12-2.42-4.76-3.12-5.34-6.86-9.23-10.03-11.94Z" style="fill:#005246; stroke:#231f20; stroke-miterlimit:10; stroke-width:2px;"/><path d="M309.7,543.99c2.76,4.26,6.07,8.8,10.03,13.44,1.85,2.17,3.7,4.19,5.52,6.06,2.41,1.48,4.96,2.96,7.66,4.41,5.37,2.89,10.54,5.26,15.36,7.2-1.64-2.53-3.75-5.41-6.43-8.39-2.59-2.87-5.16-5.2-7.45-7.06-1.49-1.26-3.07-2.53-4.73-3.78-6.88-5.18-13.71-9.02-19.97-11.88Z" style="fill:#005246; stroke:#231f20; stroke-miterlimit:10; stroke-width:2px;"/><path d="M431.17,540.71c7.24,1.18,14.48,2.36,21.72,3.54,2.58,1.04,4.74,1.93,6.36,2.6,5.41,2.25,7.76,3.32,10.46,4.89,2.68,1.56,3.71,2.45,4.48,3.24,1.76,1.82,2.74,3.72,3.29,5.03-.63-.08-1.29-.19-1.98-.32-1.17-.24-2.24-.53-3.2-.84,1.77,1.92,4.37,4.31,7.95,6.38,2.06,1.19,4.01,2.02,5.7,2.61,4.7,1.46,7.73,4.62,7.61,7.64-.03,.62-.2,1.57-.97,2.69-.7-1.41-2.57-4.66-6.42-6.71-1.79-.95-3.48-1.36-4.74-1.55-2.85-.06-6.24,.12-9.99,.84-1.74,.34-3.35,.75-4.82,1.19,.13,.73,.46,1.98,1.42,3.19,1.94,2.45,4.88,2.7,5.44,2.73-3.74-.31-8.77-1.14-14.31-3.39-3.22-1.31-5.93-2.82-8.12-4.24-1.98-1.33-4.04-2.94-6.08-4.88-8.82-8.42-12.31-18.51-13.79-24.65Z" style="fill:#005246; stroke:#231f20; stroke-miterlimit:10; stroke-width:2px;"/><path d="M535.41,377.37c1.92-5.32,5.03-11.79,10.17-18.18,1.43-1.78,2.89-3.39,4.32-4.83,2.36-2.12,6.92-5.57,13.52-7.06,2.91-.66,5.52-.78,7.62-.69-.49,.47-1.65,1.7-2.07,3.66-.28,1.29-.12,2.37,.02,3.01,1.98,.09,4.15,.09,6.48-.06,4.28-.27,8.05-.98,11.19-1.81-2.05,3.78-5.65,9.23-11.68,14.14-3.21,2.62-6.35,4.46-9.02,5.76-3.29,1.4-7.17,2.77-11.59,3.86-7.3,1.8-13.82,2.25-18.96,2.2Z" style="fill:#005246; stroke:#231f20; stroke-miterlimit:10; stroke-width:2px;"/><path d="M475.61,541.95c.26,1.71,.94,4.6,2.93,7.57,1.33,1.98,2.81,3.36,3.94,4.25,1.28,.54,2.99,1.11,5.05,1.42,2.79,.42,5.16,.2,6.79-.09-.74-1.3-1.68-2.75-2.85-4.26-1.37-1.76-2.75-3.18-4-4.32-1.12-.72-2.41-1.45-3.88-2.13-2.99-1.37-5.76-2.08-7.98-2.45Z" style="fill:#005246; stroke:#231f20; stroke-miterlimit:10; stroke-width:2px;"/><path d="M433.6,344.64c-.44-2.72-.98-8.3,1.19-14.81,2.19-6.54,6.01-10.69,8-12.6,1.54-1.34,5.4-4.32,11.24-5.25,6.34-1.01,11.28,1,13.1,1.85,1.15-1.9,3.31-4.88,6.98-7.32,6.42-4.27,13.09-3.95,15.32-3.74,1.43,.22,6.55,1.19,10.55,5.79,4.63,5.32,4.34,11.54,4.26,12.77,1.58-.77,4.25-1.79,7.66-1.87,6-.14,10.29,2.75,11.74,3.83,.65,.51,2.68,2.27,3.4,5.36,.83,3.55-.66,6.34-1.02,6.98,1.32-.4,3.56-.89,6.3-.51,4.46,.63,7.33,3.18,8.34,4.18,.32,.42,3.64,4.93,1.87,9.95-.82,2.31-2.37,3.74-3.23,4.43,2.06,.04,6.25,.39,10.72,2.89,4.1,2.29,6.51,5.3,7.66,6.98,.84,.97,4.9,5.83,4.43,12.94-.38,5.64-3.38,9.36-4.43,10.55,.73,.32,1.94,.97,3.06,2.21,1.3,1.44,1.83,2.95,2.04,3.74-.03,1.12-.13,2.38-.34,3.74-.24,1.6-.59,3.03-.96,4.25,1.5,.61,3.76,1.77,5.9,3.92,3.59,3.61,4.61,7.78,4.94,9.53,0,1.65-.22,4.07-1.19,6.81-.75,2.11-1.73,3.76-2.55,4.94,1.44,.2,4.06,.76,6.81,2.55,2.78,1.82,4.35,4.03,5.11,5.28,1.11-1.89,3.21-4.9,6.81-7.49,4.86-3.5,9.76-4.29,12.09-4.51,.9,.04,6.72,.39,10.72,5.36,4.63,5.76,2.74,12.65,2.55,13.28,1.39-1.07,4.69-3.32,9.53-3.91,4.96-.61,8.79,.86,10.38,1.57,1.44,.94,6.13,4.26,8.17,10.68,2.51,7.88-.88,14.46-1.53,15.66,.62-.16,2.69-.59,4.77,.51,.88,.47,1.49,1.07,1.87,1.53,.49,.43,2.6,2.38,2.89,5.62,.37,4.14-2.56,6.85-2.89,7.15,1.2,.49,3.47,1.59,5.45,3.91,2.48,2.91,3.06,6.02,3.23,7.32,.32,1.81,2.08,12.63-5.28,22.47-6.85,9.16-16.72,10.92-18.72,11.23-.04,1.4-.31,4.08-1.87,6.98-1.44,2.66-3.32,4.29-4.43,5.11-1.8,.73-4.56,1.6-8,1.7-5.24,.16-9.25-1.54-11.23-2.55-.43,.99-1.15,2.36-2.38,3.74-1.54,1.73-3.19,2.71-4.26,3.23-1.22,.38-2.77,.73-4.6,.85-3.02,.19-5.51-.35-7.15-.85-1.28,.76-2.93,1.58-4.94,2.21-3.59,1.13-6.75,1.17-8.85,1.02-1.18,.05-3.04-.04-5.11-.85-3.66-1.44-5.57-4.21-6.24-5.28-1.5,1.83-4.31,4.78-8.74,6.98-5.54,2.75-10.64,2.84-13.11,2.72-4.99,.24-12.43,0-20.94-2.55-10.76-3.24-18.28-8.69-22.47-12.26-20.88-63.32-41.76-126.64-62.64-189.96Z" style="fill:#805f94; stroke:#231f20; stroke-miterlimit:10; stroke-width:2px;"/><path d="M317.68,336.98c.98-4.09,2.75-9.53,6.13-15.32,2.24-3.84,4.65-6.93,6.81-9.33,1.29-1.5,6-6.61,14.02-7.98,6.91-1.18,12.31,1.08,14.23,1.99,1.46-2.06,5-6.44,11.23-9.19,5.17-2.28,9.82-2.4,12.3-2.28,.59,.12,4.21,.92,6.09,4.32,.99,1.8,1.06,3.54,1.02,4.43,2.72,.26,6.77,.98,11.23,3.06,3.82,1.78,6.64,3.95,8.51,5.65,2.1,2.15,5.57,6.24,7.83,12.39,2.28,6.21,2.27,11.63,2.04,14.64,.99-.76,3.83-2.72,7.83-2.72,6.31,0,10.1,4.85,10.55,5.45,1.46,1.32,5.93,5.69,7.15,12.94,.95,5.66-.57,10.18-1.36,12.12,.71-.05,2.71-.1,4.77,1.16,1.88,1.15,2.75,2.75,3.06,3.4,.41,.6,1.27,2.05,1.36,4.09,.11,2.44-.97,4.19-1.36,4.77,2.46,.58,6.23,1.79,10.21,4.43,4.06,2.69,6.67,5.76,8.17,7.83,1.85,1.76,5.59,5.82,7.49,12.26,1.67,5.65,1.13,10.46,.68,12.94,.58-.2,6.03-1.96,10.55,1.36,2.35,1.72,3.35,4.01,3.74,5.11,.14,.15,1.57,1.86,1.02,4.09-.41,1.63-1.72,2.92-3.4,3.32,1.93,.41,5.2,1.37,8.51,3.83,4.36,3.25,6.35,7.28,7.15,9.19,.28,.47,3.2,5.63,.68,10.89-1.5,3.13-4.13,4.61-5.11,5.11,2.85,1.3,6.67,3.41,10.56,6.81,3.45,3.01,5.86,6.09,7.49,8.51,.49,.94,5.3,10.59,.34,19.4-2.05,3.64-4.98,5.74-6.81,6.81,1.29,2.14,4.1,7.48,3.74,14.64-.23,4.58-1.67,8.12-2.72,10.21-.49,1.26-3.31,8.09-10.89,11.23-9.27,3.84-17.58-1.19-18.38-1.7,.03,.97,.03,4.36-2.38,7.49-2.89,3.75-7.06,4.33-7.85,4.43-2.45,1.11-7.64,3.05-14.28,2.38-9.62-.97-15.65-6.75-17.36-8.51-.8,1.31-2.87,4.33-6.81,6.13-2.3,1.05-4.41,1.31-5.79,1.36-1.53,0-3.69-.19-6.13-1.02-3.75-1.29-6.22-3.46-7.49-4.77,.15,1.45,.29,4.93-1.7,8.51-3.28,5.91-9.63,7.15-10.55,7.31-2.02,.77-8.58,2.96-16.34,.52-9.47-2.99-13.73-10.67-14.56-12.26-.53,1.19-2.52,5.26-7.22,7.49-3.15,1.5-6.06,1.47-7.49,1.36-1.78,.15-5.77,.23-9.87-2.04-7.2-3.98-8.66-11.82-8.85-12.94-7.26-68.43-14.52-136.85-21.79-205.28Z" style="fill:#805f94; stroke:#231f20; stroke-miterlimit:10; stroke-width:2px;"/><path d="M183.22,344.64c.08-2.59,.48-6.07,1.79-9.96,2.01-6,5.24-10.17,7.4-12.53,1.69-1.15,4.75-2.9,8.94-3.55,6.32-.99,11.29,1.11,13.19,2.04,2.09-2.94,5.92-7.52,12.09-11.23,8.52-5.13,16.73-5.75,20.6-5.79,1.32,.2,6.52,1.13,10.3,5.79,5.1,6.28,3.2,13.91,2.98,14.72,2.92-2.13,7.72-5.11,14.29-6.98,6.32-1.8,11.78-1.86,15.33-1.62,.95,.36,4.26,1.75,6.21,5.36,2.71,5.01,.53,10.04,.26,10.64,1.45-.98,6.94-4.46,14.3-3.49,4.9,.64,8.3,2.95,9.87,4.17,.64,.93,2.4,3.75,2.13,7.57-.42,5.92-5.32,9.1-5.87,9.45,1.51,1.25,3.89,3.56,5.62,7.15,1.14,2.36,1.64,4.53,1.87,6.13,.65,1.63,2.11,5.92,.94,11.23-.95,4.3-3.17,7.18-4.34,8.51,.67,1.07,1.72,3.07,2.04,5.79,.26,2.18-.05,3.97-.34,5.11-.17,1.28-.46,2.75-.94,4.34-.62,2.07-1.39,3.81-2.13,5.19,1.48,.62,4.27,2.04,6.47,5.02,1.02,1.39,1.65,2.74,2.04,3.83,.88,1.25,2.06,3.22,2.81,5.87,.88,3.11,.78,5.78,.6,7.4,.13-.62,1.01-4.48,4.77-6.64,4.48-2.58,9.06-.44,9.45-.26,.77,.3,3.22,1.37,4.85,4.09,1.53,2.55,1.43,5.02,1.36,5.87,.23,1.46,.52,4.6-.85,8.17-1.66,4.34-4.76,6.67-5.96,7.49,1.95,.18,6.47,.88,10.81,4.26,5.79,4.52,7.24,10.71,7.57,12.43,.44,1.57,2.89,10.93-2.72,20.26-5.41,8.99-14.33,11.34-16,11.74,1.27,.6,4.36,2.26,6.55,5.87,1.75,2.89,2.09,5.66,2.17,7.06-.26,1.04-1.33,4.77-4.98,7.23-2.14,1.45-4.27,1.83-5.45,1.96,1.49,2.92,3.92,8.64,3.91,16.17,0,5.75-1.43,10.31-2.55,13.11-.41,.65-6.32,9.53-17.36,9.62-11.26,.09-17.33-9.04-17.7-9.62-.21,1.75-.92,5.57-3.74,9.36-2.93,3.93-6.54,5.7-8.17,6.38-1.48,.44-6.3,1.67-11.74-.51-6.55-2.62-9.18-8.26-9.7-9.45-1.74,2.1-5.04,5.49-10.21,7.91-7.18,3.37-13.77,2.92-16.6,2.55-4.13-.98-9.17-2.58-14.59-5.26-8.1-4-13.97-8.89-17.83-12.7-11.23-65.76-22.47-131.52-33.7-197.28Z" style="fill:#805f94; stroke:#231f20; stroke-miterlimit:10; stroke-width:2px;"/><path d="M80.41,355.7c-.91-2.39-2.02-6.26-1.79-11.06,.41-8.55,4.81-14.41,6.55-16.51,.91-1,5.35-5.62,12.51-5.96,9.24-.44,14.88,6.64,15.4,7.32,1.72-1.42,4.56-3.4,8.51-4.68,5.64-1.82,10.51-1.23,12.94-.77,1.87,.83,4.44,2.25,6.94,4.64,4.32,4.13,6.01,8.82,6.68,11.19,2.69-1.49,8-3.96,15.15-4.3,7.59-.36,13.4,1.88,16.21,3.19,1.68,.64,9.73,3.88,14.04,12.89,4.31,9.02,1.79,17.31,1.23,19.02,1.75-.38,5-.84,8.85,.13,5.11,1.28,8.28,4.32,9.53,5.66,.6,.75,3.71,4.79,2.91,10.25-.47,3.21-2.07,5.42-2.91,6.43,2.83,1.64,6.26,3.98,9.74,7.28,4.45,4.21,7.41,8.5,9.32,11.79,1.43,3.42,3.47,9.58,3.19,17.45-.22,6.36-1.87,11.39-3.19,14.55,1.48,1.22,3.09,2.7,4.72,4.47,1.86,2.02,3.35,3.99,4.53,5.74,1.75,4,1.49,8.26-.83,10.98-1.02,1.2-2.27,1.89-3.32,2.3,1.34,1.23,3.09,3.1,4.63,5.7,1.74,2.94,2.55,5.67,2.96,7.57,.07,.54,.51,4.18-2.1,7.03-1.65,1.8-3.66,2.34-4.47,2.51,1.58,2.6,6.02,10.71,4.21,20.85-.72,4.02-2.21,7.21-3.53,9.45-1.16,2.02-3.68,5.81-8.34,8.81-4,2.58-7.82,3.45-10.04,3.79,.55,.99,2.15,4.18,1.49,8.34-.53,3.37-2.27,5.6-3.06,6.51-2.19,1.49-6.69,4.11-12.89,4.6-10.22,.8-17.49-4.76-19.23-6.17-1.28,1.59-3.15,3.55-5.79,5.28-1.2,.79-2.35,1.4-3.4,1.87-1.57,.42-6.43,1.5-11.66-.85-3.03-1.36-4.99-3.34-6.04-4.6-.28,.67-1.45,3.25-4.43,4.72-2.79,1.38-5.39,.89-6.13,.72-1.33,.1-4.12,.11-7.15-1.36-4.06-1.97-5.91-5.33-6.47-6.47-.55,1.07-1.74,3.01-4,4.55-3.57,2.43-7.32,2.16-8.43,2.04-2.64-.06-16.68-.65-27.32-12.13-12.98-14.01-9.65-32.11-9.28-33.96-1.23-1.1-3.07-3.01-4.51-5.87-1.27-2.52-1.76-4.83-1.96-6.38-.18-1.41-.25-3.33,.13-5.54,.64-3.65,2.23-6.28,3.27-7.74-2.08-1.38-4.78-3.5-7.32-6.64-3.94-4.87-5.58-9.82-6.3-12.77-.33-2.96-.5-7.94,1.32-13.66,1.24-3.92,3.02-6.93,4.47-8.98-1.35-2.82-2.74-6.32-3.83-10.43-1.38-5.22-1.85-9.88-1.96-13.57,.42-2.72,1.57-7.78,5.28-12.85,2.64-3.61,5.6-5.9,7.66-7.23-1.65-1.76-3.55-4.14-5.23-7.19-2.94-5.31-3.93-10.31-4.3-13.57,.06-2.1,.36-4.77,1.23-7.74,1.45-4.92,3.84-8.48,5.57-10.64Z" style="fill:#805f94; stroke:#231f20; stroke-miterlimit:10; stroke-width:2px;"/><path d="M443.13,459.96c0-1.67,.05-3.39,.12-5.16,.07-1.6,.16-3.15,.28-4.66,1.57-2.65,3.68-5.74,6.52-8.91,2.31-2.58,4.6-4.68,6.66-6.34-.29,2.56-.81,5.51-1.74,8.72-.58,2.02-1.24,3.85-1.92,5.49-1.13,1.87-2.7,4.11-4.85,6.39-1.77,1.88-3.53,3.35-5.07,4.48Z" style="fill:#005246; stroke:#231f20; stroke-miterlimit:10; stroke-width:2px;"/><path d="M265.59,417.4c.29-.69,1.29-2.78,3.67-4.09,3.2-1.75,6.38-.69,6.89-.51,.71,.05,3.12,.33,5.11,2.3,2.76,2.74,2.35,6.43,2.29,6.89,.47-2.11,1.3-4.7,2.81-7.4,4.05-7.24,10.39-10.67,13.28-12,2.69-.89,6.99-1.93,12.26-1.53,3.15,.24,5.81,.92,7.83,1.62" style="fill:none; stroke:#231f20; stroke-miterlimit:10; stroke-width:2px;"/><path d="M250.62,379.87c-.05-.51-.33-3.7,2.04-6.38,2.39-2.7,5.62-2.8,6.13-2.81,.71-.17,3.49-.76,6.38,.77,3.61,1.91,4.48,5.59,4.6,6.13,.64-1.42,2.49-5.03,6.64-7.66,4.21-2.67,8.33-2.77,9.88-2.72,.55-.06,4.28-.42,7.32,2.38,3.22,2.96,3,6.99,2.97,7.5,.97-.89,2.49-2.09,4.6-3.06,1.63-.75,4.55-2.1,8.17-1.53,3.12,.49,5.17,2.14,6.64,3.32,2.8,2.26,4.33,4.85,5.11,6.47" style="fill:none; stroke:#231f20; stroke-miterlimit:10; stroke-width:2px;"/><path d="M404.83,424.47c1.87,.41,4.6,1.25,7.49,3.06,3.81,2.4,6.08,5.36,7.24,7.15,1.01,2.75,2,5.59,2.97,8.51,.84,2.54,1.64,5.04,2.38,7.49,.67-.7,3.03-3,6.81-3.4,5.2-.56,8.74,2.94,9.19,3.4,.59,.52,2.09,1.98,2.72,4.43,.67,2.61-.06,4.73-.34,5.45,1.71,.32,4.76,1.14,7.83,3.4,2.4,1.77,3.9,3.76,4.77,5.11,1.33,1.82,5.82,8.46,5.11,17.7-.53,6.82-3.62,11.59-5.11,13.62,1.73,2.08,4.08,5.5,5.45,10.21,.62,2.15,.91,4.12,1.02,5.79-.12,.87-.92,6.19-5.79,9.53-5.87,4.03-12.39,1.58-12.94,1.36,.58,1.51,1.52,4.61,1.02,8.51-.41,3.15-1.59,5.49-2.38,6.81" style="fill:none; stroke:#231f20; stroke-miterlimit:10; stroke-width:2px;"/><path d="M380.66,376.47c.59-.84,2.1-2.71,4.77-3.74,1.66-.64,3.15-.71,4.09-.68,.42,.07,4.51,.84,6.47,4.77,2.11,4.23-.18,8.24-.34,8.51,1.65-.27,4.48-.51,7.83,.34,3.88,.99,6.51,2.95,7.83,4.09,.87,1.1,3.11,4.22,3.4,8.85,.28,4.38-1.34,7.62-2.04,8.85" style="fill:none; stroke:#231f20; stroke-miterlimit:10; stroke-width:2px;"/><path d="M535.56,435.02c2.21-2.19,7.13-6.49,14.81-8.68,8.27-2.36,15.2-.97,18.21-.17" style="fill:none; stroke:#231f20; stroke-miterlimit:10; stroke-width:2px;"/><circle cx="161.26" cy="419.96" r="7.15" style="fill:#548a2e; stroke:#231f20; stroke-miterlimit:10; stroke-width:2px;"/><circle cx="158.2" cy="444.72" r="3.06" style="fill:#90901e; stroke:#231f20; stroke-miterlimit:10; stroke-width:2px;"/><circle cx="231.73" cy="460.3" r="2.3" style="fill:#90901e; stroke:#231f20; stroke-miterlimit:10; stroke-width:2px;"/><circle cx="96.09" cy="492.91" r="3" style="fill:#90901e; stroke:#231f20; stroke-miterlimit:10; stroke-width:2px;"/><circle cx="126.79" cy="527.96" r="6.13" style="fill:#90901e; stroke:#231f20; stroke-miterlimit:10; stroke-width:2px;"/><circle cx="112.05" cy="524.96" r="11.81" style="fill:#548a2e; stroke:#231f20; stroke-miterlimit:10; stroke-width:2px;"/><ellipse cx="239.14" cy="323.65" rx="11.23" ry="9.43" transform="translate(-111.67 126.5) rotate(-24.2)" style="fill:#548a2e; stroke:#231f20; stroke-miterlimit:10; stroke-width:2px;"/><circle cx="245.82" cy="333.04" r="4.77" style="fill:none; stroke:#231f20; stroke-miterlimit:10; stroke-width:2px;"/><circle cx="310.39" cy="424.47" r="11" style="fill:#548a2e; stroke:#231f20; stroke-miterlimit:10; stroke-width:2px;"/><circle cx="342.49" cy="431.32" r="3.02" style="fill:#90901e; stroke:#231f20; stroke-miterlimit:10; stroke-width:2px;"/><circle cx="329.07" cy="532.95" r="11.38" style="fill:#548a2e; stroke:#231f20; stroke-miterlimit:10; stroke-width:2px;"/><circle cx="403.6" cy="397.19" r="3.7" style="fill:#90901e; stroke:#231f20; stroke-miterlimit:10; stroke-width:2px;"/><circle cx="429.91" cy="464.01" r="3.29" style="fill:#90901e; stroke:#231f20; stroke-miterlimit:10; stroke-width:2px;"/><g><path d="M229.06,188.2c2.44-4.28,5.12-9.93,7.14-16.86,2.7-9.26,3.22-17.42,3.12-23.31,.34,13.88,.71,29.4,1.04,43.28,.57,24.35,1.13,48.7,1.66,73.04,.04-.73,.45-6.93,5.82-10.62,4.11-2.82,9.55-3.09,14.1-.72,1.03,.9,2.25,2.28,2.13,3.85-.16,2.3-3.08,3.62-5.83,5.41,0,0-1.21,.79-9.36,8.95-7,7.01-3.35,37.68-1.04,53.27-1.66-6.9-5.51-18.32-15.19-28.51-3.02-3.18-6.09-5.7-8.95-7.7-.53-.32-1.12-.75-1.04-1.04,.22-.81,5.23,.03,9.09,.44,.56,.06,10.39,1.06,17.96-.23,3.87-.66,9.94-2.4,16.86-7.7" style="fill:none; stroke:#231f20; stroke-miterlimit:10; stroke-width:4px;"/><path d="M226.58,215.84c-.16,2.29-.81,7-3.91,11.91-3.02,4.78-6.87,7.36-8.85,8.51,9.96-4.6,17.68-8.74,22.98-11.74,4.47-2.53,9.4-5.48,18.55-10.55,3.79-2.1,6.93-3.81,9.02-4.94-.82-.23-2-.69-3.14-1.65-2.76-2.35-2.96-5.79-2.99-6.52" style="fill:none; stroke:#231f20; stroke-miterlimit:10; stroke-width:4px;"/><path d="M280.28,213.63c3.27-7.55,6.46-16.43,8.94-26.55,5.01-20.45,5.3-38.51,4.34-51.92,.23,28.79,.88,58.37,2.04,88.69,1.18,30.77,2.81,60.74,4.82,89.87-.49-13.85-3.06-33.02-12.23-53.62-3.18-7.14-6.7-13.43-10.21-18.89-1.08-1.22-3.2-.78-4.34,.26-1.4,1.27-1.31,3.16-1.02,3.32,.73,.39,1.5,.67,4.6,.51,3.55-.19,5.32-.28,5.84-.35,3.75-.52,7.53-.85,11.27-1.44,4.51-.71,9.03-1.31,13.53-2.04,6.52-1.06,21.62-2.45,57.11-4.09" style="fill:none; stroke:#231f20; stroke-miterlimit:10; stroke-width:4px;"/><path d="M313.39,182.14c1.44,64.23,2.54,91.68,3.4,100.09,.3,2.89,.52,5.79,.85,8.68,1.08,9.51,1.33,13.67,1.7,20.43,.13,2.32,.43,4.76-.51,5.17-.55,.21-2.43-.1-3.75-1.09-2.31-1.72-3.1-5.4-1.7-9.02,3.99-10.58,7.06-15.68,9.19-15.32,3.1,.53,4.24,12.61,3.4,36.26" style="fill:none; stroke:#231f20; stroke-miterlimit:10; stroke-width:4px;"/><path d="M370.92,179.76c-.98,4.56-1.81,9.73-2.3,15.44-.38,4.48-.49,8.66-.43,12.48-3.25-4.69-7.33-9.82-12.43-14.98-2.42-2.45-4.82-4.66-7.15-6.64,.49,3.4,1.32,7.33,2.72,11.57,2.39,7.22,5.62,12.91,8.43,17.02-3.08-.13-7.46-.68-12.34-2.55-3.48-1.34-6.27-2.98-8.34-4.43,.48,4.11,.94,8.25,1.36,12.43,2.81,27.72,3.99,54.44,3.91,80,.13,.31-2.29,1.56-3.96,.84-1.89-.81-3.65-4.63-1.31-7.65,2.44-2.5,4.88-4.99,7.32-7.49,2.74-2.18,9.53-1.53,18.72-.85,6.42,.48,9.84-.42,14.47,.34,4.44,.73,8.13,1.96,10.38,2.89-.18-4.51-1.05-11.51-4.78-17.52-1.89-3.04-3.46-4.14-5.09-4.53-2.67-.63-5.05,.75-5.91,1.32-3.45,2.94-4.22,7.04-4.98,9.32-1.45,4.37-1.57,8.07-1.7,11.44-.1,2.62,.01,5.26,.34,8.14,.81,7.1,1.92,17.55,3.07,31.46-1.49-9.68-4.88-15.95-8.18-15.97-2.25,0-4.25,3.1-5.45,5.45" style="fill:none; stroke:#231f20; stroke-miterlimit:10; stroke-width:4px;"/></g><circle cx="442.01" cy="484.51" r="8.81" style="fill:#548a2e; stroke:#231f20; stroke-miterlimit:10; stroke-width:2px;"/><ellipse cx="455.3" cy="408.17" rx="10.3" ry="10.98" style="fill:#548a2e; stroke:#231f20; stroke-miterlimit:10; stroke-width:2px;"/><circle cx="472.07" cy="504.47" r="2.89" style="fill:#90901e; stroke:#231f20; stroke-miterlimit:10; stroke-width:2px;"/><circle cx="539.3" cy="374.42" r="4.77" style="fill:#90901e; stroke:#231f20; stroke-miterlimit:10; stroke-width:2px;"/><circle cx="593.94" cy="448.81" r="4.26" style="fill:#90901e; stroke:#231f20; stroke-miterlimit:10; stroke-width:2px;"/><circle cx="634.21" cy="501.57" r="9.8" style="fill:#548a2e; stroke:#231f20; stroke-miterlimit:10; stroke-width:2px;"/><circle cx="632.49" cy="480.55" r="2.98" style="fill:#90901e; stroke:#231f20; stroke-miterlimit:10; stroke-width:2px;"/><path d="M111.22,325.91c-3.33-5.1-4.54-9.47-5.05-12.44-1.01-5.91,.2-9.65-1.08-18.2-.44-2.93-1-5.28-1.37-6.73,1.71,2.14,3.41,4.28,5.12,6.41,.6-3.18,1.26-8.03,1.02-13.98-.14-3.43-.48-4.99-.68-8.17-.24-3.79-.23-9.29,1.02-16.17,1.53,4.16,3.01,8.89,4.26,14.13,1.56,6.55,2.43,12.59,2.89,17.87,.75-1.17,1.65-2.89,2.21-5.11,.34-1.35,.47-2.56,.51-3.57,.65,1.54,1.31,3.49,1.7,5.79,.77,4.48,.21,8.25-.36,10.66-.43,2.04-.8,4.34-1,6.87-.32,3.95-.16,7.46,.17,10.38,2.71-2.37,5.57-5.41,8.11-9.29,3.36-5.14,3.8-8.18,7.17-13.42,1.9-2.96,4.48-6.22,8.04-9.46,.48,2.43,.88,6.18,0,10.55-.64,3.2-1.77,5.73-2.72,7.49-1.57,3.36-3.52,6.98-5.96,10.72-5.83,8.94-12.4,15.42-17.87,19.91-2.04,1.36-4.09,2.72-6.13,4.09v-8.34Z" style="fill:#005246; stroke:#231f20; stroke-miterlimit:10; stroke-width:2px;"/><path d="M141.34,396.47c.79-.44,2.62-1.34,5.11-1.28,2.19,.06,3.82,.84,4.6,1.28,.54,.62,1.86,2.3,2.17,4.85,.26,2.14-.32,3.82-.64,4.6,1.62-.79,3.86-1.66,6.64-2.04,5.91-.82,10.63,1.03,12.77,2.04,.62,.37,6.3,3.9,7.02,10.98,.68,6.71-3.64,11.17-4.21,11.74" style="fill:none; stroke:#231f20; stroke-miterlimit:10; stroke-width:2px;"/><path d="M155.13,402.08c.34-2.16,.76-5.48,.89-9.57,.18-5.5-.35-6.77,.64-9.32,1.23-3.16,3.03-3.76,6.51-7.91,2.56-3.06,4.23-5.89,5.23-7.79,.93,2.12,2.13,5.58,2.17,9.96,.03,2.54-.34,4.71-.77,6.38-1.09,2.56-2.74,5.75-5.23,9.06-3.27,4.34-6.79,7.3-9.45,9.19Z" style="fill:#013833; stroke:#231f20; stroke-miterlimit:10; stroke-width:2px;"/><path d="M188.19,382.3c-.95,.41-2.5,.98-4.47,1.28-4.15,.61-6.13-.63-9.57,0-1.39,.25-3.42,.89-5.74,2.68-1.41,1.43-2.88,3.04-4.34,4.85-2.62,3.24-4.64,6.4-6.2,9.22,2.68,.48,6.74,.88,11.57,.1,4.08-.67,7.33-1.96,9.57-3.06,1.43-.98,3.28-2.49,4.98-4.72,3.06-4.03,3.93-8.18,4.21-10.34Z" style="fill:#005246; stroke:#231f20; stroke-miterlimit:10; stroke-width:2px;"/><path d="M89.51,507.53c-2.8,4.27-5.64,9.16-8.3,14.68-1.24,2.58-2.34,5.1-3.32,7.53-.37,2.8-.67,5.74-.89,8.81-.44,6.09-.47,11.78-.26,16.98,1.67-2.54,3.47-5.64,5.11-9.32,1.58-3.55,2.68-6.84,3.45-9.7,.55-1.88,1.06-3.84,1.53-5.87,1.93-8.41,2.64-16.22,2.68-23.11Z" style="fill:#005246; stroke:#231f20; stroke-miterlimit:10; stroke-width:2px;"/><path d="M232.24,446.59c1.41,.12,6.47,.36,11.23-3.06,3.65-2.62,5.22-6.02,5.8-7.49,1.72-7.95,.74-13.08-.52-16.34-.58-1.49-1.76-4-1.7-7.49,.05-2.93,.95-5.32,1.7-6.87-1.27,.52-4.54,2.05-6.98,5.68-2.55,3.79-2.65,7.58-2.63,8.94,.45,2.24,.75,4.98,.55,8.07-.58,9.12-5.1,15.64-7.46,18.56Z" style="fill:#005246; stroke:#231f20; stroke-miterlimit:10; stroke-width:2px;"/><path d="M240.17,489.91c4.78,.23,10.78,1.13,17.22,3.7,1.8,.72,3.46,1.5,4.98,2.3,2.3,1.39,6.22,4.22,9.06,9.19,1.25,2.19,2,4.28,2.45,6-.5-.28-1.78-.92-3.48-.77-1.11,.1-1.95,.49-2.43,.77,.42,1.63,.96,3.39,1.66,5.23,1.29,3.4,2.8,6.27,4.24,8.62-3.56-.72-8.86-2.28-14.33-5.94-2.91-1.95-5.18-4.04-6.89-5.87-1.95-2.32-4.02-5.12-6-8.43-3.27-5.47-5.25-10.64-6.49-14.81Z" style="fill:#005246; stroke:#231f20; stroke-miterlimit:10; stroke-width:2px;"/><path d="M242.92,504.47c1.53,1.25,4.51,4.06,6.29,8.68,1.34,3.48,1.45,6.57,1.37,8.43-.29,2.2-.53,4.5-.73,6.89-.19,2.3-.31,4.51-.38,6.64,1.34,4.09,1.25,5.17,.89,5.36-.76,.39-3.37-2.83-4.98-5.74-1.45-2.63-2.13-5.07-2.47-6.77-.51-4.94-1.02-9.87-1.53-14.81l1.53-8.68Z" style="fill:#005246; stroke:#231f20; stroke-miterlimit:10; stroke-width:2px;"/><path d="M268.59,374.7c-.69-.56-3.51-2.94-4.19-7.16-.76-4.72,1.73-8.17,2.18-8.78,1.3-2.03,3.28-4.63,6.17-7.15,3.94-3.43,7.9-5.25,10.55-6.21-5,6.15-6.46,11.33-6.81,15.06-.22,2.4-.07,5.1-1.7,8.17-1.63,3.07-4.2,4.94-6.2,6.06Z" style="fill:#005246; stroke:#231f20; stroke-miterlimit:10; stroke-width:2px;"/><path d="M285.84,384.78c-1.26,.19-4.24,.83-6.96,3.26-3.63,3.23-4.28,7.39-4.43,8.51-.2,2.18-.26,6.09,1.36,10.55,1.94,5.35,5.25,8.65,6.96,10.13,1.27-2.57,2.54-5.13,3.81-7.7,1.07-3.07,1.65-6.7,.13-9.93-1.02-2.16-2.32-2.74-3.06-4.77-.78-2.13-.73-5.3,2.19-10.06Z" style="fill:#013833; stroke:#231f20; stroke-miterlimit:10; stroke-width:2px;"/><path d="M289.09,398.59c.56-1.41,1.21-2.41,1.7-3.06,0,0,.84-1.12,4.09-3.95h0c.71,1.26,2.26,4.43,2.04,8.71-.21,4.08-1.91,6.96-2.72,8.17-3.04,2.92-6.08,5.85-9.12,8.77-.34-2.64-.52-6.92,.95-11.84,.85-2.84,2.02-5.11,3.06-6.81Z" style="fill:#005246; stroke:#231f20; stroke-miterlimit:10; stroke-width:2px;"/><path d="M397.9,384.14c.14-1.01,.3-2.06,.49-3.13,.17-.97,.35-1.91,.54-2.81,1.17-1.49,2.7-3.2,4.68-4.9,1.61-1.39,3.18-2.48,4.56-3.33-.38,1.54-.94,3.29-1.75,5.17-.52,1.18-1.06,2.24-1.61,3.19-.84,1.05-1.97,2.29-3.47,3.5-1.23,1-2.42,1.75-3.45,2.32Z" style="fill:#005246; stroke:#231f20; stroke-miterlimit:10; stroke-width:2px;"/><path d="M410.88,381.17c-.75-.43-2.09-1.07-3.87-1.22-1.19-.1-2.19,.05-2.89,.21-.61,.33-1.37,.82-2.13,1.53-1.03,.96-1.69,1.95-2.09,2.68,.74,.12,1.6,.2,2.55,.21,1.11,.01,2.1-.08,2.94-.21,.63-.21,1.32-.49,2.04-.85,1.47-.74,2.61-1.6,3.45-2.35Z" style="fill:#005246; stroke:#231f20; stroke-miterlimit:10; stroke-width:2px;"/><path d="M535.7,435.28c1.78-2.06,3.57-4.12,5.35-6.18,.87-.83,2.14-1.86,3.85-2.74,1.23-.63,2.38-1.02,3.32-1.27,.25-.1,1-.42,1.51-1.24,.39-.63,.44-1.25,.45-1.53-.56,.3-1.42,.68-2.53,.83-.66,.09-1.24,.08-1.71,.03,.83-.72,1.95-1.85,2.94-3.48,1.13-1.87,1.6-3.63,1.82-4.78,.06-1.11,.18-2.3,.38-3.55,.51-3.28,1.4-6.08,2.34-8.36-1.92,2.27-4.23,4.72-6.98,7.19-1.82,1.63-3.61,3.06-5.31,4.3-1.23,1.01-2.56,2.35-3.68,4.13-4.37,6.89-2.29,14.77-1.74,16.65Z" style="fill:#005246; stroke:#231f20; stroke-miterlimit:10; stroke-width:2px;"/></svg>