<?xml version="1.0" encoding="UTF-8"?><svg id="a" xmlns="http://www.w3.org/2000/svg" xmlns:xlink="http://www.w3.org/1999/xlink" viewBox="0 0 321.42 401.04"><defs><style>.u{fill:url(#r);}.v{fill:url(#l);}.w{fill:url(#c);}.x{fill:url(#m);}.y{fill:url(#f);}.a`{fill:#8c2175;}.aa{fill:url(#p);}.ab{fill:url(#g);}.ac{fill:url(#b);}.ad{fill:url(#i);}.ae{fill:url(#t);opacity:.88;}.af{fill:url(#h);}.ag{fill:url(#d);}.ah{fill:url(#e);}.ai{fill:url(#s);}.aj{fill:url(#n);}.ak{fill:url(#j);}.al{fill:url(#o);}.am{fill:url(#q);}.an{fill:url(#k);}</style><linearGradient id="b" x1="60.06" y1="7.06" x2="85.74" y2="7.06" gradientTransform="matrix(1, 0, 0, 1, 0, 0)" gradientUnits="userSpaceOnUse"><stop offset=".29" stop-color="#b2374c"/><stop offset=".61" stop-color="#cc554d" stop-opacity=".86"/><stop offset="1" stop-color="#ff8d51" stop-opacity=".6"/></linearGradient><linearGradient id="c" x1="237.65" x2="263.34" xlink:href="#b"/><linearGradient id="d" x1="104.45" x2="130.14" xlink:href="#b"/><linearGradient id="e" x1="193.25" x2="218.94" xlink:href="#b"/><linearGradient id="f" x1="148.85" x2="174.54" xlink:href="#b"/><linearGradient id="g" y1="392.69" y2="392.69" xlink:href="#b"/><linearGradient id="h" x1="237.65" y1="392.69" x2="263.34" y2="392.69" xlink:href="#b"/><linearGradient id="i" x1="104.45" y1="392.69" x2="130.14" y2="392.69" xlink:href="#b"/><linearGradient id="j" x1="193.25" y1="392.69" x2="218.94" y2="392.69" xlink:href="#b"/><linearGradient id="k" x1="148.85" y1="392.69" x2="174.54" y2="392.69" xlink:href="#b"/><linearGradient id="l" x1="0" y1="85.84" x2="11.99" y2="85.84" gradientTransform="matrix(1, 0, 0, 1, 0, 0)" gradientUnits="userSpaceOnUse"><stop offset=".25" stop-color="#b2374c"/><stop offset=".58" stop-color="#cc554d" stop-opacity=".86"/><stop offset="1" stop-color="#ff8d51" stop-opacity=".6"/></linearGradient><linearGradient id="m" x1="0" y1="162.64" x2="11.99" y2="162.64" xlink:href="#l"/><linearGradient id="n" x1="0" y1="239.44" x2="11.99" y2="239.44" xlink:href="#l"/><linearGradient id="o" x1="0" y1="316.23" x2="11.99" y2="316.23" xlink:href="#l"/><linearGradient id="p" x1="310.34" y1="85.56" x2="321.29" y2="85.56" gradientTransform="matrix(1, 0, 0, 1, 0, 0)" gradientUnits="userSpaceOnUse"><stop offset="0" stop-color="#ff8d51" stop-opacity=".6"/><stop offset=".42" stop-color="#cc554d" stop-opacity=".86"/><stop offset=".75" stop-color="#b2374c"/></linearGradient><linearGradient id="q" x1="310.34" y1="162.36" x2="321.29" y2="162.36" xlink:href="#p"/><linearGradient id="r" x1="310.34" y1="239.16" x2="321.29" y2="239.16" xlink:href="#p"/><linearGradient id="s" x1="310.34" y1="315.95" x2="321.29" y2="315.95" xlink:href="#p"/><linearGradient id="t" x1="161.04" y1="14.87" x2="161.04" y2="386.61" gradientTransform="matrix(1, 0, 0, 1, 0, 0)" gradientUnits="userSpaceOnUse"><stop offset=".08" stop-color="#fbb040" stop-opacity=".1"/><stop offset=".17" stop-color="#f5a740" stop-opacity=".15"/><stop offset=".31" stop-color="#e69042" stop-opacity=".29"/><stop offset=".5" stop-color="#d06e45" stop-opacity=".51"/><stop offset=".86" stop-color="#a42c49" stop-opacity=".92"/><stop offset=".93" stop-color="#9c1f4a"/></linearGradient></defs><g><path d="M271.59,0H50.48C22.97,0,.66,22.31,.66,49.83V350.17c0,27.52,22.31,49.83,49.83,49.83h221.11c27.52,0,49.83-22.31,49.83-49.83V49.83c0-27.52-22.31-49.83-49.83-49.83Zm38.5,336.04c0,27.52-22.31,49.83-49.83,49.83H61.82c-27.52,0-49.83-22.31-49.83-49.83V63.96c0-27.52,22.31-49.83,49.83-49.83h198.45c27.52,0,49.83,22.31,49.83,49.83V336.04Z" style="fill:#8c2175;"/><g><rect x="60.06" width="25.69" height="14.13" style="fill:url(#b);"/><rect x="237.65" width="25.69" height="14.13" style="fill:url(#c);"/><rect x="104.45" width="25.69" height="14.13" style="fill:url(#d);"/><rect x="193.25" width="25.69" height="14.13" style="fill:url(#e);"/><rect x="148.85" width="25.69" height="14.13" style="fill:url(#f);"/></g><g><rect x="60.06" y="384.33" width="25.69" height="16.7" style="fill:url(#g);"/><rect x="237.65" y="384.33" width="25.69" height="16.7" style="fill:url(#h);"/><rect x="104.45" y="384.33" width="25.69" height="16.7" style="fill:url(#i);"/><rect x="193.25" y="384.33" width="25.69" height="16.7" style="fill:url(#j);"/><rect x="148.85" y="384.33" width="25.69" height="16.7" style="fill:url(#k);"/></g><g><rect x="0" y="72.75" width="11.99" height="26.19" style="fill:url(#l);"/><rect x="0" y="149.54" width="11.99" height="26.19" style="fill:url(#m);"/><rect x="0" y="226.34" width="11.99" height="26.19" style="fill:url(#n);"/><rect x="0" y="303.14" width="11.99" height="26.19" style="fill:url(#o);"/></g><g><rect x="310.34" y="72.47" width="10.94" height="26.19" style="fill:url(#p);"/><rect x="310.34" y="149.26" width="10.94" height="26.19" style="fill:url(#q);"/><rect x="310.34" y="226.06" width="10.94" height="26.19" style="fill:url(#r);"/><rect x="310.34" y="302.86" width="10.94" height="26.19" style="fill:url(#s);"/></g></g><rect x="11.99" y="14.87" width="298.1" height="371.74" rx="49.83" ry="49.83" style="fill:url(#t); opacity:.88;"/></svg>