<?xml version="1.0" encoding="UTF-8"?><svg id="a" xmlns="http://www.w3.org/2000/svg" xmlns:xlink="http://www.w3.org/1999/xlink" viewBox="0 0 63.91 57.32"><defs><style>.c{fill:#6d0752;}.d{fill:#ff8d51;}.e{fill:#fff;opacity:.1;}.f{fill:#8c2175;opacity:.58;}.g{clip-path:url(#b);}.h{fill:#7e49a4;}.i{fill:none;}</style><clipPath id="b"><rect class="i" x="-200.31" y="-463.04" width="616.27" height="400.17"/></clipPath></defs><g class="g"><path class="e" d="M360.59-54.05V-204.06c-5.1-3.57-10.9-6.25-17.16-7.78-.09-27.62-22.91-49.99-51.06-49.99-24.24,0-44.53,16.6-49.75,38.85-6.8-3.3-14.46-5.15-22.56-5.15-16.69,0-31.5,7.86-40.82,20.02-5.5-21.87-25.6-38.1-49.57-38.1-28.2,0-51.07,22.45-51.07,50.15,0,2.6,.2,5.16,.59,7.65-7.23-3.85-15.5-6.03-24.3-6.03-3.19,0-6.31,.3-9.34,.85-9.17-13.4-24.74-22.22-42.41-22.22-1.54,0-3.07,.08-4.58,.21-7.11-19.29-25.93-33.08-48.03-33.08-8.1,0-15.76,1.86-22.56,5.16-5.22-22.25-25.5-38.85-49.75-38.85-18.73,0-35.09,9.9-43.98,24.66-17.31,.14-32.57,8.74-41.7,21.79-4.62-1.35-9.51-2.08-14.57-2.08-12.9,0-24.67,4.7-33.66,12.45v75.93h0V3.12H360.59V-54.05h0Z"/></g><g><ellipse class="f" cx="32.55" cy="30.59" rx="24.05" ry="25.36"/><ellipse class="d" cx="30.55" cy="30.59" rx="20.95" ry="22.09"/><g><g><path class="c" d="M32.87,25.64s-.06-.03-.09-.01c-.02,.01-.03,.04-.04,.05-.02,.03-.06,.05-.1,.05l.02-.21v-.2c.1-.11,.17-.24,.23-.37,.05-.12,.08-.25,.06-.37,0-.03-.02-.06-.04-.08-.02-.02-.06-.03-.09,0-.02,.01-.02,.04-.04,.06-.02,.03-.05,.06-.09,.06v-.1c0-.05,0-.1,0-.1v-.2c.07-.12,.13-.25,.18-.39,.04-.12,.07-.25,.03-.37,0-.03-.02-.06-.05-.08-.03-.02-.07-.02-.09,0-.02,.02-.02,.04-.03,.06-.02,.03-.05,.06-.08,.07l-.02-.2-.02-.2c.07-.12,.13-.26,.17-.4,.03-.12,.04-.25,0-.37-.01-.03-.03-.06-.05-.08-.03-.02-.07-.02-.09,0-.02,.02-.02,.04-.03,.06-.01,.03-.04,.06-.08,.07l-.03-.2-.03-.19c.07-.13,.11-.27,.14-.41,.02-.12,.03-.26-.02-.37-.01-.03-.03-.06-.06-.07-.03-.02-.07-.01-.09,.01-.01,.02-.02,.04-.02,.06-.01,.04-.04,.07-.08,.08l-.04-.2-.04-.19c.06-.13,.1-.27,.12-.41,.02-.12,.03-.26-.03-.37-.01-.03-.03-.05-.06-.07-.03-.01-.07,0-.09,.02-.01,.02-.01,.04-.02,.06-.01,.04-.04,.07-.07,.08l-.05-.2-.05-.19c.05-.13,.09-.27,.11-.42,.01-.12,.01-.25-.05-.36-.01-.03-.03-.05-.06-.07-.03-.01-.07,0-.09,.02-.01,.02-.01,.04-.02,.06,0,.04-.04,.07-.07,.08l-.05-.2-.05-.19c.05-.14,.08-.28,.1-.42,.01-.13,.01-.26-.05-.36-.01-.03-.03-.05-.06-.07-.03-.01-.07,0-.09,.02-.01,.02-.01,.04-.02,.06,0,.04-.04,.07-.07,.09l-.05-.2-.05-.19c.05-.14,.08-.28,.09-.42,.01-.12,0-.25-.05-.36-.01-.03-.03-.05-.06-.06s-.07,0-.09,.02c-.01,.02-.01,.04-.02,.06,0,.04-.03,.07-.07,.09l-.06-.2-.06-.19c.05-.14,.08-.28,.09-.42,.01-.12,0-.25-.05-.36-.01-.03-.03-.05-.06-.06s-.07,0-.09,.02c-.01,.02-.01,.04-.02,.06,0,.04-.04,.07-.07,.09l-.06-.2-.05-.19c.05-.14,.08-.28,.09-.42,.01-.12,0-.25-.05-.36-.01-.03-.03-.05-.06-.06-.03-.01-.07,0-.09,.02-.01,.02-.01,.04-.02,.06,0,.04-.04,.07-.07,.09l-.06-.2-.03-.09-.02-.09c.05-.14,.09-.28,.11-.42,.02-.12,.02-.25-.04-.36-.01-.03-.03-.05-.06-.07-.03-.01-.07,0-.09,.02-.01,.02-.01,.04-.02,.06,0,.04-.04,.07-.07,.08l-.05-.2-.05-.19c.05-.13,.09-.27,.11-.41,.02-.12,.01-.26-.05-.38-.01-.03-.03-.06-.06-.07-.03-.01-.07,0-.09,.02-.01,.02-.01,.04-.02,.07,0,.04-.04,.07-.07,.09l-.03-.1c-.01-.05-.03-.1-.03-.1l-.06-.19c.05-.14,.06-.29,.05-.44,0-.13-.04-.27-.12-.37-.02-.03-.05-.05-.08-.05-.03,0-.07,0-.08,.04,0,.02,0,.05,0,.07,0,.04-.02,.08-.05,.1l-.1-.18s-.08-.66-.18-.6c-.09-.02-.18,.58-.18,.58l-.1,.18s-.05-.06-.05-.1c0-.02,0-.05,0-.07-.01-.03-.05-.05-.08-.04-.03,0-.06,.03-.08,.05-.09,.1-.12,.24-.12,.37,0,.15,0,.3,.05,.44l-.06,.19,.06,.02h0l-.06-.02-.03,.1-.03,.1s-.06-.05-.07-.09c0-.02,0-.05-.02-.07-.02-.03-.06-.03-.09-.02-.03,.01-.05,.04-.06,.07-.06,.11-.06,.26-.05,.38,.02,.14,.05,.28,.11,.41l-.05,.19-.05,.2s-.06-.05-.07-.08c0-.02,0-.04-.02-.06-.02-.03-.06-.03-.09-.02-.03,.01-.05,.04-.06,.07-.06,.11-.06,.24-.04,.36,.02,.14,.05,.28,.11,.42l-.02,.09-.03,.09-.06,.2s-.06-.05-.07-.09c0-.02,0-.04-.02-.06-.02-.03-.06-.03-.09-.02s-.05,.04-.06,.06c-.06,.11-.06,.24-.05,.36,.01,.14,.04,.28,.09,.42l-.05,.19-.06,.2s-.06-.05-.07-.09c0-.02,0-.05-.02-.06-.02-.03-.06-.03-.09-.02-.03,.01-.05,.04-.06,.06-.06,.11-.06,.24-.05,.36,.01,.14,.04,.28,.09,.42l-.06,.19-.06,.2s-.06-.05-.07-.09c0-.02,0-.05-.02-.06-.02-.03-.06-.03-.09-.02-.03,.01-.05,.04-.06,.06-.06,.11-.06,.24-.05,.36,.01,.14,.04,.28,.09,.42l-.06,.19-.05,.2s-.06-.05-.07-.09c0-.02,0-.05-.02-.06-.02-.03-.06-.03-.09-.02-.03,.01-.05,.04-.06,.07-.06,.11-.06,.24-.05,.36,.01,.14,.05,.28,.1,.42l-.05,.19-.05,.2s-.06-.05-.07-.08c0-.02,0-.05-.02-.06-.02-.03-.06-.03-.09-.02-.03,.01-.05,.04-.06,.07-.06,.11-.06,.24-.05,.36,.02,.14,.05,.28,.11,.42l-.05,.19-.05,.2s-.06-.05-.07-.08c0-.02,0-.04-.02-.06-.02-.03-.06-.03-.09-.02-.03,.01-.05,.04-.06,.07-.06,.11-.05,.24-.03,.37,.02,.14,.06,.28,.12,.41l-.04,.19-.04,.2s-.07-.04-.08-.08c0-.02,0-.04-.02-.06-.02-.02-.06-.03-.09-.01-.03,.02-.04,.04-.06,.07-.05,.11-.04,.25-.02,.37,.03,.14,.07,.28,.14,.41l-.03,.19-.03,.2s-.07-.04-.08-.07c0-.02-.01-.04-.03-.06-.02-.02-.06-.02-.09,0-.03,.02-.04,.05-.05,.08-.04,.12-.03,.25,0,.37,.03,.14,.09,.27,.16,.4l-.02,.2-.02,.2s-.07-.04-.08-.07c0-.02-.01-.04-.03-.06-.02-.02-.06-.02-.09,0s-.04,.05-.05,.08c-.04,.12-.02,.25,.03,.37,.05,.14,.11,.27,.19,.39v.2s-.01,.05-.01,.1v.1s-.07-.03-.09-.06c-.01-.02-.02-.04-.04-.06-.03-.02-.07-.01-.09,0-.02,.02-.03,.05-.04,.08-.03,.12,0,.25,.06,.37,.05,.13,.12,.26,.21,.37v.2l.03,.21s-.07-.02-.1-.05c-.01-.02-.02-.04-.04-.05-.03-.02-.07,0-.09,.01-.02,.02-.03,.06-.04,.09-.02,.13,.03,.25,.08,.36,.06,.13,.15,.24,.25,.35l.03,.19,.03,.2s-.08-.02-.1-.04c-.01-.02-.02-.04-.04-.05-.03-.02-.07,0-.09,.02-.02,.02-.03,.06-.03,.09,0,.13,.05,.25,.12,.35,.08,.12,.16,.23,.27,.32l.04,.19,.05,.2s-.08,0-.1-.04c-.01-.02-.03-.04-.05-.05-.03-.01-.07,0-.08,.03-.02,.03-.02,.06-.02,.09,0,.13,.06,.24,.14,.34,.08,.11,.18,.22,.29,.3l.03,.09,.03,.09,.06,.2s-.08,0-.1-.03c-.02-.01-.03-.03-.05-.04-.03-.01-.07,0-.08,.04-.02,.03-.02,.06-.02,.09,0,.13,.08,.24,.15,.33,.09,.11,.2,.2,.31,.28l.06,.18,.03,.1,.03,.1s-.08,0-.11-.02c-.02-.01-.03-.03-.05-.04-.03,0-.07,.01-.08,.04-.02,.03-.02,.06-.01,.09,.02,.12,.09,.23,.17,.32,.09,.1,.2,.2,.32,.27l.07,.18,.07,.19s-.08,0-.11-.02c-.02-.01-.03-.03-.05-.04-.03,0-.06,.01-.08,.04-.02,.03-.01,.06-.01,.09,.02,.12,.09,.23,.18,.32,.09,.1,.2,.19,.32,.26l.07,.18,.07,.19s-.08,0-.11-.02c-.02-.01-.03-.03-.05-.04-.03,0-.06,.01-.08,.04-.01,.03-.01,.06,0,.09,.02,.12,.09,.23,.18,.31,.09,.1,.2,.19,.32,.26l.07,.18,.07,.19s-.08,0-.11-.02c-.02-.01-.03-.03-.05-.04-.03,0-.06,.01-.08,.04-.02,.03-.01,.06-.01,.09,.02,.12,.09,.22,.17,.31,.09,.1,.2,.19,.32,.26l.07,.18,.07,.19s-.08,0-.11-.02c-.02-.01-.03-.03-.05-.04-.03,0-.07,.01-.08,.04-.02,.03-.02,.06-.01,.09,.02,.12,.09,.23,.17,.32,.09,.1,.2,.19,.31,.27l.06,.18,.06,.19s-.08,0-.1-.03c-.02-.01-.03-.03-.05-.04-.03,0-.07,0-.08,.04-.02,.03-.02,.06-.02,.09,0,.12,.08,.23,.16,.32,.09,.11,.19,.2,.3,.29v.09h.03l.02,.1,.06-.02c.03,.12,.07,.25,.1,.37,.03-.12,.06-.24,.1-.35l.06,.02,.04-.13h.03v-.05h0c.11-.09,.21-.19,.3-.3,.07-.09,.15-.2,.16-.32,0-.03,0-.06-.02-.09-.02-.03-.05-.05-.08-.04-.02,0-.03,.03-.05,.04-.03,.02-.07,.03-.1,.03l.06-.19,.06-.18c.12-.08,.22-.17,.31-.27,.08-.09,.15-.2,.17-.32,0-.03,0-.06-.01-.09-.02-.03-.05-.05-.08-.04-.02,0-.03,.02-.05,.04-.03,.02-.07,.03-.11,.02l.07-.19,.07-.18c.12-.08,.22-.16,.32-.26,.08-.09,.16-.19,.17-.31,0-.03,0-.06-.01-.09-.02-.03-.05-.05-.08-.04-.02,0-.03,.02-.05,.04-.03,.02-.07,.03-.11,.02l.07-.19,.07-.18c.12-.07,.23-.16,.32-.26,.08-.09,.16-.19,.18-.31,0-.03,0-.06,0-.09-.01-.03-.05-.05-.08-.04-.02,0-.04,.02-.05,.04-.03,.02-.07,.03-.11,.02l.07-.19,.07-.18c.12-.07,.23-.16,.32-.26,.08-.09,.16-.19,.18-.32,0-.03,0-.06-.01-.09-.02-.03-.05-.05-.08-.04-.02,0-.03,.02-.05,.04-.03,.02-.07,.03-.11,.02l.07-.19,.07-.18c.12-.07,.23-.17,.32-.27,.08-.09,.15-.2,.17-.32,0-.03,0-.06-.01-.09-.02-.03-.05-.05-.08-.04-.02,0-.03,.03-.05,.04-.03,.02-.07,.03-.11,.02l.03-.1,.03-.1,.06-.18c.12-.08,.22-.17,.31-.28,.08-.1,.15-.21,.15-.33,0-.03,0-.06-.02-.09-.02-.03-.05-.05-.08-.04-.02,0-.03,.03-.05,.04-.03,.02-.07,.04-.1,.03l.06-.2,.03-.09,.03-.09c.11-.09,.21-.19,.29-.3,.08-.1,.14-.22,.14-.34,0-.03,0-.06-.02-.09-.02-.03-.06-.04-.08-.03-.02,0-.03,.03-.05,.05-.03,.03-.06,.04-.1,.04l.05-.2,.04-.19c.11-.09,.2-.2,.27-.32,.07-.11,.12-.23,.12-.35,0-.03,0-.06-.03-.09-.02-.02-.06-.04-.09-.02-.02,.01-.03,.03-.04,.05-.02,.03-.06,.05-.1,.04,0,0,0-.05,.02-.1v-.1l.04-.19c.1-.1,.19-.22,.25-.35,.05-.11,.1-.24,.08-.36,0-.03-.01-.06-.04-.09Z"/><g><path class="c" d="M41.86,23.46s-.06-.03-.09-.01c-.02,.01-.03,.04-.04,.05-.02,.03-.06,.05-.09,.06v-.21s.02-.05,.02-.1v-.1c.09-.11,.17-.24,.22-.37,.05-.12,.09-.24,.06-.37,0-.03-.02-.06-.04-.08-.02-.02-.06-.03-.09,0-.02,.01-.02,.04-.04,.06-.02,.03-.05,.05-.09,.06v-.41c.09-.12,.16-.24,.21-.38,.04-.12,.07-.25,.04-.37,0-.03-.02-.06-.04-.08-.02-.02-.06-.03-.09,0-.02,.01-.02,.04-.03,.06-.02,.03-.05,.06-.09,.06v-.41c.07-.12,.13-.25,.18-.39,.04-.12,.07-.25,.03-.37,0-.03-.02-.06-.05-.08-.03-.02-.07-.02-.09,0-.02,.02-.02,.04-.03,.06-.02,.03-.05,.06-.09,.07v-.21l-.02-.2c.08-.12,.14-.25,.18-.39,.04-.12,.06-.25,.02-.37,0-.03-.02-.06-.05-.08-.03-.02-.07-.02-.09,0-.02,.02-.02,.04-.03,.06-.02,.03-.05,.06-.09,.07l-.02-.21-.02-.2c.07-.12,.13-.26,.17-.39,.04-.12,.06-.25,.02-.37,0-.03-.02-.06-.05-.08-.03-.02-.07-.02-.09,0-.02,.02-.02,.04-.03,.06-.02,.03-.05,.06-.08,.07l-.02-.21-.02-.2c.07-.13,.13-.26,.17-.4,.03-.12,.05-.25,.01-.37,0-.03-.02-.06-.05-.08-.03-.02-.07-.02-.09,0-.02,.02-.02,.04-.03,.06-.01,.03-.05,.06-.08,.07l-.02-.21s.05-.54,.05-.63c-.05,.04-.32,.45-.32,.45l-.14,.15s-.03-.08-.02-.11c0-.02,.02-.04,.02-.07,0-.03-.03-.06-.07-.06-.03,0-.06,.01-.09,.03-.11,.07-.17,.19-.22,.31-.06,.13-.1,.28-.11,.43l-.13,.15-.14,.16s-.03-.07-.03-.11c0-.02,.02-.04,.01-.07,0-.03-.04-.06-.07-.06-.03,0-.06,.01-.09,.03-.1,.07-.16,.2-.2,.32-.04,.14-.07,.29-.08,.44l-.06,.08s-.06,.08-.06,.08l.05,.04h0l-.05-.04-.12,.17s-.04-.07-.03-.11c0-.02,.01-.05,0-.07,0-.03-.04-.05-.07-.05-.03,0-.06,.02-.08,.04-.09,.08-.14,.21-.18,.34-.04,.14-.05,.29-.05,.44l-.11,.17-.12,.17s-.04-.07-.04-.11c0-.02,0-.05,0-.07,0-.03-.05-.05-.08-.05-.03,0-.06,.02-.08,.04-.09,.09-.13,.22-.16,.35-.03,.15-.04,.29-.03,.44l-.05,.08s-.05,.09-.05,.09l-.1,.18s-.05-.07-.05-.1c0-.02,0-.05,0-.07-.01-.03-.05-.05-.08-.04-.03,0-.06,.03-.08,.05-.08,.09-.12,.22-.14,.35-.02,.14-.02,.29,0,.44l-.09,.18-.1,.18s-.05-.06-.05-.1c0-.02,0-.05,0-.07-.01-.03-.05-.05-.08-.04-.03,0-.06,.03-.08,.05-.08,.1-.11,.23-.13,.36-.02,.15-.01,.29,0,.44l-.09,.18-.09,.19s-.05-.06-.05-.1c0-.02,0-.05,0-.07-.01-.03-.05-.04-.08-.04s-.05,.03-.07,.05c-.08,.1-.11,.23-.12,.36-.01,.15,0,.29,.02,.44l-.09,.18-.09,.19s-.05-.06-.05-.1c0-.02,0-.05,0-.07-.01-.03-.05-.04-.08-.03s-.05,.03-.07,.06c-.08,.1-.1,.23-.11,.36,0,.15,0,.29,.03,.44l-.08,.18-.09,.19s-.05-.06-.06-.1c0-.02,0-.05,0-.07-.01-.03-.05-.04-.08-.03-.03,0-.05,.03-.07,.06-.07,.1-.1,.23-.11,.36,0,.15,0,.29,.03,.44l-.08,.18-.09,.19s-.05-.06-.06-.1c0-.02,0-.05,0-.07-.01-.03-.05-.04-.08-.03-.03,0-.05,.03-.07,.06-.07,.1-.1,.23-.1,.36,0,.15,0,.29,.03,.44l-.08,.18-.09,.19s-.05-.06-.06-.1c0-.02,0-.05,0-.07-.01-.03-.05-.04-.08-.03-.03,0-.05,.03-.07,.06-.07,.1-.1,.23-.11,.36,0,.15,0,.29,.03,.44l-.09,.18-.09,.19s-.05-.06-.05-.1c0-.02,0-.05,0-.07-.01-.03-.05-.04-.08-.03-.03,0-.05,.03-.07,.06-.08,.1-.1,.23-.11,.36-.01,.15,0,.29,.02,.44l-.09,.18-.09,.19s-.05-.06-.05-.1c0-.02,0-.05,0-.07-.01-.03-.05-.04-.08-.03-.03,0-.05,.03-.07,.06-.08,.1-.1,.23-.11,.36-.01,.15,0,.29,.02,.44l-.09,.18-.09,.19s-.05-.06-.05-.1c0-.02,0-.05,0-.07-.01-.03-.05-.04-.08-.04s-.05,.03-.07,.05c-.08,.1-.11,.23-.12,.35-.01,.14-.01,.29,.01,.44l-.09,.18-.09,.19s-.05-.06-.05-.1c0-.02,0-.05,0-.07-.01-.03-.05-.04-.08-.04-.03,0-.05,.03-.07,.05-.08,.1-.11,.23-.12,.35-.01,.14-.01,.29,.01,.44l-.09,.18-.09,.19s-.05-.06-.05-.1c0-.02,0-.05,0-.07-.01-.03-.05-.04-.08-.04-.03,0-.05,.03-.07,.05-.08,.1-.11,.23-.12,.35-.02,.15-.01,.29,0,.44l-.1,.17-.1,.18s-.05-.06-.05-.1c0-.02,0-.05,0-.07-.01-.03-.05-.05-.08-.04-.03,0-.06,.03-.08,.05-.08,.09-.12,.22-.13,.35-.02,.14-.02,.29,0,.44l-.1,.17-.1,.18s-.05-.06-.05-.1c0-.02,0-.05,0-.07-.01-.03-.05-.05-.08-.04-.03,0-.06,.03-.08,.05-.08,.09-.12,.22-.13,.35-.02,.14-.02,.29,0,.44l-.1,.17-.1,.18s-.05-.07-.05-.1c0-.02,0-.05,0-.07-.01-.03-.05-.05-.08-.04-.03,0-.06,.03-.08,.05-.08,.09-.11,.22-.14,.35-.02,.14-.03,.29-.02,.43l-.1,.17-.11,.18s-.05-.07-.04-.1c0-.02,0-.05,0-.07-.01-.03-.05-.05-.08-.04-.03,0-.06,.02-.08,.05-.09,.09-.12,.22-.15,.34-.03,.14-.03,.29-.02,.44l-.1,.17-.11,.18s-.04-.07-.04-.11c0-.02,0-.05,0-.07-.01-.03-.05-.05-.08-.04-.03,0-.06,.02-.08,.05-.09,.09-.12,.22-.15,.34-.03,.14-.03,.29-.03,.44l-.03,.05-.05,.02v.05l-.02,.05,.05,.04c-.06,.09-.11,.18-.17,.27,.08-.02,.16-.05,.23-.07l.02,.07,.18-.06c.13,.05,.27,.08,.4,.09,.12,0,.25,0,.35-.06,.03-.02,.05-.04,.06-.07s0-.07-.02-.09c-.02-.01-.04-.01-.06-.01-.03,0-.07-.03-.09-.07l.18-.07,.18-.07c.13,.04,.27,.07,.41,.07,.12,0,.25-.01,.35-.09,.02-.02,.05-.04,.06-.07,0-.03,0-.07-.03-.09-.02-.01-.04,0-.06-.01-.04,0-.07-.03-.09-.06l.18-.08,.17-.08c.13,.04,.27,.05,.41,.05,.12,0,.24-.03,.34-.11,.02-.02,.05-.04,.05-.08,0-.03,0-.07-.03-.09-.02-.01-.04,0-.06,0-.04,0-.07-.03-.09-.06l.18-.09,.17-.08c.14,.03,.28,.04,.41,.02,.12-.01,.24-.04,.33-.12,.02-.02,.04-.05,.05-.08,0-.03,0-.07-.04-.09-.02,0-.04,0-.06,0-.04,0-.07-.02-.09-.06l.17-.1,.08-.05s.08-.05,.08-.05c.14,.02,.28,.02,.41,0,.12-.02,.24-.05,.33-.14,.02-.02,.04-.05,.05-.08,0-.03-.01-.07-.04-.08-.02,0-.04,0-.06,0-.04,0-.07-.02-.1-.05l.17-.1,.16-.11c.14,.01,.28,0,.41-.02,.12-.02,.24-.06,.32-.15,.02-.02,.04-.05,.04-.08,0-.03-.01-.07-.04-.08-.02,0-.04,0-.06,0-.04,0-.07-.02-.1-.04l.16-.12,.16-.11c.14,0,.28,0,.41-.04,.12-.02,.24-.08,.32-.17,.02-.02,.04-.05,.04-.09,0-.03-.02-.07-.05-.08-.02,0-.04,0-.06,0-.04,0-.07-.01-.1-.04l.16-.13,.15-.12c.14,0,.28-.02,.41-.06,.11-.04,.23-.1,.3-.2,.02-.03,.03-.06,.03-.09,0-.03-.02-.07-.05-.08-.02,0-.04,0-.06,0-.04,0-.07,0-.1-.03l.15-.14,.14-.13c.14,0,.28-.04,.4-.09,.11-.05,.22-.11,.29-.22,.02-.03,.03-.06,.03-.09,0-.03-.03-.07-.06-.07-.02,0-.04,0-.06,.01-.04,0-.08,0-.11-.03l.14-.14,.14-.14c.14-.02,.27-.07,.39-.13,.11-.06,.22-.13,.28-.24,.01-.03,.03-.06,.02-.09s-.03-.06-.06-.07c-.02,0-.04,.01-.06,.02-.03,.01-.08,0-.11-.02l.13-.15,.06-.07,.06-.08c.13-.03,.26-.09,.38-.16,.11-.06,.21-.15,.26-.26,.01-.03,.02-.06,.02-.09,0-.03-.04-.06-.07-.06-.02,0-.04,.01-.06,.02-.03,.01-.08,.01-.11,0l.06-.08s.06-.08,.06-.08l.11-.16c.13-.05,.26-.11,.37-.19,.1-.07,.2-.16,.24-.28,0-.03,.01-.06,0-.1s-.04-.06-.07-.06c-.02,0-.04,.02-.06,.03-.03,.02-.07,.02-.11,0l.1-.18,.09-.17c.13-.06,.25-.13,.36-.22,.1-.08,.18-.18,.21-.31,0-.03,0-.07,0-.1-.01-.03-.05-.06-.08-.05-.02,0-.04,.02-.05,.04-.03,.02-.07,.03-.11,.01l.08-.19,.08-.18c.12-.07,.24-.15,.34-.26,.08-.09,.16-.2,.18-.33,0-.03,0-.07-.01-.09-.02-.03-.05-.05-.08-.04-.02,0-.04,.03-.05,.04-.03,.02-.07,.03-.11,.02l.07-.19,.03-.09s.03-.09,.03-.09c.11-.08,.22-.18,.31-.29,.08-.1,.15-.21,.16-.34,0-.03,0-.07-.02-.09-.02-.03-.05-.05-.08-.03-.02,0-.03,.03-.05,.05-.03,.03-.06,.04-.1,.03l.05-.2,.05-.19c.11-.09,.21-.2,.29-.32,.07-.11,.12-.23,.12-.35,0-.03,0-.07-.02-.09-.02-.03-.06-.04-.09-.03-.02,.01-.03,.03-.05,.05-.02,.03-.06,.04-.1,.04l.04-.2,.02-.1,.02-.1c.1-.1,.19-.21,.26-.34,.06-.11,.12-.23,.1-.36,0-.03-.01-.06-.03-.09-.02-.02-.06-.04-.09-.02-.02,.01-.03,.03-.04,.05-.02,.03-.06,.05-.1,.05l.02-.21,.02-.2c.1-.11,.18-.23,.24-.36,.05-.11,.1-.24,.08-.37,0-.03-.01-.06-.04-.09Z"/><path class="c" d="M48.45,28.93s-.05-.05-.08-.05c-.02,0-.04,.02-.06,.04-.03,.02-.06,.02-.1,.02h0l.08-.19s.35-.37,.36-.41c-.04,0-.51,.23-.51,.23l-.15,.03-.04-.02s.01-.06,.03-.08c.02-.02,.04-.03,.04-.05,.01-.03,0-.07-.02-.09-.02-.02-.06-.03-.09-.03-.12,0-.23,.06-.33,.13-.11,.08-.21,.18-.3,.3l-.18,.05-.19,.05s0-.08,.03-.11c.01-.02,.03-.03,.04-.05,.01-.03,0-.07-.03-.09-.03-.02-.06-.02-.09-.02-.12,0-.23,.07-.32,.15-.11,.09-.2,.2-.28,.32l-.18,.06,.02,.06h0l-.02-.06-.09,.03s-.09,.03-.09,.03c0-.04,0-.08,.02-.11,.01-.02,.03-.03,.04-.05,0-.03,0-.07-.04-.09-.03-.02-.06-.02-.09-.01-.12,.02-.22,.09-.31,.18-.1,.1-.19,.21-.26,.33l-.17,.08-.18,.08s0-.08,.02-.11c.01-.02,.03-.03,.04-.06,0-.03-.01-.07-.04-.08s-.06-.01-.09,0c-.12,.02-.22,.1-.3,.19-.09,.1-.17,.23-.23,.36l-.17,.08-.18,.09s0-.08,.01-.11c.01-.02,.03-.03,.03-.06,0-.03-.02-.07-.05-.08-.03-.01-.06-.01-.09,0-.12,.03-.21,.12-.29,.22-.09,.11-.16,.24-.21,.37l-.08,.05s-.08,.05-.08,.05l-.17,.11s-.01-.08,0-.11c.01-.02,.03-.04,.03-.06,0-.03-.02-.07-.05-.08-.03-.01-.06,0-.09,0-.11,.04-.2,.13-.27,.24-.08,.11-.15,.24-.19,.38l-.16,.11-.16,.11s-.02-.08,0-.11c0-.02,.02-.04,.03-.06,0-.03-.03-.06-.06-.07-.03,0-.06,0-.09,0-.11,.04-.19,.14-.26,.25-.07,.12-.13,.25-.17,.39l-.15,.11-.16,.12s-.02-.08,0-.11c0-.02,.02-.04,.02-.06,0-.03-.03-.06-.06-.07-.03,0-.06,0-.09,.01-.11,.05-.19,.15-.25,.26-.07,.12-.13,.25-.17,.39l-.15,.11-.16,.12s-.02-.08,0-.11c0-.02,.02-.04,.02-.06,0-.03-.03-.06-.06-.07-.03,0-.06,0-.09,.01-.11,.05-.19,.15-.25,.25-.07,.12-.13,.25-.17,.39l-.15,.11-.16,.11s-.02-.08,0-.11c0-.02,.02-.04,.02-.06,0-.03-.03-.06-.06-.07s-.06,0-.09,0c-.11,.04-.19,.14-.25,.24-.07,.12-.14,.24-.19,.38l-.16,.1-.17,.1s-.01-.08,0-.11c0-.02,.03-.04,.03-.06,0-.03-.02-.07-.05-.08-.03-.01-.06,0-.09,0-.11,.04-.2,.12-.27,.21-.08,.11-.15,.23-.21,.36l-.08,.04s-.08,.04-.08,.04l-.18,.08s0-.08,.02-.11c.01-.02,.03-.03,.03-.06,0-.03-.02-.07-.04-.08-.03-.02-.06-.01-.09,0-.11,.02-.21,.1-.29,.19-.09,.1-.17,.22-.25,.34l-.17,.07-.18,.07s0-.08,.02-.11c.01-.02,.03-.03,.04-.05,0-.03-.01-.07-.04-.09-.03-.02-.06-.02-.09-.01-.11,.01-.21,.09-.3,.17-.1,.09-.19,.2-.27,.32l-.18,.06-.18,.06s0-.08,.03-.11c.01-.02,.03-.03,.04-.05,0-.03,0-.07-.03-.09-.03-.02-.06-.02-.09-.02-.12,.01-.22,.08-.31,.16-.1,.09-.19,.2-.27,.32l-.18,.06-.18,.07s0-.08,.03-.11c.01-.02,.03-.03,.04-.05,0-.03,0-.07-.04-.09-.03-.02-.06-.02-.09-.02-.12,.01-.22,.09-.31,.17-.1,.09-.19,.21-.26,.33l-.17,.07-.18,.07s0-.08,.02-.11c.01-.02,.03-.03,.04-.05,0-.03-.01-.07-.04-.08-.03-.02-.06-.02-.09-.01-.12,.02-.22,.1-.3,.19-.1,.11-.18,.23-.24,.35l-.17,.08s-.05,.02-.09,.04l-.08,.05s0-.08,0-.12c.01-.02,.03-.04,.03-.06,0-.03-.02-.07-.05-.08-.03-.01-.06,0-.09,0-.12,.04-.21,.13-.28,.23-.09,.11-.15,.24-.2,.37l-.16,.1-.17,.1s-.01-.08,0-.11c0-.02,.02-.04,.03-.06,0-.03-.02-.07-.05-.08-.03-.01-.06,0-.08,0-.11,.03-.19,.12-.26,.21-.09,.1-.16,.22-.23,.35,0,0-.04,.02-.08,.04l-.09,.03-.18,.06s0-.08,.02-.11c.01-.02,.03-.03,.04-.05,0-.03-.01-.07-.04-.09-.03-.02-.06-.02-.08-.02-.11,0-.2,.09-.29,.16-.06,.05-.11,.1-.17,.16l-.23-.04-.04,.21h-.03v.07s-.1,.02-.15,.03c.05,.01,.11,.02,.16,.03v.07h.03l.04,.21,.24-.06c.06,.05,.13,.1,.2,.15,.11,.07,.23,.12,.35,.11,.03,0,.06,0,.09-.03,.02-.02,.04-.06,.02-.09-.01-.02-.03-.03-.05-.05-.03-.02-.05-.06-.05-.1l.2,.03,.19,.03c.1,.11,.22,.2,.34,.26,.11,.06,.23,.1,.35,.09,.03,0,.06-.01,.08-.04,.02-.02,.03-.06,.02-.09-.01-.02-.03-.03-.05-.04-.03-.02-.05-.06-.05-.1l.2,.02,.19,.02c.11,.1,.22,.18,.35,.25,.11,.06,.23,.11,.36,.08,.03,0,.06-.02,.08-.04,.02-.02,.03-.07,.01-.09-.01-.02-.04-.03-.05-.04-.03-.02-.05-.06-.06-.1h.39c.11,.1,.23,.17,.36,.23,.11,.05,.24,.09,.36,.06,.03,0,.06-.02,.08-.04,.02-.03,.03-.07,0-.09-.01-.02-.04-.03-.06-.04-.03-.02-.05-.06-.06-.1h.3s.1,0,.1,0c.11,.08,.24,.15,.37,.19,.12,.04,.24,.07,.36,.03,.03,0,.06-.02,.08-.05,.02-.03,.02-.07,0-.09-.01-.02-.04-.02-.06-.03-.03-.02-.06-.05-.07-.09h.2l.19-.02c.12,.08,.25,.15,.38,.19,.12,.04,.25,.06,.36,.01,.03-.01,.06-.03,.08-.05s.02-.07,0-.09c-.02-.02-.04-.02-.06-.03-.03-.02-.06-.05-.07-.09l.2-.02,.19-.03c.12,.07,.25,.13,.39,.16,.12,.03,.25,.04,.36,0,.03-.01,.06-.03,.07-.06,.02-.03,.02-.07,0-.09-.02-.02-.04-.02-.06-.03-.03-.01-.06-.05-.07-.08l.2-.03,.19-.03c.13,.07,.26,.11,.4,.14,.12,.03,.25,.04,.36-.02,.03-.01,.06-.03,.07-.06,.02-.03,.01-.07-.01-.09-.02-.02-.04-.02-.06-.02-.03-.01-.06-.04-.08-.08l.2-.04,.19-.04c.13,.06,.26,.1,.4,.12,.12,.02,.25,.02,.36-.04,.03-.02,.05-.04,.07-.07,.01-.03,0-.07-.02-.09-.02-.01-.04-.01-.06-.02-.04,0-.07-.04-.08-.08l.19-.06,.19-.06c.13,.05,.27,.08,.41,.09,.12,0,.25,0,.36-.07,.03-.02,.05-.04,.06-.07,.01-.03,0-.07-.02-.09-.02-.01-.04-.01-.06-.01-.04,0-.07-.03-.09-.07,0,0,.05-.02,.1-.03l.09-.04,.18-.07c.14,.04,.28,.07,.42,.06,.12,0,.25-.02,.35-.1,.03-.02,.05-.04,.06-.07,0-.03,0-.07-.03-.09-.02-.01-.04,0-.07-.01-.04,0-.07-.03-.09-.06l.09-.04s.09-.04,.09-.04l.17-.09c.14,.03,.28,.04,.42,.03,.12-.01,.25-.05,.35-.13,.02-.02,.05-.05,.05-.08s0-.07-.04-.09c-.02,0-.04,0-.07,0-.04,0-.07-.02-.1-.05l.18-.1,.17-.11c.14,.01,.28,0,.42-.02,.12-.03,.24-.08,.33-.17,.02-.02,.04-.05,.04-.09,0-.03-.01-.07-.05-.08-.02,0-.04,0-.07,0-.04,0-.08-.01-.1-.04l.17-.12,.08-.06,.08-.06c.14,0,.28-.03,.42-.07,.12-.04,.24-.1,.31-.21,.02-.03,.03-.06,.03-.09s-.02-.07-.05-.08c-.02,0-.04,0-.06,.01-.04,0-.08,0-.11-.03l.15-.14,.07-.07s.07-.07,.07-.07c.14-.02,.27-.06,.4-.13,.11-.05,.23-.13,.29-.24,.02-.03,.03-.06,.02-.09,0-.03-.03-.07-.06-.07-.02,0-.04,.01-.06,.02-.04,.01-.08,0-.11-.02,0,0,.04-.04,.07-.08l.06-.08,.12-.16c.14-.04,.27-.09,.39-.16,.11-.06,.21-.15,.26-.27,.01-.03,.02-.06,.01-.1,0-.03-.04-.06-.07-.06-.02,0-.04,.02-.06,.03-.03,.02-.07,.01-.11,0l.12-.17,.11-.16c.14-.05,.26-.11,.38-.2,.1-.08,.2-.17,.24-.29,.01-.03,.02-.06,0-.1,0-.03-.04-.06-.07-.06-.02,0-.04,.02-.06,.03-.03,.02-.07,.02-.11,0l.11-.18s.03-.04,.05-.09l.05-.09c.13-.06,.25-.13,.36-.23,.1-.08,.19-.18,.22-.3,0-.03,.01-.07,0-.1-.01-.03-.04-.06-.07-.05-.02,0-.04,.02-.06,.03-.03,.02-.07,.02-.11,0l.1-.19-.06-.03h0l.06,.03,.09-.18c.13-.06,.25-.14,.35-.24,.09-.08,.18-.19,.21-.31,0-.03,.01-.07,0-.1-.01-.03-.04-.06-.08-.05-.02,0-.04,.02-.06,.03-.03,.02-.07,.03-.11,.01l.09-.19,.09-.18c.13-.07,.24-.15,.35-.25,.09-.09,.17-.19,.2-.31,0-.03,.01-.06,0-.1Z"/><path class="c" d="M43.28,41.94l-.15-.12h0s.06-.05,.1-.04c.02,0,.04,.01,.06,0,.03,0,.05-.05,.05-.08,0-.03-.02-.06-.04-.08-.08-.09-.19-.14-.31-.17-.13-.03-.27-.05-.4-.05l-.15-.12-.16-.12s.06-.05,.1-.05c.02,0,.04,0,.06,0,.03-.01,.05-.05,.04-.08,0-.03-.02-.06-.04-.08-.08-.09-.2-.13-.32-.15-.13-.02-.27-.03-.41-.01l-.15-.1-.03,.05h0l.03-.05-.16-.11s.06-.05,.09-.05c.02,0,.04,0,.06,0,.03-.01,.04-.05,.04-.08,0-.03-.02-.06-.04-.08-.08-.09-.21-.12-.32-.13-.14-.01-.27,0-.41,.02l-.16-.09-.17-.09s.06-.05,.09-.06c.02,0,.04,0,.06,0,.03-.01,.04-.05,.03-.09,0-.03-.03-.06-.05-.08-.09-.08-.21-.11-.33-.12-.14,0-.27,.01-.41,.05l-.17-.08-.18-.08s.05-.06,.09-.06c.02,0,.04,0,.06-.01,.03-.02,.04-.06,.03-.09,0-.03-.03-.05-.05-.07-.09-.07-.22-.09-.33-.1-.13,0-.27,.03-.4,.07l-.17-.06-.18-.07s.05-.06,.08-.07c.02,0,.04,0,.06-.02,.03-.02,.03-.06,.02-.09s-.03-.05-.06-.07c-.1-.07-.22-.08-.34-.07-.13,0-.26,.03-.39,.09l-.18-.05-.19-.05s.05-.07,.08-.08c.02,0,.04,0,.06-.02,.02-.02,.03-.06,.02-.09-.01-.03-.04-.05-.06-.06-.1-.06-.23-.06-.35-.04-.13,.02-.26,.06-.39,.11,0,0-.18-.04-.18-.04l-.19-.04s.04-.07,.07-.08c.02,0,.04-.01,.06-.03,.02-.02,.03-.06,.01-.09-.01-.03-.04-.05-.07-.06-.11-.05-.23-.04-.35-.01-.13,.03-.26,.08-.38,.14l-.18-.04-.19-.02s.04-.07,.07-.09c.02,0,.04-.01,.06-.03,.02-.02,.02-.07,0-.09-.02-.03-.04-.04-.07-.05-.11-.04-.23-.02-.35,.01-.13,.04-.25,.1-.37,.17l-.18-.02h-.1s-.1-.02-.1-.02c0-.04,.03-.07,.06-.09,.02,0,.04-.01,.05-.03,.02-.02,.02-.07,0-.09-.02-.03-.05-.04-.07-.05-.11-.04-.23-.01-.34,.03-.13,.05-.25,.11-.36,.19h-.18l-.19-.03s.03-.07,.06-.09c.02-.01,.04-.02,.05-.03,.02-.02,.02-.07,0-.09-.02-.03-.04-.04-.07-.05-.11-.04-.23-.01-.34,.03-.13,.04-.25,.1-.36,.18l-.18-.02-.19-.02s.03-.07,.07-.09c.02,0,.04-.01,.05-.03,.02-.02,.02-.07,0-.09-.02-.03-.04-.04-.07-.05-.11-.04-.22-.02-.34,.01-.13,.04-.25,.09-.37,.16l-.18-.03-.19-.03s.04-.07,.07-.08c.02,0,.04-.01,.06-.03,.02-.02,.02-.07,0-.09-.01-.03-.04-.04-.07-.06-.1-.05-.22-.04-.33-.01-.13,.03-.26,.08-.38,.14l-.18-.05-.18-.05s.04-.07,.08-.08c.02,0,.04,0,.06-.02,.02-.02,.03-.06,.02-.09-.01-.03-.04-.05-.06-.06-.1-.06-.22-.05-.33-.04-.1,.01-.21,.04-.31,.07l-.07-.1-.12,.09-.06-.02-.02,.06c-.05-.02-.1-.04-.15-.06,.03,.04,.05,.08,.08,.13l-.05,.04,.06,.09-.05,.13,.1,.03c0,.11,.01,.23,.03,.34,.03,.12,.07,.25,.16,.33,.02,.02,.05,.04,.08,.04,.03,0,.07-.02,.08-.05,0-.02,0-.04,0-.07,0-.04,.01-.08,.04-.11l.12,.17,.06,.08,.06,.08c0,.15,.02,.29,.06,.43,.03,.12,.08,.25,.18,.32,.02,.02,.05,.04,.08,.04,.03,0,.07-.02,.07-.05,0-.02,0-.04,0-.07,0-.04,0-.08,.03-.11l.13,.16,.12,.15c0,.15,.04,.29,.08,.43,.04,.12,.1,.24,.2,.31,.03,.02,.05,.03,.09,.03,.03,0,.06-.03,.07-.06,0-.02,0-.04-.01-.07,0-.04,0-.08,.03-.11l.14,.15,.13,.14c.02,.15,.05,.29,.11,.42,.05,.12,.12,.23,.22,.3,.03,.02,.06,.03,.09,.02,.03,0,.06-.03,.07-.06,0-.02-.01-.04-.02-.06-.01-.04,0-.08,.02-.11,0,0,.03,.04,.07,.07l.07,.07,.14,.13c.03,.14,.07,.29,.14,.41,.06,.11,.14,.22,.25,.27,.03,.01,.06,.02,.09,.02,.03,0,.06-.04,.06-.07,0-.02-.01-.04-.02-.06-.01-.04-.01-.08,0-.11l.08,.06s.08,.06,.08,.06l.15,.11c.04,.14,.1,.27,.18,.39,.07,.1,.16,.2,.28,.24,.03,.01,.06,.02,.09,0,.03-.01,.05-.04,.05-.08,0-.02-.02-.04-.03-.06-.02-.03-.02-.08,0-.11l.17,.11,.17,.09c.06,.13,.14,.26,.23,.37,.08,.09,.19,.18,.31,.2,.03,0,.06,0,.09,0,.03-.02,.05-.05,.04-.08,0-.02-.02-.04-.04-.06-.02-.03-.03-.07-.02-.11l.18,.08s.04,.02,.09,.04l.09,.03c.08,.12,.17,.23,.28,.33,.09,.09,.21,.15,.33,.15,.03,0,.06,0,.09-.02,.03-.02,.04-.06,.03-.09,0-.02-.03-.03-.04-.05-.03-.03-.04-.07-.03-.11l.19,.05s.18,.05,.18,.04c.09,.11,.2,.2,.32,.28,.05,.03,.11,.06,.17,.09,.06,.02,.12,.02,.18,.01,.03,0,.06-.01,.08-.04,.02-.02,.03-.07,.02-.09-.01-.02-.03-.03-.05-.04-.03-.02-.05-.06-.05-.1h.2l.19,.03c.11,.09,.22,.18,.35,.24,.11,.05,.24,.08,.36,.05,.03,0,.06-.02,.08-.05,.02-.03,.02-.07,0-.09-.01-.02-.04-.02-.05-.04-.03-.02-.05-.05-.06-.09h.38c.12,.08,.24,.13,.37,.17,.12,.04,.24,.06,.36,.02,.03-.01,.06-.03,.07-.05,.02-.03,.02-.07,0-.09-.02-.02-.04-.02-.06-.03-.03-.02-.06-.05-.07-.09l.2-.02s.19-.03,.19-.03c.12,.07,.25,.12,.39,.15,.12,.03,.25,.04,.36-.01,.03-.01,.05-.03,.07-.06,.01-.03,.01-.07-.01-.09-.02-.02-.04-.02-.06-.02-.03-.01-.06-.04-.08-.08l.19-.05,.18-.04c.13,.06,.26,.1,.4,.13,.12,.02,.25,.02,.35-.04,.03-.01,.05-.03,.07-.06,.01-.03,0-.07-.02-.09-.02-.01-.04-.01-.06-.02-.03-.01-.06-.04-.08-.08l.19-.05,.18-.05c.13,.05,.26,.09,.4,.11,.12,.01,.24,0,.35-.05,.03-.02,.05-.04,.06-.07,.01-.03,0-.07-.02-.09-.02-.01-.04-.01-.06-.02-.03,0-.07-.04-.08-.07l.19-.06-.02-.06h0l.02,.06,.18-.06c.13,.05,.26,.08,.4,.09,.12,.01,.24,0,.35-.06,.03-.02,.05-.04,.06-.07,.01-.03,0-.07-.02-.09-.02-.01-.04-.01-.06-.02-.03,0-.07-.04-.08-.07l.19-.06s.38-.06,.42-.08c-.03-.03-.38-.17-.38-.17Z"/></g><g><path class="c" d="M16.87,23.46s.06-.03,.09-.01c.02,.01,.03,.04,.04,.05,.02,.03,.06,.05,.09,.06v-.21s-.02-.05-.02-.1v-.1c-.09-.11-.17-.24-.22-.37-.05-.12-.09-.24-.06-.37,0-.03,.02-.06,.04-.08,.02-.02,.06-.03,.09,0,.02,.01,.02,.04,.04,.06,.02,.03,.05,.05,.09,.06v-.41c-.09-.12-.16-.24-.21-.38-.04-.12-.07-.25-.04-.37,0-.03,.02-.06,.04-.08,.02-.02,.06-.03,.09,0,.02,.01,.02,.04,.03,.06,.02,.03,.05,.06,.09,.06v-.41c-.07-.12-.13-.25-.18-.39-.04-.12-.07-.25-.03-.37,0-.03,.02-.06,.05-.08,.03-.02,.07-.02,.09,0,.02,.02,.02,.04,.03,.06,.02,.03,.05,.06,.09,.07v-.21l.02-.2c-.08-.12-.14-.25-.18-.39-.04-.12-.06-.25-.02-.37,0-.03,.02-.06,.05-.08,.03-.02,.07-.02,.09,0,.02,.02,.02,.04,.03,.06,.02,.03,.05,.06,.09,.07l.02-.21,.02-.2c-.07-.12-.13-.26-.17-.39-.04-.12-.06-.25-.02-.37,0-.03,.02-.06,.05-.08,.03-.02,.07-.02,.09,0,.02,.02,.02,.04,.03,.06,.02,.03,.05,.06,.08,.07l.02-.21,.02-.2c-.07-.13-.13-.26-.17-.4-.03-.12-.05-.25-.01-.37,0-.03,.02-.06,.05-.08,.03-.02,.07-.02,.09,0,.02,.02,.02,.04,.03,.06,.01,.03,.05,.06,.08,.07l.02-.21s-.04-.5-.03-.58c.05,.04,.3,.41,.3,.41l.14,.15s.03-.08,.02-.11c0-.02-.02-.04-.02-.07,0-.03,.03-.06,.07-.06,.03,0,.06,.01,.09,.03,.11,.07,.17,.19,.22,.31,.06,.13,.1,.28,.11,.43l.13,.15,.14,.16s.03-.07,.03-.11c0-.02-.02-.04-.01-.07,0-.03,.04-.06,.07-.06,.03,0,.06,.01,.09,.03,.1,.07,.16,.2,.2,.32,.04,.14,.07,.29,.08,.44l.06,.08s.06,.08,.06,.08l-.05,.04h0l.05-.04,.12,.17s.04-.07,.03-.11c0-.02-.01-.05,0-.07,0-.03,.04-.05,.07-.05,.03,0,.06,.02,.08,.04,.09,.08,.14,.21,.18,.34,.04,.14,.05,.29,.05,.44l.11,.17,.12,.17s.04-.07,.04-.11c0-.02,0-.05,0-.07,0-.03,.05-.05,.08-.05,.03,0,.06,.02,.08,.04,.09,.09,.13,.22,.16,.35,.03,.15,.04,.29,.03,.44l.05,.08s.05,.09,.05,.09l.1,.18s.05-.07,.05-.1c0-.02,0-.05,0-.07,.01-.03,.05-.05,.08-.04,.03,0,.06,.03,.08,.05,.08,.09,.12,.22,.14,.35,.02,.14,.02,.29,0,.44l.09,.18,.1,.18s.05-.06,.05-.1c0-.02,0-.05,0-.07,.01-.03,.05-.05,.08-.04,.03,0,.06,.03,.08,.05,.08,.1,.11,.23,.13,.36,.02,.15,.01,.29,0,.44l.09,.18,.09,.19s.05-.06,.05-.1c0-.02,0-.05,0-.07,.01-.03,.05-.04,.08-.04,.03,0,.05,.03,.07,.05,.08,.1,.11,.23,.12,.36,.01,.15,0,.29-.02,.44l.09,.18,.09,.19s.05-.06,.05-.1c0-.02,0-.05,0-.07,.01-.03,.05-.04,.08-.03,.03,0,.05,.03,.07,.06,.08,.1,.1,.23,.11,.36,0,.15,0,.29-.03,.44l.08,.18,.09,.19s.05-.06,.06-.1c0-.02,0-.05,0-.07,.01-.03,.05-.04,.08-.03,.03,0,.05,.03,.07,.06,.07,.1,.1,.23,.11,.36,0,.15,0,.29-.03,.44l.08,.18,.09,.19s.05-.06,.06-.1c0-.02,0-.05,0-.07,.01-.03,.05-.04,.08-.03,.03,0,.05,.03,.07,.06,.07,.1,.1,.23,.1,.36,0,.15,0,.29-.03,.44l.08,.18,.09,.19s.05-.06,.06-.1c0-.02,0-.05,0-.07,.01-.03,.05-.04,.08-.03,.03,0,.05,.03,.07,.06,.08,.1,.1,.23,.11,.36,0,.15,0,.29-.03,.44l.09,.18,.09,.19s.05-.06,.05-.1c0-.02,0-.05,0-.07,.01-.03,.05-.04,.08-.03,.03,0,.05,.03,.07,.06,.08,.1,.1,.23,.11,.36,.01,.15,0,.29-.02,.44l.09,.18,.09,.19s.05-.06,.05-.1c0-.02,0-.05,0-.07,.01-.03,.05-.04,.08-.03s.05,.03,.07,.06c.08,.1,.1,.23,.11,.36,.01,.15,0,.29-.02,.44l.09,.18,.09,.19s.05-.06,.05-.1c0-.02,0-.05,0-.07,.01-.03,.05-.04,.08-.04s.05,.03,.07,.05c.08,.1,.11,.23,.12,.35,.01,.14,.01,.29-.01,.44l.09,.18,.09,.19s.05-.06,.05-.1c0-.02,0-.05,0-.07,.01-.03,.05-.04,.08-.04,.03,0,.05,.03,.07,.05,.08,.1,.11,.23,.12,.35,.01,.14,.01,.29-.01,.44l.09,.18,.09,.19s.05-.06,.05-.1c0-.02,0-.05,0-.07,.01-.03,.05-.04,.08-.04,.03,0,.05,.03,.07,.05,.08,.1,.11,.23,.12,.35,.02,.15,.01,.29,0,.44l.1,.17,.1,.18s.05-.06,.05-.1c0-.02,0-.05,0-.07,.01-.03,.05-.05,.08-.04s.06,.03,.08,.05c.08,.09,.12,.22,.13,.35,.02,.14,.02,.29,0,.44l.1,.17,.1,.18s.05-.06,.05-.1c0-.02,0-.05,0-.07,.01-.03,.05-.05,.08-.04,.03,0,.06,.03,.08,.05,.08,.09,.12,.22,.13,.35,.02,.14,.02,.29,0,.44l.1,.17,.1,.18s.05-.07,.05-.1c0-.02,0-.05,0-.07,.01-.03,.05-.05,.08-.04,.03,0,.06,.03,.08,.05,.08,.09,.11,.22,.14,.35,.02,.14,.03,.29,.02,.43l.1,.17,.11,.18s.05-.07,.04-.1c0-.02,0-.05,0-.07,.01-.03,.05-.05,.08-.04,.03,0,.06,.02,.08,.05,.09,.09,.12,.22,.15,.34,.03,.14,.03,.29,.02,.44l.1,.17,.11,.18s.04-.07,.04-.11c0-.02,0-.05,0-.07,.01-.03,.05-.05,.08-.04,.03,0,.06,.02,.08,.05,.09,.09,.12,.22,.15,.34,.03,.14,.03,.29,.03,.44l.03,.05,.05,.02v.05l.02,.05-.05,.04c.06,.09,.11,.18,.17,.27-.08-.02-.16-.05-.23-.07l-.02,.07-.18-.06c-.13,.05-.27,.08-.4,.09-.12,0-.25,0-.35-.06-.03-.02-.05-.04-.06-.07-.01-.03,0-.07,.02-.09,.02-.01,.04-.01,.06-.01,.03,0,.07-.03,.09-.07l-.18-.07-.18-.07c-.13,.04-.27,.07-.41,.07-.12,0-.25-.01-.35-.09-.02-.02-.05-.04-.06-.07,0-.03,0-.07,.03-.09,.02-.01,.04,0,.06-.01,.04,0,.07-.03,.09-.06l-.18-.08-.17-.08c-.13,.04-.27,.05-.41,.05-.12,0-.24-.03-.34-.11-.02-.02-.05-.04-.05-.08,0-.03,0-.07,.03-.09,.02-.01,.04,0,.06,0,.04,0,.07-.03,.09-.06l-.18-.09-.17-.08c-.14,.03-.28,.04-.41,.02-.12-.01-.24-.04-.33-.12-.02-.02-.04-.05-.05-.08s0-.07,.04-.09c.02,0,.04,0,.06,0,.04,0,.07-.02,.09-.06l-.17-.1-.08-.05s-.08-.05-.08-.05c-.14,.02-.28,.02-.41,0-.12-.02-.24-.05-.33-.14-.02-.02-.04-.05-.05-.08,0-.03,.01-.07,.04-.08,.02,0,.04,0,.06,0,.04,0,.07-.02,.1-.05l-.17-.1-.16-.11c-.14,.01-.28,0-.41-.02-.12-.02-.24-.06-.32-.15-.02-.02-.04-.05-.04-.08,0-.03,.01-.07,.04-.08,.02,0,.04,0,.06,0,.04,0,.07-.02,.1-.04l-.16-.12-.16-.11c-.14,0-.28,0-.41-.04-.12-.02-.24-.08-.32-.17-.02-.02-.04-.05-.04-.09,0-.03,.02-.07,.05-.08,.02,0,.04,0,.06,0,.04,0,.07-.01,.1-.04l-.16-.13-.15-.12c-.14,0-.28-.02-.41-.06-.11-.04-.23-.1-.3-.2-.02-.03-.03-.06-.03-.09,0-.03,.02-.07,.05-.08,.02,0,.04,0,.06,0,.04,0,.07,0,.1-.03l-.15-.14-.14-.13c-.14,0-.28-.04-.4-.09-.11-.05-.22-.11-.29-.22-.02-.03-.03-.06-.03-.09,0-.03,.03-.07,.06-.07,.02,0,.04,0,.06,.01,.04,0,.08,0,.11-.03l-.14-.14-.14-.14c-.14-.02-.27-.07-.39-.13-.11-.06-.22-.13-.28-.24-.01-.03-.03-.06-.02-.09,0-.03,.03-.06,.06-.07,.02,0,.04,.01,.06,.02,.03,.01,.08,0,.11-.02l-.13-.15-.06-.07-.06-.08c-.13-.03-.26-.09-.38-.16-.11-.06-.21-.15-.26-.26-.01-.03-.02-.06-.02-.09s.04-.06,.07-.06c.02,0,.04,.01,.06,.02,.03,.01,.08,.01,.11,0l-.06-.08s-.06-.08-.06-.08l-.11-.16c-.13-.05-.26-.11-.37-.19-.1-.07-.2-.16-.24-.28,0-.03-.01-.06,0-.1s.04-.06,.07-.06c.02,0,.04,.02,.06,.03,.03,.02,.07,.02,.11,0l-.1-.18-.09-.17c-.13-.06-.25-.13-.36-.22-.1-.08-.18-.18-.21-.31,0-.03,0-.07,0-.1,.01-.03,.05-.06,.08-.05,.02,0,.04,.02,.05,.04,.03,.02,.07,.03,.11,.01l-.08-.19-.08-.18c-.12-.07-.24-.15-.34-.26-.08-.09-.16-.2-.18-.33,0-.03,0-.07,.01-.09,.02-.03,.05-.05,.08-.04,.02,0,.04,.03,.05,.04,.03,.02,.07,.03,.11,.02l-.07-.19-.03-.09s-.03-.09-.03-.09c-.11-.08-.22-.18-.31-.29-.08-.1-.15-.21-.16-.34,0-.03,0-.07,.02-.09,.02-.03,.05-.05,.08-.03,.02,0,.03,.03,.05,.05,.03,.03,.06,.04,.1,.03l-.05-.2-.05-.19c-.11-.09-.21-.2-.29-.32-.07-.11-.12-.23-.12-.35,0-.03,0-.07,.02-.09,.02-.03,.06-.04,.09-.03,.02,.01,.03,.03,.05,.05,.02,.03,.06,.04,.1,.04l-.04-.2-.02-.1-.02-.1c-.1-.1-.19-.21-.26-.34-.06-.11-.12-.23-.1-.36,0-.03,.01-.06,.03-.09,.02-.02,.06-.04,.09-.02,.02,.01,.03,.03,.04,.05,.02,.03,.06,.05,.1,.05l-.02-.21-.02-.2c-.1-.11-.18-.23-.24-.36-.05-.11-.1-.24-.08-.37,0-.03,.01-.06,.04-.09Z"/><path class="c" d="M10.29,28.93s.05-.05,.08-.05c.02,0,.04,.02,.06,.04,.03,.02,.06,.02,.1,.02h0l-.08-.19s-.26-.4-.28-.44c.04,0,.43,.25,.43,.25l.15,.03,.04-.02s-.01-.06-.03-.08c-.02-.02-.04-.03-.04-.05-.01-.03,0-.07,.02-.09,.02-.02,.06-.03,.09-.03,.12,0,.23,.06,.33,.13,.11,.08,.21,.18,.3,.3l.18,.05,.19,.05s0-.08-.03-.11c-.01-.02-.03-.03-.04-.05-.01-.03,0-.07,.03-.09s.06-.02,.09-.02c.12,0,.23,.07,.32,.15,.11,.09,.2,.2,.28,.32l.18,.06-.02,.06h0l.02-.06,.09,.03s.09,.03,.09,.03c0-.04,0-.08-.02-.11-.01-.02-.03-.03-.04-.05,0-.03,0-.07,.04-.09,.03-.02,.06-.02,.09-.01,.12,.02,.22,.09,.31,.18,.1,.1,.19,.21,.26,.33l.17,.08,.18,.08s0-.08-.02-.11c-.01-.02-.03-.03-.04-.06,0-.03,.01-.07,.04-.08,.03-.02,.06-.01,.09,0,.12,.02,.22,.1,.3,.19,.09,.1,.17,.23,.23,.36l.17,.08,.18,.09s0-.08-.01-.11c-.01-.02-.03-.03-.03-.06,0-.03,.02-.07,.05-.08,.03-.01,.06-.01,.09,0,.12,.03,.21,.12,.29,.22,.09,.11,.16,.24,.21,.37l.08,.05s.08,.05,.08,.05l.17,.11s.01-.08,0-.11c-.01-.02-.03-.04-.03-.06,0-.03,.02-.07,.05-.08,.03-.01,.06,0,.09,0,.11,.04,.2,.13,.27,.24,.08,.11,.15,.24,.19,.38l.16,.11,.16,.11s.02-.08,0-.11c0-.02-.02-.04-.03-.06,0-.03,.03-.06,.06-.07,.03,0,.06,0,.09,0,.11,.04,.19,.14,.26,.25,.07,.12,.13,.25,.17,.39l.15,.11,.16,.12s.02-.08,0-.11c0-.02-.02-.04-.02-.06,0-.03,.03-.06,.06-.07,.03,0,.06,0,.09,.01,.11,.05,.19,.15,.25,.26,.07,.12,.13,.25,.17,.39l.15,.11,.16,.12s.02-.08,0-.11c0-.02-.02-.04-.02-.06,0-.03,.03-.06,.06-.07,.03,0,.06,0,.09,.01,.11,.05,.19,.15,.25,.25,.07,.12,.13,.25,.17,.39l.15,.11,.16,.11s.02-.08,0-.11c0-.02-.02-.04-.02-.06,0-.03,.03-.06,.06-.07,.03-.01,.06,0,.09,0,.11,.04,.19,.14,.25,.24,.07,.12,.14,.24,.19,.38l.16,.1,.17,.1s.01-.08,0-.11c0-.02-.03-.04-.03-.06,0-.03,.02-.07,.05-.08,.03-.01,.06,0,.09,0,.11,.04,.2,.12,.27,.21,.08,.11,.15,.23,.21,.36l.08,.04s.08,.04,.08,.04l.18,.08s0-.08-.02-.11c-.01-.02-.03-.03-.03-.06,0-.03,.02-.07,.04-.08,.03-.02,.06-.01,.09,0,.11,.02,.21,.1,.29,.19,.09,.1,.17,.22,.25,.34l.17,.07,.18,.07s0-.08-.02-.11c-.01-.02-.03-.03-.04-.05,0-.03,.01-.07,.04-.09,.03-.02,.06-.02,.09-.01,.11,.01,.21,.09,.3,.17,.1,.09,.19,.2,.27,.32l.18,.06,.18,.06s0-.08-.03-.11c-.01-.02-.03-.03-.04-.05,0-.03,0-.07,.03-.09,.03-.02,.06-.02,.09-.02,.12,.01,.22,.08,.31,.16,.1,.09,.19,.2,.27,.32l.18,.06,.18,.07s0-.08-.03-.11c-.01-.02-.03-.03-.04-.05,0-.03,0-.07,.04-.09,.03-.02,.06-.02,.09-.02,.12,.01,.22,.09,.31,.17,.1,.09,.19,.21,.26,.33l.17,.07,.18,.07s0-.08-.02-.11c-.01-.02-.03-.03-.04-.05,0-.03,.01-.07,.04-.08,.03-.02,.06-.02,.09-.01,.12,.02,.22,.1,.3,.19,.1,.11,.18,.23,.24,.35l.17,.08s.05,.02,.09,.04l.08,.05s0-.08,0-.12c-.01-.02-.03-.04-.03-.06,0-.03,.02-.07,.05-.08,.03-.01,.06,0,.09,0,.12,.04,.21,.13,.28,.23,.09,.11,.15,.24,.2,.37l.16,.1,.17,.1s.01-.08,0-.11c0-.02-.02-.04-.03-.06,0-.03,.02-.07,.05-.08,.03-.01,.06,0,.08,0,.11,.03,.19,.12,.26,.21,.09,.1,.16,.22,.23,.35,0,0,.04,.02,.08,.04l.09,.03,.18,.06s0-.08-.02-.11c-.01-.02-.03-.03-.04-.05,0-.03,.01-.07,.04-.09,.03-.02,.06-.02,.08-.02,.11,0,.2,.09,.29,.16,.06,.05,.11,.1,.17,.16l.23-.04,.04,.21h.03v.07s.1,.02,.15,.03c-.05,.01-.11,.02-.16,.03v.07h-.03l-.04,.21-.24-.06c-.06,.05-.13,.1-.2,.15-.11,.07-.23,.12-.35,.11-.03,0-.06,0-.09-.03-.02-.02-.04-.06-.02-.09,.01-.02,.03-.03,.05-.05,.03-.02,.05-.06,.05-.1l-.2,.03-.19,.03c-.1,.11-.22,.2-.34,.26-.11,.06-.23,.1-.35,.09-.03,0-.06-.01-.08-.04-.02-.02-.03-.06-.02-.09,.01-.02,.03-.03,.05-.04,.03-.02,.05-.06,.05-.1l-.2,.02-.19,.02c-.11,.1-.22,.18-.35,.25-.11,.06-.23,.11-.36,.08-.03,0-.06-.02-.08-.04-.02-.02-.03-.07-.01-.09,.01-.02,.04-.03,.05-.04,.03-.02,.05-.06,.06-.1h-.39c-.11,.1-.23,.17-.36,.23-.11,.05-.24,.09-.36,.06-.03,0-.06-.02-.08-.04-.02-.03-.03-.07,0-.09,.01-.02,.04-.03,.06-.04,.03-.02,.05-.06,.06-.1h-.3s-.1,0-.1,0c-.11,.08-.24,.15-.37,.19-.12,.04-.24,.07-.36,.03-.03,0-.06-.02-.08-.05-.02-.03-.02-.07,0-.09,.01-.02,.04-.02,.06-.03,.03-.02,.06-.05,.07-.09h-.2l-.19-.02c-.12,.08-.25,.15-.38,.19-.12,.04-.25,.06-.36,.01-.03-.01-.06-.03-.08-.05-.02-.03-.02-.07,0-.09,.02-.02,.04-.02,.06-.03,.03-.02,.06-.05,.07-.09l-.2-.02-.19-.03c-.12,.07-.25,.13-.39,.16-.12,.03-.25,.04-.36,0-.03-.01-.06-.03-.07-.06-.02-.03-.02-.07,0-.09,.02-.02,.04-.02,.06-.03,.03-.01,.06-.05,.07-.08l-.2-.03-.19-.03c-.13,.07-.26,.11-.4,.14-.12,.03-.25,.04-.36-.02-.03-.01-.06-.03-.07-.06-.02-.03-.01-.07,.01-.09,.02-.02,.04-.02,.06-.02,.03-.01,.06-.04,.08-.08l-.2-.04-.19-.04c-.13,.06-.26,.1-.4,.12-.12,.02-.25,.02-.36-.04-.03-.02-.05-.04-.07-.07-.01-.03,0-.07,.02-.09,.02-.01,.04-.01,.06-.02,.04,0,.07-.04,.08-.08l-.19-.06-.19-.06c-.13,.05-.27,.08-.41,.09-.12,0-.25,0-.36-.07-.03-.02-.05-.04-.06-.07-.01-.03,0-.07,.02-.09,.02-.01,.04-.01,.06-.01,.04,0,.07-.03,.09-.07,0,0-.05-.02-.1-.03l-.09-.04-.18-.07c-.14,.04-.28,.07-.42,.06-.12,0-.25-.02-.35-.1-.03-.02-.05-.04-.06-.07,0-.03,0-.07,.03-.09,.02-.01,.04,0,.07-.01,.04,0,.07-.03,.09-.06l-.09-.04s-.09-.04-.09-.04l-.17-.09c-.14,.03-.28,.04-.42,.03-.12-.01-.25-.05-.35-.13-.02-.02-.05-.05-.05-.08,0-.03,0-.07,.04-.09,.02,0,.04,0,.07,0,.04,0,.07-.02,.1-.05l-.18-.1-.17-.11c-.14,.01-.28,0-.42-.02-.12-.03-.24-.08-.33-.17-.02-.02-.04-.05-.04-.09,0-.03,.01-.07,.05-.08,.02,0,.04,0,.07,0,.04,0,.08-.01,.1-.04l-.17-.12-.08-.06-.08-.06c-.14,0-.28-.03-.42-.07-.12-.04-.24-.1-.31-.21-.02-.03-.03-.06-.03-.09,0-.03,.02-.07,.05-.08,.02,0,.04,0,.06,.01,.04,0,.08,0,.11-.03l-.15-.14-.07-.07s-.07-.07-.07-.07c-.14-.02-.27-.06-.4-.13-.11-.05-.23-.13-.29-.24-.02-.03-.03-.06-.02-.09,0-.03,.03-.07,.06-.07,.02,0,.04,.01,.06,.02,.04,.01,.08,0,.11-.02,0,0-.04-.04-.07-.08l-.06-.08-.12-.16c-.14-.04-.27-.09-.39-.16-.11-.06-.21-.15-.26-.27-.01-.03-.02-.06-.01-.1,0-.03,.04-.06,.07-.06,.02,0,.04,.02,.06,.03,.03,.02,.07,.01,.11,0l-.12-.17-.11-.16c-.14-.05-.26-.11-.38-.2-.1-.08-.2-.17-.24-.29-.01-.03-.02-.06,0-.1,0-.03,.04-.06,.07-.06,.02,0,.04,.02,.06,.03,.03,.02,.07,.02,.11,0l-.11-.18s-.03-.04-.05-.09l-.05-.09c-.13-.06-.25-.13-.36-.23-.1-.08-.19-.18-.22-.3,0-.03-.01-.07,0-.1,.01-.03,.04-.06,.07-.05,.02,0,.04,.02,.06,.03,.03,.02,.07,.02,.11,0l-.1-.19,.06-.03h0l-.06,.03-.09-.18c-.13-.06-.25-.14-.35-.24-.09-.08-.18-.19-.21-.31,0-.03-.01-.07,0-.1s.04-.06,.08-.05c.02,0,.04,.02,.06,.03,.03,.02,.07,.03,.11,.01l-.09-.19-.09-.18c-.13-.07-.24-.15-.35-.25-.09-.09-.17-.19-.2-.31,0-.03-.01-.06,0-.1Z"/><path class="c" d="M15.46,41.94l.15-.12h0s-.06-.05-.1-.04c-.02,0-.04,.01-.06,0-.03,0-.05-.05-.05-.08,0-.03,.02-.06,.04-.08,.08-.09,.19-.14,.31-.17,.13-.03,.27-.05,.4-.05l.15-.12,.16-.12s-.06-.05-.1-.05c-.02,0-.04,0-.06,0-.03-.01-.05-.05-.04-.08,0-.03,.02-.06,.04-.08,.08-.09,.2-.13,.32-.15,.13-.02,.27-.03,.41-.01l.15-.1,.03,.05h0l-.03-.05,.16-.11s-.06-.05-.09-.05c-.02,0-.04,0-.06,0-.03-.01-.04-.05-.04-.08,0-.03,.02-.06,.04-.08,.08-.09,.21-.12,.32-.13,.14-.01,.27,0,.41,.02l.16-.09,.17-.09s-.06-.05-.09-.06c-.02,0-.04,0-.06,0-.03-.01-.04-.05-.03-.09s.03-.06,.05-.08c.09-.08,.21-.11,.33-.12,.14,0,.27,.01,.41,.05l.17-.08,.18-.08s-.05-.06-.09-.06c-.02,0-.04,0-.06-.01-.03-.02-.04-.06-.03-.09,0-.03,.03-.05,.05-.07,.09-.07,.22-.09,.33-.1,.13,0,.27,.03,.4,.07l.17-.06,.18-.07s-.05-.06-.08-.07c-.02,0-.04,0-.06-.02-.03-.02-.03-.06-.02-.09,.01-.03,.03-.05,.06-.07,.1-.07,.22-.08,.34-.07,.13,0,.26,.03,.39,.09l.18-.05,.19-.05s-.05-.07-.08-.08c-.02,0-.04,0-.06-.02-.02-.02-.03-.06-.02-.09,.01-.03,.04-.05,.06-.06,.1-.06,.23-.06,.35-.04,.13,.02,.26,.06,.39,.11,0,0,.18-.04,.18-.04l.19-.04s-.04-.07-.07-.08c-.02,0-.04-.01-.06-.03-.02-.02-.03-.06-.01-.09,.01-.03,.04-.05,.07-.06,.11-.05,.23-.04,.35-.01,.13,.03,.26,.08,.38,.14l.18-.04,.19-.02s-.04-.07-.07-.09c-.02,0-.04-.01-.06-.03-.02-.02-.02-.07,0-.09,.02-.03,.04-.04,.07-.05,.11-.04,.23-.02,.35,.01,.13,.04,.25,.1,.37,.17l.18-.02h.1s.1-.02,.1-.02c0-.04-.03-.07-.06-.09-.02,0-.04-.01-.05-.03-.02-.02-.02-.07,0-.09,.02-.03,.05-.04,.07-.05,.11-.04,.23-.01,.34,.03,.13,.05,.25,.11,.36,.19h.18l.19-.03s-.03-.07-.06-.09c-.02-.01-.04-.02-.05-.03-.02-.02-.02-.07,0-.09,.02-.03,.04-.04,.07-.05,.11-.04,.23-.01,.34,.03,.13,.04,.25,.1,.36,.18l.18-.02,.19-.02s-.03-.07-.07-.09c-.02,0-.04-.01-.05-.03-.02-.02-.02-.07,0-.09,.02-.03,.04-.04,.07-.05,.11-.04,.22-.02,.34,.01,.13,.04,.25,.09,.37,.16l.18-.03,.19-.03s-.04-.07-.07-.08c-.02,0-.04-.01-.06-.03-.02-.02-.02-.07,0-.09,.01-.03,.04-.04,.07-.06,.1-.05,.22-.04,.33-.01,.13,.03,.26,.08,.38,.14l.18-.05,.18-.05s-.04-.07-.08-.08c-.02,0-.04,0-.06-.02-.02-.02-.03-.06-.02-.09,.01-.03,.04-.05,.06-.06,.1-.06,.22-.05,.33-.04,.1,.01,.21,.04,.31,.07l.07-.1,.12,.09,.06-.02,.02,.06c.05-.02,.1-.04,.15-.06-.03,.04-.05,.08-.08,.13l.05,.04-.06,.09,.05,.13-.1,.03c0,.11-.01,.23-.03,.34-.03,.12-.07,.25-.16,.33-.02,.02-.05,.04-.08,.04-.03,0-.07-.02-.08-.05,0-.02,0-.04,0-.07,0-.04-.01-.08-.04-.11l-.12,.17-.06,.08-.06,.08c0,.15-.02,.29-.06,.43-.03,.12-.08,.25-.18,.32-.02,.02-.05,.04-.08,.04-.03,0-.07-.02-.07-.05,0-.02,0-.04,0-.07,0-.04,0-.08-.03-.11l-.13,.16-.12,.15c0,.15-.04,.29-.08,.43-.04,.12-.1,.24-.2,.31-.03,.02-.05,.03-.09,.03-.03,0-.06-.03-.07-.06,0-.02,0-.04,.01-.07,0-.04,0-.08-.03-.11l-.14,.15-.13,.14c-.02,.15-.05,.29-.11,.42-.05,.12-.12,.23-.22,.3-.03,.02-.06,.03-.09,.02-.03,0-.06-.03-.07-.06,0-.02,.01-.04,.02-.06,.01-.04,0-.08-.02-.11,0,0-.03,.04-.07,.07l-.07,.07-.14,.13c-.03,.14-.07,.29-.14,.41-.06,.11-.14,.22-.25,.27-.03,.01-.06,.02-.09,.02-.03,0-.06-.04-.06-.07,0-.02,.01-.04,.02-.06,.01-.04,.01-.08,0-.11l-.08,.06s-.08,.06-.08,.06l-.15,.11c-.04,.14-.1,.27-.18,.39-.07,.1-.16,.2-.28,.24-.03,.01-.06,.02-.09,0-.03-.01-.05-.04-.05-.08,0-.02,.02-.04,.03-.06,.02-.03,.02-.08,0-.11l-.17,.11-.17,.09c-.06,.13-.14,.26-.23,.37-.08,.09-.19,.18-.31,.2-.03,0-.06,0-.09,0-.03-.02-.05-.05-.04-.08,0-.02,.02-.04,.04-.06,.02-.03,.03-.07,.02-.11l-.18,.08s-.04,.02-.09,.04l-.09,.03c-.08,.12-.17,.23-.28,.33-.09,.09-.21,.15-.33,.15-.03,0-.06,0-.09-.02-.03-.02-.04-.06-.03-.09,0-.02,.03-.03,.04-.05,.03-.03,.04-.07,.04-.11l-.19,.05s-.18,.05-.18,.04c-.09,.11-.2,.2-.32,.28-.05,.03-.11,.06-.17,.09-.06,.02-.12,.02-.18,.01-.03,0-.06-.01-.08-.04-.02-.02-.03-.07-.02-.09,.01-.02,.03-.03,.05-.04,.03-.02,.05-.06,.05-.1h-.2l-.19,.03c-.11,.09-.22,.18-.35,.24-.11,.05-.24,.08-.36,.05-.03,0-.06-.02-.08-.05-.02-.03-.02-.07,0-.09,.01-.02,.04-.02,.05-.04,.03-.02,.05-.05,.06-.09h-.38c-.12,.08-.24,.13-.37,.17-.12,.04-.24,.06-.36,.02-.03-.01-.06-.03-.07-.05-.02-.03-.02-.07,0-.09,.02-.02,.04-.02,.06-.03,.03-.02,.06-.05,.07-.09l-.2-.02s-.19-.03-.19-.03c-.12,.07-.25,.12-.39,.15-.12,.03-.25,.04-.36-.01-.03-.01-.05-.03-.07-.06-.01-.03-.01-.07,.01-.09,.02-.02,.04-.02,.06-.02,.03-.01,.06-.04,.08-.08l-.19-.05-.18-.04c-.13,.06-.26,.1-.4,.13-.12,.02-.25,.02-.35-.04-.03-.01-.05-.03-.07-.06-.01-.03,0-.07,.02-.09,.02-.01,.04-.01,.06-.02,.03-.01,.06-.04,.08-.08l-.19-.05-.18-.05c-.13,.05-.26,.09-.4,.11-.12,.01-.24,0-.35-.05-.03-.02-.05-.04-.06-.07-.01-.03,0-.07,.02-.09,.02-.01,.04-.01,.06-.02,.03,0,.07-.04,.08-.07l-.19-.06,.02-.06h0l-.02,.06-.18-.06c-.13,.05-.26,.08-.4,.09-.12,.01-.24,0-.35-.06-.03-.02-.05-.04-.06-.07s0-.07,.02-.09c.02-.01,.04-.01,.06-.02,.03,0,.07-.04,.08-.07l-.19-.06s-.4,0-.44-.02c.03-.03,.41-.23,.41-.23Z"/></g></g><g><path class="h" d="M31.7,39.16h-.16c0,.36,.09,.67,.18,.88,.09,.21,.17,.32,.18,.31,.02,0-.03-.14-.09-.35-.05-.21-.11-.51-.11-.84Z"/><path class="h" d="M45.42,32.01h0s0,0,0,0Z"/><polygon class="h" points="45.42 32.01 45.42 32.01 45.42 32.01 45.42 32.01"/><path class="h" d="M46.23,31.09h0c.27-.34,.53-.7,.78-1.08l-.13-.14c-.2,.31-.41,.6-.63,.88,.02-.46,0-.78-.02-.78-.03,0-.1,.42-.14,.99-.19,.23-.39,.44-.59,.65-.1-.49-.14-.94-.15-1.28,0-.37,0-.61-.02-.61-.01,0-.06,.23-.08,.61-.02,.36,0,.87,.12,1.41-.28,.28-.57,.55-.87,.8-.16-.45-.24-.87-.28-1.19-.04-.39-.05-.64-.07-.64,0,0-.02,.06-.02,.17,0,.11-.03,.28-.01,.48,.02,.34,.09,.8,.25,1.29-.27,.21-.53,.42-.81,.61,0-.05-.01-.1-.02-.15l-.04-.42c-.03-.27-.05-.51-.05-.72-.02-.41-.04-.66-.05-.66-.02,0-.03,.25-.05,.66-.01,.21,0,.45,.01,.73l.03,.43c0,.07,.01,.15,.03,.23-.37,.25-.74,.48-1.11,.69,.03-1.02,.12-1.79,.08-1.8-.02,0-.06,.24-.12,.63-.06,.33-.09,.77-.12,1.26-.37,.2-.74,.39-1.1,.56,.05-.53,.11-.99,.17-1.35,.08-.44,.13-.71,.11-.71,0,0-.03,.06-.07,.18-.04,.12-.09,.29-.14,.51-.09,.37-.18,.88-.24,1.45-.37,.17-.73,.32-1.08,.45v-.07c.01-.07,.02-.14,.03-.21l.04-.2c.03-.13,.04-.26,.07-.37l.09-.31c.02-.1,.05-.18,.08-.26l.07-.19c.04-.11,.05-.17,.05-.17,0,0-.04,.05-.09,.15l-.09,.18c-.04,.07-.08,.15-.11,.25l-.11,.31c-.04,.11-.06,.24-.09,.37l-.05,.2c-.01,.07-.02,.14-.03,.22l-.02,.15c-.23,.09-.46,.17-.67,.25-.15,.05-.3,.1-.46,.15,.12-.34,.24-.64,.35-.87,.16-.32,.26-.51,.25-.52-.01,0-.15,.16-.34,.47-.14,.24-.31,.58-.45,.98-.43,.13-.86,.26-1.29,.37,.17-.37,.32-.71,.45-.96,.18-.35,.28-.58,.26-.59s-.15,.19-.35,.53c-.17,.27-.36,.64-.56,1.06-.45,.11-.9,.21-1.36,.3,.13-.25,.25-.48,.37-.64,.16-.26,.26-.43,.24-.44s-.14,.13-.33,.38c-.16,.18-.31,.44-.48,.74-.41,.08-.82,.15-1.23,.22,.12-.18,.25-.33,.35-.45,.17-.19,.27-.31,.26-.33,0-.01-.14,.08-.33,.25-.14,.14-.32,.33-.49,.56-.3,.05-.59,.09-.89,.13,.09-.11,.17-.21,.24-.3,.16-.18,.27-.28,.26-.3,0-.01-.14,.06-.33,.22-.11,.1-.25,.24-.38,.4-.8,.11-1.6,.2-2.4,.29-.1,.01-.15-.13-.06-.19,.74-.51,1.46-1.07,2.14-1.68,.41-.12,.77-.23,1.04-.33,.29-.1,.47-.17,.46-.19,0-.02-.19,.02-.49,.08-.2,.05-.46,.11-.74,.18,.32-.29,.63-.59,.93-.9,.09-.02,.18-.03,.28-.05,.13-.02,.29-.06,.4-.1,.24-.1,.45-.17,.62-.26,.35-.17,.55-.29,.54-.3,0-.01-.23,.06-.58,.2-.18,.07-.4,.13-.63,.22-.12,.05-.23,.07-.37,.08h-.06c.41-.42,.8-.86,1.18-1.32,.51-.21,.97-.39,1.28-.58,.35-.19,.55-.31,.55-.33-.02-.04-.69,.29-1.62,.65,.42-.52,.83-1.07,1.21-1.63,.49-.11,.9-.28,1.19-.43,.31-.17,.48-.3,.48-.31,0-.02-.2,.08-.52,.22-.26,.11-.61,.23-1.01,.33,.27-.4,.53-.81,.78-1.23h0c.96-.47,1.75-.8,1.73-.84,0-.02-.21,.05-.54,.16-.28,.09-.65,.25-1.06,.44,.27-.46,.53-.93,.77-1.41,.43-.13,.79-.3,1.05-.45,.27-.17,.43-.29,.42-.3,0-.02-.18,.07-.47,.2-.23,.1-.54,.23-.9,.34,.28-.57,.54-1.15,.78-1.74,.46-.2,.83-.45,1.08-.67,.27-.24,.41-.41,.4-.42-.01-.01-.18,.13-.46,.34-.23,.16-.55,.36-.93,.53,.21-.52,.4-1.05,.57-1.58,.27-.16,.52-.31,.67-.46,.16-.14,.26-.24,.25-.25-.02-.03-.36,.22-.84,.48,.14-.44,.27-.89,.39-1.35,.41-.31,.7-.59,.68-.62-.02-.02-.28,.13-.62,.37,.1-.41,.2-.83,.28-1.25h0c.22-.14,.4-.26,.39-.3,0-.02-.16,0-.36,.09,.11-.56,.2-1.12,.27-1.68l-.16-.02c-.07,.54-.16,1.08-.26,1.62-.1-.15-.2-.27-.29-.35-.13-.11-.23-.16-.23-.15-.01,.01,.06,.1,.16,.22,.09,.12,.21,.3,.32,.51-.08,.41-.18,.82-.29,1.23-.28-.44-.51-.76-.53-.74-.03,.02,.18,.44,.48,.96-.12,.46-.26,.91-.41,1.36-.17-.37-.32-.7-.46-.93-.16-.28-.26-.44-.27-.43-.03,.02,.29,.71,.65,1.59-.18,.52-.37,1.03-.58,1.54-.23-.48-.48-.88-.68-1.16-.22-.31-.38-.48-.39-.47-.01,.01,.11,.21,.31,.53,.19,.32,.44,.78,.68,1.3-.24,.58-.51,1.14-.79,1.7-.15-.4-.29-.76-.43-1.02-.16-.33-.27-.54-.29-.53-.04,.02,.29,.75,.62,1.74-.25,.48-.52,.96-.8,1.43-.13-.42-.24-.78-.37-1.05-.14-.32-.24-.52-.25-.51-.04,.02,.25,.76,.51,1.74-.27,.44-.55,.87-.84,1.29-.18-.69-.35-1.19-.38-1.18-.03,0,.08,.6,.26,1.35-.4,.56-.81,1.11-1.25,1.63-.12-.89-.24-1.55-.26-1.54-.03,0,.02,.75,.13,1.71-.41,.49-.84,.97-1.29,1.42-.02-.44-.01-.84-.01-1.14,0-.38,0-.62-.03-.62-.02,0-.04,.23-.08,.61-.03,.33-.06,.79-.04,1.3-.37,.37-.75,.73-1.14,1.07-.05-.15-.04-.33-.04-.48,0-.23-.01-.45-.02-.62-.05-.35-.09-.56-.11-.56-.02,0-.01,.22,0,.56l-.02,.61c0,.12-.02,.24,0,.38,0,.07,.03,.15,.06,.23-.78,.68-1.59,1.3-2.44,1.86-.06,.04-.15,0-.15-.09l-.02-3.57c.26-.31,.48-.59,.62-.83,.16-.24,.24-.4,.23-.41-.03-.02-.37,.43-.85,.99v-1.6c.35-.38,.66-.72,.86-1.01,.22-.29,.34-.47,.33-.48-.03-.03-.51,.56-1.2,1.26v-1.8c.77-.89,1.35-1.64,1.33-1.66-.02-.02-.61,.59-1.34,1.41v-1.97h-.01v-.02c.43-.41,.77-.82,1.01-1.15,.13-.18,.23-.33,.29-.44,.07-.11,.1-.17,.09-.17-.01-.01-.18,.2-.46,.54-.23,.27-.55,.62-.93,.99v-1.87c.51-.51,.92-1.03,1.2-1.43,.14-.2,.24-.38,.31-.5,.07-.12,.1-.19,.1-.19-.02-.01-.19,.24-.49,.63-.27,.35-.66,.8-1.13,1.27v-2.06h0c.43-.46,.82-.88,1.05-1.24,.24-.34,.38-.55,.37-.56-.01,0-.18,.18-.45,.49-.23,.3-.59,.66-.98,1.08v-2.06l.02,.04c.26-.27,.49-.52,.63-.73,.14-.2,.22-.33,.21-.34-.03-.02-.39,.39-.88,.88v-1.66c.38-.46,.66-.86,.64-.88-.02-.02-.3,.25-.65,.64v-1.5h0c.29-.39,.49-.75,.47-.77-.02-.02-.23,.2-.48,.52v-1.17c.1-.07,.18-.16,.23-.23,.06-.1,.09-.16,.08-.17-.02-.02-.14,.09-.31,.21v-.92l-.14,.02v.9c-.18-.12-.3-.23-.32-.22-.01,0,.01,.08,.08,.17,.05,.07,.14,.16,.24,.24v1.1c-.23-.28-.41-.47-.43-.46-.02,.02,.16,.34,.43,.72v1.5c-.33-.36-.59-.61-.61-.59-.02,.02,.23,.39,.6,.83v1.67c-.48-.47-.81-.86-.84-.84-.01,.01,.07,.14,.21,.34,.14,.21,.37,.45,.63,.73v1.98c-.38-.4-.73-.75-.95-1.04-.26-.31-.44-.5-.45-.49-.01,0,.13,.22,.37,.56,.22,.34,.6,.75,1.02,1.21v2.06c-.46-.45-.84-.9-1.11-1.24-.3-.39-.47-.64-.49-.63,0,0,.03,.07,.1,.19,.07,.12,.17,.3,.31,.5,.27,.39,.67,.9,1.18,1.4v1.88c-.37-.36-.68-.7-.91-.97-.28-.34-.45-.55-.46-.54,0,0,.03,.07,.09,.17,.07,.1,.16,.26,.29,.44,.23,.32,.57,.72,.98,1.12v1.99c-.73-.82-1.31-1.42-1.33-1.39-.02,.02,.56,.75,1.33,1.64v1.8c-.69-.7-1.17-1.27-1.2-1.25-.01,.01,.11,.19,.33,.48,.19,.28,.51,.62,.86,.99v1.61c-.48-.56-.82-1-.85-.98-.01,0,.07,.16,.23,.41,.13,.23,.36,.51,.61,.82v3.55c-.01,.08-.1,.13-.16,.09-.83-.57-1.63-1.21-2.4-1.89,.02-.06,.03-.12,.04-.17,.01-.14,0-.26,0-.38l-.02-.61c.02-.34,.02-.56,0-.56-.02,0-.06,.21-.11,.56,0,.18-.02,.39-.02,.62,0,.14,0,.29-.02,.42-.39-.36-.78-.72-1.15-1.1,.02-.47-.01-.89-.04-1.2-.03-.38-.06-.61-.08-.61-.02,0-.03,.24-.03,.62,0,.28,0,.64,0,1.04-.44-.46-.87-.93-1.28-1.43,.1-.91,.14-1.6,.11-1.61-.03,0-.14,.61-.25,1.44-.43-.52-.84-1.06-1.24-1.62,.17-.71,.27-1.26,.24-1.27-.03,0-.18,.46-.36,1.1-.29-.42-.57-.84-.84-1.28,.26-.95,.53-1.65,.49-1.67-.01,0-.11,.19-.25,.51-.12,.25-.23,.59-.35,.98-.28-.46-.55-.93-.8-1.41,.33-.96,.64-1.67,.6-1.69-.01,0-.12,.19-.29,.53-.14,.25-.27,.59-.41,.98-.29-.55-.55-1.11-.8-1.67,.24-.52,.48-.97,.67-1.29,.2-.32,.32-.52,.31-.53-.01,0-.17,.16-.39,.47-.2,.28-.44,.68-.67,1.15-.21-.5-.41-1.01-.59-1.52,.37-.89,.69-1.58,.66-1.6-.01,0-.12,.16-.27,.43-.14,.24-.3,.57-.46,.94-.15-.44-.29-.89-.42-1.34,.31-.53,.52-.98,.5-.99-.02-.02-.27,.32-.55,.78-.11-.41-.21-.82-.3-1.23h.02c.11-.22,.24-.41,.34-.54,.1-.13,.17-.21,.16-.22,0-.01-.1,.04-.23,.15-.1,.09-.22,.23-.33,.4-.12-.57-.22-1.14-.29-1.72l-.13,.07c.07,.56,.16,1.12,.27,1.67-.18-.09-.33-.1-.34-.08-.01,.03,.16,.15,.38,.29,.09,.42,.18,.83,.29,1.24-.33-.23-.59-.38-.61-.36-.02,.03,.27,.3,.67,.61,.12,.46,.26,.91,.41,1.36-.48-.27-.82-.52-.84-.49,0,.01,.08,.11,.25,.25,.15,.15,.4,.3,.68,.47,.18,.53,.38,1.06,.59,1.59-.39-.17-.71-.37-.95-.54-.28-.21-.45-.35-.46-.34,0,0,.13,.18,.4,.42,.26,.22,.64,.48,1.11,.68,.25,.59,.52,1.17,.81,1.74-.38-.12-.71-.25-.95-.36-.28-.13-.46-.22-.47-.2,0,.01,.15,.13,.42,.3,.27,.15,.65,.33,1.1,.47,.25,.49,.52,.97,.8,1.44-.44-.2-.83-.38-1.14-.48-.33-.12-.53-.18-.54-.16-.01,.04,.77,.38,1.73,.85l.03-.07c.27,.45,.55,.89,.85,1.32-.44-.1-.82-.23-1.11-.35-.32-.14-.51-.24-.52-.22,0,.01,.17,.14,.48,.31,.31,.16,.76,.35,1.28,.45,.4,.57,.81,1.12,1.25,1.66-1-.38-1.73-.74-1.75-.7,0,.01,.2,.14,.55,.33,.34,.2,.84,.4,1.4,.63h0c.37,.44,.76,.87,1.16,1.29-.06,0-.11-.02-.17-.02-.14-.02-.25-.04-.37-.08-.24-.08-.46-.15-.63-.22-.35-.14-.57-.22-.58-.2,0,.01,.2,.13,.54,.3,.17,.09,.39,.16,.62,.26,.11,.05,.26,.09,.4,.1,.14,.02,.27,.04,.4,.07,.3,.31,.62,.61,.94,.91-.33-.09-.63-.16-.86-.22-.3-.07-.48-.1-.49-.08,0,.02,.17,.09,.46,.19,.29,.1,.7,.23,1.15,.36h0c.66,.59,1.35,1.14,2.07,1.66,.08,.06,.04,.2-.06,.19-.81-.09-1.62-.18-2.43-.29-.13-.17-.27-.31-.38-.41-.19-.16-.32-.23-.33-.22-.01,.01,.09,.12,.26,.3,.07,.08,.16,.19,.25,.3-.3-.04-.59-.08-.89-.13-.17-.24-.35-.43-.49-.57-.19-.17-.33-.26-.33-.25-.01,.01,.09,.13,.26,.33,.1,.12,.22,.28,.35,.46-.41-.07-.82-.14-1.23-.22-.17-.3-.33-.57-.49-.75-.19-.24-.31-.39-.33-.38s.08,.18,.24,.44c.12,.17,.24,.39,.37,.65-.45-.09-.91-.19-1.35-.3-.2-.42-.39-.8-.57-1.07-.2-.34-.34-.54-.35-.53s.09,.23,.26,.59c.14,.25,.29,.59,.46,.96-.43-.11-.86-.23-1.29-.37-.14-.4-.3-.74-.45-.99-.19-.31-.33-.48-.34-.47-.02,.01,.09,.21,.25,.52,.11,.23,.24,.53,.35,.88-.16-.05-.32-.11-.48-.16-.21-.07-.43-.15-.65-.24l-.02-.16c0-.07-.01-.15-.03-.22l-.05-.2c-.03-.13-.05-.26-.09-.37l-.11-.31c-.03-.1-.07-.18-.11-.25l-.09-.18c-.05-.1-.09-.15-.09-.15,0,0,0,.06,.05,.17l.07,.19c.03,.07,.06,.16,.08,.26l.09,.31c.03,.11,.05,.24,.07,.37l.04,.2c0,.07,.01,.14,.02,.21v.08c-.34-.13-.7-.28-1.07-.45-.05-.58-.15-1.09-.24-1.47-.05-.22-.11-.39-.14-.51-.04-.12-.06-.18-.07-.18-.02,0,.04,.28,.11,.71,.06,.36,.13,.84,.17,1.37-.36-.16-.73-.35-1.1-.55-.03-.51-.05-.96-.12-1.3-.06-.39-.11-.63-.12-.63-.04,0,.05,.79,.08,1.84-.38-.21-.75-.43-1.13-.68,.02-.09,.03-.19,.04-.27l.03-.43c.02-.27,.03-.52,.01-.73-.01-.41-.03-.67-.05-.66-.02,0-.04,.25-.05,.66,0,.2-.03,.45-.05,.72l-.04,.42c0,.07-.01,.13-.03,.2-.28-.19-.55-.39-.82-.61,.18-.51,.25-.98,.27-1.34,.01-.2,0-.37-.01-.48,0-.11-.02-.17-.02-.17-.02,0-.03,.25-.07,.64-.04,.34-.13,.78-.3,1.25-.3-.24-.59-.51-.87-.78,.13-.57,.15-1.1,.13-1.48-.03-.38-.07-.61-.08-.61-.02,0-.01,.24-.02,.61-.01,.35-.06,.82-.17,1.34-.19-.2-.38-.41-.57-.62-.05-.62-.12-1.09-.15-1.09-.03,0-.04,.37-.02,.87-.23-.29-.45-.58-.65-.9l-.14,.07c.24,.38,.5,.73,.77,1.06-.38-.15-.68-.23-.68-.2,0,.03,.33,.23,.78,.42l.03-.06c.16,.19,.32,.37,.48,.55l-.1-.02c-.14-.03-.26-.06-.37-.08-.21-.04-.34-.05-.35-.04,0,.02,.12,.07,.32,.14,.1,.04,.22,.08,.36,.12l.21,.06,.11,.03h.03c.28,.29,.56,.56,.86,.81h0c-.64-.06-1.13-.14-1.14-.1,0,.02,.14,.07,.39,.13,.24,.08,.59,.12,.97,.16h0c.23,.18,.46,.36,.69,.53-.68-.07-1.18-.15-1.19-.12,0,.02,.16,.07,.44,.14,.26,.08,.62,.13,1.03,.18,.37,.25,.74,.49,1.1,.7h-.28c-.18,.02-.35,.04-.49,.05-.28,.02-.45,.05-.45,.07s.17,.03,.45,.04c.14,0,.3,0,.49,0h.29c.1,0,.2,0,.26,.03l.02-.03c.32,.18,.63,.34,.94,.49-.36,.03-.67,.06-.91,.12-.28,.05-.44,.1-.44,.11,0,.04,.69-.04,1.55-.08v-.06c.4,.19,.8,.36,1.18,.5-.4,.1-.75,.21-1.03,.25-.33,.06-.54,.11-.53,.13,0,.02,.21,0,.55-.02,.34-.01,.79-.13,1.29-.25,.11,.04,.21,.08,.31,.11,.22,.08,.44,.15,.67,.22-.59,.22-1.03,.42-1.02,.45,0,.03,.58-.12,1.27-.36h0c.43,.12,.85,.24,1.29,.34-.3,.15-.58,.27-.8,.35-.26,.09-.42,.14-.42,.16,0,.01,.17,0,.44-.06,.27-.06,.64-.19,1.02-.4,.44,.1,.88,.2,1.32,.28-.25,.13-.48,.22-.66,.28-.22,.06-.36,.09-.35,.11,0,.01,.14,.02,.38,0,.23-.04,.55-.13,.86-.31l-.02-.03c.42,.08,.84,.15,1.26,.22-.38,.21-.68,.36-.67,.39,0,.03,.41-.06,.86-.31l-.03-.06c.35,.05,.7,.1,1.04,.15v.02c-.31,.15-.54,.29-.53,.31,.01,.03,.37-.07,.81-.25l-.02-.05c.74,.09,1.47,.18,2.21,.26,.09,.01,.12,.14,.04,.19-.58,.35-1.18,.69-1.78,1.01-.23-.07-.45-.12-.62-.13-.28-.02-.45,0-.45,.01,0,.02,.17,.04,.44,.09,.13,.03,.29,.07,.45,.13-.38,.2-.77,.39-1.15,.57-.26-.13-.5-.24-.7-.3-.13-.05-.24-.07-.32-.08-.08-.01-.12-.01-.12,0,0,0,.04,.03,.11,.06,.07,.03,.17,.07,.29,.13,.15,.07,.34,.17,.55,.29-.41,.19-.81,.36-1.23,.53-.3-.17-.6-.27-.83-.32-.26-.04-.41-.04-.41-.02,0,.02,.15,.06,.39,.13,.18,.06,.41,.15,.66,.29-.5,.2-1.01,.39-1.53,.56-.34-.3-.69-.53-.95-.67-.29-.14-.47-.21-.48-.19,0,.02,.16,.12,.43,.29,.23,.15,.52,.37,.83,.63-.51,.17-1.03,.32-1.55,.45-.27-.25-.54-.45-.75-.56-.25-.13-.41-.19-.41-.18,0,.02,.14,.11,.36,.27,.17,.13,.39,.3,.62,.52-.42,.11-.85,.2-1.28,.29-.18-.23-.38-.39-.54-.48-.19-.1-.32-.14-.32-.13,0,.02,.1,.09,.27,.22,.12,.1,.27,.25,.42,.43-.76,.14-1.53,.25-2.3,.32l.02,.18c1.92-.17,3.83-.54,5.69-1.11-.16,.33-.34,.61-.49,.81-.18,.22-.3,.35-.28,.37,0,.01,.15-.09,.36-.3,.2-.21,.44-.53,.63-.95,.53-.17,1.05-.35,1.57-.55-.16,.48-.35,.88-.51,1.18-.2,.35-.34,.56-.33,.57,0,0,.05-.04,.12-.13,.07-.09,.18-.21,.29-.39,.21-.31,.44-.77,.62-1.31,.44-.17,.87-.35,1.3-.55h.02c-.1,.36-.24,.67-.36,.89-.16,.28-.28,.44-.27,.46,0,0,.16-.13,.35-.4,.17-.24,.35-.61,.47-1.05,.4-.18,.8-.38,1.19-.58,.04,.02,.07,.03,.11,.05l.06-.14c.6-.32,1.2-.66,1.78-1.02,.06-.04,.15,0,.15,.09v8.16h.36v-8.16c0-.08,.08-.13,.15-.09,.59,.37,1.19,.71,1.81,1.03l.06,.13s.07-.03,.1-.04c.4,.21,.8,.4,1.2,.59,.11,.44,.3,.8,.46,1.04,.2,.27,.35,.41,.35,.4,.02-.01-.1-.18-.27-.46-.12-.22-.26-.53-.36-.89h.01c.43,.2,.87,.38,1.32,.56,.18,.54,.41,.99,.62,1.3,.11,.17,.22,.3,.29,.39,.07,.09,.12,.13,.12,.13,.02-.01-.12-.22-.33-.57-.16-.29-.35-.7-.51-1.17,.52,.2,1.04,.38,1.57,.55,.19,.41,.43,.73,.63,.94,.21,.21,.35,.31,.36,.3,.01-.01-.11-.15-.28-.37-.15-.2-.33-.47-.49-.8,1.85,.56,3.75,.94,5.66,1.1l-.04-.18c-.75-.06-1.49-.17-2.23-.31,.15-.19,.3-.33,.43-.44,.16-.13,.27-.2,.27-.22,0-.01-.13,.02-.32,.13-.16,.1-.37,.26-.55,.5-.43-.08-.86-.18-1.28-.29,.23-.22,.46-.4,.63-.53,.22-.16,.37-.25,.36-.27,0-.01-.17,.04-.41,.18-.22,.12-.49,.32-.76,.58-.52-.13-1.03-.29-1.55-.45,.31-.27,.61-.5,.84-.65,.27-.17,.43-.27,.43-.29,0-.01-.19,.05-.48,.19-.27,.14-.62,.37-.97,.68-.51-.17-1.02-.36-1.53-.56,.25-.14,.49-.24,.68-.3,.24-.07,.39-.11,.39-.13,0-.01-.16-.02-.41,.02-.23,.04-.53,.15-.84,.33-.41-.17-.82-.35-1.23-.53,.22-.12,.41-.22,.57-.3,.12-.06,.22-.1,.29-.13,.07-.03,.11-.05,.11-.06,0,0-.04,0-.12,0-.08,.01-.19,.03-.32,.08-.2,.07-.44,.18-.71,.31-.39-.18-.77-.37-1.15-.57,.17-.06,.33-.1,.47-.13,.27-.05,.44-.08,.44-.09,0-.01-.17-.03-.45-.01-.18,.02-.4,.06-.64,.14-.61-.32-1.2-.66-1.79-1.02-.08-.05-.05-.18,.04-.19,.74-.08,1.48-.16,2.23-.26l-.02,.05c.43,.18,.79,.28,.81,.25,0-.03-.22-.16-.54-.31v-.02c.36-.05,.71-.1,1.06-.15l-.03,.07c.45,.25,.85,.33,.86,.31,.01-.03-.29-.18-.68-.4,.42-.07,.85-.14,1.27-.22l-.02,.03c.32,.18,.63,.28,.86,.31,.23,.03,.37,.02,.38,0,0-.02-.14-.05-.35-.11-.18-.06-.42-.15-.67-.28,.44-.09,.89-.18,1.33-.29h0c.38,.21,.75,.34,1.02,.4,.27,.06,.44,.07,.44,.06,0-.02-.16-.07-.42-.16-.22-.08-.5-.2-.81-.36,.43-.11,.87-.23,1.29-.36v.02c.69,.24,1.26,.39,1.27,.36,0-.03-.43-.23-1.03-.45,.22-.07,.44-.14,.66-.22,.11-.04,.21-.08,.32-.12,.51,.12,.96,.24,1.3,.25,.34,.03,.55,.04,.55,.02s-.2-.07-.53-.13c-.28-.04-.64-.14-1.04-.25,.38-.15,.78-.32,1.19-.51v.07c.85,.04,1.54,.12,1.54,.08,0-.02-.17-.06-.44-.11-.24-.06-.56-.09-.93-.12,.31-.15,.63-.32,.95-.5l.03,.04c.06-.04,.15-.04,.26-.04h.29c.18,0,.35,0,.49,0,.28,0,.45-.03,.45-.04,0-.02-.17-.04-.45-.07-.14-.01-.3-.02-.49-.03h-.3l.02-.02h0c.36-.21,.72-.44,1.08-.69,.42-.05,.79-.1,1.06-.18,.28-.07,.44-.12,.44-.14,0-.03-.52,.05-1.22,.12,.24-.18,.48-.37,.72-.56v.02c.39-.05,.73-.09,.97-.16,.24-.07,.39-.12,.39-.13,0-.04-.49,.05-1.14,.11v-.02c.28-.25,.56-.51,.83-.79h.05l.11-.04,.21-.06c.14-.04,.26-.08,.36-.12,.2-.07,.33-.13,.32-.14,0-.02-.14,0-.35,.04-.11,.02-.23,.05-.37,.08l-.13,.03c.17-.18,.34-.37,.5-.57l.04,.08c.45-.19,.79-.39,.78-.42,0-.03-.32,.06-.72,.21Z"/><path class="h" d="M26.94,40c-.06,.21-.1,.34-.09,.35,.01,0,.09-.11,.18-.31,.09-.21,.17-.52,.18-.88h-.16c0,.33-.06,.63-.11,.84Z"/></g></g></g></svg>