<?xml version="1.0" encoding="UTF-8"?><svg xmlns="http://www.w3.org/2000/svg" viewBox="0 0 48.1 48.1"><defs><style>.d{fill:#6d0752;}.e{fill:#9b3979;}.f{fill:#7e49a4;}.g{fill:#ef6e66;}</style></defs><g id="a"/><g id="b"><g id="c"><g><circle class="e" cx="24.05" cy="24.05" r="24.05"/><circle class="g" cx="22.05" cy="24.05" r="20.95"/><g><g><path class="d" d="M24.37,19.36s-.06-.03-.09-.01c-.02,.01-.03,.03-.04,.05-.02,.03-.06,.05-.1,.05l.02-.19v-.19c.1-.11,.17-.22,.23-.35,.05-.11,.08-.23,.06-.35,0-.03-.02-.06-.04-.08-.02-.02-.06-.03-.09,0-.02,.01-.02,.04-.04,.05-.02,.03-.05,.05-.09,.06v-.1s0-.1,0-.1v-.19c.07-.11,.13-.24,.18-.37,.04-.11,.07-.24,.03-.35,0-.03-.02-.06-.05-.07-.03-.02-.07-.02-.09,0-.02,.01-.02,.04-.03,.06-.02,.03-.05,.06-.08,.07l-.02-.19-.02-.18c.07-.12,.13-.25,.17-.38,.03-.12,.04-.24,0-.35-.01-.03-.03-.06-.05-.07-.03-.02-.07-.02-.09,0-.02,.02-.02,.04-.03,.06-.01,.03-.04,.06-.08,.07l-.03-.19-.03-.18c.07-.12,.11-.25,.14-.38,.02-.12,.03-.24-.02-.35-.01-.03-.03-.05-.06-.07-.03-.01-.07-.01-.09,.01-.01,.02-.02,.04-.02,.06-.01,.03-.04,.06-.08,.08l-.04-.19-.04-.18c.06-.12,.1-.26,.12-.39,.02-.12,.03-.24-.03-.35-.01-.03-.03-.05-.06-.07-.03-.01-.07,0-.09,.01-.01,.02-.01,.04-.02,.06-.01,.03-.04,.06-.07,.08l-.05-.19-.05-.18c.05-.13,.09-.26,.11-.4,.01-.12,.01-.24-.05-.34-.01-.03-.03-.05-.06-.06-.03-.01-.07,0-.09,.02-.01,.02-.01,.04-.02,.06,0,.03-.04,.06-.07,.08l-.05-.19-.05-.18c.05-.13,.08-.26,.1-.4,.01-.12,.01-.24-.05-.35-.01-.03-.03-.05-.06-.06-.03-.01-.07,0-.09,.02-.01,.02-.01,.04-.02,.06,0,.03-.04,.07-.07,.08l-.05-.19-.05-.18c.05-.13,.08-.26,.09-.4,.01-.12,0-.24-.05-.34-.01-.03-.03-.05-.06-.06s-.07,0-.09,.02c-.01,.02-.01,.04-.02,.06,0,.03-.03,.07-.07,.08l-.06-.19-.06-.18c.05-.13,.08-.26,.09-.4,.01-.12,0-.24-.05-.34-.01-.03-.03-.05-.06-.06s-.07,0-.09,.02c-.01,.02-.01,.04-.02,.06,0,.03-.04,.07-.07,.08l-.06-.19-.05-.18c.05-.13,.08-.26,.09-.4,.01-.12,0-.24-.05-.34-.01-.03-.03-.05-.06-.06-.03-.01-.07,0-.09,.02-.01,.02-.01,.04-.02,.06,0,.03-.04,.06-.07,.08l-.06-.19-.03-.09-.02-.09c.05-.13,.09-.26,.11-.39,.02-.12,.02-.24-.04-.34-.01-.03-.03-.05-.06-.06-.03-.01-.07,0-.09,.02-.01,.02-.01,.04-.02,.06,0,.03-.04,.06-.07,.08l-.05-.19-.05-.18c.05-.13,.09-.26,.11-.39,.02-.11,.01-.25-.05-.36-.01-.03-.03-.05-.06-.07-.03-.01-.07,0-.09,.02-.01,.02-.01,.04-.02,.06,0,.04-.04,.07-.07,.08l-.03-.09s-.03-.09-.03-.09l-.06-.18c.05-.13,.06-.27,.05-.41,0-.13-.04-.26-.12-.35-.02-.02-.05-.05-.08-.05-.03,0-.07,0-.08,.04,0,.02,0,.04,0,.07,0,.04-.02,.07-.05,.1l-.1-.17s-.08-.63-.18-.57c-.09-.02-.18,.55-.18,.55l-.1,.17s-.05-.06-.05-.1c0-.02,0-.04,0-.07-.01-.03-.05-.05-.08-.04-.03,0-.06,.03-.08,.05-.09,.1-.12,.23-.12,.35,0,.14,0,.28,.05,.41l-.06,.18,.06,.02h0l-.06-.02-.03,.09-.03,.09s-.06-.05-.07-.08c0-.02,0-.04-.02-.06-.02-.03-.06-.03-.09-.02-.03,.01-.05,.04-.06,.07-.06,.11-.06,.24-.05,.36,.02,.13,.05,.26,.11,.39l-.05,.18-.05,.19s-.06-.05-.07-.08c0-.02,0-.04-.02-.06-.02-.02-.06-.03-.09-.02-.03,.01-.05,.04-.06,.06-.06,.1-.06,.22-.04,.34,.02,.13,.05,.27,.11,.39l-.02,.09-.03,.09-.06,.19s-.06-.05-.07-.08c0-.02,0-.04-.02-.06-.02-.02-.06-.03-.09-.02s-.05,.04-.06,.06c-.06,.1-.06,.22-.05,.34,.01,.13,.04,.27,.09,.4l-.05,.18-.06,.19s-.06-.05-.07-.08c0-.02,0-.04-.02-.06-.02-.03-.06-.03-.09-.02-.03,.01-.05,.04-.06,.06-.06,.1-.06,.22-.05,.34,.01,.13,.04,.27,.09,.4l-.06,.18-.06,.19s-.06-.05-.07-.08c0-.02,0-.04-.02-.06-.02-.03-.06-.03-.09-.02-.03,.01-.05,.04-.06,.06-.06,.1-.06,.22-.05,.34,.01,.13,.04,.27,.09,.4l-.06,.18-.05,.19s-.06-.05-.07-.08c0-.02,0-.04-.02-.06-.02-.03-.06-.03-.09-.02-.03,.01-.05,.04-.06,.06-.06,.1-.06,.23-.05,.35,.01,.13,.05,.27,.1,.4l-.05,.18-.05,.19s-.06-.05-.07-.08c0-.02,0-.04-.02-.06-.02-.02-.06-.03-.09-.02-.03,.01-.05,.04-.06,.06-.06,.1-.06,.23-.05,.34,.02,.13,.05,.27,.11,.4l-.05,.18-.05,.19s-.06-.04-.07-.08c0-.02,0-.04-.02-.06-.02-.02-.06-.03-.09-.01-.03,.01-.05,.04-.06,.07-.06,.1-.05,.23-.03,.35,.02,.13,.06,.27,.12,.39l-.04,.18-.04,.19s-.07-.04-.08-.08c0-.02,0-.04-.02-.06-.02-.02-.06-.03-.09-.01-.03,.01-.04,.04-.06,.07-.05,.11-.04,.23-.02,.35,.03,.13,.07,.26,.14,.38l-.03,.18-.03,.19s-.07-.04-.08-.07c0-.02-.01-.04-.03-.06-.02-.02-.06-.02-.09,0-.03,.02-.04,.04-.05,.07-.04,.11-.03,.24,0,.35,.03,.13,.09,.26,.16,.38l-.02,.18-.02,.19s-.07-.03-.08-.07c0-.02-.01-.04-.03-.06-.02-.02-.06-.02-.09,0s-.04,.05-.05,.07c-.04,.11-.02,.24,.03,.35,.05,.13,.11,.25,.19,.37v.19s-.01,.05-.01,.1v.1s-.07-.03-.09-.06c-.01-.02-.02-.04-.04-.05-.03-.02-.07-.01-.09,0-.02,.02-.03,.05-.04,.08-.03,.12,0,.24,.06,.35,.05,.13,.12,.24,.21,.35v.19l.03,.19s-.07-.02-.1-.05c-.01-.02-.02-.04-.04-.05-.03-.02-.07,0-.09,.01-.02,.02-.03,.05-.04,.08-.02,.12,.03,.24,.08,.35,.06,.12,.15,.23,.25,.33l.03,.18,.03,.19s-.08-.02-.1-.04c-.01-.02-.02-.04-.04-.05-.03-.01-.07,0-.09,.02-.02,.02-.03,.06-.03,.09,0,.12,.05,.23,.12,.33,.08,.11,.16,.22,.27,.31l.04,.18,.05,.19s-.08,0-.1-.03c-.01-.02-.03-.03-.05-.04-.03-.01-.07,0-.08,.03-.02,.03-.02,.06-.02,.09,0,.12,.06,.23,.14,.32,.08,.11,.18,.2,.29,.29l.03,.09,.03,.09,.06,.19s-.08,0-.1-.03c-.02-.01-.03-.03-.05-.04-.03-.01-.07,0-.08,.03-.02,.03-.02,.06-.02,.09,0,.12,.08,.22,.15,.32,.09,.1,.2,.19,.31,.27l.06,.18,.03,.09,.03,.09s-.08,0-.11-.02c-.02-.01-.03-.03-.05-.04-.03,0-.07,.01-.08,.04-.02,.03-.02,.06-.01,.09,.02,.12,.09,.22,.17,.31,.09,.1,.2,.19,.32,.26l.07,.17,.07,.18s-.08,0-.11-.02c-.02-.01-.03-.03-.05-.04-.03,0-.06,.01-.08,.04-.02,.03-.01,.06-.01,.09,.02,.12,.09,.22,.18,.3,.09,.1,.2,.18,.32,.25l.07,.17,.07,.18s-.08,0-.11-.02c-.02-.01-.03-.03-.05-.04-.03,0-.06,.01-.08,.04-.01,.03-.01,.06,0,.09,.02,.12,.09,.21,.18,.3,.09,.1,.2,.18,.32,.25l.07,.17,.07,.18s-.08,0-.11-.02c-.02-.01-.03-.03-.05-.04-.03,0-.06,.01-.08,.04-.02,.03-.01,.06-.01,.09,.02,.12,.09,.21,.17,.3,.09,.1,.2,.18,.32,.25l.07,.17,.07,.18s-.08,0-.11-.02c-.02-.01-.03-.03-.05-.04-.03,0-.07,.01-.08,.04-.02,.03-.02,.06-.01,.09,.02,.12,.09,.21,.17,.3,.09,.1,.2,.18,.31,.26l.06,.17,.06,.18s-.08,0-.1-.03c-.02-.01-.03-.03-.05-.04-.03,0-.07,0-.08,.04-.02,.03-.02,.06-.02,.09,0,.12,.08,.22,.16,.3,.09,.1,.19,.19,.3,.27v.09h.03l.02,.09,.06-.02c.03,.12,.07,.24,.1,.36,.03-.11,.06-.22,.1-.34l.06,.02,.04-.12h.03v-.05h0c.11-.09,.21-.18,.3-.28,.07-.09,.15-.19,.16-.31,0-.03,0-.06-.02-.09-.02-.03-.05-.04-.08-.04-.02,0-.03,.02-.05,.04-.03,.02-.07,.03-.1,.03l.06-.18,.06-.17c.12-.07,.22-.16,.31-.26,.08-.09,.15-.19,.17-.3,0-.03,0-.06-.01-.09-.02-.03-.05-.05-.08-.04-.02,0-.03,.02-.05,.04-.03,.02-.07,.03-.11,.02l.07-.18,.07-.17c.12-.07,.22-.16,.32-.25,.08-.08,.16-.18,.17-.3,0-.03,0-.06-.01-.09-.02-.03-.05-.05-.08-.04-.02,0-.03,.02-.05,.04-.03,.02-.07,.03-.11,.02l.07-.18,.07-.17c.12-.07,.23-.15,.32-.25,.08-.08,.16-.18,.18-.3,0-.03,0-.06,0-.09-.01-.03-.05-.05-.08-.04-.02,0-.04,.02-.05,.04-.03,.02-.07,.03-.11,.02l.07-.18,.07-.17c.12-.07,.23-.15,.32-.25,.08-.08,.16-.18,.18-.3,0-.03,0-.06-.01-.09-.02-.03-.05-.05-.08-.04-.02,0-.03,.02-.05,.04-.03,.02-.07,.03-.11,.02l.07-.18,.07-.17c.12-.07,.23-.16,.32-.26,.08-.09,.15-.19,.17-.31,0-.03,0-.06-.01-.09-.02-.03-.05-.05-.08-.04-.02,0-.03,.02-.05,.04-.03,.02-.07,.03-.11,.02l.03-.09,.03-.09,.06-.18c.12-.08,.22-.17,.31-.27,.08-.09,.15-.2,.15-.32,0-.03,0-.06-.02-.09-.02-.03-.05-.04-.08-.03-.02,0-.03,.03-.05,.04-.03,.02-.07,.03-.1,.03l.06-.19,.03-.09,.03-.09c.11-.08,.21-.18,.29-.29,.08-.09,.14-.2,.14-.32,0-.03,0-.06-.02-.09-.02-.03-.06-.04-.08-.03-.02,0-.03,.03-.05,.04-.03,.03-.06,.04-.1,.03l.05-.19,.04-.18c.11-.09,.2-.19,.27-.31,.07-.1,.12-.22,.12-.33,0-.03,0-.06-.03-.09-.02-.02-.06-.04-.09-.02-.02,.01-.03,.03-.04,.05-.02,.03-.06,.04-.1,.04,0,0,0-.05,.02-.1v-.1l.04-.18c.1-.1,.19-.21,.25-.33,.05-.11,.1-.23,.08-.35,0-.03-.01-.06-.04-.08Z"/><g><path class="d" d="M33.36,17.3s-.06-.03-.09-.01c-.02,.01-.03,.03-.04,.05-.02,.03-.06,.05-.09,.05v-.2s.02-.05,.02-.09v-.09c.09-.11,.17-.22,.22-.35,.05-.11,.09-.23,.06-.35,0-.03-.02-.06-.04-.08-.02-.02-.06-.03-.09,0-.02,.01-.02,.03-.04,.05-.02,.03-.05,.05-.09,.06v-.39c.09-.11,.16-.23,.21-.36,.04-.11,.07-.24,.04-.35,0-.03-.02-.06-.04-.08-.02-.02-.06-.02-.09,0-.02,.01-.02,.04-.03,.05-.02,.03-.05,.05-.09,.06v-.38c.07-.11,.13-.24,.18-.37,.04-.11,.07-.24,.03-.35,0-.03-.02-.06-.05-.08-.03-.02-.07-.02-.09,0-.02,.01-.02,.04-.03,.06-.02,.03-.05,.06-.09,.06v-.2l-.02-.19c.08-.12,.14-.24,.18-.37,.04-.11,.06-.24,.02-.35,0-.03-.02-.06-.05-.07-.03-.02-.07-.02-.09,0-.02,.01-.02,.04-.03,.06-.02,.03-.05,.06-.09,.07l-.02-.2-.02-.19c.07-.12,.13-.24,.17-.37,.04-.12,.06-.24,.02-.35,0-.03-.02-.06-.05-.07-.03-.02-.07-.02-.09,0-.02,.02-.02,.04-.03,.06-.02,.03-.05,.06-.08,.07l-.02-.2-.02-.19c.07-.12,.13-.25,.17-.38,.03-.12,.05-.24,.01-.35,0-.03-.02-.06-.05-.07-.03-.02-.07-.02-.09,0-.02,.02-.02,.04-.03,.06-.01,.03-.05,.06-.08,.07l-.02-.2s.05-.51,.05-.6c-.05,.04-.32,.43-.32,.43l-.14,.14s-.03-.07-.02-.11c0-.02,.02-.04,.02-.06,0-.03-.03-.06-.07-.06-.03,0-.06,.01-.09,.03-.11,.07-.17,.18-.22,.29-.06,.13-.1,.26-.11,.41l-.13,.14-.14,.15s-.03-.07-.03-.1c0-.02,.02-.04,.01-.06,0-.03-.04-.05-.07-.05-.03,0-.06,.01-.09,.03-.1,.07-.16,.19-.2,.31-.04,.13-.07,.27-.08,.41l-.06,.07s-.06,.07-.06,.07l.05,.04h0l-.05-.04-.12,.16s-.04-.07-.03-.1c0-.02,.01-.04,0-.07,0-.03-.04-.05-.07-.05-.03,0-.06,.02-.08,.04-.09,.08-.14,.2-.18,.32-.04,.13-.05,.28-.05,.42l-.11,.16-.12,.17s-.04-.06-.04-.1c0-.02,0-.04,0-.06,0-.03-.05-.05-.08-.04-.03,0-.06,.02-.08,.04-.09,.08-.13,.21-.16,.33-.03,.14-.04,.28-.03,.42l-.05,.08s-.05,.08-.05,.08l-.1,.17s-.05-.06-.05-.1c0-.02,0-.04,0-.07-.01-.03-.05-.05-.08-.04-.03,0-.06,.03-.08,.05-.08,.09-.12,.21-.14,.33-.02,.14-.02,.28,0,.42l-.09,.17-.1,.18s-.05-.06-.05-.1c0-.02,0-.04,0-.06-.01-.03-.05-.04-.08-.04-.03,0-.06,.03-.08,.05-.08,.09-.11,.22-.13,.34-.02,.14-.01,.28,0,.42l-.09,.17-.09,.18s-.05-.06-.05-.1c0-.02,0-.04,0-.06-.01-.03-.05-.04-.08-.03s-.05,.03-.07,.05c-.08,.09-.11,.22-.12,.34-.01,.14,0,.28,.02,.42l-.09,.17-.09,.18s-.05-.06-.05-.09c0-.02,0-.04,0-.06-.01-.03-.05-.04-.08-.03s-.05,.03-.07,.05c-.08,.09-.1,.22-.11,.34,0,.14,0,.28,.03,.42l-.08,.17-.09,.18s-.05-.06-.06-.09c0-.02,0-.04,0-.06-.01-.03-.05-.04-.08-.03-.03,0-.05,.03-.07,.05-.07,.1-.1,.22-.11,.34,0,.14,0,.28,.03,.42l-.08,.17-.09,.18s-.05-.06-.06-.09c0-.02,0-.04,0-.06-.01-.03-.05-.04-.08-.03-.03,0-.05,.03-.07,.05-.07,.1-.1,.22-.1,.34,0,.14,0,.28,.03,.42l-.08,.17-.09,.18s-.05-.06-.06-.09c0-.02,0-.04,0-.06-.01-.03-.05-.04-.08-.03-.03,0-.05,.03-.07,.05-.07,.09-.1,.22-.11,.34,0,.14,0,.28,.03,.42l-.09,.17-.09,.18s-.05-.06-.05-.09c0-.02,0-.04,0-.06-.01-.03-.05-.04-.08-.03-.03,0-.05,.03-.07,.05-.08,.09-.1,.22-.11,.34-.01,.14,0,.28,.02,.42l-.09,.17-.09,.18s-.05-.06-.05-.09c0-.02,0-.04,0-.06-.01-.03-.05-.04-.08-.03-.03,0-.05,.03-.07,.05-.08,.09-.1,.22-.11,.34-.01,.14,0,.28,.02,.42l-.09,.17-.09,.18s-.05-.06-.05-.09c0-.02,0-.04,0-.06-.01-.03-.05-.04-.08-.03s-.05,.03-.07,.05c-.08,.09-.11,.21-.12,.34-.01,.14-.01,.28,.01,.41l-.09,.17-.09,.18s-.05-.06-.05-.1c0-.02,0-.04,0-.06-.01-.03-.05-.04-.08-.03-.03,0-.05,.03-.07,.05-.08,.09-.11,.21-.12,.34-.01,.14-.01,.28,.01,.42l-.09,.17-.09,.18s-.05-.06-.05-.1c0-.02,0-.04,0-.06-.01-.03-.05-.04-.08-.04-.03,0-.05,.03-.07,.05-.08,.09-.11,.21-.12,.34-.02,.14-.01,.28,0,.42l-.1,.17-.1,.17s-.05-.06-.05-.1c0-.02,0-.04,0-.06-.01-.03-.05-.04-.08-.04-.03,0-.06,.03-.08,.05-.08,.09-.12,.21-.13,.33-.02,.14-.02,.28,0,.42l-.1,.17-.1,.17s-.05-.06-.05-.1c0-.02,0-.04,0-.06-.01-.03-.05-.04-.08-.04-.03,0-.06,.03-.08,.05-.08,.09-.12,.21-.13,.33-.02,.14-.02,.28,0,.42l-.1,.17-.1,.17s-.05-.06-.05-.1c0-.02,0-.04,0-.07-.01-.03-.05-.04-.08-.04-.03,0-.06,.03-.08,.05-.08,.09-.11,.21-.14,.33-.02,.13-.03,.27-.02,.41l-.1,.16-.11,.17s-.05-.06-.04-.1c0-.02,0-.04,0-.06-.01-.03-.05-.05-.08-.04-.03,0-.06,.02-.08,.04-.09,.08-.12,.2-.15,.32-.03,.14-.03,.28-.02,.42l-.1,.16-.11,.17s-.04-.06-.04-.1c0-.02,0-.04,0-.06-.01-.03-.05-.05-.08-.04-.03,0-.06,.02-.08,.04-.09,.08-.12,.2-.15,.32-.03,.14-.03,.28-.03,.42l-.03,.05-.05,.02v.05l-.02,.05,.05,.03c-.06,.09-.11,.17-.17,.26,.08-.02,.16-.05,.23-.07l.02,.06,.18-.06c.13,.05,.27,.07,.4,.08,.12,0,.25,0,.35-.06,.03-.02,.05-.04,.06-.07s0-.07-.02-.09c-.02-.01-.04-.01-.06-.01-.03,0-.07-.03-.09-.07l.18-.07,.18-.07c.13,.04,.27,.06,.41,.07,.12,0,.25-.01,.35-.08,.02-.02,.05-.04,.06-.07,0-.03,0-.07-.03-.09-.02-.01-.04,0-.06-.01-.04,0-.07-.03-.09-.06l.18-.08,.17-.07c.13,.03,.27,.05,.41,.05,.12,0,.24-.03,.34-.1,.02-.02,.05-.04,.05-.07,0-.03,0-.07-.03-.08-.02-.01-.04,0-.06,0-.04,0-.07-.03-.09-.06l.18-.08,.17-.08c.14,.03,.28,.04,.41,.02,.12-.01,.24-.04,.33-.12,.02-.02,.04-.04,.05-.07,0-.03,0-.07-.04-.08-.02,0-.04,0-.06,0-.04,0-.07-.02-.09-.05l.17-.09,.08-.04s.08-.04,.08-.04c.14,.02,.28,.02,.41,0,.12-.02,.24-.05,.33-.13,.02-.02,.04-.04,.05-.08,0-.03-.01-.07-.04-.08-.02,0-.04,0-.06,0-.04,0-.07-.02-.1-.05l.17-.1,.16-.1c.14,.01,.28,0,.41-.02,.12-.02,.24-.06,.32-.14,.02-.02,.04-.05,.04-.08,0-.03-.01-.07-.04-.08-.02,0-.04,0-.06,0-.04,0-.07-.01-.1-.04l.16-.11,.16-.11c.14,0,.28,0,.41-.03,.12-.02,.24-.07,.32-.17,.02-.02,.04-.05,.04-.08,0-.03-.02-.07-.05-.08-.02,0-.04,0-.06,0-.04,0-.07-.01-.1-.04l.16-.12,.15-.11c.14,0,.28-.02,.41-.06,.11-.04,.23-.09,.3-.19,.02-.02,.03-.05,.03-.08,0-.03-.02-.07-.05-.07-.02,0-.04,0-.06,0-.04,0-.07,0-.1-.03l.15-.13,.14-.12c.14,0,.28-.04,.4-.09,.11-.04,.22-.11,.29-.21,.02-.03,.03-.05,.03-.09,0-.03-.03-.06-.06-.07-.02,0-.04,0-.06,.01-.04,0-.08,0-.11-.02l.14-.14,.14-.13c.14-.02,.27-.06,.39-.12,.11-.05,.22-.12,.28-.23,.01-.03,.03-.06,.02-.09s-.03-.06-.06-.06c-.02,0-.04,.01-.06,.02-.03,.01-.08,0-.11-.02l.13-.15,.06-.07,.06-.07c.13-.03,.26-.08,.38-.15,.11-.06,.21-.14,.26-.25,.01-.03,.02-.06,.02-.09,0-.03-.04-.06-.07-.06-.02,0-.04,.01-.06,.02-.03,.01-.08,.01-.11,0l.06-.08s.06-.08,.06-.08l.11-.16c.13-.04,.26-.1,.37-.18,.1-.07,.2-.15,.24-.27,0-.03,.01-.06,0-.09s-.04-.06-.07-.05c-.02,0-.04,.02-.06,.03-.03,.02-.07,.02-.11,0l.1-.17,.09-.16c.13-.05,.25-.13,.36-.21,.1-.07,.18-.17,.21-.29,0-.03,0-.06,0-.09-.01-.03-.05-.05-.08-.05-.02,0-.04,.02-.05,.03-.03,.02-.07,.02-.11,.01l.08-.18,.08-.17c.12-.07,.24-.15,.34-.24,.08-.09,.16-.19,.18-.31,0-.03,0-.06-.01-.09-.02-.03-.05-.05-.08-.04-.02,0-.04,.02-.05,.04-.03,.02-.07,.03-.11,.02l.07-.18,.03-.09s.03-.09,.03-.09c.11-.08,.22-.17,.31-.28,.08-.09,.15-.2,.16-.32,0-.03,0-.06-.02-.09-.02-.03-.05-.04-.08-.03-.02,0-.03,.03-.05,.04-.03,.02-.06,.04-.1,.03l.05-.19,.05-.18c.11-.09,.21-.19,.29-.3,.07-.1,.12-.21,.12-.34,0-.03,0-.06-.02-.09-.02-.02-.06-.04-.09-.02-.02,0-.03,.03-.05,.05-.02,.03-.06,.04-.1,.04l.04-.19,.02-.09,.02-.09c.1-.09,.19-.2,.26-.32,.06-.1,.12-.22,.1-.34,0-.03-.01-.06-.03-.08-.02-.02-.06-.03-.09-.02-.02,.01-.03,.03-.04,.05-.02,.03-.06,.05-.1,.05l.02-.2,.02-.19c.1-.1,.18-.21,.24-.34,.05-.11,.1-.23,.08-.35,0-.03-.01-.06-.04-.08Z"/><path class="d" d="M39.95,22.48s-.05-.05-.08-.05c-.02,0-.04,.02-.06,.03-.03,.02-.06,.02-.1,.01h0l.08-.18s.35-.35,.36-.39c-.04,0-.51,.21-.51,.21l-.15,.03-.04-.02s.01-.05,.03-.07c.02-.01,.04-.03,.04-.05,.01-.03,0-.07-.02-.09-.02-.02-.06-.02-.09-.02-.12,0-.23,.06-.33,.13-.11,.08-.21,.17-.3,.28l-.18,.05-.19,.05s0-.08,.03-.1c.01-.02,.03-.03,.04-.05,.01-.03,0-.07-.03-.08-.03-.02-.06-.02-.09-.02-.12,0-.23,.06-.32,.14-.11,.09-.2,.19-.28,.3l-.18,.06,.02,.06h0l-.02-.06-.09,.03s-.09,.03-.09,.03c0-.04,0-.08,.02-.11,.01-.02,.03-.03,.04-.05,0-.03,0-.07-.04-.08-.03-.02-.06-.02-.09-.01-.12,.02-.22,.09-.31,.17-.1,.09-.19,.2-.26,.32l-.17,.07-.18,.08s0-.08,.02-.11c.01-.02,.03-.03,.04-.05,0-.03-.01-.06-.04-.08s-.06-.01-.09,0c-.12,.02-.22,.1-.3,.18-.09,.1-.17,.22-.23,.34l-.17,.08-.18,.08s0-.08,.01-.11c.01-.02,.03-.03,.03-.05,0-.03-.02-.06-.05-.08-.03-.01-.06-.01-.09,0-.12,.03-.21,.12-.29,.21-.09,.11-.16,.22-.21,.35l-.08,.04s-.08,.05-.08,.05l-.17,.1s-.01-.08,0-.11c.01-.02,.03-.04,.03-.06,0-.03-.02-.06-.05-.07-.03-.01-.06,0-.09,0-.11,.04-.2,.13-.27,.22-.08,.11-.15,.23-.19,.36l-.16,.1-.16,.11s-.02-.08,0-.11c0-.02,.02-.04,.03-.06,0-.03-.03-.06-.06-.07-.03,0-.06,0-.09,0-.11,.04-.19,.14-.26,.24-.07,.11-.13,.24-.17,.37l-.15,.11-.16,.11s-.02-.07,0-.11c0-.02,.02-.04,.02-.06,0-.03-.03-.06-.06-.07-.03,0-.06,0-.09,.01-.11,.05-.19,.14-.25,.24-.07,.11-.13,.24-.17,.37l-.15,.11-.16,.11s-.02-.07,0-.11c0-.02,.02-.04,.02-.06,0-.03-.03-.06-.06-.07-.03,0-.06,0-.09,.01-.11,.05-.19,.14-.25,.24-.07,.11-.13,.24-.17,.37l-.15,.1-.16,.11s-.02-.08,0-.11c0-.02,.02-.04,.02-.06,0-.03-.03-.06-.06-.07s-.06,0-.09,0c-.11,.04-.19,.13-.25,.23-.07,.11-.14,.23-.19,.36l-.16,.09-.17,.1s-.01-.08,0-.11c0-.02,.03-.03,.03-.06,0-.03-.02-.06-.05-.07-.03-.01-.06,0-.09,0-.11,.04-.2,.11-.27,.2-.08,.1-.15,.22-.21,.34l-.08,.04s-.08,.04-.08,.04l-.18,.08s0-.08,.02-.11c.01-.02,.03-.03,.03-.05,0-.03-.02-.06-.04-.08-.03-.01-.06-.01-.09,0-.11,.02-.21,.09-.29,.18-.09,.1-.17,.21-.25,.32l-.17,.06-.18,.07s0-.08,.02-.11c.01-.02,.03-.03,.04-.05,0-.03-.01-.07-.04-.08-.03-.02-.06-.02-.09-.01-.11,.01-.21,.09-.3,.16-.1,.09-.19,.19-.27,.3l-.18,.06-.18,.06s0-.08,.03-.1c.01-.02,.03-.03,.04-.05,0-.03,0-.07-.03-.08-.03-.02-.06-.02-.09-.02-.12,0-.22,.08-.31,.15-.1,.09-.19,.19-.27,.3l-.18,.06-.18,.06s0-.08,.03-.1c.01-.02,.03-.03,.04-.05,0-.03,0-.07-.04-.08-.03-.02-.06-.02-.09-.01-.12,.01-.22,.08-.31,.16-.1,.09-.19,.2-.26,.32l-.17,.07-.18,.07s0-.08,.02-.1c.01-.02,.03-.03,.04-.05,0-.03-.01-.06-.04-.08-.03-.02-.06-.02-.09-.01-.12,.02-.22,.09-.3,.18-.1,.1-.18,.21-.24,.34l-.17,.08s-.05,.02-.09,.04l-.08,.05s0-.08,0-.11c.01-.02,.03-.04,.03-.06,0-.03-.02-.06-.05-.08-.03-.01-.06,0-.09,0-.12,.04-.21,.13-.28,.22-.09,.11-.15,.23-.2,.35l-.16,.09-.17,.1s-.01-.08,0-.11c0-.02,.02-.03,.03-.06,0-.03-.02-.06-.05-.07-.03-.01-.06,0-.08,0-.11,.03-.19,.12-.26,.2-.09,.1-.16,.21-.23,.33,0,0-.04,.02-.08,.04l-.09,.03-.18,.06s0-.08,.02-.1c.01-.02,.03-.03,.04-.05,0-.03-.01-.06-.04-.08-.03-.02-.06-.02-.08-.02-.11,0-.2,.08-.29,.15-.06,.04-.11,.1-.17,.15l-.23-.03-.04,.2h-.03v.07s-.1,.02-.15,.03c.05,.01,.11,.02,.16,.03v.07h.03l.04,.2,.24-.06c.06,.05,.13,.1,.2,.14,.11,.06,.23,.11,.35,.1,.03,0,.06,0,.09-.03,.02-.02,.04-.06,.02-.09-.01-.02-.03-.03-.05-.04-.03-.02-.05-.06-.05-.1l.2,.03,.19,.03c.1,.1,.22,.19,.34,.25,.11,.06,.23,.1,.35,.08,.03,0,.06-.01,.08-.03,.02-.02,.03-.06,.02-.09-.01-.02-.03-.03-.05-.04-.03-.02-.05-.06-.05-.1l.2,.02,.19,.02c.11,.09,.22,.17,.35,.24,.11,.06,.23,.1,.36,.07,.03,0,.06-.02,.08-.04,.02-.02,.03-.06,.01-.09-.01-.02-.04-.02-.05-.04-.03-.02-.05-.05-.06-.09h.39c.11,.09,.23,.16,.36,.22,.11,.05,.24,.08,.36,.06,.03,0,.06-.02,.08-.04,.02-.02,.03-.06,0-.09-.01-.02-.04-.02-.06-.04-.03-.02-.05-.05-.06-.09h.3s.1,0,.1,0c.11,.08,.24,.14,.37,.18,.12,.04,.24,.06,.36,.03,.03,0,.06-.02,.08-.05,.02-.03,.02-.07,0-.09-.01-.02-.04-.02-.06-.03-.03-.02-.06-.05-.07-.09h.2l.19-.02c.12,.08,.25,.14,.38,.18,.12,.03,.25,.05,.36,.01,.03,0,.06-.02,.08-.05s.02-.07,0-.09c-.02-.02-.04-.02-.06-.03-.03-.01-.06-.05-.07-.08l.2-.02,.19-.02c.12,.07,.25,.12,.39,.16,.12,.03,.25,.04,.36,0,.03-.01,.06-.03,.07-.05,.02-.03,.02-.07,0-.09-.02-.02-.04-.02-.06-.03-.03-.01-.06-.04-.07-.08l.2-.03,.19-.03c.13,.06,.26,.11,.4,.14,.12,.03,.25,.03,.36-.02,.03-.01,.06-.03,.07-.06,.02-.03,.01-.07-.01-.09-.02-.01-.04-.02-.06-.02-.03-.01-.06-.04-.08-.08l.2-.04,.19-.04c.13,.06,.26,.09,.4,.11,.12,.02,.25,.02,.36-.04,.03-.01,.05-.03,.07-.06,.01-.03,0-.07-.02-.09-.02-.01-.04-.01-.06-.02-.04,0-.07-.04-.08-.07l.19-.05,.19-.05c.13,.05,.27,.08,.41,.09,.12,0,.25,0,.36-.06,.03-.02,.05-.04,.06-.07,.01-.03,0-.07-.02-.09-.02-.01-.04-.01-.06-.01-.04,0-.07-.03-.09-.07,0,0,.05-.01,.1-.03l.09-.03,.18-.07c.14,.04,.28,.06,.42,.06,.12,0,.25-.02,.35-.09,.03-.02,.05-.04,.06-.07,0-.03,0-.07-.03-.08-.02-.01-.04,0-.07-.01-.04,0-.07-.03-.09-.06l.09-.04s.09-.04,.09-.04l.17-.08c.14,.03,.28,.04,.42,.02,.12-.01,.25-.05,.35-.13,.02-.02,.05-.04,.05-.08s0-.07-.04-.08c-.02,0-.04,0-.07,0-.04,0-.07-.02-.1-.05l.18-.1,.17-.1c.14,.01,.28,0,.42-.02,.12-.02,.24-.07,.33-.16,.02-.02,.04-.05,.04-.08,0-.03-.01-.07-.05-.08-.02,0-.04,0-.07,0-.04,0-.08-.01-.1-.04l.17-.11,.08-.06,.08-.06c.14,0,.28-.03,.42-.07,.12-.03,.24-.1,.31-.2,.02-.03,.03-.05,.03-.09s-.02-.07-.05-.07c-.02,0-.04,0-.06,.01-.04,0-.08,0-.11-.03l.15-.13,.07-.06s.07-.07,.07-.07c.14-.02,.27-.06,.4-.12,.11-.05,.23-.12,.29-.23,.02-.03,.03-.06,.02-.09,0-.03-.03-.06-.06-.06-.02,0-.04,.01-.06,.02-.04,.01-.08,0-.11-.02,0,0,.04-.03,.07-.07l.06-.08,.12-.15c.14-.03,.27-.09,.39-.16,.11-.06,.21-.15,.26-.26,.01-.03,.02-.06,.01-.09,0-.03-.04-.06-.07-.06-.02,0-.04,.02-.06,.02-.03,.01-.07,.01-.11,0l.12-.16,.11-.16c.14-.04,.26-.11,.38-.19,.1-.07,.2-.16,.24-.28,.01-.03,.02-.06,0-.09,0-.03-.04-.06-.07-.05-.02,0-.04,.02-.06,.03-.03,.02-.07,.02-.11,0l.11-.17s.03-.04,.05-.08l.05-.08c.13-.05,.25-.13,.36-.21,.1-.08,.19-.17,.22-.29,0-.03,.01-.06,0-.09-.01-.03-.04-.05-.07-.05-.02,0-.04,.02-.06,.03-.03,.02-.07,.02-.11,0l.1-.18-.06-.03h0l.06,.03,.09-.17c.13-.06,.25-.14,.35-.23,.09-.08,.18-.18,.21-.3,0-.03,.01-.06,0-.09-.01-.03-.04-.05-.08-.05-.02,0-.04,.02-.06,.03-.03,.02-.07,.02-.11,.01l.09-.18,.09-.17c.13-.06,.24-.14,.35-.24,.09-.08,.17-.18,.2-.3,0-.03,.01-.06,0-.09Z"/><path class="d" d="M34.78,34.82l-.15-.11h0s.06-.04,.1-.04c.02,0,.04,.01,.06,0,.03,0,.05-.04,.05-.07,0-.03-.02-.06-.04-.08-.08-.09-.19-.14-.31-.16-.13-.03-.27-.05-.4-.04l-.15-.11-.16-.11s.06-.05,.1-.04c.02,0,.04,0,.06,0,.03,0,.05-.05,.04-.08,0-.03-.02-.06-.04-.08-.08-.08-.2-.12-.32-.14-.13-.02-.27-.03-.41-.01l-.15-.1-.03,.05h0l.03-.05-.16-.1s.06-.05,.09-.05c.02,0,.04,0,.06,0,.03-.01,.04-.05,.04-.08,0-.03-.02-.06-.04-.08-.08-.09-.21-.11-.32-.12-.14-.01-.27,0-.41,.02l-.16-.09-.17-.09s.06-.05,.09-.05c.02,0,.04,0,.06,0,.03-.01,.04-.05,.03-.08,0-.03-.03-.05-.05-.07-.09-.08-.21-.11-.33-.11-.14,0-.27,.01-.41,.05l-.17-.07-.18-.08s.05-.06,.09-.06c.02,0,.04,0,.06-.01,.03-.02,.04-.05,.03-.08,0-.03-.03-.05-.05-.07-.09-.07-.22-.09-.33-.09-.13,0-.27,.03-.4,.07l-.17-.06-.18-.06s.05-.06,.08-.07c.02,0,.04,0,.06-.02,.03-.02,.03-.06,.02-.09s-.03-.05-.06-.07c-.1-.06-.22-.07-.34-.07-.13,0-.26,.03-.39,.09l-.18-.05-.19-.05s.05-.06,.08-.07c.02,0,.04,0,.06-.02,.02-.02,.03-.06,.02-.09-.01-.03-.04-.05-.06-.06-.1-.06-.23-.06-.35-.04-.13,.02-.26,.05-.39,.11,0,0-.18-.04-.18-.04l-.19-.04s.04-.07,.07-.08c.02,0,.04,0,.06-.02,.02-.02,.03-.06,.01-.09-.01-.03-.04-.04-.07-.06-.11-.05-.23-.04-.35-.01-.13,.03-.26,.07-.38,.14l-.18-.03-.19-.02s.04-.07,.07-.08c.02,0,.04-.01,.06-.03,.02-.02,.02-.06,0-.09-.02-.03-.04-.04-.07-.05-.11-.04-.23-.02-.35,.01-.13,.04-.25,.09-.37,.17l-.18-.02h-.1s-.1-.02-.1-.02c0-.04,.03-.07,.06-.09,.02,0,.04-.01,.05-.03,.02-.02,.02-.06,0-.09-.02-.03-.05-.04-.07-.05-.11-.03-.23-.01-.34,.03-.13,.04-.25,.1-.36,.18h-.18l-.19-.03s.03-.07,.06-.09c.02,0,.04-.01,.05-.03,.02-.02,.02-.06,0-.09-.02-.03-.04-.04-.07-.05-.11-.04-.23-.01-.34,.02-.13,.04-.25,.1-.36,.17l-.18-.02-.19-.02s.03-.07,.07-.08c.02,0,.04-.01,.05-.03,.02-.02,.02-.06,0-.09-.02-.03-.04-.04-.07-.05-.11-.04-.22-.02-.34,.01-.13,.04-.25,.09-.37,.15l-.18-.03-.19-.03s.04-.07,.07-.08c.02,0,.04-.01,.06-.03,.02-.02,.02-.06,0-.09-.01-.03-.04-.04-.07-.05-.1-.05-.22-.04-.33-.01-.13,.03-.26,.08-.38,.13l-.18-.05-.18-.05s.04-.06,.08-.07c.02,0,.04,0,.06-.02,.02-.02,.03-.06,.02-.09-.01-.03-.04-.05-.06-.06-.1-.05-.22-.05-.33-.04-.1,.01-.21,.04-.31,.07l-.07-.1-.12,.08-.06-.02-.02,.06c-.05-.02-.1-.04-.15-.06,.03,.04,.05,.08,.08,.12l-.05,.04,.06,.08-.05,.13,.1,.03c0,.11,.01,.22,.03,.32,.03,.12,.07,.23,.16,.31,.02,.02,.05,.04,.08,.04,.03,0,.07-.02,.08-.05,0-.02,0-.04,0-.06,0-.04,.01-.07,.04-.1l.12,.16,.06,.08,.06,.07c0,.14,.02,.28,.06,.41,.03,.12,.08,.23,.18,.31,.02,.02,.05,.03,.08,.03,.03,0,.07-.02,.07-.05,0-.02,0-.04,0-.06,0-.04,0-.07,.03-.1l.13,.15,.12,.14c0,.14,.04,.27,.08,.4,.04,.11,.1,.23,.2,.3,.03,.02,.05,.03,.09,.03,.03,0,.06-.02,.07-.06,0-.02,0-.04-.01-.06,0-.03,0-.07,.03-.1l.14,.14,.13,.14c.02,.14,.05,.27,.11,.4,.05,.11,.12,.22,.22,.28,.03,.02,.06,.03,.09,.02,.03,0,.06-.03,.07-.06,0-.02-.01-.04-.02-.06-.01-.03,0-.08,.02-.11,0,0,.03,.03,.07,.07l.07,.06,.14,.12c.03,.14,.07,.27,.14,.39,.06,.11,.14,.21,.25,.26,.03,.01,.06,.02,.09,.02,.03,0,.06-.04,.06-.07,0-.02-.01-.04-.02-.06-.01-.03-.01-.07,0-.11l.08,.06s.08,.06,.08,.06l.15,.11c.04,.13,.1,.26,.18,.37,.07,.1,.16,.19,.28,.23,.03,0,.06,.02,.09,0,.03-.01,.05-.04,.05-.07,0-.02-.02-.04-.03-.06-.02-.03-.02-.07,0-.11l.17,.1,.17,.09c.06,.12,.14,.24,.23,.35,.08,.09,.19,.17,.31,.19,.03,0,.06,0,.09,0,.03-.01,.05-.05,.04-.08,0-.02-.02-.04-.04-.05-.02-.03-.03-.07-.02-.11l.18,.08s.04,.02,.09,.04l.09,.03c.08,.11,.17,.22,.28,.31,.09,.08,.21,.14,.33,.14,.03,0,.06,0,.09-.02,.03-.02,.04-.06,.03-.08,0-.02-.03-.03-.04-.05-.03-.03-.04-.06-.03-.1l.19,.05s.18,.05,.18,.04c.09,.1,.2,.19,.32,.26,.05,.03,.11,.06,.17,.08,.06,.02,.12,.02,.18,.01,.03,0,.06-.01,.08-.04,.02-.02,.03-.06,.02-.09-.01-.02-.03-.03-.05-.04-.03-.02-.05-.06-.05-.09h.2l.19,.03c.11,.09,.22,.17,.35,.23,.11,.04,.24,.07,.36,.04,.03,0,.06-.02,.08-.04,.02-.02,.02-.06,0-.09-.01-.02-.04-.02-.05-.03-.03-.02-.05-.05-.06-.09h.38c.12,.08,.24,.12,.37,.16,.12,.03,.24,.05,.36,.01,.03,0,.06-.02,.07-.05,.02-.03,.02-.07,0-.09-.02-.02-.04-.02-.06-.03-.03-.02-.06-.05-.07-.08l.2-.02,.19-.03c.12,.06,.25,.11,.39,.14,.12,.03,.25,.04,.36-.01,.03-.01,.05-.03,.07-.06,.01-.03,.01-.07-.01-.09-.02-.01-.04-.02-.06-.02-.03-.01-.06-.04-.08-.08l.19-.04,.18-.04c.13,.06,.26,.1,.4,.12,.12,.02,.25,.02,.35-.04,.03-.01,.05-.03,.07-.06,.01-.03,0-.07-.02-.09-.02-.01-.04-.01-.06-.02-.03,0-.06-.04-.08-.07l.19-.05,.18-.05c.13,.05,.26,.09,.4,.1,.12,.01,.24,0,.35-.05,.03-.01,.05-.03,.06-.06,.01-.03,0-.07-.02-.09-.02-.01-.04-.01-.06-.02-.03,0-.07-.04-.08-.07l.19-.06-.02-.06h0l.02,.06,.18-.05c.13,.05,.26,.08,.4,.09,.12,.01,.24,0,.35-.06,.03-.02,.05-.03,.06-.06,.01-.03,0-.07-.02-.09-.02-.01-.04-.01-.06-.02-.03,0-.07-.03-.08-.07l.19-.06s.38-.06,.42-.07c-.03-.03-.38-.16-.38-.16Z"/></g><g><path class="d" d="M8.37,17.3s.06-.03,.09-.01c.02,.01,.03,.03,.04,.05,.02,.03,.06,.05,.09,.05v-.2s-.02-.05-.02-.09v-.09c-.09-.11-.17-.22-.22-.35-.05-.11-.09-.23-.06-.35,0-.03,.02-.06,.04-.08,.02-.02,.06-.03,.09,0,.02,.01,.02,.03,.04,.05,.02,.03,.05,.05,.09,.06v-.39c-.09-.11-.16-.23-.21-.36-.04-.11-.07-.24-.04-.35,0-.03,.02-.06,.04-.08,.02-.02,.06-.02,.09,0,.02,.01,.02,.04,.03,.05,.02,.03,.05,.05,.09,.06v-.38c-.07-.11-.13-.24-.18-.37-.04-.11-.07-.24-.03-.35,0-.03,.02-.06,.05-.08,.03-.02,.07-.02,.09,0,.02,.01,.02,.04,.03,.06,.02,.03,.05,.06,.09,.06v-.2l.02-.19c-.08-.12-.14-.24-.18-.37-.04-.11-.06-.24-.02-.35,0-.03,.02-.06,.05-.07,.03-.02,.07-.02,.09,0,.02,.01,.02,.04,.03,.06,.02,.03,.05,.06,.09,.07l.02-.2,.02-.19c-.07-.12-.13-.24-.17-.37-.04-.12-.06-.24-.02-.35,0-.03,.02-.06,.05-.07,.03-.02,.07-.02,.09,0,.02,.02,.02,.04,.03,.06,.02,.03,.05,.06,.08,.07l.02-.2,.02-.19c-.07-.12-.13-.25-.17-.38-.03-.12-.05-.24-.01-.35,0-.03,.02-.06,.05-.07,.03-.02,.07-.02,.09,0,.02,.02,.02,.04,.03,.06,.01,.03,.05,.06,.08,.07l.02-.2s-.04-.47-.03-.55c.05,.04,.3,.39,.3,.39l.14,.14s.03-.07,.02-.11c0-.02-.02-.04-.02-.06,0-.03,.03-.06,.07-.06,.03,0,.06,.01,.09,.03,.11,.07,.17,.18,.22,.29,.06,.13,.1,.26,.11,.41l.13,.14,.14,.15s.03-.07,.03-.1c0-.02-.02-.04-.01-.06,0-.03,.04-.05,.07-.05,.03,0,.06,.01,.09,.03,.1,.07,.16,.19,.2,.31,.04,.13,.07,.27,.08,.41l.06,.07s.06,.07,.06,.07l-.05,.04h0l.05-.04,.12,.16s.04-.07,.03-.1c0-.02-.01-.04,0-.07,0-.03,.04-.05,.07-.05,.03,0,.06,.02,.08,.04,.09,.08,.14,.2,.18,.32,.04,.13,.05,.28,.05,.42l.11,.16,.12,.17s.04-.06,.04-.1c0-.02,0-.04,0-.06,0-.03,.05-.05,.08-.04,.03,0,.06,.02,.08,.04,.09,.08,.13,.21,.16,.33,.03,.14,.04,.28,.03,.42l.05,.08s.05,.08,.05,.08l.1,.17s.05-.06,.05-.1c0-.02,0-.04,0-.07,.01-.03,.05-.05,.08-.04,.03,0,.06,.03,.08,.05,.08,.09,.12,.21,.14,.33,.02,.14,.02,.28,0,.42l.09,.17,.1,.18s.05-.06,.05-.1c0-.02,0-.04,0-.06,.01-.03,.05-.04,.08-.04,.03,0,.06,.03,.08,.05,.08,.09,.11,.22,.13,.34,.02,.14,.01,.28,0,.42l.09,.17,.09,.18s.05-.06,.05-.1c0-.02,0-.04,0-.06,.01-.03,.05-.04,.08-.03,.03,0,.05,.03,.07,.05,.08,.09,.11,.22,.12,.34,.01,.14,0,.28-.02,.42l.09,.17,.09,.18s.05-.06,.05-.09c0-.02,0-.04,0-.06,.01-.03,.05-.04,.08-.03,.03,0,.05,.03,.07,.05,.08,.09,.1,.22,.11,.34,0,.14,0,.28-.03,.42l.08,.17,.09,.18s.05-.06,.06-.09c0-.02,0-.04,0-.06,.01-.03,.05-.04,.08-.03,.03,0,.05,.03,.07,.05,.07,.1,.1,.22,.11,.34,0,.14,0,.28-.03,.42l.08,.17,.09,.18s.05-.06,.06-.09c0-.02,0-.04,0-.06,.01-.03,.05-.04,.08-.03,.03,0,.05,.03,.07,.05,.07,.1,.1,.22,.1,.34,0,.14,0,.28-.03,.42l.08,.17,.09,.18s.05-.06,.06-.09c0-.02,0-.04,0-.06,.01-.03,.05-.04,.08-.03,.03,0,.05,.03,.07,.05,.08,.09,.1,.22,.11,.34,0,.14,0,.28-.03,.42l.09,.17,.09,.18s.05-.06,.05-.09c0-.02,0-.04,0-.06,.01-.03,.05-.04,.08-.03,.03,0,.05,.03,.07,.05,.08,.09,.1,.22,.11,.34,.01,.14,0,.28-.02,.42l.09,.17,.09,.18s.05-.06,.05-.09c0-.02,0-.04,0-.06,.01-.03,.05-.04,.08-.03s.05,.03,.07,.05c.08,.09,.1,.22,.11,.34,.01,.14,0,.28-.02,.42l.09,.17,.09,.18s.05-.06,.05-.09c0-.02,0-.04,0-.06,.01-.03,.05-.04,.08-.03s.05,.03,.07,.05c.08,.09,.11,.21,.12,.34,.01,.14,.01,.28-.01,.41l.09,.17,.09,.18s.05-.06,.05-.1c0-.02,0-.04,0-.06,.01-.03,.05-.04,.08-.03,.03,0,.05,.03,.07,.05,.08,.09,.11,.21,.12,.34,.01,.14,.01,.28-.01,.42l.09,.17,.09,.18s.05-.06,.05-.1c0-.02,0-.04,0-.06,.01-.03,.05-.04,.08-.04,.03,0,.05,.03,.07,.05,.08,.09,.11,.21,.12,.34,.02,.14,.01,.28,0,.42l.1,.17,.1,.17s.05-.06,.05-.1c0-.02,0-.04,0-.06,.01-.03,.05-.04,.08-.04s.06,.03,.08,.05c.08,.09,.12,.21,.13,.33,.02,.14,.02,.28,0,.42l.1,.17,.1,.17s.05-.06,.05-.1c0-.02,0-.04,0-.06,.01-.03,.05-.04,.08-.04,.03,0,.06,.03,.08,.05,.08,.09,.12,.21,.13,.33,.02,.14,.02,.28,0,.42l.1,.17,.1,.17s.05-.06,.05-.1c0-.02,0-.04,0-.07,.01-.03,.05-.04,.08-.04,.03,0,.06,.03,.08,.05,.08,.09,.11,.21,.14,.33,.02,.13,.03,.27,.02,.41l.1,.16,.11,.17s.05-.06,.04-.1c0-.02,0-.04,0-.06,.01-.03,.05-.05,.08-.04,.03,0,.06,.02,.08,.04,.09,.08,.12,.2,.15,.32,.03,.14,.03,.28,.02,.42l.1,.16,.11,.17s.04-.06,.04-.1c0-.02,0-.04,0-.06,.01-.03,.05-.05,.08-.04,.03,0,.06,.02,.08,.04,.09,.08,.12,.2,.15,.32,.03,.14,.03,.28,.03,.42l.03,.05,.05,.02v.05l.02,.05-.05,.03c.06,.09,.11,.17,.17,.26-.08-.02-.16-.05-.23-.07l-.02,.06-.18-.06c-.13,.05-.27,.07-.4,.08-.12,0-.25,0-.35-.06-.03-.02-.05-.04-.06-.07-.01-.03,0-.07,.02-.09,.02-.01,.04-.01,.06-.01,.03,0,.07-.03,.09-.07l-.18-.07-.18-.07c-.13,.04-.27,.06-.41,.07-.12,0-.25-.01-.35-.08-.02-.02-.05-.04-.06-.07,0-.03,0-.07,.03-.09,.02-.01,.04,0,.06-.01,.04,0,.07-.03,.09-.06l-.18-.08-.17-.07c-.13,.03-.27,.05-.41,.05-.12,0-.24-.03-.34-.1-.02-.02-.05-.04-.05-.07,0-.03,0-.07,.03-.08,.02-.01,.04,0,.06,0,.04,0,.07-.03,.09-.06l-.18-.08-.17-.08c-.14,.03-.28,.04-.41,.02-.12-.01-.24-.04-.33-.12-.02-.02-.04-.04-.05-.07s0-.07,.04-.08c.02,0,.04,0,.06,0,.04,0,.07-.02,.09-.05l-.17-.09-.08-.04s-.08-.04-.08-.04c-.14,.02-.28,.02-.41,0-.12-.02-.24-.05-.33-.13-.02-.02-.04-.04-.05-.08,0-.03,.01-.07,.04-.08,.02,0,.04,0,.06,0,.04,0,.07-.02,.1-.05l-.17-.1-.16-.1c-.14,.01-.28,0-.41-.02-.12-.02-.24-.06-.32-.14-.02-.02-.04-.05-.04-.08,0-.03,.01-.07,.04-.08,.02,0,.04,0,.06,0,.04,0,.07-.01,.1-.04l-.16-.11-.16-.11c-.14,0-.28,0-.41-.03-.12-.02-.24-.07-.32-.17-.02-.02-.04-.05-.04-.08,0-.03,.02-.07,.05-.08,.02,0,.04,0,.06,0,.04,0,.07-.01,.1-.04l-.16-.12-.15-.11c-.14,0-.28-.02-.41-.06-.11-.04-.23-.09-.3-.19-.02-.02-.03-.05-.03-.08,0-.03,.02-.07,.05-.07,.02,0,.04,0,.06,0,.04,0,.07,0,.1-.03l-.15-.13-.14-.12c-.14,0-.28-.04-.4-.09-.11-.04-.22-.11-.29-.21-.02-.03-.03-.05-.03-.09,0-.03,.03-.06,.06-.07,.02,0,.04,0,.06,.01,.04,0,.08,0,.11-.02l-.14-.14-.14-.13c-.14-.02-.27-.06-.39-.12-.11-.05-.22-.12-.28-.23-.01-.03-.03-.06-.02-.09,0-.03,.03-.06,.06-.06,.02,0,.04,.01,.06,.02,.03,.01,.08,0,.11-.02l-.13-.15-.06-.07-.06-.07c-.13-.03-.26-.08-.38-.15-.11-.06-.21-.14-.26-.25-.01-.03-.02-.06-.02-.09s.04-.06,.07-.06c.02,0,.04,.01,.06,.02,.03,.01,.08,.01,.11,0l-.06-.08s-.06-.08-.06-.08l-.11-.16c-.13-.04-.26-.1-.37-.18-.1-.07-.2-.15-.24-.27,0-.03-.01-.06,0-.09s.04-.06,.07-.05c.02,0,.04,.02,.06,.03,.03,.02,.07,.02,.11,0l-.1-.17-.09-.16c-.13-.05-.25-.13-.36-.21-.1-.07-.18-.17-.21-.29,0-.03,0-.06,0-.09,.01-.03,.05-.05,.08-.05,.02,0,.04,.02,.05,.03,.03,.02,.07,.02,.11,.01l-.08-.18-.08-.17c-.12-.07-.24-.15-.34-.24-.08-.09-.16-.19-.18-.31,0-.03,0-.06,.01-.09,.02-.03,.05-.05,.08-.04,.02,0,.04,.02,.05,.04,.03,.02,.07,.03,.11,.02l-.07-.18-.03-.09s-.03-.09-.03-.09c-.11-.08-.22-.17-.31-.28-.08-.09-.15-.2-.16-.32,0-.03,0-.06,.02-.09,.02-.03,.05-.04,.08-.03,.02,0,.03,.03,.05,.04,.03,.02,.06,.04,.1,.03l-.05-.19-.05-.18c-.11-.09-.21-.19-.29-.3-.07-.1-.12-.21-.12-.34,0-.03,0-.06,.02-.09,.02-.02,.06-.04,.09-.02,.02,0,.03,.03,.05,.05,.02,.03,.06,.04,.1,.04l-.04-.19-.02-.09-.02-.09c-.1-.09-.19-.2-.26-.32-.06-.1-.12-.22-.1-.34,0-.03,.01-.06,.03-.08,.02-.02,.06-.03,.09-.02,.02,.01,.03,.03,.04,.05,.02,.03,.06,.05,.1,.05l-.02-.2-.02-.19c-.1-.1-.18-.21-.24-.34-.05-.11-.1-.23-.08-.35,0-.03,.01-.06,.04-.08Z"/><path class="d" d="M1.79,22.48s.05-.05,.08-.05c.02,0,.04,.02,.06,.03,.03,.02,.06,.02,.1,.01h0l-.08-.18s-.26-.38-.28-.41c.04,0,.43,.24,.43,.24l.15,.03,.04-.02s-.01-.05-.03-.07c-.02-.01-.04-.03-.04-.05-.01-.03,0-.07,.02-.09,.02-.02,.06-.02,.09-.02,.12,0,.23,.06,.33,.13,.11,.08,.21,.17,.3,.28l.18,.05,.19,.05s0-.08-.03-.1c-.01-.02-.03-.03-.04-.05-.01-.03,0-.07,.03-.08s.06-.02,.09-.02c.12,0,.23,.06,.32,.14,.11,.09,.2,.19,.28,.3l.18,.06-.02,.06h0l.02-.06,.09,.03s.09,.03,.09,.03c0-.04,0-.08-.02-.11-.01-.02-.03-.03-.04-.05,0-.03,0-.07,.04-.08,.03-.02,.06-.02,.09-.01,.12,.02,.22,.09,.31,.17,.1,.09,.19,.2,.26,.32l.17,.07,.18,.08s0-.08-.02-.11c-.01-.02-.03-.03-.04-.05,0-.03,.01-.06,.04-.08,.03-.01,.06-.01,.09,0,.12,.02,.22,.1,.3,.18,.09,.1,.17,.22,.23,.34l.17,.08,.18,.08s0-.08-.01-.11c-.01-.02-.03-.03-.03-.05,0-.03,.02-.06,.05-.08,.03-.01,.06-.01,.09,0,.12,.03,.21,.12,.29,.21,.09,.11,.16,.22,.21,.35l.08,.04s.08,.05,.08,.05l.17,.1s.01-.08,0-.11c-.01-.02-.03-.04-.03-.06,0-.03,.02-.06,.05-.07,.03-.01,.06,0,.09,0,.11,.04,.2,.13,.27,.22,.08,.11,.15,.23,.19,.36l.16,.1,.16,.11s.02-.08,0-.11c0-.02-.02-.04-.03-.06,0-.03,.03-.06,.06-.07,.03,0,.06,0,.09,0,.11,.04,.19,.14,.26,.24,.07,.11,.13,.24,.17,.37l.15,.11,.16,.11s.02-.07,0-.11c0-.02-.02-.04-.02-.06,0-.03,.03-.06,.06-.07,.03,0,.06,0,.09,.01,.11,.05,.19,.14,.25,.24,.07,.11,.13,.24,.17,.37l.15,.11,.16,.11s.02-.07,0-.11c0-.02-.02-.04-.02-.06,0-.03,.03-.06,.06-.07,.03,0,.06,0,.09,.01,.11,.05,.19,.14,.25,.24,.07,.11,.13,.24,.17,.37l.15,.1,.16,.11s.02-.08,0-.11c0-.02-.02-.04-.02-.06,0-.03,.03-.06,.06-.07,.03,0,.06,0,.09,0,.11,.04,.19,.13,.25,.23,.07,.11,.14,.23,.19,.36l.16,.09,.17,.1s.01-.08,0-.11c0-.02-.03-.03-.03-.06,0-.03,.02-.06,.05-.07,.03-.01,.06,0,.09,0,.11,.04,.2,.11,.27,.2,.08,.1,.15,.22,.21,.34l.08,.04s.08,.04,.08,.04l.18,.08s0-.08-.02-.11c-.01-.02-.03-.03-.03-.05,0-.03,.02-.06,.04-.08,.03-.01,.06-.01,.09,0,.11,.02,.21,.09,.29,.18,.09,.1,.17,.21,.25,.32l.17,.06,.18,.07s0-.08-.02-.11c-.01-.02-.03-.03-.04-.05,0-.03,.01-.07,.04-.08,.03-.02,.06-.02,.09-.01,.11,.01,.21,.09,.3,.16,.1,.09,.19,.19,.27,.3l.18,.06,.18,.06s0-.08-.03-.1c-.01-.02-.03-.03-.04-.05,0-.03,0-.07,.03-.08,.03-.02,.06-.02,.09-.02,.12,0,.22,.08,.31,.15,.1,.09,.19,.19,.27,.3l.18,.06,.18,.06s0-.08-.03-.1c-.01-.02-.03-.03-.04-.05,0-.03,0-.07,.04-.08,.03-.02,.06-.02,.09-.01,.12,.01,.22,.08,.31,.16,.1,.09,.19,.2,.26,.32l.17,.07,.18,.07s0-.08-.02-.1c-.01-.02-.03-.03-.04-.05,0-.03,.01-.06,.04-.08,.03-.02,.06-.02,.09-.01,.12,.02,.22,.09,.3,.18,.1,.1,.18,.21,.24,.34l.17,.08s.05,.02,.09,.04l.08,.05s0-.08,0-.11c-.01-.02-.03-.04-.03-.06,0-.03,.02-.06,.05-.08,.03-.01,.06,0,.09,0,.12,.04,.21,.13,.28,.22,.09,.11,.15,.23,.2,.35l.16,.09,.17,.1s.01-.08,0-.11c0-.02-.02-.03-.03-.06,0-.03,.02-.06,.05-.07,.03-.01,.06,0,.08,0,.11,.03,.19,.12,.26,.2,.09,.1,.16,.21,.23,.33,0,0,.04,.02,.08,.04l.09,.03,.18,.06s0-.08-.02-.1c-.01-.02-.03-.03-.04-.05,0-.03,.01-.06,.04-.08,.03-.02,.06-.02,.08-.02,.11,0,.2,.08,.29,.15,.06,.04,.11,.1,.17,.15l.23-.03,.04,.2h.03v.07s.1,.02,.15,.03c-.05,.01-.11,.02-.16,.03v.07h-.03l-.04,.2-.24-.06c-.06,.05-.13,.1-.2,.14-.11,.06-.23,.11-.35,.1-.03,0-.06,0-.09-.03-.02-.02-.04-.06-.02-.09,.01-.02,.03-.03,.05-.04,.03-.02,.05-.06,.05-.1l-.2,.03-.19,.03c-.1,.1-.22,.19-.34,.25-.11,.06-.23,.1-.35,.08-.03,0-.06-.01-.08-.03-.02-.02-.03-.06-.02-.09,.01-.02,.03-.03,.05-.04,.03-.02,.05-.06,.05-.1l-.2,.02-.19,.02c-.11,.09-.22,.17-.35,.24-.11,.06-.23,.1-.36,.07-.03,0-.06-.02-.08-.04-.02-.02-.03-.06-.01-.09,.01-.02,.04-.02,.05-.04,.03-.02,.05-.05,.06-.09h-.39c-.11,.09-.23,.16-.36,.22-.11,.05-.24,.08-.36,.06-.03,0-.06-.02-.08-.04-.02-.02-.03-.06,0-.09,.01-.02,.04-.02,.06-.04,.03-.02,.05-.05,.06-.09h-.3s-.1,0-.1,0c-.11,.08-.24,.14-.37,.18-.12,.04-.24,.06-.36,.03-.03,0-.06-.02-.08-.05-.02-.03-.02-.07,0-.09,.01-.02,.04-.02,.06-.03,.03-.02,.06-.05,.07-.09h-.2l-.19-.02c-.12,.08-.25,.14-.38,.18-.12,.03-.25,.05-.36,.01-.03,0-.06-.02-.08-.05-.02-.03-.02-.07,0-.09,.02-.02,.04-.02,.06-.03,.03-.01,.06-.05,.07-.08l-.2-.02-.19-.02c-.12,.07-.25,.12-.39,.16-.12,.03-.25,.04-.36,0-.03-.01-.06-.03-.07-.05-.02-.03-.02-.07,0-.09,.02-.02,.04-.02,.06-.03,.03-.01,.06-.04,.07-.08l-.2-.03-.19-.03c-.13,.06-.26,.11-.4,.14-.12,.03-.25,.03-.36-.02-.03-.01-.06-.03-.07-.06-.02-.03-.01-.07,.01-.09,.02-.01,.04-.02,.06-.02,.03-.01,.06-.04,.08-.08l-.2-.04-.19-.04c-.13,.06-.26,.09-.4,.11-.12,.02-.25,.02-.36-.04-.03-.01-.05-.03-.07-.06-.01-.03,0-.07,.02-.09,.02-.01,.04-.01,.06-.02,.04,0,.07-.04,.08-.07l-.19-.05-.19-.05c-.13,.05-.27,.08-.41,.09-.12,0-.25,0-.36-.06-.03-.02-.05-.04-.06-.07-.01-.03,0-.07,.02-.09,.02-.01,.04-.01,.06-.01,.04,0,.07-.03,.09-.07,0,0-.05-.01-.1-.03l-.09-.03-.18-.07c-.14,.04-.28,.06-.42,.06-.12,0-.25-.02-.35-.09-.03-.02-.05-.04-.06-.07,0-.03,0-.07,.03-.08,.02-.01,.04,0,.07-.01,.04,0,.07-.03,.09-.06l-.09-.04s-.09-.04-.09-.04l-.17-.08c-.14,.03-.28,.04-.42,.02-.12-.01-.25-.05-.35-.13-.02-.02-.05-.04-.05-.08,0-.03,0-.07,.04-.08,.02,0,.04,0,.07,0,.04,0,.07-.02,.1-.05l-.18-.1-.17-.1c-.14,.01-.28,0-.42-.02-.12-.02-.24-.07-.33-.16-.02-.02-.04-.05-.04-.08,0-.03,.01-.07,.05-.08,.02,0,.04,0,.07,0,.04,0,.08-.01,.1-.04l-.17-.11-.08-.06-.08-.06c-.14,0-.28-.03-.42-.07-.12-.03-.24-.1-.31-.2-.02-.03-.03-.05-.03-.09,0-.03,.02-.07,.05-.07,.02,0,.04,0,.06,.01,.04,0,.08,0,.11-.03l-.15-.13-.07-.06s-.07-.07-.07-.07c-.14-.02-.27-.06-.4-.12-.11-.05-.23-.12-.29-.23-.02-.03-.03-.06-.02-.09,0-.03,.03-.06,.06-.06,.02,0,.04,.01,.06,.02,.04,.01,.08,0,.11-.02,0,0-.04-.03-.07-.07l-.06-.08-.12-.15c-.14-.03-.27-.09-.39-.16-.11-.06-.21-.15-.26-.26-.01-.03-.02-.06-.01-.09,0-.03,.04-.06,.07-.06,.02,0,.04,.02,.06,.02,.03,.01,.07,.01,.11,0l-.12-.16-.11-.16c-.14-.04-.26-.11-.38-.19-.1-.07-.2-.16-.24-.28-.01-.03-.02-.06,0-.09,0-.03,.04-.06,.07-.05,.02,0,.04,.02,.06,.03,.03,.02,.07,.02,.11,0l-.11-.17s-.03-.04-.05-.08l-.05-.08c-.13-.05-.25-.13-.36-.21-.1-.08-.19-.17-.22-.29,0-.03-.01-.06,0-.09,.01-.03,.04-.05,.07-.05,.02,0,.04,.02,.06,.03,.03,.02,.07,.02,.11,0l-.1-.18,.06-.03h0l-.06,.03-.09-.17c-.13-.06-.25-.14-.35-.23-.09-.08-.18-.18-.21-.3,0-.03-.01-.06,0-.09s.04-.05,.08-.05c.02,0,.04,.02,.06,.03,.03,.02,.07,.02,.11,.01l-.09-.18-.09-.17c-.13-.06-.24-.14-.35-.24-.09-.08-.17-.18-.2-.3,0-.03-.01-.06,0-.09Z"/><path class="d" d="M6.96,34.82l.15-.11h0s-.06-.04-.1-.04c-.02,0-.04,.01-.06,0-.03,0-.05-.04-.05-.07,0-.03,.02-.06,.04-.08,.08-.09,.19-.14,.31-.16,.13-.03,.27-.05,.4-.04l.15-.11,.16-.11s-.06-.05-.1-.04c-.02,0-.04,0-.06,0-.03,0-.05-.05-.04-.08,0-.03,.02-.06,.04-.08,.08-.08,.2-.12,.32-.14,.13-.02,.27-.03,.41-.01l.15-.1,.03,.05h0l-.03-.05,.16-.1s-.06-.05-.09-.05c-.02,0-.04,0-.06,0-.03-.01-.04-.05-.04-.08,0-.03,.02-.06,.04-.08,.08-.09,.21-.11,.32-.12,.14-.01,.27,0,.41,.02l.16-.09,.17-.09s-.06-.05-.09-.05c-.02,0-.04,0-.06,0-.03-.01-.04-.05-.03-.08s.03-.05,.05-.07c.09-.08,.21-.11,.33-.11,.14,0,.27,.01,.41,.05l.17-.07,.18-.08s-.05-.06-.09-.06c-.02,0-.04,0-.06-.01-.03-.02-.04-.05-.03-.08,0-.03,.03-.05,.05-.07,.09-.07,.22-.09,.33-.09,.13,0,.27,.03,.4,.07l.17-.06,.18-.06s-.05-.06-.08-.07c-.02,0-.04,0-.06-.02-.03-.02-.03-.06-.02-.09,.01-.03,.03-.05,.06-.07,.1-.06,.22-.07,.34-.07,.13,0,.26,.03,.39,.09l.18-.05,.19-.05s-.05-.06-.08-.07c-.02,0-.04,0-.06-.02-.02-.02-.03-.06-.02-.09,.01-.03,.04-.05,.06-.06,.1-.06,.23-.06,.35-.04,.13,.02,.26,.05,.39,.11,0,0,.18-.04,.18-.04l.19-.04s-.04-.07-.07-.08c-.02,0-.04,0-.06-.02-.02-.02-.03-.06-.01-.09,.01-.03,.04-.04,.07-.06,.11-.05,.23-.04,.35-.01,.13,.03,.26,.07,.38,.14l.18-.03,.19-.02s-.04-.07-.07-.08c-.02,0-.04-.01-.06-.03-.02-.02-.02-.06,0-.09,.02-.03,.04-.04,.07-.05,.11-.04,.23-.02,.35,.01,.13,.04,.25,.09,.37,.17l.18-.02h.1s.1-.02,.1-.02c0-.04-.03-.07-.06-.09-.02,0-.04-.01-.05-.03-.02-.02-.02-.06,0-.09,.02-.03,.05-.04,.07-.05,.11-.03,.23-.01,.34,.03,.13,.04,.25,.1,.36,.18h.18l.19-.03s-.03-.07-.06-.09c-.02,0-.04-.01-.05-.03-.02-.02-.02-.06,0-.09,.02-.03,.04-.04,.07-.05,.11-.04,.23-.01,.34,.02,.13,.04,.25,.1,.36,.17l.18-.02,.19-.02s-.03-.07-.07-.08c-.02,0-.04-.01-.05-.03-.02-.02-.02-.06,0-.09,.02-.03,.04-.04,.07-.05,.11-.04,.22-.02,.34,.01,.13,.04,.25,.09,.37,.15l.18-.03,.19-.03s-.04-.07-.07-.08c-.02,0-.04-.01-.06-.03-.02-.02-.02-.06,0-.09,.01-.03,.04-.04,.07-.05,.1-.05,.22-.04,.33-.01,.13,.03,.26,.08,.38,.13l.18-.05,.18-.05s-.04-.06-.08-.07c-.02,0-.04,0-.06-.02-.02-.02-.03-.06-.02-.09,.01-.03,.04-.05,.06-.06,.1-.05,.22-.05,.33-.04,.1,.01,.21,.04,.31,.07l.07-.1,.12,.08,.06-.02,.02,.06c.05-.02,.1-.04,.15-.06-.03,.04-.05,.08-.08,.12l.05,.04-.06,.08,.05,.13-.1,.03c0,.11-.01,.22-.03,.32-.03,.12-.07,.23-.16,.31-.02,.02-.05,.04-.08,.04-.03,0-.07-.02-.08-.05,0-.02,0-.04,0-.06,0-.04-.01-.07-.04-.1l-.12,.16-.06,.08-.06,.07c0,.14-.02,.28-.06,.41-.03,.12-.08,.23-.18,.31-.02,.02-.05,.03-.08,.03-.03,0-.07-.02-.07-.05,0-.02,0-.04,0-.06,0-.04,0-.07-.03-.1l-.13,.15-.12,.14c0,.14-.04,.27-.08,.4-.04,.11-.1,.23-.2,.3-.03,.02-.05,.03-.09,.03-.03,0-.06-.02-.07-.06,0-.02,0-.04,.01-.06,0-.03,0-.07-.03-.1l-.14,.14-.13,.14c-.02,.14-.05,.27-.11,.4-.05,.11-.12,.22-.22,.28-.03,.02-.06,.03-.09,.02-.03,0-.06-.03-.07-.06,0-.02,.01-.04,.02-.06,.01-.03,0-.08-.02-.11,0,0-.03,.03-.07,.07l-.07,.06-.14,.12c-.03,.14-.07,.27-.14,.39-.06,.11-.14,.21-.25,.26-.03,.01-.06,.02-.09,.02-.03,0-.06-.04-.06-.07,0-.02,.01-.04,.02-.06,.01-.03,.01-.07,0-.11l-.08,.06s-.08,.06-.08,.06l-.15,.11c-.04,.13-.1,.26-.18,.37-.07,.1-.16,.19-.28,.23-.03,0-.06,.02-.09,0-.03-.01-.05-.04-.05-.07,0-.02,.02-.04,.03-.06,.02-.03,.02-.07,0-.11l-.17,.1-.17,.09c-.06,.12-.14,.24-.23,.35-.08,.09-.19,.17-.31,.19-.03,0-.06,0-.09,0-.03-.01-.05-.05-.04-.08,0-.02,.02-.04,.04-.05,.02-.03,.03-.07,.02-.11l-.18,.08s-.04,.02-.09,.04l-.09,.03c-.08,.11-.17,.22-.28,.31-.09,.08-.21,.14-.33,.14-.03,0-.06,0-.09-.02-.03-.02-.04-.06-.03-.08,0-.02,.03-.03,.04-.05,.03-.03,.04-.06,.04-.1l-.19,.05s-.18,.05-.18,.04c-.09,.1-.2,.19-.32,.26-.05,.03-.11,.06-.17,.08-.06,.02-.12,.02-.18,.01-.03,0-.06-.01-.08-.04-.02-.02-.03-.06-.02-.09,.01-.02,.03-.03,.05-.04,.03-.02,.05-.06,.05-.09h-.2l-.19,.03c-.11,.09-.22,.17-.35,.23-.11,.04-.24,.07-.36,.04-.03,0-.06-.02-.08-.04-.02-.02-.02-.06,0-.09,.01-.02,.04-.02,.05-.03,.03-.02,.05-.05,.06-.09h-.38c-.12,.08-.24,.12-.37,.16-.12,.03-.24,.05-.36,.01-.03,0-.06-.02-.07-.05-.02-.03-.02-.07,0-.09,.02-.02,.04-.02,.06-.03,.03-.02,.06-.05,.07-.08l-.2-.02-.19-.03c-.12,.06-.25,.11-.39,.14-.12,.03-.25,.04-.36-.01-.03-.01-.05-.03-.07-.06-.01-.03-.01-.07,.01-.09,.02-.01,.04-.02,.06-.02,.03-.01,.06-.04,.08-.08l-.19-.04-.18-.04c-.13,.06-.26,.1-.4,.12-.12,.02-.25,.02-.35-.04-.03-.01-.05-.03-.07-.06-.01-.03,0-.07,.02-.09,.02-.01,.04-.01,.06-.02,.03,0,.06-.04,.08-.07l-.19-.05-.18-.05c-.13,.05-.26,.09-.4,.1-.12,.01-.24,0-.35-.05-.03-.01-.05-.03-.06-.06-.01-.03,0-.07,.02-.09,.02-.01,.04-.01,.06-.02,.03,0,.07-.04,.08-.07l-.19-.06,.02-.06h0l-.02,.06-.18-.05c-.13,.05-.26,.08-.4,.09-.12,.01-.24,0-.35-.06-.03-.02-.05-.03-.06-.06s0-.07,.02-.09c.02-.01,.04-.01,.06-.02,.03,0,.07-.03,.08-.07l-.19-.06s-.4,0-.44-.01c.03-.03,.41-.22,.41-.22Z"/></g></g><g><path class="f" d="M23.2,32.18h-.16c0,.34,.09,.63,.18,.83,.09,.2,.17,.3,.18,.3,.02,0-.03-.13-.09-.33-.05-.2-.11-.48-.11-.8Z"/><path class="f" d="M36.92,25.4h0s0,0,0,0Z"/><polygon class="f" points="36.92 25.4 36.92 25.4 36.92 25.4 36.92 25.4"/><path class="f" d="M37.73,24.53h0c.27-.32,.53-.66,.78-1.02l-.13-.13c-.2,.29-.41,.57-.63,.84,.02-.43,0-.74-.02-.74-.03,0-.1,.4-.14,.94-.19,.22-.39,.42-.59,.62-.1-.47-.14-.89-.15-1.21,0-.36,0-.58-.02-.58-.01,0-.06,.22-.08,.58-.02,.34,0,.82,.12,1.34-.28,.27-.57,.52-.87,.76-.16-.43-.24-.83-.28-1.13-.04-.37-.05-.61-.07-.61,0,0-.02,.06-.02,.16,0,.11-.03,.26-.01,.45,.02,.33,.09,.76,.25,1.22-.27,.2-.53,.4-.81,.58,0-.05-.01-.09-.02-.14l-.04-.4c-.03-.26-.05-.49-.05-.68-.02-.39-.04-.63-.05-.63-.02,0-.03,.24-.05,.63-.01,.2,0,.43,.01,.69l.03,.41c0,.07,.01,.14,.03,.22-.37,.24-.74,.45-1.11,.65,.03-.97,.12-1.7,.08-1.71-.02,0-.06,.22-.12,.59-.06,.31-.09,.73-.12,1.19-.37,.19-.74,.37-1.1,.53,.05-.5,.11-.94,.17-1.28,.08-.42,.13-.67,.11-.68,0,0-.03,.06-.07,.17-.04,.11-.09,.28-.14,.48-.09,.35-.18,.83-.24,1.37-.37,.16-.73,.3-1.08,.43v-.06c.01-.07,.02-.13,.03-.2l.04-.19c.03-.12,.04-.24,.07-.35l.09-.3c.02-.09,.05-.17,.08-.24l.07-.18c.04-.1,.05-.16,.05-.16,0,0-.04,.05-.09,.14l-.09,.17c-.04,.07-.08,.15-.11,.24l-.11,.3c-.04,.11-.06,.23-.09,.35l-.05,.19c-.01,.07-.02,.14-.03,.21l-.02,.14c-.23,.08-.46,.16-.67,.23-.15,.05-.3,.1-.46,.15,.12-.32,.24-.61,.35-.82,.16-.3,.26-.49,.25-.5-.01,0-.15,.15-.34,.45-.14,.23-.31,.55-.45,.93-.43,.13-.86,.24-1.29,.35,.17-.35,.32-.67,.45-.91,.18-.34,.28-.55,.26-.56s-.15,.18-.35,.51c-.17,.25-.36,.61-.56,1.01-.45,.11-.9,.2-1.36,.29,.13-.24,.25-.45,.37-.61,.16-.25,.26-.41,.24-.42s-.14,.13-.33,.36c-.16,.17-.31,.42-.48,.71-.41,.08-.82,.14-1.23,.21,.12-.17,.25-.32,.35-.43,.17-.18,.27-.3,.26-.31,0-.01-.14,.07-.33,.24-.14,.13-.32,.31-.49,.54-.3,.04-.59,.09-.89,.12,.09-.11,.17-.2,.24-.28,.16-.17,.27-.27,.26-.28,0-.01-.14,.06-.33,.21-.11,.09-.25,.23-.38,.38-.8,.1-1.6,.19-2.4,.27-.1,.01-.15-.12-.06-.18,.74-.49,1.46-1.02,2.14-1.59,.41-.11,.77-.22,1.04-.31,.29-.09,.47-.16,.46-.18,0-.01-.19,.02-.49,.08-.2,.04-.46,.1-.74,.17,.32-.28,.63-.56,.93-.85,.09-.02,.18-.03,.28-.04,.13-.02,.29-.05,.4-.1,.24-.09,.45-.16,.62-.24,.35-.17,.55-.27,.54-.29,0-.01-.23,.06-.58,.19-.18,.07-.4,.13-.63,.21-.12,.04-.23,.06-.37,.08h-.06c.41-.4,.8-.82,1.18-1.25,.51-.2,.97-.37,1.28-.55,.35-.18,.55-.3,.55-.31-.02-.03-.69,.28-1.62,.62,.42-.5,.83-1.01,1.21-1.54,.49-.1,.9-.27,1.19-.41,.31-.16,.48-.29,.48-.3,0-.02-.2,.07-.52,.21-.26,.1-.61,.22-1.01,.31,.27-.38,.53-.77,.78-1.17h0c.96-.44,1.75-.76,1.73-.8,0-.01-.21,.04-.54,.15-.28,.09-.65,.24-1.06,.42,.27-.44,.53-.89,.77-1.34,.43-.12,.79-.29,1.05-.43,.27-.16,.43-.27,.42-.29,0-.02-.18,.07-.47,.19-.23,.1-.54,.22-.9,.32,.28-.54,.54-1.09,.78-1.65,.46-.19,.83-.43,1.08-.63,.27-.23,.41-.39,.4-.4-.01-.01-.18,.12-.46,.32-.23,.16-.55,.34-.93,.5,.21-.49,.4-.99,.57-1.5,.27-.16,.52-.3,.67-.44,.16-.14,.26-.23,.25-.24-.02-.03-.36,.21-.84,.46,.14-.42,.27-.85,.39-1.28,.41-.3,.7-.56,.68-.58-.02-.02-.28,.12-.62,.35,.1-.39,.2-.79,.28-1.18h0c.22-.13,.4-.25,.39-.28,0-.02-.16,0-.36,.09,.11-.53,.2-1.06,.27-1.59l-.16-.02c-.07,.51-.16,1.03-.26,1.53-.1-.14-.2-.25-.29-.33-.13-.11-.23-.15-.23-.14-.01,.01,.06,.09,.16,.21,.09,.12,.21,.28,.32,.48-.08,.39-.18,.78-.29,1.16-.28-.42-.51-.72-.53-.7-.03,.02,.18,.42,.48,.91-.12,.43-.26,.86-.41,1.29-.17-.35-.32-.66-.46-.88-.16-.26-.26-.42-.27-.41-.03,.02,.29,.67,.65,1.5-.18,.49-.37,.98-.58,1.46-.23-.45-.48-.83-.68-1.1-.22-.29-.38-.46-.39-.45-.01,.01,.11,.2,.31,.5,.19,.31,.44,.74,.68,1.24-.24,.55-.51,1.08-.79,1.61-.15-.38-.29-.72-.43-.97-.16-.32-.27-.51-.29-.5-.04,.02,.29,.71,.62,1.65-.25,.46-.52,.91-.8,1.35-.13-.39-.24-.74-.37-.99-.14-.31-.24-.49-.25-.48-.04,.02,.25,.72,.51,1.65-.27,.42-.55,.82-.84,1.22-.18-.65-.35-1.13-.38-1.12-.03,0,.08,.57,.26,1.28-.4,.53-.81,1.05-1.25,1.55-.12-.84-.24-1.47-.26-1.46-.03,0,.02,.71,.13,1.62-.41,.47-.84,.92-1.29,1.35-.02-.42-.01-.79-.01-1.08,0-.36,0-.59-.03-.59-.02,0-.04,.22-.08,.58-.03,.32-.06,.75-.04,1.23-.37,.35-.75,.69-1.14,1.02-.05-.14-.04-.31-.04-.46,0-.22-.01-.42-.02-.59-.05-.33-.09-.53-.11-.53-.02,0-.01,.21,0,.53l-.02,.58c0,.11-.02,.23,0,.36,0,.07,.03,.14,.06,.21-.78,.64-1.59,1.23-2.44,1.76-.06,.04-.15,0-.15-.08l-.02-3.38c.26-.3,.48-.56,.62-.78,.16-.23,.24-.38,.23-.39-.03-.02-.37,.4-.85,.94v-1.52c.35-.36,.66-.68,.86-.95,.22-.28,.34-.45,.33-.46-.03-.02-.51,.53-1.2,1.2v-1.7c.77-.85,1.35-1.55,1.33-1.57-.02-.02-.61,.56-1.34,1.34v-1.87h-.01v-.02c.43-.39,.77-.78,1.01-1.09,.13-.17,.23-.32,.29-.41,.07-.1,.1-.16,.09-.16-.01-.01-.18,.19-.46,.51-.23,.26-.55,.59-.93,.94v-1.78c.51-.48,.92-.98,1.2-1.35,.14-.19,.24-.36,.31-.47,.07-.11,.1-.18,.1-.18-.02-.01-.19,.22-.49,.59-.27,.33-.66,.76-1.13,1.2v-1.96h0c.43-.44,.82-.84,1.05-1.17,.24-.32,.38-.52,.37-.53-.01,0-.18,.17-.45,.47-.23,.29-.59,.63-.98,1.02v-1.95l.02,.04c.26-.26,.49-.5,.63-.69,.14-.19,.22-.31,.21-.32-.03-.02-.39,.37-.88,.83v-1.57c.38-.44,.66-.82,.64-.84-.02-.02-.3,.24-.65,.6v-1.42h0c.29-.37,.49-.71,.47-.73-.02-.02-.23,.19-.48,.49v-1.11c.1-.07,.18-.15,.23-.22,.06-.09,.09-.15,.08-.16-.02-.02-.14,.09-.31,.2v-.87l-.14,.02v.85c-.18-.11-.3-.22-.32-.21-.01,0,.01,.07,.08,.16,.05,.07,.14,.15,.24,.22v1.04c-.23-.27-.41-.45-.43-.43-.02,.02,.16,.32,.43,.68v1.42c-.33-.34-.59-.57-.61-.56-.02,.02,.23,.37,.6,.79v1.58c-.48-.45-.81-.82-.84-.79-.01,0,.07,.13,.21,.32,.14,.2,.37,.43,.63,.69v1.88c-.38-.38-.73-.71-.95-.99-.26-.3-.44-.48-.45-.47-.01,0,.13,.21,.37,.53,.22,.33,.6,.71,1.02,1.15v1.96c-.46-.43-.84-.85-1.11-1.17-.3-.37-.47-.6-.49-.59,0,0,.03,.07,.1,.18,.07,.11,.17,.28,.31,.47,.27,.37,.67,.85,1.18,1.33v1.78c-.37-.34-.68-.66-.91-.92-.28-.32-.45-.52-.46-.51,0,0,.03,.06,.09,.16,.07,.1,.16,.25,.29,.41,.23,.3,.57,.68,.98,1.07v1.89c-.73-.77-1.31-1.34-1.33-1.32-.02,.02,.56,.72,1.33,1.56v1.71c-.69-.66-1.17-1.21-1.2-1.18-.01,0,.11,.18,.33,.46,.19,.27,.51,.59,.86,.94v1.52c-.48-.53-.82-.95-.85-.93-.01,0,.07,.16,.23,.39,.13,.22,.36,.48,.61,.78v3.37c-.01,.08-.1,.12-.16,.08-.83-.54-1.63-1.15-2.4-1.79,.02-.05,.03-.11,.04-.16,.01-.13,0-.25,0-.36l-.02-.58c.02-.33,.02-.53,0-.53-.02,0-.06,.2-.11,.53,0,.17-.02,.37-.02,.59,0,.13,0,.27-.02,.4-.39-.34-.78-.69-1.15-1.05,.02-.45-.01-.84-.04-1.14-.03-.36-.06-.58-.08-.58-.02,0-.03,.22-.03,.59,0,.27,0,.61,0,.99-.44-.44-.87-.89-1.28-1.35,.1-.86,.14-1.52,.11-1.52-.03,0-.14,.58-.25,1.37-.43-.5-.84-1.01-1.24-1.54,.17-.67,.27-1.19,.24-1.2-.03,0-.18,.43-.36,1.04-.29-.4-.57-.8-.84-1.21,.26-.9,.53-1.57,.49-1.58-.01,0-.11,.18-.25,.48-.12,.24-.23,.56-.35,.93-.28-.44-.55-.88-.8-1.33,.33-.91,.64-1.58,.6-1.6-.01,0-.12,.18-.29,.5-.14,.24-.27,.56-.41,.93-.29-.52-.55-1.05-.8-1.59,.24-.49,.48-.92,.67-1.22,.2-.31,.32-.49,.31-.5-.01,0-.17,.16-.39,.45-.2,.27-.44,.64-.67,1.09-.21-.47-.41-.95-.59-1.44,.37-.84,.69-1.5,.66-1.51-.01,0-.12,.15-.27,.41-.14,.22-.3,.54-.46,.9-.15-.42-.29-.84-.42-1.27,.31-.5,.52-.92,.5-.94-.02-.01-.27,.3-.55,.74-.11-.39-.21-.78-.3-1.17h.02c.11-.21,.24-.39,.34-.51,.1-.12,.17-.2,.16-.21,0-.01-.1,.04-.23,.14-.1,.09-.22,.21-.33,.38-.12-.54-.22-1.08-.29-1.63l-.13,.07c.07,.53,.16,1.06,.27,1.58-.18-.08-.33-.1-.34-.08-.01,.03,.16,.14,.38,.28,.09,.4,.18,.79,.29,1.18-.33-.22-.59-.36-.61-.34-.02,.02,.27,.29,.67,.58,.12,.43,.26,.86,.41,1.29-.48-.26-.82-.49-.84-.46,0,.01,.08,.1,.25,.24,.15,.14,.4,.29,.68,.44,.18,.51,.38,1.01,.59,1.51-.39-.17-.71-.35-.95-.51-.28-.2-.45-.33-.46-.32,0,0,.13,.17,.4,.4,.26,.21,.64,.45,1.11,.64,.25,.56,.52,1.11,.81,1.65-.38-.11-.71-.23-.95-.34-.28-.13-.46-.21-.47-.19,0,.01,.15,.13,.42,.29,.27,.15,.65,.32,1.1,.44,.25,.46,.52,.92,.8,1.36-.44-.19-.83-.36-1.14-.45-.33-.11-.53-.17-.54-.15-.01,.04,.77,.36,1.73,.8l.03-.06c.27,.42,.55,.84,.85,1.25-.44-.09-.82-.22-1.11-.33-.32-.13-.51-.22-.52-.21,0,.01,.17,.13,.48,.3,.31,.15,.76,.33,1.28,.43,.4,.54,.81,1.06,1.25,1.57-1-.36-1.73-.7-1.75-.67,0,.01,.2,.13,.55,.31,.34,.19,.84,.38,1.4,.6h0c.37,.41,.76,.83,1.16,1.23-.06,0-.11-.01-.17-.02-.14-.01-.25-.04-.37-.08-.24-.08-.46-.14-.63-.21-.35-.13-.57-.21-.58-.19,0,.01,.2,.12,.54,.29,.17,.08,.39,.15,.62,.24,.11,.05,.26,.08,.4,.1,.14,.02,.27,.04,.4,.07,.3,.3,.62,.58,.94,.86-.33-.09-.63-.16-.86-.2-.3-.06-.48-.09-.49-.08,0,.01,.17,.08,.46,.18,.29,.1,.7,.22,1.15,.34h0c.66,.56,1.35,1.08,2.07,1.57,.08,.06,.04,.19-.06,.18-.81-.08-1.62-.17-2.43-.28-.13-.16-.27-.29-.38-.39-.19-.15-.32-.22-.33-.21-.01,.01,.09,.12,.26,.28,.07,.08,.16,.18,.25,.29-.3-.04-.59-.08-.89-.12-.17-.23-.35-.41-.49-.54-.19-.17-.33-.25-.33-.24-.01,.01,.09,.13,.26,.31,.1,.12,.22,.26,.35,.44-.41-.06-.82-.13-1.23-.21-.17-.29-.33-.54-.49-.71-.19-.23-.31-.37-.33-.36s.08,.17,.24,.42c.12,.16,.24,.37,.37,.61-.45-.09-.91-.18-1.35-.29-.2-.4-.39-.76-.57-1.01-.2-.32-.34-.51-.35-.51s.09,.22,.26,.56c.14,.24,.29,.56,.46,.91-.43-.1-.86-.22-1.29-.35-.14-.38-.3-.7-.45-.94-.19-.29-.33-.45-.34-.45-.02,.01,.09,.19,.25,.5,.11,.22,.24,.5,.35,.83-.16-.05-.32-.1-.48-.15-.21-.07-.43-.15-.65-.22l-.02-.15c0-.07-.01-.14-.03-.21l-.05-.19c-.03-.12-.05-.25-.09-.35l-.11-.3c-.03-.09-.07-.17-.11-.24l-.09-.17c-.05-.09-.09-.14-.09-.14,0,0,0,.06,.05,.16l.07,.18c.03,.07,.06,.15,.08,.24l.09,.3c.03,.11,.05,.23,.07,.35l.04,.19c0,.06,.01,.13,.02,.2v.07c-.34-.13-.7-.27-1.07-.42-.05-.55-.15-1.04-.24-1.39-.05-.21-.11-.37-.14-.48-.04-.11-.06-.17-.07-.17-.02,0,.04,.26,.11,.68,.06,.34,.13,.79,.17,1.3-.36-.16-.73-.33-1.1-.52-.03-.48-.05-.91-.12-1.23-.06-.37-.11-.6-.12-.59-.04,0,.05,.75,.08,1.74-.38-.2-.75-.41-1.13-.65,.02-.09,.03-.18,.04-.26l.03-.41c.02-.26,.03-.49,.01-.69-.01-.39-.03-.63-.05-.63-.02,0-.04,.24-.05,.63,0,.19-.03,.42-.05,.68l-.04,.4c0,.06-.01,.13-.03,.19-.28-.18-.55-.37-.82-.57,.18-.48,.25-.93,.27-1.27,.01-.19,0-.35-.01-.45,0-.11-.02-.16-.02-.16-.02,0-.03,.24-.07,.61-.04,.32-.13,.74-.3,1.18-.3-.23-.59-.48-.87-.74,.13-.54,.15-1.04,.13-1.4-.03-.36-.07-.58-.08-.58-.02,0-.01,.22-.02,.58-.01,.33-.06,.78-.17,1.27-.19-.19-.38-.38-.57-.59-.05-.59-.12-1.04-.15-1.03-.03,0-.04,.35-.02,.83-.23-.27-.45-.55-.65-.85l-.14,.06c.24,.36,.5,.69,.77,1.01-.38-.14-.68-.22-.68-.19,0,.03,.33,.22,.78,.4l.03-.06c.16,.18,.32,.35,.48,.52l-.1-.02c-.14-.03-.26-.05-.37-.07-.21-.04-.34-.05-.35-.04,0,.02,.12,.07,.32,.13,.1,.03,.22,.07,.36,.11l.21,.06,.11,.03h.03c.28,.28,.56,.53,.86,.77h0c-.64-.05-1.13-.13-1.14-.1,0,.02,.14,.06,.39,.13,.24,.07,.59,.11,.97,.16h0c.23,.17,.46,.35,.69,.51-.68-.07-1.18-.15-1.19-.11,0,.02,.16,.07,.44,.13,.26,.07,.62,.12,1.03,.17,.37,.24,.74,.46,1.1,.67h-.28c-.18,.02-.35,.03-.49,.04-.28,.02-.45,.05-.45,.06s.17,.03,.45,.04c.14,0,.3,0,.49,0h.29c.1,0,.2,0,.26,.03l.02-.03c.32,.17,.63,.32,.94,.46-.36,.03-.67,.06-.91,.11-.28,.05-.44,.09-.44,.11,0,.04,.69-.03,1.55-.07v-.06c.4,.18,.8,.34,1.18,.48-.4,.1-.75,.2-1.03,.23-.33,.06-.54,.11-.53,.12,0,.02,.21,0,.55-.02,.34-.01,.79-.12,1.29-.24,.11,.04,.21,.07,.31,.11,.22,.07,.44,.14,.67,.21-.59,.21-1.03,.4-1.02,.42,0,.03,.58-.11,1.27-.34h0c.43,.11,.85,.22,1.29,.32-.3,.15-.58,.26-.8,.33-.26,.09-.42,.14-.42,.15,0,.01,.17,0,.44-.06,.27-.06,.64-.18,1.02-.38,.44,.1,.88,.19,1.32,.27-.25,.12-.48,.21-.66,.26-.22,.06-.36,.09-.35,.11,0,.01,.14,.02,.38,0,.23-.03,.55-.12,.86-.3l-.02-.03c.42,.07,.84,.14,1.26,.2-.38,.2-.68,.34-.67,.37,0,.02,.41-.05,.86-.29l-.03-.06c.35,.05,.7,.1,1.04,.14v.02c-.31,.14-.54,.27-.53,.3,.01,.03,.37-.06,.81-.23l-.02-.05c.74,.09,1.47,.17,2.21,.24,.09,0,.12,.13,.04,.18-.58,.34-1.18,.66-1.78,.96-.23-.07-.45-.11-.62-.13-.28-.02-.45,0-.45,.01,0,.02,.17,.04,.44,.09,.13,.03,.29,.07,.45,.12-.38,.19-.77,.37-1.15,.54-.26-.12-.5-.23-.7-.29-.13-.04-.24-.07-.32-.08-.08-.01-.12-.01-.12,0,0,0,.04,.03,.11,.06,.07,.03,.17,.06,.29,.12,.15,.07,.34,.16,.55,.27-.41,.18-.81,.35-1.23,.5-.3-.17-.6-.26-.83-.3-.26-.04-.41-.03-.41-.02,0,.02,.15,.05,.39,.12,.18,.06,.41,.15,.66,.27-.5,.19-1.01,.37-1.53,.53-.34-.29-.69-.5-.95-.63-.29-.14-.47-.2-.48-.18,0,.02,.16,.11,.43,.27,.23,.14,.52,.35,.83,.6-.51,.16-1.03,.3-1.55,.43-.27-.24-.54-.42-.75-.54-.25-.13-.41-.18-.41-.17,0,.02,.14,.11,.36,.25,.17,.12,.39,.29,.62,.49-.42,.1-.85,.19-1.28,.27-.18-.21-.38-.37-.54-.46-.19-.1-.32-.13-.32-.12,0,.02,.1,.09,.27,.21,.12,.1,.27,.23,.42,.4-.76,.14-1.53,.24-2.3,.3l.02,.17c1.92-.16,3.83-.51,5.69-1.05-.16,.32-.34,.58-.49,.77-.18,.21-.3,.34-.28,.35,0,0,.15-.09,.36-.28,.2-.2,.44-.51,.63-.9,.53-.16,1.05-.33,1.57-.52-.16,.45-.35,.84-.51,1.12-.2,.33-.34,.53-.33,.54,0,0,.05-.04,.12-.12,.07-.09,.18-.2,.29-.37,.21-.3,.44-.73,.62-1.25,.44-.16,.87-.34,1.3-.52h.02c-.1,.34-.24,.63-.36,.85-.16,.26-.28,.42-.27,.43,0,0,.16-.12,.35-.38,.17-.23,.35-.58,.47-.99,.4-.17,.8-.36,1.19-.55,.04,.02,.07,.03,.11,.05l.06-.13c.6-.3,1.2-.62,1.78-.96,.06-.04,.15,0,.15,.08v7.74h.36v-7.74c0-.07,.08-.12,.15-.08,.59,.35,1.19,.67,1.81,.98l.06,.12s.07-.03,.1-.04c.4,.19,.8,.38,1.2,.56,.11,.41,.3,.75,.46,.98,.2,.25,.35,.39,.35,.38,.02-.01-.1-.17-.27-.43-.12-.21-.26-.5-.36-.85h.01c.43,.19,.87,.36,1.32,.53,.18,.51,.41,.94,.62,1.24,.11,.16,.22,.28,.29,.37,.07,.08,.12,.13,.12,.12,.02-.01-.12-.21-.33-.54-.16-.28-.35-.66-.51-1.11,.52,.19,1.04,.36,1.57,.52,.19,.39,.43,.7,.63,.89,.21,.19,.35,.29,.36,.28,.01-.01-.11-.14-.28-.35-.15-.19-.33-.45-.49-.76,1.85,.54,3.75,.89,5.66,1.04l-.04-.17c-.75-.06-1.49-.16-2.23-.29,.15-.18,.3-.32,.43-.42,.16-.12,.27-.19,.27-.21,0-.01-.13,.02-.32,.12-.16,.09-.37,.25-.55,.47-.43-.08-.86-.17-1.28-.27,.23-.21,.46-.38,.63-.5,.22-.15,.37-.24,.36-.25,0-.01-.17,.04-.41,.17-.22,.11-.49,.3-.76,.55-.52-.13-1.03-.27-1.55-.43,.31-.26,.61-.47,.84-.62,.27-.16,.43-.26,.43-.27,0-.01-.19,.05-.48,.18-.27,.13-.62,.35-.97,.65-.51-.16-1.02-.34-1.53-.53,.25-.13,.49-.23,.68-.28,.24-.07,.39-.1,.39-.12,0-.01-.16-.02-.41,.02-.23,.04-.53,.14-.84,.31-.41-.16-.82-.33-1.23-.51,.22-.11,.41-.21,.57-.28,.12-.06,.22-.1,.29-.12,.07-.03,.11-.05,.11-.06,0,0-.04,0-.12,0-.08,0-.19,.03-.32,.08-.2,.06-.44,.17-.71,.29-.39-.17-.77-.35-1.15-.54,.17-.06,.33-.1,.47-.12,.27-.05,.44-.07,.44-.09,0-.01-.17-.03-.45-.01-.18,.02-.4,.06-.64,.13-.61-.3-1.2-.62-1.79-.96-.08-.05-.05-.17,.04-.18,.74-.08,1.48-.16,2.23-.25l-.02,.05c.43,.17,.79,.26,.81,.23,0-.02-.22-.15-.54-.3v-.02c.36-.04,.71-.09,1.06-.14l-.03,.06c.45,.24,.85,.31,.86,.29,.01-.03-.29-.17-.68-.38,.42-.06,.85-.13,1.27-.21l-.02,.03c.32,.17,.63,.26,.86,.3,.23,.03,.37,.02,.38,0,0-.02-.14-.05-.35-.11-.18-.05-.42-.14-.67-.26,.44-.08,.89-.17,1.33-.27h0c.38,.2,.75,.32,1.02,.38,.27,.06,.44,.07,.44,.06,0-.02-.16-.07-.42-.15-.22-.08-.5-.19-.81-.34,.43-.1,.87-.22,1.29-.34v.02c.69,.23,1.26,.37,1.27,.34,0-.03-.43-.22-1.03-.43,.22-.07,.44-.13,.66-.21,.11-.03,.21-.07,.32-.11,.51,.12,.96,.23,1.3,.24,.34,.03,.55,.04,.55,.02s-.2-.06-.53-.12c-.28-.04-.64-.14-1.04-.24,.38-.14,.78-.3,1.19-.48v.07c.85,.04,1.54,.11,1.54,.07,0-.02-.17-.06-.44-.11-.24-.05-.56-.08-.93-.11,.31-.14,.63-.3,.95-.47l.03,.04c.06-.04,.15-.04,.26-.03h.29c.18,0,.35,0,.49,0,.28,0,.45-.02,.45-.04,0-.02-.17-.04-.45-.06-.14-.01-.3-.02-.49-.03h-.3l.02-.02h0c.36-.2,.72-.42,1.08-.65,.42-.05,.79-.1,1.06-.17,.28-.07,.44-.12,.44-.13,0-.03-.52,.04-1.22,.12,.24-.17,.48-.35,.72-.53v.02c.39-.04,.73-.08,.97-.16,.24-.06,.39-.11,.39-.13,0-.03-.49,.05-1.14,.1v-.02c.28-.23,.56-.48,.83-.75h.05l.11-.04,.21-.06c.14-.04,.26-.08,.36-.11,.2-.07,.33-.12,.32-.13,0-.02-.14,0-.35,.04-.11,.02-.23,.04-.37,.07l-.13,.03c.17-.17,.34-.35,.5-.54l.04,.08c.45-.18,.79-.37,.78-.4,0-.03-.32,.05-.72,.2Z"/><path class="f" d="M18.44,32.98c-.06,.2-.1,.32-.09,.33,.01,0,.09-.1,.18-.3,.09-.2,.17-.49,.18-.83h-.16c0,.32-.06,.6-.11,.8Z"/></g></g></g></g></g></svg>