<?xml version="1.0" encoding="UTF-8"?><svg id="a" xmlns="http://www.w3.org/2000/svg" viewBox="0 0 147.26 50.33"><g><path d="M13.89,41.37h-2.68l-1.32-3.74H4.11l-1.27,3.74H.17l5.51-14.7h2.75l5.47,14.7Zm-4.65-5.73l-2.04-5.87c-.06-.19-.13-.5-.2-.92h-.04c-.06,.39-.13,.7-.21,.92l-2.02,5.87h4.5Z" style="fill:#5c0055;"/><path d="M25,41.37h-2.38v-5.92c0-1.96-.69-2.94-2.08-2.94-.72,0-1.32,.27-1.79,.82-.47,.54-.71,1.23-.71,2.06v5.99h-2.39v-10.5h2.39v1.74h.04c.79-1.33,1.92-1.99,3.4-1.99,1.14,0,2.01,.37,2.62,1.11,.6,.74,.9,1.81,.9,3.21v6.42Z" style="fill:#5c0055;"/><path d="M37.25,41.37h-2.38v-5.92c0-1.96-.69-2.94-2.08-2.94-.72,0-1.32,.27-1.79,.82-.47,.54-.71,1.23-.71,2.06v5.99h-2.39v-10.5h2.39v1.74h.04c.79-1.33,1.92-1.99,3.4-1.99,1.14,0,2.01,.37,2.62,1.11,.6,.74,.9,1.81,.9,3.21v6.42Z" style="fill:#5c0055;"/><path d="M48.21,41.37h-2.31v-1.64h-.04c-.72,1.26-1.79,1.89-3.19,1.89-1.03,0-1.84-.28-2.42-.84-.58-.56-.88-1.3-.88-2.23,0-1.98,1.14-3.14,3.42-3.47l3.12-.44c0-1.5-.71-2.25-2.13-2.25-1.25,0-2.38,.43-3.38,1.29v-2.08c1.11-.66,2.38-.98,3.83-.98,2.65,0,3.98,1.31,3.98,3.92v6.83Zm-2.3-5.16l-2.2,.31c-.68,.09-1.2,.25-1.54,.5-.35,.24-.52,.67-.52,1.28,0,.44,.16,.81,.48,1.09,.32,.28,.74,.43,1.28,.43,.72,0,1.32-.25,1.8-.76,.47-.51,.71-1.15,.71-1.92v-.91Z" style="fill:#5c0055;"/><path d="M69.62,41.37h-2.67l-7.02-10.81c-.18-.27-.33-.56-.44-.85h-.06c.05,.31,.08,.99,.08,2.02v9.64h-2.36v-14.7h2.84l6.79,10.55c.29,.44,.47,.74,.55,.9h.04c-.07-.39-.1-1.05-.1-1.98v-9.47h2.35v14.7Z" style="fill:#5c0055;"/><path d="M81.06,41.37h-2.31v-1.64h-.04c-.72,1.26-1.79,1.89-3.19,1.89-1.03,0-1.84-.28-2.42-.84-.58-.56-.88-1.3-.88-2.23,0-1.98,1.14-3.14,3.42-3.47l3.12-.44c0-1.5-.71-2.25-2.13-2.25-1.25,0-2.38,.43-3.38,1.29v-2.08c1.11-.66,2.38-.98,3.83-.98,2.65,0,3.98,1.31,3.98,3.92v6.83Zm-2.3-5.16l-2.2,.31c-.68,.09-1.2,.25-1.54,.5-.35,.24-.52,.67-.52,1.28,0,.44,.16,.81,.48,1.09,.32,.28,.74,.43,1.28,.43,.72,0,1.32-.25,1.8-.76,.47-.51,.71-1.15,.71-1.92v-.91Z" style="fill:#5c0055;"/><path d="M86.38,39.82h-.04v6.38h-2.38v-15.33h2.38v1.85h.04c.81-1.39,2-2.09,3.57-2.09,1.33,0,2.37,.47,3.12,1.4,.74,.94,1.12,2.19,1.12,3.77,0,1.75-.42,3.15-1.26,4.2-.84,1.05-1.99,1.58-3.45,1.58-1.34,0-2.37-.59-3.1-1.76Zm-.06-4.14v1.3c0,.77,.25,1.42,.73,1.95,.49,.53,1.11,.8,1.86,.8,.88,0,1.57-.34,2.08-1.03,.5-.69,.75-1.65,.75-2.88,0-1.03-.23-1.84-.7-2.43-.47-.58-1.1-.88-1.9-.88-.85,0-1.53,.3-2.05,.9-.52,.6-.77,1.35-.77,2.26Z" style="fill:#5c0055;"/><path d="M105.94,41.37h-2.38v-5.74c0-2.08-.69-3.12-2.08-3.12-.7,0-1.29,.3-1.76,.9s-.72,1.37-.72,2.31v5.65h-2.39v-15.54h2.39v6.79h.04c.79-1.33,1.93-1.99,3.4-1.99,2.33,0,3.5,1.43,3.5,4.28v6.47Z" style="fill:#5c0055;"/><path d="M117.72,36.76h-7.16c.03,.97,.33,1.72,.9,2.25,.57,.53,1.35,.79,2.35,.79,1.12,0,2.15-.33,3.09-1v1.92c-.96,.6-2.22,.9-3.79,.9s-2.76-.48-3.63-1.43c-.88-.95-1.32-2.29-1.32-4.02,0-1.63,.48-2.96,1.45-3.99,.97-1.03,2.17-1.54,3.6-1.54s2.55,.46,3.33,1.38c.79,.92,1.18,2.2,1.18,3.85v.91Zm-2.3-1.68c0-.85-.21-1.52-.6-1.99-.4-.47-.94-.71-1.64-.71s-1.26,.25-1.74,.75c-.48,.5-.77,1.15-.88,1.96h4.86Z" style="fill:#5c0055;"/><path d="M129.55,40.53c0,3.86-1.94,5.78-5.81,5.78-1.37,0-2.56-.23-3.58-.69v-2.17c1.15,.66,2.24,.98,3.27,.98,2.5,0,3.74-1.23,3.74-3.68v-1.15h-.04c-.79,1.34-1.97,2.01-3.55,2.01-1.28,0-2.31-.47-3.09-1.4-.78-.93-1.17-2.19-1.17-3.76,0-1.78,.42-3.2,1.26-4.26s2-1.58,3.47-1.58c1.39,0,2.42,.57,3.09,1.7h.04v-1.46h2.38v9.66Zm-2.36-3.97v-1.36c0-.74-.24-1.37-.73-1.89-.49-.52-1.1-.78-1.83-.78-.9,0-1.61,.33-2.12,1-.51,.67-.76,1.6-.76,2.79,0,1.03,.24,1.86,.73,2.48,.49,.62,1.14,.93,1.94,.93s1.49-.3,2-.89c.51-.59,.77-1.35,.77-2.27Z" style="fill:#5c0055;"/><path d="M141.74,30.87l-4.74,12.18c-.98,2.17-2.37,3.26-4.14,3.26-.5,0-.92-.04-1.25-.13v-1.98c.38,.12,.72,.18,1.03,.18,.89,0,1.55-.44,1.99-1.31l.71-1.72-4.17-10.48h2.64l2.5,7.63c.03,.1,.09,.35,.18,.76h.05c.03-.16,.1-.4,.18-.74l2.62-7.65h2.4Z" style="fill:#5c0055;"/><path d="M144.52,28.66c-.39,0-.72-.13-1-.38-.28-.25-.42-.57-.42-.96s.14-.71,.42-.97c.28-.26,.61-.39,1-.39s.75,.13,1.03,.39,.42,.58,.42,.97c0,.37-.14,.69-.42,.95-.28,.26-.62,.4-1.03,.4Zm1.18,12.7h-2.38v-10.5h2.38v10.5Z" style="fill:#5c0055;"/></g><g><path d="M45.21,20.51l-1.1-2.71h-5.66l-.98,2.71h-6.36L37.82,3.49h6.19l8.04,17.02h-6.84Zm-4.13-9.98l-.98,2.69h2.11l-1.13-2.69Z" style="fill:#5c0055;"/><path d="M62.32,20.8c-.51-.56-1-1.14-1.46-1.74-.46-.6-.91-1.21-1.34-1.84-.11-.14-.22-.29-.34-.44-.11-.15-.22-.3-.31-.44-.1-.13-.19-.26-.28-.38-.09-.13-.18-.26-.28-.38,0,.29,0,.62-.02,1-.02,.38-.03,.76-.05,1.14-.02,.16-.03,.32-.04,.48,0,.16-.01,.31-.01,.46-.03,.4-.06,.76-.07,1.09-.02,.33-.03,.59-.05,.78h-5.47c.08-.78,.14-1.6,.17-2.46s.05-1.73,.05-2.63c0-.43,0-.87-.01-1.31,0-.44-.02-.88-.04-1.31-.05-1.26-.11-2.52-.19-3.76-.08-1.24-.17-2.41-.26-3.52h6.19c.27,0,.56,0,.86,.01,.3,0,.62,.02,.94,.04,.78,.02,1.52,.06,2.21,.13,.69,.07,1.15,.19,1.39,.35,.66,.45,1.24,.9,1.74,1.37,.5,.46,.91,.96,1.21,1.49,.14,.24,.24,.48,.3,.72,.06,.24,.08,.48,.08,.72,0,.67-.19,1.32-.58,1.94-.38,.62-.8,1.19-1.25,1.7l-.04,.04s-.02,.02-.04,.04c-.14,.16-.3,.3-.48,.42-.18,.12-.37,.22-.58,.3,.16,.43,.38,.93,.65,1.5,.27,.57,.6,1.14,.98,1.72,.22,.35,.48,.7,.76,1.04,.28,.34,.58,.68,.9,1l-5.26,.74Zm-1.28-9.49c.02-.07,.04-.14,.04-.2s-.02-.12-.05-.17c-.03-.05-.06-.1-.1-.14-.03-.03-.07-.06-.12-.1-.05-.03-.1-.07-.14-.12-.29-.27-.59-.48-.91-.64-.32-.15-.65-.3-.98-.44-.06-.02-.13-.04-.2-.07s-.15-.06-.23-.1c-.02,.38-.03,.75-.05,1.1-.02,.35-.02,.7-.02,1.03-.02,.37-.02,.74-.02,1.1v1.18c.58-.18,1.09-.44,1.54-.8,.45-.36,.82-.81,1.13-1.36,.06-.11,.11-.2,.13-.28Z" style="fill:#5c0055;"/><path d="M82.15,10.69c-.24,0-.48-.02-.73-.05s-.49-.06-.73-.1c-.27-.03-.54-.06-.8-.1-.26-.03-.53-.05-.8-.05v2.93c0,.99,0,1.99,.02,3,.02,.7,.03,1.4,.05,2.1,.02,.7,.04,1.39,.07,2.08h-6.02c.03-.7,.06-1.41,.07-2.12,.02-.71,.03-1.42,.05-2.12,.02-.99,.02-1.97,.02-2.94s0-1.92-.02-2.87h-.26c-.56,.02-1.13,.04-1.7,.07-.58,.03-1.15,.12-1.73,.26l.46-5.26h13.18l-1.1,5.16Z" style="fill:#5c0055;"/><path d="M84.24,20.51c.1-2.5,.14-4.99,.14-7.49s-.05-4.99-.14-7.49h6.24c-.1,2.5-.15,4.99-.16,7.49,0,2.5,.04,4.99,.16,7.49h-6.24Z" style="fill:#5c0055;"/><path d="M98.76,19.96c-.75,.48-1.58,.88-2.5,1.2l-4.99-2.71c.94-.27,1.66-.63,2.15-1.07s.73-.96,.73-1.57c0-.27-.04-.56-.13-.85-.09-.3-.23-.6-.42-.92-.11-.19-.24-.38-.38-.56-.14-.18-.29-.36-.43-.54-.02-.02-.03-.03-.04-.05,0-.02-.02-.03-.04-.05-.16-.19-.32-.39-.47-.59-.15-.2-.28-.4-.4-.61-.16-.3-.28-.6-.35-.88s-.11-.55-.11-.8c.02-.51,.14-1,.38-1.45,.24-.46,.54-.88,.89-1.28,.42-.43,.92-.81,1.51-1.13,.59-.32,1.26-.61,2.02-.86l4.22,2.54c-.45,.26-.84,.54-1.18,.86-.34,.32-.59,.67-.77,1.06-.06,.16-.11,.32-.14,.47-.03,.15-.05,.31-.05,.47,0,.27,.05,.53,.14,.77,.1,.24,.23,.46,.41,.67,.67,.72,1.2,1.43,1.57,2.12,.38,.7,.56,1.4,.56,2.1,0,.29-.04,.58-.11,.88-.07,.3-.19,.6-.35,.9-.42,.78-1,1.42-1.75,1.9Z" style="fill:#5c0055;"/><path d="M114.64,10.69c-.24,0-.48-.02-.73-.05s-.49-.06-.73-.1c-.27-.03-.54-.06-.8-.1-.26-.03-.53-.05-.8-.05v2.93c0,.99,0,1.99,.02,3,.02,.7,.03,1.4,.05,2.1,.02,.7,.04,1.39,.07,2.08h-6.02c.03-.7,.06-1.41,.07-2.12,.02-.71,.03-1.42,.05-2.12,.02-.99,.02-1.97,.02-2.94s0-1.92-.02-2.87h-.26c-.56,.02-1.13,.04-1.7,.07-.58,.03-1.15,.12-1.73,.26l.46-5.26h13.18l-1.1,5.16Z" style="fill:#5c0055;"/></g></svg>