<?xml version="1.0" encoding="UTF-8"?><svg id="a" xmlns="http://www.w3.org/2000/svg" viewBox="0 0 194.97 55.31"><g><path d="M50.38,46.35h-2.85l-2.35-3.94c-.21-.36-.42-.67-.62-.93-.2-.26-.41-.47-.62-.63-.21-.16-.44-.28-.68-.36s-.52-.11-.83-.11h-.98v5.97h-2.43v-14.7h4.84c.69,0,1.33,.08,1.91,.25,.58,.16,1.09,.41,1.52,.74,.43,.33,.77,.75,1.01,1.24,.24,.5,.36,1.07,.36,1.74,0,.52-.08,1-.23,1.43-.15,.43-.37,.82-.66,1.16-.28,.34-.62,.63-1.03,.87-.4,.24-.85,.42-1.35,.55v.04c.27,.15,.5,.32,.7,.5,.2,.18,.39,.37,.56,.56s.35,.41,.53,.65c.17,.24,.37,.52,.58,.85l2.61,4.13Zm-8.93-12.73v4.78h2.03c.38,0,.72-.06,1.04-.17,.32-.12,.59-.28,.83-.5s.41-.49,.54-.8c.13-.31,.19-.67,.19-1.06,0-.7-.22-1.25-.67-1.65s-1.08-.59-1.92-.59h-2.05Z" style="fill:#5c0055;"/><path d="M59.89,46.35h-2.31v-1.64h-.04c-.72,1.26-1.79,1.89-3.19,1.89-1.03,0-1.84-.28-2.42-.84-.58-.56-.88-1.3-.88-2.23,0-1.98,1.14-3.14,3.42-3.47l3.12-.44c0-1.5-.71-2.25-2.13-2.25-1.25,0-2.38,.43-3.38,1.29v-2.08c1.11-.66,2.38-.98,3.83-.98,2.65,0,3.98,1.31,3.98,3.92v6.83Zm-.88-15.18c-.08,.85-.41,1.53-1,2.05-.59,.52-1.31,.78-2.15,.78-.89,0-1.61-.26-2.17-.77-.56-.52-.86-1.2-.9-2.06h1.39c.08,1,.65,1.5,1.7,1.5,.44,0,.82-.13,1.14-.41,.31-.27,.51-.63,.57-1.09h1.41Zm-1.42,10.02l-2.2,.31c-.68,.09-1.2,.25-1.54,.5-.35,.24-.52,.67-.52,1.28,0,.44,.16,.81,.48,1.09,.32,.28,.74,.43,1.28,.43,.72,0,1.32-.25,1.8-.76,.47-.51,.71-1.15,.71-1.92v-.91Z" style="fill:#5c0055;"/><path d="M70.54,36.85l-5.67,7.65h5.65v1.86h-8.98v-.89l5.79-7.75h-5.24v-1.86h8.45v.99Z" style="fill:#5c0055;"/><path d="M81.59,35.85l-4.06,10.5h-2.57l-3.87-10.5h2.58l2.33,7.34c.18,.54,.29,1.01,.33,1.42h.03c.06-.51,.16-.96,.29-1.37l2.44-7.38h2.5Z" style="fill:#5c0055;"/><path d="M90.91,46.35h-2.31v-1.64h-.04c-.72,1.26-1.79,1.89-3.19,1.89-1.03,0-1.84-.28-2.42-.84-.58-.56-.88-1.3-.88-2.23,0-1.98,1.14-3.14,3.42-3.47l3.12-.44c0-1.5-.71-2.25-2.13-2.25-1.25,0-2.38,.43-3.38,1.29v-2.08c1.11-.66,2.38-.98,3.83-.98,2.65,0,3.98,1.31,3.98,3.92v6.83Zm-2.3-5.16l-2.2,.31c-.68,.09-1.2,.25-1.54,.5-.35,.24-.52,.67-.52,1.28,0,.44,.16,.81,.48,1.09,.32,.28,.74,.43,1.28,.43,.72,0,1.32-.25,1.8-.76,.47-.51,.71-1.15,.71-1.92v-.91Z" style="fill:#5c0055;"/><path d="M103.16,46.35h-2.38v-5.92c0-1.96-.69-2.94-2.08-2.94-.72,0-1.32,.27-1.79,.82-.47,.54-.71,1.23-.71,2.06v5.99h-2.39v-10.5h2.39v1.74h.04c.79-1.33,1.92-1.99,3.4-1.99,1.14,0,2.01,.37,2.62,1.11,.6,.74,.9,1.81,.9,3.21v6.42Z" style="fill:#5c0055;"/><path d="M114.53,41.02v5.33h-2.43v-14.7h4.46c1.69,0,3,.39,3.93,1.18,.93,.79,1.39,1.89,1.39,3.32s-.49,2.6-1.46,3.51-2.28,1.36-3.94,1.36h-1.96Zm0-7.36v5.37h1.58c1.05,0,1.84-.24,2.39-.73s.82-1.17,.82-2.05c0-1.73-1-2.59-3.01-2.59h-1.77Z" style="fill:#5c0055;"/><path d="M128.06,46.6c-1.62,0-2.91-.49-3.88-1.47-.97-.98-1.45-2.28-1.45-3.9,0-1.76,.5-3.14,1.51-4.13,1.01-.99,2.37-1.49,4.08-1.49s2.92,.48,3.83,1.45,1.37,2.3,1.37,4.01-.49,3.02-1.48,4.02c-.99,1.01-2.32,1.51-3.98,1.51Zm.11-9.1c-.93,0-1.67,.32-2.21,.97s-.81,1.54-.81,2.69,.27,1.97,.82,2.6,1.28,.95,2.19,.95,1.66-.31,2.16-.93c.5-.62,.75-1.51,.75-2.66s-.25-2.05-.75-2.68c-.5-.63-1.22-.94-2.16-.94Z" style="fill:#5c0055;"/><path d="M138.36,44.8h-.04v6.38h-2.38v-15.33h2.38v1.85h.04c.81-1.39,2-2.09,3.57-2.09,1.33,0,2.37,.47,3.12,1.4,.74,.94,1.12,2.19,1.12,3.77,0,1.75-.42,3.15-1.26,4.2-.84,1.05-1.99,1.58-3.45,1.58-1.34,0-2.37-.59-3.1-1.76Zm-.06-4.14v1.3c0,.77,.25,1.42,.73,1.95,.49,.53,1.11,.8,1.86,.8,.88,0,1.57-.34,2.08-1.03,.5-.69,.75-1.65,.75-2.88,0-1.03-.23-1.84-.7-2.43-.47-.58-1.1-.88-1.9-.88-.85,0-1.53,.3-2.05,.9-.52,.6-.77,1.35-.77,2.26Z" style="fill:#5c0055;"/><path d="M156.41,46.35h-2.31v-1.64h-.04c-.72,1.26-1.79,1.89-3.19,1.89-1.03,0-1.84-.28-2.42-.84-.58-.56-.88-1.3-.88-2.23,0-1.98,1.14-3.14,3.42-3.47l3.12-.44c0-1.5-.71-2.25-2.13-2.25-1.25,0-2.38,.43-3.38,1.29v-2.08c1.11-.66,2.38-.98,3.83-.98,2.65,0,3.98,1.31,3.98,3.92v6.83Zm-2.3-5.16l-2.2,.31c-.68,.09-1.2,.25-1.54,.5-.35,.24-.52,.67-.52,1.28,0,.44,.16,.81,.48,1.09,.32,.28,.74,.43,1.28,.43,.72,0,1.32-.25,1.8-.76,.47-.51,.71-1.15,.71-1.92v-.91Z" style="fill:#5c0055;"/></g><g><path d="M8.64,20.51c-.59,0-1.11-.03-1.55-.08-.44-.06-.86-.19-1.26-.4-.16-.08-.32-.17-.48-.28s-.32-.23-.48-.37c-.21-.16-.42-.33-.64-.52-.22-.18-.44-.38-.66-.59-.85-.78-1.62-1.68-2.32-2.68-.7-1-1.04-2.04-1.02-3.13,0-.34,.04-.67,.13-1.01s.22-.67,.4-1.01c1.04-1.87,2.43-3.44,4.18-4.72,1.74-1.27,3.98-2.29,6.7-3.06l3.12,4.58c-1.36,.53-2.67,1.11-3.94,1.74-1.26,.63-2.36,1.44-3.29,2.41-.13,.13-.22,.26-.28,.38s-.08,.26-.08,.38c0,.16,.04,.32,.13,.48,.09,.16,.2,.32,.32,.48,.64,.74,1.24,1.22,1.8,1.46,.56,.24,1.06,.34,1.51,.31l.05-4.99,6.41,1.8c-.11,.7-.19,1.4-.24,2.09s-.07,1.37-.07,2.04c0,.78,.04,1.56,.11,2.34,.07,.78,.16,1.55,.28,2.32H8.64Z" style="fill:#5c0055;"/><path d="M31.61,20.51l-.96-2.38h-4.99l-.86,2.38h-5.59l5.9-14.98h5.45l7.08,14.98h-6.02Zm-3.62-8.78l-.86,2.35h1.85l-.98-2.35Z" style="fill:#5c0055;"/><path d="M55.15,20.51l-1.08-5.18-3.38,5.18-3.34-5.38-1.37,5.38h-5.66l3.7-14.98h4.25l2.98,6.72c.62-1.02,1.23-2.1,1.81-3.22,.58-1.12,1.15-2.29,1.69-3.5h4.1c.21,2.59,.52,5.14,.95,7.64,.42,2.5,.98,4.95,1.67,7.33h-6.31Z" style="fill:#5c0055;"/><path d="M71.48,9.29c-.87-.02-1.76,0-2.65,.06,0,.14,0,.29-.01,.43s-.01,.29-.01,.43v.89c.88,.06,1.75,.08,2.62,.06,.86-.02,1.73-.11,2.59-.25l-.89,4.01h-4.34c0,.14,0,.29,.01,.43,0,.14,.01,.3,.01,.46,0,.14,0,.29,.01,.44,0,.15,.01,.3,.01,.44,.88,.06,1.75,.08,2.62,.05,.86-.03,1.73-.11,2.59-.24l-.89,4.01h-10.44c.11-2.5,.16-4.99,.16-7.49,0-2.5-.06-4.99-.16-7.49h10.49l.89,3.98c-.86-.13-1.73-.2-2.6-.23Z" style="fill:#5c0055;"/><path d="M100.16,9.24c.3,.87,.47,1.76,.52,2.65v.38c0,1.65-.44,3.2-1.32,4.64-.88,1.45-2.2,2.5-3.96,3.16-.72,.27-1.48,.42-2.29,.43-.81,.02-1.67,.02-2.58,0h-6.6c.11-2.85,.17-5.69,.17-8.52s-.06-5.66-.17-8.5h6.91c1.76,.02,3.32,.28,4.69,.8,1.37,.52,2.48,1.36,3.35,2.51,.56,.75,.99,1.56,1.28,2.44Zm-7.44,.88c-.65-.4-1.32-.62-2.03-.67-.02,.93-.02,1.86-.02,2.8s0,1.88,.02,2.82c.85-.08,1.58-.36,2.21-.83,.62-.47,1.14-1.12,1.54-1.96-.5-1.04-1.07-1.76-1.72-2.16Z" style="fill:#5c0055;"/><path d="M109.71,9.29c-.87-.02-1.76,0-2.65,.06,0,.14,0,.29-.01,.43s-.01,.29-.01,.43v.89c.88,.06,1.75,.08,2.62,.06,.86-.02,1.73-.11,2.59-.25l-.89,4.01h-4.34c0,.14,0,.29,.01,.43,0,.14,.01,.3,.01,.46,0,.14,0,.29,.01,.44,0,.15,.01,.3,.01,.44,.88,.06,1.75,.08,2.62,.05,.86-.03,1.73-.11,2.59-.24l-.89,4.01h-10.44c.11-2.5,.16-4.99,.16-7.49,0-2.5-.06-4.99-.16-7.49h10.49l.89,3.98c-.86-.13-1.73-.2-2.6-.23Z" style="fill:#5c0055;"/><path d="M121.25,19.96c-.75,.48-1.58,.88-2.5,1.2l-4.99-2.71c.94-.27,1.66-.63,2.15-1.07s.73-.96,.73-1.57c0-.27-.04-.56-.13-.85-.09-.3-.23-.6-.42-.92-.11-.19-.24-.38-.38-.56-.14-.18-.29-.36-.43-.54-.02-.02-.03-.03-.04-.05,0-.02-.02-.03-.04-.05-.16-.19-.32-.39-.47-.59-.15-.2-.28-.4-.4-.61-.16-.3-.28-.6-.35-.88s-.11-.55-.11-.8c.02-.51,.14-1,.38-1.45,.24-.46,.54-.88,.89-1.28,.42-.43,.92-.81,1.51-1.13,.59-.32,1.26-.61,2.02-.86l4.22,2.54c-.45,.26-.84,.54-1.18,.86-.34,.32-.59,.67-.77,1.06-.06,.16-.11,.32-.14,.47-.03,.15-.05,.31-.05,.47,0,.27,.05,.53,.14,.77,.1,.24,.23,.46,.41,.67,.67,.72,1.2,1.43,1.57,2.12,.38,.7,.56,1.4,.56,2.1,0,.29-.04,.58-.11,.88-.07,.3-.19,.6-.35,.9-.42,.78-1,1.42-1.75,1.9Z" style="fill:#5c0055;"/><path d="M124.25,20.51c.1-2.5,.14-4.99,.14-7.49s-.05-4.99-.14-7.49h6.24c-.1,2.5-.15,4.99-.16,7.49,0,2.5,.04,4.99,.16,7.49h-6.24Z" style="fill:#5c0055;"/><path d="M138.93,20.51c-.53,0-.98-.02-1.36-.07-.38-.05-.75-.16-1.12-.34-.13-.08-.26-.16-.41-.25-.14-.09-.29-.2-.43-.32-.18-.14-.36-.3-.56-.47s-.4-.35-.59-.54c-.74-.67-1.41-1.45-2.03-2.33-.62-.88-.92-1.8-.9-2.76,0-.29,.04-.58,.11-.88,.07-.3,.19-.6,.35-.9,.93-1.65,2.16-3.03,3.68-4.15s3.49-2.02,5.89-2.69l2.74,4.03c-1.2,.46-2.36,.98-3.47,1.54s-2.08,1.26-2.89,2.11c-.11,.11-.2,.23-.25,.35-.06,.12-.08,.24-.06,.35,0,.06,.01,.13,.04,.2,.02,.07,.05,.14,.08,.2,.03,.08,.07,.15,.12,.22s.1,.14,.17,.22c.51,.59,1,1,1.46,1.24,.46,.23,.88,.34,1.25,.32h.19l.05-4.39,5.64,1.58c-.1,.61-.17,1.21-.22,1.81s-.07,1.2-.07,1.79c0,.69,.03,1.38,.1,2.06,.06,.69,.15,1.38,.26,2.06h-7.78Z" style="fill:#5c0055;"/><path d="M160.7,20.51l-6.7-6.89v1.06c0,.35,0,.7-.02,1.06v1.32c-.02,.58-.02,1.15-.01,1.73,0,.58,.03,1.15,.06,1.73h-5.74c.16-1.22,.28-2.44,.36-3.66,.08-1.22,.12-2.45,.12-3.68-.02-1.26-.06-2.53-.13-3.8s-.19-2.55-.35-3.83h4.3l6.24,5.57c-.02-.46-.04-.93-.06-1.39s-.04-.93-.06-1.39c-.03-.46-.06-.93-.07-1.39-.02-.46-.04-.93-.07-1.39h6.24c-.18,2.05-.26,4.12-.24,6.2s.06,4.17,.14,6.25c.02,.34,.03,.66,.04,.98,0,.32,.02,.65,.04,.98,0,.1,0,.19,.01,.28,0,.09,.01,.18,.01,.28h-4.1Z" style="fill:#5c0055;"/><path d="M174.61,9.29c-.87-.02-1.76,0-2.65,.06,0,.14,0,.29-.01,.43s-.01,.29-.01,.43v.89c.88,.06,1.75,.08,2.62,.06,.86-.02,1.73-.11,2.59-.25l-.89,4.01h-4.34c0,.14,0,.29,.01,.43,0,.14,.01,.3,.01,.46,0,.14,0,.29,.01,.44,0,.15,.01,.3,.01,.44,.88,.06,1.75,.08,2.62,.05,.86-.03,1.73-.11,2.59-.24l-.89,4.01h-10.44c.11-2.5,.16-4.99,.16-7.49,0-2.5-.06-4.99-.16-7.49h10.49l.89,3.98c-.86-.13-1.73-.2-2.6-.23Z" style="fill:#5c0055;"/><path d="M188.35,20.8c-.51-.56-1-1.14-1.46-1.74-.46-.6-.91-1.21-1.34-1.84-.11-.14-.22-.29-.34-.44-.11-.15-.22-.3-.31-.44-.1-.13-.19-.26-.28-.38-.09-.13-.18-.26-.28-.38,0,.29,0,.62-.02,1-.02,.38-.03,.76-.05,1.14-.02,.16-.03,.32-.04,.48,0,.16-.01,.31-.01,.46-.03,.4-.06,.76-.07,1.09-.02,.33-.03,.59-.05,.78h-5.47c.08-.78,.14-1.6,.17-2.46s.05-1.73,.05-2.63c0-.43,0-.87-.01-1.31,0-.44-.02-.88-.04-1.31-.05-1.26-.11-2.52-.19-3.76-.08-1.24-.17-2.41-.26-3.52h6.19c.27,0,.56,0,.86,.01,.3,0,.62,.02,.94,.04,.78,.02,1.52,.06,2.21,.13,.69,.07,1.15,.19,1.39,.35,.66,.45,1.24,.9,1.74,1.37,.5,.46,.91,.96,1.21,1.49,.14,.24,.24,.48,.3,.72,.06,.24,.08,.48,.08,.72,0,.67-.19,1.32-.58,1.94-.38,.62-.8,1.19-1.25,1.7l-.04,.04s-.02,.02-.04,.04c-.14,.16-.3,.3-.48,.42-.18,.12-.37,.22-.58,.3,.16,.43,.38,.93,.65,1.5,.27,.57,.6,1.14,.98,1.72,.22,.35,.48,.7,.76,1.04,.28,.34,.58,.68,.9,1l-5.26,.74Zm-1.28-9.49c.02-.07,.04-.14,.04-.2s-.02-.12-.05-.17c-.03-.05-.06-.1-.1-.14-.03-.03-.07-.06-.12-.1-.05-.03-.1-.07-.14-.12-.29-.27-.59-.48-.91-.64-.32-.15-.65-.3-.98-.44-.06-.02-.13-.04-.2-.07s-.15-.06-.23-.1c-.02,.38-.03,.75-.05,1.1-.02,.35-.02,.7-.02,1.03-.02,.37-.02,.74-.02,1.1v1.18c.58-.18,1.09-.44,1.54-.8,.45-.36,.82-.81,1.13-1.36,.06-.11,.11-.2,.13-.28Z" style="fill:#5c0055;"/></g></svg>