<?xml version="1.0" encoding="UTF-8"?><svg id="a" xmlns="http://www.w3.org/2000/svg" viewBox="0 0 202.05 55.35"><g><path d="M43.94,45.78c-1.11,.57-2.48,.86-4.13,.86-2.13,0-3.84-.67-5.13-2.02s-1.93-3.11-1.93-5.3c0-2.35,.72-4.25,2.17-5.7,1.45-1.45,3.27-2.17,5.48-2.17,1.42,0,2.6,.2,3.54,.6v2.42c-.99-.59-2.08-.88-3.28-.88-1.59,0-2.88,.51-3.87,1.53-.99,1.02-1.48,2.38-1.48,4.08s.46,2.91,1.38,3.87,2.14,1.44,3.64,1.44c1.39,0,2.59-.33,3.61-.98v2.26Z" style="fill:#5c0055;"/><path d="M51.12,46.64c-1.62,0-2.91-.49-3.88-1.47-.97-.98-1.45-2.28-1.45-3.9,0-1.76,.5-3.14,1.51-4.13,1.01-.99,2.37-1.49,4.08-1.49s2.92,.48,3.83,1.45,1.37,2.3,1.37,4.01-.49,3.02-1.48,4.02c-.99,1.01-2.32,1.51-3.98,1.51Zm.11-9.1c-.93,0-1.67,.32-2.21,.97s-.81,1.54-.81,2.69,.27,1.97,.82,2.6,1.28,.95,2.19,.95,1.66-.31,2.16-.93c.5-.62,.75-1.51,.75-2.66s-.25-2.05-.75-2.68c-.5-.63-1.22-.94-2.16-.94Z" style="fill:#5c0055;"/><path d="M58.35,46.06v-2.2c.89,.68,1.87,1.02,2.94,1.02,1.44,0,2.15-.42,2.15-1.27,0-.24-.06-.44-.18-.61-.12-.17-.29-.32-.5-.45-.21-.13-.46-.25-.74-.35-.28-.1-.6-.22-.95-.35-.43-.17-.82-.35-1.16-.54-.35-.19-.63-.41-.86-.65-.23-.24-.4-.52-.52-.83s-.17-.67-.17-1.08c0-.51,.12-.95,.36-1.34,.24-.39,.56-.71,.96-.97s.86-.46,1.38-.59c.51-.13,1.04-.2,1.59-.2,.97,0,1.84,.15,2.6,.44v2.08c-.74-.51-1.59-.76-2.54-.76-.3,0-.57,.03-.82,.09-.24,.06-.45,.15-.62,.26s-.3,.24-.4,.39c-.1,.15-.14,.32-.14,.51,0,.23,.05,.42,.14,.57s.24,.3,.43,.42c.19,.12,.41,.23,.68,.33,.26,.1,.57,.21,.91,.32,.45,.18,.86,.37,1.22,.56,.36,.19,.66,.41,.92,.65,.25,.24,.45,.52,.58,.84,.14,.32,.21,.7,.21,1.13,0,.53-.12,1-.37,1.39s-.57,.72-.98,.98-.88,.45-1.42,.58c-.54,.13-1.1,.19-1.7,.19-1.15,0-2.14-.19-2.98-.57Z" style="fill:#5c0055;"/><path d="M83.75,46.39h-2.38v-5.72c0-1.1-.16-1.9-.47-2.39-.31-.49-.83-.74-1.57-.74-.62,0-1.15,.31-1.58,.93-.43,.62-.65,1.37-.65,2.24v5.68h-2.39v-5.92c0-1.96-.69-2.93-2.07-2.93-.64,0-1.17,.29-1.58,.88-.41,.59-.62,1.35-.62,2.29v5.68h-2.38v-10.5h2.38v1.66h.04c.76-1.27,1.86-1.91,3.31-1.91,.72,0,1.36,.2,1.9,.6,.54,.4,.91,.92,1.11,1.57,.78-1.45,1.94-2.17,3.49-2.17,2.31,0,3.47,1.43,3.47,4.28v6.47Z" style="fill:#5c0055;"/><path d="M87.86,33.69c-.39,0-.72-.13-1-.38-.28-.25-.42-.57-.42-.96s.14-.71,.42-.97c.28-.26,.61-.39,1-.39s.75,.13,1.03,.39,.42,.58,.42,.97c0,.37-.14,.69-.42,.95-.28,.26-.62,.4-1.03,.4Zm1.18,12.7h-2.38v-10.5h2.38v10.5Z" style="fill:#5c0055;"/><path d="M101.5,46.39h-2.38v-5.92c0-1.96-.69-2.94-2.08-2.94-.72,0-1.32,.27-1.79,.82-.47,.54-.71,1.23-.71,2.06v5.99h-2.39v-10.5h2.39v1.74h.04c.79-1.33,1.92-1.99,3.4-1.99,1.14,0,2.01,.37,2.62,1.11,.6,.74,.9,1.81,.9,3.21v6.42Z" style="fill:#5c0055;"/><path d="M112.94,46.39h-2.51v-14.7h2.51v14.7Z" style="fill:#5c0055;"/><path d="M124.35,46.39h-2.31v-1.64h-.04c-.72,1.26-1.79,1.89-3.19,1.89-1.03,0-1.84-.28-2.42-.84-.58-.56-.88-1.3-.88-2.23,0-1.98,1.14-3.14,3.42-3.47l3.12-.44c0-1.5-.71-2.25-2.13-2.25-1.25,0-2.38,.43-3.38,1.29v-2.08c1.11-.66,2.38-.98,3.83-.98,2.65,0,3.98,1.31,3.98,3.92v6.83Zm-2.3-5.16l-2.2,.31c-.68,.09-1.2,.25-1.54,.5-.35,.24-.52,.67-.52,1.28,0,.44,.16,.81,.48,1.09,.32,.28,.74,.43,1.28,.43,.72,0,1.32-.25,1.8-.76,.47-.51,.71-1.15,.71-1.92v-.91Z" style="fill:#5c0055;"/><path d="M134.77,45.91c-.84,.49-1.84,.73-2.98,.73-1.56,0-2.82-.49-3.77-1.46-.96-.97-1.44-2.24-1.44-3.79,0-1.73,.51-3.12,1.54-4.17,1.03-1.05,2.4-1.57,4.13-1.57,.96,0,1.8,.17,2.53,.5v2.21c-.73-.55-1.51-.82-2.34-.82-1,0-1.83,.34-2.47,1.02-.64,.68-.96,1.57-.96,2.67s.3,1.94,.91,2.57c.61,.63,1.42,.94,2.44,.94,.85,0,1.66-.3,2.42-.91v2.07Z" style="fill:#5c0055;"/><path d="M141.78,46.64c-1.62,0-2.91-.49-3.88-1.47-.97-.98-1.45-2.28-1.45-3.9,0-1.76,.5-3.14,1.51-4.13,1.01-.99,2.37-1.49,4.08-1.49s2.92,.48,3.83,1.45,1.37,2.3,1.37,4.01-.49,3.02-1.48,4.02c-.99,1.01-2.32,1.51-3.98,1.51Zm.11-9.1c-.93,0-1.67,.32-2.21,.97s-.81,1.54-.81,2.69,.27,1.97,.82,2.6,1.28,.95,2.19,.95,1.66-.31,2.16-.93c.5-.62,.75-1.51,.75-2.66s-.25-2.05-.75-2.68c-.5-.63-1.22-.94-2.16-.94Z" style="fill:#5c0055;"/><path d="M152.09,44.88h-.04v1.52h-2.38v-15.54h2.38v6.89h.04c.81-1.39,2-2.09,3.57-2.09,1.33,0,2.36,.47,3.11,1.41,.75,.94,1.12,2.2,1.12,3.78,0,1.76-.42,3.16-1.26,4.22-.84,1.06-1.99,1.58-3.45,1.58-1.37,0-2.4-.59-3.1-1.76Zm-.06-4.17v1.3c0,.77,.25,1.42,.73,1.95,.49,.53,1.11,.8,1.86,.8,.88,0,1.57-.34,2.08-1.03,.5-.69,.75-1.65,.75-2.88,0-1.03-.23-1.84-.7-2.43-.47-.58-1.1-.88-1.9-.88-.85,0-1.53,.3-2.05,.9-.52,.6-.77,1.35-.77,2.26Z" style="fill:#5c0055;"/><path d="M171.48,46.39h-2.38v-1.66h-.04c-.69,1.27-1.76,1.91-3.22,1.91-2.48,0-3.72-1.49-3.72-4.47v-6.28h2.38v6.03c0,1.89,.73,2.83,2.18,2.83,.7,0,1.28-.26,1.74-.78,.45-.52,.68-1.2,.68-2.04v-6.04h2.38v10.5Z" style="fill:#5c0055;"/><path d="M180.11,46.28c-.47,.23-1.08,.35-1.84,.35-2.04,0-3.06-.98-3.06-2.93v-5.94h-1.75v-1.87h1.75v-2.43l2.38-.68v3.11h2.51v1.87h-2.51v5.25c0,.62,.11,1.07,.34,1.33,.22,.27,.6,.4,1.13,.4,.4,0,.75-.12,1.05-.35v1.89Zm-1.03,1.32l-1.71,3.1h-1.59l1.08-3.1h2.23Z" style="fill:#5c0055;"/></g><g><path d="M14.38,20.51l-1.1-2.71H7.61l-.98,2.71H.26L6.98,3.49h6.19l8.04,17.02h-6.84Zm-4.13-9.98l-.98,2.69h2.11l-1.13-2.69Z" style="fill:#5c0055;"/><path d="M32.14,20.51c-.02-.18-.04-.35-.06-.52-.02-.17-.04-.34-.06-.52-.03-.16-.06-.33-.07-.5-.02-.18-.04-.35-.07-.53-.08,.11-.16,.22-.25,.34-.09,.11-.17,.22-.25,.34-.21,.27-.41,.54-.6,.8-.19,.26-.38,.5-.58,.71-1.46,.02-2.86-.12-4.21-.41-1.35-.29-2.64-.72-3.88-1.3,.27-1.38,.46-2.68,.56-3.92,.1-1.24,.16-2.43,.16-3.56,0-1.04-.04-2.05-.11-3.04-.07-.98-.17-1.94-.3-2.87h6.12v.31c-.03,1.63-.09,3.24-.17,4.81-.08,1.58-.3,3.02-.67,4.33,.4,.37,.88,.67,1.43,.9,.55,.23,1.17,.35,1.86,.35h.18c.06,0,.12,0,.18-.02,.05,0,.1,0,.16-.01,.06,0,.12-.01,.18-.01-.08-1.15-.13-2.32-.16-3.5-.02-1.18-.03-2.38-.01-3.58,0-.59,.01-1.19,.04-1.79,.02-.6,.05-1.2,.08-1.79h6.05c-.1,2.5-.15,4.99-.16,7.49,0,2.5,.04,4.99,.16,7.49h-5.54Z" style="fill:#5c0055;"/><path d="M53.2,10.6c.26,.77,.41,1.55,.44,2.35v.34c0,1.44-.39,2.8-1.16,4.08-.78,1.28-1.94,2.2-3.49,2.76-.62,.24-1.29,.37-2,.38s-1.47,.02-2.27,0h-5.83c.06-1.66,.11-3.33,.13-4.99,.02-1.66,.02-3.33-.01-4.99,0-.83-.01-1.66-.04-2.5-.02-.83-.05-1.66-.08-2.5h6.1c1.54,.02,2.91,.25,4.12,.71s2.2,1.2,2.96,2.22c.5,.66,.88,1.37,1.14,2.14Zm-6.56,.77c-.56-.35-1.15-.55-1.78-.6-.02,.83-.02,1.66-.02,2.48s0,1.64,.02,2.46c.75-.08,1.4-.32,1.94-.73,.54-.41,.99-.98,1.34-1.72-.45-.91-.95-1.54-1.51-1.9Z" style="fill:#5c0055;"/><path d="M55.01,20.51c.1-2.5,.14-4.99,.14-7.49s-.05-4.99-.14-7.49h6.24c-.1,2.5-.15,4.99-.16,7.49,0,2.5,.04,4.99,.16,7.49h-6.24Z" style="fill:#5c0055;"/><path d="M76.38,18.47c-1.48,1.36-3.44,2.04-5.89,2.04s-4.42-.68-5.9-2.04c-1.49-1.36-2.23-3.18-2.23-5.45s.74-4.11,2.23-5.46c1.49-1.35,3.46-2.03,5.9-2.03s4.41,.68,5.89,2.03c1.48,1.35,2.22,3.17,2.22,5.46s-.74,4.09-2.22,5.45Zm-4.18-7.31c-.47-.47-1.04-.71-1.72-.71s-1.22,.24-1.69,.71c-.47,.47-.71,1.04-.71,1.69s.24,1.24,.71,1.72c.47,.47,1.04,.71,1.69,.71s1.24-.24,1.72-.71c.47-.47,.71-1.04,.71-1.72s-.24-1.22-.71-1.69Z" style="fill:#5c0055;"/><path d="M96.75,9.29c-.87-.02-1.76,0-2.65,.06,0,.14,0,.29-.01,.43s-.01,.29-.01,.43v.89c.88,.06,1.75,.08,2.62,.06,.86-.02,1.73-.11,2.59-.25l-.89,4.01h-4.34c0,.14,0,.29,.01,.43,0,.14,.01,.3,.01,.46,0,.14,0,.29,.01,.44,0,.15,.01,.3,.01,.44,.88,.06,1.75,.08,2.62,.05,.86-.03,1.73-.11,2.59-.24l-.89,4.01h-10.44c.11-2.5,.16-4.99,.16-7.49,0-2.5-.06-4.99-.16-7.49h10.49l.89,3.98c-.86-.13-1.73-.2-2.6-.23Z" style="fill:#5c0055;"/><path d="M113.54,20.51l-6.7-6.89v1.06c0,.35,0,.7-.02,1.06v1.32c-.02,.58-.02,1.15-.01,1.73,0,.58,.03,1.15,.06,1.73h-5.74c.16-1.22,.28-2.44,.36-3.66,.08-1.22,.12-2.45,.12-3.68-.02-1.26-.06-2.53-.13-3.8s-.19-2.55-.35-3.83h4.3l6.24,5.57c-.02-.46-.04-.93-.06-1.39s-.04-.93-.06-1.39c-.03-.46-.06-.93-.07-1.39-.02-.46-.04-.93-.07-1.39h6.24c-.18,2.05-.26,4.12-.24,6.2s.06,4.17,.14,6.25c.02,.34,.03,.66,.04,.98,0,.32,.02,.65,.04,.98,0,.1,0,.19,.01,.28,0,.09,.01,.18,.01,.28h-4.1Z" style="fill:#5c0055;"/><path d="M126.62,20.51c-.53,0-.98-.02-1.36-.07-.38-.05-.75-.16-1.12-.34-.13-.08-.26-.16-.41-.25-.14-.09-.29-.2-.43-.32-.18-.14-.36-.3-.56-.47s-.4-.35-.59-.54c-.74-.67-1.41-1.45-2.03-2.33-.62-.88-.92-1.8-.9-2.76,0-.29,.04-.58,.11-.88,.07-.3,.19-.6,.35-.9,.93-1.65,2.16-3.03,3.68-4.15s3.49-2.02,5.89-2.69l2.74,4.03c-1.2,.46-2.36,.98-3.47,1.54s-2.08,1.26-2.89,2.11c-.11,.11-.2,.23-.25,.35-.06,.12-.08,.24-.06,.35,0,.06,.01,.13,.04,.2,.02,.07,.05,.14,.08,.2,.03,.08,.07,.15,.12,.22s.1,.14,.17,.22c.51,.59,1,1,1.46,1.24,.46,.23,.88,.34,1.25,.32h.19l.05-4.39,5.64,1.58c-.1,.61-.17,1.21-.22,1.81s-.07,1.2-.07,1.79c0,.69,.03,1.38,.1,2.06,.06,.69,.15,1.38,.26,2.06h-7.78Z" style="fill:#5c0055;"/><path d="M135.48,20.51c.1-2.5,.14-4.99,.14-7.49s-.05-4.99-.14-7.49h6.24c-.1,2.5-.15,4.99-.16,7.49,0,2.5,.04,4.99,.16,7.49h-6.24Z" style="fill:#5c0055;"/><path d="M155.25,20.51l-6.7-6.89v1.06c0,.35,0,.7-.02,1.06v1.32c-.02,.58-.02,1.15-.01,1.73,0,.58,.03,1.15,.06,1.73h-5.74c.16-1.22,.28-2.44,.36-3.66,.08-1.22,.12-2.45,.12-3.68-.02-1.26-.06-2.53-.13-3.8s-.19-2.55-.35-3.83h4.3l6.24,5.57c-.02-.46-.04-.93-.06-1.39s-.04-.93-.06-1.39c-.03-.46-.06-.93-.07-1.39-.02-.46-.04-.93-.07-1.39h6.24c-.18,2.05-.26,4.12-.24,6.2s.06,4.17,.14,6.25c.02,.34,.03,.66,.04,.98,0,.32,.02,.65,.04,.98,0,.1,0,.19,.01,.28,0,.09,.01,.18,.01,.28h-4.1Z" style="fill:#5c0055;"/><path d="M169.16,9.29c-.87-.02-1.76,0-2.65,.06,0,.14,0,.29-.01,.43s-.01,.29-.01,.43v.89c.88,.06,1.75,.08,2.62,.06,.86-.02,1.73-.11,2.59-.25l-.89,4.01h-4.34c0,.14,0,.29,.01,.43,0,.14,.01,.3,.01,.46,0,.14,0,.29,.01,.44,0,.15,.01,.3,.01,.44,.88,.06,1.75,.08,2.62,.05,.86-.03,1.73-.11,2.59-.24l-.89,4.01h-10.44c.11-2.5,.16-4.99,.16-7.49,0-2.5-.06-4.99-.16-7.49h10.49l.89,3.98c-.86-.13-1.73-.2-2.6-.23Z" style="fill:#5c0055;"/><path d="M181.69,9.29c-.87-.02-1.76,0-2.65,.06,0,.14,0,.29-.01,.43s-.01,.29-.01,.43v.89c.88,.06,1.75,.08,2.62,.06,.86-.02,1.73-.11,2.59-.25l-.89,4.01h-4.34c0,.14,0,.29,.01,.43,0,.14,.01,.3,.01,.46,0,.14,0,.29,.01,.44,0,.15,.01,.3,.01,.44,.88,.06,1.75,.08,2.62,.05,.86-.03,1.73-.11,2.59-.24l-.89,4.01h-10.44c.11-2.5,.16-4.99,.16-7.49,0-2.5-.06-4.99-.16-7.49h10.49l.89,3.98c-.86-.13-1.73-.2-2.6-.23Z" style="fill:#5c0055;"/><path d="M195.43,20.8c-.51-.56-1-1.14-1.46-1.74-.46-.6-.91-1.21-1.34-1.84-.11-.14-.22-.29-.34-.44-.11-.15-.22-.3-.31-.44-.1-.13-.19-.26-.28-.38-.09-.13-.18-.26-.28-.38,0,.29,0,.62-.02,1-.02,.38-.03,.76-.05,1.14-.02,.16-.03,.32-.04,.48,0,.16-.01,.31-.01,.46-.03,.4-.06,.76-.07,1.09-.02,.33-.03,.59-.05,.78h-5.47c.08-.78,.14-1.6,.17-2.46s.05-1.73,.05-2.63c0-.43,0-.87-.01-1.31,0-.44-.02-.88-.04-1.31-.05-1.26-.11-2.52-.19-3.76-.08-1.24-.17-2.41-.26-3.52h6.19c.27,0,.56,0,.86,.01,.3,0,.62,.02,.94,.04,.78,.02,1.52,.06,2.21,.13,.69,.07,1.15,.19,1.39,.35,.66,.45,1.24,.9,1.74,1.37,.5,.46,.91,.96,1.21,1.49,.14,.24,.24,.48,.3,.72,.06,.24,.08,.48,.08,.72,0,.67-.19,1.32-.58,1.94-.38,.62-.8,1.19-1.25,1.7l-.04,.04s-.02,.02-.04,.04c-.14,.16-.3,.3-.48,.42-.18,.12-.37,.22-.58,.3,.16,.43,.38,.93,.65,1.5,.27,.57,.6,1.14,.98,1.72,.22,.35,.48,.7,.76,1.04,.28,.34,.58,.68,.9,1l-5.26,.74Zm-1.28-9.49c.02-.07,.04-.14,.04-.2s-.02-.12-.05-.17c-.03-.05-.06-.1-.1-.14-.03-.03-.07-.06-.12-.1-.05-.03-.1-.07-.14-.12-.29-.27-.59-.48-.91-.64-.32-.15-.65-.3-.98-.44-.06-.02-.13-.04-.2-.07s-.15-.06-.23-.1c-.02,.38-.03,.75-.05,1.1-.02,.35-.02,.7-.02,1.03-.02,.37-.02,.74-.02,1.1v1.18c.58-.18,1.09-.44,1.54-.8,.45-.36,.82-.81,1.13-1.36,.06-.11,.11-.2,.13-.28Z" style="fill:#5c0055;"/></g></svg>