<?xml version="1.0" encoding="UTF-8"?><svg id="a" xmlns="http://www.w3.org/2000/svg" viewBox="0 0 265.01 52.76"><g/><g><g><path d="M73.44,43.8h-2.51v-14.7h2.51v14.7Z" style="fill:#5c0055;"/><path d="M81.45,44.04c-1.62,0-2.91-.49-3.88-1.47-.97-.98-1.45-2.28-1.45-3.9,0-1.76,.5-3.14,1.51-4.13,1.01-.99,2.37-1.49,4.08-1.49s2.92,.48,3.83,1.45,1.37,2.3,1.37,4.01-.49,3.02-1.48,4.02c-.99,1.01-2.32,1.51-3.98,1.51Zm.11-9.1c-.93,0-1.67,.32-2.21,.97s-.81,1.54-.81,2.69,.27,1.97,.82,2.6,1.28,.95,2.19,.95,1.66-.31,2.16-.93c.5-.62,.75-1.51,.75-2.66s-.25-2.05-.75-2.68c-.5-.63-1.22-.94-2.16-.94Z" style="fill:#5c0055;"/><path d="M97.14,43.8h-2.31v-1.64h-.04c-.72,1.26-1.79,1.89-3.19,1.89-1.03,0-1.84-.28-2.42-.84-.58-.56-.88-1.3-.88-2.23,0-1.98,1.14-3.14,3.42-3.47l3.12-.44c0-1.5-.71-2.25-2.13-2.25-1.25,0-2.38,.43-3.38,1.29v-2.08c1.11-.66,2.38-.98,3.83-.98,2.65,0,3.98,1.31,3.98,3.92v6.83Zm-2.3-5.16l-2.2,.31c-.68,.09-1.2,.25-1.54,.5-.35,.24-.52,.67-.52,1.28,0,.44,.16,.81,.48,1.09,.32,.28,.74,.43,1.28,.43,.72,0,1.32-.25,1.8-.76,.47-.51,.71-1.15,.71-1.92v-.91Z" style="fill:#5c0055;"/><path d="M109.4,43.8h-2.38v-5.92c0-1.96-.69-2.94-2.08-2.94-.72,0-1.32,.27-1.79,.82-.47,.54-.71,1.23-.71,2.06v5.99h-2.39v-10.5h2.39v1.74h.04c.79-1.33,1.92-1.99,3.4-1.99,1.14,0,2.01,.37,2.62,1.11,.6,.74,.9,1.81,.9,3.21v6.42Z" style="fill:#5c0055;"/><path d="M118.34,43.8v-14.7h4.25c5.42,0,8.13,2.39,8.13,7.17,0,2.27-.75,4.09-2.26,5.47-1.5,1.38-3.52,2.07-6.05,2.07h-4.07Zm2.43-12.63v10.57h1.95c1.72,0,3.05-.47,4-1.42,.95-.94,1.43-2.28,1.43-4,0-3.44-1.78-5.16-5.34-5.16h-2.04Z" style="fill:#5c0055;"/><path d="M139.23,35.56c-.29-.23-.7-.34-1.24-.34-.7,0-1.29,.32-1.76,.95s-.71,1.5-.71,2.59v5.02h-2.38v-10.5h2.38v2.16h.04c.23-.74,.59-1.31,1.07-1.73,.48-.41,1.02-.62,1.61-.62,.43,0,.76,.06,.98,.19v2.26Z" style="fill:#5c0055;"/><path d="M148.97,43.8h-2.31v-1.64h-.04c-.72,1.26-1.79,1.89-3.19,1.89-1.03,0-1.84-.28-2.42-.84-.58-.56-.88-1.3-.88-2.23,0-1.98,1.14-3.14,3.42-3.47l3.12-.44c0-1.5-.71-2.25-2.13-2.25-1.25,0-2.38,.43-3.38,1.29v-2.08c1.11-.66,2.38-.98,3.83-.98,2.65,0,3.98,1.31,3.98,3.92v6.83Zm-2.3-5.16l-2.2,.31c-.68,.09-1.2,.25-1.54,.5-.35,.24-.52,.67-.52,1.28,0,.44,.16,.81,.48,1.09,.32,.28,.74,.43,1.28,.43,.72,0,1.32-.25,1.8-.76,.47-.51,.71-1.15,.71-1.92v-.91Z" style="fill:#5c0055;"/><path d="M161.43,42.96c0,3.86-1.94,5.78-5.81,5.78-1.37,0-2.56-.23-3.58-.69v-2.17c1.15,.66,2.24,.98,3.27,.98,2.5,0,3.74-1.23,3.74-3.68v-1.15h-.04c-.79,1.34-1.97,2.01-3.55,2.01-1.28,0-2.31-.47-3.09-1.4-.78-.93-1.17-2.19-1.17-3.76,0-1.78,.42-3.2,1.26-4.26s2-1.58,3.47-1.58c1.39,0,2.42,.57,3.09,1.7h.04v-1.46h2.38v9.66Zm-2.36-3.97v-1.36c0-.74-.24-1.37-.73-1.89-.49-.52-1.1-.78-1.83-.78-.9,0-1.61,.33-2.12,1-.51,.67-.76,1.6-.76,2.79,0,1.03,.24,1.86,.73,2.48,.49,.62,1.14,.93,1.94,.93s1.49-.3,2-.89c.51-.59,.77-1.35,.77-2.27Z" style="fill:#5c0055;"/><path d="M169.18,44.04c-1.62,0-2.91-.49-3.88-1.47-.97-.98-1.45-2.28-1.45-3.9,0-1.76,.5-3.14,1.51-4.13,1.01-.99,2.37-1.49,4.08-1.49s2.92,.48,3.83,1.45,1.37,2.3,1.37,4.01-.49,3.02-1.48,4.02c-.99,1.01-2.32,1.51-3.98,1.51Zm.11-9.1c-.93,0-1.67,.32-2.21,.97s-.81,1.54-.81,2.69,.27,1.97,.82,2.6,1.28,.95,2.19,.95,1.66-.31,2.16-.93c.5-.62,.75-1.51,.75-2.66s-.25-2.05-.75-2.68c-.5-.63-1.22-.94-2.16-.94Z" style="fill:#5c0055;"/><path d="M192.76,43.8h-2.38v-5.72c0-1.1-.16-1.9-.47-2.39-.31-.49-.83-.74-1.57-.74-.62,0-1.15,.31-1.58,.93-.43,.62-.65,1.37-.65,2.24v5.68h-2.39v-5.92c0-1.96-.69-2.93-2.07-2.93-.64,0-1.17,.29-1.58,.88-.41,.59-.62,1.35-.62,2.29v5.68h-2.38v-10.5h2.38v1.66h.04c.76-1.27,1.86-1.91,3.31-1.91,.72,0,1.36,.2,1.9,.6,.54,.4,.91,.92,1.11,1.57,.78-1.45,1.94-2.17,3.49-2.17,2.31,0,3.47,1.43,3.47,4.28v6.47Z" style="fill:#5c0055;"/><path d="M196.86,31.09c-.39,0-.72-.13-1-.38-.28-.25-.42-.57-.42-.96s.14-.71,.42-.97c.28-.26,.61-.39,1-.39s.75,.13,1.03,.39,.42,.58,.42,.97c0,.37-.14,.69-.42,.95-.28,.26-.62,.4-1.03,.4Zm1.18,12.7h-2.38v-10.5h2.38v10.5Z" style="fill:#5c0055;"/><path d="M207.24,35.56c-.29-.23-.7-.34-1.24-.34-.7,0-1.29,.32-1.76,.95s-.71,1.5-.71,2.59v5.02h-2.38v-10.5h2.38v2.16h.04c.23-.74,.59-1.31,1.07-1.73,.48-.41,1.02-.62,1.61-.62,.43,0,.76,.06,.98,.19v2.26Z" style="fill:#5c0055;"/></g><g><path d="M8.64,20.51c-.59,0-1.11-.03-1.55-.08-.44-.06-.86-.19-1.26-.4-.16-.08-.32-.17-.48-.28s-.32-.23-.48-.37c-.21-.16-.42-.33-.64-.52-.22-.18-.44-.38-.66-.59-.85-.78-1.62-1.68-2.32-2.68-.7-1-1.04-2.04-1.02-3.13,0-.34,.04-.67,.13-1.01s.22-.67,.4-1.01c1.04-1.87,2.43-3.44,4.18-4.72,1.74-1.27,3.98-2.29,6.7-3.06l3.12,4.58c-1.36,.53-2.67,1.11-3.94,1.74-1.26,.63-2.36,1.44-3.29,2.41-.13,.13-.22,.26-.28,.38s-.08,.26-.08,.38c0,.16,.04,.32,.13,.48,.09,.16,.2,.32,.32,.48,.64,.74,1.24,1.22,1.8,1.46,.56,.24,1.06,.34,1.51,.31l.05-4.99,6.41,1.8c-.11,.7-.19,1.4-.24,2.09s-.07,1.37-.07,2.04c0,.78,.04,1.56,.11,2.34,.07,.78,.16,1.55,.28,2.32H8.64Z" style="fill:#5c0055;"/><path d="M31.61,20.51l-.96-2.38h-4.99l-.86,2.38h-5.59l5.9-14.98h5.45l7.08,14.98h-6.02Zm-3.62-8.78l-.86,2.35h1.85l-.98-2.35Z" style="fill:#5c0055;"/><path d="M55.15,20.51l-1.08-5.18-3.38,5.18-3.34-5.38-1.37,5.38h-5.66l3.7-14.98h4.25l2.98,6.72c.62-1.02,1.23-2.1,1.81-3.22,.58-1.12,1.15-2.29,1.69-3.5h4.1c.21,2.59,.52,5.14,.95,7.64,.42,2.5,.98,4.95,1.67,7.33h-6.31Z" style="fill:#5c0055;"/><path d="M71.48,9.29c-.87-.02-1.76,0-2.65,.06,0,.14,0,.29-.01,.43s-.01,.29-.01,.43v.89c.88,.06,1.75,.08,2.62,.06,.86-.02,1.73-.11,2.59-.25l-.89,4.01h-4.34c0,.14,0,.29,.01,.43,0,.14,.01,.3,.01,.46,0,.14,0,.29,.01,.44,0,.15,.01,.3,.01,.44,.88,.06,1.75,.08,2.62,.05,.86-.03,1.73-.11,2.59-.24l-.89,4.01h-10.44c.11-2.5,.16-4.99,.16-7.49,0-2.5-.06-4.99-.16-7.49h10.49l.89,3.98c-.86-.13-1.73-.2-2.6-.23Z" style="fill:#5c0055;"/><path d="M99.23,8.74c.07,.34,.11,.7,.11,1.07,0,.22-.01,.45-.04,.67-.02,.22-.06,.45-.11,.67-.18,.8-.46,1.58-.84,2.34-.38,.76-.79,1.4-1.22,1.93-.02,0-.03,0-.04,.02,0,.02-.02,.03-.04,.05-.27,.3-.6,.56-1,.76-.39,.2-.85,.32-1.38,.35-.78,.06-1.52,.08-2.22,.06s-1.36-.07-2-.13c.03,.67,.06,1.34,.1,2,.03,.66,.08,1.32,.14,1.98h-7.08c.24-2.82,.36-5.64,.37-8.47,0-2.83-.12-5.68-.37-8.54h7.08c1.15,.02,2.11,.06,2.88,.14,.77,.08,1.35,.26,1.75,.53,.78,.54,1.48,1.11,2.09,1.7,.61,.59,1.09,1.22,1.44,1.9,.18,.3,.3,.63,.37,.97Zm-5.52,1.07c.02-.11,.04-.22,.04-.34,0-.19-.04-.37-.13-.54-.09-.17-.2-.31-.35-.42-.43-.42-.88-.76-1.34-1.04-.46-.28-.94-.52-1.44-.73-.05,1.02-.08,2.05-.11,3.08-.02,1.03-.03,2.06-.01,3.08,.7-.21,1.32-.54,1.86-1s.98-1.04,1.33-1.74c.08-.13,.13-.25,.16-.36Z" style="fill:#5c0055;"/><path d="M110.9,20.8c-.51-.56-1-1.14-1.46-1.74-.46-.6-.91-1.21-1.34-1.84-.11-.14-.22-.29-.34-.44-.11-.15-.22-.3-.31-.44-.1-.13-.19-.26-.28-.38-.09-.13-.18-.26-.28-.38,0,.29,0,.62-.02,1-.02,.38-.03,.76-.05,1.14-.02,.16-.03,.32-.04,.48,0,.16-.01,.31-.01,.46-.03,.4-.06,.76-.07,1.09-.02,.33-.03,.59-.05,.78h-5.47c.08-.78,.14-1.6,.17-2.46s.05-1.73,.05-2.63c0-.43,0-.87-.01-1.31,0-.44-.02-.88-.04-1.31-.05-1.26-.11-2.52-.19-3.76-.08-1.24-.17-2.41-.26-3.52h6.19c.27,0,.56,0,.86,.01,.3,0,.62,.02,.94,.04,.78,.02,1.52,.06,2.21,.13,.69,.07,1.15,.19,1.39,.35,.66,.45,1.24,.9,1.74,1.37,.5,.46,.91,.96,1.21,1.49,.14,.24,.24,.48,.3,.72,.06,.24,.08,.48,.08,.72,0,.67-.19,1.32-.58,1.94-.38,.62-.8,1.19-1.25,1.7l-.04,.04s-.02,.02-.04,.04c-.14,.16-.3,.3-.48,.42-.18,.12-.37,.22-.58,.3,.16,.43,.38,.93,.65,1.5,.27,.57,.6,1.14,.98,1.72,.22,.35,.48,.7,.76,1.04,.28,.34,.58,.68,.9,1l-5.26,.74Zm-1.28-9.49c.02-.07,.04-.14,.04-.2s-.02-.12-.05-.17c-.03-.05-.06-.1-.1-.14-.03-.03-.07-.06-.12-.1-.05-.03-.1-.07-.14-.12-.29-.27-.59-.48-.91-.64-.32-.15-.65-.3-.98-.44-.06-.02-.13-.04-.2-.07s-.15-.06-.23-.1c-.02,.38-.03,.75-.05,1.1-.02,.35-.02,.7-.02,1.03-.02,.37-.02,.74-.02,1.1v1.18c.58-.18,1.09-.44,1.54-.8,.45-.36,.82-.81,1.13-1.36,.06-.11,.11-.2,.13-.28Z" style="fill:#5c0055;"/><path d="M132.35,18.47c-1.48,1.36-3.44,2.04-5.89,2.04s-4.42-.68-5.9-2.04c-1.49-1.36-2.23-3.18-2.23-5.45s.74-4.11,2.23-5.46c1.49-1.35,3.46-2.03,5.9-2.03s4.41,.68,5.89,2.03c1.48,1.35,2.22,3.17,2.22,5.46s-.74,4.09-2.22,5.45Zm-4.18-7.31c-.47-.47-1.04-.71-1.72-.71s-1.22,.24-1.69,.71c-.47,.47-.71,1.04-.71,1.69s.24,1.24,.71,1.72c.47,.47,1.04,.71,1.69,.71s1.24-.24,1.72-.71c.47-.47,.71-1.04,.71-1.72s-.24-1.22-.71-1.69Z" style="fill:#5c0055;"/><path d="M143.52,20.51c-.53,0-.98-.02-1.36-.07-.38-.05-.75-.16-1.12-.34-.13-.08-.26-.16-.41-.25-.14-.09-.29-.2-.43-.32-.18-.14-.36-.3-.56-.47s-.4-.35-.59-.54c-.74-.67-1.41-1.45-2.03-2.33-.62-.88-.92-1.8-.9-2.76,0-.29,.04-.58,.11-.88,.07-.3,.19-.6,.35-.9,.93-1.65,2.16-3.03,3.68-4.15s3.49-2.02,5.89-2.69l2.74,4.03c-1.2,.46-2.36,.98-3.47,1.54s-2.08,1.26-2.89,2.11c-.11,.11-.2,.23-.25,.35-.06,.12-.08,.24-.06,.35,0,.06,.01,.13,.04,.2,.02,.07,.05,.14,.08,.2,.03,.08,.07,.15,.12,.22s.1,.14,.17,.22c.51,.59,1,1,1.46,1.24,.46,.23,.88,.34,1.25,.32h.19l.05-4.39,5.64,1.58c-.1,.61-.17,1.21-.22,1.81s-.07,1.2-.07,1.79c0,.69,.03,1.38,.1,2.06,.06,.69,.15,1.38,.26,2.06h-7.78Z" style="fill:#5c0055;"/><path d="M162.24,20.8c-.51-.56-1-1.14-1.46-1.74-.46-.6-.91-1.21-1.34-1.84-.11-.14-.22-.29-.34-.44-.11-.15-.22-.3-.31-.44-.1-.13-.19-.26-.28-.38-.09-.13-.18-.26-.28-.38,0,.29,0,.62-.02,1-.02,.38-.03,.76-.05,1.14-.02,.16-.03,.32-.04,.48,0,.16-.01,.31-.01,.46-.03,.4-.06,.76-.07,1.09-.02,.33-.03,.59-.05,.78h-5.47c.08-.78,.14-1.6,.17-2.46s.05-1.73,.05-2.63c0-.43,0-.87-.01-1.31,0-.44-.02-.88-.04-1.31-.05-1.26-.11-2.52-.19-3.76-.08-1.24-.17-2.41-.26-3.52h6.19c.27,0,.56,0,.86,.01,.3,0,.62,.02,.94,.04,.78,.02,1.52,.06,2.21,.13,.69,.07,1.15,.19,1.39,.35,.66,.45,1.24,.9,1.74,1.37,.5,.46,.91,.96,1.21,1.49,.14,.24,.24,.48,.3,.72,.06,.24,.08,.48,.08,.72,0,.67-.19,1.32-.58,1.94-.38,.62-.8,1.19-1.25,1.7l-.04,.04s-.02,.02-.04,.04c-.14,.16-.3,.3-.48,.42-.18,.12-.37,.22-.58,.3,.16,.43,.38,.93,.65,1.5,.27,.57,.6,1.14,.98,1.72,.22,.35,.48,.7,.76,1.04,.28,.34,.58,.68,.9,1l-5.26,.74Zm-1.28-9.49c.02-.07,.04-.14,.04-.2s-.02-.12-.05-.17c-.03-.05-.06-.1-.1-.14-.03-.03-.07-.06-.12-.1-.05-.03-.1-.07-.14-.12-.29-.27-.59-.48-.91-.64-.32-.15-.65-.3-.98-.44-.06-.02-.13-.04-.2-.07s-.15-.06-.23-.1c-.02,.38-.03,.75-.05,1.1-.02,.35-.02,.7-.02,1.03-.02,.37-.02,.74-.02,1.1v1.18c.58-.18,1.09-.44,1.54-.8,.45-.36,.82-.81,1.13-1.36,.06-.11,.11-.2,.13-.28Z" style="fill:#5c0055;"/><path d="M181.51,20.51l-.96-2.38h-4.99l-.86,2.38h-5.59l5.9-14.98h5.45l7.08,14.98h-6.02Zm-3.62-8.78l-.86,2.35h1.85l-.98-2.35Z" style="fill:#5c0055;"/><path d="M205.05,20.51l-1.08-5.18-3.38,5.18-3.34-5.38-1.37,5.38h-5.66l3.7-14.98h4.25l2.98,6.72c.62-1.02,1.23-2.1,1.81-3.22,.58-1.12,1.15-2.29,1.69-3.5h4.1c.21,2.59,.52,5.14,.95,7.64,.42,2.5,.98,4.95,1.67,7.33h-6.31Z" style="fill:#5c0055;"/><path d="M228.31,20.51l-1.08-5.18-3.38,5.18-3.34-5.38-1.37,5.38h-5.66l3.7-14.98h4.25l2.98,6.72c.62-1.02,1.23-2.1,1.81-3.22,.58-1.12,1.15-2.29,1.69-3.5h4.1c.21,2.59,.52,5.14,.95,7.64,.42,2.5,.98,4.95,1.67,7.33h-6.31Z" style="fill:#5c0055;"/><path d="M244.64,9.29c-.87-.02-1.76,0-2.65,.06,0,.14,0,.29-.01,.43s-.01,.29-.01,.43v.89c.88,.06,1.75,.08,2.62,.06,.86-.02,1.73-.11,2.59-.25l-.89,4.01h-4.34c0,.14,0,.29,.01,.43,0,.14,.01,.3,.01,.46,0,.14,0,.29,.01,.44,0,.15,.01,.3,.01,.44,.88,.06,1.75,.08,2.62,.05,.86-.03,1.73-.11,2.59-.24l-.89,4.01h-10.44c.11-2.5,.16-4.99,.16-7.49,0-2.5-.06-4.99-.16-7.49h10.49l.89,3.98c-.86-.13-1.73-.2-2.6-.23Z" style="fill:#5c0055;"/><path d="M258.38,20.8c-.51-.56-1-1.14-1.46-1.74-.46-.6-.91-1.21-1.34-1.84-.11-.14-.22-.29-.34-.44-.11-.15-.22-.3-.31-.44-.1-.13-.19-.26-.28-.38-.09-.13-.18-.26-.28-.38,0,.29,0,.62-.02,1-.02,.38-.03,.76-.05,1.14-.02,.16-.03,.32-.04,.48,0,.16-.01,.31-.01,.46-.03,.4-.06,.76-.07,1.09-.02,.33-.03,.59-.05,.78h-5.47c.08-.78,.14-1.6,.17-2.46s.05-1.73,.05-2.63c0-.43,0-.87-.01-1.31,0-.44-.02-.88-.04-1.31-.05-1.26-.11-2.52-.19-3.76-.08-1.24-.17-2.41-.26-3.52h6.19c.27,0,.56,0,.86,.01,.3,0,.62,.02,.94,.04,.78,.02,1.52,.06,2.21,.13,.69,.07,1.15,.19,1.39,.35,.66,.45,1.24,.9,1.74,1.37,.5,.46,.91,.96,1.21,1.49,.14,.24,.24,.48,.3,.72,.06,.24,.08,.48,.08,.72,0,.67-.19,1.32-.58,1.94-.38,.62-.8,1.19-1.25,1.7l-.04,.04s-.02,.02-.04,.04c-.14,.16-.3,.3-.48,.42-.18,.12-.37,.22-.58,.3,.16,.43,.38,.93,.65,1.5,.27,.57,.6,1.14,.98,1.72,.22,.35,.48,.7,.76,1.04,.28,.34,.58,.68,.9,1l-5.26,.74Zm-1.28-9.49c.02-.07,.04-.14,.04-.2s-.02-.12-.05-.17c-.03-.05-.06-.1-.1-.14-.03-.03-.07-.06-.12-.1-.05-.03-.1-.07-.14-.12-.29-.27-.59-.48-.91-.64-.32-.15-.65-.3-.98-.44-.06-.02-.13-.04-.2-.07s-.15-.06-.23-.1c-.02,.38-.03,.75-.05,1.1-.02,.35-.02,.7-.02,1.03-.02,.37-.02,.74-.02,1.1v1.18c.58-.18,1.09-.44,1.54-.8,.45-.36,.82-.81,1.13-1.36,.06-.11,.11-.2,.13-.28Z" style="fill:#5c0055;"/></g></g></svg>