<?xml version="1.0" encoding="UTF-8"?><svg id="a" xmlns="http://www.w3.org/2000/svg" xmlns:xlink="http://www.w3.org/1999/xlink" viewBox="0 0 207 50.6"><defs><style>.c{fill:#5c0055;}.d{fill:#fff;opacity:.1;}.e{clip-path:url(#b);}.f{fill:none;}</style><clipPath id="b"><rect x="-310.17" y="-413.17" width="616.27" height="400.17" style="fill:none;"/></clipPath></defs><g style="clip-path:url(#b);"><path d="M334.55-28.01V-178.02c-5.1-3.57-10.9-6.25-17.16-7.78-.09-27.62-22.91-49.99-51.06-49.99-24.24,0-44.53,16.6-49.75,38.85-6.8-3.3-14.46-5.15-22.56-5.15-16.69,0-31.5,7.86-40.82,20.02-5.5-21.87-25.6-38.1-49.57-38.1-28.2,0-51.07,22.45-51.07,50.15,0,2.6,.2,5.16,.59,7.65-7.23-3.85-15.5-6.03-24.3-6.03-3.19,0-6.31,.3-9.34,.85-9.17-13.4-24.74-22.22-42.41-22.22-1.54,0-3.07,.08-4.58,.21-7.11-19.29-25.93-33.08-48.03-33.08-8.1,0-15.76,1.86-22.56,5.16-5.22-22.25-25.5-38.85-49.75-38.85-18.73,0-35.09,9.9-43.98,24.66-17.31,.14-32.57,8.74-41.7,21.79-4.62-1.35-9.51-2.08-14.57-2.08-12.9,0-24.67,4.7-33.66,12.45V-123.58h0V29.16H334.55V-28.01h0Z" style="fill:#fff; opacity:.1;"/><path d="M250.73-4.18V-154.19c-5.1-3.57-10.9-6.25-17.16-7.78-.09-27.62-22.91-49.99-51.06-49.99-24.24,0-44.53,16.6-49.75,38.85-6.8-3.3-14.46-5.15-22.56-5.15-16.69,0-31.5,7.86-40.82,20.02-5.5-21.87-25.6-38.1-49.57-38.1-28.2,0-51.07,22.45-51.07,50.15,0,2.6,.2,5.16,.59,7.65-7.23-3.85-15.5-6.03-24.3-6.03-3.19,0-6.31,.3-9.34,.85-9.17-13.4-24.74-22.22-42.41-22.22-1.54,0-3.07,.08-4.58,.21-7.11-19.29-25.93-33.08-48.03-33.08-8.1,0-15.76,1.86-22.56,5.16-5.22-22.25-25.5-38.85-49.75-38.85-18.73,0-35.09,9.9-43.98,24.66-17.31,.14-32.57,8.74-41.7,21.79-4.62-1.35-9.51-2.08-14.57-2.08-12.9,0-24.67,4.7-33.66,12.45V-99.75h0V52.99H250.73V-4.18h0Z" style="fill:#fff; opacity:.1;"/></g><g><g><path d="M11.59,20.51c-.05-.38-.1-.77-.14-1.16-.05-.39-.1-.79-.14-1.19-.06,.1-.13,.19-.2,.29-.07,.1-.15,.19-.23,.29-.08,.13-.16,.25-.25,.37-.09,.12-.18,.24-.28,.35-.16,.22-.32,.44-.48,.64-.16,.2-.32,.39-.48,.56-1.65,.02-3.24-.14-4.76-.48-1.53-.34-3-.82-4.43-1.46,.3-1.57,.52-3.06,.64-4.48s.18-2.77,.18-4.07c0-1.18-.04-2.32-.13-3.42-.09-1.1-.2-2.18-.32-3.25H7.51v.31c-.03,1.86-.09,3.68-.18,5.48-.09,1.8-.35,3.45-.78,4.96,.45,.42,.98,.75,1.6,1.01,.62,.26,1.32,.38,2.1,.38,.13,0,.26,0,.41-.01,.14,0,.29-.02,.43-.04-.1-1.3-.16-2.62-.19-3.97-.03-1.35-.04-2.71-.02-4.07,.02-.67,.04-1.35,.07-2.03,.03-.68,.06-1.36,.1-2.03h6.86c-.05,1.41-.09,2.82-.12,4.25-.03,1.42-.05,2.84-.05,4.25s.01,2.84,.04,4.26c.02,1.42,.07,2.84,.13,4.26h-6.31Z" style="fill:#5c0055;"/><path d="M19.82,20.51c.05-1.42,.09-2.84,.12-4.26,.03-1.42,.05-2.84,.05-4.26s-.02-2.82-.05-4.25c-.03-1.42-.07-2.84-.12-4.25h7.08c-.05,1.41-.09,2.82-.12,4.25-.03,1.42-.05,2.84-.05,4.25s.01,2.84,.04,4.26c.02,1.42,.07,2.84,.13,4.26h-7.08Z" style="fill:#5c0055;"/><path d="M43.18,15.18l1.97,3.29-2.81,3.02-3.62-3.7c-.21,.16-.42,.32-.62,.49-.21,.17-.42,.34-.62,.52-.02,.02-.03,.02-.05,.02-.35,.32-.72,.63-1.1,.92s-.79,.55-1.22,.76c-.16,.06-.33,.12-.52,.16-.18,.04-.37,.06-.56,.06-.16,0-.32-.02-.49-.06s-.32-.09-.44-.16c-.82-.51-1.53-1.09-2.15-1.74-.62-.65-1.17-1.32-1.67-2-.19-.24-.38-.49-.55-.74-.18-.26-.35-.5-.53-.74,.45-1.09,1-2.1,1.66-3.02,.66-.93,1.43-1.75,2.33-2.47l-1.56-3.53c.9-.67,1.85-1.25,2.86-1.74,1.01-.49,2.12-.83,3.34-1.02h2.88l2.28,1.99c.08,.06,.15,.16,.2,.28,.06,.12,.09,.24,.11,.37v.12c0,.06-.01,.13-.04,.2-.02,.07-.06,.13-.11,.18l-2.78,2.74,1.94,2.47,4.2-2.52,.89,3.53-3.19,2.33Zm-9.24-2.78l-.86,2.81c.3,.16,.64,.27,1,.34,.36,.06,.74,.1,1.14,.1,.14,0,.29,0,.43-.01,.14,0,.29-.02,.43-.04l-2.14-3.19Zm3.02-6.12c-.46-.13-.94-.23-1.44-.31,.06,.35,.17,.7,.32,1.03,.15,.34,.38,.67,.68,1.01,.35-.08,.67-.23,.95-.44,.28-.22,.55-.48,.8-.78-.42-.21-.86-.38-1.32-.5Z" style="fill:#5c0055;"/><path d="M58.85,20.51c-.05-.38-.1-.77-.14-1.16-.05-.39-.1-.79-.14-1.19-.06,.1-.13,.19-.2,.29-.07,.1-.15,.19-.23,.29-.08,.13-.16,.25-.25,.37-.09,.12-.18,.24-.28,.35-.16,.22-.32,.44-.48,.64-.16,.2-.32,.39-.48,.56-1.65,.02-3.24-.14-4.76-.48-1.53-.34-3-.82-4.43-1.46,.3-1.57,.52-3.06,.64-4.48s.18-2.77,.18-4.07c0-1.18-.04-2.32-.13-3.42-.09-1.1-.2-2.18-.32-3.25h6.96v.31c-.03,1.86-.09,3.68-.18,5.48-.09,1.8-.35,3.45-.78,4.96,.45,.42,.98,.75,1.6,1.01,.62,.26,1.32,.38,2.1,.38,.13,0,.26,0,.41-.01,.14,0,.29-.02,.43-.04-.1-1.3-.16-2.62-.19-3.97-.03-1.35-.04-2.71-.02-4.07,.02-.67,.04-1.35,.07-2.03,.03-.68,.06-1.36,.1-2.03h6.86c-.05,1.41-.09,2.82-.12,4.25-.03,1.42-.05,2.84-.05,4.25s.01,2.84,.04,4.26c.02,1.42,.07,2.84,.13,4.26h-6.31Z" style="fill:#5c0055;"/><path d="M77.9,20.51l-2.06-2.76-2.06,2.76-7.18-1.39c.94-1.1,1.86-2.2,2.76-3.3,.9-1.1,1.77-2.18,2.62-3.25l-5.21-6.98,6.38-2.09c.42,.64,.85,1.29,1.3,1.96,.45,.66,.91,1.33,1.39,2,.48-.67,.94-1.34,1.39-2,.45-.66,.88-1.32,1.3-1.96l6.38,2.09-5.21,6.98c.85,1.07,1.72,2.16,2.63,3.25,.9,1.1,1.82,2.2,2.75,3.3l-7.18,1.39Z" style="fill:#5c0055;"/><path d="M112.19,9.24c.3,.87,.47,1.76,.52,2.65v.38c0,1.65-.44,3.2-1.32,4.64-.88,1.45-2.2,2.5-3.96,3.16-.72,.27-1.48,.42-2.29,.43-.81,.02-1.67,.02-2.58,0h-6.6c.11-2.85,.17-5.69,.17-8.52s-.06-5.66-.17-8.5h6.91c1.76,.02,3.32,.28,4.69,.8,1.37,.52,2.48,1.36,3.35,2.51,.56,.75,.99,1.56,1.28,2.44Zm-7.44,.88c-.65-.4-1.32-.62-2.03-.67-.02,.93-.02,1.86-.02,2.8s0,1.88,.02,2.82c.85-.08,1.58-.36,2.21-.83,.62-.47,1.14-1.12,1.54-1.96-.5-1.04-1.07-1.76-1.72-2.16Z" style="fill:#5c0055;"/><path d="M121.74,9.29c-.87-.02-1.76,0-2.65,.06,0,.14,0,.29-.01,.43s-.01,.29-.01,.43v.89c.88,.06,1.75,.08,2.62,.06,.86-.02,1.73-.11,2.59-.25l-.89,4.01h-4.34c0,.14,0,.29,.01,.43,0,.14,.01,.3,.01,.46,0,.14,0,.29,.01,.44,0,.15,.01,.3,.01,.44,.88,.06,1.75,.08,2.62,.05,.86-.03,1.73-.11,2.59-.24l-.89,4.01h-10.44c.11-2.5,.16-4.99,.16-7.49,0-2.5-.06-4.99-.16-7.49h10.49l.89,3.98c-.86-.13-1.73-.2-2.6-.23Z" style="fill:#5c0055;"/><path d="M133.27,19.96c-.75,.48-1.58,.88-2.5,1.2l-4.99-2.71c.94-.27,1.66-.63,2.15-1.07s.73-.96,.73-1.57c0-.27-.04-.56-.13-.85-.09-.3-.23-.6-.42-.92-.11-.19-.24-.38-.38-.56-.14-.18-.29-.36-.43-.54-.02-.02-.03-.03-.04-.05,0-.02-.02-.03-.04-.05-.16-.19-.32-.39-.47-.59-.15-.2-.28-.4-.4-.61-.16-.3-.28-.6-.35-.88s-.11-.55-.11-.8c.02-.51,.14-1,.38-1.45,.24-.46,.54-.88,.89-1.28,.42-.43,.92-.81,1.51-1.13,.59-.32,1.26-.61,2.02-.86l4.22,2.54c-.45,.26-.84,.54-1.18,.86-.34,.32-.59,.67-.77,1.06-.06,.16-.11,.32-.14,.47-.03,.15-.05,.31-.05,.47,0,.27,.05,.53,.14,.77,.1,.24,.23,.46,.41,.67,.67,.72,1.2,1.43,1.57,2.12,.38,.7,.56,1.4,.56,2.1,0,.29-.04,.58-.11,.88-.07,.3-.19,.6-.35,.9-.42,.78-1,1.42-1.75,1.9Z" style="fill:#5c0055;"/><path d="M136.27,20.51c.1-2.5,.14-4.99,.14-7.49s-.05-4.99-.14-7.49h6.24c-.1,2.5-.15,4.99-.16,7.49,0,2.5,.04,4.99,.16,7.49h-6.24Z" style="fill:#5c0055;"/><path d="M150.96,20.51c-.53,0-.98-.02-1.36-.07-.38-.05-.75-.16-1.12-.34-.13-.08-.26-.16-.41-.25-.14-.09-.29-.2-.43-.32-.18-.14-.36-.3-.56-.47s-.4-.35-.59-.54c-.74-.67-1.41-1.45-2.03-2.33-.62-.88-.92-1.8-.9-2.76,0-.29,.04-.58,.11-.88,.07-.3,.19-.6,.35-.9,.93-1.65,2.16-3.03,3.68-4.15s3.49-2.02,5.89-2.69l2.74,4.03c-1.2,.46-2.36,.98-3.47,1.54s-2.08,1.26-2.89,2.11c-.11,.11-.2,.23-.25,.35-.06,.12-.08,.24-.06,.35,0,.06,.01,.13,.04,.2,.02,.07,.05,.14,.08,.2,.03,.08,.07,.15,.12,.22s.1,.14,.17,.22c.51,.59,1,1,1.46,1.24,.46,.23,.88,.34,1.25,.32h.19l.05-4.39,5.64,1.58c-.1,.61-.17,1.21-.22,1.81s-.07,1.2-.07,1.79c0,.69,.03,1.38,.1,2.06,.06,.69,.15,1.38,.26,2.06h-7.78Z" style="fill:#5c0055;"/><path d="M172.73,20.51l-6.7-6.89v1.06c0,.35,0,.7-.02,1.06v1.32c-.02,.58-.02,1.15-.01,1.73,0,.58,.03,1.15,.06,1.73h-5.74c.16-1.22,.28-2.44,.36-3.66,.08-1.22,.12-2.45,.12-3.68-.02-1.26-.06-2.53-.13-3.8s-.19-2.55-.35-3.83h4.3l6.24,5.57c-.02-.46-.04-.93-.06-1.39s-.04-.93-.06-1.39c-.03-.46-.06-.93-.07-1.39-.02-.46-.04-.93-.07-1.39h6.24c-.18,2.05-.26,4.12-.24,6.2s.06,4.17,.14,6.25c.02,.34,.03,.66,.04,.98,0,.32,.02,.65,.04,.98,0,.1,0,.19,.01,.28,0,.09,.01,.18,.01,.28h-4.1Z" style="fill:#5c0055;"/><path d="M186.63,9.29c-.87-.02-1.76,0-2.65,.06,0,.14,0,.29-.01,.43s-.01,.29-.01,.43v.89c.88,.06,1.75,.08,2.62,.06,.86-.02,1.73-.11,2.59-.25l-.89,4.01h-4.34c0,.14,0,.29,.01,.43,0,.14,.01,.3,.01,.46,0,.14,0,.29,.01,.44,0,.15,.01,.3,.01,.44,.88,.06,1.75,.08,2.62,.05,.86-.03,1.73-.11,2.59-.24l-.89,4.01h-10.44c.11-2.5,.16-4.99,.16-7.49,0-2.5-.06-4.99-.16-7.49h10.49l.89,3.98c-.86-.13-1.73-.2-2.6-.23Z" style="fill:#5c0055;"/><path d="M200.37,20.8c-.51-.56-1-1.14-1.46-1.74-.46-.6-.91-1.21-1.34-1.84-.11-.14-.22-.29-.34-.44-.11-.15-.22-.3-.31-.44-.1-.13-.19-.26-.28-.38-.09-.13-.18-.26-.28-.38,0,.29,0,.62-.02,1-.02,.38-.03,.76-.05,1.14-.02,.16-.03,.32-.04,.48,0,.16-.01,.31-.01,.46-.03,.4-.06,.76-.07,1.09-.02,.33-.03,.59-.05,.78h-5.47c.08-.78,.14-1.6,.17-2.46s.05-1.73,.05-2.63c0-.43,0-.87-.01-1.31,0-.44-.02-.88-.04-1.31-.05-1.26-.11-2.52-.19-3.76-.08-1.24-.17-2.41-.26-3.52h6.19c.27,0,.56,0,.86,.01,.3,0,.62,.02,.94,.04,.78,.02,1.52,.06,2.21,.13,.69,.07,1.15,.19,1.39,.35,.66,.45,1.24,.9,1.74,1.37,.5,.46,.91,.96,1.21,1.49,.14,.24,.24,.48,.3,.72,.06,.24,.08,.48,.08,.72,0,.67-.19,1.32-.58,1.94-.38,.62-.8,1.19-1.25,1.7l-.04,.04s-.02,.02-.04,.04c-.14,.16-.3,.3-.48,.42-.18,.12-.37,.22-.58,.3,.16,.43,.38,.93,.65,1.5,.27,.57,.6,1.14,.98,1.72,.22,.35,.48,.7,.76,1.04,.28,.34,.58,.68,.9,1l-5.26,.74Zm-1.28-9.49c.02-.07,.04-.14,.04-.2s-.02-.12-.05-.17c-.03-.05-.06-.1-.1-.14-.03-.03-.07-.06-.12-.1-.05-.03-.1-.07-.14-.12-.29-.27-.59-.48-.91-.64-.32-.15-.65-.3-.98-.44-.06-.02-.13-.04-.2-.07s-.15-.06-.23-.1c-.02,.38-.03,.75-.05,1.1-.02,.35-.02,.7-.02,1.03-.02,.37-.02,.74-.02,1.1v1.18c.58-.18,1.09-.44,1.54-.8,.45-.36,.82-.81,1.13-1.36,.06-.11,.11-.2,.13-.28Z" style="fill:#5c0055;"/></g><g><path d="M69.09,41.64h-8.25v-14.7h7.93v2.07h-5.49v4.16h5.05v2.06h-5.05v4.35h5.81v2.06Z" style="fill:#5c0055;"/><path d="M73.82,41.64h-2.39v-15.54h2.39v15.54Z" style="fill:#5c0055;"/><path d="M79.31,41.64h-2.39v-15.54h2.39v15.54Z" style="fill:#5c0055;"/><path d="M90.46,41.64h-2.31v-1.64h-.04c-.72,1.26-1.79,1.89-3.19,1.89-1.03,0-1.84-.28-2.42-.84-.58-.56-.88-1.3-.88-2.23,0-1.98,1.14-3.14,3.42-3.47l3.12-.44c0-1.5-.71-2.25-2.13-2.25-1.25,0-2.38,.43-3.38,1.29v-2.08c1.11-.66,2.38-.98,3.83-.98,2.65,0,3.98,1.31,3.98,3.92v6.83Zm-2.3-5.16l-2.2,.31c-.68,.09-1.2,.25-1.54,.5-.35,.24-.52,.67-.52,1.28,0,.44,.16,.81,.48,1.09,.32,.28,.74,.43,1.28,.43,.72,0,1.32-.25,1.8-.76,.47-.51,.71-1.15,.71-1.92v-.91Z" style="fill:#5c0055;"/><path d="M98.73,41.05v-2.51c.22,.21,.49,.39,.8,.55,.31,.16,.64,.3,.99,.42,.35,.11,.7,.2,1.05,.26s.67,.09,.96,.09c1.03,0,1.79-.17,2.29-.51,.5-.34,.75-.84,.75-1.49,0-.35-.08-.65-.25-.91-.17-.26-.4-.49-.7-.7s-.65-.42-1.06-.61c-.41-.2-.84-.4-1.31-.61-.5-.27-.96-.54-1.39-.81-.43-.27-.81-.58-1.12-.91-.32-.33-.57-.71-.75-1.12-.18-.42-.27-.91-.27-1.47,0-.69,.16-1.29,.47-1.8,.31-.51,.72-.93,1.23-1.26,.51-.33,1.09-.58,1.74-.74s1.31-.24,1.99-.24c1.54,0,2.66,.17,3.36,.52v2.41c-.83-.6-1.91-.9-3.22-.9-.36,0-.72,.03-1.08,.1-.36,.07-.68,.18-.96,.34-.28,.16-.51,.36-.69,.6s-.27,.54-.27,.89c0,.33,.07,.61,.21,.85s.34,.46,.6,.66c.26,.2,.58,.39,.96,.58,.38,.19,.82,.39,1.32,.61,.51,.27,1,.55,1.45,.84,.46,.29,.85,.62,1.2,.97,.34,.36,.62,.75,.82,1.18,.2,.43,.3,.93,.3,1.48,0,.75-.15,1.37-.45,1.89s-.71,.93-1.21,1.25c-.51,.32-1.1,.55-1.76,.7-.66,.14-1.36,.22-2.1,.22-.25,0-.55-.02-.91-.06-.36-.04-.73-.09-1.1-.16-.38-.07-.73-.16-1.07-.26s-.6-.22-.81-.35Z" style="fill:#5c0055;"/><path d="M119.46,37.03h-7.16c.03,.97,.33,1.72,.9,2.25,.57,.53,1.35,.79,2.35,.79,1.12,0,2.15-.33,3.09-1v1.92c-.96,.6-2.22,.9-3.79,.9s-2.76-.48-3.63-1.43c-.88-.95-1.32-2.29-1.32-4.02,0-1.63,.48-2.96,1.45-3.99,.97-1.03,2.17-1.54,3.6-1.54s2.55,.46,3.33,1.38c.79,.92,1.18,2.2,1.18,3.85v.91Zm-2.3-1.68c0-.85-.21-1.52-.6-1.99-.4-.47-.94-.71-1.64-.71s-1.26,.25-1.74,.75c-.48,.5-.77,1.15-.88,1.96h4.86Z" style="fill:#5c0055;"/><path d="M127.82,33.4c-.29-.23-.7-.34-1.24-.34-.7,0-1.29,.32-1.76,.95s-.71,1.5-.71,2.59v5.02h-2.38v-10.5h2.38v2.16h.04c.23-.74,.59-1.31,1.07-1.73,.48-.41,1.02-.62,1.61-.62,.43,0,.76,.06,.98,.19v2.26Z" style="fill:#5c0055;"/><path d="M138.21,37.03h-7.16c.03,.97,.33,1.72,.9,2.25,.57,.53,1.35,.79,2.35,.79,1.12,0,2.15-.33,3.09-1v1.92c-.96,.6-2.22,.9-3.79,.9s-2.76-.48-3.63-1.43c-.88-.95-1.32-2.29-1.32-4.02,0-1.63,.48-2.96,1.45-3.99,.97-1.03,2.17-1.54,3.6-1.54s2.55,.46,3.33,1.38c.79,.92,1.18,2.2,1.18,3.85v.91Zm-2.3-1.68c0-.85-.21-1.52-.6-1.99-.4-.47-.94-.71-1.64-.71s-1.26,.25-1.74,.75c-.48,.5-.77,1.15-.88,1.96h4.86Z" style="fill:#5c0055;"/><path d="M139.82,41.31v-2.2c.89,.68,1.87,1.02,2.94,1.02,1.44,0,2.15-.42,2.15-1.27,0-.24-.06-.44-.18-.61-.12-.17-.29-.32-.5-.45-.21-.13-.46-.25-.74-.35-.28-.1-.6-.22-.95-.35-.43-.17-.82-.35-1.16-.54-.35-.19-.63-.41-.86-.65-.23-.24-.4-.52-.52-.83s-.17-.67-.17-1.08c0-.51,.12-.95,.36-1.34,.24-.39,.56-.71,.96-.97s.86-.46,1.38-.59c.51-.13,1.04-.2,1.59-.2,.97,0,1.84,.15,2.6,.44v2.08c-.74-.51-1.59-.76-2.54-.76-.3,0-.57,.03-.82,.09-.24,.06-.45,.15-.62,.26s-.3,.24-.4,.39c-.1,.15-.14,.32-.14,.51,0,.23,.05,.42,.14,.57s.24,.3,.43,.42c.19,.12,.41,.23,.68,.33,.26,.1,.57,.21,.91,.32,.45,.18,.86,.37,1.22,.56,.36,.19,.66,.41,.92,.65,.25,.24,.45,.52,.58,.84,.14,.32,.21,.7,.21,1.13,0,.53-.12,1-.37,1.39s-.57,.72-.98,.98-.88,.45-1.42,.58c-.54,.13-1.1,.19-1.7,.19-1.15,0-2.14-.19-2.98-.57Z" style="fill:#5c0055;"/></g></g></svg>