<?xml version="1.0" encoding="UTF-8"?><svg id="a" xmlns="http://www.w3.org/2000/svg" viewBox="0 0 119.71 28.12"><path d="M8.68,0H111.03c4.79,0,8.68,3.89,8.68,8.68v10.41c0,4.98-4.04,9.02-9.02,9.02H8.68C3.89,28.12,0,24.23,0,19.43V8.68C0,3.89,3.89,0,8.68,0Z" style="fill:#8c2175;"/><path d="M10.61,2.07H102.93c4.79,0,8.68,3.89,8.68,8.68v6.27c0,4.98-4.04,9.02-9.02,9.02H10.61c-4.79,0-8.68-3.89-8.68-8.68v-6.61C1.93,5.96,5.82,2.07,10.61,2.07Z" style="fill:#ff8d51;"/><g><path d="M37.54,10.4c.07,.34,.11,.69,.11,1.06,0,.22-.01,.44-.04,.67-.02,.22-.06,.44-.11,.67-.17,.79-.45,1.57-.83,2.32-.38,.75-.79,1.39-1.21,1.92-.02,0-.03,0-.04,.02,0,.02-.02,.03-.04,.05-.27,.3-.6,.55-.99,.75-.39,.2-.84,.31-1.37,.35-.78,.06-1.51,.08-2.2,.06-.69-.02-1.35-.07-1.99-.13,.03,.67,.06,1.33,.09,1.99,.03,.66,.08,1.31,.14,1.96h-7.02c.24-2.79,.36-5.59,.37-8.4,0-2.81-.12-5.63-.37-8.47h7.02c1.14,.02,2.09,.06,2.86,.14,.76,.08,1.34,.25,1.74,.52,.78,.54,1.47,1.1,2.07,1.69,.6,.59,1.08,1.21,1.43,1.88,.17,.3,.3,.62,.37,.96Zm-5.47,1.06c.02-.11,.04-.22,.04-.33,0-.19-.04-.37-.13-.54-.09-.17-.2-.31-.34-.42-.43-.41-.87-.76-1.33-1.04-.46-.28-.94-.52-1.43-.73-.05,1.02-.08,2.04-.11,3.06-.02,1.02-.03,2.04-.01,3.06,.7-.21,1.31-.54,1.84-.99,.53-.45,.97-1.03,1.32-1.73,.08-.13,.13-.25,.16-.36Z" style="fill:#8c2175;"/><path d="M51.19,22.07h-12.02c.11-1.41,.19-2.82,.24-4.23s.07-2.81,.07-4.23-.03-2.8-.08-4.21c-.06-1.41-.13-2.82-.23-4.21h7.19c-.08,2.13-.14,3.87-.18,5.24-.04,1.36-.05,2.67-.04,3.9,0,.29,0,.58,.01,.88,0,.3,.01,.6,.01,.9,1.02,.02,1.97-.01,2.86-.08s1.77-.19,2.64-.35c.11-.02,.23-.04,.34-.06,.12-.02,.23-.04,.35-.06l-1.17,6.5Z" style="fill:#8c2175;"/><path d="M67.8,22.07l-1.09-2.69h-5.62l-.98,2.69h-6.31l6.67-16.88h6.14l7.97,16.88h-6.78Zm-4.09-9.9l-.98,2.67h2.09l-1.12-2.67Z" style="fill:#8c2175;"/><path d="M81.82,22.07h-6.93l2.48-5.62-5.12-11.26h6.4l2.07,5.09,1.93-5.09h5.81l-6.64,16.88Z" style="fill:#8c2175;"/><path d="M94.32,22.6s-.2-.15-.61-.39c-.41-.25-.85-.52-1.35-.82-.48-.3-.92-.58-1.32-.83-.41-.25-.62-.39-.63-.4l3.19-3.59,3.88,2.83-3.17,3.21Zm-2.38-6.4l-1.45-9.52,6.38-1.48,.05,9.09-4.97,1.9Z" style="fill:#8c2175;"/></g></svg>