<?xml version="1.0" encoding="UTF-8"?><svg id="a" xmlns="http://www.w3.org/2000/svg" viewBox="0 0 76.98 39.06"><path d="M20.22,31.77c-3.71-.56-6.8-1.84-9.28-3.86-2.48-2.02-3.71-4.33-3.71-6.94s1.16-4.78,3.48-6.75,5.23-3.28,8.74-3.93l3.85,5.93c-1.7,.33-3.09,.91-4.18,1.74-1.09,.83-1.63,1.78-1.63,2.84s.55,2,1.66,2.84,2.51,1.42,4.21,1.74l-3.14,6.39Z" style="fill:#6b0063;"/><path d="M44.54,28.56c-2.18,1.85-5.07,2.78-8.67,2.78s-6.5-.93-8.69-2.78c-2.19-1.85-3.28-4.33-3.28-7.44s1.09-5.56,3.28-7.41c2.19-1.85,5.08-2.78,8.69-2.78s6.5,.93,8.67,2.78c2.18,1.85,3.26,4.32,3.26,7.41s-1.09,5.59-3.26,7.44Zm-6.17-9.96c-.7-.64-1.53-.96-2.5-.96s-1.81,.32-2.5,.96c-.69,.64-1.04,1.42-1.04,2.32s.35,1.67,1.04,2.32c.69,.64,1.53,.96,2.5,.96s1.81-.32,2.5-.96c.69-.64,1.04-1.42,1.04-2.32s-.35-1.67-1.04-2.32Z" style="fill:#6b0063;"/><path d="M68.55,17.22c.09,.41,.14,.84,.14,1.28,0,.27-.02,.54-.05,.81-.03,.27-.08,.54-.14,.81-.23,.96-.59,1.9-1.09,2.81s-1.03,1.68-1.58,2.32c-.02,0-.04,0-.05,.03-.01,.02-.03,.04-.05,.06-.35,.37-.78,.67-1.29,.91-.51,.24-1.1,.38-1.79,.42-1.02,.08-1.97,.1-2.88,.07s-1.77-.08-2.6-.16c.04,.81,.08,1.61,.12,2.4,.04,.8,.1,1.59,.19,2.38h-9.17c.31-3.38,.47-6.77,.48-10.16,.01-3.4-.15-6.81-.48-10.25h9.17c1.49,.02,2.74,.08,3.73,.17,1,.1,1.75,.31,2.27,.63,1.02,.65,1.92,1.33,2.71,2.04,.79,.71,1.41,1.47,1.87,2.27,.23,.36,.39,.75,.48,1.17Zm-7.15,1.28c.03-.13,.05-.27,.05-.4,0-.23-.06-.45-.17-.65-.11-.2-.26-.37-.45-.5-.56-.5-1.14-.92-1.74-1.25-.6-.34-1.22-.63-1.87-.88-.06,1.23-.11,2.46-.14,3.7-.03,1.24-.04,2.47-.02,3.7,.91-.25,1.71-.65,2.41-1.19,.69-.55,1.27-1.24,1.73-2.09,.1-.15,.17-.3,.2-.43Z" style="fill:#6b0063;"/></svg>