<?xml version="1.0" encoding="UTF-8"?><svg id="a" xmlns="http://www.w3.org/2000/svg" viewBox="0 0 180.43 26.81"><path d="M15.77,7.77c0,.14,0,.27,0,.42-.04,1.61-.07,3.21-.09,4.79-.02,1.59,0,3.15,.07,4.7-.36,.75-.77,1.41-1.23,1.98s-1.01,1.04-1.64,1.4h-2.97c-.49-.01-.98-.03-1.48-.05-.5-.02-.99-.05-1.49-.11l-1.43-5.17c.55,.21,1.14,.36,1.75,.45,.62,.1,1.28,.14,1.99,.13,.41-.03,.73-.21,.96-.54s.33-.84,.29-1.5c-.04-.73-.09-1.46-.16-2.19-.07-.73-.14-1.46-.2-2.19-.04-.42-.08-.85-.12-1.26-.04-.42-.08-.83-.12-1.24h5.88c0,.13,0,.26,0,.4Z" style="fill:#6b0063;"/><path d="M28.63,19.42c-1.19,1.09-2.77,1.64-4.74,1.64s-3.55-.55-4.75-1.64c-1.2-1.09-1.79-2.55-1.79-4.38s.6-3.3,1.79-4.39,2.78-1.63,4.75-1.63,3.55,.54,4.74,1.63,1.78,2.55,1.78,4.39-.59,3.29-1.78,4.38Zm-3.36-5.87c-.38-.38-.84-.57-1.38-.57s-.98,.19-1.36,.57c-.38,.38-.57,.83-.57,1.36s.19,1,.57,1.38c.38,.38,.83,.57,1.36,.57s1-.19,1.38-.57c.38-.38,.57-.84,.57-1.38s-.19-.98-.57-1.36Z" style="fill:#6b0063;"/><path d="M31.32,21.06c.08-2.01,.12-4.01,.12-6.02s-.04-4.01-.12-6.02h5.02c-.08,2.01-.12,4.01-.13,6.02,0,2.01,.04,4.01,.13,6.02h-5.02Z" style="fill:#6b0063;"/><path d="M47.22,21.06l-5.38-5.54v.85c0,.28,0,.57-.02,.85v1.06c-.01,.46-.02,.93,0,1.39,0,.46,.02,.93,.05,1.39h-4.61c.13-.98,.22-1.96,.29-2.94s.1-1.97,.1-2.96c-.01-1.02-.05-2.04-.11-3.06s-.15-2.05-.28-3.08h3.45l5.02,4.48c-.01-.37-.03-.75-.05-1.12s-.04-.75-.05-1.12c-.03-.37-.05-.75-.06-1.12s-.03-.75-.06-1.12h5.02c-.14,1.65-.21,3.31-.19,4.99,.01,1.68,.05,3.35,.12,5.03,.01,.27,.02,.53,.03,.79,0,.26,.02,.52,.03,.79,0,.08,0,.15,0,.22,0,.07,0,.14,0,.22h-3.3Z" style="fill:#6b0063;"/><path d="M51.44,21.06c.08-2.01,.12-4.01,.12-6.02s-.04-4.01-.12-6.02h5.02c-.08,2.01-.12,4.01-.13,6.02,0,2.01,.04,4.01,.13,6.02h-5.02Z" style="fill:#6b0063;"/><path d="M67.34,21.06l-5.38-5.54v.85c0,.28,0,.57-.02,.85v1.06c-.01,.46-.02,.93,0,1.39,0,.46,.02,.93,.05,1.39h-4.61c.13-.98,.22-1.96,.29-2.94s.1-1.97,.1-2.96c-.01-1.02-.05-2.04-.11-3.06s-.15-2.05-.28-3.08h3.45l5.02,4.48c-.01-.37-.03-.75-.05-1.12s-.04-.75-.05-1.12c-.03-.37-.05-.75-.06-1.12s-.03-.75-.06-1.12h5.02c-.14,1.65-.21,3.31-.19,4.99,.01,1.68,.05,3.35,.12,5.03,.01,.27,.02,.53,.03,.79,0,.26,.02,.52,.03,.79,0,.08,0,.15,0,.22,0,.07,0,.14,0,.22h-3.3Z" style="fill:#6b0063;"/><path d="M77.85,21.06c-.42,0-.79-.02-1.09-.06-.3-.04-.6-.13-.9-.27-.1-.06-.21-.13-.33-.2-.12-.07-.23-.16-.35-.26-.14-.12-.29-.24-.45-.38-.16-.14-.32-.28-.47-.43-.59-.54-1.13-1.16-1.63-1.87-.5-.71-.74-1.45-.72-2.22,0-.23,.03-.47,.09-.7,.06-.24,.15-.48,.28-.72,.75-1.32,1.73-2.44,2.96-3.34,1.23-.9,2.81-1.62,4.74-2.16l2.2,3.24c-.96,.37-1.89,.78-2.79,1.23-.89,.45-1.67,1.02-2.32,1.7-.09,.09-.16,.18-.2,.28-.04,.1-.06,.19-.05,.28,0,.05,0,.11,.03,.16,.02,.06,.04,.11,.07,.16,.03,.06,.06,.12,.1,.17,.04,.05,.08,.11,.14,.17,.41,.48,.8,.81,1.18,.99,.37,.19,.71,.27,1,.26h.15l.04-3.53,4.53,1.27c-.08,.49-.13,.97-.17,1.46-.04,.48-.06,.96-.06,1.44,0,.55,.03,1.11,.08,1.66,.05,.55,.12,1.11,.21,1.66h-6.25Z" style="fill:#6b0063;"/><path d="M101.62,21.06l-.77-1.91h-4.01l-.69,1.91h-4.49l4.75-12.04h4.38l5.69,12.04h-4.84Zm-2.91-7.06l-.69,1.89h1.49l-.79-1.89Z" style="fill:#6b0063;"/><path d="M122.68,21.29c-.41-.45-.8-.92-1.18-1.4-.37-.48-.73-.97-1.08-1.48-.09-.12-.18-.23-.27-.36s-.17-.24-.25-.36c-.08-.1-.15-.21-.22-.31-.07-.1-.14-.21-.22-.31,0,.23,0,.5-.02,.8s-.03,.61-.04,.92c-.01,.13-.02,.26-.03,.39,0,.13,0,.25,0,.37-.03,.32-.04,.61-.06,.88-.01,.26-.03,.47-.04,.63h-4.4c.06-.63,.11-1.29,.14-1.98,.03-.69,.04-1.39,.04-2.11,0-.35,0-.7,0-1.05,0-.35-.02-.7-.03-1.05-.04-1.02-.09-2.02-.15-3.02-.06-1-.14-1.94-.21-2.83h4.98c.22,0,.45,0,.69,0,.24,0,.5,.02,.75,.03,.63,.01,1.22,.05,1.78,.11,.55,.06,.93,.15,1.12,.28,.53,.36,.99,.73,1.4,1.1,.41,.37,.73,.77,.97,1.2,.12,.19,.2,.39,.24,.58s.07,.39,.07,.58c0,.54-.15,1.06-.46,1.56-.31,.5-.64,.96-1,1.37l-.03,.03-.03,.03c-.12,.13-.25,.24-.39,.34-.14,.1-.3,.18-.46,.24,.13,.35,.3,.75,.52,1.21,.22,.46,.48,.92,.79,1.38,.18,.28,.38,.56,.61,.84,.22,.28,.47,.54,.72,.8l-4.22,.6Zm-1.03-7.63c.02-.06,.03-.11,.03-.16s-.01-.1-.04-.13c-.03-.04-.05-.08-.08-.12-.03-.03-.06-.05-.1-.08-.04-.03-.08-.06-.12-.1-.23-.22-.48-.39-.73-.51-.26-.12-.52-.24-.79-.36-.05-.01-.11-.03-.16-.06s-.12-.05-.18-.08c-.01,.31-.03,.6-.04,.89-.01,.28-.02,.56-.02,.83-.01,.3-.02,.59-.02,.89v.95c.46-.14,.88-.36,1.24-.65,.36-.29,.66-.65,.91-1.09,.05-.09,.09-.16,.11-.22Z" style="fill:#6b0063;"/><path d="M139.92,19.42c-1.19,1.09-2.77,1.64-4.74,1.64s-3.55-.55-4.75-1.64c-1.2-1.09-1.79-2.55-1.79-4.38s.6-3.3,1.79-4.39,2.78-1.63,4.75-1.63,3.55,.54,4.74,1.63,1.78,2.55,1.78,4.39-.59,3.29-1.78,4.38Zm-3.36-5.87c-.38-.38-.84-.57-1.38-.57s-.98,.19-1.36,.57c-.38,.38-.57,.83-.57,1.36s.19,1,.57,1.38c.38,.38,.83,.57,1.36,.57s1-.19,1.38-.57c.38-.38,.57-.84,.57-1.38s-.19-.98-.57-1.36Z" style="fill:#6b0063;"/><path d="M154.27,19.42c-1.19,1.09-2.77,1.64-4.74,1.64s-3.55-.55-4.75-1.64c-1.2-1.09-1.79-2.55-1.79-4.38s.6-3.3,1.79-4.39,2.78-1.63,4.75-1.63,3.55,.54,4.74,1.63,1.78,2.55,1.78,4.39-.59,3.29-1.78,4.38Zm-3.36-5.87c-.38-.38-.84-.57-1.38-.57s-.98,.19-1.36,.57c-.38,.38-.57,.83-.57,1.36s.19,1,.57,1.38c.38,.38,.83,.57,1.36,.57s1-.19,1.38-.57c.38-.38,.57-.84,.57-1.38s-.19-.98-.57-1.36Z" style="fill:#6b0063;"/><path d="M169.48,21.06l-.87-4.17-2.72,4.17-2.68-4.32-1.1,4.32h-4.55l2.97-12.04h3.42l2.39,5.4c.5-.82,.99-1.68,1.46-2.58,.47-.9,.92-1.84,1.36-2.82h3.3c.17,2.08,.42,4.13,.76,6.14,.34,2.01,.79,3.98,1.34,5.89h-5.07Z" style="fill:#6b0063;"/></svg>