<?xml version="1.0" encoding="UTF-8"?><svg id="a" xmlns="http://www.w3.org/2000/svg" viewBox="0 0 86.75 29.11"><path d="M16.81,11.62c.24,.7,.38,1.41,.42,2.13v.31c0,1.32-.35,2.57-1.06,3.73-.71,1.16-1.77,2.01-3.18,2.54-.58,.22-1.19,.33-1.84,.35-.65,.01-1.34,.01-2.07,0H3.76c.09-2.29,.13-4.57,.13-6.85s-.04-4.55-.13-6.83h5.56c1.41,.01,2.67,.23,3.77,.65s2,1.09,2.69,2.02c.45,.6,.79,1.26,1.03,1.96Zm-5.98,.7c-.52-.32-1.06-.5-1.63-.54-.01,.75-.02,1.5-.02,2.25s0,1.51,.02,2.27c.68-.06,1.27-.29,1.78-.67,.5-.38,.91-.9,1.23-1.57-.4-.84-.86-1.41-1.38-1.74Z" style="fill:#6b0063;"/><path d="M25.47,10.43c-.8-.02-1.61,0-2.42,.07-.01,.26-.02,.52-.02,.79v.81c.8,.05,1.59,.07,2.38,.05,.79-.02,1.58-.09,2.36-.22l-.81,3.65h-3.95c0,.13,0,.26,0,.4,0,.14,0,.27,0,.42,0,.13,0,.26,0,.4,0,.13,0,.27,0,.41,.8,.05,1.59,.07,2.38,.05,.79-.02,1.58-.09,2.36-.22l-.81,3.67h-9.53c.05-1.14,.09-2.29,.11-3.42,.02-1.14,.03-2.28,.03-3.42s-.01-2.27-.04-3.41c-.03-1.14-.06-2.28-.1-3.41h9.59l.81,3.65c-.78-.13-1.58-.2-2.38-.22Z" style="fill:#6b0063;"/><path d="M40.28,20.68l-.89-2.18h-4.55l-.79,2.18h-5.11l5.4-13.68h4.98l6.46,13.68h-5.5Zm-3.32-8.02l-.79,2.16h1.7l-.91-2.16Z" style="fill:#6b0063;"/><path d="M55.71,20.68h-9.74c.09-1.14,.15-2.29,.19-3.42,.04-1.14,.06-2.28,.06-3.42s-.02-2.27-.07-3.41c-.04-1.14-.11-2.28-.18-3.41h5.83c-.06,1.72-.11,3.14-.14,4.24s-.04,2.16-.03,3.16c0,.23,0,.47,0,.71s0,.49,0,.73c.82,.01,1.59,0,2.32-.07,.72-.06,1.43-.15,2.14-.28,.09-.01,.18-.03,.28-.05,.1-.02,.19-.04,.28-.05l-.95,5.27Z" style="fill:#6b0063;"/><path d="M65.81,10.43c-.8-.02-1.61,0-2.42,.07-.01,.26-.02,.52-.02,.79v.81c.8,.05,1.59,.07,2.38,.05,.79-.02,1.58-.09,2.36-.22l-.81,3.65h-3.95c0,.13,0,.26,0,.4,0,.14,0,.27,0,.42,0,.13,0,.26,0,.4,0,.13,0,.27,0,.41,.8,.05,1.59,.07,2.38,.05,.79-.02,1.58-.09,2.36-.22l-.81,3.67h-9.53c.05-1.14,.09-2.29,.11-3.42,.02-1.14,.03-2.28,.03-3.42s-.01-2.27-.04-3.41c-.03-1.14-.06-2.28-.1-3.41h9.59l.81,3.65c-.78-.13-1.58-.2-2.38-.22Z" style="fill:#6b0063;"/><path d="M78.05,20.95c-.46-.5-.9-1.03-1.32-1.58-.42-.55-.83-1.11-1.22-1.66-.12-.15-.23-.31-.33-.45-.1-.15-.21-.3-.31-.45-.08-.1-.15-.21-.23-.32-.08-.11-.15-.22-.23-.32,0,.27,0,.58-.03,.92s-.04,.68-.05,1.03c-.01,.12-.02,.23-.03,.34s0,.22,0,.34c-.03,.4-.05,.77-.07,1.1-.02,.33-.04,.6-.05,.79h-5c.06-.72,.11-1.47,.14-2.26,.03-.78,.05-1.59,.05-2.41,0-.37,0-.75,0-1.13s-.02-.76-.03-1.13c-.04-1.18-.09-2.35-.16-3.5-.07-1.15-.15-2.23-.24-3.25h5.65c.26,0,.52,0,.79,0,.27,0,.55,.02,.83,.03,.72,.03,1.4,.07,2.03,.14s1.05,.17,1.27,.31c.6,.4,1.13,.81,1.59,1.23,.46,.42,.83,.88,1.11,1.37,.06,.12,.12,.23,.16,.34s.08,.22,.11,.32c.03,.1,.04,.21,.06,.32s.02,.22,.02,.34c0,.63-.18,1.23-.54,1.81-.36,.58-.76,1.11-1.2,1.6-.13,.14-.27,.27-.43,.38-.16,.11-.34,.2-.53,.28,.15,.39,.35,.84,.59,1.35,.24,.51,.53,1.04,.88,1.56,.22,.32,.46,.64,.71,.95,.26,.32,.53,.62,.83,.92l-4.8,.69Zm-1.18-8.68c.03-.06,.04-.12,.04-.17s0-.1-.03-.13-.05-.08-.09-.12c-.03-.04-.06-.08-.11-.12-.05-.04-.09-.08-.15-.14-.27-.24-.55-.44-.85-.58s-.59-.28-.89-.41c-.06-.03-.13-.05-.19-.08-.06-.03-.13-.05-.19-.08-.01,.37-.03,.72-.05,1.05-.02,.33-.03,.65-.03,.96-.01,.32-.02,.65-.02,.97v1.05c.53-.14,1-.38,1.41-.71,.41-.33,.75-.75,1.02-1.25,.05-.1,.09-.19,.12-.25Z" style="fill:#6b0063;"/></svg>