<?xml version="1.0" encoding="UTF-8"?><svg id="a" xmlns="http://www.w3.org/2000/svg" viewBox="0 0 172.01 40.4"><defs><style>.b{fill:#9b3979;}.c{fill:#ef6e66;}</style></defs><path class="b" d="M8.68,0H163.33c4.79,0,8.68,3.89,8.68,8.68V31.38c0,4.98-4.04,9.02-9.02,9.02H8.68c-4.79,0-8.68-3.89-8.68-8.68V8.68C0,3.89,3.89,0,8.68,0Z"/><path class="c" d="M11.46,2.98H151.7c4.79,0,8.68,3.89,8.68,8.68V28.4c0,4.98-4.04,9.02-9.02,9.02H11.46c-4.79,0-8.68-3.89-8.68-8.68V11.66C2.78,6.87,6.67,2.98,11.46,2.98Z"/><g><path class="b" d="M21.83,28.52c-1.08,.64-2.28,1.17-3.6,1.6l-7.17-3.59c1.38-.35,2.41-.82,3.11-1.42,.7-.59,1.04-1.29,1.02-2.09,0-.35-.06-.72-.18-1.11-.12-.39-.32-.79-.61-1.2-.16-.26-.35-.51-.56-.75-.21-.24-.42-.48-.62-.72l-.03-.03c-.24-.26-.48-.53-.7-.81-.22-.28-.43-.57-.61-.86-.22-.39-.38-.76-.49-1.13-.1-.36-.15-.72-.15-1.07,0-.67,.17-1.3,.52-1.9,.34-.6,.78-1.16,1.31-1.68,.59-.59,1.31-1.1,2.16-1.52,.85-.42,1.82-.79,2.92-1.13l6.08,3.36c-.63,.35-1.18,.73-1.67,1.14-.49,.41-.86,.86-1.12,1.36-.04,.07-.08,.14-.11,.21-.03,.07-.06,.13-.08,.21-.04,.15-.07,.29-.09,.43-.02,.14-.03,.27-.03,.4,0,.35,.07,.69,.21,1.02,.14,.32,.34,.62,.61,.88,.77,.76,1.41,1.51,1.91,2.25,.51,.74,.85,1.47,1.03,2.2,.04,.19,.07,.37,.09,.56,.02,.19,.03,.37,.03,.56,0,.39-.06,.78-.17,1.17-.11,.39-.28,.78-.5,1.17-.59,1.02-1.42,1.85-2.51,2.49Z"/><path class="b" d="M26.83,29.26c.06-1.65,.11-3.3,.15-4.94,.04-1.64,.06-3.29,.06-4.94s-.02-3.27-.06-4.92c-.04-1.65-.09-3.29-.15-4.92h8.96c-.06,1.63-.11,3.27-.15,4.92-.04,1.65-.06,3.29-.06,4.92s.02,3.3,.05,4.94c.03,1.64,.09,3.29,.17,4.94h-8.96Z"/><path class="b" d="M47.18,29.26c-.75,0-1.4-.03-1.96-.1-.56-.06-1.09-.22-1.59-.46-.2-.09-.41-.2-.61-.32-.2-.12-.41-.26-.61-.43-.26-.19-.53-.38-.8-.6-.27-.21-.55-.44-.84-.68-1.07-.91-2.05-1.94-2.93-3.1-.88-1.16-1.31-2.37-1.29-3.63,0-.39,.06-.78,.17-1.17,.11-.39,.28-.78,.5-1.17,1.32-2.17,3.08-3.99,5.29-5.46,2.21-1.47,5.03-2.66,8.47-3.55l3.95,5.31c-1.72,.61-3.38,1.28-4.98,2.02-1.6,.73-2.99,1.66-4.16,2.79-.16,.15-.28,.3-.35,.44-.07,.15-.11,.3-.11,.45,0,.19,.06,.37,.17,.56,.11,.19,.25,.37,.41,.56,.81,.85,1.57,1.42,2.28,1.7,.71,.28,1.35,.4,1.91,.36l.06-5.78,8.11,2.09c-.14,.82-.24,1.62-.3,2.42-.06,.8-.09,1.59-.09,2.36,0,.91,.05,1.81,.14,2.71,.09,.9,.21,1.79,.35,2.68h-11.18Z"/><path class="b" d="M78.25,29.26l-9.63-9.07v1.39c0,.46-.01,.93-.03,1.39v1.75c-.02,.76-.03,1.52-.02,2.27,.01,.75,.04,1.51,.08,2.27h-8.23c.22-1.59,.39-3.21,.5-4.84,.11-1.63,.17-3.26,.17-4.89s-.06-3.3-.17-4.96c-.11-1.66-.28-3.33-.5-5.02h6.17l8.96,7.34c-.06-1.22-.12-2.45-.18-3.67-.06-1.22-.12-2.45-.18-3.67h8.99c-.3,3.24-.41,6.51-.33,9.8,.08,3.29,.19,6.6,.33,9.91h-5.92Z"/><path class="b" d="M110.75,29.26c-.06-.44-.12-.89-.18-1.35-.06-.45-.12-.91-.18-1.38-.08,.11-.17,.22-.26,.33-.09,.11-.19,.22-.29,.33-.1,.15-.21,.29-.32,.43-.11,.14-.23,.27-.35,.4-.2,.26-.4,.51-.61,.74-.2,.23-.41,.45-.61,.65-2.09,.02-4.1-.17-6.03-.56-1.93-.39-3.8-.95-5.6-1.7,.38-1.82,.65-3.55,.81-5.19s.23-3.21,.23-4.71c0-1.37-.06-2.69-.17-3.96-.11-1.27-.25-2.53-.41-3.77h8.81v.36c-.04,2.15-.12,4.27-.23,6.35-.11,2.09-.44,4-.99,5.74,.57,.48,1.24,.87,2.02,1.17,.78,.3,1.67,.44,2.66,.44,.16,0,.33,0,.52-.01,.18,0,.36-.02,.55-.04-.12-1.5-.2-3.04-.24-4.6-.04-1.57-.05-3.14-.03-4.71,.02-.78,.05-1.56,.09-2.35,.04-.79,.08-1.57,.12-2.35h8.69c-.06,1.63-.11,3.27-.15,4.92-.04,1.65-.06,3.29-.06,4.92s.02,3.3,.05,4.94,.09,3.29,.17,4.94h-7.99Z"/><path class="b" d="M140.72,15.62c.09,.4,.14,.81,.14,1.24,0,.26-.02,.52-.05,.78-.03,.26-.08,.52-.14,.78-.22,.93-.58,1.83-1.06,2.71-.49,.88-1,1.63-1.55,2.24-.02,0-.04,0-.05,.03s-.03,.04-.05,.06c-.35,.35-.76,.64-1.26,.88-.5,.23-1.08,.37-1.75,.4-.99,.07-1.93,.1-2.81,.07-.88-.03-1.73-.08-2.54-.15,.04,.78,.08,1.55,.12,2.32,.04,.77,.1,1.53,.18,2.29h-8.96c.3-3.26,.46-6.54,.47-9.82s-.15-6.58-.47-9.9h8.96c1.46,.02,2.67,.07,3.65,.17,.97,.09,1.71,.3,2.22,.61,.99,.63,1.87,1.29,2.64,1.97,.77,.69,1.38,1.42,1.82,2.2,.22,.35,.38,.73,.47,1.13Zm-6.99,1.24c.03-.13,.05-.26,.05-.39,0-.22-.06-.43-.17-.63-.11-.19-.26-.36-.44-.49-.55-.48-1.11-.89-1.7-1.21-.59-.32-1.19-.61-1.82-.85-.06,1.19-.11,2.38-.14,3.57s-.04,2.39-.02,3.57c.89-.24,1.67-.63,2.35-1.15,.68-.53,1.24-1.2,1.69-2.02,.1-.15,.17-.29,.2-.42Z"/><path class="b" d="M148.05,29.87s-.26-.17-.77-.46c-.52-.29-1.09-.61-1.72-.96-.61-.35-1.17-.68-1.69-.97s-.79-.45-.8-.47l4.07-4.2,4.95,3.31-4.04,3.75Zm-3.04-7.48l-1.85-11.12,8.14-1.72,.06,10.62-6.35,2.22Z"/></g></svg>