<?xml version="1.0" encoding="UTF-8"?><svg id="a" xmlns="http://www.w3.org/2000/svg" xmlns:xlink="http://www.w3.org/1999/xlink" viewBox="0 0 292.69 55.76"><defs><style>.c{fill:#fff;opacity:.1;}.d{clip-path:url(#b);}.e{fill:none;}.f{fill:#6b0063;}</style><clipPath id="b"><rect class="e" x="166.21" y="-462.14" width="616.27" height="400.17"/></clipPath></defs><g class="d"><path class="c" d="M727.11-53.15V-203.16c-5.1-3.57-10.9-6.25-17.16-7.78-.09-27.62-22.91-49.99-51.06-49.99-24.24,0-44.53,16.6-49.75,38.85-6.8-3.3-14.46-5.15-22.56-5.15-16.69,0-31.5,7.86-40.82,20.02-5.5-21.87-25.6-38.1-49.57-38.1-28.2,0-51.07,22.45-51.07,50.15,0,2.6,.2,5.16,.59,7.65-7.23-3.85-15.5-6.03-24.3-6.03-3.19,0-6.31,.3-9.34,.85-9.17-13.4-24.74-22.22-42.41-22.22-1.54,0-3.07,.08-4.58,.21-7.11-19.29-25.93-33.08-48.03-33.08-8.1,0-15.76,1.86-22.56,5.16-5.22-22.25-25.5-38.85-49.75-38.85-18.73,0-35.09,9.9-43.98,24.66-17.31,.14-32.57,8.74-41.7,21.79-4.62-1.35-9.51-2.08-14.57-2.08-12.9,0-24.67,4.7-33.66,12.45v75.93h0V4.02H727.11V-53.15h0Z"/></g><g><g><path class="f" d="M32.03,31.16c.61,.39,1.07,.96,1.38,1.7,.13,.44,.24,1.03,.33,1.77,.09,.74,.07,1.7-.07,2.88-.13,.61-.27,1.22-.43,1.83-.15,.61-.34,1.18-.56,1.7-.35,.83-.71,1.55-1.08,2.16-.37,.61-.8,1.22-1.28,1.83-1.4,1.44-3.04,2.45-4.91,3.01-.48,.09-.95,.15-1.41,.2-.46,.04-.93,.07-1.41,.07-1.01,0-1.86-.07-2.56-.2-.22-.04-.43-.09-.62-.13-.2-.04-.4-.11-.62-.2-.52-.13-.96-.31-1.31-.52-.83-.31-1.64-.79-2.42-1.44-1.22-.96-2.29-2.1-3.21-3.41-.57-.83-.98-1.59-1.25-2.29-.09-.09-.18-.22-.26-.39-.87-1.27-1.57-2.52-2.1-3.77-.52-1.25-.94-2.37-1.25-3.38-.48-1.66-.85-3.38-1.11-5.14-.26-1.77-.42-3.55-.46-5.34,0-4.11,.61-7.71,1.83-10.81,.3-.74,.64-1.42,1.02-2.03,.37-.61,.75-1.18,1.15-1.7,1.09-1.62,2.4-2.82,3.93-3.6,.44-.22,.85-.4,1.25-.56,.39-.15,.83-.29,1.31-.43,1.09-.17,2.16-.24,3.21-.2,1.22,.13,2.36,.48,3.41,1.05,.44,.22,.84,.49,1.21,.82,.37,.33,.73,.67,1.08,1.02,.61-.83,1.27-1.4,1.97-1.7,1.27-.57,2.36-.39,3.28,.52,.04,0,.07,.02,.07,.07,.26,.35,.45,.69,.56,1.02,.11,.33,.19,.67,.23,1.02,.22,.13,.42,.31,.59,.52,.04,0,.07,.01,.07,.03s.02,.03,.07,.03c.44,.48,.69,.99,.75,1.54,.07,.55,.08,1.06,.03,1.54v.2c0,.13-.01,.27-.03,.43-.02,.15-.03,.32-.03,.49,0,.09-.01,.17-.03,.26-.02,.09-.03,.17-.03,.26v.52c-.04,.57-.09,1.21-.13,1.93-.04,.72-.13,1.5-.26,2.33-.22,1.14-.39,2.3-.52,3.51-.13,1.2-.24,2.39-.33,3.57v.13c-.09,1.4-.64,2.57-1.67,3.51s-2.24,1.37-3.64,1.28c-1.18-.09-2.19-.51-3.05-1.28-.85-.76-1.41-1.65-1.67-2.65-.48-.48-.87-1.05-1.18-1.7-.31-.66-.44-1.35-.39-2.1v-.92c-.04-.22-.07-.55-.07-.98-.04-.31-.08-.61-.1-.92-.02-.3-.05-.61-.1-.92v-.2c0-.09-.02-.15-.07-.2,0-.22-.01-.4-.03-.56-.02-.15-.06-.32-.1-.49-.09,.17-.2,.35-.33,.52s-.24,.42-.33,.72c-.26,.66-.48,1.38-.66,2.16s-.31,1.66-.39,2.62c-.22,1.83-.23,3.7-.03,5.6,.2,1.9,.54,3.7,1.02,5.41,.13,.35,.26,.7,.39,1.05s.26,.68,.39,.98c.22,.22,.46,.42,.72,.59,.17,.09,.28,.13,.33,.13,.26,.09,.46,.13,.59,.13,.13,.09,.26,.09,.39,0h.07c.09-.04,.17-.08,.26-.1,.09-.02,.17-.05,.26-.1,.13,0,.33-.22,.59-.66,.22-.35,.39-.77,.52-1.28,.13-.5,.24-.99,.33-1.47,.09-.48,.28-.92,.59-1.31,.31-.39,.7-.63,1.18-.72,.35-.04,.72-.04,1.11,0,.09-.04,.28-.07,.59-.07,.17-.3,.37-.57,.59-.79,0-.04,.02-.07,.07-.07,.39-.44,.86-.73,1.41-.88,.55-.15,1.06-.1,1.54,.16,.26,.09,.55,.28,.85,.59s.57,.76,.79,1.38c.04,.22,.11,.48,.2,.79Zm-22.74,.79c.35,1.05,.74,2.12,1.18,3.21,.44,1.09,1.03,2.16,1.77,3.21,.52,.92,1.2,1.73,2.03,2.42,.09,.13,.26,.29,.52,.46,.09,.09,.15,.13,.2,.13,.22,.26,.49,.49,.82,.69,.33,.2,.67,.38,1.02,.56,.22,.09,.4,.15,.56,.2,.15,.04,.34,.09,.56,.13,.3,.09,.63,.17,.98,.26,.22,.04,.43,.08,.62,.1,.2,.02,.4,.03,.62,.03,.61,.09,1.31,.09,2.1,0,.44-.09,.76-.17,.98-.26,.09,0,.19-.02,.29-.07,.11-.04,.21-.09,.29-.13,.17,0,.35-.04,.52-.13,1.05-.39,1.92-1.05,2.62-1.97,.96-.96,1.62-2.03,1.97-3.21,.22-.52,.39-1.04,.52-1.54s.24-.99,.33-1.47c.13-.87,.16-1.58,.1-2.13-.07-.55-.14-.99-.23-1.34v-.07c-.17-.31-.31-.46-.39-.46-.13-.04-.26,0-.39,.13-.09,.17-.2,.42-.33,.72-.13,.31-.31,.7-.52,1.18v.07c-.22,.48-.44,1.02-.66,1.61-.22,.59-.5,1.21-.85,1.87l-.46-.13c.3-.66,.5-1.22,.59-1.7,.09-.48,.13-.87,.13-1.18,0-.13-.01-.23-.03-.29s-.03-.14-.03-.23c-.04-.09-.11-.17-.2-.26-.22-.09-.42-.07-.59,.07-.18,.13-.33,.09-.46-.13-.04,.22-.08,.39-.1,.52-.02,.13-.05,.29-.1,.46-.09,.48-.2,.91-.33,1.28-.13,.37-.28,.73-.46,1.08-.09,.17-.13,.28-.13,.33-.61,1.09-1.31,1.7-2.1,1.83-.13,.04-.26,.09-.39,.13-.13,.04-.29,.09-.46,.13h-.79l-1.18-.2c-.31-.13-.59-.24-.85-.33-.52-.35-1.09-.89-1.7-1.64-.44-.57-.83-1.22-1.18-1.97-.35-.74-.66-1.48-.92-2.23-.04-.13-.09-.26-.13-.39-.04-.13-.09-.26-.13-.39-.09-.22-.18-.54-.26-.98-.48-1.79-.8-3.6-.95-5.44s-.14-3.67,.03-5.5c.13-1.49,.44-3.01,.92-4.59,.09-.17,.14-.34,.16-.49,.02-.15,.08-.32,.16-.49,.04-.04,.11-.15,.2-.33,.17-.31,.34-.61,.49-.92,.15-.3,.34-.57,.56-.79,.22-.3,.46-.52,.72-.66l.39-.2s.07-.01,.07-.03,.04-.03,.13-.03l.26-.13c.17-.09,.33-.13,.46-.13s.24-.02,.33-.07c.22,0,.42,.04,.59,.13,.3,.04,.68,.39,1.11,1.05,.09,.13,.17,.29,.26,.46,.17,.22,.28,.46,.33,.72,.04,.04,.07,.09,.07,.13s.02,.09,.07,.13v.13c0,.26,.07,.48,.2,.66,.26,.88,.46,1.86,.59,2.95-.09-.61-.2-1.23-.33-1.87-.13-.63-.28-1.21-.46-1.74v-.07c0-.17-.02-.28-.07-.33-.09-.13-.14-.26-.16-.39-.02-.13-.08-.24-.16-.33-.26-.61-.57-1.05-.92-1.31-.31-.22-.55-.35-.72-.39-.26-.09-.57-.07-.92,.07-.26,.09-.48,.15-.66,.2-.09,.04-.16,.08-.23,.1-.07,.02-.14,.08-.23,.16-.26,.13-.59,.42-.98,.85-.13,.22-.26,.44-.39,.66-.13,.22-.26,.44-.39,.66-.09,.18-.17,.35-.26,.52-.09,.17-.18,.37-.26,.59-.09,.17-.13,.31-.13,.39-.35,1.09-.63,2.29-.85,3.6-.22,1.27-.32,2.53-.29,3.8,.02,1.27,.1,2.55,.23,3.87-.04-.04-.09-.09-.13-.13-.04-.04-.07,.04-.07,.26-.39-2.75-.44-5.37-.13-7.86,.09-.66,.21-1.3,.36-1.93,.15-.63,.34-1.25,.56-1.87,.09-.17,.16-.34,.23-.49,.07-.15,.14-.32,.23-.49,.09-.13,.17-.27,.26-.43,.09-.15,.17-.32,.26-.49,.22-.35,.44-.68,.66-.98,.35-.35,.71-.62,1.08-.82s.8-.36,1.28-.49c.17-.04,.35-.05,.52-.03,.17,.02,.33,.06,.46,.1,.22,.04,.48,.22,.79,.52,.09,.09,.19,.19,.29,.29,.11,.11,.21,.25,.29,.43,.09,.09,.14,.17,.16,.26,.02,.09,.08,.17,.16,.26,0,.04,0,.08,.03,.1,.02,.02,.03,.06,.03,.1,.09,.35,.17,.63,.26,.85,.04,.09,.08,.15,.1,.2,.02,.04,.05,.11,.1,.2v.13c.22,.57,.39,1.16,.52,1.77,.13,.61,.26,1.22,.39,1.83l-.46,.07c.04,.35,.08,.69,.1,1.02,.02,.33,.03,.67,.03,1.02,.04,.18,.07,.35,.07,.52v1.57c0,.61,.21,1.16,.62,1.64,.41,.48,.93,.81,1.54,.98,.09,0,.16,.01,.23,.03,.07,.02,.14,.03,.23,.03h.07c.74,.04,1.38-.17,1.9-.66s.83-1.09,.92-1.83v-.13c.13-2.4,.44-4.87,.92-7.4,.13-.74,.22-1.45,.26-2.13,.04-.68,.09-1.3,.13-1.87-.35,.83-.63,1.69-.85,2.59-.22,.9-.42,1.85-.59,2.85-.09,.52-.17,1.07-.26,1.64-.09,.57-.17,1.16-.26,1.77v-.43c0-.15-.02-.29-.07-.43v-.2c.09-.39,.14-.79,.16-1.18,.02-.39,.08-.79,.16-1.18,.17-1,.36-1.97,.56-2.88,.2-.92,.47-1.81,.82-2.69,.09-.17,.22-.48,.39-.92,0-.22,0-.4,.03-.56,.02-.15,.05-.32,.1-.49,0-.52-.02-.89-.07-1.11-.09-.22-.15-.33-.2-.33-.18-.17-.39-.2-.66-.07-.18,.09-.37,.23-.59,.43-.22,.2-.44,.47-.66,.82-.13,.22-.24,.48-.33,.79-.09,.18-.14,.34-.16,.49-.02,.15-.05,.29-.1,.43-.04,.17-.09,.33-.13,.46-.18,.13-.32,.15-.43,.07-.11-.09-.21-.2-.29-.33-.04,.13-.08,.27-.1,.43-.02,.15-.06,.29-.1,.43-.09-.17-.13-.28-.13-.33,.04-.13,.07-.25,.07-.36s.04-.23,.13-.36c-.22-.22-.42-.2-.59,.07-.35-.66-.72-1.2-1.11-1.64-.22-.3-.49-.59-.82-.85-.33-.26-.71-.5-1.15-.72-.31-.22-.68-.39-1.11-.52-.22-.04-.44-.09-.66-.13-.22-.04-.44-.07-.66-.07-.87-.04-1.66,.02-2.36,.2-.7,.13-1.38,.37-2.03,.72-.74,.35-1.37,.78-1.87,1.28-.5,.5-.95,1.02-1.34,1.54-.39,.57-.72,1.11-.98,1.64-.26,.52-.5,1.07-.72,1.64-.13,.31-.24,.58-.33,.82-.09,.24-.18,.47-.26,.69-.48,1.44-.8,2.86-.95,4.26-.15,1.4-.23,2.8-.23,4.19,0,3.28,.5,6.55,1.51,9.83ZM17.29,5.99c1.09-.22,2.14-.09,3.15,.39,.48,.22,.92,.49,1.31,.82,.39,.33,.74,.67,1.05,1.02,.22,.31,.42,.61,.59,.92,.17,.31,.33,.61,.46,.92v.07c-.18-.35-.35-.68-.52-.98-.17-.31-.39-.63-.66-.98-.35-.35-.71-.68-1.08-.98-.37-.31-.8-.57-1.28-.79-.52-.22-1.05-.35-1.57-.39-.52-.04-1.03-.02-1.51,.07-.22,.04-.45,.09-.69,.13-.24,.04-.47,.11-.69,.2-.48,.13-.92,.33-1.31,.59-.92,.48-1.64,1.07-2.16,1.77,.26-.35,.58-.68,.95-.98s.78-.59,1.21-.85c.44-.26,.87-.46,1.31-.59,.22-.09,.46-.15,.72-.2,.26-.04,.5-.09,.72-.13Zm4.98,9.17c.04,.26,.09,.51,.13,.75,.04,.24,.09,.49,.13,.75,.04,.26,.07,.51,.07,.75s.02,.49,.07,.75c0,.09-.01,.16-.03,.23-.02,.07-.03,.14-.03,.23,0-.3-.02-.55-.07-.72-.09-.96-.22-1.94-.39-2.95v-.2c-.09-.22-.15-.41-.2-.59-.04-.17-.09-.37-.13-.59-.09-.22-.18-.45-.26-.69-.09-.24-.17-.47-.26-.69v-.13s-.07-.09-.07-.13c-.18-.39-.34-.74-.49-1.05-.15-.3-.34-.59-.56-.85,0-.04-.04-.11-.13-.2-.52-.48-1.14-.72-1.83-.72-.35,0-.73,.07-1.15,.2-.42,.13-.78,.31-1.08,.52-.22,.17-.42,.36-.59,.56-.17,.2-.37,.4-.59,.62-.26,.35-.44,.61-.52,.79-.22,.39-.43,.79-.62,1.18-.2,.39-.38,.83-.56,1.31,.26-.87,.65-1.75,1.18-2.62,.09-.17,.26-.44,.52-.79,.66-.92,1.48-1.51,2.49-1.77,.57-.13,1.05-.17,1.44-.13,.44,.04,.85,.24,1.25,.59,.09,.09,.15,.17,.2,.26,.52,.61,.92,1.33,1.18,2.16,.04,.09,.07,.14,.07,.16s.02,.08,.07,.16c0,.04,.02,.09,.07,.13,.09,.22,.15,.44,.2,.66,.04,.22,.11,.46,.2,.72,.04,.35,.15,.74,.33,1.18v.13Zm0,30.47c-.26,.04-.5,.08-.72,.1-.22,.02-.44,.03-.66,.03-.09,0-.16-.01-.23-.03-.07-.02-.16-.03-.29-.03,.09,.04,.17,.07,.26,.07,.44,.13,.98,.2,1.64,.2v-.33Zm2.1-.39c-.09,.04-.26,.11-.52,.2v.46c.26,0,.44-.02,.52-.07v-.59Zm0-33.94s.07,.09,.07,.13,.02,.09,.07,.13l-.07,.07c0-.09-.02-.15-.07-.2v-.13Zm6.29,28.9c.17-.39,.32-.79,.43-1.18,.11-.39,.21-.79,.29-1.18-.04,.09-.09,.2-.13,.33-.04,.13-.09,.24-.13,.33-.39,1-.83,1.86-1.31,2.56v1.05c.22-.35,.39-.68,.52-.98,.13-.31,.24-.61,.33-.92Z"/><path class="f" d="M57.52,30.57c.04,1.35,.09,2.72,.13,4.1s-.02,2.74-.2,4.09v1.57c.04,.74,.04,1.41,0,2-.04,.59-.17,1.12-.39,1.61-.22,.48-.49,.87-.82,1.18-.33,.3-.69,.52-1.08,.66-.52,.74-1.08,1.2-1.67,1.38-.59,.17-1.06,.26-1.41,.26-.48,0-.96-.11-1.44-.33-.48-.22-.92-.59-1.31-1.11l-.07-.07s-.09-.02-.13-.07v-.07c-.22-.22-.37-.39-.46-.52,0-.13-.04-.24-.13-.33-.17-.26-.24-.39-.2-.39-.13-.17-.21-.33-.23-.46-.02-.13-.06-.26-.1-.39-.09-.04-.15-.1-.2-.16-.04-.07-.11-.12-.2-.16-.04,0-.09-.04-.13-.13v-.07c-.13-.26-.28-.46-.46-.59,0-.09-.01-.15-.03-.2-.02-.04-.03-.11-.03-.2-.13-.04-.2-.13-.2-.26-.31-.52-.51-1.03-.62-1.51-.11-.48-.16-.98-.16-1.51v-.2c.04-.44,.09-.88,.13-1.34,.04-.46,.07-.91,.07-1.34-.48,0-.87,0-1.18-.03-.31-.02-.59-.08-.85-.16-.26-.09-.52-.14-.79-.16-.26-.02-.52-.05-.79-.1h-.85v.2c.04,.61,.07,1.22,.07,1.83v1.83c0,.13,.03,.36,.1,.69,.07,.33,.12,.62,.16,.88,.13,.52,.23,1.04,.29,1.54,.07,.5,.05,.97-.03,1.41-.26,1-.76,1.68-1.51,2.03-.26,.92-.7,1.56-1.31,1.93-.61,.37-1.29,.56-2.03,.56-.61,0-1.35-.22-2.23-.66-.09,0-.13-.02-.13-.07s-.02-.09-.07-.13c-.22-.22-.42-.39-.59-.52-.09-.13-.18-.24-.26-.33-.17-.17-.31-.26-.39-.26-.26-.35-.48-.72-.66-1.11-.18-.39-.35-.81-.52-1.25h-.13c0-.09-.01-.15-.03-.2-.02-.04-.05-.11-.1-.2-.7-.79-1.2-1.75-1.51-2.88v-.13c-.09-.87-.16-1.76-.23-2.65-.07-.9-.14-1.84-.23-2.85-.04,0-.07-.02-.07-.07v-.13c-.09-1.83-.16-3.68-.23-5.54-.07-1.86-.1-3.77-.1-5.73,.04-2.1,.11-4.07,.2-5.93,.09-1.86,.2-3.7,.33-5.54l.07-1.31c0-.09,0-.17,.03-.26,.02-.09,.03-.17,.03-.26,.22-.48,.38-.99,.49-1.54,.11-.55,.21-1.15,.29-1.8,.09-.39,.25-.76,.49-1.11,.24-.35,.58-.59,1.02-.72,.48-.26,.98-.33,1.51-.2,.04-.04,.13-.07,.26-.07,.39,0,.7,.09,.92,.26,.22-.13,.42-.24,.59-.33s.37-.15,.59-.2c.09-.04,.21-.09,.36-.13,.15-.04,.29-.07,.43-.07,.7,0,1.38,.25,2.03,.75s1.09,1.32,1.31,2.46c.39,.26,.75,.67,1.08,1.21,.33,.55,.51,1.23,.56,2.06,.04,.87,.03,1.77-.03,2.69-.07,.92-.14,1.81-.23,2.69-.04,.79-.1,1.59-.16,2.42-.07,.83-.1,1.64-.1,2.42v1.7c.48-.09,.99-.13,1.54-.13h1.61c-.17-1.48-.42-3.05-.72-4.68-.31-1.64-.66-3.48-1.05-5.54l-.33-1.18c-.04-.09-.07-.3-.07-.66,.04-.44,.03-.91-.03-1.41s-.14-1.04-.23-1.61c-.26-.79-.07-1.53,.59-2.23,.35-.48,.81-.72,1.38-.72,.22-.13,.61-.24,1.18-.33,.13-.17,.23-.33,.29-.46s.19-.26,.36-.39c.57-.48,1.25-.72,2.03-.72,.39,0,.92,.15,1.57,.46,.66,.31,1.27,1.03,1.83,2.16,.04,.22,.11,.39,.2,.52,.09,.13,.17,.26,.26,.39,.17,.22,.37,.47,.59,.75,.22,.29,.41,.6,.59,.95,.48,1.14,.84,2.29,1.08,3.47,.24,1.18,.47,2.42,.69,3.73,.13,.61,.26,1.22,.39,1.83,.13,.61,.24,1.22,.33,1.83,.35,1.53,.62,2.95,.82,4.26s.32,2.67,.36,4.06c0,.57,.02,1.12,.07,1.67,.04,.55,.09,1.06,.13,1.54Zm-10.03,.33c.39,0,.7,.04,.92,.13,0,.44,.02,.88,.07,1.34,.04,.46,.07,.91,.07,1.34v-2.69c.09,0,.17-.04,.26-.13,0,.52,.01,1.03,.03,1.51,.02,.48,.05,.98,.1,1.51h-.39v2.42c0,.83-.04,1.68-.13,2.55,0,.35,.04,.69,.13,1.02,.09,.33,.17,.62,.26,.88,.26-1.18,.43-2.36,.49-3.54,.07-1.18,.1-2.38,.1-3.6v-3.15l.07-.07v-.07c.13,.52,.13,1.03,0,1.51v1.77c0,1.22,.01,2.42,.03,3.6,.02,1.18-.08,2.36-.29,3.54l-.07,.52c.13,.04,.24,.22,.33,.52,.26,.31,.59,.49,.98,.56,.39,.07,.76-.21,1.11-.82v-.98c.22-.04,.37-.05,.46-.03,.09,.02,.2,.08,.33,.16,.09-1.13,.15-2.23,.2-3.28,.04-1.05,.11-2.12,.2-3.21v3.21c0,1.05-.04,2.14-.13,3.28,.13,.04,.26,.04,.39,0,.13-.04,.24-.17,.33-.39,.17-.39,.22-1.05,.13-1.97-.09-.92-.11-1.7-.07-2.36,.26-1.83,.33-3.71,.2-5.63-.13-1.92-.2-3.82-.2-5.7-.04-1.31-.17-2.6-.39-3.87-.22-1.27-.46-2.56-.72-3.87-.48-1.79-.86-3.61-1.15-5.47-.28-1.86-.71-3.48-1.28-4.88-.09-.22-.19-.38-.29-.49-.11-.11-.19-.23-.23-.36-.52-.44-.94-.5-1.25-.2-.13,.13-.26,.33-.39,.59-.13,.26-.2,.59-.2,.98v1.05l-.52,.13c-.09-.22-.14-.4-.16-.56-.02-.15-.06-.29-.1-.43-.13-.26-.27-.4-.43-.43-.15-.02-.29,0-.43,.07s-.27,.13-.43,.2c-.15,.07-.29,.1-.43,.1,.13,.26,.2,.48,.2,.66,.09,.48,.16,.98,.23,1.51s.08,1.03,.03,1.51l.2,1.31c.52,2.23,.98,4.42,1.38,6.59,.39,2.16,.72,4.36,.98,6.58-.26-.04-.49-.07-.69-.07h-.56c-.79-.09-1.58-.12-2.39-.1-.81,.02-1.58,.08-2.33,.16-.39,0-.78,.01-1.15,.03-.37,.02-.75,.03-1.15,.03h5.24s-.07,.04-.07,.13l.07,.07c-.92,.26-1.83,.28-2.75,.07h-1.24c-.44,0-.85,.04-1.25,.13-.04,0-.1,.01-.16,.03-.07,.02-.14,.03-.23,.03v-.46h-1.51c.09-1.13,.12-2.27,.1-3.41-.02-1.13-.03-2.27-.03-3.41,0-.83,.04-1.69,.13-2.59,.09-.9,.17-1.77,.26-2.62,.09-.85,.15-1.68,.2-2.49,.04-.81,.02-1.56-.07-2.26,0-.3-.03-.55-.1-.72-.07-.17-.1-.33-.1-.46-.26-.39-.55-.54-.85-.46-.22,.04-.55,.28-.98,.72-.13,.22-.26,.45-.39,.69-.13,.24-.26,.49-.39,.75h-.52c.26-.79,.26-1.27,0-1.44-.09-.22-.27-.28-.56-.2-.28,.09-.54,.07-.75-.07,0,.13-.01,.27-.03,.43-.02,.15-.03,.32-.03,.49-.22,1.05-.48,2.01-.79,2.88l-.07,1.25c-.22,1.97-.34,3.84-.36,5.63-.02,1.79-.03,3.65-.03,5.57-.04,1.83-.04,3.67,0,5.5,.04,1.83,.13,3.69,.26,5.57-.13-2.4-.21-4.76-.23-7.08-.02-2.32,.01-4.67,.1-7.08,.09,.13,.2,.13,.33,0,.09,1.22,.11,2.42,.07,3.6-.04,1.18-.07,2.38-.07,3.6-.04,1.18-.05,2.36-.03,3.54,.02,1.18,.12,2.38,.29,3.6h-.46c.09,.87,.16,1.77,.23,2.69,.07,.92,.14,1.83,.23,2.75,.17,.74,.5,1.35,.98,1.83-.13-1.4-.24-2.77-.33-4.13-.09-1.35-.15-2.73-.2-4.13-.09-1.4-.15-2.78-.2-4.16-.04-1.38-.02-2.76,.07-4.16,0,1.22,.03,2.45,.1,3.67,.07,1.22,.1,2.4,.1,3.54,0,1.62,.09,3.18,.26,4.68,.17,1.51,.33,3.03,.46,4.55l.07,.46,.52,.52c.04,.13,.15,.2,.33,.2,.09,0,.15,.01,.2,.03,.04,.02,.11,.03,.2,.03h.33c.44-.09,.72-.44,.85-1.05l-.26-.98c.17-.04,.44-.07,.79-.07-.22-1.05-.36-2.07-.43-3.08-.07-1-.12-2.01-.16-3.01,.04,.87,.12,1.75,.23,2.62,.11,.87,.23,1.79,.36,2.75,.13,.22,.2,.46,.2,.72,.13,0,.26-.03,.39-.1,.13-.07,.2-.23,.2-.49,.04-.17,.04-.43,0-.75-.04-.33-.11-.68-.2-1.05-.09-.37-.16-.74-.23-1.11-.07-.37-.1-.71-.1-1.02,0-1-.01-2.03-.03-3.08-.02-1.05-.03-2.1-.03-3.15,.17,0,.4-.04,.69-.13,.28-.09,.53-.11,.75-.07h.07l.07,.13h.52c.61,.09,1.18,.12,1.7,.1,.52-.02,1,.05,1.44,.23,.92,.04,1.75,.04,2.49,0h.26c.31-.09,.62-.11,.95-.07,.33,.04,.62,.09,.88,.13Zm-10.62-1.96c-.22,2.01-.22,4.11,0,6.29-.13-1.05-.2-2.11-.2-3.18s.04-2.11,.13-3.11h.07Zm.59,16.51c-.09,.04-.21,.1-.36,.16-.15,.07-.29,.12-.43,.16l.13,.07c.09,.09,.2,.14,.33,.16,.13,.02,.24,.05,.33,.1v-.66Zm1.77-15.86h-.75c-.28,0-.56,.04-.82,.13v-.13h1.57Zm3.67-3.21c-.39,0-.81,.03-1.25,.1s-.9,.06-1.38-.03h-.52c-.13-.09-.31-.09-.52,0h-1.51v-.2c.26,.09,.52,.13,.79,.13h4.39Zm-3.14,16.51c-.04,.09-.18,.24-.39,.46,.04,.04,.07,.13,.07,.26s.02,.24,.07,.33h.26v-1.05Zm0-13.3c.48,0,.94,.01,1.38,.03,.44,.02,.85,.1,1.25,.23-.39-.09-.81-.15-1.25-.2-.44-.04-.9-.07-1.38-.07h0Zm6.42,3.93v-.33h-.52c-.09,.04-.17,.07-.26,.07v.26h.79Zm1.38-13.56c.52,1.83,.85,3.67,.98,5.5h-.13c-.18,0-.29-.02-.33-.07-.04-.87-.12-1.77-.23-2.69-.11-.92-.23-1.83-.36-2.75v.07l.07-.07Zm1.57,5.7c-.04-.13-.07-.27-.07-.43v-.36c0,.09,0,.21,.03,.36,.02,.15,.03,.29,.03,.43Zm3.47,.72c.09,1.35,.13,2.68,.13,3.96v3.9c-.09-1.31-.14-2.62-.16-3.93-.02-1.31-.01-2.62,.03-3.93Z"/><path class="f" d="M77.64,33.19c.09,.48,.16,1.05,.23,1.7s.16,1.33,.29,2.03c.26,1.35,.47,2.47,.62,3.34,.15,.87,.21,1.62,.16,2.23-.04,.74-.2,1.32-.46,1.74-.26,.42-.52,.73-.79,.95v.2c-.04,.87-.17,1.58-.39,2.13-.22,.55-.47,.98-.75,1.31-.29,.33-.6,.55-.95,.66-.35,.11-.68,.16-.98,.16-.92,0-1.63-.29-2.13-.88-.5-.59-.84-1.02-1.02-1.28,0-.04-.01-.07-.03-.07s-.03-.02-.03-.07c-.09-.22-.19-.43-.29-.62-.11-.2-.23-.4-.36-.62,0-.09-.02-.15-.07-.2-.22-.17-.38-.36-.49-.56-.11-.2-.21-.36-.29-.49-.04,0-.07-.02-.07-.07-.35,.04-.7,.09-1.05,.13-.35,.04-.74,.07-1.18,.07s-.76-.02-.98-.07c-.31-.04-.62-.07-.95-.07h-1.93c-.35,.87-1.03,1.35-2.03,1.44-.31,.04-.66,0-1.05-.13-.17,0-.44-.04-.79-.13-.35,.39-.7,.69-1.05,.88-.35,.2-.77,.29-1.25,.29-.74,0-1.4-.33-1.97-.98-.48-.52-.74-1.18-.79-1.96-.22-.09-.5-.31-.85-.66-.39-.48-.62-1.12-.69-1.93-.07-.81,.03-1.91,.29-3.31,.3-1.62,.7-3.3,1.18-5.05,.48-1.75,.96-3.49,1.44-5.24l1.57-5.57L62.57,3.9c.13-.48,.4-.86,.82-1.15,.42-.28,.86-.45,1.34-.49,.7-.04,1.4-.04,2.1,0,.22,0,.43-.01,.62-.03,.2-.02,.4-.01,.62,.03,.65,.13,1.18,.26,1.57,.39,.52,.13,1.14,.37,1.83,.72,.66,.39,1.05,.98,1.18,1.77l.07,.72,.26,.13c.74,.39,1.16,.98,1.25,1.77l2.23,15.66c.22,1.49,.43,3.07,.62,4.75,.2,1.68,.38,3.35,.56,5.01Zm-7.47,6.36c.22,.7,.46,1.35,.72,1.97-.04-.35-.08-.69-.1-1.02-.02-.33-.06-.67-.1-1.02h.33c.09,.35,.14,.69,.16,1.02,.02,.33,.05,.67,.1,1.02l.07,1.11c.09,.13,.19,.29,.29,.46,.11,.17,.21,.35,.29,.52,.44,.83,.83,1.18,1.18,1.05,.39-.09,.61-.72,.66-1.9l-.33-2.16c.09-.17,.2-.25,.33-.23,.13,.02,.26,.08,.39,.16l-.26-2.16c.09-.31,.04-.61-.13-.92l-.66-4.98-.66-5.24,.66,4.72,1.31,8.65c.17,.09,.3,.08,.39-.03,.09-.11,.15-.4,.2-.88,.04-.35,0-.88-.1-1.61-.11-.72-.24-1.51-.39-2.36-.15-.85-.31-1.71-.46-2.59-.15-.87-.27-1.64-.36-2.29-.09-.87-.19-1.78-.29-2.72-.11-.94-.21-1.84-.29-2.72l-.59-4.13-.26-2.49-.59-4.06-1.31-9.3c-.26-.09-.5-.19-.72-.29-.22-.11-.46-.21-.72-.29l-.07-.07c-.18-.04-.35-.09-.52-.13-.17-.04-.37-.07-.59-.07-.48,0-.95-.02-1.41-.07-.46-.04-.93-.04-1.41,0l-.39,1.18-3.08,11.86-.39,1.38-.33,1.44-.79,2.75-1.51,5.63c-.52,1.83-1,3.59-1.44,5.28-.44,1.68-.81,3.29-1.11,4.82-.44,2.19-.42,3.31,.07,3.38s1.11-.62,1.9-2.06c.04-.09,.09-.17,.13-.26,.04-.09,.09-.17,.13-.26,.09-.09,.13-.17,.13-.26,.04,.09,.08,.16,.1,.23,.02,.07,.08,.12,.16,.16,.04,.09,.17,.13,.39,.13-.13,.61-.16,.99-.1,1.15,.07,.15,.17,.23,.33,.23s.3-.02,.46-.07c.15-.04,.27,.02,.36,.2,.09-.3,.16-.59,.23-.85s.14-.52,.23-.79c.52,.09,1.04,.13,1.54,.13s1.04,.02,1.61,.07h.85c.26,0,.57,.02,.92,.07h.33c.3,.04,.59,.06,.85,.03,.26-.02,.5-.05,.72-.1,.26,0,.44-.02,.52-.07,.22-.04,.4-.08,.56-.1,.15-.02,.32-.05,.49-.1,.26-.04,.5-.08,.72-.1,.22-.02,.44-.03,.66-.03Zm-12.06,4.13c-.09,.13-.26,.28-.52,.46v.66c.13,.13,.3,.11,.52-.07v-1.05Zm.26-4.59l.13-.26c.09,0,.19,.01,.29,.03,.11,.02,.23,.03,.36,.03-.04,0-.07,.04-.07,.13-.31,0-.55,.02-.72,.07Zm2.29-.2c.09,0,.15,.01,.2,.03,.04,.02,.09,.03,.13,.03h-.33v-.07Zm.33,.07c.96-.09,1.81-.07,2.56,.07,.26,0,.57,.04,.92,.13-.13-.04-.27-.07-.43-.07s-.32-.02-.49-.07c-.48-.04-.93-.07-1.34-.07h-1.21Zm2.56-3.01c-.61,.09-1.18,.09-1.7,0h-.13v-.07c.3,0,.6-.01,.88-.03,.28-.02,.6-.03,.95-.03h1.21c-.15,0-.27,.02-.36,.07-.13,0-.27,.01-.43,.03-.15,.02-.29,.03-.43,.03Zm3.8-1.11c-.44,.18-.9,.29-1.38,.33-.48,.04-.96,.07-1.44,.07h-.98c-.57-.04-1.11-.04-1.64,0,0-.04,.01-.09,.03-.13,.02-.04,.03-.11,.03-.2,.26,.04,.52,.06,.79,.03,.26-.02,.52-.03,.79-.03h1.05c.44-.04,.85-.07,1.25-.07s.81-.04,1.25-.13h.2c0,.09,.02,.13,.07,.13Zm1.05-8.06c.22,1.27,.4,2.52,.56,3.77,.15,1.25,.32,2.48,.49,3.7-.22,.04-.42,.08-.59,.1-.18,.02-.37,.03-.59,.03-.22,.04-.42,.08-.59,.1-.17,.02-.35,.03-.52,.03-.44,.09-.85,.14-1.25,.16-.39,.02-.81,.05-1.25,.1-.17,0-.35,.01-.52,.03-.18,.02-.37,.03-.59,.03h-.79c-.26,0-.5,.02-.72,.07,.13-.44,.31-.89,.52-1.38l.79-2.55,.2-.72,2.1-7.67,.26-.98,.66-2.36,.07-.26,.07-.13v-.07l.13-.59,.26-.92,.13,.85v.66l.07,.52,.46,3.08,.59,4-.59-4.26-.39-2.88v-.46l-.07-.26-.07-.72v-.75c0-.24-.04-.47-.13-.69-.04,.22-.09,.45-.13,.69-.04,.24-.11,.47-.2,.69l-.07,.39c-.04-.09-.07-.17-.07-.26s-.02-.15-.07-.2c0-.09,.01-.2,.03-.33,.02-.13,.03-.26,.03-.39,.09-.44,.19-.85,.29-1.25,.11-.39,.21-.76,.29-1.11v.52c.04,.35,.08,.68,.1,.98,.02,.31,.05,.61,.1,.92l.13,1.18v.46l.07,.2v.13l.07,.46c0,.09,0,.2,.03,.33,.02,.13,.03,.26,.03,.39,.17,1.09,.35,2.17,.52,3.24,.17,1.07,.37,2.17,.59,3.31l-.46,.07Zm-2.75,15.66c-.26,0-.46-.02-.59-.07-.31-.04-.57-.07-.79-.07h-.72v.26h2.1v-.13Zm2.1-.13c-.09,.04-.26,.07-.52,.07v.33h.52v-.39Zm.79-22.41c.09,.44,.15,.86,.2,1.28,.04,.42,.09,.82,.13,1.21,.26,2.1,.51,4.12,.75,6.06,.24,1.94,.49,3.86,.75,5.73h-.2c-.26-2.27-.52-4.7-.79-7.27l-1.05-7.34-.52-3.93-.07-.39-.26-2.29,.26,1.77,.13,.66c.09,.44,.16,.88,.23,1.31,.07,.44,.12,.9,.16,1.38l.26,1.83Zm2.95-.46l.98,7.8c-.22-1.31-.4-2.62-.56-3.93-.15-1.31-.32-2.62-.49-3.93l-.79-5.57-.92-6.68,.13,.33,1.64,11.99Zm3.73,26.47c-.35,.48-.74,.79-1.18,.92,.52,.61,.92,.61,1.18,0v-.92Z"/><path class="f" d="M103.39,36.07c.09,2.1-.33,4.04-1.25,5.83-.44,.87-.95,1.67-1.54,2.39-.59,.72-1.28,1.39-2.06,2-1.31,1.13-2.8,2-4.46,2.59s-3.36,.88-5.11,.88h-.07c-.22,0-.56-.01-1.02-.03-.46-.02-.97-.08-1.54-.16-.35-.04-.72-.12-1.11-.23-.39-.11-.76-.23-1.11-.36h-.2c-.66-.26-1.27-.57-1.83-.92-.57-.35-1.09-.76-1.57-1.25-1.18-.92-2.08-2.05-2.69-3.41-.04-.13-.09-.24-.13-.33-.04-.09-.09-.17-.13-.26-.26-.35-.51-.69-.75-1.02-.24-.33-.49-.69-.75-1.08-.48-1.18-.83-2.49-1.05-3.93-.09-1.13-.02-2.36,.2-3.67,.04-.52,.26-.96,.66-1.31,.39-.35,.87-.57,1.44-.66h.43c.15,0,.29,.02,.43,.07,.31-.09,.59-.09,.85,0,.52-.52,1.03-.87,1.51-1.05,1.09-.48,2.07-.33,2.95,.46,.22,.13,.36,.27,.43,.43,.07,.15,.14,.27,.23,.36,.09,.22,.15,.39,.2,.52,.04,.13,.09,.26,.13,.39,.04,.17,.07,.35,.07,.52,.09,.04,.17,.1,.26,.16,.09,.07,.17,.12,.26,.16,.22,.22,.36,.39,.43,.52s.14,.22,.23,.26c.09,.22,.16,.42,.23,.59,.07,.17,.12,.33,.16,.46v1.51s.04,.07,.13,.07c.26,.09,.51,.14,.75,.16,.24,.02,.49,.03,.75,.03,.61-.09,1.18-.23,1.7-.43s.96-.49,1.31-.88c.13-.13,.24-.26,.33-.39,.09-.13,.17-.28,.26-.46,0-.09,.01-.14,.03-.16s.03-.05,.03-.1c-.26-.22-.55-.44-.85-.66-.31-.22-.63-.44-.98-.66-.26-.22-.52-.39-.79-.52-.26-.13-.57-.28-.92-.46l-.98-.39c-.22-.13-.44-.25-.66-.36s-.44-.23-.66-.36c-1.79-1-3.45-2.23-4.98-3.67-1.44-1.57-2.6-3.25-3.47-5.05-1.44-1.83-2.36-3.82-2.75-5.96-.44-1.88-.42-3.69,.07-5.44,.17-1,.49-1.94,.95-2.82,.46-.87,1.02-1.66,1.67-2.36,1.4-1.57,3.1-2.64,5.11-3.21,.48-.13,.96-.24,1.44-.33,.48-.09,.96-.13,1.44-.13h.13c.44,0,.83,.02,1.18,.07,.35,.04,.7,.09,1.05,.13,1.09,.18,2.04,.41,2.85,.69,.81,.28,1.58,.67,2.33,1.15,.44,.31,.83,.59,1.18,.85h.13l.59,.79,.26,.26c.04,.22,.11,.35,.2,.39,.22-.09,.39-.13,.52-.13h.46c1,0,1.79,.42,2.36,1.25,.26,.31,.42,.62,.46,.95,.04,.33,.07,.56,.07,.69,.48,.26,.83,.59,1.05,.98,.35,.35,.55,.68,.59,.98,.04,.31,.07,.55,.07,.72v.79c0,.31-.04,.52-.13,.66v.07c-.09,.09-.13,.35-.13,.79-.09,.44-.17,.93-.26,1.47-.09,.55-.15,1.19-.2,1.93,0,.04-.01,.08-.03,.1s-.03,.08-.03,.16c0,.17-.04,.28-.13,.33v.26c-.09,.79-.44,1.33-1.05,1.64-.09,.26-.26,.5-.52,.72-.26,.26-.49,.47-.69,.62-.2,.15-.41,.29-.62,.43-.26,.13-.52,.25-.79,.36-.26,.11-.5,.16-.72,.16,0,.04-.04,.07-.13,.07h-.39c.83,.57,1.55,1.18,2.16,1.83,.66,.57,1.22,1.16,1.7,1.77,.48,.61,.92,1.27,1.31,1.97,.22,.22,.38,.43,.49,.62,.11,.2,.21,.41,.29,.62,.22,.26,.39,.51,.52,.75,.13,.24,.28,.49,.46,.75,.96,1.7,1.55,3.52,1.77,5.44Zm-5.11,2.23c.74-1.44,1.07-3.06,.98-4.85-.09-.79-.25-1.54-.49-2.26-.24-.72-.54-1.41-.88-2.06-.35-.66-.76-1.25-1.25-1.77-.48-.52-.96-1-1.44-1.44-1.01-.92-2.04-1.71-3.11-2.39-1.07-.68-2.17-1.28-3.31-1.8-.96-.39-1.83-.86-2.62-1.41-.79-.55-1.51-1.15-2.16-1.8-.13-.13-.26-.28-.39-.46-.13-.17-.26-.35-.39-.52-.13-.17-.26-.36-.39-.56s-.26-.38-.39-.56c0-.09-.01-.15-.03-.2-.02-.04-.05-.11-.1-.2-.31-.66-.48-1.29-.52-1.9-.09-.79,0-1.52,.26-2.19,.26-.68,.63-1.26,1.11-1.74,.04-.04,.11-.09,.2-.13,.09-.04,.17-.11,.26-.2,.22-.09,.42-.15,.59-.2,.17-.04,.37-.09,.59-.13h1.25c.17,.04,.37,.07,.59,.07,.35,0,.59,.02,.72,.07-.13-.04-.37-.07-.72-.07-.13,0-.26-.01-.39-.03-.13-.02-.28-.03-.46-.03h-.85c-.26,0-.48,.02-.66,.07-.13,0-.25,.03-.36,.1s-.21,.12-.29,.16c-.57,.31-.98,.68-1.24,1.11-.57,.74-.81,1.66-.72,2.75,0,.48,.05,.93,.16,1.34,.11,.42,.27,.86,.49,1.34,.09,.09,.13,.17,.13,.26v.07c.22,.35,.52,.76,.92,1.25,.57,.7,1.21,1.33,1.93,1.9,.72,.57,1.52,1.09,2.39,1.57,.3,.13,.6,.26,.88,.39s.62,.28,1.02,.46c.35,.22,.7,.4,1.05,.56,.35,.15,.7,.34,1.05,.56,.66,.48,1.33,.96,2.03,1.44,.7,.48,1.35,1.03,1.97,1.64h-.23c-.07,0-.03,.09,.1,.26-.61-.61-1.26-1.15-1.93-1.61-.68-.46-1.37-.88-2.06-1.28-.35-.26-.7-.48-1.05-.66-.35-.17-.7-.35-1.05-.52-.39-.22-.75-.39-1.08-.52-.33-.13-.64-.28-.95-.46-.74-.39-1.43-.84-2.06-1.34-.63-.5-1.21-1.02-1.74-1.54-.22-.22-.4-.44-.56-.66-.15-.22-.32-.44-.49-.66-.09-.04-.13-.15-.13-.33-.18-.26-.29-.44-.33-.52-.17-.35-.32-.67-.43-.95-.11-.28-.21-.6-.29-.95,0-.22-.01-.41-.03-.59-.02-.17-.01-.37,.03-.59v-.92c.09-.39,.21-.76,.36-1.11,.15-.35,.29-.66,.43-.92,.44-.44,.92-.79,1.44-1.05,.17-.13,.46-.24,.85-.33,.17-.13,.37-.2,.59-.2h.98c.31,.04,.6,.09,.88,.13,.28,.04,.53,.09,.75,.13v.46c.3,.09,.53,.17,.69,.26,.15,.09,.29,.2,.43,.33,.09,0,.13,.01,.13,.03s.02,.03,.07,.03c0,.09,0,.11,0,.07s.02-.02,.07,.07l.2,.26c.09,.18,.17,.37,.26,.59,.09,.22,.17,.48,.26,.79,.17,.48,.29,1.09,.36,1.83,.07,.74,.14,1.64,.23,2.69,.13,.18,.32,.27,.56,.29,.24,.02,.49,.03,.75,.03,.3,0,.63-.02,.98-.07,.04,0,.07,.02,.07,.07,.26,.13,.44,.2,.52,.2h.26c.09-.04,.15-.09,.2-.13s.11-.09,.2-.13c.13-.04,.28-.14,.46-.29,.17-.15,.37-.32,.59-.49,.09-.09,.16-.16,.23-.23l.23-.23c.09-.09,.17-.2,.26-.33v-.26c0-.22,.04-.39,.13-.52,.04-.87,.09-1.62,.13-2.23,.04-.61,.13-1.11,.26-1.51,0-.26,.02-.47,.07-.62,.04-.15,.09-.32,.13-.49v-.13l.07-.07v-.26c0-.3-.04-.48-.13-.52-.09-.17-.31-.26-.66-.26-.22,.09-.43,.22-.62,.39s-.38,.39-.56,.66c-.04,.09-.09,.2-.13,.33-.04,.13-.09,.26-.13,.39-.09,.17-.15,.33-.2,.46-.04,.13-.09,.26-.13,.39-.04,.17-.09,.33-.13,.46,0-.09-.01-.28-.03-.59-.02-.31-.03-.59-.03-.85l-.07-.52c-.13-.57-.22-.85-.26-.85,0-.04-.02-.07-.07-.07s-.07,.02-.07,.07c0,.31-.02,.57-.07,.79,0-.13-.01-.26-.03-.39-.02-.13-.03-.26-.03-.39v-.2c-.09-.13-.13-.26-.13-.39s-.02-.26-.07-.39l-.07-.13c-.09-.09-.13-.17-.13-.26s-.02-.15-.07-.2l-.07-.07-.13-.2-.26-.26c-.13-.13-.27-.26-.43-.39-.15-.13-.32-.26-.49-.39-.96-.52-1.97-.89-3.01-1.11-.22-.09-.42-.14-.59-.16-.18-.02-.35-.03-.52-.03-.35-.09-.68-.13-.98-.13s-.63-.04-.98-.13c-.39,0-.79,.04-1.18,.13-.39,.09-.76,.17-1.11,.26-.79,.22-1.52,.55-2.19,.98-.68,.44-1.28,.94-1.8,1.51-.48,.57-.88,1.19-1.21,1.87-.33,.68-.6,1.37-.82,2.06l-.07,.07v.13c-.31,1.53-.31,3.04,0,4.52,.26,1.4,.76,2.68,1.51,3.83,.74,1.16,1.55,2.2,2.42,3.11,.31,.22,.52,.46,.66,.72,.39,.31,.78,.59,1.15,.85,.37,.26,.73,.52,1.08,.79,.26,.17,.52,.35,.79,.52,.26,.17,.52,.35,.79,.52h.07c.09,.04,.17,.09,.26,.13,.09,.04,.17,.09,.26,.13,.09,.04,.17,.1,.26,.16,.09,.07,.2,.1,.33,.1l.52,.26,.46,.26c.3,.17,.63,.35,.98,.52,.35,.17,.66,.37,.92,.59,.7,.39,1.42,.9,2.16,1.51,.26,.35,.57,.63,.92,.85,.48,.61,.87,1.25,1.18,1.9,.09,.22,.14,.39,.16,.52,.02,.13,.05,.26,.1,.39,.09,.48,0,1.11-.26,1.9-.04,.39-.22,.77-.52,1.11-.13,.13-.24,.26-.33,.39-.09,.13-.17,.24-.26,.33-.57,.52-1.25,.94-2.03,1.25-.79,.31-1.6,.5-2.42,.59h-.79c-.52,0-1.05-.07-1.57-.2-.74-.13-1.35-.39-1.83-.79h-.13c-.39-.35-.7-.7-.92-1.05-.17-.31-.28-.68-.33-1.11,0-.09-.01-.17-.03-.26-.02-.09-.03-.2-.03-.33-.09-.61-.13-1.12-.13-1.54s-.02-.75-.07-1.02c0-.04-.01-.08-.03-.1-.02-.02-.03-.05-.03-.1v-.07c-.09-.04-.13-.13-.13-.26-.13-.04-.31-.04-.52,0-.13,.04-.31,.19-.52,.43s-.39,.6-.52,1.08l-.07,.07c-.22,.48-.38,1.07-.49,1.77-.11,.7-.05,1.44,.16,2.23l-.46,.2c-.13-.44-.22-.83-.26-1.18-.04-.35-.11-.66-.2-.92v-1.38c0-.44-.04-.7-.13-.79,0-.09-.01-.14-.03-.16-.02-.02-.03-.05-.03-.1-.22-.09-.45-.05-.69,.1-.24,.15-.4,.12-.49-.1-.04,.17-.07,.33-.07,.46s-.02,.29-.07,.46v2.1c.09,.48,.2,.99,.33,1.54,.13,.55,.3,1.06,.52,1.54,.52,1.05,1.24,1.94,2.16,2.69,.22,.22,.5,.46,.85,.72l1.83,.92c.09,0,.15,.02,.2,.07s.11,.07,.2,.07c.22,.04,.47,.1,.75,.16,.28,.07,.58,.12,.88,.16,.09,0,.17,0,.26,.03,.09,.02,.17,.03,.26,.03,.3,.09,.58,.13,.82,.13h.56c1.57,0,2.99-.22,4.26-.66,.35-.13,.7-.27,1.05-.43,.35-.15,.7-.29,1.05-.43,.35-.17,.66-.35,.92-.52,.26-.17,.52-.37,.79-.59,.04-.13,.13-.2,.26-.2,.04-.04,.08-.09,.1-.13,.02-.04,.05-.09,.1-.13,.52-.44,1.02-.93,1.47-1.47,.46-.55,.84-1.15,1.15-1.8ZM84.78,5.4c-1,.09-1.97,.35-2.88,.79-.92,.44-1.7,1.03-2.36,1.77-.61,.74-1.09,1.57-1.44,2.49-.35,.92-.55,1.88-.59,2.88-.09,.92-.02,1.83,.2,2.75,.22,.92,.52,1.81,.92,2.69-.87-1.79-1.29-3.62-1.25-5.5,.13-2.01,.85-3.84,2.16-5.5,.66-.7,1.45-1.27,2.39-1.7,.94-.44,1.89-.66,2.85-.66h1.44c.22,0,.43,.02,.62,.07,.2,.04,.4,.09,.62,.13,.92,.04,1.86,.33,2.82,.85-.96-.52-1.92-.81-2.88-.85-.22-.04-.43-.09-.62-.13-.2-.04-.43-.07-.69-.07h-1.31Zm-1.7,13.7c.09,.09,.17,.17,.26,.26,.09,.09,.17,.17,.26,.26,.13,.26,.35,.5,.66,.72-.31-.22-.52-.46-.66-.72-.17-.04-.35-.2-.52-.46,0-.04-.02-.08-.07-.1-.04-.02-.09-.08-.13-.16-.22-.22-.42-.44-.59-.66-.17-.22-.35-.46-.52-.72-.18-.3-.31-.5-.39-.59-.22-.48-.4-.97-.56-1.47-.15-.5-.23-.99-.23-1.47-.09-1.35,.17-2.53,.79-3.54,0-.04,.02-.08,.07-.1,.04-.02,.09-.08,.13-.16,.57-.7,1.25-1.18,2.03-1.44,.09-.09,.2-.15,.33-.2,.17,0,.33-.01,.46-.03,.13-.02,.26-.03,.39-.03h.52c.17,0,.33,.02,.46,.07h.2c.35,0,.7,.02,1.05,.07,.35,.04,.66,.11,.92,.2,.7,.22,1.25,.5,1.64,.85l.07,.07s.02,.09,.07,.13h.07l.07,.07c0,.09,.02,.13,.07,.13,0,.04,.02,.07,.07,.07,.09,.13,.16,.29,.23,.49,.07,.2,.12,.38,.16,.56,.13,.44,.25,.92,.36,1.44,.11,.52,.21,1.16,.29,1.9l-.13,.07c-.13-1.05-.25-1.9-.36-2.56-.11-.66-.27-1.2-.49-1.64-.13-.13-.2-.22-.2-.26l-.07-.2h-.13s-.07-.02-.07-.07c-.04,0-.07-.02-.07-.07l-.07-.13c-.09-.04-.15-.1-.2-.16-.04-.07-.11-.12-.2-.16-.35-.17-.75-.33-1.21-.46-.46-.13-.95-.24-1.47-.33h-1.38c-.48,0-.9,.09-1.25,.26-.61,.22-1.14,.55-1.57,.98-.09,.04-.15,.11-.2,.2-.04,.09-.11,.15-.2,.2-.09,.09-.15,.18-.2,.26-.04,.09-.11,.17-.2,.26-.39,.74-.61,1.52-.66,2.33-.04,.81,.04,1.61,.26,2.39,.09,.26,.15,.49,.2,.69,.04,.2,.11,.4,.2,.62,.22,.39,.45,.75,.69,1.08,.24,.33,.51,.67,.82,1.02,.04,.04,.07,.09,.07,.13s.04,.09,.13,.13Zm2.16-6.81c.09,0,.26-.09,.52-.26-.22,0-.37-.04-.46-.13h-.07v.39Zm.52,.13c-.18,.04-.35,.13-.52,.26v.07c.09-.09,.17-.14,.26-.16,.09-.02,.17-.05,.26-.1v-.07Zm.52,2.42c-.17,.13-.33,.34-.46,.62s-.15,.62-.07,1.02c0,.17,.02,.33,.07,.46,.48,.44,1.02,.86,1.61,1.28,.59,.42,1.3,.8,2.13,1.15,0-.17-.02-.28-.07-.33-.44-.22-.81-.5-1.11-.85-.31-.35-.46-.74-.46-1.18-.04-.48-.09-.92-.13-1.31-.04-.39-.09-.74-.13-1.05h-1.05c-.17,0-.28,.07-.33,.2Zm.33-5.24c.35,0,.59,.02,.72,.07-.13-.04-.37-.07-.72-.07Zm5.05-2.1c-.04-.09-.1-.16-.16-.23-.07-.07-.14-.14-.23-.23-.22-.13-.39-.24-.52-.33-.13-.09-.28-.17-.46-.26,.17,.09,.33,.17,.46,.26,.13,.09,.31,.2,.52,.33,.09,.09,.16,.16,.23,.23,.07,.07,.12,.14,.16,.23,.09,0,.17,.07,.26,.2l.13,.07c.09,.09,.14,.16,.16,.23,.02,.07,.08,.16,.16,.29,.04,.04,.07,.11,.07,.2s.04,.17,.13,.26c.09,.13,.13,.27,.13,.43s.04,.29,.13,.43c.13,.48,.21,.96,.23,1.44,.02,.48,.05,.98,.1,1.51v.52c-.04-.66-.09-1.27-.13-1.83-.04-.57-.11-1.11-.2-1.64-.09-.17-.17-.44-.26-.79l-.26-.52c-.09-.13-.14-.23-.16-.29-.02-.07-.06-.14-.1-.23l-.13-.07c-.09-.13-.17-.2-.26-.2Zm1.83,38.27c-.35,.13-.7,.26-1.05,.39-.35,.13-.7,.26-1.05,.39v.52c.7-.04,1.4-.22,2.1-.52v-.79Zm-1.31-26.34s-.02-.07-.07-.07v.07h.07Zm3.01-.13c0-.13,.09-.26,.26-.39v-.07c-.09,.04-.14,.09-.16,.13-.02,.04-.05,.09-.1,.13v.2Zm.46-.2c-.13,0-.2,.02-.2,.07-.17,.13-.26,.22-.26,.26v.46c.13,0,.26-.07,.39-.2l.07-.07v-.52Zm0,25.42c-.09,.09-.16,.15-.23,.2-.07,.04-.14,.11-.23,.2v.85c.09,0,.16-.03,.23-.1s.14-.12,.23-.16v-.98Z"/><path class="f" d="M125.6,31.62c.7,1.14,1.07,2.62,1.11,4.46,.04,1.44-.09,2.82-.39,4.13-.44,1.79-1.29,3.36-2.56,4.72-.61,.74-1.38,1.39-2.29,1.93-.92,.55-1.88,.95-2.88,1.21-.44,.09-.87,.14-1.31,.16-.44,.02-.9,.03-1.38,.03s-.93-.01-1.34-.03c-.42-.02-.84-.08-1.28-.16-1.57-.31-3.12-.92-4.65-1.83-1.4-.74-2.69-1.75-3.87-3.01-.48-.52-.92-1.1-1.31-1.74-.39-.63-.74-1.28-1.05-1.93-.92-1.09-1.55-2.23-1.9-3.41-.17-.48-.32-.95-.43-1.41-.11-.46-.21-.95-.29-1.47-.04-.22-.07-.45-.07-.69v-.69c0-.13,0-.26,.03-.39,.02-.13,.03-.26,.03-.39l.07-.52c.26-2.4,1-4.48,2.23-6.22,.22-.35,.47-.69,.75-1.02,.28-.33,.58-.62,.88-.88-.04-.04-.07-.09-.07-.13s-.02-.09-.07-.13c-.09-.22-.2-.4-.33-.56-.13-.15-.24-.32-.33-.49-.35-.52-.7-1.14-1.05-1.83-.35-.7-.68-1.51-.98-2.42-.09-.48-.18-.96-.26-1.44-.09-.48-.15-.96-.2-1.44-.04-.57-.02-1.15,.07-1.74,.09-.59,.2-1.15,.33-1.67,.39-1.22,1.03-2.29,1.9-3.21,.35-.35,.71-.7,1.08-1.05,.37-.35,.8-.68,1.28-.98,.79-.48,1.56-.87,2.33-1.18,.76-.3,1.54-.54,2.33-.72,1.05-.22,2.12-.28,3.21-.2,1.09,.09,2.1,.33,3.01,.72,1.14,.48,2.07,1.08,2.82,1.8,.74,.72,1.33,1.39,1.77,2,.09,.13,.15,.24,.2,.33,.04,.09,.11,.18,.2,.26,.17-.04,.33-.08,.46-.1,.13-.02,.28-.03,.46-.03,.87,0,1.57,.33,2.1,.98,.31,.35,.49,.69,.56,1.02,.07,.33,.12,.58,.16,.75v.2c.35,.13,.63,.35,.85,.66,.3,.35,.49,.68,.56,.98,.07,.31,.12,.52,.16,.66,.04,.22,.07,.43,.07,.62v1.25c0,.15-.02,.34-.07,.56,0,.22-.02,.37-.07,.46,.04,.13,.07,.33,.07,.59,0,.61-.02,1.3-.07,2.06-.04,.76-.11,1.58-.2,2.46-.09,.48-.14,.93-.16,1.34-.02,.42-.08,.82-.16,1.21-.04,.39-.19,.76-.43,1.11-.24,.35-.56,.61-.95,.79-.35,.61-.87,1.14-1.57,1.57,.57,.22,1,.72,1.31,1.51,.13,.22,.24,.44,.33,.66,.09,.22,.17,.46,.26,.72,.17,.13,.35,.29,.52,.49,.17,.2,.33,.45,.46,.75Zm-23.46,1.44c.04,.79,.22,1.53,.52,2.23,.57,1.44,1.33,2.71,2.29,3.8,.48,.52,.99,.99,1.54,1.41,.54,.42,1.12,.82,1.74,1.21,.09,.09,.19,.14,.29,.16,.11,.02,.21,.08,.29,.16,.35,.17,.69,.33,1.02,.46,.33,.13,.69,.24,1.08,.33,.22,.04,.43,.09,.62,.13,.2,.04,.4,.09,.62,.13,.09,.04,.15,.07,.2,.07s.11,.02,.2,.07c.22,0,.39,.02,.52,.07,.57,.09,1.14,.12,1.7,.1,.57-.02,1.16-.12,1.77-.29,.66-.13,1.27-.33,1.83-.59,.44-.22,.82-.47,1.15-.75,.33-.28,.64-.6,.95-.95,0-.04,.02-.07,.07-.07,.7-.74,1.22-1.62,1.57-2.62,.09-.22,.14-.4,.16-.56,.02-.15,.08-.32,.16-.49,.09-.35,.13-.61,.13-.79,.17-.96,.24-1.86,.2-2.69-.04-.87-.14-1.59-.29-2.16-.15-.57-.29-1.03-.43-1.38-.31-.44-.59-.52-.85-.26-.13,.26-.26,.72-.39,1.38-.04,.13-.07,.26-.07,.39s-.02,.29-.07,.46c-.09,.39-.16,.82-.23,1.28-.07,.46-.16,.97-.29,1.54-.09,.13-.14,.29-.16,.46-.02,.17-.08,.37-.16,.59l-.39-.13c.17-.74,.25-1.35,.23-1.83-.02-.48-.05-.85-.1-1.11v-.39c-.13-.26-.26-.39-.39-.39-.17-.04-.36,.01-.56,.16-.2,.15-.38,.16-.56,.03,.04,.13,.07,.37,.07,.72,0,1.22-.15,2.23-.46,3.01-.17,.35-.31,.59-.39,.72-.09,.09-.16,.19-.23,.29-.07,.11-.12,.21-.16,.29-.35,.26-.74,.42-1.18,.46-.17,.09-.46,.17-.85,.26h-.98c-.61-.09-1.27-.25-1.97-.49-.7-.24-1.35-.6-1.97-1.08l-.79-.59c-.17-.17-.28-.31-.33-.39-.31-.35-.58-.7-.82-1.05-.24-.35-.4-.7-.49-1.05-.04-.17-.08-.32-.1-.43-.02-.11-.06-.23-.1-.36v-.39c0-.13,.02-.28,.07-.46,.04-.7,.22-1.38,.52-2.03,.17-.39,.48-.85,.92-1.38v-.07c.3-.3,.54-.52,.72-.66,.04,0,.16-.05,.36-.16,.2-.11,.4-.21,.62-.29,.09,0,.22-.04,.39-.13,.22-.04,.4-.08,.56-.1,.15-.02,.34-.05,.56-.1,.09-.22,.17-.41,.26-.59s.17-.35,.26-.52c.04-.13,.11-.28,.2-.46,.09-.13,.15-.24,.2-.33,.04-.09,.09-.17,.13-.26,.04-.04,.07-.08,.07-.1s.02-.05,.07-.1l.07-.07,.07-.26s.01-.11,.03-.2c.02-.09,.03-.17,.03-.26,.09-.22,.15-.44,.2-.66,.04-.22,.11-.52,.2-.92-.39-.35-.78-.71-1.15-1.08-.37-.37-.73-.75-1.08-1.15l-.52-.59-.26-.26-.52-.52s-.01-.07-.03-.07-.03-.02-.03-.07c-.18-.26-.33-.46-.46-.59-.09-.13-.19-.27-.29-.43-.11-.15-.21-.29-.29-.43-.17-.26-.28-.48-.33-.66l-.13-.13c-.52-.92-.81-1.7-.85-2.36-.04-.52,.04-.94,.26-1.25,.13-.17,.33-.37,.59-.59l.13-.13c.22-.22,.5-.39,.85-.52,.22-.13,.43-.23,.62-.29,.2-.07,.4-.14,.62-.23,.22-.04,.39-.08,.52-.1,.13-.02,.28-.03,.46-.03h.66c.09,.04,.17,.07,.26,.07s.17,.02,.26,.07c.13,0,.3,.07,.52,.2,.39,.22,.81,.72,1.25,1.51-.39-.74-.81-1.27-1.25-1.57-.09-.04-.17-.08-.26-.1-.09-.02-.17-.05-.26-.1-.09,0-.26-.04-.52-.13h-.72c-.22,0-.52,.07-.92,.2-.44,.04-.88,.2-1.31,.46-.17,.09-.33,.16-.46,.23s-.24,.14-.33,.23c-.35,.22-.63,.48-.85,.79-.22,.35-.31,.81-.26,1.38,.09,.74,.37,1.51,.85,2.29,.04,.09,.09,.18,.13,.26,.04,.09,.09,.17,.13,.26,.17,.35,.33,.61,.46,.79,.22,.31,.5,.68,.85,1.11l.46,.52,.13,.2,.13,.13,.59,.52c.57,.79,1.29,1.51,2.16,2.16-.09,.39-.15,.7-.2,.92-.04,.22-.09,.44-.13,.66,0,.09-.01,.17-.03,.26-.02,.09-.03,.15-.03,.2v.2s-.01,.07-.03,.07-.03,.02-.03,.07l-.07,.07c-.13,.13-.28,.35-.46,.66,0,.04-.01,.07-.03,.07s-.03,.02-.03,.07c-.09,.17-.2,.37-.33,.59-.13,.22-.26,.5-.39,.85-.13,0-.27,.01-.43,.03-.15,.02-.32,.03-.49,.03-.17,.09-.33,.13-.46,.13-.09,.04-.17,.09-.26,.13-.09,.04-.18,.09-.26,.13l-.26,.13s-.09,.07-.13,.07c-.13,.09-.26,.17-.39,.26s-.24,.17-.33,.26v-.2s-.04,.07-.13,.07c.09,0,.13-.04,.13-.13,.22-.22,.39-.37,.52-.46,.04-.04,.09-.07,.13-.07l.2-.13c.17-.13,.37-.2,.59-.2,.09-.04,.19-.09,.29-.13,.11-.04,.23-.07,.36-.07,.26-.09,.48-.13,.66-.13,.26-.61,.52-1.09,.79-1.44,.09-.09,.15-.17,.2-.26l.39-.39c.09,0,.13-.02,.13-.07v-.2c-.04-.09-.07-.24-.07-.46v-.72c0-.17,.02-.33,.07-.46v-.33l-.46-.46-.07-.07c-.31-.22-.57-.46-.79-.72-.22-.26-.48-.52-.79-.79l-.46-.52-.26-.26c-.09-.09-.15-.17-.2-.26-.04-.09-.11-.17-.2-.26l-.07-.07c-.44-.48-.76-.96-.98-1.44-.09-.22-.2-.4-.33-.56s-.24-.34-.33-.56c-.22-.39-.39-.81-.52-1.25-.13-.44-.22-.83-.26-1.18-.04-.35-.02-.64,.07-.88,.09-.24,.22-.47,.39-.69,.09-.09,.2-.2,.33-.33,.13-.13,.26-.24,.39-.33l.26-.13v-.07l.26-.13c.26-.17,.46-.28,.59-.33,.22-.09,.43-.16,.62-.23,.2-.07,.4-.12,.62-.16,.44-.13,.83-.2,1.18-.2h.46c.09,0,.17,.01,.26,.03,.09,.02,.17,.03,.26,.03,.22,.09,.5,.22,.85,.39,.48,.31,.98,.9,1.51,1.77l-.39,.2c.3,.48,.55,1.06,.72,1.74,.17,.68,.31,1.37,.39,2.06,.09,.74,.14,1.47,.16,2.2,.02,.72-.01,1.47-.1,2.26-.04,.48,.2,.93,.72,1.34,.52,.42,1,.67,1.44,.75,.09,0,.17,.01,.26,.03,.09,.02,.17,.03,.26,.03,.35,.04,.61-.09,.79-.39,.17-.3,.37-.57,.59-.79,.17-.17,.47-.27,.88-.29,.41-.02,.64-.14,.69-.36,.04-.39,.08-.82,.1-1.28,.02-.46,.08-.88,.16-1.28v-.07c.13-1.75,.2-3.21,.2-4.39-.04,.17-.08,.33-.1,.46-.02,.13-.05,.29-.1,.46-.22,.83-.42,1.71-.59,2.65-.18,.94-.33,1.87-.46,2.79v-1.9c.13-.79,.27-1.56,.43-2.33,.15-.76,.34-1.52,.56-2.26,.09-.17,.14-.34,.16-.49,.02-.15,.05-.29,.1-.43,.04-.22,.07-.42,.07-.59v-.52c0-.39-.02-.66-.07-.79,0-.3-.02-.5-.07-.59-.17-.09-.39-.09-.66,0-.35,.09-.76,.46-1.25,1.11l-.07,.07c0,.09-.04,.22-.13,.39l-.59-1.57c-.22-.48-.52-1.03-.92-1.64-.44-.57-.95-1.11-1.54-1.64-.59-.52-1.3-.96-2.13-1.31-.13-.09-.26-.14-.39-.16-.13-.02-.26-.08-.39-.16-1.22-.31-2.56-.33-4-.07-.74,.17-1.43,.42-2.06,.72-.63,.31-1.26,.63-1.87,.98-.31,.22-.61,.44-.92,.66-.31,.22-.63,.5-.98,.85-.26,.35-.49,.72-.69,1.11-.2,.39-.38,.81-.56,1.25l-.2,.79c-.13,.66-.17,1.25-.13,1.77,0,.48,.04,.91,.13,1.28,.09,.37,.17,.73,.26,1.08,.22,.74,.46,1.4,.72,1.97,.26,.57,.57,1.14,.92,1.7,.26,.44,.53,.85,.82,1.25,.28,.39,.58,.76,.88,1.11l.39,.52v.07h-.07l-.13,.13-.26,.2c-.22,.13-.39,.28-.52,.46-.22,.13-.4,.25-.56,.36-.15,.11-.32,.25-.49,.43-.18,.22-.35,.44-.52,.66-.17,.22-.33,.44-.46,.66-.31,.52-.58,1.06-.82,1.61-.24,.55-.43,1.12-.56,1.74-.17,.48-.31,1.07-.39,1.77l-.07,.46v1.18c0,.17,.02,.37,.07,.59Zm7.93-26.28c-.48,.09-.93,.22-1.34,.39-.42,.17-.82,.37-1.21,.59-.83,.35-1.62,.9-2.36,1.64-.35,.39-.67,.83-.95,1.31-.28,.48-.47,1.01-.56,1.57-.13,1.09-.11,2.12,.07,3.08-.09-.52-.14-1.05-.16-1.57-.02-.52,.01-1.05,.1-1.57,.22-1.13,.74-2.1,1.57-2.88,.22-.22,.42-.4,.59-.56,.17-.15,.35-.32,.52-.49,.35-.17,.57-.26,.66-.26,.26-.17,.46-.28,.59-.33,.87-.48,1.75-.83,2.62-1.05,1-.22,2.01-.26,3.01-.13,1,.22,1.92,.61,2.75,1.18,.52,.35,.98,.76,1.38,1.25,.39,.48,.74,1,1.05,1.57,.17,.22,.33,.5,.46,.85,.04,0,.07,.02,.07,.07,.09,.18,.17,.39,.26,.66-.04-.09-.09-.2-.13-.33-.04-.13-.09-.24-.13-.33,0-.04-.01-.07-.03-.07s-.03-.02-.03-.07c-.18-.35-.33-.59-.46-.72-.31-.57-.67-1.1-1.08-1.61-.42-.5-.91-.93-1.47-1.28-.87-.61-1.79-.98-2.75-1.11-1.09-.13-2.1-.07-3.01,.2Zm-1.25,11.53c-.39-.52-.75-1.07-1.08-1.64-.33-.57-.6-1.16-.82-1.77-.17-.57-.26-1.13-.26-1.7,0-.39,.15-.85,.46-1.38,.26-.39,.68-.76,1.25-1.11,.09-.04,.16-.08,.23-.1,.07-.02,.14-.08,.23-.16,.39-.26,.81-.46,1.25-.59,.09-.09,.2-.13,.33-.13s.24-.02,.33-.07c.7-.17,1.31-.24,1.83-.2,.09,.04,.17,.07,.26,.07s.17,.02,.26,.07c.09,0,.14,.01,.16,.03,.02,.02,.08,.03,.16,.03,.83,.35,1.53,.95,2.1,1.8,.57,.85,.98,1.78,1.25,2.79,.22,1,.37,2.1,.46,3.28,0,.13-.01,.29-.03,.46-.02,.17-.03,.35-.03,.52,0-1.75-.22-3.36-.66-4.85-.35-1.14-.9-2.07-1.64-2.82-.57-.61-1.16-.98-1.77-1.11-.26-.09-.44-.13-.52-.13h-.13c-.39-.04-.9,0-1.51,.13-.31,.09-.59,.19-.85,.29-.26,.11-.52,.23-.79,.36-.09,.04-.16,.09-.23,.13-.07,.04-.14,.09-.23,.13-.04,.04-.09,.07-.13,.07s-.09,.02-.13,.07c-.26,.13-.48,.29-.66,.46-.44,.39-.74,.74-.92,1.05-.31,.7-.26,1.66,.13,2.88,.17,.48,.42,.99,.72,1.54,.31,.55,.63,1.08,.98,1.61Zm1.77,12.25v-.16c0-.07-.07-.05-.2,.03,.09-.13,.26-.28,.52-.46v-.39h-.07c-.09,.04-.14,.09-.16,.13-.02,.04-.08,.09-.16,.13-.22,.22-.39,.48-.52,.79-.17,.48-.28,.94-.33,1.38v.13c.3-.61,.61-1.05,.92-1.31,.13-.13,.24-.22,.33-.26v-.26c-.09,.09-.15,.14-.2,.16s-.09,.06-.13,.1Zm-.39-16.97l.13,.39s.08-.07,.1-.07,.05-.02,.1-.07l.33-.2h.07v-.46s-.09,.07-.13,.07c-.22,.04-.42,.15-.59,.33Zm.26,.72c.09-.04,.16-.09,.23-.13,.07-.04,.14-.09,.23-.13v-.13c-.09,.09-.16,.14-.23,.16-.07,.02-.14,.08-.23,.16v.07Zm6.68,15.66c.31-.13,.63-.2,.98-.2,.26-.09,.48-.13,.66-.13,.13-.44,.28-.79,.46-1.05,.09-.09,.16-.19,.23-.29,.07-.11,.14-.23,.23-.36-.96-.22-1.79-.7-2.49-1.44,0,.13-.02,.22-.07,.26,0,.04-.01,.09-.03,.13s-.03,.11-.03,.2v.2s-.01,.08-.03,.1c-.02,.02-.03,.08-.03,.16-.09,.18-.15,.35-.2,.52-.04,.18-.11,.33-.2,.46-.09,.09-.17,.22-.26,.39-.09,.22-.19,.43-.29,.62-.11,.2-.23,.47-.36,.82-.39,.87-1.03,1.35-1.9,1.44-.22,.04-.5,.11-.85,.2-.09,.04-.17,.09-.26,.13-.09,.04-.15,.07-.2,.07-.17,.09-.31,.18-.39,.26-.18,.17-.33,.42-.46,.72-.17,.39-.29,.83-.33,1.31,.04,0,.07,.02,.07,.07,.44,.31,.9,.55,1.38,.72,.48,.17,.92,.31,1.31,.39h.46c.09-.04,.17-.07,.26-.07,.09-.04,.16-.08,.23-.1,.07-.02,.14-.05,.23-.1l.07-.07c.09-.09,.15-.2,.2-.33,.13-.31,.22-.7,.26-1.18,.04-.48,.04-1,0-1.57-.04-.48,.07-.93,.33-1.34,.26-.42,.61-.73,1.05-.95Zm-5.37-13.76c.04,.09,.07,.15,.07,.2s.02,.11,.07,.2c.04,.09,.13,.2,.26,.33l1.18,1.31c.09,.13,.2,.26,.33,.39s.24,.24,.33,.33v-1.08c0-.37-.04-.73-.13-1.08-.04-.26-.07-.49-.07-.69s-.04-.4-.13-.62c-.31,0-.72,.15-1.25,.46-.17,.09-.31,.14-.39,.16-.09,.02-.17,.05-.26,.1Zm.92-3.01s-.04,.07-.13,.07v.07s.08,0,.1-.03,.05-.03,.1-.03l-.07-.07Zm-.13,16.05c.17-.09,.35-.13,.52-.13v-.13c-.09,.04-.17,.08-.26,.1-.09,.02-.18,.06-.26,.1v.07Zm.52,.2c-.09,0-.17,.01-.26,.03-.09,.02-.18,.03-.26,.03v.13c.09,0,.26-.04,.52-.13v-.07Zm7.4,14.42c-.35,.22-.69,.43-1.02,.62-.33,.2-.69,.36-1.08,.49v.66c.39-.09,.75-.2,1.08-.33,.33-.13,.67-.31,1.02-.52v-.92Zm-.79-30.08c-.09-.26-.16-.53-.23-.82-.07-.28-.16-.58-.29-.88,.13,.35,.23,.66,.29,.92,.07,.26,.14,.52,.23,.79Zm.79,11.4c-.13,.04-.27,.08-.43,.1-.15,.02-.29,.05-.43,.1,.35,.17,.63,.29,.85,.33v-.52Zm1.97-1.44l.13-.2c-.17,.26-.33,.46-.46,.59v.98c.26-.26,.41-.52,.46-.79v-.59h-.13Zm.13,18.22c-.04,.09-.15,.22-.33,.39,0,.04-.04,.11-.13,.2v.92l.13-.13c.17-.26,.28-.41,.33-.46v-.92Z"/></g><g><path class="f" d="M150.13,9.95c.28,.19,.51,.4,.68,.63,.17,.24,.29,.45,.35,.63,.25,.63,.2,1.35-.14,2.16,0,.09-.05,.16-.14,.19-.03,.13-.11,.27-.24,.42-.03,.06-.06,.1-.09,.12-.03,.02-.05,.04-.05,.07-.03,.09-.09,.16-.19,.19-.56,.66-1.19,1.03-1.88,1.13h-.19l-.24,.09c0,.31,0,.63,.02,.94,.02,.31,.02,.64,.02,.99v1.48c0,.49,.03,.95,.09,1.39,.06,1,.12,2,.17,3.01s0,2-.12,3c-.06,.41-.1,.81-.12,1.22s-.04,.83-.07,1.27c-.06,.91-.15,1.84-.26,2.79-.11,.96-.26,1.87-.45,2.75-.03,.16-.06,.32-.07,.49-.02,.17-.02,.34-.02,.49-.06,.53-.13,1.03-.19,1.5-.06,.47-.22,.88-.47,1.22-.41,.66-.92,.99-1.55,.99-.34,.41-.7,.66-1.06,.77-.36,.11-.67,.16-.92,.16s-.59-.08-1.01-.23c-.42-.16-.82-.52-1.2-1.08-.03,0-.05-.02-.05-.05-.03-.03-.06-.08-.09-.14-.03-.13-.11-.27-.23-.42,0-.09-.02-.19-.05-.28-.06-.03-.11-.11-.14-.23v-.05c-.09-.09-.19-.2-.28-.33-.09-.12-.19-.25-.28-.38-.03-.03-.05-.06-.05-.09s-.02-.06-.05-.09h-.09c0-.16-.06-.3-.19-.42,0-.12-.02-.23-.05-.33-.09,0-.14-.06-.14-.19-.12-.38-.21-.74-.26-1.08-.05-.34-.04-.69,.02-1.03,0-.09,.02-.14,.05-.14,.09-.5,.18-1.03,.26-1.6s.15-1.16,.21-1.79v-.09c.12-1.1,.2-2.25,.23-3.45s.05-2.58,.05-4.11c0-1-.02-2.03-.05-3.08-.03-1.05-.08-2.12-.14-3.22-.69,.06-1.39,.11-2.09,.14-.7,.03-1.42,.06-2.14,.09h-.7c-.22,0-.42-.05-.61-.14-.16-.06-.33-.11-.52-.14-.19-.03-.38-.05-.56-.05h-.09c-.63,0-1.1-.22-1.41-.66-.16-.19-.26-.4-.31-.63-.05-.23-.07-.45-.07-.63v-.14c-.19-.03-.34-.09-.45-.19-.11-.09-.23-.22-.35-.38-.25-.41-.36-.8-.33-1.17,0-.12-.02-.27-.05-.45s-.02-.37,.05-.59c-.31-.53-.47-1.03-.47-1.5,0-.53,.17-1.02,.52-1.46s.8-.74,1.36-.89c.53-.16,1.04-.26,1.53-.3,.49-.05,.99-.07,1.53-.07h1.03c.34,0,.66-.02,.94-.05l.19-.05c.47-.06,.94-.11,1.41-.14,.47-.03,.97-.05,1.5-.05h.84c.19,.03,.37,.05,.54,.05h1.76c.25,0,.5,0,.75-.02,.25-.02,.47-.02,.66-.02,.25,0,.48,0,.7,.02,.22,.02,.42,.02,.61,.02,.06,0,.14-.02,.23-.05,.09-.03,.17-.08,.24-.14,.22-.03,.41-.06,.59-.09,.17-.03,.34-.05,.49-.05,.34,0,.69,.11,1.03,.33,.56,.25,.94,.67,1.13,1.27,.28,.19,.51,.39,.68,.61s.29,.42,.35,.61c.03,.16,.05,.28,.07,.38,.02,.09,.02,.2,.02,.33Zm-10.89,2.44c.19-.06,.38-.09,.59-.09s.4-.02,.59-.05h.94c0,.22-.02,.45-.07,.7-.05,.25-.09,.52-.12,.8l.05,.89c.03,1.38,.07,2.71,.12,3.99,.05,1.28,.07,2.55,.07,3.8,0,1.31,0,2.61-.02,3.87-.02,1.27-.09,2.56-.21,3.88,.19-1.69,.31-3.33,.35-4.91,.05-1.58,.05-3.22,.02-4.91h.09c.12,.85,.19,1.68,.19,2.51s-.03,1.66-.09,2.49c-.06,.83-.12,1.65-.19,2.46-.06,.81-.09,1.63-.09,2.44h-.38c-.03,.63-.09,1.24-.16,1.83-.08,.6-.18,1.17-.31,1.74-.06,.25-.06,.49,0,.7,.06,.22,.12,.42,.19,.61,.28-.84,.5-1.74,.66-2.68,.16-.94,.28-1.88,.38-2.82,.09-.94,.17-1.89,.24-2.84,.06-.95,.11-1.9,.14-2.84v2.49c0,.88-.08,1.69-.23,2.44-.13,1.13-.24,2.22-.35,3.26-.11,1.05-.31,2.04-.59,2.98l-.14,.33c.06,.06,.11,.12,.14,.19,.03,.06,.08,.14,.14,.24,.16,.25,.35,.42,.59,.52,.24,.09,.51-.08,.82-.52l.19-.61c.06-.06,.14-.08,.24-.05,.09,.03,.19,.06,.28,.09,.19-.72,.34-1.45,.47-2.18,.12-.74,.24-1.51,.33-2.32-.06,.81-.14,1.6-.24,2.35-.09,.75-.23,1.52-.42,2.3,.12,.03,.24,.03,.33,0s.19-.12,.28-.28c.09-.09,.16-.27,.21-.52,.05-.25,.09-.52,.12-.82s.05-.59,.07-.89c.02-.3,.05-.57,.12-.82,.06-.31,.11-.61,.14-.89,.03-.28,.08-.58,.14-.89,.16-1,.26-2.03,.31-3.08,.05-1.05,.12-2.07,.21-3.08,.09-.91,.13-1.83,.12-2.77s-.05-1.86-.12-2.77c-.12-1.13-.18-2.28-.16-3.45,.02-1.17-.06-2.25-.21-3.22l1.36-.14h.75c.06-.03,.12-.06,.19-.09,.06-.03,.14-.06,.23-.09,.12-.03,.25-.14,.38-.33v-.05h-2.96v-.05c.41,0,.88-.05,1.41-.14h1.74c.06-.09,.11-.16,.14-.21,.03-.05,.08-.1,.14-.16,.09-.25,.12-.51,.09-.78-.03-.27-.22-.46-.56-.59l-.42,.05c-.09-.12-.14-.31-.14-.56-.47,.06-.93,.11-1.39,.14-.45,.03-.92,.05-1.38,.05,.47-.03,.93-.07,1.38-.12s.92-.1,1.39-.16v-.28c0-.12-.06-.19-.19-.19-.19-.09-.48-.09-.87,.02-.39,.11-.71,.16-.96,.16-.85-.09-1.71-.11-2.61-.05-.89,.06-1.75,.06-2.56,0-.59-.06-1.18-.06-1.76,0-.58,.06-1.17,.13-1.76,.19-.82,.12-1.66,.17-2.54,.14-.88-.03-1.64,.05-2.3,.23-.28,.09-.47,.24-.56,.42-.09,.19-.09,.38,0,.56,.16,.44,.53,.75,1.13,.94v.38c-.31-.03-.52-.02-.61,.05-.09,.06-.14,.16-.14,.28s0,.27,.02,.42c.02,.16,0,.28-.02,.38,.28,0,.56,0,.85,.02,.28,.02,.56,.07,.84,.16,.06,0,.09,0,.09,.02,0,.02,.02,.02,.05,.02h.61c.63-.03,1.24-.06,1.85-.09,.61-.03,1.2-.08,1.76-.14h.82c.27,0,.52-.02,.78-.05Zm0,1.88h-.09v-.14h-.73c-.24,0-.49,.02-.78,.05v.33c.28-.03,.56-.06,.82-.09,.27-.03,.52-.05,.78-.05v-.09Zm1.55-2.16c-.19,0-.31,.03-.38,.09-.19,0-.38,0-.59,.02-.2,.02-.4,.02-.59,.02-.25,0-.49,0-.71,.02s-.45,.02-.7,.02c0-.03,.02-.05,.05-.05s.02-.02-.05-.05c.25-.06,.49-.11,.7-.14,.22-.03,.45-.08,.71-.14,.19-.03,.38-.05,.59-.05h1.53v.23h-.56Zm-.38-.61c.06,0,.12,0,.19-.02,.06-.02,.12-.02,.19-.02,.09,0,.19-.02,.28-.05s.19-.05,.28-.05v.14h-.94Zm.47-2.44c.63,0,1.24,.02,1.83,.05s1.21,.02,1.83-.05c-1.25,.12-2.47,.12-3.66,0Zm2.16,2.3c-.09,0-.19,.02-.28,.05s-.17,.05-.23,.05c-.03-.03-.05-.06-.05-.09v-.05h.61s-.05,.02-.05,.05Zm-.52,.52h.38v.09s-.02,.06-.05,.09h-.33v-.19Zm1.55,18.97c.09-.91,.19-1.82,.28-2.75s.22-1.84,.38-2.75c-.09,.94-.19,1.86-.28,2.77-.09,.91-.22,1.82-.38,2.72Zm1.22,6.34c.09-.09,.15-.24,.16-.45,.02-.2,.04-.43,.07-.68,0,.03,0,.05-.02,.05s-.02,.02-.02,.05c-.16,.28-.38,.52-.66,.7v.56c.06,0,.13,0,.21-.02,.08-.01,.16-.09,.26-.21Zm2.58-23.81c-.06,.03-.13,.06-.19,.09-.06,.03-.13,.05-.19,.05v.28l.38-.05v-.38Z"/><path class="f" d="M167.6,30.99c.06,.97,.11,1.99,.14,3.05s-.02,2.11-.14,3.15v1.03c.03,.63,.05,1.15,.05,1.57s-.08,.81-.23,1.15c-.31,.69-.8,1.13-1.46,1.32-.34,.59-.73,.96-1.15,1.1-.42,.14-.74,.21-.96,.21-.25,0-.56-.07-.94-.21-.38-.14-.74-.43-1.08-.87-.03-.03-.08-.09-.14-.19l-.05-.05c-.06-.06-.1-.12-.12-.17s-.04-.13-.07-.26l-.19-.19c-.06-.06-.1-.12-.12-.16-.02-.05-.04-.09-.07-.12,0-.13-.06-.31-.19-.56-.06-.03-.11-.06-.14-.09-.03-.03-.08-.08-.14-.14,0-.03,0-.05-.02-.05-.02,0-.02-.02-.02-.05v-.05l-.05-.05c-.06-.06-.11-.13-.14-.21-.03-.08-.08-.17-.14-.26-.03-.06-.05-.09-.07-.09-.02,0-.02-.03-.02-.09s-.02-.11-.05-.14c-.03-.03-.06-.08-.09-.14-.19-.34-.32-.7-.4-1.06-.08-.36-.12-.73-.12-1.1v-.09c.06-.56,.1-1.16,.12-1.78,.02-.63,0-1.25-.02-1.88v-.19c0-.53-.02-1.09-.05-1.67-.03-.58-.06-1.15-.09-1.71-.12,.06-.25,.09-.38,.09h-.38c-.25,0-.48-.01-.68-.05-.2-.03-.42-.06-.63-.09-.38-.12-.86-.19-1.46-.19,0,.44,.02,.88,.05,1.31,.03,.44,.05,.88,.05,1.32s0,.88,.02,1.34c.02,.45,.02,.9,.02,1.34,0,.06,.02,.22,.07,.47,.05,.25,.09,.45,.12,.61,.06,.44,.12,.84,.17,1.2s.04,.71-.02,1.06c-.16,.63-.5,1.11-1.03,1.46-.22,.69-.55,1.17-.99,1.46-.44,.28-.88,.42-1.32,.42-.28,0-.56-.06-.82-.19-.27-.12-.54-.28-.82-.47-.06,0-.09-.02-.09-.05-.09-.09-.18-.16-.26-.21-.08-.05-.17-.12-.26-.21-.03-.06-.06-.11-.09-.14-.03-.03-.05-.08-.05-.14-.06,0-.16-.06-.28-.19-.34-.44-.64-1-.89-1.69h-.05c-.09-.03-.16-.11-.19-.23-.53-.59-.88-1.28-1.03-2.07v-.05l-.05-.09c-.09-.66-.16-1.31-.19-1.95-.03-.64-.08-1.34-.14-2.09v-.14c-.09-1.35-.16-2.7-.19-4.06s-.05-2.79-.05-4.3,.03-2.9,.09-4.27,.16-2.72,.28-4.04v-.94c0-.19,.05-.36,.14-.52,.25-.69,.44-1.47,.56-2.35,.03-.34,.13-.64,.31-.89,.17-.25,.41-.42,.73-.52,.34-.16,.7-.2,1.08-.14,.22,0,.39,0,.52,.02s.27,.05,.42,.12c.12-.09,.24-.17,.35-.23,.11-.06,.24-.11,.4-.14,.09-.03,.2-.05,.31-.05h.3c.09,0,.24,.02,.45,.05,.2,.03,.43,.12,.68,.26,.25,.14,.48,.36,.7,.66,.22,.3,.39,.73,.52,1.29,.25,.16,.49,.42,.73,.77,.24,.36,.38,.9,.45,1.62,.03,.6,.02,1.21-.05,1.86-.06,.64-.11,1.29-.14,1.95-.03,.47-.07,.93-.12,1.39-.05,.45-.07,.88-.07,1.29,.28,0,.59,0,.92-.02,.33-.01,.65-.02,.96-.02-.09-.5-.19-1.02-.28-1.55-.09-.53-.2-1.08-.33-1.64l-.19-.99v-.47c0-.72-.09-1.5-.28-2.35-.09-.28-.09-.57,.02-.87,.11-.3,.26-.55,.45-.77,.31-.25,.64-.42,.99-.52,.12,0,.27-.02,.45-.05,.17-.03,.34-.08,.49-.14,.16-.22,.33-.38,.52-.47,.41-.41,.86-.61,1.36-.61,.31,0,.7,.12,1.17,.38,.47,.25,.92,.83,1.36,1.74,0,.03,.03,.17,.09,.42,.19,.16,.37,.35,.54,.59,.17,.23,.34,.52,.49,.87,.31,.75,.55,1.57,.7,2.47s.31,1.79,.47,2.7c.09,.53,.19,1.03,.28,1.48s.17,.9,.23,1.34c.22,.94,.42,1.96,.59,3.05,.17,1.1,.26,2.19,.26,3.29,.06,.44,.09,.85,.09,1.25v1.29Zm-6.86-4.65c.31,2.29,.5,4.6,.56,6.95,0-1.16-.04-2.32-.12-3.48-.08-1.16-.18-2.3-.31-3.43h.24c.16,1.19,.24,2.36,.26,3.52,.02,1.16,.1,2.35,.26,3.57h-.33c0,.63-.02,1.28-.05,1.95s-.08,1.32-.14,1.95c0,.25,.05,.49,.14,.71,.09,.22,.17,.44,.23,.66,.38-1.97,.53-3.98,.47-6.01-.06-2.03-.17-4.04-.33-6.01,.09,.81,.19,1.68,.28,2.61,.09,.92,.12,1.79,.09,2.61-.06,1.22-.09,2.4-.07,3.52s-.05,2.22-.21,3.29v.33l.14,.21s.05,.1,.05,.16c.25,.28,.51,.45,.78,.52,.27,.06,.49-.16,.68-.66l.09-.75c.12-.06,.23-.09,.31-.07,.08,.02,.16,.05,.26,.12,0-.28,0-.55,.02-.8s.02-.52,.02-.8c.06-.53,.1-1.08,.12-1.64,.01-.56,.02-1.11,.02-1.64,.03,1.69,.03,3.35,0,4.98,.06,.03,.14,.03,.23,0,.09-.03,.17-.14,.23-.33,.06-.12,.1-.32,.12-.59,.01-.27,.01-.56,0-.87-.02-.31-.03-.63-.05-.94-.02-.31,0-.59,.02-.85,.12-1.41,.16-2.83,.09-4.27-.06-1.44-.13-2.83-.19-4.18,0-.88-.06-1.71-.19-2.51-.12-.8-.27-1.6-.42-2.42-.03-.16-.06-.32-.09-.49s-.06-.35-.09-.54c-.28-1.38-.53-2.76-.75-4.16-.22-1.39-.53-2.62-.94-3.69-.06-.16-.13-.29-.19-.4-.06-.11-.12-.21-.19-.31-.34-.28-.59-.34-.75-.19-.31,.19-.5,.59-.56,1.22,0,.09-.02,.21-.05,.35s-.05,.29-.05,.45l-.28,.14c0-.19-.02-.36-.07-.52-.05-.16-.09-.27-.12-.33-.09-.19-.19-.3-.28-.33s-.19-.02-.28,.02c-.09,.05-.2,.09-.33,.14-.13,.05-.25,.07-.38,.07,.03,.06,.05,.15,.05,.26s.03,.21,.09,.3c.09,.38,.17,.75,.21,1.13,.05,.38,.04,.77-.02,1.17l.19,.94c.22,.94,.39,1.84,.52,2.7s.27,1.73,.42,2.61h-.89c-.53-.03-1.05-.04-1.55-.02s-1,.05-1.5,.12c-.47,.03-.94,.05-1.41,.05s-.94,.02-1.41,.05v-2.72c-.03-.66-.02-1.32,.05-1.97,.06-.66,.12-1.31,.19-1.95,.06-.64,.11-1.26,.14-1.85,.03-.59,.03-1.16,0-1.69,0-.19-.02-.34-.07-.47-.05-.12-.09-.27-.12-.42-.16-.19-.38-.27-.66-.23-.22,.03-.42,.22-.61,.56-.09,.12-.2,.27-.31,.45-.11,.17-.2,.38-.26,.63h-.38c.09-.34,.13-.59,.12-.75-.02-.16-.05-.28-.12-.38-.06-.16-.2-.2-.42-.14-.22,.06-.41,.02-.56-.14v.75c-.16,.78-.34,1.5-.56,2.16l-.09,.94c-.16,1.41-.26,2.79-.31,4.13-.05,1.35-.07,2.69-.07,4.04s0,2.79,.02,4.13,.07,2.71,.17,4.08c-.09-1.78-.13-3.53-.12-5.24,.02-1.71,.04-3.45,.07-5.24,.06,.16,.14,.16,.23,0,.06,.91,.09,1.8,.09,2.68s-.03,1.77-.09,2.68c0,.84,0,1.71-.02,2.61-.02,.89,.05,1.78,.21,2.65l-.38,.05c.09,.63,.17,1.27,.23,1.92,.06,.66,.14,1.33,.24,2.02,.03,.28,.11,.53,.23,.75s.25,.41,.38,.56c-.09-1-.16-2-.19-3.01s-.08-2.02-.14-3.05c-.06-1-.11-2-.14-3-.03-1-.02-2,.05-3.01,.03,.88,.07,1.77,.12,2.68s.04,1.77-.02,2.58c0,1.19,.07,2.33,.21,3.43,.14,1.1,.26,2.21,.35,3.33v.42c.19,.13,.31,.24,.38,.33,.06,.03,.11,.05,.14,.05s.08,.03,.14,.09c.25,.12,.48,.14,.68,.05,.2-.09,.37-.36,.49-.8l-.19-.66s.09-.05,.19-.05c.03-.03,.11-.05,.23-.05-.03-.44-.08-.9-.14-1.39-.06-.49-.09-.99-.09-1.53,0-.5-.05-1.03-.14-1.6,.09,.44,.14,.85,.14,1.22,.03,.44,.08,.87,.14,1.29,.06,.42,.14,.87,.23,1.34,0,.16,0,.27,.02,.35s.02,.2,.02,.35c.16,0,.27-.02,.35-.07,.08-.05,.12-.16,.12-.35,.03-.12,.03-.31,0-.54-.03-.24-.07-.49-.12-.78-.05-.28-.1-.57-.16-.87-.06-.3-.09-.56-.09-.78,.03-1.13,.02-2.29-.02-3.5-.05-1.21-.04-2.37,.02-3.5,.56,.06,1.12,.09,1.67,.07,.55-.02,1.09,.02,1.62,.12,.12,.03,.28,.05,.47,.05,.28,.03,.55,.04,.8,.02,.25-.01,.5-.02,.75-.02h.3c.11,0,.24-.01,.4-.05h.73c.08,0,.15,.02,.21,.05h.61Zm-8.08,.05c-.19,1.88-.24,3.73-.14,5.54-.09-.94-.13-1.87-.12-2.79s.1-1.84,.26-2.75Zm.38,13.06c-.22,.06-.34,.12-.38,.19v.19s.09,0,.16,.02c.08,.02,.15,.02,.21,.02v-.42Zm.24-16.3c.56,0,1.12-.01,1.67-.05,.55-.03,1.09-.02,1.62,.05-.38,0-.78,.02-1.22,.07-.44,.05-.88,.02-1.32-.07h-.75Zm0,2.25c.47-.06,.92-.07,1.36-.02,.44,.05,.86,.12,1.27,.21-.41-.09-.83-.15-1.27-.16s-.89-.02-1.36-.02Zm5.07-2.82c-.44,.09-.86,.15-1.27,.17-.41,.02-.82,0-1.24-.02-.42-.03-.84-.05-1.25-.05s-.81,.05-1.22,.14v-.33h3.87c.36,0,.73-.02,1.1-.05,0,.03-.02,.05-.05,.05v.09h.05Zm.14,5.5h-1.55c.16,0,.3,.02,.42,.05,.12,.03,.25,.06,.38,.09h.75v-.14Zm6.2,12.4c-.09,.16-.19,.3-.28,.42s-.2,.22-.33,.28v.66c.12-.06,.24-.13,.33-.19s.19-.2,.28-.42v-.75Zm-.47-6.76c0-.97-.02-1.95-.05-2.93s-.02-1.96,.05-2.94c0,1,0,2,.02,2.98,.01,.99,0,1.95-.02,2.89Zm1.03,6.48c-.13,.06-.27,.09-.42,.09-.03,.03-.05,.06-.05,.09v.05c.09-.03,.17-.04,.23-.02,.06,.02,.14,.04,.24,.07v-.28Zm.38-.33s-.06,.07-.09,.12-.08,.09-.14,.12v.47c.06,0,.11,0,.14,.02s.06,.02,.09,.02v-.75Z"/><path class="f" d="M183.05,29.53c.06,.09,.12,.2,.16,.31,.05,.11,.09,.21,.12,.31,.12,.31,.2,.73,.23,1.24s-.05,1.18-.23,2c-.09,.41-.2,.79-.33,1.15-.13,.36-.28,.71-.47,1.06-.22,.5-.47,.93-.75,1.29-.28,.36-.6,.71-.94,1.06-.31,.28-.71,.59-1.2,.92-.49,.33-1.09,.6-1.81,.82-.69,.25-1.42,.38-2.21,.38-.16,0-.34,0-.56-.02-.22-.02-.44-.04-.66-.07-.28-.06-.54-.12-.78-.19-.23-.06-.51-.14-.82-.24-.63-.25-1.21-.55-1.74-.89-.44-.31-.83-.65-1.17-1.01-.34-.36-.69-.76-1.03-1.2-.44-.69-.78-1.3-1.03-1.83-.03,0-.05-.03-.05-.09-.56-.81-1.01-1.6-1.34-2.35-.33-.75-.6-1.47-.82-2.16-.34-1.03-.59-2.1-.75-3.22-.16-1.11-.25-2.21-.28-3.31,0-2.57,.41-4.85,1.22-6.86,.44-.94,.92-1.75,1.46-2.44,.81-1.13,1.78-1.91,2.91-2.35,.59-.22,1.16-.38,1.69-.49,.53-.11,1.06-.16,1.6-.16h.09c.34,.03,.7,.07,1.06,.12,.36,.05,.68,.13,.96,.26,.34,.16,.68,.32,1.01,.49,.33,.17,.62,.37,.87,.59,.94,.72,1.61,1.64,2.02,2.77,.53,.59,.96,1.28,1.27,2.07,.34,.94,.56,1.9,.66,2.87,.16,1.85-.09,3.6-.75,5.26-.06,.16-.13,.34-.21,.54-.08,.2-.18,.43-.3,.68h.19c.25,0,.47,.05,.66,.14h.09c.38,.16,.66,.39,.85,.7,.09,.09,.16,.2,.21,.3,.05,.11,.1,.23,.17,.35,.06,.25,.11,.45,.14,.61,.09,.06,.2,.14,.3,.24s.21,.22,.31,.38Zm-15.83,0c.25,.63,.52,1.28,.8,1.97,.28,.69,.64,1.36,1.08,2.02,.25,.34,.52,.68,.8,1.01,.28,.33,.63,.62,1.03,.87,.03,0,.08,.03,.14,.09,.31,.22,.71,.42,1.17,.61,.06,.03,.12,.05,.19,.05s.12,.02,.19,.05c.34,.16,.66,.25,.94,.28h.19c.09,.03,.22,.05,.38,.05,.34,.03,.7,.03,1.06,0,.36-.03,.71-.12,1.06-.28,.59-.22,1.17-.53,1.74-.94,.12-.06,.24-.13,.33-.21s.17-.15,.23-.21c.22-.19,.4-.38,.54-.59,.14-.2,.27-.4,.4-.59,.06-.16,.13-.28,.21-.38,.08-.09,.15-.2,.21-.33,.31-.63,.55-1.25,.7-1.88,.16-.56,.22-1.02,.19-1.38-.03-.36-.08-.65-.14-.87v-.05c-.06-.12-.09-.2-.09-.23-.06-.06-.11-.09-.14-.09-.09-.06-.2-.03-.33,.09-.09,.09-.19,.23-.28,.42-.09,.19-.22,.41-.38,.66-.12,.28-.28,.6-.47,.96-.19,.36-.42,.74-.7,1.15l-.33-.14c.25-.38,.41-.7,.47-.99,.06-.28,.11-.5,.14-.66,0-.19-.03-.31-.09-.38v-.05s-.06-.01-.09-.05c-.12-.06-.27-.07-.42-.02s-.28,.02-.38-.07c-.06,.25-.13,.49-.19,.73-.06,.23-.16,.48-.28,.73-.13,.25-.24,.44-.33,.56-.44,.59-.89,.94-1.36,1.03-.06,.06-.17,.09-.33,.09-.03,.03-.06,.05-.09,.05-.13,.03-.3,.05-.52,.05-.16,0-.36-.03-.61-.09l-.19-.05s-.06-.02-.09-.05l-.19-.09c-.13-.06-.25-.14-.38-.24-.13-.09-.25-.22-.38-.38-.09-.09-.16-.17-.19-.24-.28-.31-.54-.69-.78-1.13-.23-.44-.43-.88-.59-1.31l-.14-.42c-.06-.16-.11-.33-.14-.52-.03-.19-.08-.36-.14-.52,.06,0,.12,0,.19,.02,.06,.02,.14,.02,.23,.02,.22,0,.41-.02,.56-.05h.33c.06-.03,.13-.05,.21-.05s.15-.02,.21-.05c.06,0,.11-.02,.14-.05,.16,.06,.19,.22,.09,.47,.88-.25,1.63-.64,2.25-1.17,.66-.59,1.19-1.24,1.6-1.92,.44-.69,.78-1.41,1.03-2.16,.22-.78,.38-1.61,.47-2.49-.03,.81-.17,1.64-.42,2.49-.22,.75-.56,1.5-1.03,2.25-.22,.34-.46,.68-.73,1.01-.27,.33-.56,.65-.87,.96-.13,.12-.25,.23-.38,.3-.13,.08-.27,.16-.42,.26-.12,.09-.25,.16-.38,.19-.16,.09-.34,.18-.54,.26-.2,.08-.4,.15-.59,.21h-.05c-.03,.09-.02,.17,.05,.23,.09,.09,.36,.09,.8,0,.03,0,.14-.03,.33-.09,.06-.03,.12-.05,.19-.07,.06-.02,.12-.05,.19-.12,.12-.03,.3-.12,.52-.28,.47-.22,.96-.66,1.46-1.31,.25-.28,.47-.57,.66-.87,.19-.3,.36-.6,.52-.92,.16-.31,.29-.6,.4-.87,.11-.27,.21-.52,.3-.78v-.05c.56-1.35,.77-2.83,.61-4.46,0-.06,0-.13-.02-.21-.02-.08-.02-.16-.02-.26v-.09c-.09-.53-.27-1.16-.52-1.88l-.05-.09c-.16-.34-.35-.71-.59-1.08-.23-.38-.56-.72-.96-1.03-.44-.34-.89-.61-1.36-.8-.03-.03-.06-.05-.09-.05-.03,0-.08-.02-.14-.05-.41-.12-.83-.19-1.27-.19-.53-.03-1.02,0-1.46,.12-.44,.11-.86,.24-1.27,.4-.53,.22-.98,.49-1.34,.8-.36,.31-.68,.64-.96,.99-.25,.34-.47,.69-.66,1.03-.19,.34-.36,.72-.52,1.13-.06,.22-.13,.42-.21,.59-.08,.17-.15,.37-.21,.59-.25,.81-.42,1.64-.52,2.49-.09,.85-.14,1.68-.14,2.49,.03,1,.12,2.01,.26,3.03,.14,1.02,.37,2.03,.68,3.03Zm10.43-12.3c.28,.94,.39,1.94,.33,3.01,.03-.5,.02-1.01-.05-1.53s-.17-1.03-.33-1.53c-.06-.28-.14-.56-.24-.82-.09-.27-.22-.49-.38-.68-.28-.5-.69-.97-1.22-1.41-.47-.38-1.02-.61-1.64-.7-.31-.06-.62-.09-.92-.07s-.59,.05-.87,.12c-.16,.03-.3,.06-.42,.09-.13,.03-.27,.06-.42,.09-.06,.03-.12,.05-.19,.07-.06,.02-.13,.04-.19,.07s-.13,.06-.21,.09-.16,.06-.26,.09c-.28,.13-.53,.28-.75,.47-.22,.19-.44,.39-.66,.61,.22-.22,.44-.42,.66-.61,.22-.19,.49-.36,.8-.52,.06-.03,.14-.06,.23-.09s.17-.06,.23-.09c.09-.03,.24-.08,.42-.14,.12-.03,.25-.06,.38-.09,.12-.03,.27-.06,.42-.09,.28-.06,.57-.09,.87-.09s.6,.03,.92,.09c.59,.09,1.16,.34,1.69,.75,.25,.19,.48,.4,.68,.63,.2,.23,.38,.48,.54,.73,.16,.22,.27,.45,.35,.7,.08,.25,.15,.53,.21,.85Zm-7.51,8.31s-.06-.06-.09-.09-.05,.02-.05,.14c-.16-.81-.24-1.61-.26-2.4-.02-.78,.02-1.56,.12-2.35,.16-.81,.34-1.53,.56-2.16,.19-.47,.41-.88,.66-1.22,.06-.09,.12-.18,.19-.26,.06-.08,.12-.15,.19-.21,.22-.25,.41-.42,.56-.52,.03,0,.06,0,.09-.02s.06-.02,.09-.02l.19-.09c.06,0,.1,0,.12-.02,.02-.01,.05-.02,.12-.02,.03-.03,.06-.05,.09-.05s.08-.02,.14-.05c.38-.03,.67-.03,.89,0,.06,.03,.12,.05,.19,.05s.12,.03,.19,.09h.05c.34,.19,.64,.6,.89,1.22,.12,.28,.21,.59,.26,.94,.05,.35,.09,.69,.12,1.03l-.28,.05c.03,.38,0,.86-.09,1.46l-.14,.71c-.06,.09-.11,.19-.14,.28s-.08,.2-.14,.33l-.14,.42c-.19,.38-.41,.71-.66,1.01-.25,.3-.5,.56-.75,.78l-.09,.09c-.44,.41-.88,.75-1.32,1.03,.44-.03,.88-.17,1.32-.42h.05c.06-.06,.14-.12,.23-.16,.09-.05,.19-.1,.28-.16,.5-.44,.97-1.03,1.41-1.79,.06-.09,.11-.18,.14-.26s.08-.17,.14-.26c.03-.06,.05-.12,.05-.16s.02-.1,.05-.16,.05-.11,.05-.14c0-.03,.01-.08,.05-.14,.03-.16,.06-.34,.09-.54,.03-.2,.08-.41,.14-.63,.06-.44,.09-.86,.07-1.27s-.05-.81-.12-1.22c-.06-.41-.16-.8-.28-1.17s-.31-.69-.56-.94c-.09-.09-.2-.16-.3-.21-.11-.05-.23-.1-.35-.17-.19-.06-.31-.09-.38-.09-.19-.06-.41-.06-.66,0-.12,0-.28,.03-.47,.09-.12,.03-.24,.06-.35,.09-.11,.03-.21,.06-.31,.09-.25,.09-.53,.3-.85,.61l-.05,.05c-.47,.63-.84,1.33-1.13,2.11,.19-.66,.5-1.31,.94-1.97,.03-.06,.09-.14,.19-.23,.12-.16,.31-.31,.56-.47,.03-.06,.08-.09,.14-.09s.12-.03,.19-.09c.09-.03,.19-.06,.28-.09,.09-.03,.17-.06,.23-.09h.14c.47-.09,.85-.12,1.13-.09,.09,.03,.22,.05,.38,.05,.03,.03,.06,.05,.09,.05s.06,.02,.09,.05c.53,.25,.89,.71,1.08,1.36,.16,.44,.27,.89,.33,1.36,.06,.47,.09,.94,.09,1.41-.03,.25-.05,.49-.07,.73-.02,.23-.05,.48-.12,.73-.06,.31-.13,.53-.19,.66,0,.13-.02,.24-.05,.33l-.09,.33c-.41,.91-.89,1.63-1.46,2.16-.31,.31-.64,.55-.99,.7-.34,.16-.72,.27-1.13,.33h-.33s-.08,.05-.14,.05h-.05c-.13,.06-.24,.12-.33,.16s-.19,.09-.28,.12c-.06,.03-.12,.08-.19,.14-.16-.81-.24-1.62-.26-2.42-.02-.8,0-1.57,.07-2.33,.06-.63,.15-1.21,.26-1.76,.11-.55,.27-1.06,.49-1.53,.03-.06,.05-.11,.05-.14s.02-.06,.05-.09c.22-.41,.42-.72,.61-.94,.06-.06,.13-.12,.21-.19,.08-.06,.15-.12,.21-.19,.06-.06,.12-.09,.19-.09,0-.03,.01-.05,.05-.05,.03,0,.06-.02,.09-.05,.06,0,.11-.02,.14-.05h.05c.47-.16,.81-.2,1.03-.14h.09c.19,.06,.31,.12,.38,.19,.03,.03,.06,.05,.09,.07,.03,.02,.06,.04,.09,.07,.22,.25,.42,.63,.61,1.13,.16,.41,.23,.89,.23,1.46,0-.66-.12-1.27-.38-1.83-.19-.44-.41-.77-.66-.99-.03,0-.06-.02-.09-.05-.13-.06-.22-.09-.28-.09-.22-.06-.53-.05-.94,.05-.03,0-.06,0-.09,.02s-.06,.02-.09,.02c-.06,.03-.11,.05-.14,.05s-.06,.02-.09,.05l-.14,.05h-.05s-.05,.05-.07,.05-.04,.02-.07,.05c-.16,.09-.31,.25-.47,.47-.09,.09-.19,.2-.28,.33s-.17,.25-.24,.38c-.06,.16-.13,.31-.21,.47-.08,.16-.15,.31-.21,.47-.13,.34-.23,.69-.31,1.03-.08,.34-.15,.7-.21,1.08-.19,1.47-.19,3.01,0,4.6Zm2.11-5.59c-.03,.13-.08,.34-.14,.66l.14-.42c.09-.22,.22-.44,.38-.66v-.19c-.19,.25-.31,.45-.38,.61Zm.38-.42v-.19c-.19,.25-.31,.45-.38,.61-.03,.13-.08,.34-.14,.66l.14-.42c.09-.22,.22-.44,.38-.66Zm-.05-.52l.05-.05v-.05s-.05,.06-.05,.09Zm.05-.09s-.05,.06-.05,.09c0-.03,.02-.05,.05-.05v-.05Zm1.5,11.04c-.06,0-.12,0-.16,.02-.05,.02-.1,.02-.17,.02-.03,.06-.03,.13,0,.19s.14,.09,.33,.09v-.33Zm4.65-4.41c-.13,.22-.25,.43-.38,.63-.12,.2-.27,.42-.42,.63v.71c.09-.16,.19-.3,.28-.42s.17-.27,.23-.42c.16-.34,.29-.66,.4-.94,.11-.28,.23-.55,.35-.8,.03-.16,.06-.31,.09-.45s.08-.29,.14-.45v-.23c-.09,.25-.2,.52-.3,.82-.11,.3-.24,.6-.4,.92Zm.7,10.8c-.16,.16-.36,.32-.61,.49-.25,.17-.55,.32-.89,.45v.61c.28-.12,.55-.26,.8-.4,.25-.14,.49-.29,.7-.45v-.71Zm1.55-1.88c-.06,.12-.19,.31-.38,.56v.66c.06-.12,.12-.23,.19-.3,.06-.08,.12-.18,.19-.31v-.61Z"/></g><g><path class="f" d="M218.35,13.4c1.35,2.1,2.41,4.27,3.18,6.52,.76,2.25,1.21,4.53,1.34,6.85,.09,.92,.13,1.81,.13,2.69s-.02,1.75-.07,2.62c-.22,2.14-.5,3.98-.85,5.5-.74,2.58-1.81,4.57-3.21,5.96-.88,1-1.88,1.77-3.01,2.29-1.14,.61-2.29,1-3.47,1.18-1.01,.22-2.1,.33-3.28,.33-.35,0-.69-.01-1.02-.03-.33-.02-.64-.06-.95-.1-.35-.04-.98-.15-1.9-.33-.92-.17-1.7-.48-2.36-.92-.22-.13-.52-.36-.92-.69-.39-.33-.66-.84-.79-1.54v-.26h-.07c-.61-.48-1.05-.97-1.31-1.47-.26-.5-.42-.95-.46-1.34-.57-.48-.96-.95-1.18-1.41-.22-.46-.35-.87-.39-1.25-.04-.37-.02-.7,.07-.98,.09-.28,.17-.49,.26-.62,.09-.09,.13-.15,.13-.2s.02-.11,.07-.2c-.04-.13-.07-.33-.07-.59l-.2-.2-.26-.26c-.83-.79-1.25-1.64-1.25-2.56v-.2c.04-.52,.07-1.05,.07-1.57v-1.77c.04-1.53,.02-3.05-.07-4.55-.09-1.51-.17-3.02-.26-4.55-.04-.79-.09-1.59-.13-2.42-.04-.83-.09-1.66-.13-2.49v-.92c-.04-.26,0-.55,.13-.85,.13-.3,.2-.7,.2-1.18-.79,.09-1.46-.13-2.03-.66-.04,0-.07,0-.07-.03s-.02-.03-.07-.03c-.09-.09-.22-.23-.39-.43-.17-.2-.3-.47-.39-.82v-.13c-.04-.17-.07-.41-.07-.72-.26-.13-.46-.26-.59-.39,0-.04-.01-.07-.03-.07s-.03-.02-.03-.07c-.09-.09-.22-.23-.39-.43-.17-.2-.31-.47-.39-.82v-.13c-.13-.3-.15-.68-.07-1.11,.04-.7,.31-1.42,.79-2.16,.13-.35,.38-.72,.75-1.11,.37-.39,.88-.79,1.54-1.18,.48-.39,1.04-.71,1.67-.95,.63-.24,1.3-.4,2-.49,1.14-.22,2.27-.22,3.41,0,1.92,.35,3.82,1.07,5.7,2.16,2.88,1.62,5.63,4.06,8.26,7.34,.48,.61,.92,1.24,1.31,1.87,.39,.63,.76,1.26,1.11,1.87Zm-24.24-6.95v.26s.07,.08,.07,.1,.02,.06,.07,.1c.09,.04,.24,.07,.46,.07,.17-.09,.38-.22,.62-.39,.24-.17,.53-.37,.88-.59,.79-.44,1.7-.66,2.75-.66l.07,.46c-.48,.04-.84,.14-1.08,.29-.24,.15-.43,.29-.56,.43-.22,.22-.24,.42-.07,.59,.13,.13,.28,.24,.46,.33,.17,.13,.31,.26,.39,.39,.17-.26,.48-.41,.92-.46h.52c.52,0,1.05,.13,1.57,.39,.09,.04,.19,.09,.29,.13,.11,.04,.21,.09,.29,.13,.13,.04,.27,.09,.43,.13,.15,.04,.34,.11,.56,.2,.17,.13,.35,.22,.52,.26,.04,0,.08,.01,.1,.03,.02,.02,.05,.03,.1,.03,1.92,1.05,3.65,2.45,5.18,4.19,.13,.17,.27,.34,.43,.49,.15,.15,.29,.34,.43,.56,.48,.7,.89,1.33,1.25,1.9,.48,.88,.93,1.77,1.34,2.69,.42,.92,.75,1.88,1.02,2.88,.39,1.27,.67,2.6,.82,4,.15,1.4,.19,2.8,.1,4.19-.09,1.49-.31,2.77-.65,3.87-.09,.22-.18,.44-.26,.66-.09,.22-.17,.44-.26,.66-.35,.61-.74,1.14-1.18,1.57,.22-.22,.42-.45,.59-.69,.17-.24,.35-.51,.52-.82,.39-.66,.7-1.44,.92-2.36,.22-.79,.36-1.62,.43-2.49s.1-1.79,.1-2.75c-.04-1.75-.27-3.47-.69-5.18-.42-1.7-1.06-3.36-1.93-4.98,.09,0,.15,.01,.2,.03,.04,.02,.04-.03,0-.16,.22,.31,.39,.61,.52,.92,.22,.35,.39,.7,.52,1.05,.61,1.35,1.04,2.74,1.28,4.16,.24,1.42,.34,2.85,.29,4.29,0,1-.03,1.94-.1,2.82-.07,.87-.21,1.73-.43,2.56-.35,1.49-.9,2.69-1.64,3.6-.09,.13-.22,.29-.39,.46l-.26-.33c-.7,.66-1.55,1.01-2.56,1.05h-1.31c-.74,0-1.4-.09-1.97-.26-.48-.09-.96-.15-1.44-.2-.48-.04-.92-.07-1.31-.07,.87,.44,1.78,.79,2.72,1.05,.94,.26,1.87,.37,2.78,.33,1.88,0,3.38-.72,4.52-2.16,.57-.7,.98-1.54,1.25-2.52,.26-.98,.46-1.98,.59-2.98,.13-1.09,.19-2.18,.16-3.28-.02-1.09-.1-2.18-.23-3.28,.13,.92,.23,1.85,.29,2.79s.05,1.91-.03,2.92c-.04,1.01-.16,1.94-.36,2.82s-.49,1.66-.88,2.36c-.57,1.09-1.25,1.92-2.03,2.49-.66,.52-1.55,.85-2.69,.98-1,.13-2.04,.09-3.11-.13-1.07-.22-2.11-.55-3.11-.98-.09-.09-.2-.15-.33-.2-.13-.04-.24-.11-.33-.2l-.85,.07c-.26,.04-.5,.1-.72,.16s-.37,.16-.46,.29c-.26,.35,0,.85,.79,1.51,.22,.17,.52,.33,.92,.46,.17,.09,.37,.15,.59,.2,.09,.22,0,.42-.26,.59,.09,.04,.17,.08,.26,.1,.09,.02,.17,.05,.26,.1,.09,.04,.26,.11,.52,.2,.7,.22,1.42,.4,2.16,.56,.74,.15,1.48,.25,2.23,.29h.98c.31,0,.62-.02,.95-.07,.33-.04,.67-.11,1.02-.2h.13c.74-.22,1.42-.5,2.03-.85h.07c.09-.09,.18-.14,.29-.16,.11-.02,.21-.08,.29-.16-.09,.09-.19,.14-.29,.16-.11,.02-.21,.08-.29,.16-.7,.39-1.4,.68-2.1,.85-.04,.04-.09,.07-.13,.07-.35,.09-.69,.16-1.02,.23-.33,.07-.64,.1-.95,.1-.22,.04-.57,.07-1.05,.07-.74-.04-1.47-.14-2.2-.29-.72-.15-1.43-.34-2.13-.56-.26-.09-.44-.15-.52-.2-.13-.04-.25-.08-.36-.1-.11-.02-.23-.05-.36-.1-.09,.09-.12,.21-.1,.36,.02,.15,.23,.34,.62,.56,.04,0,.08,.01,.1,.03,.02,.02,.05,.03,.1,.03,.09,.13,.26,.24,.52,.33,.57,.26,1.44,.46,2.62,.59,.44,.09,.88,.13,1.34,.13s.93-.02,1.41-.07c.35-.04,.67-.08,.95-.1,.28-.02,.58-.08,.88-.16h.26c.61-.13,1.13-.31,1.57-.52,.17-.13,.35-.22,.52-.26l.39-.2c.48-.22,.91-.48,1.28-.79,.37-.3,.73-.63,1.08-.98,.7-.74,1.25-1.54,1.67-2.39,.41-.85,.75-1.71,1.02-2.59v-.07c.26-.87,.45-1.72,.56-2.56,.11-.83,.21-1.66,.29-2.49,.04-1.7,.04-3.38,0-5.05-.09-.74-.2-1.51-.33-2.29-.13-.79-.31-1.59-.52-2.42-.48-1.53-1.06-3.01-1.74-4.46-.68-1.44-1.5-2.77-2.46-4-1.05-1.31-2.2-2.56-3.44-3.73-1.25-1.18-2.63-2.21-4.16-3.08-.61-.35-1.25-.67-1.9-.95-.66-.28-1.35-.49-2.1-.62-.17,0-.48-.04-.92-.13-.79-.13-1.68-.13-2.69,0-.44,.09-.9,.2-1.38,.33-.48,.13-.96,.31-1.44,.52-.66,.52-1.16,1.07-1.51,1.64-.17,.22-.28,.44-.33,.66-.04,.22-.09,.42-.13,.59v.13Zm4.98,13.43c.17,.74,.28,1.5,.33,2.26,.04,.77,.04,1.52,0,2.26-.04,.74-.08,1.5-.1,2.26-.02,.76,.03,1.54,.16,2.33h-.46c0,.52-.01,1.07-.03,1.64-.02,.57-.05,1.11-.1,1.64,.04,.39,.24,.76,.59,1.11,.35-1.66,.51-3.36,.49-5.11-.02-1.75-.01-3.47,.03-5.18,.04,.7,.09,1.44,.13,2.23,.04,.79,.02,1.55-.07,2.29-.09,1.05-.11,2.05-.07,3.01,.04,.96,0,1.88-.13,2.75l-.07,.33c.17,.17,.31,.29,.39,.33,.09,.09,.16,.14,.23,.16,.07,.02,.14,.06,.23,.1,.13,.04,.31,.07,.52,.07,.35,0,.66-.2,.92-.59l-.07-.66c.22-.04,.46-.04,.72,0h.07c.04-.61,.07-1.25,.07-1.93s.02-1.34,.07-2l.07,3.93s.13,.07,.26,.07c.13-.04,.26-.15,.39-.33,.17-.22,.21-.6,.1-1.15-.11-.55-.14-1.04-.1-1.47,.22-1.18,.3-2.37,.26-3.57-.04-1.2,0-2.37,.13-3.51,.09-.83,.1-1.65,.03-2.46-.07-.81-.14-1.63-.23-2.46-.17-1.14-.23-2.3-.16-3.51,.07-1.2-.03-2.24-.29-3.11-.26-.79-.7-1.07-1.31-.85-.61,.22-1.03,.76-1.25,1.64h-.52c.04-.44,0-.72-.1-.85-.11-.13-.24-.2-.39-.2s-.34,.02-.56,.07c-.22,.04-.39,.04-.52,0,0,.44-.02,.85-.07,1.25-.04,.39-.15,.79-.33,1.18l.07,.92c.09,2.4,.21,4.75,.36,7.04,.15,2.29,.23,4.64,.23,7.04,.09-1.53,.12-3.02,.1-4.49-.02-1.46-.1-2.94-.23-4.42,.13,0,.2-.02,.2-.07Zm4.19,4.39c-.09,.83-.15,1.64-.2,2.42-.04,.79-.09,1.62-.13,2.49,0-.87,.02-1.71,.07-2.52,.04-.81,.13-1.63,.26-2.46v.07Zm7.67-2.29c-.22-.61-.45-1.22-.69-1.83-.24-.61-.49-1.18-.75-1.7-.09-.09-.14-.16-.16-.23-.02-.07-.08-.14-.16-.23-.52-.74-1.05-1.38-1.57-1.9,0,.31,0,.6,.03,.88,.02,.28,.03,.58,.03,.88v1.38c0,.44,.04,.88,.13,1.31,.09,.88,.16,1.76,.23,2.65,.07,.9,.05,1.82-.03,2.79-.04,.48-.08,.96-.1,1.44-.02,.48-.03,1-.03,1.57,0,.66-.02,1.33-.07,2.03-.04,.7-.11,1.38-.2,2.03v.33c0,.13,.02,.24,.07,.33,0,.22,0,.46,.03,.72,.02,.26,.03,.5,.03,.72,.44,.09,.79,.09,1.05,0,.48-.04,.89-.17,1.24-.39v-.07l.07-.07c.48-.39,.85-1,1.11-1.83,.09-.44,.17-.94,.26-1.51,.09-.57,.13-1.16,.13-1.77,.13-2.84-.09-5.35-.66-7.54Zm-.2,22.47c-.35,.09-.7,.14-1.05,.16-.35,.02-.7,.05-1.05,.1v.26h1.05c.35,0,.7-.02,1.05-.07v-.46Zm2.1-.59c-.09,.04-.18,.08-.26,.1-.09,.02-.17,.05-.26,.1v.59c.09,0,.17-.01,.26-.03,.09-.02,.17-.03,.26-.03v-.72Zm3.21-6.55c-.35,.52-.74,1.03-1.18,1.51-.44,.48-.92,.9-1.44,1.25,.52-.35,.99-.78,1.41-1.28,.42-.5,.8-1.02,1.15-1.54,.35-.52,.62-1.07,.82-1.64,.2-.57,.4-1.14,.62-1.7,.22-.79,.39-1.57,.52-2.36,.13-.79,.24-1.57,.33-2.36,.04-.35,.07-.69,.07-1.02s.02-.67,.07-1.02c-.04,.39-.07,.8-.07,1.21s-.02,.8-.07,1.15c-.13,1.62-.42,3.1-.85,4.46-.18,.57-.36,1.14-.56,1.7-.2,.57-.47,1.11-.82,1.64Zm3.93-.33c.04-.22,.09-.4,.13-.56,.04-.15,.09-.34,.13-.56-.52,1.53-1.18,2.84-1.97,3.93v.92c.39-.57,.73-1.18,1.02-1.83,.28-.66,.51-1.29,.69-1.9Z"/><path class="f" d="M244.75,31.62c.7,1.14,1.07,2.62,1.11,4.46,.04,1.44-.09,2.82-.39,4.13-.44,1.79-1.29,3.36-2.56,4.72-.61,.74-1.38,1.39-2.29,1.93-.92,.55-1.88,.95-2.88,1.21-.44,.09-.87,.14-1.31,.16-.44,.02-.9,.03-1.38,.03s-.93-.01-1.34-.03c-.42-.02-.84-.08-1.28-.16-1.57-.31-3.12-.92-4.65-1.83-1.4-.74-2.69-1.75-3.87-3.01-.48-.52-.92-1.1-1.31-1.74-.39-.63-.74-1.28-1.05-1.93-.92-1.09-1.55-2.23-1.9-3.41-.17-.48-.32-.95-.43-1.41-.11-.46-.21-.95-.29-1.47-.04-.22-.07-.45-.07-.69v-.69c0-.13,0-.26,.03-.39,.02-.13,.03-.26,.03-.39l.07-.52c.26-2.4,1-4.48,2.23-6.22,.22-.35,.47-.69,.75-1.02,.28-.33,.58-.62,.88-.88-.04-.04-.07-.09-.07-.13s-.02-.09-.07-.13c-.09-.22-.2-.4-.33-.56-.13-.15-.24-.32-.33-.49-.35-.52-.7-1.13-1.05-1.83-.35-.7-.68-1.51-.98-2.42-.09-.48-.18-.96-.26-1.44-.09-.48-.15-.96-.2-1.44-.04-.57-.02-1.15,.07-1.74,.09-.59,.2-1.15,.33-1.67,.39-1.22,1.03-2.29,1.9-3.21,.35-.35,.71-.7,1.08-1.05,.37-.35,.8-.68,1.28-.98,.79-.48,1.56-.87,2.33-1.18,.76-.31,1.54-.55,2.33-.72,1.05-.22,2.12-.28,3.21-.2,1.09,.09,2.1,.33,3.01,.72,1.14,.48,2.07,1.08,2.82,1.8,.74,.72,1.33,1.39,1.77,2,.09,.13,.15,.24,.2,.33,.04,.09,.11,.17,.2,.26,.17-.04,.33-.08,.46-.1,.13-.02,.28-.03,.46-.03,.87,0,1.57,.33,2.1,.98,.31,.35,.49,.69,.56,1.02,.07,.33,.12,.58,.16,.75v.2c.35,.13,.63,.35,.85,.66,.3,.35,.49,.68,.56,.98s.12,.52,.16,.66c.04,.22,.07,.43,.07,.62v1.25c0,.15-.02,.34-.07,.56,0,.22-.02,.37-.07,.46,.04,.13,.07,.33,.07,.59,0,.61-.02,1.3-.07,2.06-.04,.76-.11,1.58-.2,2.46-.09,.48-.14,.93-.16,1.34-.02,.42-.08,.82-.16,1.21-.04,.39-.19,.76-.43,1.11-.24,.35-.56,.61-.95,.79-.35,.61-.87,1.14-1.57,1.57,.57,.22,1,.72,1.31,1.51,.13,.22,.24,.44,.33,.66,.09,.22,.17,.46,.26,.72,.17,.13,.35,.29,.52,.49,.17,.2,.33,.45,.46,.75Zm-23.46,1.44c.04,.79,.22,1.53,.52,2.23,.57,1.44,1.33,2.71,2.29,3.8,.48,.52,.99,.99,1.54,1.41,.54,.42,1.12,.82,1.74,1.21,.09,.09,.19,.14,.29,.16,.11,.02,.21,.08,.29,.16,.35,.17,.69,.33,1.02,.46,.33,.13,.69,.24,1.08,.33,.22,.04,.43,.09,.62,.13,.2,.04,.4,.09,.62,.13,.09,.04,.15,.07,.2,.07s.11,.02,.2,.07c.22,0,.39,.02,.52,.07,.57,.09,1.14,.12,1.7,.1,.57-.02,1.16-.12,1.77-.29,.66-.13,1.27-.33,1.83-.59,.44-.22,.82-.47,1.15-.75,.33-.28,.64-.6,.95-.95,0-.04,.02-.07,.07-.07,.7-.74,1.22-1.62,1.57-2.62,.09-.22,.14-.4,.16-.56,.02-.15,.08-.32,.16-.49,.09-.35,.13-.61,.13-.79,.17-.96,.24-1.86,.2-2.69-.04-.87-.14-1.59-.29-2.16-.15-.57-.29-1.03-.43-1.38-.31-.44-.59-.52-.85-.26-.13,.26-.26,.72-.39,1.38-.04,.13-.07,.26-.07,.39s-.02,.28-.07,.46c-.09,.39-.16,.82-.23,1.28s-.16,.97-.29,1.54c-.09,.13-.14,.28-.16,.46-.02,.17-.08,.37-.16,.59l-.39-.13c.17-.74,.25-1.35,.23-1.83-.02-.48-.05-.85-.1-1.11v-.39c-.13-.26-.26-.39-.39-.39-.17-.04-.36,.01-.56,.16-.2,.15-.38,.16-.56,.03,.04,.13,.07,.37,.07,.72,0,1.22-.15,2.23-.46,3.01-.17,.35-.31,.59-.39,.72-.09,.09-.16,.19-.23,.29-.07,.11-.12,.21-.16,.29-.35,.26-.74,.42-1.18,.46-.17,.09-.46,.17-.85,.26h-.98c-.61-.09-1.27-.25-1.97-.49-.7-.24-1.35-.6-1.97-1.08l-.79-.59c-.17-.17-.28-.3-.33-.39-.31-.35-.58-.7-.82-1.05-.24-.35-.4-.7-.49-1.05-.04-.17-.08-.32-.1-.43-.02-.11-.06-.23-.1-.36v-.39c0-.13,.02-.28,.07-.46,.04-.7,.22-1.38,.52-2.03,.17-.39,.48-.85,.92-1.38v-.07c.3-.3,.54-.52,.72-.66,.04,0,.16-.05,.36-.16,.2-.11,.4-.21,.62-.29,.09,0,.22-.04,.39-.13,.22-.04,.4-.08,.56-.1,.15-.02,.34-.05,.56-.1,.09-.22,.17-.42,.26-.59,.09-.17,.17-.35,.26-.52,.04-.13,.11-.28,.2-.46,.09-.13,.15-.24,.2-.33,.04-.09,.09-.17,.13-.26,.04-.04,.07-.08,.07-.1s.02-.05,.07-.1l.07-.07,.07-.26s.01-.11,.03-.2c.02-.09,.03-.17,.03-.26,.09-.22,.15-.44,.2-.66,.04-.22,.11-.52,.2-.92-.39-.35-.78-.71-1.15-1.08-.37-.37-.73-.75-1.08-1.15l-.52-.59-.26-.26-.52-.52s-.01-.07-.03-.07-.03-.02-.03-.07c-.18-.26-.33-.46-.46-.59-.09-.13-.19-.27-.29-.43-.11-.15-.21-.29-.29-.43-.17-.26-.28-.48-.33-.66l-.13-.13c-.52-.92-.81-1.7-.85-2.36-.04-.52,.04-.94,.26-1.25,.13-.17,.33-.37,.59-.59l.13-.13c.22-.22,.5-.39,.85-.52,.22-.13,.43-.23,.62-.29,.2-.07,.4-.14,.62-.23,.22-.04,.39-.08,.52-.1,.13-.02,.28-.03,.46-.03h.66c.09,.04,.17,.07,.26,.07s.17,.02,.26,.07c.13,0,.3,.07,.52,.2,.39,.22,.81,.72,1.25,1.51-.39-.74-.81-1.27-1.25-1.57-.09-.04-.17-.08-.26-.1-.09-.02-.17-.05-.26-.1-.09,0-.26-.04-.52-.13h-.72c-.22,0-.52,.07-.92,.2-.44,.04-.88,.2-1.31,.46-.17,.09-.33,.16-.46,.23s-.24,.14-.33,.23c-.35,.22-.63,.48-.85,.79-.22,.35-.31,.81-.26,1.38,.09,.74,.37,1.51,.85,2.29,.04,.09,.09,.17,.13,.26,.04,.09,.09,.17,.13,.26,.17,.35,.33,.61,.46,.79,.22,.31,.5,.68,.85,1.11l.46,.52,.13,.2,.13,.13,.59,.52c.57,.79,1.29,1.51,2.16,2.16-.09,.39-.15,.7-.2,.92-.04,.22-.09,.44-.13,.66,0,.09-.01,.17-.03,.26-.02,.09-.03,.15-.03,.2v.2s-.01,.07-.03,.07-.03,.02-.03,.07l-.07,.07c-.13,.13-.28,.35-.46,.66,0,.04-.01,.07-.03,.07s-.03,.02-.03,.07c-.09,.17-.2,.37-.33,.59-.13,.22-.26,.5-.39,.85-.13,0-.27,.01-.43,.03-.15,.02-.32,.03-.49,.03-.17,.09-.33,.13-.46,.13-.09,.04-.17,.09-.26,.13-.09,.04-.18,.09-.26,.13l-.26,.13s-.09,.07-.13,.07c-.13,.09-.26,.17-.39,.26-.13,.09-.24,.17-.33,.26v-.2s-.04,.07-.13,.07c.09,0,.13-.04,.13-.13,.22-.22,.39-.37,.52-.46,.04-.04,.09-.07,.13-.07l.2-.13c.17-.13,.37-.2,.59-.2,.09-.04,.19-.09,.29-.13,.11-.04,.23-.07,.36-.07,.26-.09,.48-.13,.66-.13,.26-.61,.52-1.09,.79-1.44,.09-.09,.15-.17,.2-.26l.39-.39c.09,0,.13-.02,.13-.07v-.2c-.04-.09-.07-.24-.07-.46v-.72c0-.17,.02-.33,.07-.46v-.33l-.46-.46-.07-.07c-.31-.22-.57-.46-.79-.72-.22-.26-.48-.52-.79-.79l-.46-.52-.26-.26c-.09-.09-.15-.17-.2-.26-.04-.09-.11-.17-.2-.26l-.07-.07c-.44-.48-.76-.96-.98-1.44-.09-.22-.2-.4-.33-.56-.13-.15-.24-.34-.33-.56-.22-.39-.39-.81-.52-1.25-.13-.44-.22-.83-.26-1.18-.04-.35-.02-.64,.07-.88,.09-.24,.22-.47,.39-.69l.33-.33c.13-.13,.26-.24,.39-.33l.26-.13v-.07l.26-.13c.26-.17,.46-.28,.59-.33,.22-.09,.43-.16,.62-.23,.2-.07,.4-.12,.62-.16,.44-.13,.83-.2,1.18-.2h.46c.09,0,.17,.01,.26,.03,.09,.02,.17,.03,.26,.03,.22,.09,.5,.22,.85,.39,.48,.31,.98,.9,1.51,1.77l-.39,.2c.3,.48,.55,1.06,.72,1.74,.17,.68,.31,1.37,.39,2.06,.09,.74,.14,1.47,.16,2.2,.02,.72-.01,1.47-.1,2.26-.04,.48,.2,.93,.72,1.34s1,.67,1.44,.75c.09,0,.17,.01,.26,.03,.09,.02,.17,.03,.26,.03,.35,.04,.61-.09,.79-.39,.17-.31,.37-.57,.59-.79,.17-.17,.47-.27,.88-.29,.41-.02,.64-.14,.69-.36,.04-.39,.08-.82,.1-1.28,.02-.46,.08-.88,.16-1.28v-.07c.13-1.75,.2-3.21,.2-4.39-.04,.17-.08,.33-.1,.46-.02,.13-.05,.28-.1,.46-.22,.83-.42,1.71-.59,2.65-.18,.94-.33,1.87-.46,2.79v-1.9c.13-.79,.27-1.56,.43-2.33,.15-.76,.34-1.52,.56-2.26,.09-.17,.14-.34,.16-.49,.02-.15,.05-.29,.1-.43,.04-.22,.07-.41,.07-.59v-.52c0-.39-.02-.66-.07-.79,0-.31-.02-.5-.07-.59-.17-.09-.39-.09-.66,0-.35,.09-.76,.46-1.25,1.11l-.07,.07c0,.09-.04,.22-.13,.39l-.59-1.57c-.22-.48-.52-1.03-.92-1.64-.44-.57-.95-1.11-1.54-1.64-.59-.52-1.3-.96-2.13-1.31-.13-.09-.26-.14-.39-.16-.13-.02-.26-.08-.39-.16-1.22-.3-2.56-.33-4-.07-.74,.18-1.43,.42-2.06,.72-.63,.31-1.26,.63-1.87,.98-.31,.22-.61,.44-.92,.66s-.63,.5-.98,.85c-.26,.35-.49,.72-.69,1.11-.2,.39-.38,.81-.56,1.25l-.2,.79c-.13,.66-.17,1.25-.13,1.77,0,.48,.04,.91,.13,1.28,.09,.37,.17,.73,.26,1.08,.22,.74,.46,1.4,.72,1.97,.26,.57,.57,1.14,.92,1.7,.26,.44,.53,.85,.82,1.25,.28,.39,.58,.76,.88,1.11l.39,.52v.07h-.07l-.13,.13-.26,.2c-.22,.13-.39,.29-.52,.46-.22,.13-.4,.25-.56,.36-.15,.11-.32,.25-.49,.43-.18,.22-.35,.44-.52,.66-.17,.22-.33,.44-.46,.66-.31,.52-.58,1.06-.82,1.61-.24,.55-.43,1.12-.56,1.74-.17,.48-.31,1.07-.39,1.77l-.07,.46v1.18c0,.18,.02,.37,.07,.59Zm7.93-26.28c-.48,.09-.93,.22-1.34,.39-.42,.18-.82,.37-1.21,.59-.83,.35-1.62,.9-2.36,1.64-.35,.39-.67,.83-.95,1.31s-.47,1-.56,1.57c-.13,1.09-.11,2.12,.07,3.08-.09-.52-.14-1.05-.16-1.57-.02-.52,.01-1.05,.1-1.57,.22-1.14,.74-2.1,1.57-2.88,.22-.22,.42-.4,.59-.56,.17-.15,.35-.32,.52-.49,.35-.17,.57-.26,.66-.26,.26-.17,.46-.28,.59-.33,.87-.48,1.75-.83,2.62-1.05,1-.22,2.01-.26,3.01-.13,1,.22,1.92,.61,2.75,1.18,.52,.35,.98,.76,1.38,1.25,.39,.48,.74,1.01,1.05,1.57,.17,.22,.33,.5,.46,.85,.04,0,.07,.02,.07,.07,.09,.17,.17,.39,.26,.66-.04-.09-.09-.2-.13-.33-.04-.13-.09-.24-.13-.33,0-.04-.01-.07-.03-.07s-.03-.02-.03-.07c-.18-.35-.33-.59-.46-.72-.31-.57-.67-1.1-1.08-1.61-.42-.5-.91-.93-1.47-1.28-.87-.61-1.79-.98-2.75-1.11-1.09-.13-2.1-.07-3.01,.2Zm-1.25,11.53c-.39-.52-.75-1.07-1.08-1.64-.33-.57-.6-1.16-.82-1.77-.17-.57-.26-1.14-.26-1.7,0-.39,.15-.85,.46-1.38,.26-.39,.68-.76,1.25-1.11,.09-.04,.16-.08,.23-.1,.07-.02,.14-.08,.23-.16,.39-.26,.81-.46,1.25-.59,.09-.09,.2-.13,.33-.13s.24-.02,.33-.07c.7-.17,1.31-.24,1.83-.2,.09,.04,.17,.07,.26,.07s.17,.02,.26,.07c.09,0,.14,.01,.16,.03,.02,.02,.08,.03,.16,.03,.83,.35,1.53,.95,2.1,1.8,.57,.85,.98,1.78,1.25,2.79,.22,1.01,.37,2.1,.46,3.28,0,.13-.01,.28-.03,.46-.02,.17-.03,.35-.03,.52,0-1.75-.22-3.36-.66-4.85-.35-1.14-.9-2.07-1.64-2.82-.57-.61-1.16-.98-1.77-1.11-.26-.09-.44-.13-.52-.13h-.13c-.39-.04-.9,0-1.51,.13-.31,.09-.59,.19-.85,.29-.26,.11-.52,.23-.79,.36-.09,.04-.16,.09-.23,.13-.07,.04-.14,.09-.23,.13-.04,.04-.09,.07-.13,.07s-.09,.02-.13,.07c-.26,.13-.48,.28-.66,.46-.44,.39-.74,.74-.92,1.05-.31,.7-.26,1.66,.13,2.88,.17,.48,.42,.99,.72,1.54,.31,.55,.63,1.08,.98,1.61Zm1.77,12.25v-.16c0-.07-.07-.05-.2,.03,.09-.13,.26-.28,.52-.46v-.39h-.07c-.09,.04-.14,.09-.16,.13-.02,.04-.08,.09-.16,.13-.22,.22-.39,.48-.52,.79-.17,.48-.28,.94-.33,1.38v.13c.3-.61,.61-1.05,.92-1.31,.13-.13,.24-.22,.33-.26v-.26c-.09,.09-.15,.14-.2,.16s-.09,.05-.13,.1Zm-.39-16.97l.13,.39s.08-.07,.1-.07,.05-.02,.1-.07l.33-.2h.07v-.46s-.09,.07-.13,.07c-.22,.04-.42,.15-.59,.33Zm.26,.72c.09-.04,.16-.09,.23-.13,.07-.04,.14-.09,.23-.13v-.13c-.09,.09-.16,.14-.23,.16-.07,.02-.14,.08-.23,.16v.07Zm6.68,15.66c.31-.13,.63-.2,.98-.2,.26-.09,.48-.13,.66-.13,.13-.44,.28-.79,.46-1.05,.09-.09,.16-.19,.23-.29s.14-.23,.23-.36c-.96-.22-1.79-.7-2.49-1.44,0,.13-.02,.22-.07,.26,0,.04-.01,.09-.03,.13-.02,.04-.03,.11-.03,.2v.2s-.01,.08-.03,.1c-.02,.02-.03,.08-.03,.16-.09,.17-.15,.35-.2,.52-.04,.17-.11,.33-.2,.46-.09,.09-.17,.22-.26,.39-.09,.22-.19,.43-.29,.62-.11,.2-.23,.47-.36,.82-.39,.88-1.03,1.35-1.9,1.44-.22,.04-.5,.11-.85,.2-.09,.04-.17,.09-.26,.13-.09,.04-.15,.07-.2,.07-.17,.09-.31,.17-.39,.26-.18,.18-.33,.42-.46,.72-.17,.39-.29,.83-.33,1.31,.04,0,.07,.02,.07,.07,.44,.31,.9,.55,1.38,.72,.48,.17,.92,.31,1.31,.39h.46c.09-.04,.17-.07,.26-.07,.09-.04,.16-.08,.23-.1,.07-.02,.14-.05,.23-.1l.07-.07c.09-.09,.15-.2,.2-.33,.13-.3,.22-.7,.26-1.18,.04-.48,.04-1,0-1.57-.04-.48,.07-.93,.33-1.34,.26-.42,.61-.73,1.05-.95Zm-5.37-13.76c.04,.09,.07,.15,.07,.2s.02,.11,.07,.2c.04,.09,.13,.2,.26,.33l1.18,1.31c.09,.13,.2,.26,.33,.39,.13,.13,.24,.24,.33,.33v-1.08c0-.37-.04-.73-.13-1.08-.04-.26-.07-.49-.07-.69s-.04-.4-.13-.62c-.31,0-.72,.15-1.25,.46-.17,.09-.31,.14-.39,.16-.09,.02-.17,.06-.26,.1Zm.92-3.01s-.04,.07-.13,.07v.07s.08-.01,.1-.03,.05-.03,.1-.03l-.07-.07Zm-.13,16.05c.17-.09,.35-.13,.52-.13v-.13c-.09,.04-.17,.08-.26,.1-.09,.02-.18,.05-.26,.1v.07Zm.52,.2c-.09,0-.17,.01-.26,.03-.09,.02-.18,.03-.26,.03v.13c.09,0,.26-.04,.52-.13v-.07Zm7.4,14.42c-.35,.22-.69,.43-1.02,.62-.33,.2-.69,.36-1.08,.49v.66c.39-.09,.75-.2,1.08-.33,.33-.13,.67-.31,1.02-.52v-.92Zm-.79-30.08c-.09-.26-.16-.53-.23-.82s-.16-.58-.29-.88c.13,.35,.23,.66,.29,.92,.07,.26,.14,.52,.23,.79Zm.79,11.4c-.13,.04-.27,.08-.43,.1-.15,.02-.29,.06-.43,.1,.35,.17,.63,.28,.85,.33v-.52Zm1.97-1.44l.13-.2c-.17,.26-.33,.46-.46,.59v.98c.26-.26,.41-.52,.46-.79v-.59h-.13Zm.13,18.22c-.04,.09-.15,.22-.33,.39,0,.04-.04,.11-.13,.2v.92l.13-.13c.17-.26,.28-.42,.33-.46v-.92Z"/><path class="f" d="M266.24,33.19c.09,.48,.16,1.05,.23,1.7s.16,1.33,.29,2.03c.26,1.35,.47,2.47,.62,3.34,.15,.87,.21,1.62,.16,2.23-.04,.74-.2,1.32-.46,1.74-.26,.42-.52,.73-.79,.95v.2c-.04,.87-.17,1.58-.39,2.13s-.47,.98-.75,1.31c-.29,.33-.6,.55-.95,.66-.35,.11-.68,.16-.98,.16-.92,0-1.63-.29-2.13-.88-.5-.59-.84-1.02-1.02-1.28,0-.04-.01-.07-.03-.07s-.03-.02-.03-.07c-.09-.22-.19-.43-.29-.62-.11-.2-.23-.4-.36-.62,0-.09-.02-.15-.07-.2-.22-.17-.38-.36-.49-.56-.11-.2-.21-.36-.29-.49-.04,0-.07-.02-.07-.07-.35,.04-.7,.09-1.05,.13-.35,.04-.74,.07-1.18,.07s-.76-.02-.98-.07c-.31-.04-.62-.07-.95-.07h-1.93c-.35,.87-1.03,1.35-2.03,1.44-.31,.04-.66,0-1.05-.13-.17,0-.44-.04-.79-.13-.35,.39-.7,.69-1.05,.88-.35,.2-.77,.29-1.25,.29-.74,0-1.4-.33-1.97-.98-.48-.52-.74-1.18-.79-1.97-.22-.09-.5-.31-.85-.66-.39-.48-.62-1.12-.69-1.93s.03-1.91,.29-3.31c.3-1.62,.7-3.3,1.18-5.04,.48-1.75,.96-3.5,1.44-5.24l1.57-5.57,4.78-18.61c.13-.48,.4-.86,.82-1.15,.42-.28,.86-.45,1.34-.49,.7-.04,1.4-.04,2.1,0,.22,0,.43,0,.62-.03,.2-.02,.4,0,.62,.03,.65,.13,1.18,.26,1.57,.39,.52,.13,1.14,.37,1.83,.72,.66,.39,1.05,.98,1.18,1.77l.07,.72,.26,.13c.74,.39,1.16,.98,1.25,1.77l2.23,15.66c.22,1.49,.43,3.07,.62,4.75,.2,1.68,.38,3.35,.56,5.01Zm-7.47,6.36c.22,.7,.46,1.35,.72,1.97-.04-.35-.08-.69-.1-1.02-.02-.33-.06-.67-.1-1.02h.33c.09,.35,.14,.69,.16,1.02,.02,.33,.05,.67,.1,1.02l.07,1.11c.09,.13,.19,.28,.29,.46,.11,.18,.21,.35,.29,.52,.44,.83,.83,1.18,1.18,1.05,.39-.09,.61-.72,.66-1.9l-.33-2.16c.09-.17,.2-.25,.33-.23,.13,.02,.26,.08,.39,.16l-.26-2.16c.09-.3,.04-.61-.13-.92l-.66-4.98-.66-5.24,.66,4.72,1.31,8.65c.17,.09,.3,.08,.39-.03,.09-.11,.15-.4,.2-.88,.04-.35,0-.88-.1-1.61-.11-.72-.24-1.51-.39-2.36-.15-.85-.31-1.71-.46-2.59-.15-.87-.27-1.64-.36-2.29-.09-.87-.19-1.78-.29-2.72-.11-.94-.21-1.84-.29-2.72l-.59-4.13-.26-2.49-.59-4.06-1.31-9.3c-.26-.09-.5-.19-.72-.29-.22-.11-.46-.21-.72-.29l-.07-.07c-.18-.04-.35-.09-.52-.13-.17-.04-.37-.07-.59-.07-.48,0-.95-.02-1.41-.07-.46-.04-.93-.04-1.41,0l-.39,1.18-3.08,11.86-.39,1.38-.33,1.44-.79,2.75-1.51,5.64c-.52,1.83-1,3.59-1.44,5.27-.44,1.68-.81,3.29-1.11,4.82-.44,2.18-.42,3.31,.07,3.37,.48,.07,1.11-.62,1.9-2.06,.04-.09,.09-.17,.13-.26,.04-.09,.09-.17,.13-.26,.09-.09,.13-.17,.13-.26,.04,.09,.08,.16,.1,.23,.02,.07,.08,.12,.16,.16,.04,.09,.17,.13,.39,.13-.13,.61-.16,.99-.1,1.15s.17,.23,.33,.23,.3-.02,.46-.07c.15-.04,.27,.02,.36,.2,.09-.31,.16-.59,.23-.85,.07-.26,.14-.52,.23-.79,.52,.09,1.04,.13,1.54,.13s1.04,.02,1.61,.07h.85c.26,0,.57,.02,.92,.07h.33c.3,.04,.59,.05,.85,.03,.26-.02,.5-.05,.72-.1,.26,0,.44-.02,.52-.07,.22-.04,.4-.08,.56-.1,.15-.02,.32-.05,.49-.1,.26-.04,.5-.08,.72-.1,.22-.02,.44-.03,.66-.03Zm-12.06,4.13c-.09,.13-.26,.28-.52,.46v.66c.13,.13,.3,.11,.52-.07v-1.05Zm.26-4.59l.13-.26c.09,0,.19,.01,.29,.03,.11,.02,.23,.03,.36,.03-.04,0-.07,.04-.07,.13-.31,0-.55,.02-.72,.07Zm2.29-.2c.09,0,.15,.01,.2,.03,.04,.02,.09,.03,.13,.03h-.33v-.07Zm.33,.07c.96-.09,1.81-.07,2.56,.07,.26,0,.57,.04,.92,.13-.13-.04-.27-.07-.43-.07s-.32-.02-.49-.07c-.48-.04-.93-.07-1.34-.07h-1.21Zm2.56-3.01c-.61,.09-1.18,.09-1.7,0h-.13v-.07c.3,0,.6,0,.88-.03,.28-.02,.6-.03,.95-.03h1.21c-.15,0-.27,.02-.36,.07-.13,0-.27,.01-.43,.03-.15,.02-.29,.03-.43,.03Zm3.8-1.11c-.44,.17-.9,.28-1.38,.33-.48,.04-.96,.07-1.44,.07h-.98c-.57-.04-1.11-.04-1.64,0,0-.04,.01-.09,.03-.13,.02-.04,.03-.11,.03-.2,.26,.04,.52,.06,.79,.03,.26-.02,.52-.03,.79-.03h1.05c.44-.04,.85-.07,1.25-.07s.81-.04,1.25-.13h.2c0,.09,.02,.13,.07,.13Zm1.05-8.06c.22,1.27,.4,2.52,.56,3.77s.32,2.48,.49,3.7c-.22,.04-.42,.08-.59,.1-.18,.02-.37,.03-.59,.03-.22,.04-.42,.08-.59,.1-.17,.02-.35,.03-.52,.03-.44,.09-.85,.14-1.25,.16-.39,.02-.81,.06-1.25,.1-.17,0-.35,.01-.52,.03-.18,.02-.37,.03-.59,.03h-.79c-.26,0-.5,.02-.72,.07,.13-.44,.31-.89,.52-1.38l.79-2.56,.2-.72,2.1-7.67,.26-.98,.66-2.36,.07-.26,.07-.13v-.07l.13-.59,.26-.92,.13,.85v.66l.07,.52,.46,3.08,.59,4-.59-4.26-.39-2.88v-.46l-.07-.26-.07-.72v-.75c0-.24-.04-.47-.13-.69-.04,.22-.09,.45-.13,.69-.04,.24-.11,.47-.2,.69l-.07,.39c-.04-.09-.07-.17-.07-.26s-.02-.15-.07-.2c0-.09,.01-.2,.03-.33,.02-.13,.03-.26,.03-.39,.09-.44,.19-.85,.29-1.25,.11-.39,.21-.76,.29-1.11v.52c.04,.35,.08,.68,.1,.98,.02,.31,.05,.61,.1,.92l.13,1.18v.46l.07,.2v.13l.07,.46c0,.09,0,.2,.03,.33,.02,.13,.03,.26,.03,.39,.17,1.09,.35,2.17,.52,3.24,.17,1.07,.37,2.17,.59,3.31l-.46,.07Zm-2.75,15.66c-.26,0-.46-.02-.59-.07-.31-.04-.57-.07-.79-.07h-.72v.26h2.1v-.13Zm2.1-.13c-.09,.04-.26,.07-.52,.07v.33h.52v-.39Zm.79-22.41c.09,.44,.15,.86,.2,1.28,.04,.42,.09,.82,.13,1.21,.26,2.1,.51,4.12,.75,6.06,.24,1.94,.49,3.86,.75,5.73h-.2c-.26-2.27-.52-4.7-.79-7.27l-1.05-7.34-.52-3.93-.07-.39-.26-2.29,.26,1.77,.13,.66c.09,.44,.16,.87,.23,1.31s.12,.9,.16,1.38l.26,1.83Zm2.95-.46l.98,7.8c-.22-1.31-.4-2.62-.56-3.93-.15-1.31-.32-2.62-.49-3.93l-.79-5.57-.92-6.68,.13,.33,1.64,11.99Zm3.73,26.47c-.35,.48-.74,.79-1.18,.92,.52,.61,.92,.61,1.18,0v-.92Z"/><path class="f" d="M290.68,41.9c.13,.31,.22,.68,.26,1.11v.98c0,.39-.11,.87-.33,1.44-.09,.22-.16,.4-.23,.56-.07,.15-.14,.29-.23,.43-.13,.13-.24,.27-.33,.43-.09,.15-.2,.29-.33,.43-.31,.3-.6,.56-.88,.75-.29,.2-.54,.36-.75,.49-.61,.26-1.1,.43-1.47,.49s-.67,.12-.88,.16h-.33c-.39,0-.71-.02-.95-.07-.24-.04-.43-.07-.56-.07h-.2l-.13-.13c-.17,0-.35,.04-.52,.13-.52,0-1.11,.09-1.77,.26h-.33c-.7,.13-1.4,.28-2.1,.46-.7,.17-1.4,.37-2.1,.59l-.46,.13c-.44,.09-.86,.2-1.28,.33-.42,.13-.84,.24-1.28,.33-.22,.04-.46,.1-.72,.16-.26,.07-.52,.12-.79,.16-.17,0-.34,0-.49,.03-.15,.02-.34,.03-.56,.03-.18,.04-.48,.07-.92,.07h-.59c-.13-.04-.33-.08-.59-.1-.26-.02-.57-.1-.92-.23-.31-.04-.76-.26-1.38-.66-.83-.48-1.46-1.22-1.9-2.23-.09-.26-.17-.57-.26-.92-.26-.22-.51-.47-.75-.75-.24-.28-.43-.58-.56-.88-.22-.52-.36-1.02-.43-1.47-.07-.46-.08-.82-.03-1.08,0-.35,.03-.63,.1-.85,.07-.22,.12-.39,.16-.52,.09-.22,.16-.41,.23-.59s.14-.33,.23-.46v-.13c.04-.09,.1-.2,.16-.33s.14-.3,.23-.52c.13-.44,.26-.94,.39-1.51,.22-.79,.4-1.58,.56-2.39,.15-.81,.29-1.52,.43-2.13,.52-3.01,1.02-6.05,1.47-9.11,.46-3.06,.91-6.2,1.34-9.44l.46-3.67c0-.09,.02-.2,.07-.33,.3-.96,.56-1.97,.75-3.01,.2-1.05,.38-2.18,.56-3.41,.04-.48,.23-.93,.56-1.34,.33-.41,.73-.69,1.21-.82,.22,0,.42-.02,.59-.07,.17-.04,.37-.02,.59,.07h1.05c.57-.74,1.33-1.11,2.29-1.11,.79,0,1.46,.28,2.03,.85,.48,.52,.81,1.27,.98,2.23,.09,.04,.3,.2,.66,.46,.48,.44,.8,1.01,.95,1.7,.15,.7,.23,1.64,.23,2.82-.09,1.7-.26,3.53-.52,5.47-.26,1.94-.57,3.96-.92,6.06-.17,1.22-.36,2.46-.56,3.7-.2,1.25-.36,2.48-.49,3.7v.07c-.13,1-.26,2.02-.39,3.05s-.26,2.04-.39,3.05c0-.17,.05-.33,.16-.46,.11-.13,.23-.28,.36-.46,0-.09,.02-.15,.07-.2,.04-.04,.11-.11,.2-.2v-.33c.04-.92,.24-1.64,.59-2.16,.35-.52,.71-.89,1.08-1.11,.37-.22,.72-.35,1.05-.39,.33-.04,.54-.07,.62-.07h.13c.74,0,1.32,.2,1.74,.59,.42,.39,.75,.72,1.02,.98l.13,.13c.17,.26,.33,.48,.46,.66,.13,.13,.2,.24,.2,.33,.17,0,.26,.09,.26,.26,.3,.39,.61,.81,.92,1.25,.31,.44,.63,1.01,.98,1.7l.07,.07c0,.09,.02,.13,.07,.13,.22,.35,.46,.72,.72,1.11,.26,.39,.52,.83,.79,1.31,.04,.04,.07,.11,.07,.2,.04,.09,.09,.17,.13,.26,.04,.09,.09,.2,.13,.33,.13,.26,.26,.55,.39,.85,.13,.31,.26,.66,.39,1.05,.04,.22,.1,.43,.16,.62,.07,.2,.12,.43,.16,.69Zm-25.55,.66c0,.09-.01,.2-.03,.33-.02,.13-.03,.26-.03,.39l-.07,.07v.13c0,.44,.09,.89,.26,1.38,.13,.26,.28,.48,.46,.66,.17,.17,.33,.3,.46,.39,.22,.13,.4,.23,.56,.29,.15,.07,.27,.14,.36,.23,.26,.04,.47,.07,.62,.07s.29,.02,.43,.07h.66c.09-.04,.22-.07,.39-.07,.13,0,.26-.01,.39-.03,.13-.02,.26-.03,.39-.03,.17,0,.26-.04,.26-.13,.17,0,.39-.04,.65-.13h.33c.3-.04,.57-.1,.79-.16,.22-.07,.46-.12,.72-.16,.04,0,.11-.02,.2-.07,.09-.04,.2-.09,.33-.13h.29c.11,0,.21-.02,.29-.07,.83-.22,1.64-.44,2.42-.66,.79-.22,1.55-.42,2.29-.59-.87,.17-1.75,.37-2.62,.59-.87,.22-1.77,.46-2.69,.72-.13,0-.24,.01-.33,.03-.09,.02-.15,.03-.2,.03-.09,0-.14,.02-.16,.07-.02,.04-.05,.07-.1,.07-.22,.04-.46,.09-.72,.13-.26,.04-.55,.11-.85,.2h-.2c-.22,.04-.47,.1-.75,.16-.29,.07-.62,.1-1.02,.1h-.72c-.13,0-.28-.01-.46-.03-.18-.02-.39-.1-.66-.23-.13,0-.33-.07-.59-.2-.26-.13-.48-.31-.66-.52-.09-.13-.19-.26-.29-.39-.11-.13-.19-.28-.23-.46-.13-.18-.2-.44-.2-.79,0-.52,.04-.87,.13-1.05l.07-.07c.04-.13,.07-.28,.07-.46,.04,0,.11-.07,.2-.2,.04-.04,.07-.1,.07-.16s.04-.12,.13-.16l.07-.07s.13,.07,.26,.07l-.07,.07c-.13,.18-.28,.48-.46,.92-.04,.09-.09,.2-.13,.33-.04,.13-.07,.31-.07,.52,0,.48,.17,1,.52,1.57,.22,.26,.44,.45,.66,.56,.22,.11,.39,.18,.52,.23,.13,.09,.25,.14,.36,.16,.11,.02,.21,.05,.29,.1h1.44c.3-.04,.6-.09,.88-.13,.28-.04,.56-.09,.82-.13h.07c.3-.09,.61-.16,.92-.23,.3-.07,.59-.14,.85-.23,.04,0,.11-.01,.2-.03,.09-.02,.2-.03,.33-.03,.92-.26,1.82-.52,2.72-.79,.89-.26,1.8-.52,2.72-.79h.13l.07,.52c.31-.09,.66-.15,1.05-.2,.39-.04,.72-.09,.98-.13h.07c.17-.09,.34-.13,.49-.13h.62l.07,.13h.13l.13,.07h.66c.22,.04,.44,.04,.66,0,.22,0,.43-.01,.62-.03,.2-.02,.47-.1,.82-.23,.13-.13,.27-.26,.43-.39,.15-.13,.32-.26,.49-.39,.09-.09,.15-.16,.2-.23,.04-.07,.11-.16,.2-.29,.04-.09,.08-.16,.1-.23,.02-.07,.05-.16,.1-.29,.13-.31,.2-.58,.2-.82v-.56c0-.44-.07-.72-.2-.85,0-.22-.02-.4-.07-.56-.04-.15-.09-.29-.13-.43-.22-.52-.4-.97-.56-1.34-.15-.37-.32-.73-.49-1.08-.48-1-1-1.83-1.57-2.49,.09,.44,.21,.91,.36,1.41,.15,.5,.34,1.02,.56,1.54,.13,.26,.26,.54,.39,.82s.24,.6,.33,.95c.09,.22,.16,.41,.23,.56,.07,.15,.14,.36,.23,.62,0,.13,.01,.27,.03,.43,.02,.15,.03,.34,.03,.56v.46c0,.18-.02,.35-.07,.52-.09,.17-.21,.36-.36,.56-.15,.2-.29,.36-.43,.49-.22,.13-.42,.22-.59,.26-.17,.04-.33,.11-.46,.2-.13,.04-.25,.07-.36,.07h-.69c-.09,0-.16-.01-.23-.03-.07-.02-.14-.03-.23-.03l-.07-.13h-.2l-.07-.07h-1.64c-.35,.04-.68,.1-.98,.16-.31,.07-.63,.12-.98,.16-.26,.09-.52,.15-.79,.2-.26,.04-.55,.11-.85,.2-.61,.13-1.2,.27-1.77,.43-.57,.15-1.16,.29-1.77,.43-.17,0-.26,.02-.26,.07-.13,.09-.24,.13-.33,.13s-.15,.02-.2,.07c-.35,.04-.66,.1-.92,.16-.26,.07-.57,.12-.92,.16-.48,.13-.87,.2-1.18,.2-.13,.04-.26,.09-.39,.13-.13,.04-.31,.07-.52,.07h-.56c-.11,0-.27-.04-.49-.13-.09-.04-.19-.08-.29-.1-.11-.02-.23-.08-.36-.16-.13-.04-.23-.1-.29-.16l-.23-.23c-.22-.17-.37-.42-.46-.72-.09-.26-.12-.47-.1-.62,.02-.15,.05-.29,.1-.43,.04-.13,.09-.23,.13-.29,.04-.07,.09-.14,.13-.23l.07-.07c.09,0,.13-.04,.13-.13l.07-.13s.07-.02,.2,.07l-.2,.07-.07,.2s-.03,.1-.1,.16-.12,.12-.16,.16c-.09,.13-.13,.37-.13,.72,0,.13,.02,.3,.07,.52,.04,.22,.17,.41,.39,.59,.13,.22,.26,.35,.39,.39,.13,.04,.24,.09,.33,.13,.17,.13,.35,.2,.52,.2h.92c.35,0,.66-.03,.92-.1,.26-.07,.5-.12,.72-.16,.17,0,.33-.02,.46-.07,.17-.09,.38-.14,.62-.16,.24-.02,.47-.05,.69-.1,.09,0,.16-.02,.23-.07,.07-.04,.16-.09,.29-.13,.17,0,.35-.02,.52-.07,.3-.09,.62-.17,.95-.26,.33-.09,.67-.15,1.02-.2,.61-.13,1.2-.26,1.77-.39,.57-.13,1.13-.26,1.7-.39,.09,0,.17-.01,.26-.03,.09-.02,.17-.03,.26-.03,.35-.09,.66-.14,.92-.16,.26-.02,.52-.03,.79-.03,.04-.04,.15-.07,.33-.07h1.05l.26,.07h.26c.17,0,.26,.02,.26,.07h.79c.13-.04,.26-.08,.39-.1,.13-.02,.28-.1,.46-.23,.44-.17,.76-.5,.98-.98,.09-.22,.13-.4,.13-.56v-.95c-.04-.44-.13-.74-.26-.92-.13-.39-.27-.75-.43-1.08-.15-.33-.29-.64-.43-.95-.26-.61-.5-1.2-.72-1.77-.22-.57-.39-1.11-.52-1.64-.09-.35-.13-.59-.13-.72-.26-.35-.44-.57-.52-.66-.09-.09-.15-.16-.2-.23-.04-.07-.07-.14-.07-.23-.31-.22-.57-.33-.79-.33-.13,0-.29,.11-.49,.33-.2,.22-.32,.63-.36,1.25v.07c0,.26,.09,.61,.26,1.05,.09,.18,.15,.37,.2,.59-.09,.17-.2,.26-.33,.26s-.26-.02-.39-.07c.17,.52,.35,1.01,.52,1.44,.17,.44,.37,.87,.59,1.31l.39,.98h-.13l-.46-.98c-.22-.44-.43-.87-.62-1.31s-.38-.92-.56-1.44h-.26c-.22,.09-.26,.44-.13,1.05,.09,.26,.22,.63,.39,1.11,.17,.48,.39,1,.66,1.57h-.72c-.22,0-.44,.02-.66,.07-.31,0-.48,.02-.52,.07-.39,.09-.76,.15-1.11,.2-.35,.04-.7,.11-1.05,.2h-.2c-.61,.13-1.21,.26-1.8,.39-.59,.13-1.17,.31-1.74,.52-.22,0-.39,.07-.52,.2-.35,0-.59,.02-.72,.07-.04,0-.09,.01-.13,.03-.04,.02-.09,.03-.13,.03,.04-.17,.08-.35,.1-.52,.02-.17,.08-.33,.16-.46,.13-.39,.25-.82,.36-1.28,.11-.46,.23-.91,.36-1.34,.09-.44,.16-.85,.23-1.25,.07-.39,.16-.81,.29-1.24,.26-1.53,.49-3.04,.69-4.52,.2-1.48,.4-2.97,.62-4.46,.17-1.62,.37-3.26,.59-4.95,.22-1.68,.45-3.32,.69-4.91s.45-3.16,.62-4.69c.17-1.53,.28-2.95,.33-4.26,.04-.57,.04-1.05,0-1.44-.04-.39-.11-.7-.2-.92-.39-.83-.98-.5-1.77,.98-.13,.35-.28,.75-.46,1.21-.18,.46-.35,.97-.52,1.54l-.46-.07c.22-.83,.32-1.45,.29-1.87-.02-.42-.08-.69-.16-.82s-.19-.21-.29-.23c-.11-.02-.23-.02-.36,0-.13,.02-.25,.03-.36,.03s-.21-.04-.29-.13c0,.18-.02,.34-.07,.49-.04,.15-.07,.34-.07,.56-.17,.96-.36,1.92-.56,2.88-.2,.96-.47,1.94-.82,2.95l-.26,2.29c-.48,3.41-.94,6.77-1.38,10.09-.44,3.32-.92,6.58-1.44,9.76-.22,.83-.41,1.64-.56,2.42-.15,.79-.32,1.57-.49,2.36-.13,.39-.25,.79-.36,1.18-.11,.39-.21,.74-.29,1.05-.04,.04-.07,.09-.07,.13s-.02,.09-.07,.13l-.13,.07v0l-.07,.2c-.09,.13-.16,.26-.23,.39s-.14,.28-.23,.46Zm.98-.85c-.09,0-.14,0-.16-.03-.02-.02-.06-.03-.1-.03l.07-.13s.02-.1,.07-.16c.04-.07,.09-.14,.13-.23,.13-.44,.27-.91,.43-1.41s.27-1.04,.36-1.61c.13-.48,.25-.96,.36-1.44,.11-.48,.23-.96,.36-1.44,.17-1.05,.34-2.1,.49-3.14,.15-1.05,.34-2.1,.56-3.15,0,.22,.09,.22,.26,0-.13,1.09-.27,2.16-.43,3.21-.15,1.05-.34,2.08-.56,3.08-.09,.52-.2,1.05-.33,1.57-.13,.52-.26,1.05-.39,1.57-.09,.48-.21,.97-.36,1.47-.15,.5-.32,.97-.49,1.41-.09,.09-.14,.19-.16,.29-.02,.11-.06,.16-.1,.16Zm0,0v.07h0v-.07c-.13,0-.22-.02-.26-.07,.04,.04,.13,.07,.26,.07Zm0,.07c.22,.09,.37,.15,.46,.2,.09,.04,.17,.11,.26,.2-.13-.13-.35-.22-.66-.26v-.13h-.07Zm.46,.2h-.26s-.04-.07-.13-.07c.09,0,.13,.02,.13,.07h.26Zm0,0l.07,.07s-.13-.07-.26-.07h.2Zm.26,.2s-.13-.07-.26-.2c.13,.13,.22,.2,.26,.2Zm-.2-.13h.07l.13,.13-.2-.13Zm.07,0c.09-.04,.17-.24,.26-.59,.22-.48,.39-1.02,.52-1.61,.13-.59,.28-1.17,.46-1.74-.13,.48-.25,.97-.36,1.47-.11,.5-.25,1.02-.43,1.54-.04,.22-.1,.43-.16,.62-.07,.2-.12,.34-.16,.43-.09,0-.14-.02-.16-.07-.02-.04-.01-.07,.03-.07Zm4.19,7.01h-.26c-.17,.04-.39,.04-.66,0h-.43c-.15,0-.34-.04-.56-.13h-.2v.13h.13c.22,.09,.39,.13,.52,.13h.39c.22,.09,.4,.11,.56,.07,.15-.04,.32-.07,.49-.07v-.13Zm0-.39c-.09,0-.17,.02-.26,.07-.09,.04-.2,.07-.33,.07h-.33c.22,.04,.39,.05,.52,.03,.13-.02,.26-.03,.39-.03v-.13Zm1.83-7.14c-.26,.13-.48,.2-.66,.2-.26,0-.55,.07-.85,.2,0-.09,.02-.13,.07-.13h.13c.09-.04,.19-.07,.29-.07s.27-.02,.49-.07c.04-.04,.22-.11,.52-.2,.17,0,.35-.02,.52-.07,1.83-.52,3.74-.98,5.7-1.38-1.01,.26-1.98,.5-2.92,.72-.94,.22-1.87,.46-2.79,.72-.31,0-.48,.02-.52,.07Zm.52,6.62c-.17,.09-.35,.13-.52,.13v.26c.22,0,.39-.04,.52-.13v-.26Zm0,.52c-.17,.09-.35,.13-.52,.13v.07s.1-.01,.16-.03c.07-.02,.14-.03,.23-.03h.13v-.13Zm4.33-12.12c-.04-.13-.07-.46-.07-.98-.09,.22-.13,.45-.13,.69s-.04,.45-.13,.62c.17,0,.3-.02,.39-.07-.04,0-.07-.09-.07-.26Zm3.34,9.89c-.22,0-.45,.01-.69,.03-.24,.02-.51,.05-.82,.1l-.13,.13h-.2c-.18,0-.31,.02-.39,.07v.2c.35-.09,.68-.16,.98-.23,.3-.07,.63-.16,.98-.29l.07,.52h.2v-.52Zm-2.23,.92c.26-.09,.55-.15,.85-.2,.31-.04,.59-.11,.85-.2-.26,.09-.55,.15-.85,.2-.31,.04-.59,.11-.85,.2Zm2.82-7.6c-.44,0-.85,.02-1.24,.07-.39,.04-.83,.11-1.31,.2,.48-.09,.92-.15,1.31-.2,.39-.04,.81-.07,1.24-.07Zm1.57,6.75c-.09,0-.18-.01-.26-.03-.09-.02-.17-.03-.26-.03v.26s.08-.02,.1-.07c.02-.04,.08-.07,.16-.07h.26v-.07Z"/></g></g></svg>