<?xml version="1.0" encoding="UTF-8"?><svg xmlns="http://www.w3.org/2000/svg" viewBox="0 0 322.08 402.08"><defs><style>.d{fill:#9b3979;}.e{fill:#ef6f66;}.f{fill:#9b718d;opacity:.5;}</style></defs><g id="a"/><g id="b"><g id="c"><g><g><path class="d" d="M272.25,2.08H51.14C23.62,2.08,1.32,24.38,1.32,51.9V352.25c0,27.52,22.31,49.83,49.83,49.83h221.11c27.52,0,49.83-22.31,49.83-49.83V51.9c0-27.52-22.31-49.83-49.83-49.83Zm38.5,336.04c0,27.52-22.31,49.83-49.83,49.83H62.47c-27.52,0-49.83-22.31-49.83-49.83V66.03c0-27.52,22.31-49.83,49.83-49.83h198.45c27.52,0,49.83,22.31,49.83,49.83V338.12Z"/><g><rect class="e" x="60.06" width="25.69" height="16.2"/><rect class="e" x="237.65" width="25.69" height="16.2"/><rect class="e" x="104.45" width="25.69" height="16.2"/><rect class="e" x="193.25" width="25.69" height="16.2"/><rect class="e" x="148.85" width="25.69" height="16.2"/></g><g><rect class="e" x="60.06" y="385.37" width="25.69" height="16.7"/><rect class="e" x="237.65" y="385.37" width="25.69" height="16.7"/><rect class="e" x="104.45" y="385.37" width="25.69" height="16.7"/><rect class="e" x="193.25" y="385.37" width="25.69" height="16.7"/><rect class="e" x="148.85" y="385.37" width="25.69" height="16.7"/></g><g><rect class="e" x="0" y="73.78" width="12.65" height="26.19"/><rect class="e" x="0" y="150.58" width="12.65" height="26.19"/><rect class="e" x="0" y="227.38" width="12.65" height="26.19"/><rect class="e" x="0" y="304.17" width="12.65" height="26.19"/></g><g><rect class="e" x="311.13" y="73.78" width="10.94" height="26.19"/><rect class="e" x="311.13" y="150.58" width="10.94" height="26.19"/><rect class="e" x="311.13" y="227.38" width="10.94" height="26.19"/><rect class="e" x="311.13" y="304.17" width="10.94" height="26.19"/></g></g><rect class="f" x="12.76" y="16.2" width="298.1" height="371.74" rx="49.83" ry="49.83"/></g></g></g></svg>