<?xml version="1.0" encoding="UTF-8"?><svg id="a" xmlns="http://www.w3.org/2000/svg" xmlns:xlink="http://www.w3.org/1999/xlink" viewBox="0 0 939.69 880.63"><defs><style>.bf{fill:#6d0752;}.bg{fill:url(#t);}.bh{fill:url(#r);}.bi{fill:#3c2139;}.bj{fill:url(#ai);}.bk{fill:url(#y);}.bl{fill:url(#l);}.bm{letter-spacing:-.02em;}.bn{letter-spacing:-.02em;}.bo{fill:url(#af);}.bp{fill:#f58f78;}.bq{fill:#da6283;}.br{fill:url(#u);}.bs{fill:url(#ah);}.bt{fill:url(#v);}.bu{fill:url(#a`);}.bv{opacity:.1;}.bv,.bw{fill:#fff;}.bx{fill:url(#m);}.by{font-family:JungleFever, JungleFever;font-size:26.98px;}.by,.c`{fill:#9b3979;}.ca{fill:#570834;}.cb{letter-spacing:0em;}.cc{letter-spacing:-.03em;}.cd{fill:#902475;}.ce{fill:#f2797a;}.cf{font-size:65.53px;}.cf,.cg{fill:#6b0063;font-family:Bombing, Bombing;}.ch{fill:#9b1c49;}.ci{fill:#ba2b5f;}.cj{fill:url(#f);}.ck{fill:url(#ae);}.cl{letter-spacing:.02em;}.cm{fill:url(#p);}.cn{fill:url(#g);}.co{fill:url(#ad);}.cp{fill:url(#ab);}.cq{fill:url(#ak);}.cr{fill:url(#b);}.cs{clip-path:url(#c);}.ct{fill:#782c71;}.cu{fill:url(#i);}.cv{fill:#b6427c;}.cw{letter-spacing:0em;}.cx{fill:url(#aj);}.cy{letter-spacing:-.02em;}.d`{fill:url(#h);}.da{fill:#7e49a4;}.db{fill:#ef6f66;}.dc{fill:url(#d);}.dd{fill:url(#e);}.de{fill:url(#am);}.df{fill:#ef6e66;}.dg{fill:none;}.dh{letter-spacing:-.02em;}.di{fill:url(#x);}.dj{fill:#bc356a;}.dk{fill:#df6b90;}.dl{fill:url(#aa);}.dm{fill:url(#s);}.dn{fill:url(#n);}.do{fill:#a2529b;}.dp{fill:url(#ac);}.dq{fill:#c34780;}.dr{fill:url(#w);}.ds{fill:#6e113f;}.cg{font-size:46.96px;}.dt{fill:url(#al);}.du{fill:url(#j);}.dv{fill:url(#o);}.dw{fill:#9b718d;opacity:.5;}.dx{fill:url(#q);}.dy{fill:url(#ag);}.e`{fill:url(#k);}.bw{opacity:.05;}</style><linearGradient id="b" x1="356.27" y1="489.48" x2="369.42" y2="-26.55" gradientTransform="matrix(1, 0, 0, 1, 0, 0)" gradientUnits="userSpaceOnUse"><stop offset="0" stop-color="#ffee94"/><stop offset=".26" stop-color="#f7a591"/><stop offset=".4" stop-color="#ed8291"/><stop offset=".54" stop-color="#e66791"/><stop offset=".61" stop-color="#e45e92"/><stop offset=".69" stop-color="#d96096"/><stop offset=".83" stop-color="#bc68a1"/><stop offset="1" stop-color="#8f74b3"/></linearGradient><clipPath id="c"><rect class="dg" x="55.37" width="616.27" height="400.17"/></clipPath><linearGradient id="d" x1="501.01" y1="396.23" x2="503.48" y2="133.28" gradientTransform="matrix(1, 0, 0, 1, 0, 0)" gradientUnits="userSpaceOnUse"><stop offset=".03" stop-color="#ba2b5f"/><stop offset=".3" stop-color="#c8375c"/><stop offset=".8" stop-color="#ec5857"/><stop offset=".84" stop-color="#f05b57"/></linearGradient><linearGradient id="e" x1="564.25" y1="385.6" x2="564.25" y2="31.04" gradientTransform="matrix(1, 0, 0, 1, 0, 0)" gradientUnits="userSpaceOnUse"><stop offset=".03" stop-color="#ba2b5f"/><stop offset=".39" stop-color="#c5396c"/><stop offset=".84" stop-color="#d95184"/></linearGradient><linearGradient id="f" x1="-964.37" y1="398.51" x2="-959.06" y2="173.72" gradientTransform="translate(-384.28) rotate(-180) scale(1 -1)" xlink:href="#d"/><linearGradient id="g" x1="-978.85" y1="414.46" x2="-972.95" y2="164.54" gradientTransform="translate(-384.28) rotate(-180) scale(1 -1)" xlink:href="#d"/><linearGradient id="h" x1="-995.26" y1="416.51" x2="-988.5" y2="130.12" gradientTransform="translate(-384.28) rotate(-180) scale(1 -1)" xlink:href="#d"/><linearGradient id="i" x1="-1004.22" y1="396.97" x2="-1003.48" y2="187.78" gradientTransform="translate(-384.28) rotate(-180) scale(1 -1)" gradientUnits="userSpaceOnUse"><stop offset="0" stop-color="#9b1c49"/><stop offset=".43" stop-color="#a52150"/><stop offset="1" stop-color="#ba2b5f"/></linearGradient><linearGradient id="j" x1="-1002.31" y1="293.29" x2="-1000.39" y2="159.63" xlink:href="#i"/><linearGradient id="k" x1="-1003.6" y1="397.03" x2="-1002.82" y2="175.65" xlink:href="#i"/><linearGradient id="l" x1="526.67" y1="374.86" x2="527.27" y2="266.65" gradientTransform="matrix(1, 0, 0, 1, 0, 0)" xlink:href="#i"/><linearGradient id="m" x1="557.55" y1="373.65" x2="558.15" y2="265.4" gradientTransform="matrix(1, 0, 0, 1, 0, 0)" xlink:href="#i"/><linearGradient id="n" x1="544.92" y1="415.87" x2="546.15" y2="272.9" gradientTransform="matrix(1, 0, 0, 1, 0, 0)" xlink:href="#i"/><linearGradient id="o" x1="504.64" y1="415.84" x2="505.87" y2="273.05" xlink:href="#d"/><linearGradient id="p" x1="105.91" y1="395.48" x2="107.03" y2="79.45" gradientTransform="matrix(1, 0, 0, 1, 0, 0)" xlink:href="#i"/><linearGradient id="q" x1="145.7" y1="392.71" x2="153.1" y2="79.66" xlink:href="#d"/><linearGradient id="r" x1="281.28" y1="395.91" x2="288.68" y2="82.86" xlink:href="#d"/><linearGradient id="s" x1="265.13" y1="395.53" x2="272.52" y2="82.48" xlink:href="#d"/><linearGradient id="t" x1="250.79" y1="395.19" x2="258.19" y2="82.14" xlink:href="#d"/><linearGradient id="u" x1="210.1" y1="420.91" x2="218.32" y2="185.09" gradientTransform="matrix(1, 0, 0, 1, 0, 0)" xlink:href="#i"/><linearGradient id="v" x1="352.47" y1="397.59" x2="359.86" y2="84.54" xlink:href="#d"/><linearGradient id="w" x1="342.24" y1="397.35" x2="349.63" y2="84.3" xlink:href="#d"/><linearGradient id="x" x1="317.44" y1="396.2" x2="318.43" y2="117.54" gradientTransform="matrix(1, 0, 0, 1, 0, 0)" xlink:href="#i"/><linearGradient id="y" x1="306.39" y1="127.53" x2="306.55" y2="84.53" gradientTransform="matrix(1, 0, 0, 1, 0, 0)" xlink:href="#i"/><linearGradient id="a`" x1="331.51" y1="146.19" x2="331.67" y2="103.19" gradientTransform="matrix(1, 0, 0, 1, 0, 0)" xlink:href="#i"/><linearGradient id="aa" x1="318.08" y1="383.68" x2="319.07" y2="105.03" gradientTransform="matrix(1, 0, 0, 1, 0, 0)" xlink:href="#i"/><linearGradient id="ab" x1="367.91" y1="375.43" x2="368.51" y2="267.11" gradientTransform="matrix(1, 0, 0, 1, 0, 0)" xlink:href="#i"/><linearGradient id="ac" x1="397.66" y1="375.79" x2="398.26" y2="267.57" gradientTransform="matrix(1, 0, 0, 1, 0, 0)" xlink:href="#i"/><linearGradient id="ad" x1="368.08" y1="364.01" x2="368.68" y2="255.8" gradientTransform="matrix(1, 0, 0, 1, 0, 0)" xlink:href="#i"/><linearGradient id="ae" x1="415.74" y1="375.38" x2="416.34" y2="267.16" gradientTransform="matrix(1, 0, 0, 1, 0, 0)" xlink:href="#i"/><linearGradient id="af" x1="384.64" y1="400.74" x2="380.22" y2="275.16" gradientTransform="matrix(1, 0, 0, 1, 0, 0)" xlink:href="#i"/><linearGradient id="ag" x1="327.57" y1="397" x2="334.96" y2="83.95" xlink:href="#d"/><linearGradient id="ah" x1="434.23" y1="399.52" x2="441.63" y2="86.47" xlink:href="#d"/><linearGradient id="ai" x1="240.57" y1="400.75" x2="271.14" y2="400.75" xlink:href="#d"/><linearGradient id="aj" x1="451.92" y1="400.75" x2="482.49" y2="400.75" xlink:href="#d"/><linearGradient id="ak" x1="293.41" y1="400.75" x2="323.98" y2="400.75" xlink:href="#d"/><linearGradient id="al" x1="399.08" y1="400.75" x2="429.65" y2="400.75" xlink:href="#d"/><linearGradient id="am" x1="346.24" y1="400.75" x2="376.81" y2="400.75" xlink:href="#d"/></defs><g><g><rect class="cr" x="55.37" y="0" width="616.27" height="410.85"/><g><g class="cs"><path class="bv" d="M671.6,342.98V192.97c-5.1-3.57-10.9-6.25-17.16-7.78-.09-27.62-22.91-49.99-51.06-49.99-24.24,0-44.53,16.6-49.75,38.85-6.8-3.3-14.46-5.15-22.56-5.15-16.69,0-31.5,7.86-40.82,20.02-5.5-21.87-25.6-38.1-49.57-38.1-28.2,0-51.07,22.45-51.07,50.15,0,2.6,.2,5.16,.59,7.65-7.23-3.85-15.5-6.03-24.3-6.03-3.19,0-6.31,.3-9.34,.85-9.17-13.4-24.74-22.22-42.41-22.22-1.54,0-3.07,.08-4.58,.21-7.11-19.29-25.93-33.08-48.03-33.08-8.1,0-15.76,1.86-22.56,5.16-5.22-22.25-25.5-38.85-49.75-38.85-18.73,0-35.09,9.9-43.98,24.66-17.31,.14-32.57,8.74-41.7,21.79-4.62-1.35-9.51-2.08-14.57-2.08-12.9,0-24.67,4.7-33.66,12.45v75.93h0v152.74H671.6v-57.17h0Z"/><path class="bv" d="M700.08,385.16V235.15c-5.1-3.57-10.9-6.25-17.16-7.78-.09-27.62-22.91-49.99-51.06-49.99-24.24,0-44.53,16.6-49.75,38.85-6.8-3.3-14.46-5.15-22.56-5.15-16.69,0-31.5,7.86-40.82,20.02-5.5-21.87-25.6-38.1-49.57-38.1-28.2,0-51.07,22.45-51.07,50.15,0,2.6,.2,5.16,.59,7.65-7.23-3.85-15.5-6.03-24.3-6.03-3.19,0-6.31,.3-9.34,.85-9.17-13.4-24.74-22.22-42.41-22.22-1.54,0-3.07,.08-4.58,.21-7.11-19.29-25.93-33.08-48.03-33.08-8.1,0-15.76,1.86-22.56,5.16-5.22-22.25-25.5-38.85-49.75-38.85-18.73,0-35.09,9.9-43.98,24.66-17.31,.14-32.57,8.74-41.7,21.79-4.62-1.35-9.51-2.08-14.57-2.08-12.9,0-24.67,4.7-33.66,12.45v75.93h0v152.74H700.08v-57.17h0Z"/><path class="bv" d="M616.27,408.99v-150.01c-5.1-3.57-10.9-6.25-17.16-7.78-.09-27.62-22.91-49.99-51.06-49.99-24.24,0-44.53,16.6-49.75,38.85-6.8-3.3-14.46-5.15-22.56-5.15-16.69,0-31.5,7.86-40.82,20.02-5.5-21.87-25.6-38.1-49.57-38.1-28.2,0-51.07,22.45-51.07,50.15,0,2.6,.2,5.16,.59,7.65-7.23-3.85-15.5-6.03-24.3-6.03-3.19,0-6.31,.3-9.34,.85-9.17-13.4-24.74-22.22-42.41-22.22-1.54,0-3.07,.08-4.58,.21-7.11-19.29-25.93-33.08-48.03-33.08-8.1,0-15.76,1.86-22.56,5.16-5.22-22.25-25.5-38.85-49.75-38.85-18.73,0-35.09,9.9-43.98,24.66-17.31,.14-32.57,8.74-41.7,21.79-4.62-1.35-9.51-2.08-14.57-2.08-12.9,0-24.67,4.7-33.66,12.45v75.93h0v152.74H616.27v-57.17h0Z"/></g><g><path class="bw" d="M321.47,88.77S194.93,75.08,127.55,.21L55.37,0s96,87.96,266.09,88.76Z"/><path class="bw" d="M405.01,89.84S531.72,75.08,599.1,.21L671.64,0s-96.55,89.03-266.64,89.84Z"/><path class="bw" d="M305.14,74.27S186.51,52.44,175,.1h20.34s-6.06,32.71,109.8,74.17Z"/><path class="bw" d="M424.9,74.27S543.84,52.37,555.35,.03l-20.78,.07s6.2,32.71-109.66,74.17Z"/></g></g></g><g><g><g><g><rect class="dq" x="142.87" y="143.38" width="75.6" height="257.06"/><rect class="dq" x="239.01" y="168.03" width="33.35" height="231.86"/><g><rect class="dq" x="372.94" y="169.42" width="33.35" height="230.85"/><rect class="dq" x="379.5" y="148.56" width="18.9" height="205.89"/><rect class="dq" x="386.49" y="110.52" width="6.57" height="205.89"/></g><g><rect class="dq" x="448.94" y="172.56" width="83.42" height="222.95"/><polygon class="dq" points="515.05 399.89 423.06 399.89 423.46 251.44 515.05 215.28 515.05 399.89"/></g></g><g><rect class="cv" x="446.07" y="269.38" width="33.35" height="131.06"/><rect class="cv" x="260.37" y="225" width="33.35" height="174.34"/><rect class="cv" x="145.33" y="180.63" width="33.35" height="217.07"/></g></g><g><g><g><g><polygon class="dc" points="539.84 400.17 464.25 400.17 464.62 132.82 539.84 103.87 539.84 400.17"/><polygon class="dd" points="589.1 399.62 539.39 399.62 539.39 103.6 588.83 127.71 589.1 399.62"/></g><g><polygon class="bp" points="478.13 151.78 473.36 153.34 473.36 142.42 478.19 140.83 478.13 151.78"/><g><polygon class="bp" points="495.19 176.65 490.43 178.22 490.43 167.29 495.26 165.7 495.19 176.65"/><polygon class="bp" points="529.15 165.15 524.39 166.71 524.39 155.78 529.22 154.2 529.15 165.15"/></g><g><polygon class="bp" points="478.19 212.72 473.43 214.28 473.43 203.36 478.26 201.77 478.19 212.72"/><polygon class="bp" points="529.14 195.47 524.37 197.03 524.37 186.1 529.21 184.51 529.14 195.47"/></g><g><polygon class="ce" points="495.31 237.44 490.55 239 490.55 228.08 495.38 226.49 495.31 237.44"/><polygon class="ce" points="512.3 231.69 507.53 233.25 507.53 222.32 512.36 220.74 512.3 231.69"/></g><g><polygon class="ce" points="495.21 267.88 490.45 269.44 490.45 258.51 495.28 256.92 495.21 267.88"/><polygon class="ce" points="529.17 256.38 524.41 257.94 524.41 247.01 529.24 245.42 529.17 256.38"/></g><polygon class="dk" points="512.18 292.63 507.41 294.19 507.41 283.27 512.24 281.68 512.18 292.63"/><g><polygon class="dk" points="478.2 334.61 473.44 336.17 473.44 325.24 478.27 323.65 478.2 334.61"/><polygon class="dk" points="495.19 328.86 490.42 330.42 490.42 319.49 495.25 317.9 495.19 328.86"/></g><polygon class="dk" points="529.18 348.05 524.41 349.58 524.48 338.65 529.33 337.09 529.18 348.05"/><g><polygon class="dk" points="477.7 395.24 472.87 396.6 473.33 385.69 478.22 384.3 477.7 395.24"/><polygon class="dk" points="529.32 380.13 524.49 381.49 524.95 370.57 529.84 369.18 529.32 380.13"/></g></g></g><g><g><g><g><polygon class="cj" points="564.45 400.23 591.43 400.23 591.43 215.76 564.77 225.43 564.45 400.23"/><polygon class="cn" points="582.44 400.23 601.18 400.23 601.18 195.14 582.41 204.2 582.44 400.23"/><polygon class="d`" points="598.87 400.23 617.62 400.23 616.77 165.23 597.59 178.95 598.87 400.23"/></g><g><polygon class="cu" points="591.44 399.96 647.68 399.96 647.68 181.03 591.42 207.11 591.44 399.96"/><polygon class="du" points="625.8 202.8 607.23 217.87 607.23 172.88 625.8 157.81 625.8 202.8"/><polygon class="e`" points="601.43 400.23 636.4 400.23 636.4 168.55 601.16 189.61 601.43 400.23"/></g></g><g><rect class="bq" x="637.58" y="199.55" width="4.87" height="10.93" transform="translate(1280.03 410.03) rotate(-180)"/><g><rect class="bq" x="624.71" y="230.64" width="4.87" height="10.93" transform="translate(1254.29 472.2) rotate(-180)"/><rect class="bq" x="598.96" y="230.57" width="4.87" height="10.93" transform="translate(1202.8 472.07) rotate(-180)"/></g><g><rect class="bq" x="637.58" y="261.78" width="4.87" height="10.93" transform="translate(1280.03 534.49) rotate(-180)"/><rect class="bq" x="611.84" y="261.72" width="4.87" height="10.93" transform="translate(1228.54 534.37) rotate(-180)"/></g><g><rect class="bq" x="611.84" y="292.84" width="4.87" height="10.93" transform="translate(1228.54 596.6) rotate(-180)"/><rect class="bq" x="598.96" y="292.81" width="4.87" height="10.93" transform="translate(1202.8 596.54) rotate(-180)"/></g><rect class="bq" x="637.58" y="324.02" width="4.87" height="10.93" transform="translate(1280.03 658.96) rotate(-180)"/><rect class="bq" x="598.96" y="351.14" width="4.87" height="10.93" transform="translate(1202.8 713.2) rotate(-180)"/><g><rect class="bq" x="624.88" y="380.6" width="4.87" height="10.93" transform="translate(1254.62 772.12) rotate(-180)"/><rect class="bq" x="612" y="380.57" width="4.87" height="10.93" transform="translate(1228.88 772.06) rotate(-180)"/></g></g></g><g><rect class="bl" x="525.29" y="256.88" width="3.36" height="130.1"/><rect class="bx" x="552.13" y="255.65" width="11.44" height="130.1"/><g><g><rect class="dn" x="516.73" y="268.93" width="57.79" height="131.47"/><polygon class="dv" points="516.73 268.93 493.79 288.79 492.97 400.54 516.73 400.41 516.73 268.93"/></g><g><g><rect class="bq" x="525.59" y="280.14" width="4.87" height="10.93"/><rect class="bq" x="538.46" y="280.1" width="4.87" height="10.93"/></g><rect class="bq" x="563.8" y="310.03" width="4.87" height="10.93"/><g><rect class="bq" x="524.77" y="340.12" width="4.87" height="10.93"/><rect class="bq" x="563.39" y="340.03" width="4.87" height="10.93"/></g><rect class="bq" x="550.1" y="370.05" width="4.87" height="10.93"/></g></g></g></g></g><g><g><g><rect class="cm" x="78.36" y="69.5" width="56.24" height="330.55"/><polygon class="dx" points="164.29 400.05 134.58 400.05 134.58 69.5 164.12 83.5 164.29 400.05"/></g><g><g><rect class="bq" x="84.7" y="83.55" width="4.87" height="10.93"/><rect class="bq" x="84.7" y="111.01" width="4.87" height="10.93"/><rect class="bq" x="123.32" y="110.92" width="4.87" height="10.93"/><rect class="bq" x="110.45" y="138.41" width="4.87" height="10.93"/><rect class="bq" x="84.7" y="165.93" width="4.87" height="10.93"/><rect class="bq" x="97.58" y="165.9" width="4.87" height="10.93"/><rect class="bq" x="110.45" y="193.33" width="4.87" height="10.93"/><rect class="bq" x="123.32" y="193.3" width="4.87" height="10.93"/><rect class="bq" x="84.7" y="220.86" width="4.87" height="10.93"/><rect class="bq" x="123.32" y="220.76" width="4.87" height="10.93"/><rect class="bq" x="97.58" y="248.29" width="4.87" height="10.93"/><rect class="bq" x="84.7" y="275.78" width="4.87" height="10.93"/><rect class="bq" x="123.32" y="303.15" width="4.87" height="10.93"/><rect class="bq" x="84.7" y="330.7" width="4.87" height="10.93"/><rect class="bq" x="84.7" y="358.16" width="4.87" height="10.93"/><rect class="bq" x="123.32" y="358.07" width="4.87" height="10.93"/></g><g><rect class="ci" x="79.24" y="128.98" width="52.49" height=".75"/><rect class="dj" x="80.74" y="102.24" width="52.49" height=".75"/><rect class="ci" x="80.24" y="156.23" width="52.49" height=".75"/><rect class="ci" x="81.24" y="183.47" width="52.49" height=".75"/><rect class="ci" x="82.24" y="210.71" width="52.49" height=".75"/><rect class="ci" x="80.05" y="237.77" width="52.49" height=".75"/><rect class="ci" x="80.3" y="265.2" width="52.49" height=".75"/><rect class="ci" x="80.74" y="292.25" width="52.49" height=".75"/><rect class="ci" x="80.99" y="319.87" width="52.49" height=".75"/><rect class="ci" x="80.86" y="346.87" width="52.49" height=".75"/><rect class="ci" x="80.08" y="374.08" width="52.49" height=".75"/></g></g></g><g><g><rect class="ch" x="193.84" y="205.54" width="2.9" height="54.31"/><g><g><polygon class="bh" points="292.15 400.68 273.31 400.68 273.31 268.62 292.04 276.08 292.15 400.68"/><polygon class="dm" points="277.4 287.34 258.89 287.34 258.89 248.24 277.31 256.58 277.4 287.34"/><polygon class="bg" points="266.91 255.18 241.89 255.18 241.89 229.55 266.66 240.71 266.91 255.18"/></g><polygon class="br" points="258.9 268.42 258.9 248.06 241.69 248.06 241.69 229.36 184.44 229.36 184.44 248.06 167.28 248.06 167.28 268.42 152.89 268.42 152.89 400.66 273.33 400.66 273.33 268.42 258.9 268.42"/></g></g><g><g><rect class="bq" x="191.55" y="234.09" width="4.87" height="10.93"/><rect class="bq" x="204.42" y="234.06" width="4.87" height="10.93"/><rect class="bq" x="217.3" y="234.03" width="4.87" height="10.93"/><rect class="bq" x="230.17" y="234" width="4.87" height="10.93"/></g><g><g><g><rect class="bq" x="164.54" y="280.11" width="4.87" height="10.93"/><rect class="bq" x="203.15" y="280.01" width="4.87" height="10.93"/></g><rect class="bq" x="228.85" y="279.93" width="4.87" height="10.93"/></g><g><g><rect class="bq" x="164.29" y="311.85" width="4.87" height="10.93"/><rect class="bq" x="177.16" y="311.82" width="4.87" height="10.93"/></g><g><rect class="bq" x="215.73" y="311.71" width="4.87" height="10.93"/><rect class="bq" x="254.35" y="311.61" width="4.87" height="10.93"/></g></g><g><rect class="bq" x="189.78" y="343.53" width="4.87" height="10.93"/><g><rect class="bq" x="241.22" y="343.39" width="4.87" height="10.93"/><rect class="bq" x="254.1" y="343.35" width="4.87" height="10.93"/></g></g><g><g><rect class="bq" x="163.79" y="375.33" width="4.87" height="10.93"/><rect class="bq" x="202.4" y="375.24" width="4.87" height="10.93"/></g><rect class="bq" x="228.1" y="375.16" width="4.87" height="10.93"/></g></g></g></g><g><g><g><polygon class="bt" points="364.81 400.21 346.07 400.21 346.07 143.31 364.59 156.78 364.81 400.21"/><polygon class="dr" points="355.07 379.59 336.32 379.59 336.32 122.69 355.1 134.03 355.07 379.59"/></g><g><polygon class="di" points="346.07 400.21 289.83 400.21 289.83 108.58 346.09 143.33 346.07 400.21"/><g><rect class="bk" x="305.35" y="83.17" width="2.25" height="44.99"/><rect class="bu" x="330.47" y="101.83" width="2.25" height="44.99"/></g><polygon class="dl" points="336.07 387.73 301.1 387.73 301.1 96.1 336.34 122.61 336.07 387.73"/></g></g><g><g><rect class="bq" x="295.05" y="127.1" width="4.87" height="10.93"/><g><rect class="bq" x="307.92" y="158.19" width="4.87" height="10.93"/><rect class="bq" x="333.66" y="158.12" width="4.87" height="10.93"/></g><g><rect class="bq" x="295.05" y="189.33" width="4.87" height="10.93"/><rect class="bq" x="320.79" y="189.27" width="4.87" height="10.93"/></g><g><rect class="bq" x="320.79" y="220.39" width="4.87" height="10.93"/><rect class="bq" x="333.66" y="220.36" width="4.87" height="10.93"/></g><rect class="bq" x="295.05" y="251.57" width="4.87" height="10.93"/><rect class="bq" x="333.66" y="282.59" width="4.87" height="10.93"/><g><rect class="bq" x="307.92" y="313.77" width="4.87" height="10.93"/><rect class="bq" x="320.79" y="313.74" width="4.87" height="10.93"/></g><g><rect class="bq" x="295.05" y="344.92" width="4.87" height="10.93"/><rect class="bq" x="333.66" y="344.82" width="4.87" height="10.93"/></g><g><rect class="bq" x="307.92" y="376" width="4.87" height="10.93"/><rect class="bq" x="333.66" y="375.94" width="4.87" height="10.93"/></g></g><g><rect class="ci" x="292.17" y="179.97" width="52.49" height=".75"/><rect class="ci" x="291.92" y="211.71" width="52.49" height=".75"/><rect class="ci" x="291.67" y="243.45" width="52.49" height=".75"/><rect class="ci" x="291.42" y="275.2" width="52.49" height=".75"/><rect class="ci" x="291.17" y="306.94" width="52.49" height=".75"/><rect class="ci" x="290.92" y="338.68" width="52.49" height=".75"/><rect class="ci" x="290.67" y="370.42" width="52.49" height=".75"/></g></g></g></g><g><g><rect class="cp" x="354.78" y="257.4" width="26.84" height="130.1"/><rect class="dp" x="396.28" y="257.81" width="3.36" height="130.1"/><rect class="co" x="366.7" y="246.03" width="3.36" height="130.1"/><rect class="ck" x="414.36" y="257.4" width="3.36" height="130.1"/></g><g><rect class="bo" x="337.51" y="277.53" width="89.91" height="122.7"/><polygon class="dy" points="337.48 400.2 319.59 400.2 319.8 303.38 337.48 277.53 337.48 400.2"/><polygon class="bs" points="443.92 400.21 427.42 400.21 427.42 277.54 443.94 303.38 443.92 400.21"/></g><g><g><g><rect class="bq" x="347.9" y="292.87" width="4.87" height="10.93"/><rect class="bq" x="386.51" y="292.77" width="4.87" height="10.93"/></g><g><g><rect class="bq" x="347.69" y="322.04" width="4.87" height="10.93"/><rect class="bq" x="360.57" y="322.01" width="4.87" height="10.93"/></g><rect class="bq" x="412.01" y="321.86" width="4.87" height="10.93"/></g><g><rect class="bq" x="373.23" y="351.14" width="4.87" height="10.93"/><rect class="bq" x="411.8" y="351.03" width="4.87" height="10.93"/></g><g><rect class="bq" x="347.28" y="380.38" width="4.87" height="10.93"/><rect class="bq" x="385.9" y="380.28" width="4.87" height="10.93"/></g></g><g><rect class="ci" x="344.92" y="276.98" width=".89" height="123.25"/><rect class="ci" x="357.08" y="276.98" width=".89" height="123.25"/><rect class="ci" x="369.22" y="276.98" width=".89" height="123.25"/><rect class="ci" x="381.41" y="276.95" width=".89" height="123.25"/><rect class="ci" x="393.53" y="276.98" width=".89" height="123.25"/><rect class="ci" x="405.7" y="276.97" width=".89" height="123.25"/><rect class="ci" x="417.85" y="276.98" width=".89" height="123.25"/></g></g></g></g></g><g><g><g><g><g><ellipse class="ds" cx="188.88" cy="380.72" rx="11.03" ry="11.53"/><rect class="ca" x="187.61" y="384.14" width="2.9" height="17.77"/></g><g><ellipse class="ds" cx="424.82" cy="380.8" rx="11.03" ry="11.53"/><rect class="ca" x="423.56" y="384.23" width="2.9" height="17.77"/></g></g><g><g><polygon class="ds" points="147.78 369.22 138.48 392.82 157.09 393 147.78 369.22"/><rect class="ca" x="146.28" y="386.02" width="3" height="18.39"/></g><g><polygon class="ds" points="317.05 369.26 307.75 392.86 326.36 393.04 317.05 369.26"/><rect class="ca" x="315.55" y="386.06" width="3" height="18.39"/></g><g><polygon class="ds" points="457.56 368.85 448.26 392.45 466.87 392.63 457.56 368.85"/><rect class="ca" x="456.06" y="385.65" width="3" height="18.39"/></g><g><polygon class="ds" points="598.07 368.44 588.77 392.04 607.38 392.22 598.07 368.44"/><rect class="ca" x="596.57" y="385.24" width="3" height="18.39"/></g></g></g><g><g><g><polygon class="ds" points="266.31 392.36 247.42 392.36 247.42 385.99 260.7 386.06 266.31 392.36"/><rect class="ds" x="239.68" y="390.61" width="30.95" height="6.37"/></g><ellipse class="ds" cx="245.81" cy="397.29" rx="2.98" ry="2.64"/><ellipse class="ds" cx="264.57" cy="397.32" rx="2.98" ry="2.64"/></g><g><g><polygon class="ds" points="539.66 392.7 520.77 392.7 520.77 386.33 534.05 386.4 539.66 392.7"/><rect class="ds" x="513.03" y="390.96" width="30.95" height="6.37"/></g><ellipse class="ds" cx="519.16" cy="397.63" rx="2.98" ry="2.64"/><ellipse class="ds" cx="537.92" cy="397.67" rx="2.98" ry="2.64"/></g></g></g><rect class="ds" x="55.38" y="399.96" width="619.03" height="10.87"/></g></g></g><g><rect class="bj" x="240.57" y="394.14" width="30.57" height="13.23"/><rect class="cx" x="451.92" y="394.14" width="30.57" height="13.23"/><rect class="cq" x="293.41" y="394.14" width="30.57" height="13.23"/><rect class="dt" x="399.08" y="394.14" width="30.57" height="13.23"/><rect class="de" x="346.24" y="394.14" width="30.57" height="13.23"/></g><g><rect class="db" x="509.29" y="82.39" width="11.52" height="26.19"/><rect class="db" x="509.29" y="159.19" width="11.52" height="26.19"/><rect class="db" x="509.29" y="235.99" width="11.52" height="26.19"/><rect class="db" x="509.29" y="312.78" width="11.52" height="26.19"/></g><g><g><path class="c`" d="M472.08,10.68H250.98c-27.52,0-49.83,22.31-49.83,49.83V360.86c0,27.52,22.31,49.83,49.83,49.83h221.11c27.52,0,49.83-22.31,49.83-49.83V60.51c0-27.52-22.31-49.83-49.83-49.83Zm38.5,336.04c0,27.52-22.31,49.83-49.83,49.83h-198.45c-27.52,0-49.83-22.31-49.83-49.83V74.64c0-27.52,22.31-49.83,49.83-49.83h198.45c27.52,0,49.83,22.31,49.83,49.83V346.73Z"/><g><rect class="db" x="259.89" y="8.61" width="25.69" height="16.2"/><rect class="db" x="437.48" y="8.61" width="25.69" height="16.2"/><rect class="db" x="304.29" y="8.61" width="25.69" height="16.2"/><rect class="db" x="393.08" y="8.61" width="25.69" height="16.2"/><rect class="db" x="348.69" y="8.61" width="25.69" height="16.2"/></g><g><rect class="db" x="259.89" y="393.98" width="25.69" height="16.7"/><rect class="db" x="437.48" y="393.98" width="25.69" height="16.7"/><rect class="db" x="304.29" y="393.98" width="25.69" height="16.7"/><rect class="db" x="393.08" y="393.98" width="25.69" height="16.7"/><rect class="db" x="348.69" y="393.98" width="25.69" height="16.7"/></g><g><rect class="db" x="199.83" y="82.39" width="12.65" height="26.19"/><rect class="db" x="199.83" y="159.19" width="12.65" height="26.19"/><rect class="db" x="199.83" y="235.99" width="12.65" height="26.19"/><rect class="db" x="199.83" y="312.78" width="12.65" height="26.19"/></g><g><rect class="db" x="510.97" y="82.39" width="10.94" height="26.19"/><rect class="db" x="510.97" y="159.19" width="10.94" height="26.19"/><rect class="db" x="510.97" y="235.99" width="10.94" height="26.19"/><rect class="db" x="510.97" y="312.78" width="10.94" height="26.19"/></g></g><rect class="dw" x="212.59" y="24.81" width="298.1" height="371.74" rx="49.83" ry="49.83"/></g><g><circle class="c`" cx="406.72" cy="352.81" r="24.05"/><circle class="df" cx="404.73" cy="352.81" r="20.95"/><g id="an" transform="matrix(0.28529892,1.1237354,-1.1237354,0.28529892,360.44393,-304.32647)"><g id="ao"><path class="cd" d="M402.69,342.16s-.06,.1-.1,.14l-1.82,2.3c-.46,.57-1.29,.67-1.87,.21-.57-.46-.67-1.29-.21-1.87l1.82-2.3c.46-.57,1.29-.67,1.87-.22h0c.28,.22,.45,.54,.49,.89,.03,.3-.03,.59-.18,.84Zm-3.59,1.23c-.19,.31-.12,.72,.17,.95,.32,.25,.78,.2,1.03-.12l1.82-2.3c.25-.32,.2-.78-.12-1.03h0c-.32-.25-.78-.2-1.03,.12l-1.82,2.3s-.04,.05-.05,.08Zm3.09-2.73h0Z"/></g><g id="ap"><path class="ct" d="M398.12,345.89s.69-2,1.2-2.02c.51-.02,.6,.07,.51,.5-.09,.43-.32,1.83-.32,1.83l-1.38-.31Z"/></g><g id="aq"><path class="ct" d="M393.67,348.87s-3.2,1.28-4.87,3.9c-1.68,2.62-1.11,5.52,.12,7.26,1.24,1.74,4.23,2.73,4.23,2.73l.99-1.95s-2.45-.66-3.58-2.21c-1.14-1.55-.68-4.62,1.51-6.28,2.19-1.66,4.06-2.54,8.94,.15-.5-2.32-3.27-3.24-3.27-3.24l-4.07-.35Z"/></g><g id="ar"><path class="cd" d="M394.13,345.46l-1.86,4.58s4.68-.22,6.79,1.49c2.11,1.71,3.63,6.23,1.66,7.97-1.97,1.74-4.16,2.34-5.21,1.64-1.04-.7-2.25-1.55-3.24-.1-.99,1.45-.38,2.49,1.78,2.58,2.16,.09,5.97,.78,8.52-2.77,2.55-3.55,1.07-7.38,.61-8.66-.47-1.28-.26-4.06-.26-4.06,0,0-2.34-4.16-8.79-2.67h0Z"/></g><g id="as"><path class="bi" d="M396.23,347.47c.08-.26-.21-.74-.67-.59-.58,.19-.25,.81-.25,.81l-.63,1.01,1.1,.26v-1.14s.34-.02,.44-.36h0Z"/></g><g id="at"><path class="do" d="M402,347.69s-2.89-3.2-7.47-1.93c-.75,1.93-1.61,3.82-1.61,3.82l.88,.1,1.44-3.42s2.4-.98,6.77,1.43h0Z"/></g><g id="au"><path class="do" d="M391.76,350.2s-3.39,2.2-3.64,5.65c-.24,1.74,.66,3.43,1.19,4.11-.88-2.71-.87-4.06-.32-5.49,.55-1.42,2.45-3.57,3.75-4.14-.84,.14-.98-.13-.98-.13Z"/></g><g id="av"><path class="bi" d="M393.67,361.11c-.54-.11-1.15,.62-1,1.06,.15,.44,.86,.54,1.24,.21,.39-.34,.43-1.23-.24-1.26h0Z"/></g><g id="aw"><path class="cd" d="M406.51,342.85c-.14,.22-.33,.4-.58,.52-.32,.15-.68,.17-1.02,.04l-2.75-1c-.69-.25-1.04-1.02-.79-1.7,.25-.69,1.02-1.04,1.7-.79l2.75,1c.33,.12,.6,.37,.75,.69,.15,.32,.17,.68,.04,1.02-.03,.08-.07,.16-.11,.23Zm-4.52-2.07s-.04,.08-.06,.13c-.14,.38,.06,.8,.44,.94l2.75,1c.18,.07,.38,.06,.56-.02,.18-.08,.31-.23,.38-.41h0c.07-.18,.06-.38-.02-.56-.08-.18-.23-.31-.41-.38l-2.75-1c-.33-.12-.7,.02-.88,.31Z"/></g><g id="ax"><path class="cd" d="M410.22,342.83h0c-.18,.31-.48,.52-.82,.6l-2.85,.7c-.71,.17-1.43-.26-1.61-.97-.17-.71,.26-1.43,.97-1.61l2.85-.7c.34-.08,.7-.03,1.01,.15,.3,.18,.52,.48,.6,.82,.08,.34,.03,.7-.15,1Zm-4.61-.37c-.1,.16-.13,.36-.09,.55,.1,.39,.49,.63,.89,.54l2.85-.7c.19-.05,.35-.16,.45-.33h0c.1-.17,.13-.37,.08-.56-.05-.19-.16-.35-.33-.45-.17-.1-.36-.13-.56-.09l-2.85,.7c-.2,.05-.36,.17-.45,.33Z"/></g><g id="ay"><path class="ct" d="M409.3,344.67s-.86-1.94-.5-2.29c.36-.36,.49-.36,.71,.02,.22,.37,1.01,1.56,1.01,1.56l-1.22,.72Z"/></g><g id="b`"><path class="ct" d="M408.07,349.88s-1.47,3.11-.92,6.17c.55,3.06,2.94,4.8,5.03,5.24,2.09,.43,4.95-.88,4.95-.88l-.6-2.1s-2.24,1.18-4.13,.82c-1.89-.36-3.64-2.92-3.17-5.63,.47-2.71,1.25-4.62,6.66-5.97-1.94-1.36-4.6-.15-4.6-.15l-3.22,2.51Z"/></g><g id="ba"><path class="cd" d="M406.09,347.07l1.75,4.63s3.28-3.34,5.99-3.52c2.71-.18,6.9,2.1,6.64,4.72-.26,2.61-1.46,4.55-2.7,4.74-1.24,.19-2.71,.4-2.44,2.13,.26,1.73,1.41,2.08,3.06,.68,1.65-1.4,4.91-3.49,4.36-7.82-.55-4.33-4.23-6.14-5.44-6.76-1.21-.62-2.95-2.8-2.95-2.8,0,0-4.55-1.46-8.26,4.01h0Z"/></g><g id="bb"><path class="bi" d="M408.99,347.11c-.12-.25-.66-.4-.89,.02-.29,.53,.37,.76,.37,.76l.23,1.17,.99-.56-.76-.84s.22-.23,.07-.55h0Z"/></g><g id="bc"><path class="do" d="M413.37,343.35s-4.29-.38-6.79,3.67c.76,1.93,1.42,3.9,1.42,3.9l.71-.53-1.28-3.49s1.09-2.34,5.94-3.56Z"/></g><g id="bd"><path class="do" d="M407.57,352.16s-.99,3.92,1.17,6.62c1,1.44,2.82,2.07,3.67,2.2-2.49-1.39-3.4-2.39-3.97-3.81-.57-1.41-.64-4.28-.06-5.59-.52,.67-.81,.57-.81,.57h0Z"/></g><g id="be"><path class="bi" d="M416.39,358.85c-.46,.29-.43,1.23-.02,1.46,.41,.22,1-.18,1.05-.69,.05-.51-.52-1.2-1.04-.76Z"/></g></g></g><g><circle class="c`" cx="467.37" cy="351.49" r="24.05"/><circle class="df" cx="465.37" cy="351.49" r="20.95"/><g><g><path class="bf" d="M467.69,346.8s-.06-.03-.09-.01c-.02,.01-.03,.03-.04,.05-.02,.03-.06,.05-.1,.05l.02-.19v-.19c.1-.11,.17-.22,.23-.35,.05-.11,.08-.23,.06-.35,0-.03-.02-.06-.04-.08-.02-.02-.06-.03-.09,0-.02,.01-.02,.04-.04,.05-.02,.03-.05,.05-.09,.06v-.1s0-.1,0-.1v-.19c.07-.11,.13-.24,.18-.37,.04-.11,.07-.24,.03-.35,0-.03-.02-.06-.05-.07-.03-.02-.07-.02-.09,0-.02,.01-.02,.04-.03,.06-.02,.03-.05,.06-.08,.07l-.02-.19-.02-.18c.07-.12,.13-.25,.17-.38,.03-.12,.04-.24,0-.35-.01-.03-.03-.06-.05-.07-.03-.02-.07-.02-.09,0-.02,.02-.02,.04-.03,.06-.01,.03-.04,.06-.08,.07l-.03-.19-.03-.18c.07-.12,.11-.25,.14-.38,.02-.12,.03-.24-.02-.35-.01-.03-.03-.05-.06-.07-.03-.01-.07-.01-.09,.01-.01,.02-.02,.04-.02,.06-.01,.03-.04,.06-.08,.08l-.04-.19-.04-.18c.06-.12,.1-.26,.12-.39,.02-.12,.03-.24-.03-.35-.01-.03-.03-.05-.06-.07-.03-.01-.07,0-.09,.01-.01,.02-.01,.04-.02,.06-.01,.03-.04,.06-.07,.08l-.05-.19-.05-.18c.05-.13,.09-.26,.11-.4,.01-.12,.01-.24-.05-.34-.01-.03-.03-.05-.06-.06-.03-.01-.07,0-.09,.02-.01,.02-.01,.04-.02,.06,0,.03-.04,.06-.07,.08l-.05-.19-.05-.18c.05-.13,.08-.26,.1-.4,.01-.12,.01-.24-.05-.35-.01-.03-.03-.05-.06-.06-.03-.01-.07,0-.09,.02-.01,.02-.01,.04-.02,.06,0,.03-.04,.07-.07,.08l-.05-.19-.05-.18c.05-.13,.08-.26,.09-.4,.01-.12,0-.24-.05-.34-.01-.03-.03-.05-.06-.06s-.07,0-.09,.02c-.01,.02-.01,.04-.02,.06,0,.03-.03,.07-.07,.08l-.06-.19-.06-.18c.05-.13,.08-.26,.09-.4,.01-.12,0-.24-.05-.34-.01-.03-.03-.05-.06-.06s-.07,0-.09,.02c-.01,.02-.01,.04-.02,.06,0,.03-.04,.07-.07,.08l-.06-.19-.05-.18c.05-.13,.08-.26,.09-.4,.01-.12,0-.24-.05-.34-.01-.03-.03-.05-.06-.06-.03-.01-.07,0-.09,.02-.01,.02-.01,.04-.02,.06,0,.03-.04,.06-.07,.08l-.06-.19-.03-.09-.02-.09c.05-.13,.09-.26,.11-.39,.02-.12,.02-.24-.04-.34-.01-.03-.03-.05-.06-.06-.03-.01-.07,0-.09,.02-.01,.02-.01,.04-.02,.06,0,.03-.04,.06-.07,.08l-.05-.19-.05-.18c.05-.13,.09-.26,.11-.39,.02-.11,.01-.25-.05-.36-.01-.03-.03-.05-.06-.07-.03-.01-.07,0-.09,.02-.01,.02-.01,.04-.02,.06,0,.04-.04,.07-.07,.08l-.03-.09s-.03-.09-.03-.09l-.06-.18c.05-.13,.06-.27,.05-.41,0-.13-.04-.26-.12-.35-.02-.02-.05-.05-.08-.05-.03,0-.07,0-.08,.04,0,.02,0,.04,0,.07,0,.04-.02,.07-.05,.1l-.1-.17s-.08-.63-.18-.57c-.09-.02-.18,.55-.18,.55l-.1,.17s-.05-.06-.05-.1c0-.02,0-.04,0-.07-.01-.03-.05-.05-.08-.04-.03,0-.06,.03-.08,.05-.09,.1-.12,.23-.12,.35,0,.14,0,.28,.05,.41l-.06,.18,.06,.02h0l-.06-.02-.03,.09-.03,.09s-.06-.05-.07-.08c0-.02,0-.04-.02-.06-.02-.03-.06-.03-.09-.02-.03,.01-.05,.04-.06,.07-.06,.11-.06,.24-.05,.36,.02,.13,.05,.26,.11,.39l-.05,.18-.05,.19s-.06-.05-.07-.08c0-.02,0-.04-.02-.06-.02-.02-.06-.03-.09-.02-.03,.01-.05,.04-.06,.06-.06,.1-.06,.22-.04,.34,.02,.13,.05,.27,.11,.39l-.02,.09-.03,.09-.06,.19s-.06-.05-.07-.08c0-.02,0-.04-.02-.06-.02-.02-.06-.03-.09-.02s-.05,.04-.06,.06c-.06,.1-.06,.22-.05,.34,.01,.13,.04,.27,.09,.4l-.05,.18-.06,.19s-.06-.05-.07-.08c0-.02,0-.04-.02-.06-.02-.03-.06-.03-.09-.02-.03,.01-.05,.04-.06,.06-.06,.1-.06,.22-.05,.34,.01,.13,.04,.27,.09,.4l-.06,.18-.06,.19s-.06-.05-.07-.08c0-.02,0-.04-.02-.06-.02-.03-.06-.03-.09-.02-.03,.01-.05,.04-.06,.06-.06,.1-.06,.22-.05,.34,.01,.13,.04,.27,.09,.4l-.06,.18-.05,.19s-.06-.05-.07-.08c0-.02,0-.04-.02-.06-.02-.03-.06-.03-.09-.02-.03,.01-.05,.04-.06,.06-.06,.1-.06,.23-.05,.35,.01,.13,.05,.27,.1,.4l-.05,.18-.05,.19s-.06-.05-.07-.08c0-.02,0-.04-.02-.06-.02-.02-.06-.03-.09-.02-.03,.01-.05,.04-.06,.06-.06,.1-.06,.23-.05,.34,.02,.13,.05,.27,.11,.4l-.05,.18-.05,.19s-.06-.04-.07-.08c0-.02,0-.04-.02-.06-.02-.02-.06-.03-.09-.01-.03,.01-.05,.04-.06,.07-.06,.1-.05,.23-.03,.35,.02,.13,.06,.27,.12,.39l-.04,.18-.04,.19s-.07-.04-.08-.08c0-.02,0-.04-.02-.06-.02-.02-.06-.03-.09-.01-.03,.01-.04,.04-.06,.07-.05,.11-.04,.23-.02,.35,.03,.13,.07,.26,.14,.38l-.03,.18-.03,.19s-.07-.04-.08-.07c0-.02-.01-.04-.03-.06-.02-.02-.06-.02-.09,0-.03,.02-.04,.04-.05,.07-.04,.11-.03,.24,0,.35,.03,.13,.09,.26,.16,.38l-.02,.18-.02,.19s-.07-.03-.08-.07c0-.02-.01-.04-.03-.06-.02-.02-.06-.02-.09,0s-.04,.05-.05,.07c-.04,.11-.02,.24,.03,.35,.05,.13,.11,.25,.19,.37v.19s-.01,.05-.01,.1v.1s-.07-.03-.09-.06c-.01-.02-.02-.04-.04-.05-.03-.02-.07-.01-.09,0-.02,.02-.03,.05-.04,.08-.03,.12,0,.24,.06,.35,.05,.13,.12,.24,.21,.35v.19l.03,.19s-.07-.02-.1-.05c-.01-.02-.02-.04-.04-.05-.03-.02-.07,0-.09,.01-.02,.02-.03,.05-.04,.08-.02,.12,.03,.24,.08,.35,.06,.12,.15,.23,.25,.33l.03,.18,.03,.19s-.08-.02-.1-.04c-.01-.02-.02-.04-.04-.05-.03-.01-.07,0-.09,.02-.02,.02-.03,.06-.03,.09,0,.12,.05,.23,.12,.33,.08,.11,.16,.22,.27,.31l.04,.18,.05,.19s-.08,0-.1-.03c-.01-.02-.03-.03-.05-.04-.03-.01-.07,0-.08,.03-.02,.03-.02,.06-.02,.09,0,.12,.06,.23,.14,.32,.08,.11,.18,.2,.29,.29l.03,.09,.03,.09,.06,.19s-.08,0-.1-.03c-.02-.01-.03-.03-.05-.04-.03-.01-.07,0-.08,.03-.02,.03-.02,.06-.02,.09,0,.12,.08,.22,.15,.32,.09,.1,.2,.19,.31,.27l.06,.18,.03,.09,.03,.09s-.08,0-.11-.02c-.02-.01-.03-.03-.05-.04-.03,0-.07,.01-.08,.04-.02,.03-.02,.06-.01,.09,.02,.12,.09,.22,.17,.31,.09,.1,.2,.19,.32,.26l.07,.17,.07,.18s-.08,0-.11-.02c-.02-.01-.03-.03-.05-.04-.03,0-.06,.01-.08,.04-.02,.03-.01,.06-.01,.09,.02,.12,.09,.22,.18,.3,.09,.1,.2,.18,.32,.25l.07,.17,.07,.18s-.08,0-.11-.02c-.02-.01-.03-.03-.05-.04-.03,0-.06,.01-.08,.04-.01,.03-.01,.06,0,.09,.02,.12,.09,.21,.18,.3,.09,.1,.2,.18,.32,.25l.07,.17,.07,.18s-.08,0-.11-.02c-.02-.01-.03-.03-.05-.04-.03,0-.06,.01-.08,.04-.02,.03-.01,.06-.01,.09,.02,.12,.09,.21,.17,.3,.09,.1,.2,.18,.32,.25l.07,.17,.07,.18s-.08,0-.11-.02c-.02-.01-.03-.03-.05-.04-.03,0-.07,.01-.08,.04-.02,.03-.02,.06-.01,.09,.02,.12,.09,.21,.17,.3,.09,.1,.2,.18,.31,.26l.06,.17,.06,.18s-.08,0-.1-.03c-.02-.01-.03-.03-.05-.04-.03,0-.07,0-.08,.04-.02,.03-.02,.06-.02,.09,0,.12,.08,.22,.16,.3,.09,.1,.19,.19,.3,.27v.09h.03l.02,.09,.06-.02c.03,.12,.07,.24,.1,.36,.03-.11,.06-.22,.1-.34l.06,.02,.04-.12h.03v-.05h0c.11-.09,.21-.18,.3-.28,.07-.09,.15-.19,.16-.31,0-.03,0-.06-.02-.09-.02-.03-.05-.04-.08-.04-.02,0-.03,.02-.05,.04-.03,.02-.07,.03-.1,.03l.06-.18,.06-.17c.12-.07,.22-.16,.31-.26,.08-.09,.15-.19,.17-.3,0-.03,0-.06-.01-.09-.02-.03-.05-.05-.08-.04-.02,0-.03,.02-.05,.04-.03,.02-.07,.03-.11,.02l.07-.18,.07-.17c.12-.07,.22-.16,.32-.25,.08-.08,.16-.18,.17-.3,0-.03,0-.06-.01-.09-.02-.03-.05-.05-.08-.04-.02,0-.03,.02-.05,.04-.03,.02-.07,.03-.11,.02l.07-.18,.07-.17c.12-.07,.23-.15,.32-.25,.08-.08,.16-.18,.18-.3,0-.03,0-.06,0-.09-.01-.03-.05-.05-.08-.04-.02,0-.04,.02-.05,.04-.03,.02-.07,.03-.11,.02l.07-.18,.07-.17c.12-.07,.23-.15,.32-.25,.08-.08,.16-.18,.18-.3,0-.03,0-.06-.01-.09-.02-.03-.05-.05-.08-.04-.02,0-.03,.02-.05,.04-.03,.02-.07,.03-.11,.02l.07-.18,.07-.17c.12-.07,.23-.16,.32-.26,.08-.09,.15-.19,.17-.31,0-.03,0-.06-.01-.09-.02-.03-.05-.05-.08-.04-.02,0-.03,.02-.05,.04-.03,.02-.07,.03-.11,.02l.03-.09,.03-.09,.06-.18c.12-.08,.22-.17,.31-.27,.08-.09,.15-.2,.15-.32,0-.03,0-.06-.02-.09-.02-.03-.05-.04-.08-.03-.02,0-.03,.03-.05,.04-.03,.02-.07,.03-.1,.03l.06-.19,.03-.09,.03-.09c.11-.08,.21-.18,.29-.29,.08-.09,.14-.2,.14-.32,0-.03,0-.06-.02-.09-.02-.03-.06-.04-.08-.03-.02,0-.03,.03-.05,.04-.03,.03-.06,.04-.1,.03l.05-.19,.04-.18c.11-.09,.2-.19,.27-.31,.07-.1,.12-.22,.12-.33,0-.03,0-.06-.03-.09-.02-.02-.06-.04-.09-.02-.02,.01-.03,.03-.04,.05-.02,.03-.06,.04-.1,.04,0,0,0-.05,.02-.1v-.1l.04-.18c.1-.1,.19-.21,.25-.33,.05-.11,.1-.23,.08-.35,0-.03-.01-.06-.04-.08Z"/><g><path class="bf" d="M476.68,344.74s-.06-.03-.09-.01c-.02,.01-.03,.03-.04,.05-.02,.03-.06,.05-.09,.05v-.2s.02-.05,.02-.09v-.09c.09-.11,.17-.22,.22-.35,.05-.11,.09-.23,.06-.35,0-.03-.02-.06-.04-.08-.02-.02-.06-.03-.09,0-.02,.01-.02,.03-.04,.05-.02,.03-.05,.05-.09,.06v-.39c.09-.11,.16-.23,.21-.36,.04-.11,.07-.24,.04-.35,0-.03-.02-.06-.04-.08-.02-.02-.06-.02-.09,0-.02,.01-.02,.04-.03,.05-.02,.03-.05,.05-.09,.06v-.38c.07-.11,.13-.24,.18-.37,.04-.11,.07-.24,.03-.35,0-.03-.02-.06-.05-.08-.03-.02-.07-.02-.09,0-.02,.01-.02,.04-.03,.06-.02,.03-.05,.06-.09,.06v-.2l-.02-.19c.08-.12,.14-.24,.18-.37,.04-.11,.06-.24,.02-.35,0-.03-.02-.06-.05-.07-.03-.02-.07-.02-.09,0-.02,.01-.02,.04-.03,.06-.02,.03-.05,.06-.09,.07l-.02-.2-.02-.19c.07-.12,.13-.24,.17-.37,.04-.12,.06-.24,.02-.35,0-.03-.02-.06-.05-.07-.03-.02-.07-.02-.09,0-.02,.02-.02,.04-.03,.06-.02,.03-.05,.06-.08,.07l-.02-.2-.02-.19c.07-.12,.13-.25,.17-.38,.03-.12,.05-.24,.01-.35,0-.03-.02-.06-.05-.07-.03-.02-.07-.02-.09,0-.02,.02-.02,.04-.03,.06-.01,.03-.05,.06-.08,.07l-.02-.2s.05-.51,.05-.6c-.05,.04-.32,.43-.32,.43l-.14,.14s-.03-.07-.02-.11c0-.02,.02-.04,.02-.06,0-.03-.03-.06-.07-.06-.03,0-.06,.01-.09,.03-.11,.07-.17,.18-.22,.29-.06,.13-.1,.26-.11,.41l-.13,.14-.14,.15s-.03-.07-.03-.1c0-.02,.02-.04,.01-.06,0-.03-.04-.05-.07-.05-.03,0-.06,.01-.09,.03-.1,.07-.16,.19-.2,.31-.04,.13-.07,.27-.08,.41l-.06,.07s-.06,.07-.06,.07l.05,.04h0l-.05-.04-.12,.16s-.04-.07-.03-.1c0-.02,.01-.04,0-.07,0-.03-.04-.05-.07-.05-.03,0-.06,.02-.08,.04-.09,.08-.14,.2-.18,.32-.04,.13-.05,.28-.05,.42l-.11,.16-.12,.17s-.04-.06-.04-.1c0-.02,0-.04,0-.06,0-.03-.05-.05-.08-.04-.03,0-.06,.02-.08,.04-.09,.08-.13,.21-.16,.33-.03,.14-.04,.28-.03,.42l-.05,.08s-.05,.08-.05,.08l-.1,.17s-.05-.06-.05-.1c0-.02,0-.04,0-.07-.01-.03-.05-.05-.08-.04-.03,0-.06,.03-.08,.05-.08,.09-.12,.21-.14,.33-.02,.14-.02,.28,0,.42l-.09,.17-.1,.18s-.05-.06-.05-.1c0-.02,0-.04,0-.06-.01-.03-.05-.04-.08-.04-.03,0-.06,.03-.08,.05-.08,.09-.11,.22-.13,.34-.02,.14-.01,.28,0,.42l-.09,.17-.09,.18s-.05-.06-.05-.1c0-.02,0-.04,0-.06-.01-.03-.05-.04-.08-.03s-.05,.03-.07,.05c-.08,.09-.11,.22-.12,.34-.01,.14,0,.28,.02,.42l-.09,.17-.09,.18s-.05-.06-.05-.09c0-.02,0-.04,0-.06-.01-.03-.05-.04-.08-.03s-.05,.03-.07,.05c-.08,.09-.1,.22-.11,.34,0,.14,0,.28,.03,.42l-.08,.17-.09,.18s-.05-.06-.06-.09c0-.02,0-.04,0-.06-.01-.03-.05-.04-.08-.03-.03,0-.05,.03-.07,.05-.07,.1-.1,.22-.11,.34,0,.14,0,.28,.03,.42l-.08,.17-.09,.18s-.05-.06-.06-.09c0-.02,0-.04,0-.06-.01-.03-.05-.04-.08-.03-.03,0-.05,.03-.07,.05-.07,.1-.1,.22-.1,.34,0,.14,0,.28,.03,.42l-.08,.17-.09,.18s-.05-.06-.06-.09c0-.02,0-.04,0-.06-.01-.03-.05-.04-.08-.03-.03,0-.05,.03-.07,.05-.07,.09-.1,.22-.11,.34,0,.14,0,.28,.03,.42l-.09,.17-.09,.18s-.05-.06-.05-.09c0-.02,0-.04,0-.06-.01-.03-.05-.04-.08-.03-.03,0-.05,.03-.07,.05-.08,.09-.1,.22-.11,.34-.01,.14,0,.28,.02,.42l-.09,.17-.09,.18s-.05-.06-.05-.09c0-.02,0-.04,0-.06-.01-.03-.05-.04-.08-.03-.03,0-.05,.03-.07,.05-.08,.09-.1,.22-.11,.34-.01,.14,0,.28,.02,.42l-.09,.17-.09,.18s-.05-.06-.05-.09c0-.02,0-.04,0-.06-.01-.03-.05-.04-.08-.03s-.05,.03-.07,.05c-.08,.09-.11,.21-.12,.34-.01,.14-.01,.28,.01,.41l-.09,.17-.09,.18s-.05-.06-.05-.1c0-.02,0-.04,0-.06-.01-.03-.05-.04-.08-.03-.03,0-.05,.03-.07,.05-.08,.09-.11,.21-.12,.34-.01,.14-.01,.28,.01,.42l-.09,.17-.09,.18s-.05-.06-.05-.1c0-.02,0-.04,0-.06-.01-.03-.05-.04-.08-.04-.03,0-.05,.03-.07,.05-.08,.09-.11,.21-.12,.34-.02,.14-.01,.28,0,.42l-.1,.17-.1,.17s-.05-.06-.05-.1c0-.02,0-.04,0-.06-.01-.03-.05-.04-.08-.04-.03,0-.06,.03-.08,.05-.08,.09-.12,.21-.13,.33-.02,.14-.02,.28,0,.42l-.1,.17-.1,.17s-.05-.06-.05-.1c0-.02,0-.04,0-.06-.01-.03-.05-.04-.08-.04-.03,0-.06,.03-.08,.05-.08,.09-.12,.21-.13,.33-.02,.14-.02,.28,0,.42l-.1,.17-.1,.17s-.05-.06-.05-.1c0-.02,0-.04,0-.07-.01-.03-.05-.04-.08-.04-.03,0-.06,.03-.08,.05-.08,.09-.11,.21-.14,.33-.02,.13-.03,.27-.02,.41l-.1,.16-.11,.17s-.05-.06-.04-.1c0-.02,0-.04,0-.06-.01-.03-.05-.05-.08-.04-.03,0-.06,.02-.08,.04-.09,.08-.12,.2-.15,.32-.03,.14-.03,.28-.02,.42l-.1,.16-.11,.17s-.04-.06-.04-.1c0-.02,0-.04,0-.06-.01-.03-.05-.05-.08-.04-.03,0-.06,.02-.08,.04-.09,.08-.12,.2-.15,.32-.03,.14-.03,.28-.03,.42l-.03,.05-.05,.02v.05l-.02,.05,.05,.03c-.06,.09-.11,.17-.17,.26,.08-.02,.16-.05,.23-.07l.02,.06,.18-.06c.13,.05,.27,.07,.4,.08,.12,0,.25,0,.35-.06,.03-.02,.05-.04,.06-.07s0-.07-.02-.09c-.02-.01-.04-.01-.06-.01-.03,0-.07-.03-.09-.07l.18-.07,.18-.07c.13,.04,.27,.06,.41,.07,.12,0,.25-.01,.35-.08,.02-.02,.05-.04,.06-.07,0-.03,0-.07-.03-.09-.02-.01-.04,0-.06-.01-.04,0-.07-.03-.09-.06l.18-.08,.17-.07c.13,.03,.27,.05,.41,.05,.12,0,.24-.03,.34-.1,.02-.02,.05-.04,.05-.07,0-.03,0-.07-.03-.08-.02-.01-.04,0-.06,0-.04,0-.07-.03-.09-.06l.18-.08,.17-.08c.14,.03,.28,.04,.41,.02,.12-.01,.24-.04,.33-.12,.02-.02,.04-.04,.05-.07,0-.03,0-.07-.04-.08-.02,0-.04,0-.06,0-.04,0-.07-.02-.09-.05l.17-.09,.08-.04s.08-.04,.08-.04c.14,.02,.28,.02,.41,0,.12-.02,.24-.05,.33-.13,.02-.02,.04-.04,.05-.08,0-.03-.01-.07-.04-.08-.02,0-.04,0-.06,0-.04,0-.07-.02-.1-.05l.17-.1,.16-.1c.14,.01,.28,0,.41-.02,.12-.02,.24-.06,.32-.14,.02-.02,.04-.05,.04-.08,0-.03-.01-.07-.04-.08-.02,0-.04,0-.06,0-.04,0-.07-.01-.1-.04l.16-.11,.16-.11c.14,0,.28,0,.41-.03,.12-.02,.24-.07,.32-.17,.02-.02,.04-.05,.04-.08,0-.03-.02-.07-.05-.08-.02,0-.04,0-.06,0-.04,0-.07-.01-.1-.04l.16-.12,.15-.11c.14,0,.28-.02,.41-.06,.11-.04,.23-.09,.3-.19,.02-.02,.03-.05,.03-.08,0-.03-.02-.07-.05-.07-.02,0-.04,0-.06,0-.04,0-.07,0-.1-.03l.15-.13,.14-.12c.14,0,.28-.04,.4-.09,.11-.04,.22-.11,.29-.21,.02-.03,.03-.05,.03-.09,0-.03-.03-.06-.06-.07-.02,0-.04,0-.06,.01-.04,0-.08,0-.11-.02l.14-.14,.14-.13c.14-.02,.27-.06,.39-.12,.11-.05,.22-.12,.28-.23,.01-.03,.03-.06,.02-.09s-.03-.06-.06-.06c-.02,0-.04,.01-.06,.02-.03,.01-.08,0-.11-.02l.13-.15,.06-.07,.06-.07c.13-.03,.26-.08,.38-.15,.11-.06,.21-.14,.26-.25,.01-.03,.02-.06,.02-.09,0-.03-.04-.06-.07-.06-.02,0-.04,.01-.06,.02-.03,.01-.08,.01-.11,0l.06-.08s.06-.08,.06-.08l.11-.16c.13-.04,.26-.1,.37-.18,.1-.07,.2-.15,.24-.27,0-.03,.01-.06,0-.09s-.04-.06-.07-.05c-.02,0-.04,.02-.06,.03-.03,.02-.07,.02-.11,0l.1-.17,.09-.16c.13-.05,.25-.13,.36-.21,.1-.07,.18-.17,.21-.29,0-.03,0-.06,0-.09-.01-.03-.05-.05-.08-.05-.02,0-.04,.02-.05,.03-.03,.02-.07,.02-.11,.01l.08-.18,.08-.17c.12-.07,.24-.15,.34-.24,.08-.09,.16-.19,.18-.31,0-.03,0-.06-.01-.09-.02-.03-.05-.05-.08-.04-.02,0-.04,.02-.05,.04-.03,.02-.07,.03-.11,.02l.07-.18,.03-.09s.03-.09,.03-.09c.11-.08,.22-.17,.31-.28,.08-.09,.15-.2,.16-.32,0-.03,0-.06-.02-.09-.02-.03-.05-.04-.08-.03-.02,0-.03,.03-.05,.04-.03,.02-.06,.04-.1,.03l.05-.19,.05-.18c.11-.09,.21-.19,.29-.3,.07-.1,.12-.21,.12-.34,0-.03,0-.06-.02-.09-.02-.02-.06-.04-.09-.02-.02,0-.03,.03-.05,.05-.02,.03-.06,.04-.1,.04l.04-.19,.02-.09,.02-.09c.1-.09,.19-.2,.26-.32,.06-.1,.12-.22,.1-.34,0-.03-.01-.06-.03-.08-.02-.02-.06-.03-.09-.02-.02,.01-.03,.03-.04,.05-.02,.03-.06,.05-.1,.05l.02-.2,.02-.19c.1-.1,.18-.21,.24-.34,.05-.11,.1-.23,.08-.35,0-.03-.01-.06-.04-.08Z"/><path class="bf" d="M483.26,349.92s-.05-.05-.08-.05c-.02,0-.04,.02-.06,.03-.03,.02-.06,.02-.1,.01h0l.08-.18s.35-.35,.36-.39c-.04,0-.51,.21-.51,.21l-.15,.03-.04-.02s.01-.05,.03-.07c.02-.01,.04-.03,.04-.05,.01-.03,0-.07-.02-.09-.02-.02-.06-.02-.09-.02-.12,0-.23,.06-.33,.13-.11,.08-.21,.17-.3,.28l-.18,.05-.19,.05s0-.08,.03-.1c.01-.02,.03-.03,.04-.05,.01-.03,0-.07-.03-.08-.03-.02-.06-.02-.09-.02-.12,0-.23,.06-.32,.14-.11,.09-.2,.19-.28,.3l-.18,.06,.02,.06h0l-.02-.06-.09,.03s-.09,.03-.09,.03c0-.04,0-.08,.02-.11,.01-.02,.03-.03,.04-.05,0-.03,0-.07-.04-.08-.03-.02-.06-.02-.09-.01-.12,.02-.22,.09-.31,.17-.1,.09-.19,.2-.26,.32l-.17,.07-.18,.08s0-.08,.02-.11c.01-.02,.03-.03,.04-.05,0-.03-.01-.06-.04-.08s-.06-.01-.09,0c-.12,.02-.22,.1-.3,.18-.09,.1-.17,.22-.23,.34l-.17,.08-.18,.08s0-.08,.01-.11c.01-.02,.03-.03,.03-.05,0-.03-.02-.06-.05-.08-.03-.01-.06-.01-.09,0-.12,.03-.21,.12-.29,.21-.09,.11-.16,.22-.21,.35l-.08,.04s-.08,.05-.08,.05l-.17,.1s-.01-.08,0-.11c.01-.02,.03-.04,.03-.06,0-.03-.02-.06-.05-.07-.03-.01-.06,0-.09,0-.11,.04-.2,.13-.27,.22-.08,.11-.15,.23-.19,.36l-.16,.1-.16,.11s-.02-.08,0-.11c0-.02,.02-.04,.03-.06,0-.03-.03-.06-.06-.07-.03,0-.06,0-.09,0-.11,.04-.19,.14-.26,.24-.07,.11-.13,.24-.17,.37l-.15,.11-.16,.11s-.02-.07,0-.11c0-.02,.02-.04,.02-.06,0-.03-.03-.06-.06-.07-.03,0-.06,0-.09,.01-.11,.05-.19,.14-.25,.24-.07,.11-.13,.24-.17,.37l-.15,.11-.16,.11s-.02-.07,0-.11c0-.02,.02-.04,.02-.06,0-.03-.03-.06-.06-.07-.03,0-.06,0-.09,.01-.11,.05-.19,.14-.25,.24-.07,.11-.13,.24-.17,.37l-.15,.1-.16,.11s-.02-.08,0-.11c0-.02,.02-.04,.02-.06,0-.03-.03-.06-.06-.07s-.06,0-.09,0c-.11,.04-.19,.13-.25,.23-.07,.11-.14,.23-.19,.36l-.16,.09-.17,.1s-.01-.08,0-.11c0-.02,.03-.03,.03-.06,0-.03-.02-.06-.05-.07-.03-.01-.06,0-.09,0-.11,.04-.2,.11-.27,.2-.08,.1-.15,.22-.21,.34l-.08,.04s-.08,.04-.08,.04l-.18,.08s0-.08,.02-.11c.01-.02,.03-.03,.03-.05,0-.03-.02-.06-.04-.08-.03-.01-.06-.01-.09,0-.11,.02-.21,.09-.29,.18-.09,.1-.17,.21-.25,.32l-.17,.06-.18,.07s0-.08,.02-.11c.01-.02,.03-.03,.04-.05,0-.03-.01-.07-.04-.08-.03-.02-.06-.02-.09-.01-.11,.01-.21,.09-.3,.16-.1,.09-.19,.19-.27,.3l-.18,.06-.18,.06s0-.08,.03-.1c.01-.02,.03-.03,.04-.05,0-.03,0-.07-.03-.08-.03-.02-.06-.02-.09-.02-.12,0-.22,.08-.31,.15-.1,.09-.19,.19-.27,.3l-.18,.06-.18,.06s0-.08,.03-.1c.01-.02,.03-.03,.04-.05,0-.03,0-.07-.04-.08-.03-.02-.06-.02-.09-.01-.12,.01-.22,.08-.31,.16-.1,.09-.19,.2-.26,.32l-.17,.07-.18,.07s0-.08,.02-.1c.01-.02,.03-.03,.04-.05,0-.03-.01-.06-.04-.08-.03-.02-.06-.02-.09-.01-.12,.02-.22,.09-.3,.18-.1,.1-.18,.21-.24,.34l-.17,.08s-.05,.02-.09,.04l-.08,.05s0-.08,0-.11c.01-.02,.03-.04,.03-.06,0-.03-.02-.06-.05-.08-.03-.01-.06,0-.09,0-.12,.04-.21,.13-.28,.22-.09,.11-.15,.23-.2,.35l-.16,.09-.17,.1s-.01-.08,0-.11c0-.02,.02-.03,.03-.06,0-.03-.02-.06-.05-.07-.03-.01-.06,0-.08,0-.11,.03-.19,.12-.26,.2-.09,.1-.16,.21-.23,.33,0,0-.04,.02-.08,.04l-.09,.03-.18,.06s0-.08,.02-.1c.01-.02,.03-.03,.04-.05,0-.03-.01-.06-.04-.08-.03-.02-.06-.02-.08-.02-.11,0-.2,.08-.29,.15-.06,.04-.11,.1-.17,.15l-.23-.03-.04,.2h-.03v.07s-.1,.02-.15,.03c.05,.01,.11,.02,.16,.03v.07h.03l.04,.2,.24-.06c.06,.05,.13,.1,.2,.14,.11,.06,.23,.11,.35,.1,.03,0,.06,0,.09-.03,.02-.02,.04-.06,.02-.09-.01-.02-.03-.03-.05-.04-.03-.02-.05-.06-.05-.1l.2,.03,.19,.03c.1,.1,.22,.19,.34,.25,.11,.06,.23,.1,.35,.08,.03,0,.06-.01,.08-.03,.02-.02,.03-.06,.02-.09-.01-.02-.03-.03-.05-.04-.03-.02-.05-.06-.05-.1l.2,.02,.19,.02c.11,.09,.22,.17,.35,.24,.11,.06,.23,.1,.36,.07,.03,0,.06-.02,.08-.04,.02-.02,.03-.06,.01-.09-.01-.02-.04-.02-.05-.04-.03-.02-.05-.05-.06-.09h.39c.11,.09,.23,.16,.36,.22,.11,.05,.24,.08,.36,.06,.03,0,.06-.02,.08-.04,.02-.02,.03-.06,0-.09-.01-.02-.04-.02-.06-.04-.03-.02-.05-.05-.06-.09h.3s.1,0,.1,0c.11,.08,.24,.14,.37,.18,.12,.04,.24,.06,.36,.03,.03,0,.06-.02,.08-.05,.02-.03,.02-.07,0-.09-.01-.02-.04-.02-.06-.03-.03-.02-.06-.05-.07-.09h.2l.19-.02c.12,.08,.25,.14,.38,.18,.12,.03,.25,.05,.36,.01,.03,0,.06-.02,.08-.05s.02-.07,0-.09c-.02-.02-.04-.02-.06-.03-.03-.01-.06-.05-.07-.08l.2-.02,.19-.02c.12,.07,.25,.12,.39,.16,.12,.03,.25,.04,.36,0,.03-.01,.06-.03,.07-.05,.02-.03,.02-.07,0-.09-.02-.02-.04-.02-.06-.03-.03-.01-.06-.04-.07-.08l.2-.03,.19-.03c.13,.06,.26,.11,.4,.14,.12,.03,.25,.03,.36-.02,.03-.01,.06-.03,.07-.06,.02-.03,.01-.07-.01-.09-.02-.01-.04-.02-.06-.02-.03-.01-.06-.04-.08-.08l.2-.04,.19-.04c.13,.06,.26,.09,.4,.11,.12,.02,.25,.02,.36-.04,.03-.01,.05-.03,.07-.06,.01-.03,0-.07-.02-.09-.02-.01-.04-.01-.06-.02-.04,0-.07-.04-.08-.07l.19-.05,.19-.05c.13,.05,.27,.08,.41,.09,.12,0,.25,0,.36-.06,.03-.02,.05-.04,.06-.07,.01-.03,0-.07-.02-.09-.02-.01-.04-.01-.06-.01-.04,0-.07-.03-.09-.07,0,0,.05-.01,.1-.03l.09-.03,.18-.07c.14,.04,.28,.06,.42,.06,.12,0,.25-.02,.35-.09,.03-.02,.05-.04,.06-.07,0-.03,0-.07-.03-.08-.02-.01-.04,0-.07-.01-.04,0-.07-.03-.09-.06l.09-.04s.09-.04,.09-.04l.17-.08c.14,.03,.28,.04,.42,.02,.12-.01,.25-.05,.35-.13,.02-.02,.05-.04,.05-.08s0-.07-.04-.08c-.02,0-.04,0-.07,0-.04,0-.07-.02-.1-.05l.18-.1,.17-.1c.14,.01,.28,0,.42-.02,.12-.02,.24-.07,.33-.16,.02-.02,.04-.05,.04-.08,0-.03-.01-.07-.05-.08-.02,0-.04,0-.07,0-.04,0-.08-.01-.1-.04l.17-.11,.08-.06,.08-.06c.14,0,.28-.03,.42-.07,.12-.03,.24-.1,.31-.2,.02-.03,.03-.05,.03-.09s-.02-.07-.05-.07c-.02,0-.04,0-.06,.01-.04,0-.08,0-.11-.03l.15-.13,.07-.06s.07-.07,.07-.07c.14-.02,.27-.06,.4-.12,.11-.05,.23-.12,.29-.23,.02-.03,.03-.06,.02-.09,0-.03-.03-.06-.06-.06-.02,0-.04,.01-.06,.02-.04,.01-.08,0-.11-.02,0,0,.04-.03,.07-.07l.06-.08,.12-.15c.14-.03,.27-.09,.39-.16,.11-.06,.21-.15,.26-.26,.01-.03,.02-.06,.01-.09,0-.03-.04-.06-.07-.06-.02,0-.04,.02-.06,.02-.03,.01-.07,.01-.11,0l.12-.16,.11-.16c.14-.04,.26-.11,.38-.19,.1-.07,.2-.16,.24-.28,.01-.03,.02-.06,0-.09,0-.03-.04-.06-.07-.05-.02,0-.04,.02-.06,.03-.03,.02-.07,.02-.11,0l.11-.17s.03-.04,.05-.08l.05-.08c.13-.05,.25-.13,.36-.21,.1-.08,.19-.17,.22-.29,0-.03,.01-.06,0-.09-.01-.03-.04-.05-.07-.05-.02,0-.04,.02-.06,.03-.03,.02-.07,.02-.11,0l.1-.18-.06-.03h0l.06,.03,.09-.17c.13-.06,.25-.14,.35-.23,.09-.08,.18-.18,.21-.3,0-.03,.01-.06,0-.09-.01-.03-.04-.05-.08-.05-.02,0-.04,.02-.06,.03-.03,.02-.07,.02-.11,.01l.09-.18,.09-.17c.13-.06,.24-.14,.35-.24,.09-.08,.17-.18,.2-.3,0-.03,.01-.06,0-.09Z"/><path class="bf" d="M478.1,362.26l-.15-.11h0s.06-.04,.1-.04c.02,0,.04,.01,.06,0,.03,0,.05-.04,.05-.07,0-.03-.02-.06-.04-.08-.08-.09-.19-.14-.31-.16-.13-.03-.27-.05-.4-.04l-.15-.11-.16-.11s.06-.05,.1-.04c.02,0,.04,0,.06,0,.03,0,.05-.05,.04-.08,0-.03-.02-.06-.04-.08-.08-.08-.2-.12-.32-.14-.13-.02-.27-.03-.41-.01l-.15-.1-.03,.05h0l.03-.05-.16-.1s.06-.05,.09-.05c.02,0,.04,0,.06,0,.03-.01,.04-.05,.04-.08,0-.03-.02-.06-.04-.08-.08-.09-.21-.11-.32-.12-.14-.01-.27,0-.41,.02l-.16-.09-.17-.09s.06-.05,.09-.05c.02,0,.04,0,.06,0,.03-.01,.04-.05,.03-.08,0-.03-.03-.05-.05-.07-.09-.08-.21-.11-.33-.11-.14,0-.27,.01-.41,.05l-.17-.07-.18-.08s.05-.06,.09-.06c.02,0,.04,0,.06-.01,.03-.02,.04-.05,.03-.08,0-.03-.03-.05-.05-.07-.09-.07-.22-.09-.33-.09-.13,0-.27,.03-.4,.07l-.17-.06-.18-.06s.05-.06,.08-.07c.02,0,.04,0,.06-.02,.03-.02,.03-.06,.02-.09s-.03-.05-.06-.07c-.1-.06-.22-.07-.34-.07-.13,0-.26,.03-.39,.09l-.18-.05-.19-.05s.05-.06,.08-.07c.02,0,.04,0,.06-.02,.02-.02,.03-.06,.02-.09-.01-.03-.04-.05-.06-.06-.1-.06-.23-.06-.35-.04-.13,.02-.26,.05-.39,.11,0,0-.18-.04-.18-.04l-.19-.04s.04-.07,.07-.08c.02,0,.04,0,.06-.02,.02-.02,.03-.06,.01-.09-.01-.03-.04-.04-.07-.06-.11-.05-.23-.04-.35-.01-.13,.03-.26,.07-.38,.14l-.18-.03-.19-.02s.04-.07,.07-.08c.02,0,.04-.01,.06-.03,.02-.02,.02-.06,0-.09-.02-.03-.04-.04-.07-.05-.11-.04-.23-.02-.35,.01-.13,.04-.25,.09-.37,.17l-.18-.02h-.1s-.1-.02-.1-.02c0-.04,.03-.07,.06-.09,.02,0,.04-.01,.05-.03,.02-.02,.02-.06,0-.09-.02-.03-.05-.04-.07-.05-.11-.03-.23-.01-.34,.03-.13,.04-.25,.1-.36,.18h-.18l-.19-.03s.03-.07,.06-.09c.02,0,.04-.01,.05-.03,.02-.02,.02-.06,0-.09-.02-.03-.04-.04-.07-.05-.11-.04-.23-.01-.34,.02-.13,.04-.25,.1-.36,.17l-.18-.02-.19-.02s.03-.07,.07-.08c.02,0,.04-.01,.05-.03,.02-.02,.02-.06,0-.09-.02-.03-.04-.04-.07-.05-.11-.04-.22-.02-.34,.01-.13,.04-.25,.09-.37,.15l-.18-.03-.19-.03s.04-.07,.07-.08c.02,0,.04-.01,.06-.03,.02-.02,.02-.06,0-.09-.01-.03-.04-.04-.07-.05-.1-.05-.22-.04-.33-.01-.13,.03-.26,.08-.38,.13l-.18-.05-.18-.05s.04-.06,.08-.07c.02,0,.04,0,.06-.02,.02-.02,.03-.06,.02-.09-.01-.03-.04-.05-.06-.06-.1-.05-.22-.05-.33-.04-.1,.01-.21,.04-.31,.07l-.07-.1-.12,.08-.06-.02-.02,.06c-.05-.02-.1-.04-.15-.06,.03,.04,.05,.08,.08,.12l-.05,.04,.06,.08-.05,.13,.1,.03c0,.11,.01,.22,.03,.32,.03,.12,.07,.23,.16,.31,.02,.02,.05,.04,.08,.04,.03,0,.07-.02,.08-.05,0-.02,0-.04,0-.06,0-.04,.01-.07,.04-.1l.12,.16,.06,.08,.06,.07c0,.14,.02,.28,.06,.41,.03,.12,.08,.23,.18,.31,.02,.02,.05,.03,.08,.03,.03,0,.07-.02,.07-.05,0-.02,0-.04,0-.06,0-.04,0-.07,.03-.1l.13,.15,.12,.14c0,.14,.04,.27,.08,.4,.04,.11,.1,.23,.2,.3,.03,.02,.05,.03,.09,.03,.03,0,.06-.02,.07-.06,0-.02,0-.04-.01-.06,0-.03,0-.07,.03-.1l.14,.14,.13,.14c.02,.14,.05,.27,.11,.4,.05,.11,.12,.22,.22,.28,.03,.02,.06,.03,.09,.02,.03,0,.06-.03,.07-.06,0-.02-.01-.04-.02-.06-.01-.03,0-.08,.02-.11,0,0,.03,.03,.07,.07l.07,.06,.14,.12c.03,.14,.07,.27,.14,.39,.06,.11,.14,.21,.25,.26,.03,.01,.06,.02,.09,.02,.03,0,.06-.04,.06-.07,0-.02-.01-.04-.02-.06-.01-.03-.01-.07,0-.11l.08,.06s.08,.06,.08,.06l.15,.11c.04,.13,.1,.26,.18,.37,.07,.1,.16,.19,.28,.23,.03,0,.06,.02,.09,0,.03-.01,.05-.04,.05-.07,0-.02-.02-.04-.03-.06-.02-.03-.02-.07,0-.11l.17,.1,.17,.09c.06,.12,.14,.24,.23,.35,.08,.09,.19,.17,.31,.19,.03,0,.06,0,.09,0,.03-.01,.05-.05,.04-.08,0-.02-.02-.04-.04-.05-.02-.03-.03-.07-.02-.11l.18,.08s.04,.02,.09,.04l.09,.03c.08,.11,.17,.22,.28,.31,.09,.08,.21,.14,.33,.14,.03,0,.06,0,.09-.02,.03-.02,.04-.06,.03-.08,0-.02-.03-.03-.04-.05-.03-.03-.04-.06-.03-.1l.19,.05s.18,.05,.18,.04c.09,.1,.2,.19,.32,.26,.05,.03,.11,.06,.17,.08,.06,.02,.12,.02,.18,.01,.03,0,.06-.01,.08-.04,.02-.02,.03-.06,.02-.09-.01-.02-.03-.03-.05-.04-.03-.02-.05-.06-.05-.09h.2l.19,.03c.11,.09,.22,.17,.35,.23,.11,.04,.24,.07,.36,.04,.03,0,.06-.02,.08-.04,.02-.02,.02-.06,0-.09-.01-.02-.04-.02-.05-.03-.03-.02-.05-.05-.06-.09h.38c.12,.08,.24,.12,.37,.16,.12,.03,.24,.05,.36,.01,.03,0,.06-.02,.07-.05,.02-.03,.02-.07,0-.09-.02-.02-.04-.02-.06-.03-.03-.02-.06-.05-.07-.08l.2-.02,.19-.03c.12,.06,.25,.11,.39,.14,.12,.03,.25,.04,.36-.01,.03-.01,.05-.03,.07-.06,.01-.03,.01-.07-.01-.09-.02-.01-.04-.02-.06-.02-.03-.01-.06-.04-.08-.08l.19-.04,.18-.04c.13,.06,.26,.1,.4,.12,.12,.02,.25,.02,.35-.04,.03-.01,.05-.03,.07-.06,.01-.03,0-.07-.02-.09-.02-.01-.04-.01-.06-.02-.03,0-.06-.04-.08-.07l.19-.05,.18-.05c.13,.05,.26,.09,.4,.1,.12,.01,.24,0,.35-.05,.03-.01,.05-.03,.06-.06,.01-.03,0-.07-.02-.09-.02-.01-.04-.01-.06-.02-.03,0-.07-.04-.08-.07l.19-.06-.02-.06h0l.02,.06,.18-.05c.13,.05,.26,.08,.4,.09,.12,.01,.24,0,.35-.06,.03-.02,.05-.03,.06-.06,.01-.03,0-.07-.02-.09-.02-.01-.04-.01-.06-.02-.03,0-.07-.03-.08-.07l.19-.06s.38-.06,.42-.07c-.03-.03-.38-.16-.38-.16Z"/></g><g><path class="bf" d="M451.69,344.74s.06-.03,.09-.01c.02,.01,.03,.03,.04,.05,.02,.03,.06,.05,.09,.05v-.2s-.02-.05-.02-.09v-.09c-.09-.11-.17-.22-.22-.35-.05-.11-.09-.23-.06-.35,0-.03,.02-.06,.04-.08,.02-.02,.06-.03,.09,0,.02,.01,.02,.03,.04,.05,.02,.03,.05,.05,.09,.06v-.39c-.09-.11-.16-.23-.21-.36-.04-.11-.07-.24-.04-.35,0-.03,.02-.06,.04-.08,.02-.02,.06-.02,.09,0,.02,.01,.02,.04,.03,.05,.02,.03,.05,.05,.09,.06v-.38c-.07-.11-.13-.24-.18-.37-.04-.11-.07-.24-.03-.35,0-.03,.02-.06,.05-.08,.03-.02,.07-.02,.09,0,.02,.01,.02,.04,.03,.06,.02,.03,.05,.06,.09,.06v-.2l.02-.19c-.08-.12-.14-.24-.18-.37-.04-.11-.06-.24-.02-.35,0-.03,.02-.06,.05-.07,.03-.02,.07-.02,.09,0,.02,.01,.02,.04,.03,.06,.02,.03,.05,.06,.09,.07l.02-.2,.02-.19c-.07-.12-.13-.24-.17-.37-.04-.12-.06-.24-.02-.35,0-.03,.02-.06,.05-.07,.03-.02,.07-.02,.09,0,.02,.02,.02,.04,.03,.06,.02,.03,.05,.06,.08,.07l.02-.2,.02-.19c-.07-.12-.13-.25-.17-.38-.03-.12-.05-.24-.01-.35,0-.03,.02-.06,.05-.07,.03-.02,.07-.02,.09,0,.02,.02,.02,.04,.03,.06,.01,.03,.05,.06,.08,.07l.02-.2s-.04-.47-.03-.55c.05,.04,.3,.39,.3,.39l.14,.14s.03-.07,.02-.11c0-.02-.02-.04-.02-.06,0-.03,.03-.06,.07-.06,.03,0,.06,.01,.09,.03,.11,.07,.17,.18,.22,.29,.06,.13,.1,.26,.11,.41l.13,.14,.14,.15s.03-.07,.03-.1c0-.02-.02-.04-.01-.06,0-.03,.04-.05,.07-.05,.03,0,.06,.01,.09,.03,.1,.07,.16,.19,.2,.31,.04,.13,.07,.27,.08,.41l.06,.07s.06,.07,.06,.07l-.05,.04h0l.05-.04,.12,.16s.04-.07,.03-.1c0-.02-.01-.04,0-.07,0-.03,.04-.05,.07-.05,.03,0,.06,.02,.08,.04,.09,.08,.14,.2,.18,.32,.04,.13,.05,.28,.05,.42l.11,.16,.12,.17s.04-.06,.04-.1c0-.02,0-.04,0-.06,0-.03,.05-.05,.08-.04,.03,0,.06,.02,.08,.04,.09,.08,.13,.21,.16,.33,.03,.14,.04,.28,.03,.42l.05,.08s.05,.08,.05,.08l.1,.17s.05-.06,.05-.1c0-.02,0-.04,0-.07,.01-.03,.05-.05,.08-.04,.03,0,.06,.03,.08,.05,.08,.09,.12,.21,.14,.33,.02,.14,.02,.28,0,.42l.09,.17,.1,.18s.05-.06,.05-.1c0-.02,0-.04,0-.06,.01-.03,.05-.04,.08-.04,.03,0,.06,.03,.08,.05,.08,.09,.11,.22,.13,.34,.02,.14,.01,.28,0,.42l.09,.17,.09,.18s.05-.06,.05-.1c0-.02,0-.04,0-.06,.01-.03,.05-.04,.08-.03,.03,0,.05,.03,.07,.05,.08,.09,.11,.22,.12,.34,.01,.14,0,.28-.02,.42l.09,.17,.09,.18s.05-.06,.05-.09c0-.02,0-.04,0-.06,.01-.03,.05-.04,.08-.03,.03,0,.05,.03,.07,.05,.08,.09,.1,.22,.11,.34,0,.14,0,.28-.03,.42l.08,.17,.09,.18s.05-.06,.06-.09c0-.02,0-.04,0-.06,.01-.03,.05-.04,.08-.03,.03,0,.05,.03,.07,.05,.07,.1,.1,.22,.11,.34,0,.14,0,.28-.03,.42l.08,.17,.09,.18s.05-.06,.06-.09c0-.02,0-.04,0-.06,.01-.03,.05-.04,.08-.03,.03,0,.05,.03,.07,.05,.07,.1,.1,.22,.1,.34,0,.14,0,.28-.03,.42l.08,.17,.09,.18s.05-.06,.06-.09c0-.02,0-.04,0-.06,.01-.03,.05-.04,.08-.03,.03,0,.05,.03,.07,.05,.08,.09,.1,.22,.11,.34,0,.14,0,.28-.03,.42l.09,.17,.09,.18s.05-.06,.05-.09c0-.02,0-.04,0-.06,.01-.03,.05-.04,.08-.03,.03,0,.05,.03,.07,.05,.08,.09,.1,.22,.11,.34,.01,.14,0,.28-.02,.42l.09,.17,.09,.18s.05-.06,.05-.09c0-.02,0-.04,0-.06,.01-.03,.05-.04,.08-.03s.05,.03,.07,.05c.08,.09,.1,.22,.11,.34,.01,.14,0,.28-.02,.42l.09,.17,.09,.18s.05-.06,.05-.09c0-.02,0-.04,0-.06,.01-.03,.05-.04,.08-.03s.05,.03,.07,.05c.08,.09,.11,.21,.12,.34,.01,.14,.01,.28-.01,.41l.09,.17,.09,.18s.05-.06,.05-.1c0-.02,0-.04,0-.06,.01-.03,.05-.04,.08-.03,.03,0,.05,.03,.07,.05,.08,.09,.11,.21,.12,.34,.01,.14,.01,.28-.01,.42l.09,.17,.09,.18s.05-.06,.05-.1c0-.02,0-.04,0-.06,.01-.03,.05-.04,.08-.04,.03,0,.05,.03,.07,.05,.08,.09,.11,.21,.12,.34,.02,.14,.01,.28,0,.42l.1,.17,.1,.17s.05-.06,.05-.1c0-.02,0-.04,0-.06,.01-.03,.05-.04,.08-.04s.06,.03,.08,.05c.08,.09,.12,.21,.13,.33,.02,.14,.02,.28,0,.42l.1,.17,.1,.17s.05-.06,.05-.1c0-.02,0-.04,0-.06,.01-.03,.05-.04,.08-.04,.03,0,.06,.03,.08,.05,.08,.09,.12,.21,.13,.33,.02,.14,.02,.28,0,.42l.1,.17,.1,.17s.05-.06,.05-.1c0-.02,0-.04,0-.07,.01-.03,.05-.04,.08-.04,.03,0,.06,.03,.08,.05,.08,.09,.11,.21,.14,.33,.02,.13,.03,.27,.02,.41l.1,.16,.11,.17s.05-.06,.04-.1c0-.02,0-.04,0-.06,.01-.03,.05-.05,.08-.04,.03,0,.06,.02,.08,.04,.09,.08,.12,.2,.15,.32,.03,.14,.03,.28,.02,.42l.1,.16,.11,.17s.04-.06,.04-.1c0-.02,0-.04,0-.06,.01-.03,.05-.05,.08-.04,.03,0,.06,.02,.08,.04,.09,.08,.12,.2,.15,.32,.03,.14,.03,.28,.03,.42l.03,.05,.05,.02v.05l.02,.05-.05,.03c.06,.09,.11,.17,.17,.26-.08-.02-.16-.05-.23-.07l-.02,.06-.18-.06c-.13,.05-.27,.07-.4,.08-.12,0-.25,0-.35-.06-.03-.02-.05-.04-.06-.07-.01-.03,0-.07,.02-.09,.02-.01,.04-.01,.06-.01,.03,0,.07-.03,.09-.07l-.18-.07-.18-.07c-.13,.04-.27,.06-.41,.07-.12,0-.25-.01-.35-.08-.02-.02-.05-.04-.06-.07,0-.03,0-.07,.03-.09,.02-.01,.04,0,.06-.01,.04,0,.07-.03,.09-.06l-.18-.08-.17-.07c-.13,.03-.27,.05-.41,.05-.12,0-.24-.03-.34-.1-.02-.02-.05-.04-.05-.07,0-.03,0-.07,.03-.08,.02-.01,.04,0,.06,0,.04,0,.07-.03,.09-.06l-.18-.08-.17-.08c-.14,.03-.28,.04-.41,.02-.12-.01-.24-.04-.33-.12-.02-.02-.04-.04-.05-.07s0-.07,.04-.08c.02,0,.04,0,.06,0,.04,0,.07-.02,.09-.05l-.17-.09-.08-.04s-.08-.04-.08-.04c-.14,.02-.28,.02-.41,0-.12-.02-.24-.05-.33-.13-.02-.02-.04-.04-.05-.08,0-.03,.01-.07,.04-.08,.02,0,.04,0,.06,0,.04,0,.07-.02,.1-.05l-.17-.1-.16-.1c-.14,.01-.28,0-.41-.02-.12-.02-.24-.06-.32-.14-.02-.02-.04-.05-.04-.08,0-.03,.01-.07,.04-.08,.02,0,.04,0,.06,0,.04,0,.07-.01,.1-.04l-.16-.11-.16-.11c-.14,0-.28,0-.41-.03-.12-.02-.24-.07-.32-.17-.02-.02-.04-.05-.04-.08,0-.03,.02-.07,.05-.08,.02,0,.04,0,.06,0,.04,0,.07-.01,.1-.04l-.16-.12-.15-.11c-.14,0-.28-.02-.41-.06-.11-.04-.23-.09-.3-.19-.02-.02-.03-.05-.03-.08,0-.03,.02-.07,.05-.07,.02,0,.04,0,.06,0,.04,0,.07,0,.1-.03l-.15-.13-.14-.12c-.14,0-.28-.04-.4-.09-.11-.04-.22-.11-.29-.21-.02-.03-.03-.05-.03-.09,0-.03,.03-.06,.06-.07,.02,0,.04,0,.06,.01,.04,0,.08,0,.11-.02l-.14-.14-.14-.13c-.14-.02-.27-.06-.39-.12-.11-.05-.22-.12-.28-.23-.01-.03-.03-.06-.02-.09,0-.03,.03-.06,.06-.06,.02,0,.04,.01,.06,.02,.03,.01,.08,0,.11-.02l-.13-.15-.06-.07-.06-.07c-.13-.03-.26-.08-.38-.15-.11-.06-.21-.14-.26-.25-.01-.03-.02-.06-.02-.09s.04-.06,.07-.06c.02,0,.04,.01,.06,.02,.03,.01,.08,.01,.11,0l-.06-.08s-.06-.08-.06-.08l-.11-.16c-.13-.04-.26-.1-.37-.18-.1-.07-.2-.15-.24-.27,0-.03-.01-.06,0-.09s.04-.06,.07-.05c.02,0,.04,.02,.06,.03,.03,.02,.07,.02,.11,0l-.1-.17-.09-.16c-.13-.05-.25-.13-.36-.21-.1-.07-.18-.17-.21-.29,0-.03,0-.06,0-.09,.01-.03,.05-.05,.08-.05,.02,0,.04,.02,.05,.03,.03,.02,.07,.02,.11,.01l-.08-.18-.08-.17c-.12-.07-.24-.15-.34-.24-.08-.09-.16-.19-.18-.31,0-.03,0-.06,.01-.09,.02-.03,.05-.05,.08-.04,.02,0,.04,.02,.05,.04,.03,.02,.07,.03,.11,.02l-.07-.18-.03-.09s-.03-.09-.03-.09c-.11-.08-.22-.17-.31-.28-.08-.09-.15-.2-.16-.32,0-.03,0-.06,.02-.09,.02-.03,.05-.04,.08-.03,.02,0,.03,.03,.05,.04,.03,.02,.06,.04,.1,.03l-.05-.19-.05-.18c-.11-.09-.21-.19-.29-.3-.07-.1-.12-.21-.12-.34,0-.03,0-.06,.02-.09,.02-.02,.06-.04,.09-.02,.02,0,.03,.03,.05,.05,.02,.03,.06,.04,.1,.04l-.04-.19-.02-.09-.02-.09c-.1-.09-.19-.2-.26-.32-.06-.1-.12-.22-.1-.34,0-.03,.01-.06,.03-.08,.02-.02,.06-.03,.09-.02,.02,.01,.03,.03,.04,.05,.02,.03,.06,.05,.1,.05l-.02-.2-.02-.19c-.1-.1-.18-.21-.24-.34-.05-.11-.1-.23-.08-.35,0-.03,.01-.06,.04-.08Z"/><path class="bf" d="M445.11,349.92s.05-.05,.08-.05c.02,0,.04,.02,.06,.03,.03,.02,.06,.02,.1,.01h0l-.08-.18s-.26-.38-.28-.41c.04,0,.43,.24,.43,.24l.15,.03,.04-.02s-.01-.05-.03-.07c-.02-.01-.04-.03-.04-.05-.01-.03,0-.07,.02-.09,.02-.02,.06-.02,.09-.02,.12,0,.23,.06,.33,.13,.11,.08,.21,.17,.3,.28l.18,.05,.19,.05s0-.08-.03-.1c-.01-.02-.03-.03-.04-.05-.01-.03,0-.07,.03-.08s.06-.02,.09-.02c.12,0,.23,.06,.32,.14,.11,.09,.2,.19,.28,.3l.18,.06-.02,.06h0l.02-.06,.09,.03s.09,.03,.09,.03c0-.04,0-.08-.02-.11-.01-.02-.03-.03-.04-.05,0-.03,0-.07,.04-.08,.03-.02,.06-.02,.09-.01,.12,.02,.22,.09,.31,.17,.1,.09,.19,.2,.26,.32l.17,.07,.18,.08s0-.08-.02-.11c-.01-.02-.03-.03-.04-.05,0-.03,.01-.06,.04-.08,.03-.01,.06-.01,.09,0,.12,.02,.22,.1,.3,.18,.09,.1,.17,.22,.23,.34l.17,.08,.18,.08s0-.08-.01-.11c-.01-.02-.03-.03-.03-.05,0-.03,.02-.06,.05-.08,.03-.01,.06-.01,.09,0,.12,.03,.21,.12,.29,.21,.09,.11,.16,.22,.21,.35l.08,.04s.08,.05,.08,.05l.17,.1s.01-.08,0-.11c-.01-.02-.03-.04-.03-.06,0-.03,.02-.06,.05-.07,.03-.01,.06,0,.09,0,.11,.04,.2,.13,.27,.22,.08,.11,.15,.23,.19,.36l.16,.1,.16,.11s.02-.08,0-.11c0-.02-.02-.04-.03-.06,0-.03,.03-.06,.06-.07,.03,0,.06,0,.09,0,.11,.04,.19,.14,.26,.24,.07,.11,.13,.24,.17,.37l.15,.11,.16,.11s.02-.07,0-.11c0-.02-.02-.04-.02-.06,0-.03,.03-.06,.06-.07,.03,0,.06,0,.09,.01,.11,.05,.19,.14,.25,.24,.07,.11,.13,.24,.17,.37l.15,.11,.16,.11s.02-.07,0-.11c0-.02-.02-.04-.02-.06,0-.03,.03-.06,.06-.07,.03,0,.06,0,.09,.01,.11,.05,.19,.14,.25,.24,.07,.11,.13,.24,.17,.37l.15,.1,.16,.11s.02-.08,0-.11c0-.02-.02-.04-.02-.06,0-.03,.03-.06,.06-.07,.03,0,.06,0,.09,0,.11,.04,.19,.13,.25,.23,.07,.11,.14,.23,.19,.36l.16,.09,.17,.1s.01-.08,0-.11c0-.02-.03-.03-.03-.06,0-.03,.02-.06,.05-.07,.03-.01,.06,0,.09,0,.11,.04,.2,.11,.27,.2,.08,.1,.15,.22,.21,.34l.08,.04s.08,.04,.08,.04l.18,.08s0-.08-.02-.11c-.01-.02-.03-.03-.03-.05,0-.03,.02-.06,.04-.08,.03-.01,.06-.01,.09,0,.11,.02,.21,.09,.29,.18,.09,.1,.17,.21,.25,.32l.17,.06,.18,.07s0-.08-.02-.11c-.01-.02-.03-.03-.04-.05,0-.03,.01-.07,.04-.08,.03-.02,.06-.02,.09-.01,.11,.01,.21,.09,.3,.16,.1,.09,.19,.19,.27,.3l.18,.06,.18,.06s0-.08-.03-.1c-.01-.02-.03-.03-.04-.05,0-.03,0-.07,.03-.08,.03-.02,.06-.02,.09-.02,.12,0,.22,.08,.31,.15,.1,.09,.19,.19,.27,.3l.18,.06,.18,.06s0-.08-.03-.1c-.01-.02-.03-.03-.04-.05,0-.03,0-.07,.04-.08,.03-.02,.06-.02,.09-.01,.12,.01,.22,.08,.31,.16,.1,.09,.19,.2,.26,.32l.17,.07,.18,.07s0-.08-.02-.1c-.01-.02-.03-.03-.04-.05,0-.03,.01-.06,.04-.08,.03-.02,.06-.02,.09-.01,.12,.02,.22,.09,.3,.18,.1,.1,.18,.21,.24,.34l.17,.08s.05,.02,.09,.04l.08,.05s0-.08,0-.11c-.01-.02-.03-.04-.03-.06,0-.03,.02-.06,.05-.08,.03-.01,.06,0,.09,0,.12,.04,.21,.13,.28,.22,.09,.11,.15,.23,.2,.35l.16,.09,.17,.1s.01-.08,0-.11c0-.02-.02-.03-.03-.06,0-.03,.02-.06,.05-.07,.03-.01,.06,0,.08,0,.11,.03,.19,.12,.26,.2,.09,.1,.16,.21,.23,.33,0,0,.04,.02,.08,.04l.09,.03,.18,.06s0-.08-.02-.1c-.01-.02-.03-.03-.04-.05,0-.03,.01-.06,.04-.08,.03-.02,.06-.02,.08-.02,.11,0,.2,.08,.29,.15,.06,.04,.11,.1,.17,.15l.23-.03,.04,.2h.03v.07s.1,.02,.15,.03c-.05,.01-.11,.02-.16,.03v.07h-.03l-.04,.2-.24-.06c-.06,.05-.13,.1-.2,.14-.11,.06-.23,.11-.35,.1-.03,0-.06,0-.09-.03-.02-.02-.04-.06-.02-.09,.01-.02,.03-.03,.05-.04,.03-.02,.05-.06,.05-.1l-.2,.03-.19,.03c-.1,.1-.22,.19-.34,.25-.11,.06-.23,.1-.35,.08-.03,0-.06-.01-.08-.03-.02-.02-.03-.06-.02-.09,.01-.02,.03-.03,.05-.04,.03-.02,.05-.06,.05-.1l-.2,.02-.19,.02c-.11,.09-.22,.17-.35,.24-.11,.06-.23,.1-.36,.07-.03,0-.06-.02-.08-.04-.02-.02-.03-.06-.01-.09,.01-.02,.04-.02,.05-.04,.03-.02,.05-.05,.06-.09h-.39c-.11,.09-.23,.16-.36,.22-.11,.05-.24,.08-.36,.06-.03,0-.06-.02-.08-.04-.02-.02-.03-.06,0-.09,.01-.02,.04-.02,.06-.04,.03-.02,.05-.05,.06-.09h-.3s-.1,0-.1,0c-.11,.08-.24,.14-.37,.18-.12,.04-.24,.06-.36,.03-.03,0-.06-.02-.08-.05-.02-.03-.02-.07,0-.09,.01-.02,.04-.02,.06-.03,.03-.02,.06-.05,.07-.09h-.2l-.19-.02c-.12,.08-.25,.14-.38,.18-.12,.03-.25,.05-.36,.01-.03,0-.06-.02-.08-.05-.02-.03-.02-.07,0-.09,.02-.02,.04-.02,.06-.03,.03-.01,.06-.05,.07-.08l-.2-.02-.19-.02c-.12,.07-.25,.12-.39,.16-.12,.03-.25,.04-.36,0-.03-.01-.06-.03-.07-.05-.02-.03-.02-.07,0-.09,.02-.02,.04-.02,.06-.03,.03-.01,.06-.04,.07-.08l-.2-.03-.19-.03c-.13,.06-.26,.11-.4,.14-.12,.03-.25,.03-.36-.02-.03-.01-.06-.03-.07-.06-.02-.03-.01-.07,.01-.09,.02-.01,.04-.02,.06-.02,.03-.01,.06-.04,.08-.08l-.2-.04-.19-.04c-.13,.06-.26,.09-.4,.11-.12,.02-.25,.02-.36-.04-.03-.01-.05-.03-.07-.06-.01-.03,0-.07,.02-.09,.02-.01,.04-.01,.06-.02,.04,0,.07-.04,.08-.07l-.19-.05-.19-.05c-.13,.05-.27,.08-.41,.09-.12,0-.25,0-.36-.06-.03-.02-.05-.04-.06-.07-.01-.03,0-.07,.02-.09,.02-.01,.04-.01,.06-.01,.04,0,.07-.03,.09-.07,0,0-.05-.01-.1-.03l-.09-.03-.18-.07c-.14,.04-.28,.06-.42,.06-.12,0-.25-.02-.35-.09-.03-.02-.05-.04-.06-.07,0-.03,0-.07,.03-.08,.02-.01,.04,0,.07-.01,.04,0,.07-.03,.09-.06l-.09-.04s-.09-.04-.09-.04l-.17-.08c-.14,.03-.28,.04-.42,.02-.12-.01-.25-.05-.35-.13-.02-.02-.05-.04-.05-.08,0-.03,0-.07,.04-.08,.02,0,.04,0,.07,0,.04,0,.07-.02,.1-.05l-.18-.1-.17-.1c-.14,.01-.28,0-.42-.02-.12-.02-.24-.07-.33-.16-.02-.02-.04-.05-.04-.08,0-.03,.01-.07,.05-.08,.02,0,.04,0,.07,0,.04,0,.08-.01,.1-.04l-.17-.11-.08-.06-.08-.06c-.14,0-.28-.03-.42-.07-.12-.03-.24-.1-.31-.2-.02-.03-.03-.05-.03-.09,0-.03,.02-.07,.05-.07,.02,0,.04,0,.06,.01,.04,0,.08,0,.11-.03l-.15-.13-.07-.06s-.07-.07-.07-.07c-.14-.02-.27-.06-.4-.12-.11-.05-.23-.12-.29-.23-.02-.03-.03-.06-.02-.09,0-.03,.03-.06,.06-.06,.02,0,.04,.01,.06,.02,.04,.01,.08,0,.11-.02,0,0-.04-.03-.07-.07l-.06-.08-.12-.15c-.14-.03-.27-.09-.39-.16-.11-.06-.21-.15-.26-.26-.01-.03-.02-.06-.01-.09,0-.03,.04-.06,.07-.06,.02,0,.04,.02,.06,.02,.03,.01,.07,.01,.11,0l-.12-.16-.11-.16c-.14-.04-.26-.11-.38-.19-.1-.07-.2-.16-.24-.28-.01-.03-.02-.06,0-.09,0-.03,.04-.06,.07-.05,.02,0,.04,.02,.06,.03,.03,.02,.07,.02,.11,0l-.11-.17s-.03-.04-.05-.08l-.05-.08c-.13-.05-.25-.13-.36-.21-.1-.08-.19-.17-.22-.29,0-.03-.01-.06,0-.09,.01-.03,.04-.05,.07-.05,.02,0,.04,.02,.06,.03,.03,.02,.07,.02,.11,0l-.1-.18,.06-.03h0l-.06,.03-.09-.17c-.13-.06-.25-.14-.35-.23-.09-.08-.18-.18-.21-.3,0-.03-.01-.06,0-.09s.04-.05,.08-.05c.02,0,.04,.02,.06,.03,.03,.02,.07,.02,.11,.01l-.09-.18-.09-.17c-.13-.06-.24-.14-.35-.24-.09-.08-.17-.18-.2-.3,0-.03-.01-.06,0-.09Z"/><path class="bf" d="M450.28,362.26l.15-.11h0s-.06-.04-.1-.04c-.02,0-.04,.01-.06,0-.03,0-.05-.04-.05-.07,0-.03,.02-.06,.04-.08,.08-.09,.19-.14,.31-.16,.13-.03,.27-.05,.4-.04l.15-.11,.16-.11s-.06-.05-.1-.04c-.02,0-.04,0-.06,0-.03,0-.05-.05-.04-.08,0-.03,.02-.06,.04-.08,.08-.08,.2-.12,.32-.14,.13-.02,.27-.03,.41-.01l.15-.1,.03,.05h0l-.03-.05,.16-.1s-.06-.05-.09-.05c-.02,0-.04,0-.06,0-.03-.01-.04-.05-.04-.08,0-.03,.02-.06,.04-.08,.08-.09,.21-.11,.32-.12,.14-.01,.27,0,.41,.02l.16-.09,.17-.09s-.06-.05-.09-.05c-.02,0-.04,0-.06,0-.03-.01-.04-.05-.03-.08s.03-.05,.05-.07c.09-.08,.21-.11,.33-.11,.14,0,.27,.01,.41,.05l.17-.07,.18-.08s-.05-.06-.09-.06c-.02,0-.04,0-.06-.01-.03-.02-.04-.05-.03-.08,0-.03,.03-.05,.05-.07,.09-.07,.22-.09,.33-.09,.13,0,.27,.03,.4,.07l.17-.06,.18-.06s-.05-.06-.08-.07c-.02,0-.04,0-.06-.02-.03-.02-.03-.06-.02-.09,.01-.03,.03-.05,.06-.07,.1-.06,.22-.07,.34-.07,.13,0,.26,.03,.39,.09l.18-.05,.19-.05s-.05-.06-.08-.07c-.02,0-.04,0-.06-.02-.02-.02-.03-.06-.02-.09,.01-.03,.04-.05,.06-.06,.1-.06,.23-.06,.35-.04,.13,.02,.26,.05,.39,.11,0,0,.18-.04,.18-.04l.19-.04s-.04-.07-.07-.08c-.02,0-.04,0-.06-.02-.02-.02-.03-.06-.01-.09,.01-.03,.04-.04,.07-.06,.11-.05,.23-.04,.35-.01,.13,.03,.26,.07,.38,.14l.18-.03,.19-.02s-.04-.07-.07-.08c-.02,0-.04-.01-.06-.03-.02-.02-.02-.06,0-.09,.02-.03,.04-.04,.07-.05,.11-.04,.23-.02,.35,.01,.13,.04,.25,.09,.37,.17l.18-.02h.1s.1-.02,.1-.02c0-.04-.03-.07-.06-.09-.02,0-.04-.01-.05-.03-.02-.02-.02-.06,0-.09,.02-.03,.05-.04,.07-.05,.11-.03,.23-.01,.34,.03,.13,.04,.25,.1,.36,.18h.18l.19-.03s-.03-.07-.06-.09c-.02,0-.04-.01-.05-.03-.02-.02-.02-.06,0-.09,.02-.03,.04-.04,.07-.05,.11-.04,.23-.01,.34,.02,.13,.04,.25,.1,.36,.17l.18-.02,.19-.02s-.03-.07-.07-.08c-.02,0-.04-.01-.05-.03-.02-.02-.02-.06,0-.09,.02-.03,.04-.04,.07-.05,.11-.04,.22-.02,.34,.01,.13,.04,.25,.09,.37,.15l.18-.03,.19-.03s-.04-.07-.07-.08c-.02,0-.04-.01-.06-.03-.02-.02-.02-.06,0-.09,.01-.03,.04-.04,.07-.05,.1-.05,.22-.04,.33-.01,.13,.03,.26,.08,.38,.13l.18-.05,.18-.05s-.04-.06-.08-.07c-.02,0-.04,0-.06-.02-.02-.02-.03-.06-.02-.09,.01-.03,.04-.05,.06-.06,.1-.05,.22-.05,.33-.04,.1,.01,.21,.04,.31,.07l.07-.1,.12,.08,.06-.02,.02,.06c.05-.02,.1-.04,.15-.06-.03,.04-.05,.08-.08,.12l.05,.04-.06,.08,.05,.13-.1,.03c0,.11-.01,.22-.03,.32-.03,.12-.07,.23-.16,.31-.02,.02-.05,.04-.08,.04-.03,0-.07-.02-.08-.05,0-.02,0-.04,0-.06,0-.04-.01-.07-.04-.1l-.12,.16-.06,.08-.06,.07c0,.14-.02,.28-.06,.41-.03,.12-.08,.23-.18,.31-.02,.02-.05,.03-.08,.03-.03,0-.07-.02-.07-.05,0-.02,0-.04,0-.06,0-.04,0-.07-.03-.1l-.13,.15-.12,.14c0,.14-.04,.27-.08,.4-.04,.11-.1,.23-.2,.3-.03,.02-.05,.03-.09,.03-.03,0-.06-.02-.07-.06,0-.02,0-.04,.01-.06,0-.03,0-.07-.03-.1l-.14,.14-.13,.14c-.02,.14-.05,.27-.11,.4-.05,.11-.12,.22-.22,.28-.03,.02-.06,.03-.09,.02-.03,0-.06-.03-.07-.06,0-.02,.01-.04,.02-.06,.01-.03,0-.08-.02-.11,0,0-.03,.03-.07,.07l-.07,.06-.14,.12c-.03,.14-.07,.27-.14,.39-.06,.11-.14,.21-.25,.26-.03,.01-.06,.02-.09,.02-.03,0-.06-.04-.06-.07,0-.02,.01-.04,.02-.06,.01-.03,.01-.07,0-.11l-.08,.06s-.08,.06-.08,.06l-.15,.11c-.04,.13-.1,.26-.18,.37-.07,.1-.16,.19-.28,.23-.03,0-.06,.02-.09,0-.03-.01-.05-.04-.05-.07,0-.02,.02-.04,.03-.06,.02-.03,.02-.07,0-.11l-.17,.1-.17,.09c-.06,.12-.14,.24-.23,.35-.08,.09-.19,.17-.31,.19-.03,0-.06,0-.09,0-.03-.01-.05-.05-.04-.08,0-.02,.02-.04,.04-.05,.02-.03,.03-.07,.02-.11l-.18,.08s-.04,.02-.09,.04l-.09,.03c-.08,.11-.17,.22-.28,.31-.09,.08-.21,.14-.33,.14-.03,0-.06,0-.09-.02-.03-.02-.04-.06-.03-.08,0-.02,.03-.03,.04-.05,.03-.03,.04-.06,.04-.1l-.19,.05s-.18,.05-.18,.04c-.09,.1-.2,.19-.32,.26-.05,.03-.11,.06-.17,.08-.06,.02-.12,.02-.18,.01-.03,0-.06-.01-.08-.04-.02-.02-.03-.06-.02-.09,.01-.02,.03-.03,.05-.04,.03-.02,.05-.06,.05-.09h-.2l-.19,.03c-.11,.09-.22,.17-.35,.23-.11,.04-.24,.07-.36,.04-.03,0-.06-.02-.08-.04-.02-.02-.02-.06,0-.09,.01-.02,.04-.02,.05-.03,.03-.02,.05-.05,.06-.09h-.38c-.12,.08-.24,.12-.37,.16-.12,.03-.24,.05-.36,.01-.03,0-.06-.02-.07-.05-.02-.03-.02-.07,0-.09,.02-.02,.04-.02,.06-.03,.03-.02,.06-.05,.07-.08l-.2-.02-.19-.03c-.12,.06-.25,.11-.39,.14-.12,.03-.25,.04-.36-.01-.03-.01-.05-.03-.07-.06-.01-.03-.01-.07,.01-.09,.02-.01,.04-.02,.06-.02,.03-.01,.06-.04,.08-.08l-.19-.04-.18-.04c-.13,.06-.26,.1-.4,.12-.12,.02-.25,.02-.35-.04-.03-.01-.05-.03-.07-.06-.01-.03,0-.07,.02-.09,.02-.01,.04-.01,.06-.02,.03,0,.06-.04,.08-.07l-.19-.05-.18-.05c-.13,.05-.26,.09-.4,.1-.12,.01-.24,0-.35-.05-.03-.01-.05-.03-.06-.06-.01-.03,0-.07,.02-.09,.02-.01,.04-.01,.06-.02,.03,0,.07-.04,.08-.07l-.19-.06,.02-.06h0l-.02,.06-.18-.05c-.13,.05-.26,.08-.4,.09-.12,.01-.24,0-.35-.06-.03-.02-.05-.03-.06-.06s0-.07,.02-.09c.02-.01,.04-.01,.06-.02,.03,0,.07-.03,.08-.07l-.19-.06s-.4,0-.44-.01c.03-.03,.41-.22,.41-.22Z"/></g></g><g><path class="da" d="M466.52,359.62h-.16c0,.34,.09,.63,.18,.83,.09,.2,.17,.3,.18,.3,.02,0-.03-.13-.09-.33-.05-.2-.11-.48-.11-.8Z"/><path class="da" d="M480.24,352.84h0s0,0,0,0Z"/><polygon class="da" points="480.24 352.84 480.24 352.84 480.24 352.84 480.24 352.84"/><path class="da" d="M481.05,351.97h0c.27-.32,.53-.66,.78-1.02l-.13-.13c-.2,.29-.41,.57-.63,.84,.02-.43,0-.74-.02-.74-.03,0-.1,.4-.14,.94-.19,.22-.39,.42-.59,.62-.1-.47-.14-.89-.15-1.21,0-.36,0-.58-.02-.58-.01,0-.06,.22-.08,.58-.02,.34,0,.82,.12,1.34-.28,.27-.57,.52-.87,.76-.16-.43-.24-.83-.28-1.13-.04-.37-.05-.61-.07-.61,0,0-.02,.06-.02,.16,0,.11-.03,.26-.01,.45,.02,.33,.09,.76,.25,1.22-.27,.2-.53,.4-.81,.58,0-.05-.01-.09-.02-.14l-.04-.4c-.03-.26-.05-.49-.05-.68-.02-.39-.04-.63-.05-.63-.02,0-.03,.24-.05,.63-.01,.2,0,.43,.01,.69l.03,.41c0,.07,.01,.14,.03,.22-.37,.24-.74,.45-1.11,.65,.03-.97,.12-1.7,.08-1.71-.02,0-.06,.22-.12,.59-.06,.31-.09,.73-.12,1.19-.37,.19-.74,.37-1.1,.53,.05-.5,.11-.94,.17-1.28,.08-.42,.13-.67,.11-.68,0,0-.03,.06-.07,.17-.04,.11-.09,.28-.14,.48-.09,.35-.18,.83-.24,1.37-.37,.16-.73,.3-1.08,.43v-.06c.01-.07,.02-.13,.03-.2l.04-.19c.03-.12,.04-.24,.07-.35l.09-.3c.02-.09,.05-.17,.08-.24l.07-.18c.04-.1,.05-.16,.05-.16,0,0-.04,.05-.09,.14l-.09,.17c-.04,.07-.08,.15-.11,.24l-.11,.3c-.04,.11-.06,.23-.09,.35l-.05,.19c-.01,.07-.02,.14-.03,.21l-.02,.14c-.23,.08-.46,.16-.67,.23-.15,.05-.3,.1-.46,.15,.12-.32,.24-.61,.35-.82,.16-.3,.26-.49,.25-.5-.01,0-.15,.15-.34,.45-.14,.23-.31,.55-.45,.93-.43,.13-.86,.24-1.29,.35,.17-.35,.32-.67,.45-.91,.18-.34,.28-.55,.26-.56s-.15,.18-.35,.51c-.17,.25-.36,.61-.56,1.01-.45,.11-.9,.2-1.36,.29,.13-.24,.25-.45,.37-.61,.16-.25,.26-.41,.24-.42s-.14,.13-.33,.36c-.16,.17-.31,.42-.48,.71-.41,.08-.82,.14-1.23,.21,.12-.17,.25-.32,.35-.43,.17-.18,.27-.3,.26-.31,0-.01-.14,.07-.33,.24-.14,.13-.32,.31-.49,.54-.3,.04-.59,.09-.89,.12,.09-.11,.17-.2,.24-.28,.16-.17,.27-.27,.26-.28,0-.01-.14,.06-.33,.21-.11,.09-.25,.23-.38,.38-.8,.1-1.6,.19-2.4,.27-.1,.01-.15-.12-.06-.18,.74-.49,1.46-1.02,2.14-1.59,.41-.11,.77-.22,1.04-.31,.29-.09,.47-.16,.46-.18,0-.01-.19,.02-.49,.08-.2,.04-.46,.1-.74,.17,.32-.28,.63-.56,.93-.85,.09-.02,.18-.03,.28-.04,.13-.02,.29-.05,.4-.1,.24-.09,.45-.16,.62-.24,.35-.17,.55-.27,.54-.29,0-.01-.23,.06-.58,.19-.18,.07-.4,.13-.63,.21-.12,.04-.23,.06-.37,.08h-.06c.41-.4,.8-.82,1.18-1.25,.51-.2,.97-.37,1.28-.55,.35-.18,.55-.3,.55-.31-.02-.03-.69,.28-1.62,.62,.42-.5,.83-1.01,1.21-1.54,.49-.1,.9-.27,1.19-.41,.31-.16,.48-.29,.48-.3,0-.02-.2,.07-.52,.21-.26,.1-.61,.22-1.01,.31,.27-.38,.53-.77,.78-1.17h0c.96-.44,1.75-.76,1.73-.8,0-.01-.21,.04-.54,.15-.28,.09-.65,.24-1.06,.42,.27-.44,.53-.89,.77-1.34,.43-.12,.79-.29,1.05-.43,.27-.16,.43-.27,.42-.29,0-.02-.18,.07-.47,.19-.23,.1-.54,.22-.9,.32,.28-.54,.54-1.09,.78-1.65,.46-.19,.83-.43,1.08-.63,.27-.23,.41-.39,.4-.4-.01-.01-.18,.12-.46,.32-.23,.16-.55,.34-.93,.5,.21-.49,.4-.99,.57-1.5,.27-.16,.52-.3,.67-.44,.16-.14,.26-.23,.25-.24-.02-.03-.36,.21-.84,.46,.14-.42,.27-.85,.39-1.28,.41-.3,.7-.56,.68-.58-.02-.02-.28,.12-.62,.35,.1-.39,.2-.79,.28-1.18h0c.22-.13,.4-.25,.39-.28,0-.02-.16,0-.36,.09,.11-.53,.2-1.06,.27-1.59l-.16-.02c-.07,.51-.16,1.03-.26,1.53-.1-.14-.2-.25-.29-.33-.13-.11-.23-.15-.23-.14-.01,.01,.06,.09,.16,.21,.09,.12,.21,.28,.32,.48-.08,.39-.18,.78-.29,1.16-.28-.42-.51-.72-.53-.7-.03,.02,.18,.42,.48,.91-.12,.43-.26,.86-.41,1.29-.17-.35-.32-.66-.46-.88-.16-.26-.26-.42-.27-.41-.03,.02,.29,.67,.65,1.5-.18,.49-.37,.98-.58,1.46-.23-.45-.48-.83-.68-1.1-.22-.29-.38-.46-.39-.45-.01,.01,.11,.2,.31,.5,.19,.31,.44,.74,.68,1.24-.24,.55-.51,1.08-.79,1.61-.15-.38-.29-.72-.43-.97-.16-.32-.27-.51-.29-.5-.04,.02,.29,.71,.62,1.65-.25,.46-.52,.91-.8,1.35-.13-.39-.24-.74-.37-.99-.14-.31-.24-.49-.25-.48-.04,.02,.25,.72,.51,1.65-.27,.42-.55,.82-.84,1.22-.18-.65-.35-1.13-.38-1.12-.03,0,.08,.57,.26,1.28-.4,.53-.81,1.05-1.25,1.55-.12-.84-.24-1.47-.26-1.46-.03,0,.02,.71,.13,1.62-.41,.47-.84,.92-1.29,1.35-.02-.42-.01-.79-.01-1.08,0-.36,0-.59-.03-.59-.02,0-.04,.22-.08,.58-.03,.32-.06,.75-.04,1.23-.37,.35-.75,.69-1.14,1.02-.05-.14-.04-.31-.04-.46,0-.22-.01-.42-.02-.59-.05-.33-.09-.53-.11-.53-.02,0-.01,.21,0,.53l-.02,.58c0,.11-.02,.23,0,.36,0,.07,.03,.14,.06,.21-.78,.64-1.59,1.23-2.44,1.76-.06,.04-.15,0-.15-.08l-.02-3.38c.26-.3,.48-.56,.62-.78,.16-.23,.24-.38,.23-.39-.03-.02-.37,.4-.85,.94v-1.52c.35-.36,.66-.68,.86-.95,.22-.28,.34-.45,.33-.46-.03-.02-.51,.53-1.2,1.2v-1.7c.77-.85,1.35-1.55,1.33-1.57-.02-.02-.61,.56-1.34,1.34v-1.87h-.01v-.02c.43-.39,.77-.78,1.01-1.09,.13-.17,.23-.32,.29-.41,.07-.1,.1-.16,.09-.16-.01-.01-.18,.19-.46,.51-.23,.26-.55,.59-.93,.94v-1.78c.51-.48,.92-.98,1.2-1.35,.14-.19,.24-.36,.31-.47,.07-.11,.1-.18,.1-.18-.02-.01-.19,.22-.49,.59-.27,.33-.66,.76-1.13,1.2v-1.96h0c.43-.44,.82-.84,1.05-1.17,.24-.32,.38-.52,.37-.53-.01,0-.18,.17-.45,.47-.23,.29-.59,.63-.98,1.02v-1.95l.02,.04c.26-.26,.49-.5,.63-.69,.14-.19,.22-.31,.21-.32-.03-.02-.39,.37-.88,.83v-1.57c.38-.44,.66-.82,.64-.84-.02-.02-.3,.24-.65,.6v-1.42h0c.29-.37,.49-.71,.47-.73-.02-.02-.23,.19-.48,.49v-1.11c.1-.07,.18-.15,.23-.22,.06-.09,.09-.15,.08-.16-.02-.02-.14,.09-.31,.2v-.87l-.14,.02v.85c-.18-.11-.3-.22-.32-.21-.01,0,.01,.07,.08,.16,.05,.07,.14,.15,.24,.22v1.04c-.23-.27-.41-.45-.43-.43-.02,.02,.16,.32,.43,.68v1.42c-.33-.34-.59-.57-.61-.56-.02,.02,.23,.37,.6,.79v1.58c-.48-.45-.81-.82-.84-.79-.01,0,.07,.13,.21,.32,.14,.2,.37,.43,.63,.69v1.88c-.38-.38-.73-.71-.95-.99-.26-.3-.44-.48-.45-.47-.01,0,.13,.21,.37,.53,.22,.33,.6,.71,1.02,1.15v1.96c-.46-.43-.84-.85-1.11-1.17-.3-.37-.47-.6-.49-.59,0,0,.03,.07,.1,.18,.07,.11,.17,.28,.31,.47,.27,.37,.67,.85,1.18,1.33v1.78c-.37-.34-.68-.66-.91-.92-.28-.32-.45-.52-.46-.51,0,0,.03,.06,.09,.16,.07,.1,.16,.25,.29,.41,.23,.3,.57,.68,.98,1.07v1.89c-.73-.77-1.31-1.34-1.33-1.32-.02,.02,.56,.72,1.33,1.56v1.71c-.69-.66-1.17-1.21-1.2-1.18-.01,0,.11,.18,.33,.46,.19,.27,.51,.59,.86,.94v1.52c-.48-.53-.82-.95-.85-.93-.01,0,.07,.16,.23,.39,.13,.22,.36,.48,.61,.78v3.37c-.01,.08-.1,.12-.16,.08-.83-.54-1.63-1.15-2.4-1.79,.02-.05,.03-.11,.04-.16,.01-.13,0-.25,0-.36l-.02-.58c.02-.33,.02-.53,0-.53-.02,0-.06,.2-.11,.53,0,.17-.02,.37-.02,.59,0,.13,0,.27-.02,.4-.39-.34-.78-.69-1.15-1.05,.02-.45-.01-.84-.04-1.14-.03-.36-.06-.58-.08-.58-.02,0-.03,.22-.03,.59,0,.27,0,.61,0,.99-.44-.44-.87-.89-1.28-1.35,.1-.86,.14-1.52,.11-1.52-.03,0-.14,.58-.25,1.37-.43-.5-.84-1.01-1.24-1.54,.17-.67,.27-1.19,.24-1.2-.03,0-.18,.43-.36,1.04-.29-.4-.57-.8-.84-1.21,.26-.9,.53-1.57,.49-1.58-.01,0-.11,.18-.25,.48-.12,.24-.23,.56-.35,.93-.28-.44-.55-.88-.8-1.33,.33-.91,.64-1.58,.6-1.6-.01,0-.12,.18-.29,.5-.14,.24-.27,.56-.41,.93-.29-.52-.55-1.05-.8-1.59,.24-.49,.48-.92,.67-1.22,.2-.31,.32-.49,.31-.5-.01,0-.17,.16-.39,.45-.2,.27-.44,.64-.67,1.09-.21-.47-.41-.95-.59-1.44,.37-.84,.69-1.5,.66-1.51-.01,0-.12,.15-.27,.41-.14,.22-.3,.54-.46,.9-.15-.42-.29-.84-.42-1.27,.31-.5,.52-.92,.5-.94-.02-.01-.27,.3-.55,.74-.11-.39-.21-.78-.3-1.17h.02c.11-.21,.24-.39,.34-.51,.1-.12,.17-.2,.16-.21,0-.01-.1,.04-.23,.14-.1,.09-.22,.21-.33,.38-.12-.54-.22-1.08-.29-1.63l-.13,.07c.07,.53,.16,1.06,.27,1.58-.18-.08-.33-.1-.34-.08-.01,.03,.16,.14,.38,.28,.09,.4,.18,.79,.29,1.18-.33-.22-.59-.36-.61-.34-.02,.02,.27,.29,.67,.58,.12,.43,.26,.86,.41,1.29-.48-.26-.82-.49-.84-.46,0,.01,.08,.1,.25,.24,.15,.14,.4,.29,.68,.44,.18,.51,.38,1.01,.59,1.51-.39-.17-.71-.35-.95-.51-.28-.2-.45-.33-.46-.32,0,0,.13,.17,.4,.4,.26,.21,.64,.45,1.11,.64,.25,.56,.52,1.11,.81,1.65-.38-.11-.71-.23-.95-.34-.28-.13-.46-.21-.47-.19,0,.01,.15,.13,.42,.29,.27,.15,.65,.32,1.1,.44,.25,.46,.52,.92,.8,1.36-.44-.19-.83-.36-1.14-.45-.33-.11-.53-.17-.54-.15-.01,.04,.77,.36,1.73,.8l.03-.06c.27,.42,.55,.84,.85,1.25-.44-.09-.82-.22-1.11-.33-.32-.13-.51-.22-.52-.21,0,.01,.17,.13,.48,.3,.31,.15,.76,.33,1.28,.43,.4,.54,.81,1.06,1.25,1.57-1-.36-1.73-.7-1.75-.67,0,.01,.2,.13,.55,.31,.34,.19,.84,.38,1.4,.6h0c.37,.41,.76,.83,1.16,1.23-.06,0-.11-.01-.17-.02-.14-.01-.25-.04-.37-.08-.24-.08-.46-.14-.63-.21-.35-.13-.57-.21-.58-.19,0,.01,.2,.12,.54,.29,.17,.08,.39,.15,.62,.24,.11,.05,.26,.08,.4,.1,.14,.02,.27,.04,.4,.07,.3,.3,.62,.58,.94,.86-.33-.09-.63-.16-.86-.2-.3-.06-.48-.09-.49-.08,0,.01,.17,.08,.46,.18,.29,.1,.7,.22,1.15,.34h0c.66,.56,1.35,1.08,2.07,1.57,.08,.06,.04,.19-.06,.18-.81-.08-1.62-.17-2.43-.28-.13-.16-.27-.29-.38-.39-.19-.15-.32-.22-.33-.21-.01,.01,.09,.12,.26,.28,.07,.08,.16,.18,.25,.29-.3-.04-.59-.08-.89-.12-.17-.23-.35-.41-.49-.54-.19-.17-.33-.25-.33-.24-.01,.01,.09,.13,.26,.31,.1,.12,.22,.26,.35,.44-.41-.06-.82-.13-1.23-.21-.17-.29-.33-.54-.49-.71-.19-.23-.31-.37-.33-.36s.08,.17,.24,.42c.12,.16,.24,.37,.37,.61-.45-.09-.91-.18-1.35-.29-.2-.4-.39-.76-.57-1.01-.2-.32-.34-.51-.35-.51s.09,.22,.26,.56c.14,.24,.29,.56,.46,.91-.43-.1-.86-.22-1.29-.35-.14-.38-.3-.7-.45-.94-.19-.29-.33-.45-.34-.45-.02,.01,.09,.19,.25,.5,.11,.22,.24,.5,.35,.83-.16-.05-.32-.1-.48-.15-.21-.07-.43-.15-.65-.22l-.02-.15c0-.07-.01-.14-.03-.21l-.05-.19c-.03-.12-.05-.25-.09-.35l-.11-.3c-.03-.09-.07-.17-.11-.24l-.09-.17c-.05-.09-.09-.14-.09-.14,0,0,0,.06,.05,.16l.07,.18c.03,.07,.06,.15,.08,.24l.09,.3c.03,.11,.05,.23,.07,.35l.04,.19c0,.06,.01,.13,.02,.2v.07c-.34-.13-.7-.27-1.07-.42-.05-.55-.15-1.04-.24-1.39-.05-.21-.11-.37-.14-.48-.04-.11-.06-.17-.07-.17-.02,0,.04,.26,.11,.68,.06,.34,.13,.79,.17,1.3-.36-.16-.73-.33-1.1-.52-.03-.48-.05-.91-.12-1.23-.06-.37-.11-.6-.12-.59-.04,0,.05,.75,.08,1.74-.38-.2-.75-.41-1.13-.65,.02-.09,.03-.18,.04-.26l.03-.41c.02-.26,.03-.49,.01-.69-.01-.39-.03-.63-.05-.63-.02,0-.04,.24-.05,.63,0,.19-.03,.42-.05,.68l-.04,.4c0,.06-.01,.13-.03,.19-.28-.18-.55-.37-.82-.57,.18-.48,.25-.93,.27-1.27,.01-.19,0-.35-.01-.45,0-.11-.02-.16-.02-.16-.02,0-.03,.24-.07,.61-.04,.32-.13,.74-.3,1.18-.3-.23-.59-.48-.87-.74,.13-.54,.15-1.04,.13-1.4-.03-.36-.07-.58-.08-.58-.02,0-.01,.22-.02,.58-.01,.33-.06,.78-.17,1.27-.19-.19-.38-.38-.57-.59-.05-.59-.12-1.04-.15-1.03-.03,0-.04,.35-.02,.83-.23-.27-.45-.55-.65-.85l-.14,.06c.24,.36,.5,.69,.77,1.01-.38-.14-.68-.22-.68-.19,0,.03,.33,.22,.78,.4l.03-.06c.16,.18,.32,.35,.48,.52l-.1-.02c-.14-.03-.26-.05-.37-.07-.21-.04-.34-.05-.35-.04,0,.02,.12,.07,.32,.13,.1,.03,.22,.07,.36,.11l.21,.06,.11,.03h.03c.28,.28,.56,.53,.86,.77h0c-.64-.05-1.13-.13-1.14-.1,0,.02,.14,.06,.39,.13,.24,.07,.59,.11,.97,.16h0c.23,.17,.46,.35,.69,.51-.68-.07-1.18-.15-1.19-.11,0,.02,.16,.07,.44,.13,.26,.07,.62,.12,1.03,.17,.37,.24,.74,.46,1.1,.67h-.28c-.18,.02-.35,.03-.49,.04-.28,.02-.45,.05-.45,.06s.17,.03,.45,.04c.14,0,.3,0,.49,0h.29c.1,0,.2,0,.26,.03l.02-.03c.32,.17,.63,.32,.94,.46-.36,.03-.67,.06-.91,.11-.28,.05-.44,.09-.44,.11,0,.04,.69-.03,1.55-.07v-.06c.4,.18,.8,.34,1.18,.48-.4,.1-.75,.2-1.03,.23-.33,.06-.54,.11-.53,.12,0,.02,.21,0,.55-.02,.34-.01,.79-.12,1.29-.24,.11,.04,.21,.07,.31,.11,.22,.07,.44,.14,.67,.21-.59,.21-1.03,.4-1.02,.42,0,.03,.58-.11,1.27-.34h0c.43,.11,.85,.22,1.29,.32-.3,.15-.58,.26-.8,.33-.26,.09-.42,.14-.42,.15,0,.01,.17,0,.44-.06,.27-.06,.64-.18,1.02-.38,.44,.1,.88,.19,1.32,.27-.25,.12-.48,.21-.66,.26-.22,.06-.36,.09-.35,.11,0,.01,.14,.02,.38,0,.23-.03,.55-.12,.86-.3l-.02-.03c.42,.07,.84,.14,1.26,.2-.38,.2-.68,.34-.67,.37,0,.02,.41-.05,.86-.29l-.03-.06c.35,.05,.7,.1,1.04,.14v.02c-.31,.14-.54,.27-.53,.3,.01,.03,.37-.06,.81-.23l-.02-.05c.74,.09,1.47,.17,2.21,.24,.09,0,.12,.13,.04,.18-.58,.34-1.18,.66-1.78,.96-.23-.07-.45-.11-.62-.13-.28-.02-.45,0-.45,.01,0,.02,.17,.04,.44,.09,.13,.03,.29,.07,.45,.12-.38,.19-.77,.37-1.15,.54-.26-.12-.5-.23-.7-.29-.13-.04-.24-.07-.32-.08-.08-.01-.12-.01-.12,0,0,0,.04,.03,.11,.06,.07,.03,.17,.06,.29,.12,.15,.07,.34,.16,.55,.27-.41,.18-.81,.35-1.23,.5-.3-.17-.6-.26-.83-.3-.26-.04-.41-.03-.41-.02,0,.02,.15,.05,.39,.12,.18,.06,.41,.15,.66,.27-.5,.19-1.01,.37-1.53,.53-.34-.29-.69-.5-.95-.63-.29-.14-.47-.2-.48-.18,0,.02,.16,.11,.43,.27,.23,.14,.52,.35,.83,.6-.51,.16-1.03,.3-1.55,.43-.27-.24-.54-.42-.75-.54-.25-.13-.41-.18-.41-.17,0,.02,.14,.11,.36,.25,.17,.12,.39,.29,.62,.49-.42,.1-.85,.19-1.28,.27-.18-.21-.38-.37-.54-.46-.19-.1-.32-.13-.32-.12,0,.02,.1,.09,.27,.21,.12,.1,.27,.23,.42,.4-.76,.14-1.53,.24-2.3,.3l.02,.17c1.92-.16,3.83-.51,5.69-1.05-.16,.32-.34,.58-.49,.77-.18,.21-.3,.34-.28,.35,0,0,.15-.09,.36-.28,.2-.2,.44-.51,.63-.9,.53-.16,1.05-.33,1.57-.52-.16,.45-.35,.84-.51,1.12-.2,.33-.34,.53-.33,.54,0,0,.05-.04,.12-.12,.07-.09,.18-.2,.29-.37,.21-.3,.44-.73,.62-1.25,.44-.16,.87-.34,1.3-.52h.02c-.1,.34-.24,.63-.36,.85-.16,.26-.28,.42-.27,.43,0,0,.16-.12,.35-.38,.17-.23,.35-.58,.47-.99,.4-.17,.8-.36,1.19-.55,.04,.02,.07,.03,.11,.05l.06-.13c.6-.3,1.2-.62,1.78-.96,.06-.04,.15,0,.15,.08v7.74h.36v-7.74c0-.07,.08-.12,.15-.08,.59,.35,1.19,.67,1.81,.98l.06,.12s.07-.03,.1-.04c.4,.19,.8,.38,1.2,.56,.11,.41,.3,.75,.46,.98,.2,.25,.35,.39,.35,.38,.02-.01-.1-.17-.27-.43-.12-.21-.26-.5-.36-.85h.01c.43,.19,.87,.36,1.32,.53,.18,.51,.41,.94,.62,1.24,.11,.16,.22,.28,.29,.37,.07,.08,.12,.13,.12,.12,.02-.01-.12-.21-.33-.54-.16-.28-.35-.66-.51-1.11,.52,.19,1.04,.36,1.57,.52,.19,.39,.43,.7,.63,.89,.21,.19,.35,.29,.36,.28,.01-.01-.11-.14-.28-.35-.15-.19-.33-.45-.49-.76,1.85,.54,3.75,.89,5.66,1.04l-.04-.17c-.75-.06-1.49-.16-2.23-.29,.15-.18,.3-.32,.43-.42,.16-.12,.27-.19,.27-.21,0-.01-.13,.02-.32,.12-.16,.09-.37,.25-.55,.47-.43-.08-.86-.17-1.28-.27,.23-.21,.46-.38,.63-.5,.22-.15,.37-.24,.36-.25,0-.01-.17,.04-.41,.17-.22,.11-.49,.3-.76,.55-.52-.13-1.03-.27-1.55-.43,.31-.26,.61-.47,.84-.62,.27-.16,.43-.26,.43-.27,0-.01-.19,.05-.48,.18-.27,.13-.62,.35-.97,.65-.51-.16-1.02-.34-1.53-.53,.25-.13,.49-.23,.68-.28,.24-.07,.39-.1,.39-.12,0-.01-.16-.02-.41,.02-.23,.04-.53,.14-.84,.31-.41-.16-.82-.33-1.23-.51,.22-.11,.41-.21,.57-.28,.12-.06,.22-.1,.29-.12,.07-.03,.11-.05,.11-.06,0,0-.04,0-.12,0-.08,0-.19,.03-.32,.08-.2,.06-.44,.17-.71,.29-.39-.17-.77-.35-1.15-.54,.17-.06,.33-.1,.47-.12,.27-.05,.44-.07,.44-.09,0-.01-.17-.03-.45-.01-.18,.02-.4,.06-.64,.13-.61-.3-1.2-.62-1.79-.96-.08-.05-.05-.17,.04-.18,.74-.08,1.48-.16,2.23-.25l-.02,.05c.43,.17,.79,.26,.81,.23,0-.02-.22-.15-.54-.3v-.02c.36-.04,.71-.09,1.06-.14l-.03,.06c.45,.24,.85,.31,.86,.29,.01-.03-.29-.17-.68-.38,.42-.06,.85-.13,1.27-.21l-.02,.03c.32,.17,.63,.26,.86,.3,.23,.03,.37,.02,.38,0,0-.02-.14-.05-.35-.11-.18-.05-.42-.14-.67-.26,.44-.08,.89-.17,1.33-.27h0c.38,.2,.75,.32,1.02,.38,.27,.06,.44,.07,.44,.06,0-.02-.16-.07-.42-.15-.22-.08-.5-.19-.81-.34,.43-.1,.87-.22,1.29-.34v.02c.69,.23,1.26,.37,1.27,.34,0-.03-.43-.22-1.03-.43,.22-.07,.44-.13,.66-.21,.11-.03,.21-.07,.32-.11,.51,.12,.96,.23,1.3,.24,.34,.03,.55,.04,.55,.02s-.2-.06-.53-.12c-.28-.04-.64-.14-1.04-.24,.38-.14,.78-.3,1.19-.48v.07c.85,.04,1.54,.11,1.54,.07,0-.02-.17-.06-.44-.11-.24-.05-.56-.08-.93-.11,.31-.14,.63-.3,.95-.47l.03,.04c.06-.04,.15-.04,.26-.03h.29c.18,0,.35,0,.49,0,.28,0,.45-.02,.45-.04,0-.02-.17-.04-.45-.06-.14-.01-.3-.02-.49-.03h-.3l.02-.02h0c.36-.2,.72-.42,1.08-.65,.42-.05,.79-.1,1.06-.17,.28-.07,.44-.12,.44-.13,0-.03-.52,.04-1.22,.12,.24-.17,.48-.35,.72-.53v.02c.39-.04,.73-.08,.97-.16,.24-.06,.39-.11,.39-.13,0-.03-.49,.05-1.14,.1v-.02c.28-.23,.56-.48,.83-.75h.05l.11-.04,.21-.06c.14-.04,.26-.08,.36-.11,.2-.07,.33-.12,.32-.13,0-.02-.14,0-.35,.04-.11,.02-.23,.04-.37,.07l-.13,.03c.17-.17,.34-.35,.5-.54l.04,.08c.45-.18,.79-.37,.78-.4,0-.03-.32,.05-.72,.2Z"/><path class="da" d="M461.76,360.42c-.06,.2-.1,.32-.09,.33,.01,0,.09-.1,.18-.3,.09-.2,.17-.49,.18-.83h-.16c0,.32-.06,.6-.11,.8Z"/></g></g></g><g><text class="cf" transform="translate(218.88 125.59)"><tspan class="cy" x="0" y="0">C</tspan><tspan class="dh" x="24.57" y="0">H</tspan><tspan class="cc" x="47.64" y="0">A</tspan><tspan class="cw" x="68.54" y="0">S</tspan><tspan x="94.29" y="0">E </tspan></text><text class="cg" transform="translate(346.63 119.79)"><tspan class="cl" x="0" y="0">T</tspan><tspan class="bn" x="14.42" y="0">h</tspan><tspan class="cb" x="31.42" y="0">e</tspan></text><text class="cf" transform="translate(407.81 125.59)"><tspan x="0" y="0">D</tspan><tspan class="bm" x="24.51" y="0">E</tspan><tspan class="cc" x="47.31" y="0">A</tspan><tspan x="68.21" y="0">L</tspan></text></g><g><path class="c`" d="M279.63,179.88h154.65c4.79,0,8.68,3.89,8.68,8.68v22.7c0,4.98-4.04,9.02-9.02,9.02h-154.31c-4.79,0-8.68-3.89-8.68-8.68v-23.04c0-4.79,3.89-8.68,8.68-8.68Z"/><g><path class="df" d="M282.41,182.86h140.24c4.79,0,8.68,3.89,8.68,8.68v16.74c0,4.98-4.04,9.02-9.02,9.02h-139.9c-4.79,0-8.68-3.89-8.68-8.68v-17.08c0-4.79,3.89-8.68,8.68-8.68Z"/><text class="by" transform="translate(293.31 209.21) scale(1.09 1)"><tspan x="0" y="0">LOG IN!</tspan></text></g></g><text/><g><path class="c`" d="M284.31,252.02h154.65c4.79,0,8.68,3.89,8.68,8.68v22.7c0,4.98-4.04,9.02-9.02,9.02h-154.31c-4.79,0-8.68-3.89-8.68-8.68v-23.04c0-4.79,3.89-8.68,8.68-8.68Z"/><path class="df" d="M287.09,255h140.24c4.79,0,8.68,3.89,8.68,8.68v16.74c0,4.98-4.04,9.02-9.02,9.02h-139.9c-4.79,0-8.68-3.89-8.68-8.68v-17.08c0-4.79,3.89-8.68,8.68-8.68Z"/><text class="by" transform="translate(288.56 282.59) scale(1.09 1)"><tspan x="0" y="0">SIGN UP!</tspan></text></g><g><g><path class="c`" d="M889.87,480.63h-221.11c-27.52,0-49.83,22.31-49.83,49.83v300.35c0,27.52,22.31,49.83,49.83,49.83h221.11c27.52,0,49.83-22.31,49.83-49.83v-300.35c0-27.52-22.31-49.83-49.83-49.83Zm38.5,336.04c0,27.52-22.31,49.83-49.83,49.83h-198.45c-27.52,0-49.83-22.31-49.83-49.83v-272.09c0-27.52,22.31-49.83,49.83-49.83h198.45c27.52,0,49.83,22.31,49.83,49.83v272.09Z"/><g><rect class="db" x="677.67" y="478.55" width="25.69" height="16.2"/><rect class="db" x="855.27" y="478.55" width="25.69" height="16.2"/><rect class="db" x="722.07" y="478.55" width="25.69" height="16.2"/><rect class="db" x="810.87" y="478.55" width="25.69" height="16.2"/><rect class="db" x="766.47" y="478.55" width="25.69" height="16.2"/></g><g><rect class="db" x="677.67" y="863.92" width="25.69" height="16.7"/><rect class="db" x="855.27" y="863.92" width="25.69" height="16.7"/><rect class="db" x="722.07" y="863.92" width="25.69" height="16.7"/><rect class="db" x="810.87" y="863.92" width="25.69" height="16.7"/><rect class="db" x="766.47" y="863.92" width="25.69" height="16.7"/></g><g><rect class="db" x="617.62" y="552.34" width="12.65" height="26.19"/><rect class="db" x="617.62" y="629.13" width="12.65" height="26.19"/><rect class="db" x="617.62" y="705.93" width="12.65" height="26.19"/><rect class="db" x="617.62" y="782.72" width="12.65" height="26.19"/></g><g><rect class="db" x="928.75" y="552.34" width="10.94" height="26.19"/><rect class="db" x="928.75" y="629.13" width="10.94" height="26.19"/><rect class="db" x="928.75" y="705.93" width="10.94" height="26.19"/><rect class="db" x="928.75" y="782.72" width="10.94" height="26.19"/></g></g><rect class="dw" x="630.37" y="494.76" width="298.1" height="371.74" rx="49.83" ry="49.83"/></g><g><path class="c`" d="M55.21,508.7H209.86c4.79,0,8.68,3.89,8.68,8.68v22.7c0,4.98-4.04,9.02-9.02,9.02H55.21c-4.79,0-8.68-3.89-8.68-8.68v-23.04c0-4.79,3.89-8.68,8.68-8.68Z"/><g><path class="df" d="M57.99,511.68H198.23c4.79,0,8.68,3.89,8.68,8.68v16.74c0,4.98-4.04,9.02-9.02,9.02H57.99c-4.79,0-8.68-3.89-8.68-8.68v-17.08c0-4.79,3.89-8.68,8.68-8.68Z"/><text class="by" transform="translate(68.88 538.03) scale(1.09 1)"><tspan x="0" y="0">LOG IN!</tspan></text></g></g><g><path class="c`" d="M277.46,491.13h154.65c4.79,0,8.68,3.89,8.68,8.68v22.7c0,4.98-4.04,9.02-9.02,9.02h-154.31c-4.79,0-8.68-3.89-8.68-8.68v-23.04c0-4.79,3.89-8.68,8.68-8.68Z"/><path class="df" d="M280.23,494.11h140.24c4.79,0,8.68,3.89,8.68,8.68v16.74c0,4.98-4.04,9.02-9.02,9.02h-139.9c-4.79,0-8.68-3.89-8.68-8.68v-17.08c0-4.79,3.89-8.68,8.68-8.68Z"/><text class="by" transform="translate(281.7 521.7) scale(1.09 1)"><tspan x="0" y="0">SIGN UP!</tspan></text></g></svg>